G75*
%MOIN*%
%OFA0B0*%
%FSLAX25Y25*%
%IPPOS*%
%LPD*%
%AMOC8*
5,1,8,0,0,1.08239X$1,22.5*
%
%ADD10C,0.00900*%
%ADD11C,0.01100*%
%ADD12C,0.01200*%
%ADD13C,0.01000*%
%ADD14C,0.00500*%
%ADD15C,0.00800*%
%ADD16C,0.02953*%
%ADD17R,0.01969X0.03937*%
%ADD18R,0.02362X0.03937*%
%ADD19C,0.00400*%
%ADD20C,0.00600*%
%ADD21R,0.01800X0.02300*%
%ADD22C,0.02000*%
%ADD23R,0.01000X0.02000*%
%ADD24R,0.01181X0.06299*%
%ADD25R,0.02362X0.03543*%
D10*
X0099616Y0084753D02*
X0099616Y0087853D01*
X0101338Y0087853D02*
X0099616Y0084753D01*
X0101338Y0084753D02*
X0101338Y0087853D01*
X0103336Y0086992D02*
X0103336Y0085614D01*
X0103338Y0085556D01*
X0103344Y0085499D01*
X0103353Y0085443D01*
X0103367Y0085387D01*
X0103384Y0085332D01*
X0103404Y0085278D01*
X0103429Y0085226D01*
X0103456Y0085175D01*
X0103487Y0085127D01*
X0103521Y0085080D01*
X0103558Y0085036D01*
X0103598Y0084995D01*
X0103641Y0084956D01*
X0103686Y0084921D01*
X0103734Y0084888D01*
X0103783Y0084859D01*
X0103835Y0084833D01*
X0103888Y0084811D01*
X0103942Y0084792D01*
X0103997Y0084776D01*
X0104054Y0084765D01*
X0104111Y0084757D01*
X0104168Y0084753D01*
X0104226Y0084753D01*
X0104283Y0084757D01*
X0104340Y0084765D01*
X0104397Y0084776D01*
X0104452Y0084792D01*
X0104506Y0084811D01*
X0104559Y0084833D01*
X0104611Y0084859D01*
X0104660Y0084888D01*
X0104708Y0084921D01*
X0104753Y0084956D01*
X0104796Y0084995D01*
X0104836Y0085036D01*
X0104873Y0085080D01*
X0104907Y0085127D01*
X0104938Y0085175D01*
X0104965Y0085226D01*
X0104990Y0085278D01*
X0105010Y0085332D01*
X0105027Y0085387D01*
X0105041Y0085443D01*
X0105050Y0085499D01*
X0105056Y0085556D01*
X0105058Y0085614D01*
X0105058Y0086992D01*
X0105056Y0087050D01*
X0105050Y0087107D01*
X0105041Y0087163D01*
X0105027Y0087219D01*
X0105010Y0087274D01*
X0104990Y0087328D01*
X0104965Y0087380D01*
X0104938Y0087431D01*
X0104907Y0087479D01*
X0104873Y0087526D01*
X0104836Y0087570D01*
X0104796Y0087611D01*
X0104753Y0087650D01*
X0104708Y0087685D01*
X0104660Y0087718D01*
X0104611Y0087747D01*
X0104559Y0087773D01*
X0104506Y0087795D01*
X0104452Y0087814D01*
X0104397Y0087830D01*
X0104340Y0087841D01*
X0104283Y0087849D01*
X0104226Y0087853D01*
X0104168Y0087853D01*
X0104111Y0087849D01*
X0104054Y0087841D01*
X0103997Y0087830D01*
X0103942Y0087814D01*
X0103888Y0087795D01*
X0103835Y0087773D01*
X0103783Y0087747D01*
X0103734Y0087718D01*
X0103686Y0087685D01*
X0103641Y0087650D01*
X0103598Y0087611D01*
X0103558Y0087570D01*
X0103521Y0087526D01*
X0103487Y0087479D01*
X0103456Y0087431D01*
X0103429Y0087380D01*
X0103404Y0087328D01*
X0103384Y0087274D01*
X0103367Y0087219D01*
X0103353Y0087163D01*
X0103344Y0087107D01*
X0103338Y0087050D01*
X0103336Y0086992D01*
X0107004Y0086475D02*
X0109070Y0086475D01*
X0109070Y0085442D02*
X0107004Y0085442D01*
X0110816Y0084753D02*
X0110988Y0084753D01*
X0111031Y0084755D01*
X0111073Y0084760D01*
X0111115Y0084769D01*
X0111156Y0084781D01*
X0111196Y0084797D01*
X0111234Y0084815D01*
X0111271Y0084837D01*
X0111306Y0084862D01*
X0111338Y0084890D01*
X0111368Y0084920D01*
X0111396Y0084952D01*
X0111421Y0084987D01*
X0111443Y0085024D01*
X0111461Y0085062D01*
X0111477Y0085102D01*
X0111489Y0085143D01*
X0111498Y0085185D01*
X0111503Y0085227D01*
X0111505Y0085270D01*
X0111505Y0087853D01*
X0111849Y0086820D02*
X0110816Y0086820D01*
X0112813Y0086820D02*
X0112813Y0086475D01*
X0112813Y0086820D02*
X0113846Y0086820D01*
X0113846Y0084753D01*
X0115748Y0085442D02*
X0115748Y0086131D01*
X0115750Y0086182D01*
X0115756Y0086234D01*
X0115765Y0086284D01*
X0115779Y0086334D01*
X0115796Y0086383D01*
X0115816Y0086430D01*
X0115840Y0086476D01*
X0115868Y0086519D01*
X0115898Y0086561D01*
X0115932Y0086600D01*
X0115968Y0086636D01*
X0116007Y0086670D01*
X0116049Y0086700D01*
X0116093Y0086728D01*
X0116138Y0086752D01*
X0116185Y0086772D01*
X0116234Y0086789D01*
X0116284Y0086803D01*
X0116334Y0086812D01*
X0116386Y0086818D01*
X0116437Y0086820D01*
X0116488Y0086818D01*
X0116540Y0086812D01*
X0116590Y0086803D01*
X0116640Y0086789D01*
X0116689Y0086772D01*
X0116736Y0086752D01*
X0116782Y0086728D01*
X0116825Y0086700D01*
X0116867Y0086670D01*
X0116906Y0086636D01*
X0116942Y0086600D01*
X0116976Y0086561D01*
X0117006Y0086519D01*
X0117034Y0086476D01*
X0117058Y0086430D01*
X0117078Y0086383D01*
X0117095Y0086334D01*
X0117109Y0086284D01*
X0117118Y0086234D01*
X0117124Y0086182D01*
X0117126Y0086131D01*
X0117126Y0085442D01*
X0117124Y0085391D01*
X0117118Y0085339D01*
X0117109Y0085289D01*
X0117095Y0085239D01*
X0117078Y0085190D01*
X0117058Y0085143D01*
X0117034Y0085098D01*
X0117006Y0085054D01*
X0116976Y0085012D01*
X0116942Y0084973D01*
X0116906Y0084937D01*
X0116867Y0084903D01*
X0116825Y0084873D01*
X0116782Y0084845D01*
X0116736Y0084821D01*
X0116689Y0084801D01*
X0116640Y0084784D01*
X0116590Y0084770D01*
X0116540Y0084761D01*
X0116488Y0084755D01*
X0116437Y0084753D01*
X0116386Y0084755D01*
X0116334Y0084761D01*
X0116284Y0084770D01*
X0116234Y0084784D01*
X0116185Y0084801D01*
X0116138Y0084821D01*
X0116093Y0084845D01*
X0116049Y0084873D01*
X0116007Y0084903D01*
X0115968Y0084937D01*
X0115932Y0084973D01*
X0115898Y0085012D01*
X0115868Y0085054D01*
X0115840Y0085098D01*
X0115816Y0085143D01*
X0115796Y0085190D01*
X0115779Y0085239D01*
X0115765Y0085289D01*
X0115756Y0085339D01*
X0115750Y0085391D01*
X0115748Y0085442D01*
X0118988Y0084753D02*
X0118988Y0086303D01*
X0118990Y0086346D01*
X0118995Y0086388D01*
X0119004Y0086430D01*
X0119016Y0086471D01*
X0119032Y0086511D01*
X0119050Y0086549D01*
X0119072Y0086586D01*
X0119097Y0086621D01*
X0119125Y0086653D01*
X0119155Y0086683D01*
X0119187Y0086711D01*
X0119222Y0086736D01*
X0119259Y0086758D01*
X0119297Y0086776D01*
X0119337Y0086792D01*
X0119378Y0086804D01*
X0119420Y0086813D01*
X0119462Y0086818D01*
X0119505Y0086820D01*
X0120366Y0086820D01*
X0120366Y0087853D02*
X0120366Y0084753D01*
X0122520Y0086045D02*
X0123467Y0086561D01*
X0123123Y0087854D02*
X0123054Y0087852D01*
X0122985Y0087847D01*
X0122916Y0087837D01*
X0122848Y0087824D01*
X0122781Y0087808D01*
X0122714Y0087788D01*
X0122649Y0087764D01*
X0122586Y0087737D01*
X0122523Y0087706D01*
X0122463Y0087673D01*
X0122404Y0087636D01*
X0122348Y0087596D01*
X0123467Y0086561D02*
X0123511Y0086589D01*
X0123553Y0086620D01*
X0123592Y0086654D01*
X0123628Y0086691D01*
X0123662Y0086731D01*
X0123692Y0086773D01*
X0123720Y0086817D01*
X0123744Y0086863D01*
X0123764Y0086910D01*
X0123781Y0086959D01*
X0123795Y0087010D01*
X0123804Y0087061D01*
X0123810Y0087112D01*
X0123812Y0087164D01*
X0123810Y0087215D01*
X0123804Y0087267D01*
X0123795Y0087317D01*
X0123781Y0087367D01*
X0123764Y0087416D01*
X0123744Y0087463D01*
X0123720Y0087509D01*
X0123692Y0087552D01*
X0123662Y0087594D01*
X0123628Y0087633D01*
X0123592Y0087669D01*
X0123553Y0087703D01*
X0123511Y0087733D01*
X0123468Y0087761D01*
X0123422Y0087785D01*
X0123375Y0087805D01*
X0123326Y0087822D01*
X0123276Y0087836D01*
X0123226Y0087845D01*
X0123174Y0087851D01*
X0123123Y0087853D01*
X0123898Y0085183D02*
X0123846Y0085134D01*
X0123792Y0085087D01*
X0123736Y0085042D01*
X0123677Y0085001D01*
X0123617Y0084962D01*
X0123554Y0084927D01*
X0123490Y0084894D01*
X0123425Y0084865D01*
X0123358Y0084839D01*
X0123290Y0084816D01*
X0123220Y0084797D01*
X0123150Y0084781D01*
X0123080Y0084769D01*
X0123008Y0084760D01*
X0122937Y0084755D01*
X0122865Y0084753D01*
X0122814Y0084755D01*
X0122762Y0084761D01*
X0122712Y0084770D01*
X0122662Y0084784D01*
X0122613Y0084801D01*
X0122566Y0084821D01*
X0122521Y0084845D01*
X0122477Y0084873D01*
X0122435Y0084903D01*
X0122396Y0084937D01*
X0122360Y0084973D01*
X0122326Y0085012D01*
X0122296Y0085054D01*
X0122268Y0085097D01*
X0122244Y0085143D01*
X0122224Y0085190D01*
X0122207Y0085239D01*
X0122193Y0085289D01*
X0122184Y0085339D01*
X0122178Y0085391D01*
X0122176Y0085442D01*
X0122175Y0085442D02*
X0122177Y0085494D01*
X0122183Y0085545D01*
X0122192Y0085596D01*
X0122206Y0085647D01*
X0122223Y0085696D01*
X0122243Y0085743D01*
X0122267Y0085789D01*
X0122295Y0085833D01*
X0122325Y0085875D01*
X0122359Y0085915D01*
X0122395Y0085952D01*
X0122434Y0085986D01*
X0122476Y0086017D01*
X0122520Y0086045D01*
X0130866Y0085356D02*
X0130866Y0087079D01*
X0130866Y0085356D02*
X0132588Y0086820D01*
X0133966Y0086304D02*
X0133964Y0086244D01*
X0133959Y0086185D01*
X0133950Y0086126D01*
X0133938Y0086068D01*
X0133922Y0086010D01*
X0133902Y0085954D01*
X0133880Y0085899D01*
X0133854Y0085845D01*
X0133825Y0085793D01*
X0133793Y0085743D01*
X0133758Y0085694D01*
X0133720Y0085648D01*
X0133679Y0085605D01*
X0133636Y0085563D01*
X0133590Y0085525D01*
X0133543Y0085489D01*
X0133493Y0085456D01*
X0133441Y0085427D01*
X0133388Y0085400D01*
X0133333Y0085377D01*
X0133277Y0085356D01*
X0132589Y0086820D02*
X0132629Y0086859D01*
X0132671Y0086896D01*
X0132716Y0086929D01*
X0132763Y0086960D01*
X0132812Y0086987D01*
X0132863Y0087011D01*
X0132916Y0087031D01*
X0132969Y0087048D01*
X0133024Y0087061D01*
X0133079Y0087070D01*
X0133135Y0087076D01*
X0133191Y0087078D01*
X0133191Y0087079D02*
X0133246Y0087077D01*
X0133301Y0087071D01*
X0133356Y0087061D01*
X0133409Y0087048D01*
X0133462Y0087030D01*
X0133513Y0087009D01*
X0133562Y0086984D01*
X0133610Y0086956D01*
X0133655Y0086924D01*
X0133699Y0086890D01*
X0133739Y0086852D01*
X0133777Y0086812D01*
X0133811Y0086768D01*
X0133843Y0086723D01*
X0133871Y0086675D01*
X0133896Y0086626D01*
X0133917Y0086575D01*
X0133935Y0086522D01*
X0133948Y0086469D01*
X0133958Y0086414D01*
X0133964Y0086359D01*
X0133966Y0086304D01*
X0133966Y0082839D02*
X0133966Y0081978D01*
X0130866Y0081978D01*
X0132244Y0081978D02*
X0132244Y0082839D01*
X0132246Y0082897D01*
X0132252Y0082954D01*
X0132261Y0083010D01*
X0132275Y0083066D01*
X0132292Y0083121D01*
X0132312Y0083175D01*
X0132337Y0083227D01*
X0132364Y0083278D01*
X0132395Y0083326D01*
X0132429Y0083373D01*
X0132466Y0083417D01*
X0132506Y0083458D01*
X0132549Y0083497D01*
X0132594Y0083532D01*
X0132642Y0083565D01*
X0132691Y0083594D01*
X0132743Y0083620D01*
X0132796Y0083642D01*
X0132850Y0083661D01*
X0132905Y0083677D01*
X0132962Y0083688D01*
X0133019Y0083696D01*
X0133076Y0083700D01*
X0133134Y0083700D01*
X0133191Y0083696D01*
X0133248Y0083688D01*
X0133305Y0083677D01*
X0133360Y0083661D01*
X0133414Y0083642D01*
X0133467Y0083620D01*
X0133519Y0083594D01*
X0133568Y0083565D01*
X0133616Y0083532D01*
X0133661Y0083497D01*
X0133704Y0083458D01*
X0133744Y0083417D01*
X0133781Y0083373D01*
X0133815Y0083326D01*
X0133846Y0083278D01*
X0133873Y0083227D01*
X0133898Y0083175D01*
X0133918Y0083121D01*
X0133935Y0083066D01*
X0133949Y0083010D01*
X0133958Y0082954D01*
X0133964Y0082897D01*
X0133966Y0082839D01*
X0133966Y0079786D02*
X0131555Y0079786D01*
X0131555Y0079787D02*
X0131504Y0079785D01*
X0131452Y0079779D01*
X0131402Y0079770D01*
X0131352Y0079756D01*
X0131303Y0079739D01*
X0131256Y0079719D01*
X0131211Y0079695D01*
X0131167Y0079667D01*
X0131125Y0079637D01*
X0131086Y0079603D01*
X0131050Y0079567D01*
X0131016Y0079528D01*
X0130986Y0079486D01*
X0130958Y0079443D01*
X0130934Y0079397D01*
X0130914Y0079350D01*
X0130897Y0079301D01*
X0130883Y0079251D01*
X0130874Y0079201D01*
X0130868Y0079149D01*
X0130866Y0079098D01*
X0130866Y0078753D01*
X0128902Y0107503D02*
X0127180Y0107503D01*
X0127129Y0107505D01*
X0127077Y0107511D01*
X0127027Y0107520D01*
X0126977Y0107534D01*
X0126928Y0107551D01*
X0126881Y0107571D01*
X0126836Y0107595D01*
X0126792Y0107623D01*
X0126750Y0107653D01*
X0126711Y0107687D01*
X0126675Y0107723D01*
X0126641Y0107762D01*
X0126611Y0107804D01*
X0126583Y0107848D01*
X0126559Y0107893D01*
X0126539Y0107940D01*
X0126522Y0107989D01*
X0126508Y0108039D01*
X0126499Y0108089D01*
X0126493Y0108141D01*
X0126491Y0108192D01*
X0126491Y0108881D01*
X0126491Y0110523D02*
X0126491Y0112245D01*
X0126491Y0111384D02*
X0129591Y0111384D01*
X0128902Y0110523D01*
X0129591Y0108881D02*
X0129591Y0108192D01*
X0129589Y0108141D01*
X0129583Y0108089D01*
X0129574Y0108039D01*
X0129560Y0107989D01*
X0129543Y0107940D01*
X0129523Y0107893D01*
X0129499Y0107848D01*
X0129471Y0107804D01*
X0129441Y0107762D01*
X0129407Y0107723D01*
X0129371Y0107687D01*
X0129332Y0107653D01*
X0129290Y0107623D01*
X0129247Y0107595D01*
X0129201Y0107571D01*
X0129154Y0107551D01*
X0129105Y0107534D01*
X0129055Y0107520D01*
X0129005Y0107511D01*
X0128953Y0107505D01*
X0128902Y0107503D01*
X0123966Y0109614D02*
X0123964Y0109663D01*
X0123958Y0109712D01*
X0123949Y0109761D01*
X0123936Y0109808D01*
X0123919Y0109855D01*
X0123898Y0109900D01*
X0123874Y0109943D01*
X0123847Y0109984D01*
X0123817Y0110023D01*
X0123784Y0110060D01*
X0123748Y0110094D01*
X0123710Y0110125D01*
X0123669Y0110153D01*
X0123626Y0110177D01*
X0123582Y0110199D01*
X0123536Y0110217D01*
X0123277Y0110303D02*
X0121555Y0108925D01*
X0120866Y0109614D02*
X0120868Y0109663D01*
X0120874Y0109712D01*
X0120883Y0109761D01*
X0120896Y0109808D01*
X0120913Y0109855D01*
X0120934Y0109900D01*
X0120958Y0109943D01*
X0120985Y0109984D01*
X0121015Y0110023D01*
X0121048Y0110060D01*
X0121084Y0110094D01*
X0121122Y0110125D01*
X0121163Y0110153D01*
X0121206Y0110177D01*
X0121250Y0110199D01*
X0121296Y0110217D01*
X0120866Y0109614D02*
X0120868Y0109565D01*
X0120874Y0109516D01*
X0120883Y0109467D01*
X0120896Y0109420D01*
X0120913Y0109373D01*
X0120934Y0109328D01*
X0120958Y0109285D01*
X0120985Y0109244D01*
X0121015Y0109205D01*
X0121048Y0109168D01*
X0121084Y0109134D01*
X0121122Y0109103D01*
X0121163Y0109075D01*
X0121206Y0109051D01*
X0121250Y0109029D01*
X0121296Y0109011D01*
X0122416Y0110476D02*
X0122513Y0110474D01*
X0122609Y0110469D01*
X0122705Y0110460D01*
X0122801Y0110447D01*
X0122896Y0110430D01*
X0122991Y0110411D01*
X0123084Y0110387D01*
X0123177Y0110360D01*
X0123269Y0110330D01*
X0123359Y0110296D01*
X0123448Y0110258D01*
X0123536Y0110218D01*
X0123966Y0109614D02*
X0123964Y0109565D01*
X0123958Y0109516D01*
X0123949Y0109467D01*
X0123936Y0109420D01*
X0123919Y0109373D01*
X0123898Y0109328D01*
X0123874Y0109285D01*
X0123847Y0109244D01*
X0123817Y0109205D01*
X0123784Y0109168D01*
X0123748Y0109134D01*
X0123710Y0109103D01*
X0123669Y0109075D01*
X0123626Y0109051D01*
X0123582Y0109029D01*
X0123536Y0109011D01*
X0122416Y0110476D02*
X0122319Y0110474D01*
X0122223Y0110469D01*
X0122127Y0110460D01*
X0122031Y0110447D01*
X0121936Y0110431D01*
X0121841Y0110411D01*
X0121748Y0110387D01*
X0121655Y0110360D01*
X0121563Y0110330D01*
X0121473Y0110296D01*
X0121384Y0110258D01*
X0121296Y0110218D01*
X0122416Y0108753D02*
X0122513Y0108755D01*
X0122609Y0108760D01*
X0122705Y0108769D01*
X0122801Y0108782D01*
X0122896Y0108798D01*
X0122991Y0108818D01*
X0123084Y0108842D01*
X0123177Y0108869D01*
X0123269Y0108899D01*
X0123359Y0108933D01*
X0123448Y0108971D01*
X0123536Y0109011D01*
X0122416Y0108753D02*
X0122319Y0108755D01*
X0122223Y0108760D01*
X0122127Y0108769D01*
X0122031Y0108782D01*
X0121936Y0108798D01*
X0121841Y0108818D01*
X0121748Y0108842D01*
X0121655Y0108869D01*
X0121563Y0108899D01*
X0121473Y0108933D01*
X0121384Y0108971D01*
X0121296Y0109011D01*
X0121038Y0112048D02*
X0121038Y0112220D01*
X0120866Y0112220D01*
X0120866Y0112048D01*
X0121038Y0112048D01*
X0120866Y0113793D02*
X0120866Y0115515D01*
X0120866Y0114654D02*
X0123966Y0114654D01*
X0123277Y0113793D01*
X0122933Y0117445D02*
X0121383Y0117445D01*
X0121340Y0117447D01*
X0121298Y0117452D01*
X0121256Y0117461D01*
X0121215Y0117473D01*
X0121175Y0117489D01*
X0121137Y0117507D01*
X0121100Y0117529D01*
X0121065Y0117554D01*
X0121033Y0117582D01*
X0121003Y0117612D01*
X0120975Y0117644D01*
X0120950Y0117679D01*
X0120928Y0117716D01*
X0120910Y0117754D01*
X0120894Y0117794D01*
X0120882Y0117835D01*
X0120873Y0117877D01*
X0120868Y0117919D01*
X0120866Y0117962D01*
X0120866Y0118823D01*
X0122933Y0118823D01*
X0122588Y0120887D02*
X0122588Y0122264D01*
X0123966Y0122264D02*
X0123966Y0120887D01*
X0120866Y0120887D01*
X0153366Y0127253D02*
X0155088Y0127253D01*
X0154227Y0127253D02*
X0154227Y0130353D01*
X0155088Y0129664D01*
X0156730Y0130353D02*
X0157419Y0130353D01*
X0157470Y0130351D01*
X0157522Y0130345D01*
X0157572Y0130336D01*
X0157622Y0130322D01*
X0157671Y0130305D01*
X0157718Y0130285D01*
X0157764Y0130261D01*
X0157807Y0130233D01*
X0157849Y0130203D01*
X0157888Y0130169D01*
X0157924Y0130133D01*
X0157958Y0130094D01*
X0157988Y0130052D01*
X0158016Y0130009D01*
X0158040Y0129963D01*
X0158060Y0129916D01*
X0158077Y0129867D01*
X0158091Y0129817D01*
X0158100Y0129767D01*
X0158106Y0129715D01*
X0158108Y0129664D01*
X0158108Y0127942D01*
X0158106Y0127891D01*
X0158100Y0127839D01*
X0158091Y0127789D01*
X0158077Y0127739D01*
X0158060Y0127690D01*
X0158040Y0127643D01*
X0158016Y0127598D01*
X0157988Y0127554D01*
X0157958Y0127512D01*
X0157924Y0127473D01*
X0157888Y0127437D01*
X0157849Y0127403D01*
X0157807Y0127373D01*
X0157764Y0127345D01*
X0157718Y0127321D01*
X0157671Y0127301D01*
X0157622Y0127284D01*
X0157572Y0127270D01*
X0157522Y0127261D01*
X0157470Y0127255D01*
X0157419Y0127253D01*
X0156730Y0127253D01*
X0160587Y0127253D02*
X0160587Y0130353D01*
X0161448Y0130353D02*
X0159726Y0130353D01*
X0163206Y0130353D02*
X0163206Y0127253D01*
X0164928Y0130353D01*
X0164928Y0127253D01*
X0201079Y0113728D02*
X0202113Y0113728D01*
X0201079Y0113728D02*
X0201028Y0113726D01*
X0200976Y0113720D01*
X0200926Y0113711D01*
X0200876Y0113697D01*
X0200827Y0113680D01*
X0200780Y0113660D01*
X0200735Y0113636D01*
X0200691Y0113608D01*
X0200649Y0113578D01*
X0200610Y0113544D01*
X0200574Y0113508D01*
X0200540Y0113469D01*
X0200510Y0113427D01*
X0200482Y0113384D01*
X0200458Y0113338D01*
X0200438Y0113291D01*
X0200421Y0113242D01*
X0200407Y0113192D01*
X0200398Y0113142D01*
X0200392Y0113090D01*
X0200390Y0113039D01*
X0200392Y0112988D01*
X0200398Y0112936D01*
X0200407Y0112886D01*
X0200421Y0112836D01*
X0200438Y0112787D01*
X0200458Y0112740D01*
X0200482Y0112695D01*
X0200510Y0112651D01*
X0200540Y0112609D01*
X0200574Y0112570D01*
X0200610Y0112534D01*
X0200649Y0112500D01*
X0200691Y0112470D01*
X0200735Y0112442D01*
X0200780Y0112418D01*
X0200827Y0112398D01*
X0200876Y0112381D01*
X0200926Y0112367D01*
X0200976Y0112358D01*
X0201028Y0112352D01*
X0201079Y0112350D01*
X0201768Y0112350D01*
X0201252Y0112350D02*
X0201194Y0112348D01*
X0201137Y0112342D01*
X0201081Y0112333D01*
X0201025Y0112319D01*
X0200970Y0112302D01*
X0200916Y0112282D01*
X0200864Y0112257D01*
X0200813Y0112230D01*
X0200765Y0112199D01*
X0200718Y0112165D01*
X0200674Y0112128D01*
X0200633Y0112088D01*
X0200594Y0112045D01*
X0200559Y0112000D01*
X0200526Y0111952D01*
X0200497Y0111903D01*
X0200471Y0111851D01*
X0200449Y0111798D01*
X0200430Y0111744D01*
X0200414Y0111689D01*
X0200403Y0111632D01*
X0200395Y0111575D01*
X0200391Y0111518D01*
X0200391Y0111460D01*
X0200395Y0111403D01*
X0200403Y0111346D01*
X0200414Y0111289D01*
X0200430Y0111234D01*
X0200449Y0111180D01*
X0200471Y0111127D01*
X0200497Y0111075D01*
X0200526Y0111026D01*
X0200559Y0110978D01*
X0200594Y0110933D01*
X0200633Y0110890D01*
X0200674Y0110850D01*
X0200718Y0110813D01*
X0200765Y0110779D01*
X0200813Y0110748D01*
X0200864Y0110721D01*
X0200916Y0110696D01*
X0200970Y0110676D01*
X0201025Y0110659D01*
X0201081Y0110645D01*
X0201137Y0110636D01*
X0201194Y0110630D01*
X0201252Y0110628D01*
X0202113Y0110628D01*
X0204630Y0112006D02*
X0205491Y0112006D01*
X0204630Y0112006D02*
X0204572Y0112008D01*
X0204515Y0112014D01*
X0204459Y0112023D01*
X0204403Y0112037D01*
X0204348Y0112054D01*
X0204294Y0112074D01*
X0204242Y0112099D01*
X0204191Y0112126D01*
X0204143Y0112157D01*
X0204096Y0112191D01*
X0204052Y0112228D01*
X0204011Y0112268D01*
X0203972Y0112311D01*
X0203937Y0112356D01*
X0203904Y0112404D01*
X0203875Y0112453D01*
X0203849Y0112505D01*
X0203827Y0112558D01*
X0203808Y0112612D01*
X0203792Y0112667D01*
X0203781Y0112724D01*
X0203773Y0112781D01*
X0203769Y0112838D01*
X0203769Y0112896D01*
X0203773Y0112953D01*
X0203781Y0113010D01*
X0203792Y0113067D01*
X0203808Y0113122D01*
X0203827Y0113176D01*
X0203849Y0113229D01*
X0203875Y0113281D01*
X0203904Y0113330D01*
X0203937Y0113378D01*
X0203972Y0113423D01*
X0204011Y0113466D01*
X0204052Y0113506D01*
X0204096Y0113543D01*
X0204143Y0113577D01*
X0204191Y0113608D01*
X0204242Y0113635D01*
X0204294Y0113660D01*
X0204348Y0113680D01*
X0204403Y0113697D01*
X0204459Y0113711D01*
X0204515Y0113720D01*
X0204572Y0113726D01*
X0204630Y0113728D01*
X0205491Y0113728D01*
X0205491Y0110628D01*
X0207683Y0111317D02*
X0207683Y0113728D01*
X0207682Y0111317D02*
X0207684Y0111266D01*
X0207690Y0111214D01*
X0207699Y0111164D01*
X0207713Y0111114D01*
X0207730Y0111065D01*
X0207750Y0111018D01*
X0207774Y0110972D01*
X0207802Y0110929D01*
X0207832Y0110887D01*
X0207866Y0110848D01*
X0207902Y0110812D01*
X0207941Y0110778D01*
X0207983Y0110748D01*
X0208027Y0110720D01*
X0208072Y0110696D01*
X0208119Y0110676D01*
X0208168Y0110659D01*
X0208218Y0110645D01*
X0208268Y0110636D01*
X0208320Y0110630D01*
X0208371Y0110628D01*
X0208716Y0110628D01*
X0213991Y0110756D02*
X0213991Y0110067D01*
X0213993Y0110016D01*
X0213999Y0109964D01*
X0214008Y0109914D01*
X0214022Y0109864D01*
X0214039Y0109815D01*
X0214059Y0109768D01*
X0214083Y0109723D01*
X0214111Y0109679D01*
X0214141Y0109637D01*
X0214175Y0109598D01*
X0214211Y0109562D01*
X0214250Y0109528D01*
X0214292Y0109498D01*
X0214336Y0109470D01*
X0214381Y0109446D01*
X0214428Y0109426D01*
X0214477Y0109409D01*
X0214527Y0109395D01*
X0214577Y0109386D01*
X0214629Y0109380D01*
X0214680Y0109378D01*
X0216402Y0109378D01*
X0216453Y0109380D01*
X0216505Y0109386D01*
X0216555Y0109395D01*
X0216605Y0109409D01*
X0216654Y0109426D01*
X0216701Y0109446D01*
X0216747Y0109470D01*
X0216790Y0109498D01*
X0216832Y0109528D01*
X0216871Y0109562D01*
X0216907Y0109598D01*
X0216941Y0109637D01*
X0216971Y0109679D01*
X0216999Y0109723D01*
X0217023Y0109768D01*
X0217043Y0109815D01*
X0217060Y0109864D01*
X0217074Y0109914D01*
X0217083Y0109964D01*
X0217089Y0110016D01*
X0217091Y0110067D01*
X0217091Y0110756D01*
X0215714Y0113862D02*
X0215754Y0113901D01*
X0215796Y0113938D01*
X0215841Y0113971D01*
X0215888Y0114002D01*
X0215937Y0114029D01*
X0215988Y0114053D01*
X0216041Y0114073D01*
X0216094Y0114090D01*
X0216149Y0114103D01*
X0216204Y0114112D01*
X0216260Y0114118D01*
X0216316Y0114120D01*
X0215713Y0113862D02*
X0213991Y0112398D01*
X0213991Y0114120D01*
X0216402Y0112397D02*
X0216458Y0112418D01*
X0216513Y0112441D01*
X0216566Y0112468D01*
X0216618Y0112497D01*
X0216668Y0112530D01*
X0216715Y0112566D01*
X0216761Y0112604D01*
X0216804Y0112646D01*
X0216845Y0112689D01*
X0216883Y0112735D01*
X0216918Y0112784D01*
X0216950Y0112834D01*
X0216979Y0112886D01*
X0217005Y0112940D01*
X0217027Y0112995D01*
X0217047Y0113051D01*
X0217063Y0113109D01*
X0217075Y0113167D01*
X0217084Y0113226D01*
X0217089Y0113285D01*
X0217091Y0113345D01*
X0217089Y0113400D01*
X0217083Y0113455D01*
X0217073Y0113510D01*
X0217060Y0113563D01*
X0217042Y0113616D01*
X0217021Y0113667D01*
X0216996Y0113716D01*
X0216968Y0113764D01*
X0216936Y0113809D01*
X0216902Y0113853D01*
X0216864Y0113893D01*
X0216824Y0113931D01*
X0216780Y0113965D01*
X0216735Y0113997D01*
X0216687Y0114025D01*
X0216638Y0114050D01*
X0216587Y0114071D01*
X0216534Y0114089D01*
X0216481Y0114102D01*
X0216426Y0114112D01*
X0216371Y0114118D01*
X0216316Y0114120D01*
X0220241Y0113259D02*
X0220241Y0112398D01*
X0220241Y0113259D02*
X0220243Y0113317D01*
X0220249Y0113374D01*
X0220258Y0113430D01*
X0220272Y0113486D01*
X0220289Y0113541D01*
X0220309Y0113595D01*
X0220334Y0113647D01*
X0220361Y0113698D01*
X0220392Y0113746D01*
X0220426Y0113793D01*
X0220463Y0113837D01*
X0220503Y0113878D01*
X0220546Y0113917D01*
X0220591Y0113952D01*
X0220639Y0113985D01*
X0220688Y0114014D01*
X0220740Y0114040D01*
X0220793Y0114062D01*
X0220847Y0114081D01*
X0220902Y0114097D01*
X0220959Y0114108D01*
X0221016Y0114116D01*
X0221073Y0114120D01*
X0221131Y0114120D01*
X0221188Y0114116D01*
X0221245Y0114108D01*
X0221302Y0114097D01*
X0221357Y0114081D01*
X0221411Y0114062D01*
X0221464Y0114040D01*
X0221516Y0114014D01*
X0221565Y0113985D01*
X0221613Y0113952D01*
X0221658Y0113917D01*
X0221701Y0113878D01*
X0221741Y0113837D01*
X0221778Y0113793D01*
X0221812Y0113746D01*
X0221843Y0113698D01*
X0221870Y0113647D01*
X0221895Y0113595D01*
X0221915Y0113541D01*
X0221932Y0113486D01*
X0221946Y0113430D01*
X0221955Y0113374D01*
X0221961Y0113317D01*
X0221963Y0113259D01*
X0221963Y0113431D02*
X0221963Y0112743D01*
X0221963Y0113431D02*
X0221965Y0113482D01*
X0221971Y0113534D01*
X0221980Y0113584D01*
X0221994Y0113634D01*
X0222011Y0113683D01*
X0222031Y0113730D01*
X0222055Y0113776D01*
X0222083Y0113819D01*
X0222113Y0113861D01*
X0222147Y0113900D01*
X0222183Y0113936D01*
X0222222Y0113970D01*
X0222264Y0114000D01*
X0222308Y0114028D01*
X0222353Y0114052D01*
X0222400Y0114072D01*
X0222449Y0114089D01*
X0222499Y0114103D01*
X0222549Y0114112D01*
X0222601Y0114118D01*
X0222652Y0114120D01*
X0222703Y0114118D01*
X0222755Y0114112D01*
X0222805Y0114103D01*
X0222855Y0114089D01*
X0222904Y0114072D01*
X0222951Y0114052D01*
X0222997Y0114028D01*
X0223040Y0114000D01*
X0223082Y0113970D01*
X0223121Y0113936D01*
X0223157Y0113900D01*
X0223191Y0113861D01*
X0223221Y0113819D01*
X0223249Y0113776D01*
X0223273Y0113730D01*
X0223293Y0113683D01*
X0223310Y0113634D01*
X0223324Y0113584D01*
X0223333Y0113534D01*
X0223339Y0113482D01*
X0223341Y0113431D01*
X0223341Y0112398D01*
X0223341Y0110756D02*
X0223341Y0110067D01*
X0223339Y0110016D01*
X0223333Y0109964D01*
X0223324Y0109914D01*
X0223310Y0109864D01*
X0223293Y0109815D01*
X0223273Y0109768D01*
X0223249Y0109723D01*
X0223221Y0109679D01*
X0223191Y0109637D01*
X0223157Y0109598D01*
X0223121Y0109562D01*
X0223082Y0109528D01*
X0223040Y0109498D01*
X0222997Y0109470D01*
X0222951Y0109446D01*
X0222904Y0109426D01*
X0222855Y0109409D01*
X0222805Y0109395D01*
X0222755Y0109386D01*
X0222703Y0109380D01*
X0222652Y0109378D01*
X0220930Y0109378D01*
X0220879Y0109380D01*
X0220827Y0109386D01*
X0220777Y0109395D01*
X0220727Y0109409D01*
X0220678Y0109426D01*
X0220631Y0109446D01*
X0220586Y0109470D01*
X0220542Y0109498D01*
X0220500Y0109528D01*
X0220461Y0109562D01*
X0220425Y0109598D01*
X0220391Y0109637D01*
X0220361Y0109679D01*
X0220333Y0109723D01*
X0220309Y0109768D01*
X0220289Y0109815D01*
X0220272Y0109864D01*
X0220258Y0109914D01*
X0220249Y0109964D01*
X0220243Y0110016D01*
X0220241Y0110067D01*
X0220241Y0110756D01*
X0238583Y0098866D02*
X0241683Y0098866D01*
X0241683Y0099727D01*
X0241681Y0099770D01*
X0241676Y0099812D01*
X0241667Y0099854D01*
X0241655Y0099895D01*
X0241639Y0099935D01*
X0241621Y0099973D01*
X0241599Y0100010D01*
X0241574Y0100045D01*
X0241546Y0100077D01*
X0241516Y0100107D01*
X0241484Y0100135D01*
X0241449Y0100160D01*
X0241412Y0100182D01*
X0241374Y0100200D01*
X0241334Y0100216D01*
X0241293Y0100228D01*
X0241251Y0100237D01*
X0241209Y0100242D01*
X0241166Y0100244D01*
X0241166Y0100243D02*
X0240133Y0100243D01*
X0240133Y0100244D02*
X0240090Y0100242D01*
X0240048Y0100237D01*
X0240006Y0100228D01*
X0239965Y0100216D01*
X0239925Y0100200D01*
X0239887Y0100182D01*
X0239850Y0100160D01*
X0239815Y0100135D01*
X0239783Y0100107D01*
X0239753Y0100077D01*
X0239725Y0100045D01*
X0239700Y0100010D01*
X0239678Y0099973D01*
X0239660Y0099935D01*
X0239644Y0099895D01*
X0239632Y0099854D01*
X0239623Y0099812D01*
X0239618Y0099770D01*
X0239616Y0099727D01*
X0239616Y0098866D01*
X0240046Y0095436D02*
X0240134Y0095396D01*
X0240223Y0095358D01*
X0240313Y0095324D01*
X0240405Y0095294D01*
X0240498Y0095267D01*
X0240591Y0095243D01*
X0240686Y0095223D01*
X0240781Y0095207D01*
X0240877Y0095194D01*
X0240973Y0095185D01*
X0241069Y0095180D01*
X0241166Y0095178D01*
X0241166Y0096901D02*
X0241263Y0096899D01*
X0241359Y0096894D01*
X0241455Y0096885D01*
X0241551Y0096872D01*
X0241646Y0096855D01*
X0241741Y0096836D01*
X0241834Y0096812D01*
X0241927Y0096785D01*
X0242019Y0096755D01*
X0242109Y0096721D01*
X0242198Y0096683D01*
X0242286Y0096643D01*
X0242027Y0096728D02*
X0240305Y0095350D01*
X0239616Y0096039D02*
X0239618Y0096088D01*
X0239624Y0096137D01*
X0239633Y0096186D01*
X0239646Y0096233D01*
X0239663Y0096280D01*
X0239684Y0096325D01*
X0239708Y0096368D01*
X0239735Y0096409D01*
X0239765Y0096448D01*
X0239798Y0096485D01*
X0239834Y0096519D01*
X0239872Y0096550D01*
X0239913Y0096578D01*
X0239956Y0096602D01*
X0240000Y0096624D01*
X0240046Y0096642D01*
X0239616Y0096039D02*
X0239618Y0095990D01*
X0239624Y0095941D01*
X0239633Y0095892D01*
X0239646Y0095845D01*
X0239663Y0095798D01*
X0239684Y0095753D01*
X0239708Y0095710D01*
X0239735Y0095669D01*
X0239765Y0095630D01*
X0239798Y0095593D01*
X0239834Y0095559D01*
X0239872Y0095528D01*
X0239913Y0095500D01*
X0239956Y0095476D01*
X0240000Y0095454D01*
X0240046Y0095436D01*
X0240046Y0096643D02*
X0240134Y0096683D01*
X0240223Y0096721D01*
X0240313Y0096755D01*
X0240405Y0096785D01*
X0240498Y0096812D01*
X0240591Y0096836D01*
X0240686Y0096856D01*
X0240781Y0096872D01*
X0240877Y0096885D01*
X0240973Y0096894D01*
X0241069Y0096899D01*
X0241166Y0096901D01*
X0241166Y0095178D02*
X0241263Y0095180D01*
X0241359Y0095185D01*
X0241455Y0095194D01*
X0241551Y0095207D01*
X0241646Y0095223D01*
X0241741Y0095243D01*
X0241834Y0095267D01*
X0241927Y0095294D01*
X0242019Y0095324D01*
X0242109Y0095358D01*
X0242198Y0095396D01*
X0242286Y0095436D01*
X0242716Y0096039D02*
X0242714Y0096088D01*
X0242708Y0096137D01*
X0242699Y0096186D01*
X0242686Y0096233D01*
X0242669Y0096280D01*
X0242648Y0096325D01*
X0242624Y0096368D01*
X0242597Y0096409D01*
X0242567Y0096448D01*
X0242534Y0096485D01*
X0242498Y0096519D01*
X0242460Y0096550D01*
X0242419Y0096578D01*
X0242376Y0096602D01*
X0242332Y0096624D01*
X0242286Y0096642D01*
X0242716Y0096039D02*
X0242714Y0095990D01*
X0242708Y0095941D01*
X0242699Y0095892D01*
X0242686Y0095845D01*
X0242669Y0095798D01*
X0242648Y0095753D01*
X0242624Y0095710D01*
X0242597Y0095669D01*
X0242567Y0095630D01*
X0242534Y0095593D01*
X0242498Y0095559D01*
X0242460Y0095528D01*
X0242419Y0095500D01*
X0242376Y0095476D01*
X0242332Y0095454D01*
X0242286Y0095436D01*
X0241166Y0091578D02*
X0241069Y0091580D01*
X0240973Y0091585D01*
X0240877Y0091594D01*
X0240781Y0091607D01*
X0240686Y0091623D01*
X0240591Y0091643D01*
X0240498Y0091667D01*
X0240405Y0091694D01*
X0240313Y0091724D01*
X0240223Y0091758D01*
X0240134Y0091796D01*
X0240046Y0091836D01*
X0240305Y0091750D02*
X0242027Y0093128D01*
X0242286Y0093042D02*
X0242332Y0093024D01*
X0242376Y0093002D01*
X0242419Y0092978D01*
X0242460Y0092950D01*
X0242498Y0092919D01*
X0242534Y0092885D01*
X0242567Y0092848D01*
X0242597Y0092809D01*
X0242624Y0092768D01*
X0242648Y0092725D01*
X0242669Y0092680D01*
X0242686Y0092633D01*
X0242699Y0092586D01*
X0242708Y0092537D01*
X0242714Y0092488D01*
X0242716Y0092439D01*
X0242714Y0092390D01*
X0242708Y0092341D01*
X0242699Y0092292D01*
X0242686Y0092245D01*
X0242669Y0092198D01*
X0242648Y0092153D01*
X0242624Y0092110D01*
X0242597Y0092069D01*
X0242567Y0092030D01*
X0242534Y0091993D01*
X0242498Y0091959D01*
X0242460Y0091928D01*
X0242419Y0091900D01*
X0242376Y0091876D01*
X0242332Y0091854D01*
X0242286Y0091836D01*
X0242286Y0093043D02*
X0242198Y0093083D01*
X0242109Y0093121D01*
X0242019Y0093155D01*
X0241927Y0093185D01*
X0241834Y0093212D01*
X0241741Y0093236D01*
X0241646Y0093255D01*
X0241551Y0093272D01*
X0241455Y0093285D01*
X0241359Y0093294D01*
X0241263Y0093299D01*
X0241166Y0093301D01*
X0241166Y0091578D02*
X0241263Y0091580D01*
X0241359Y0091585D01*
X0241455Y0091594D01*
X0241551Y0091607D01*
X0241646Y0091623D01*
X0241741Y0091643D01*
X0241834Y0091667D01*
X0241927Y0091694D01*
X0242019Y0091724D01*
X0242109Y0091758D01*
X0242198Y0091796D01*
X0242286Y0091836D01*
X0241166Y0093301D02*
X0241069Y0093299D01*
X0240973Y0093294D01*
X0240877Y0093285D01*
X0240781Y0093272D01*
X0240686Y0093256D01*
X0240591Y0093236D01*
X0240498Y0093212D01*
X0240405Y0093185D01*
X0240313Y0093155D01*
X0240223Y0093121D01*
X0240134Y0093083D01*
X0240046Y0093043D01*
X0240046Y0093042D02*
X0240000Y0093024D01*
X0239956Y0093002D01*
X0239913Y0092978D01*
X0239872Y0092950D01*
X0239834Y0092919D01*
X0239798Y0092885D01*
X0239765Y0092848D01*
X0239735Y0092809D01*
X0239708Y0092768D01*
X0239684Y0092725D01*
X0239663Y0092680D01*
X0239646Y0092633D01*
X0239633Y0092586D01*
X0239624Y0092537D01*
X0239618Y0092488D01*
X0239616Y0092439D01*
X0239618Y0092390D01*
X0239624Y0092341D01*
X0239633Y0092292D01*
X0239646Y0092245D01*
X0239663Y0092198D01*
X0239684Y0092153D01*
X0239708Y0092110D01*
X0239735Y0092069D01*
X0239765Y0092030D01*
X0239798Y0091993D01*
X0239834Y0091959D01*
X0239872Y0091928D01*
X0239913Y0091900D01*
X0239956Y0091876D01*
X0240000Y0091854D01*
X0240046Y0091836D01*
X0240046Y0088236D02*
X0240134Y0088196D01*
X0240223Y0088158D01*
X0240313Y0088124D01*
X0240405Y0088094D01*
X0240498Y0088067D01*
X0240591Y0088043D01*
X0240686Y0088023D01*
X0240781Y0088007D01*
X0240877Y0087994D01*
X0240973Y0087985D01*
X0241069Y0087980D01*
X0241166Y0087978D01*
X0241166Y0089701D02*
X0241263Y0089699D01*
X0241359Y0089694D01*
X0241455Y0089685D01*
X0241551Y0089672D01*
X0241646Y0089655D01*
X0241741Y0089636D01*
X0241834Y0089612D01*
X0241927Y0089585D01*
X0242019Y0089555D01*
X0242109Y0089521D01*
X0242198Y0089483D01*
X0242286Y0089443D01*
X0242027Y0089528D02*
X0240305Y0088150D01*
X0239616Y0088839D02*
X0239618Y0088888D01*
X0239624Y0088937D01*
X0239633Y0088986D01*
X0239646Y0089033D01*
X0239663Y0089080D01*
X0239684Y0089125D01*
X0239708Y0089168D01*
X0239735Y0089209D01*
X0239765Y0089248D01*
X0239798Y0089285D01*
X0239834Y0089319D01*
X0239872Y0089350D01*
X0239913Y0089378D01*
X0239956Y0089402D01*
X0240000Y0089424D01*
X0240046Y0089442D01*
X0239616Y0088839D02*
X0239618Y0088790D01*
X0239624Y0088741D01*
X0239633Y0088692D01*
X0239646Y0088645D01*
X0239663Y0088598D01*
X0239684Y0088553D01*
X0239708Y0088510D01*
X0239735Y0088469D01*
X0239765Y0088430D01*
X0239798Y0088393D01*
X0239834Y0088359D01*
X0239872Y0088328D01*
X0239913Y0088300D01*
X0239956Y0088276D01*
X0240000Y0088254D01*
X0240046Y0088236D01*
X0240046Y0089443D02*
X0240134Y0089483D01*
X0240223Y0089521D01*
X0240313Y0089555D01*
X0240405Y0089585D01*
X0240498Y0089612D01*
X0240591Y0089636D01*
X0240686Y0089656D01*
X0240781Y0089672D01*
X0240877Y0089685D01*
X0240973Y0089694D01*
X0241069Y0089699D01*
X0241166Y0089701D01*
X0241166Y0087978D02*
X0241263Y0087980D01*
X0241359Y0087985D01*
X0241455Y0087994D01*
X0241551Y0088007D01*
X0241646Y0088023D01*
X0241741Y0088043D01*
X0241834Y0088067D01*
X0241927Y0088094D01*
X0242019Y0088124D01*
X0242109Y0088158D01*
X0242198Y0088196D01*
X0242286Y0088236D01*
X0242716Y0088839D02*
X0242714Y0088888D01*
X0242708Y0088937D01*
X0242699Y0088986D01*
X0242686Y0089033D01*
X0242669Y0089080D01*
X0242648Y0089125D01*
X0242624Y0089168D01*
X0242597Y0089209D01*
X0242567Y0089248D01*
X0242534Y0089285D01*
X0242498Y0089319D01*
X0242460Y0089350D01*
X0242419Y0089378D01*
X0242376Y0089402D01*
X0242332Y0089424D01*
X0242286Y0089442D01*
X0242716Y0088839D02*
X0242714Y0088790D01*
X0242708Y0088741D01*
X0242699Y0088692D01*
X0242686Y0088645D01*
X0242669Y0088598D01*
X0242648Y0088553D01*
X0242624Y0088510D01*
X0242597Y0088469D01*
X0242567Y0088430D01*
X0242534Y0088393D01*
X0242498Y0088359D01*
X0242460Y0088328D01*
X0242419Y0088300D01*
X0242376Y0088276D01*
X0242332Y0088254D01*
X0242286Y0088236D01*
X0242716Y0085239D02*
X0239616Y0085239D01*
X0239616Y0084378D02*
X0239616Y0086100D01*
X0242027Y0084378D02*
X0242716Y0085239D01*
X0235216Y0084029D02*
X0232116Y0084029D01*
X0232116Y0083168D02*
X0232116Y0084890D01*
X0232633Y0086820D02*
X0234183Y0086820D01*
X0234183Y0088198D02*
X0232116Y0088198D01*
X0232116Y0087337D01*
X0232118Y0087294D01*
X0232123Y0087252D01*
X0232132Y0087210D01*
X0232144Y0087169D01*
X0232160Y0087129D01*
X0232178Y0087091D01*
X0232200Y0087054D01*
X0232225Y0087019D01*
X0232253Y0086987D01*
X0232283Y0086957D01*
X0232315Y0086929D01*
X0232350Y0086904D01*
X0232387Y0086882D01*
X0232425Y0086864D01*
X0232465Y0086848D01*
X0232506Y0086836D01*
X0232548Y0086827D01*
X0232590Y0086822D01*
X0232633Y0086820D01*
X0235216Y0084029D02*
X0234527Y0083168D01*
X0233666Y0078128D02*
X0233569Y0078130D01*
X0233473Y0078135D01*
X0233377Y0078144D01*
X0233281Y0078157D01*
X0233186Y0078173D01*
X0233091Y0078193D01*
X0232998Y0078217D01*
X0232905Y0078244D01*
X0232813Y0078274D01*
X0232723Y0078308D01*
X0232634Y0078346D01*
X0232546Y0078386D01*
X0232805Y0078300D02*
X0234527Y0079678D01*
X0234786Y0079592D02*
X0234832Y0079574D01*
X0234876Y0079552D01*
X0234919Y0079528D01*
X0234960Y0079500D01*
X0234998Y0079469D01*
X0235034Y0079435D01*
X0235067Y0079398D01*
X0235097Y0079359D01*
X0235124Y0079318D01*
X0235148Y0079275D01*
X0235169Y0079230D01*
X0235186Y0079183D01*
X0235199Y0079136D01*
X0235208Y0079087D01*
X0235214Y0079038D01*
X0235216Y0078989D01*
X0235214Y0078940D01*
X0235208Y0078891D01*
X0235199Y0078842D01*
X0235186Y0078795D01*
X0235169Y0078748D01*
X0235148Y0078703D01*
X0235124Y0078660D01*
X0235097Y0078619D01*
X0235067Y0078580D01*
X0235034Y0078543D01*
X0234998Y0078509D01*
X0234960Y0078478D01*
X0234919Y0078450D01*
X0234876Y0078426D01*
X0234832Y0078404D01*
X0234786Y0078386D01*
X0234786Y0079593D02*
X0234698Y0079633D01*
X0234609Y0079671D01*
X0234519Y0079705D01*
X0234427Y0079735D01*
X0234334Y0079762D01*
X0234241Y0079786D01*
X0234146Y0079805D01*
X0234051Y0079822D01*
X0233955Y0079835D01*
X0233859Y0079844D01*
X0233763Y0079849D01*
X0233666Y0079851D01*
X0233666Y0078128D02*
X0233763Y0078130D01*
X0233859Y0078135D01*
X0233955Y0078144D01*
X0234051Y0078157D01*
X0234146Y0078173D01*
X0234241Y0078193D01*
X0234334Y0078217D01*
X0234427Y0078244D01*
X0234519Y0078274D01*
X0234609Y0078308D01*
X0234698Y0078346D01*
X0234786Y0078386D01*
X0233666Y0079851D02*
X0233569Y0079849D01*
X0233473Y0079844D01*
X0233377Y0079835D01*
X0233281Y0079822D01*
X0233186Y0079806D01*
X0233091Y0079786D01*
X0232998Y0079762D01*
X0232905Y0079735D01*
X0232813Y0079705D01*
X0232723Y0079671D01*
X0232634Y0079633D01*
X0232546Y0079593D01*
X0232546Y0079592D02*
X0232500Y0079574D01*
X0232456Y0079552D01*
X0232413Y0079528D01*
X0232372Y0079500D01*
X0232334Y0079469D01*
X0232298Y0079435D01*
X0232265Y0079398D01*
X0232235Y0079359D01*
X0232208Y0079318D01*
X0232184Y0079275D01*
X0232163Y0079230D01*
X0232146Y0079183D01*
X0232133Y0079136D01*
X0232124Y0079087D01*
X0232118Y0079038D01*
X0232116Y0078989D01*
X0232118Y0078940D01*
X0232124Y0078891D01*
X0232133Y0078842D01*
X0232146Y0078795D01*
X0232163Y0078748D01*
X0232184Y0078703D01*
X0232208Y0078660D01*
X0232235Y0078619D01*
X0232265Y0078580D01*
X0232298Y0078543D01*
X0232334Y0078509D01*
X0232372Y0078478D01*
X0232413Y0078450D01*
X0232456Y0078426D01*
X0232500Y0078404D01*
X0232546Y0078386D01*
X0232288Y0081423D02*
X0232288Y0081595D01*
X0232116Y0081595D01*
X0232116Y0081423D01*
X0232288Y0081423D01*
X0232116Y0090262D02*
X0235216Y0090262D01*
X0235216Y0091639D01*
X0233838Y0091639D02*
X0233838Y0090262D01*
X0239616Y0102152D02*
X0242716Y0102152D01*
X0242716Y0103529D01*
X0241338Y0103529D02*
X0241338Y0102152D01*
X0194848Y0087410D02*
X0191748Y0087410D01*
X0191748Y0086549D02*
X0191748Y0088271D01*
X0194159Y0086549D02*
X0194848Y0087410D01*
X0194848Y0083855D02*
X0194848Y0082993D01*
X0191748Y0082993D01*
X0193126Y0082993D02*
X0193126Y0083855D01*
X0193126Y0084027D02*
X0191748Y0084716D01*
X0193126Y0083855D02*
X0193128Y0083913D01*
X0193134Y0083970D01*
X0193143Y0084026D01*
X0193157Y0084082D01*
X0193174Y0084137D01*
X0193194Y0084191D01*
X0193219Y0084243D01*
X0193246Y0084294D01*
X0193277Y0084342D01*
X0193311Y0084389D01*
X0193348Y0084433D01*
X0193388Y0084474D01*
X0193431Y0084513D01*
X0193476Y0084548D01*
X0193524Y0084581D01*
X0193573Y0084610D01*
X0193625Y0084636D01*
X0193678Y0084658D01*
X0193732Y0084677D01*
X0193787Y0084693D01*
X0193844Y0084704D01*
X0193901Y0084712D01*
X0193958Y0084716D01*
X0194016Y0084716D01*
X0194073Y0084712D01*
X0194130Y0084704D01*
X0194187Y0084693D01*
X0194242Y0084677D01*
X0194296Y0084658D01*
X0194349Y0084636D01*
X0194401Y0084610D01*
X0194450Y0084581D01*
X0194498Y0084548D01*
X0194543Y0084513D01*
X0194586Y0084474D01*
X0194626Y0084433D01*
X0194663Y0084389D01*
X0194697Y0084342D01*
X0194728Y0084294D01*
X0194755Y0084243D01*
X0194780Y0084191D01*
X0194800Y0084137D01*
X0194817Y0084082D01*
X0194831Y0084026D01*
X0194840Y0083970D01*
X0194846Y0083913D01*
X0194848Y0083855D01*
X0194848Y0081124D02*
X0191748Y0080090D01*
X0194848Y0079057D01*
X0179191Y0081003D02*
X0178847Y0081003D01*
X0178796Y0081005D01*
X0178744Y0081011D01*
X0178694Y0081020D01*
X0178644Y0081034D01*
X0178595Y0081051D01*
X0178548Y0081071D01*
X0178503Y0081095D01*
X0178459Y0081123D01*
X0178417Y0081153D01*
X0178378Y0081187D01*
X0178342Y0081223D01*
X0178308Y0081262D01*
X0178278Y0081304D01*
X0178250Y0081347D01*
X0178226Y0081393D01*
X0178206Y0081440D01*
X0178189Y0081489D01*
X0178175Y0081539D01*
X0178166Y0081589D01*
X0178160Y0081641D01*
X0178158Y0081692D01*
X0178158Y0084103D01*
X0175966Y0084103D02*
X0175966Y0081003D01*
X0175966Y0082381D02*
X0175105Y0082381D01*
X0175047Y0082383D01*
X0174990Y0082389D01*
X0174934Y0082398D01*
X0174878Y0082412D01*
X0174823Y0082429D01*
X0174769Y0082449D01*
X0174717Y0082474D01*
X0174666Y0082501D01*
X0174618Y0082532D01*
X0174571Y0082566D01*
X0174527Y0082603D01*
X0174486Y0082643D01*
X0174447Y0082686D01*
X0174412Y0082731D01*
X0174379Y0082779D01*
X0174350Y0082828D01*
X0174324Y0082880D01*
X0174302Y0082933D01*
X0174283Y0082987D01*
X0174267Y0083042D01*
X0174256Y0083099D01*
X0174248Y0083156D01*
X0174244Y0083213D01*
X0174244Y0083271D01*
X0174248Y0083328D01*
X0174256Y0083385D01*
X0174267Y0083442D01*
X0174283Y0083497D01*
X0174302Y0083551D01*
X0174324Y0083604D01*
X0174350Y0083656D01*
X0174379Y0083705D01*
X0174412Y0083753D01*
X0174447Y0083798D01*
X0174486Y0083841D01*
X0174527Y0083881D01*
X0174571Y0083918D01*
X0174618Y0083952D01*
X0174666Y0083983D01*
X0174717Y0084010D01*
X0174769Y0084035D01*
X0174823Y0084055D01*
X0174878Y0084072D01*
X0174934Y0084086D01*
X0174990Y0084095D01*
X0175047Y0084101D01*
X0175105Y0084103D01*
X0175966Y0084103D01*
X0172588Y0082725D02*
X0172588Y0081864D01*
X0172586Y0081806D01*
X0172580Y0081749D01*
X0172571Y0081693D01*
X0172557Y0081637D01*
X0172540Y0081582D01*
X0172520Y0081528D01*
X0172495Y0081476D01*
X0172468Y0081425D01*
X0172437Y0081377D01*
X0172403Y0081330D01*
X0172366Y0081286D01*
X0172326Y0081245D01*
X0172283Y0081206D01*
X0172238Y0081171D01*
X0172190Y0081138D01*
X0172141Y0081109D01*
X0172089Y0081083D01*
X0172036Y0081061D01*
X0171982Y0081042D01*
X0171927Y0081026D01*
X0171870Y0081015D01*
X0171813Y0081007D01*
X0171756Y0081003D01*
X0171698Y0081003D01*
X0171641Y0081007D01*
X0171584Y0081015D01*
X0171527Y0081026D01*
X0171472Y0081042D01*
X0171418Y0081061D01*
X0171365Y0081083D01*
X0171313Y0081109D01*
X0171264Y0081138D01*
X0171216Y0081171D01*
X0171171Y0081206D01*
X0171128Y0081245D01*
X0171088Y0081286D01*
X0171051Y0081330D01*
X0171017Y0081377D01*
X0170986Y0081425D01*
X0170959Y0081476D01*
X0170934Y0081528D01*
X0170914Y0081582D01*
X0170897Y0081637D01*
X0170883Y0081693D01*
X0170874Y0081749D01*
X0170868Y0081806D01*
X0170866Y0081864D01*
X0170866Y0082036D01*
X0170868Y0082088D01*
X0170874Y0082139D01*
X0170883Y0082189D01*
X0170897Y0082239D01*
X0170914Y0082288D01*
X0170934Y0082335D01*
X0170958Y0082381D01*
X0170986Y0082424D01*
X0171016Y0082466D01*
X0171050Y0082505D01*
X0171086Y0082541D01*
X0171125Y0082575D01*
X0171167Y0082605D01*
X0171211Y0082633D01*
X0171256Y0082657D01*
X0171303Y0082677D01*
X0171352Y0082694D01*
X0171402Y0082708D01*
X0171452Y0082717D01*
X0171504Y0082723D01*
X0171555Y0082725D01*
X0172588Y0082725D01*
X0172586Y0082797D01*
X0172580Y0082869D01*
X0172571Y0082941D01*
X0172558Y0083011D01*
X0172541Y0083082D01*
X0172521Y0083151D01*
X0172496Y0083219D01*
X0172469Y0083285D01*
X0172438Y0083351D01*
X0172403Y0083414D01*
X0172366Y0083476D01*
X0172325Y0083535D01*
X0172281Y0083592D01*
X0172234Y0083647D01*
X0172184Y0083699D01*
X0172132Y0083749D01*
X0172077Y0083796D01*
X0172020Y0083840D01*
X0171961Y0083881D01*
X0171899Y0083918D01*
X0171836Y0083953D01*
X0171770Y0083984D01*
X0171704Y0084011D01*
X0171636Y0084036D01*
X0171567Y0084056D01*
X0171497Y0084073D01*
X0171426Y0084086D01*
X0171354Y0084095D01*
X0171282Y0084101D01*
X0171210Y0084103D01*
X0202741Y0182253D02*
X0204463Y0182253D01*
X0202999Y0183975D01*
X0203516Y0185353D02*
X0203576Y0185351D01*
X0203635Y0185346D01*
X0203694Y0185337D01*
X0203752Y0185325D01*
X0203810Y0185309D01*
X0203866Y0185289D01*
X0203921Y0185267D01*
X0203975Y0185241D01*
X0204027Y0185212D01*
X0204077Y0185180D01*
X0204126Y0185145D01*
X0204172Y0185107D01*
X0204215Y0185066D01*
X0204257Y0185023D01*
X0204295Y0184977D01*
X0204331Y0184930D01*
X0204364Y0184880D01*
X0204393Y0184828D01*
X0204420Y0184775D01*
X0204443Y0184720D01*
X0204464Y0184664D01*
X0202999Y0183976D02*
X0202960Y0184016D01*
X0202923Y0184058D01*
X0202890Y0184103D01*
X0202859Y0184150D01*
X0202832Y0184199D01*
X0202808Y0184250D01*
X0202788Y0184303D01*
X0202771Y0184356D01*
X0202758Y0184411D01*
X0202749Y0184466D01*
X0202743Y0184522D01*
X0202741Y0184578D01*
X0202743Y0184633D01*
X0202749Y0184688D01*
X0202759Y0184743D01*
X0202772Y0184796D01*
X0202790Y0184849D01*
X0202811Y0184900D01*
X0202836Y0184949D01*
X0202864Y0184997D01*
X0202896Y0185042D01*
X0202930Y0185086D01*
X0202968Y0185126D01*
X0203008Y0185164D01*
X0203052Y0185198D01*
X0203097Y0185230D01*
X0203145Y0185258D01*
X0203194Y0185283D01*
X0203245Y0185304D01*
X0203298Y0185322D01*
X0203351Y0185335D01*
X0203406Y0185345D01*
X0203461Y0185351D01*
X0203516Y0185353D01*
X0206461Y0184492D02*
X0206461Y0183114D01*
X0206463Y0183058D01*
X0206468Y0183002D01*
X0206478Y0182946D01*
X0206490Y0182891D01*
X0206507Y0182837D01*
X0206527Y0182785D01*
X0206550Y0182733D01*
X0206576Y0182684D01*
X0206606Y0182636D01*
X0206639Y0182590D01*
X0206675Y0182546D01*
X0206713Y0182505D01*
X0206754Y0182467D01*
X0206798Y0182431D01*
X0206844Y0182398D01*
X0206892Y0182368D01*
X0206941Y0182342D01*
X0206993Y0182319D01*
X0207045Y0182299D01*
X0207099Y0182282D01*
X0207154Y0182270D01*
X0207210Y0182260D01*
X0207266Y0182255D01*
X0207322Y0182253D01*
X0208183Y0182253D01*
X0208183Y0185353D01*
X0207322Y0185353D01*
X0207266Y0185351D01*
X0207210Y0185346D01*
X0207154Y0185336D01*
X0207099Y0185324D01*
X0207045Y0185307D01*
X0206993Y0185287D01*
X0206941Y0185264D01*
X0206892Y0185238D01*
X0206844Y0185208D01*
X0206798Y0185175D01*
X0206754Y0185139D01*
X0206713Y0185101D01*
X0206675Y0185060D01*
X0206639Y0185016D01*
X0206606Y0184970D01*
X0206576Y0184923D01*
X0206550Y0184873D01*
X0206527Y0184821D01*
X0206507Y0184769D01*
X0206490Y0184715D01*
X0206478Y0184660D01*
X0206468Y0184604D01*
X0206463Y0184548D01*
X0206461Y0184492D01*
X0174092Y0205936D02*
X0173145Y0205420D01*
X0173490Y0204128D02*
X0173562Y0204130D01*
X0173633Y0204135D01*
X0173705Y0204144D01*
X0173775Y0204156D01*
X0173845Y0204172D01*
X0173915Y0204191D01*
X0173983Y0204214D01*
X0174050Y0204240D01*
X0174115Y0204269D01*
X0174179Y0204302D01*
X0174242Y0204337D01*
X0174302Y0204376D01*
X0174361Y0204417D01*
X0174417Y0204462D01*
X0174471Y0204509D01*
X0174523Y0204558D01*
X0173145Y0205420D02*
X0173101Y0205392D01*
X0173059Y0205361D01*
X0173020Y0205327D01*
X0172984Y0205290D01*
X0172950Y0205250D01*
X0172920Y0205208D01*
X0172892Y0205164D01*
X0172868Y0205118D01*
X0172848Y0205071D01*
X0172831Y0205022D01*
X0172817Y0204971D01*
X0172808Y0204920D01*
X0172802Y0204869D01*
X0172800Y0204817D01*
X0172801Y0204817D02*
X0172803Y0204766D01*
X0172809Y0204714D01*
X0172818Y0204664D01*
X0172832Y0204614D01*
X0172849Y0204565D01*
X0172869Y0204518D01*
X0172893Y0204472D01*
X0172921Y0204429D01*
X0172951Y0204387D01*
X0172985Y0204348D01*
X0173021Y0204312D01*
X0173060Y0204278D01*
X0173102Y0204248D01*
X0173146Y0204220D01*
X0173191Y0204196D01*
X0173238Y0204176D01*
X0173287Y0204159D01*
X0173337Y0204145D01*
X0173387Y0204136D01*
X0173439Y0204130D01*
X0173490Y0204128D01*
X0172973Y0206971D02*
X0173029Y0207011D01*
X0173088Y0207048D01*
X0173148Y0207081D01*
X0173211Y0207112D01*
X0173274Y0207139D01*
X0173339Y0207163D01*
X0173406Y0207183D01*
X0173473Y0207199D01*
X0173541Y0207212D01*
X0173610Y0207222D01*
X0173679Y0207227D01*
X0173748Y0207229D01*
X0173748Y0207228D02*
X0173799Y0207226D01*
X0173851Y0207220D01*
X0173901Y0207211D01*
X0173951Y0207197D01*
X0174000Y0207180D01*
X0174047Y0207160D01*
X0174093Y0207136D01*
X0174136Y0207108D01*
X0174178Y0207078D01*
X0174217Y0207044D01*
X0174253Y0207008D01*
X0174287Y0206969D01*
X0174317Y0206927D01*
X0174345Y0206884D01*
X0174369Y0206838D01*
X0174389Y0206791D01*
X0174406Y0206742D01*
X0174420Y0206692D01*
X0174429Y0206642D01*
X0174435Y0206590D01*
X0174437Y0206539D01*
X0174435Y0206487D01*
X0174429Y0206436D01*
X0174420Y0206385D01*
X0174406Y0206334D01*
X0174389Y0206285D01*
X0174369Y0206238D01*
X0174345Y0206192D01*
X0174317Y0206148D01*
X0174287Y0206106D01*
X0174253Y0206066D01*
X0174217Y0206029D01*
X0174178Y0205995D01*
X0174136Y0205964D01*
X0174092Y0205936D01*
X0170991Y0206195D02*
X0170130Y0206195D01*
X0170087Y0206193D01*
X0170045Y0206188D01*
X0170003Y0206179D01*
X0169962Y0206167D01*
X0169922Y0206151D01*
X0169884Y0206133D01*
X0169847Y0206111D01*
X0169812Y0206086D01*
X0169780Y0206058D01*
X0169750Y0206028D01*
X0169722Y0205996D01*
X0169697Y0205961D01*
X0169675Y0205924D01*
X0169657Y0205886D01*
X0169641Y0205846D01*
X0169629Y0205805D01*
X0169620Y0205763D01*
X0169615Y0205721D01*
X0169613Y0205678D01*
X0169613Y0204128D01*
X0170991Y0204128D02*
X0170991Y0207228D01*
X0167751Y0205506D02*
X0167751Y0204817D01*
X0167749Y0204766D01*
X0167743Y0204714D01*
X0167734Y0204664D01*
X0167720Y0204614D01*
X0167703Y0204565D01*
X0167683Y0204518D01*
X0167659Y0204473D01*
X0167631Y0204429D01*
X0167601Y0204387D01*
X0167567Y0204348D01*
X0167531Y0204312D01*
X0167492Y0204278D01*
X0167450Y0204248D01*
X0167407Y0204220D01*
X0167361Y0204196D01*
X0167314Y0204176D01*
X0167265Y0204159D01*
X0167215Y0204145D01*
X0167165Y0204136D01*
X0167113Y0204130D01*
X0167062Y0204128D01*
X0167011Y0204130D01*
X0166959Y0204136D01*
X0166909Y0204145D01*
X0166859Y0204159D01*
X0166810Y0204176D01*
X0166763Y0204196D01*
X0166718Y0204220D01*
X0166674Y0204248D01*
X0166632Y0204278D01*
X0166593Y0204312D01*
X0166557Y0204348D01*
X0166523Y0204387D01*
X0166493Y0204429D01*
X0166465Y0204473D01*
X0166441Y0204518D01*
X0166421Y0204565D01*
X0166404Y0204614D01*
X0166390Y0204664D01*
X0166381Y0204714D01*
X0166375Y0204766D01*
X0166373Y0204817D01*
X0166373Y0205506D01*
X0166375Y0205557D01*
X0166381Y0205609D01*
X0166390Y0205659D01*
X0166404Y0205709D01*
X0166421Y0205758D01*
X0166441Y0205805D01*
X0166465Y0205851D01*
X0166493Y0205894D01*
X0166523Y0205936D01*
X0166557Y0205975D01*
X0166593Y0206011D01*
X0166632Y0206045D01*
X0166674Y0206075D01*
X0166718Y0206103D01*
X0166763Y0206127D01*
X0166810Y0206147D01*
X0166859Y0206164D01*
X0166909Y0206178D01*
X0166959Y0206187D01*
X0167011Y0206193D01*
X0167062Y0206195D01*
X0167113Y0206193D01*
X0167165Y0206187D01*
X0167215Y0206178D01*
X0167265Y0206164D01*
X0167314Y0206147D01*
X0167361Y0206127D01*
X0167407Y0206103D01*
X0167450Y0206075D01*
X0167492Y0206045D01*
X0167531Y0206011D01*
X0167567Y0205975D01*
X0167601Y0205936D01*
X0167631Y0205894D01*
X0167659Y0205851D01*
X0167683Y0205805D01*
X0167703Y0205758D01*
X0167720Y0205709D01*
X0167734Y0205659D01*
X0167743Y0205609D01*
X0167749Y0205557D01*
X0167751Y0205506D01*
X0164471Y0206195D02*
X0163438Y0206195D01*
X0163438Y0205850D01*
X0162474Y0206195D02*
X0161441Y0206195D01*
X0162130Y0207228D02*
X0162130Y0204645D01*
X0162128Y0204602D01*
X0162123Y0204560D01*
X0162114Y0204518D01*
X0162102Y0204477D01*
X0162086Y0204437D01*
X0162068Y0204399D01*
X0162046Y0204362D01*
X0162021Y0204327D01*
X0161993Y0204295D01*
X0161963Y0204265D01*
X0161931Y0204237D01*
X0161896Y0204212D01*
X0161859Y0204190D01*
X0161821Y0204172D01*
X0161781Y0204156D01*
X0161740Y0204144D01*
X0161698Y0204135D01*
X0161656Y0204130D01*
X0161613Y0204128D01*
X0161441Y0204128D01*
X0159695Y0204817D02*
X0157629Y0204817D01*
X0157629Y0205850D02*
X0159695Y0205850D01*
X0155683Y0206367D02*
X0155683Y0204989D01*
X0155681Y0204931D01*
X0155675Y0204874D01*
X0155666Y0204818D01*
X0155652Y0204762D01*
X0155635Y0204707D01*
X0155615Y0204653D01*
X0155590Y0204601D01*
X0155563Y0204550D01*
X0155532Y0204502D01*
X0155498Y0204455D01*
X0155461Y0204411D01*
X0155421Y0204370D01*
X0155378Y0204331D01*
X0155333Y0204296D01*
X0155285Y0204263D01*
X0155236Y0204234D01*
X0155184Y0204208D01*
X0155131Y0204186D01*
X0155077Y0204167D01*
X0155022Y0204151D01*
X0154965Y0204140D01*
X0154908Y0204132D01*
X0154851Y0204128D01*
X0154793Y0204128D01*
X0154736Y0204132D01*
X0154679Y0204140D01*
X0154622Y0204151D01*
X0154567Y0204167D01*
X0154513Y0204186D01*
X0154460Y0204208D01*
X0154408Y0204234D01*
X0154359Y0204263D01*
X0154311Y0204296D01*
X0154266Y0204331D01*
X0154223Y0204370D01*
X0154183Y0204411D01*
X0154146Y0204455D01*
X0154112Y0204502D01*
X0154081Y0204550D01*
X0154054Y0204601D01*
X0154029Y0204653D01*
X0154009Y0204707D01*
X0153992Y0204762D01*
X0153978Y0204818D01*
X0153969Y0204874D01*
X0153963Y0204931D01*
X0153961Y0204989D01*
X0153961Y0206367D01*
X0153963Y0206425D01*
X0153969Y0206482D01*
X0153978Y0206538D01*
X0153992Y0206594D01*
X0154009Y0206649D01*
X0154029Y0206703D01*
X0154054Y0206755D01*
X0154081Y0206806D01*
X0154112Y0206854D01*
X0154146Y0206901D01*
X0154183Y0206945D01*
X0154223Y0206986D01*
X0154266Y0207025D01*
X0154311Y0207060D01*
X0154359Y0207093D01*
X0154408Y0207122D01*
X0154460Y0207148D01*
X0154513Y0207170D01*
X0154567Y0207189D01*
X0154622Y0207205D01*
X0154679Y0207216D01*
X0154736Y0207224D01*
X0154793Y0207228D01*
X0154851Y0207228D01*
X0154908Y0207224D01*
X0154965Y0207216D01*
X0155022Y0207205D01*
X0155077Y0207189D01*
X0155131Y0207170D01*
X0155184Y0207148D01*
X0155236Y0207122D01*
X0155285Y0207093D01*
X0155333Y0207060D01*
X0155378Y0207025D01*
X0155421Y0206986D01*
X0155461Y0206945D01*
X0155498Y0206901D01*
X0155532Y0206854D01*
X0155563Y0206806D01*
X0155590Y0206755D01*
X0155615Y0206703D01*
X0155635Y0206649D01*
X0155652Y0206594D01*
X0155666Y0206538D01*
X0155675Y0206482D01*
X0155681Y0206425D01*
X0155683Y0206367D01*
X0151963Y0207228D02*
X0151963Y0204128D01*
X0150241Y0204128D02*
X0150241Y0207228D01*
X0151963Y0207228D02*
X0150241Y0204128D01*
X0164471Y0204128D02*
X0164471Y0206195D01*
X0126533Y0196367D02*
X0126533Y0194989D01*
X0126532Y0194989D02*
X0126530Y0194931D01*
X0126524Y0194874D01*
X0126515Y0194818D01*
X0126501Y0194762D01*
X0126484Y0194707D01*
X0126464Y0194653D01*
X0126439Y0194601D01*
X0126412Y0194550D01*
X0126381Y0194502D01*
X0126347Y0194455D01*
X0126310Y0194411D01*
X0126270Y0194370D01*
X0126227Y0194331D01*
X0126182Y0194296D01*
X0126134Y0194263D01*
X0126085Y0194234D01*
X0126033Y0194208D01*
X0125980Y0194186D01*
X0125926Y0194167D01*
X0125871Y0194151D01*
X0125814Y0194140D01*
X0125757Y0194132D01*
X0125700Y0194128D01*
X0125642Y0194128D01*
X0125585Y0194132D01*
X0125528Y0194140D01*
X0125471Y0194151D01*
X0125416Y0194167D01*
X0125362Y0194186D01*
X0125309Y0194208D01*
X0125257Y0194234D01*
X0125208Y0194263D01*
X0125160Y0194296D01*
X0125115Y0194331D01*
X0125072Y0194370D01*
X0125032Y0194411D01*
X0124995Y0194455D01*
X0124961Y0194502D01*
X0124930Y0194550D01*
X0124903Y0194601D01*
X0124878Y0194653D01*
X0124858Y0194707D01*
X0124841Y0194762D01*
X0124827Y0194818D01*
X0124818Y0194874D01*
X0124812Y0194931D01*
X0124810Y0194989D01*
X0124810Y0196367D01*
X0124812Y0196425D01*
X0124818Y0196482D01*
X0124827Y0196538D01*
X0124841Y0196594D01*
X0124858Y0196649D01*
X0124878Y0196703D01*
X0124903Y0196755D01*
X0124930Y0196806D01*
X0124961Y0196854D01*
X0124995Y0196901D01*
X0125032Y0196945D01*
X0125072Y0196986D01*
X0125115Y0197025D01*
X0125160Y0197060D01*
X0125208Y0197093D01*
X0125257Y0197122D01*
X0125309Y0197148D01*
X0125362Y0197170D01*
X0125416Y0197189D01*
X0125471Y0197205D01*
X0125528Y0197216D01*
X0125585Y0197224D01*
X0125642Y0197228D01*
X0125700Y0197228D01*
X0125757Y0197224D01*
X0125814Y0197216D01*
X0125871Y0197205D01*
X0125926Y0197189D01*
X0125980Y0197170D01*
X0126033Y0197148D01*
X0126085Y0197122D01*
X0126134Y0197093D01*
X0126182Y0197060D01*
X0126227Y0197025D01*
X0126270Y0196986D01*
X0126310Y0196945D01*
X0126347Y0196901D01*
X0126381Y0196854D01*
X0126412Y0196806D01*
X0126439Y0196755D01*
X0126464Y0196703D01*
X0126484Y0196649D01*
X0126501Y0196594D01*
X0126515Y0196538D01*
X0126524Y0196482D01*
X0126530Y0196425D01*
X0126532Y0196367D01*
X0125155Y0194817D02*
X0124466Y0194128D01*
X0123213Y0194128D02*
X0121491Y0194128D01*
X0122352Y0194128D02*
X0122352Y0197228D01*
X0123213Y0196539D01*
X0104966Y0186228D02*
X0104277Y0186228D01*
X0104621Y0186228D02*
X0104621Y0183128D01*
X0104277Y0183128D02*
X0104966Y0183128D01*
X0102623Y0183817D02*
X0102623Y0185539D01*
X0102621Y0185590D01*
X0102615Y0185642D01*
X0102606Y0185692D01*
X0102592Y0185742D01*
X0102575Y0185791D01*
X0102555Y0185838D01*
X0102531Y0185884D01*
X0102503Y0185927D01*
X0102473Y0185969D01*
X0102439Y0186008D01*
X0102403Y0186044D01*
X0102364Y0186078D01*
X0102322Y0186108D01*
X0102279Y0186136D01*
X0102233Y0186160D01*
X0102186Y0186180D01*
X0102137Y0186197D01*
X0102087Y0186211D01*
X0102037Y0186220D01*
X0101985Y0186226D01*
X0101934Y0186228D01*
X0101245Y0186228D01*
X0099603Y0186228D02*
X0098569Y0186228D01*
X0098518Y0186226D01*
X0098466Y0186220D01*
X0098416Y0186211D01*
X0098366Y0186197D01*
X0098317Y0186180D01*
X0098270Y0186160D01*
X0098225Y0186136D01*
X0098181Y0186108D01*
X0098139Y0186078D01*
X0098100Y0186044D01*
X0098064Y0186008D01*
X0098030Y0185969D01*
X0098000Y0185927D01*
X0097972Y0185884D01*
X0097948Y0185838D01*
X0097928Y0185791D01*
X0097911Y0185742D01*
X0097897Y0185692D01*
X0097888Y0185642D01*
X0097882Y0185590D01*
X0097880Y0185539D01*
X0097882Y0185488D01*
X0097888Y0185436D01*
X0097897Y0185386D01*
X0097911Y0185336D01*
X0097928Y0185287D01*
X0097948Y0185240D01*
X0097972Y0185195D01*
X0098000Y0185151D01*
X0098030Y0185109D01*
X0098064Y0185070D01*
X0098100Y0185034D01*
X0098139Y0185000D01*
X0098181Y0184970D01*
X0098225Y0184942D01*
X0098270Y0184918D01*
X0098317Y0184898D01*
X0098366Y0184881D01*
X0098416Y0184867D01*
X0098466Y0184858D01*
X0098518Y0184852D01*
X0098569Y0184850D01*
X0099258Y0184850D01*
X0098741Y0184850D02*
X0098683Y0184848D01*
X0098626Y0184842D01*
X0098570Y0184833D01*
X0098514Y0184819D01*
X0098459Y0184802D01*
X0098405Y0184782D01*
X0098353Y0184757D01*
X0098302Y0184730D01*
X0098254Y0184699D01*
X0098207Y0184665D01*
X0098163Y0184628D01*
X0098122Y0184588D01*
X0098083Y0184545D01*
X0098048Y0184500D01*
X0098015Y0184452D01*
X0097986Y0184403D01*
X0097960Y0184351D01*
X0097938Y0184298D01*
X0097919Y0184244D01*
X0097903Y0184189D01*
X0097892Y0184132D01*
X0097884Y0184075D01*
X0097880Y0184018D01*
X0097880Y0183960D01*
X0097884Y0183903D01*
X0097892Y0183846D01*
X0097903Y0183789D01*
X0097919Y0183734D01*
X0097938Y0183680D01*
X0097960Y0183627D01*
X0097986Y0183575D01*
X0098015Y0183526D01*
X0098048Y0183478D01*
X0098083Y0183433D01*
X0098122Y0183390D01*
X0098163Y0183350D01*
X0098207Y0183313D01*
X0098254Y0183279D01*
X0098302Y0183248D01*
X0098353Y0183221D01*
X0098405Y0183196D01*
X0098459Y0183176D01*
X0098514Y0183159D01*
X0098570Y0183145D01*
X0098626Y0183136D01*
X0098683Y0183130D01*
X0098741Y0183128D01*
X0099603Y0183128D01*
X0101245Y0183128D02*
X0101934Y0183128D01*
X0101985Y0183130D01*
X0102037Y0183136D01*
X0102087Y0183145D01*
X0102137Y0183159D01*
X0102186Y0183176D01*
X0102233Y0183196D01*
X0102279Y0183220D01*
X0102322Y0183248D01*
X0102364Y0183278D01*
X0102403Y0183312D01*
X0102439Y0183348D01*
X0102473Y0183387D01*
X0102503Y0183429D01*
X0102531Y0183473D01*
X0102555Y0183518D01*
X0102575Y0183565D01*
X0102592Y0183614D01*
X0102606Y0183664D01*
X0102615Y0183714D01*
X0102621Y0183766D01*
X0102623Y0183817D01*
D11*
X0171566Y0129060D02*
X0174816Y0129060D01*
X0174816Y0127976D01*
X0174814Y0127927D01*
X0174809Y0127879D01*
X0174800Y0127831D01*
X0174787Y0127784D01*
X0174771Y0127739D01*
X0174752Y0127694D01*
X0174729Y0127651D01*
X0174703Y0127610D01*
X0174674Y0127571D01*
X0174642Y0127534D01*
X0174608Y0127500D01*
X0174571Y0127468D01*
X0174532Y0127439D01*
X0174491Y0127413D01*
X0174448Y0127390D01*
X0174403Y0127371D01*
X0174358Y0127355D01*
X0174311Y0127342D01*
X0174263Y0127333D01*
X0174215Y0127328D01*
X0174166Y0127326D01*
X0172866Y0127326D01*
X0172817Y0127328D01*
X0172769Y0127333D01*
X0172721Y0127342D01*
X0172674Y0127355D01*
X0172629Y0127371D01*
X0172584Y0127390D01*
X0172541Y0127413D01*
X0172500Y0127439D01*
X0172461Y0127468D01*
X0172424Y0127500D01*
X0172390Y0127534D01*
X0172358Y0127571D01*
X0172329Y0127610D01*
X0172303Y0127651D01*
X0172280Y0127694D01*
X0172261Y0127739D01*
X0172245Y0127784D01*
X0172232Y0127831D01*
X0172223Y0127879D01*
X0172218Y0127927D01*
X0172216Y0127976D01*
X0172216Y0129060D01*
X0171566Y0129060D02*
X0171517Y0129058D01*
X0171469Y0129053D01*
X0171421Y0129044D01*
X0171374Y0129031D01*
X0171329Y0129015D01*
X0171284Y0128996D01*
X0171241Y0128973D01*
X0171200Y0128947D01*
X0171161Y0128918D01*
X0171124Y0128886D01*
X0171090Y0128852D01*
X0171058Y0128815D01*
X0171029Y0128776D01*
X0171003Y0128735D01*
X0170980Y0128692D01*
X0170961Y0128647D01*
X0170945Y0128602D01*
X0170932Y0128555D01*
X0170923Y0128507D01*
X0170918Y0128459D01*
X0170916Y0128410D01*
X0170916Y0127543D01*
X0172216Y0125053D02*
X0174166Y0125053D01*
X0174215Y0125051D01*
X0174263Y0125046D01*
X0174311Y0125037D01*
X0174358Y0125024D01*
X0174403Y0125008D01*
X0174448Y0124989D01*
X0174491Y0124966D01*
X0174532Y0124940D01*
X0174571Y0124911D01*
X0174608Y0124879D01*
X0174642Y0124845D01*
X0174674Y0124808D01*
X0174703Y0124769D01*
X0174729Y0124728D01*
X0174752Y0124685D01*
X0174771Y0124640D01*
X0174787Y0124595D01*
X0174800Y0124548D01*
X0174809Y0124500D01*
X0174814Y0124452D01*
X0174816Y0124403D01*
X0174816Y0123320D01*
X0172216Y0123320D01*
X0172216Y0121186D02*
X0174816Y0121186D01*
X0175899Y0121295D02*
X0175899Y0121078D01*
X0176116Y0121078D01*
X0176116Y0121295D01*
X0175899Y0121295D01*
X0177841Y0121252D02*
X0177841Y0121468D01*
X0177841Y0121252D02*
X0177843Y0121203D01*
X0177848Y0121155D01*
X0177857Y0121107D01*
X0177870Y0121060D01*
X0177886Y0121015D01*
X0177905Y0120970D01*
X0177928Y0120927D01*
X0177954Y0120886D01*
X0177983Y0120847D01*
X0178015Y0120810D01*
X0178049Y0120776D01*
X0178086Y0120744D01*
X0178125Y0120715D01*
X0178166Y0120689D01*
X0178209Y0120666D01*
X0178254Y0120647D01*
X0178299Y0120631D01*
X0178346Y0120618D01*
X0178394Y0120609D01*
X0178442Y0120604D01*
X0178491Y0120602D01*
X0181741Y0120602D01*
X0180441Y0120168D02*
X0180441Y0121468D01*
X0180441Y0118969D02*
X0180008Y0118969D01*
X0180441Y0118969D02*
X0180441Y0117669D01*
X0177841Y0117669D01*
X0172432Y0117470D02*
X0172396Y0117574D01*
X0172363Y0117680D01*
X0172334Y0117787D01*
X0172308Y0117894D01*
X0172285Y0118002D01*
X0172265Y0118111D01*
X0172248Y0118221D01*
X0172235Y0118330D01*
X0172225Y0118441D01*
X0172219Y0118551D01*
X0172215Y0118662D01*
X0172216Y0118661D02*
X0172217Y0118707D01*
X0172222Y0118752D01*
X0172231Y0118797D01*
X0172243Y0118842D01*
X0172259Y0118885D01*
X0172278Y0118926D01*
X0172301Y0118966D01*
X0172327Y0119004D01*
X0172356Y0119040D01*
X0172387Y0119073D01*
X0172421Y0119103D01*
X0172458Y0119131D01*
X0172497Y0119156D01*
X0172537Y0119177D01*
X0172580Y0119195D01*
X0172623Y0119209D01*
X0172668Y0119220D01*
X0172713Y0119227D01*
X0172759Y0119231D01*
X0172805Y0119230D01*
X0172850Y0119226D01*
X0172896Y0119219D01*
X0172940Y0119207D01*
X0172983Y0119192D01*
X0173025Y0119174D01*
X0173066Y0119152D01*
X0173104Y0119127D01*
X0173140Y0119099D01*
X0173174Y0119068D01*
X0173205Y0119034D01*
X0173234Y0118998D01*
X0173259Y0118960D01*
X0173281Y0118920D01*
X0173300Y0118878D01*
X0173299Y0118878D02*
X0173733Y0117795D01*
X0173732Y0117794D02*
X0173751Y0117752D01*
X0173773Y0117712D01*
X0173798Y0117674D01*
X0173827Y0117638D01*
X0173858Y0117604D01*
X0173892Y0117573D01*
X0173928Y0117545D01*
X0173966Y0117520D01*
X0174007Y0117498D01*
X0174049Y0117480D01*
X0174092Y0117465D01*
X0174136Y0117453D01*
X0174182Y0117446D01*
X0174227Y0117442D01*
X0174273Y0117441D01*
X0174319Y0117445D01*
X0174364Y0117452D01*
X0174409Y0117463D01*
X0174452Y0117477D01*
X0174495Y0117495D01*
X0174535Y0117516D01*
X0174574Y0117541D01*
X0174611Y0117569D01*
X0174645Y0117599D01*
X0174676Y0117632D01*
X0174705Y0117668D01*
X0174731Y0117706D01*
X0174754Y0117746D01*
X0174773Y0117787D01*
X0174789Y0117830D01*
X0174801Y0117875D01*
X0174810Y0117920D01*
X0174815Y0117965D01*
X0174816Y0118011D01*
X0174813Y0118103D01*
X0174806Y0118194D01*
X0174797Y0118285D01*
X0174783Y0118375D01*
X0174767Y0118465D01*
X0174747Y0118554D01*
X0174724Y0118643D01*
X0174698Y0118730D01*
X0174668Y0118817D01*
X0174635Y0118902D01*
X0174599Y0118986D01*
X0174166Y0115153D02*
X0172216Y0115153D01*
X0172216Y0113420D02*
X0174816Y0113420D01*
X0174816Y0114503D01*
X0174814Y0114552D01*
X0174809Y0114600D01*
X0174800Y0114648D01*
X0174787Y0114695D01*
X0174771Y0114740D01*
X0174752Y0114785D01*
X0174729Y0114828D01*
X0174703Y0114869D01*
X0174674Y0114908D01*
X0174642Y0114945D01*
X0174608Y0114979D01*
X0174571Y0115011D01*
X0174532Y0115040D01*
X0174491Y0115066D01*
X0174448Y0115089D01*
X0174403Y0115108D01*
X0174358Y0115124D01*
X0174311Y0115137D01*
X0174263Y0115146D01*
X0174215Y0115151D01*
X0174166Y0115153D01*
X0173949Y0111103D02*
X0173516Y0111103D01*
X0173516Y0109370D01*
X0173949Y0109370D02*
X0172866Y0109370D01*
X0172817Y0109372D01*
X0172769Y0109377D01*
X0172721Y0109386D01*
X0172674Y0109399D01*
X0172629Y0109415D01*
X0172584Y0109434D01*
X0172541Y0109457D01*
X0172500Y0109483D01*
X0172461Y0109512D01*
X0172424Y0109544D01*
X0172390Y0109578D01*
X0172358Y0109615D01*
X0172329Y0109654D01*
X0172303Y0109695D01*
X0172280Y0109738D01*
X0172261Y0109783D01*
X0172245Y0109828D01*
X0172232Y0109875D01*
X0172223Y0109923D01*
X0172218Y0109971D01*
X0172216Y0110020D01*
X0172216Y0111103D01*
X0173949Y0111103D02*
X0174007Y0111101D01*
X0174065Y0111095D01*
X0174122Y0111086D01*
X0174178Y0111072D01*
X0174233Y0111055D01*
X0174287Y0111034D01*
X0174340Y0111010D01*
X0174391Y0110982D01*
X0174440Y0110951D01*
X0174486Y0110916D01*
X0174531Y0110879D01*
X0174572Y0110839D01*
X0174611Y0110796D01*
X0174647Y0110750D01*
X0174680Y0110703D01*
X0174709Y0110653D01*
X0174735Y0110601D01*
X0174758Y0110548D01*
X0174777Y0110493D01*
X0174792Y0110437D01*
X0174804Y0110380D01*
X0174812Y0110323D01*
X0174816Y0110265D01*
X0174816Y0110207D01*
X0174812Y0110149D01*
X0174804Y0110092D01*
X0174792Y0110035D01*
X0174777Y0109979D01*
X0174758Y0109924D01*
X0174735Y0109871D01*
X0174709Y0109819D01*
X0174680Y0109769D01*
X0174647Y0109722D01*
X0174611Y0109676D01*
X0174572Y0109633D01*
X0174531Y0109593D01*
X0174486Y0109556D01*
X0174440Y0109521D01*
X0174391Y0109490D01*
X0174340Y0109462D01*
X0174287Y0109438D01*
X0174233Y0109417D01*
X0174178Y0109400D01*
X0174122Y0109386D01*
X0174065Y0109377D01*
X0174007Y0109371D01*
X0173949Y0109369D01*
X0173841Y0106836D02*
X0174491Y0105645D01*
X0176116Y0106078D02*
X0176114Y0106153D01*
X0176109Y0106227D01*
X0176101Y0106301D01*
X0176089Y0106375D01*
X0176073Y0106448D01*
X0176055Y0106520D01*
X0176033Y0106592D01*
X0176007Y0106662D01*
X0175979Y0106731D01*
X0175947Y0106799D01*
X0175913Y0106865D01*
X0175875Y0106930D01*
X0175834Y0106992D01*
X0175791Y0107053D01*
X0174491Y0105645D02*
X0174521Y0105597D01*
X0174555Y0105551D01*
X0174592Y0105507D01*
X0174631Y0105466D01*
X0174673Y0105427D01*
X0174717Y0105391D01*
X0174764Y0105358D01*
X0174812Y0105328D01*
X0174863Y0105301D01*
X0174915Y0105278D01*
X0174968Y0105258D01*
X0175023Y0105241D01*
X0175079Y0105229D01*
X0175135Y0105219D01*
X0175192Y0105214D01*
X0175249Y0105212D01*
X0175249Y0105211D02*
X0175306Y0105213D01*
X0175362Y0105218D01*
X0175418Y0105228D01*
X0175473Y0105241D01*
X0175528Y0105257D01*
X0175581Y0105277D01*
X0175632Y0105300D01*
X0175683Y0105327D01*
X0175731Y0105357D01*
X0175777Y0105390D01*
X0175821Y0105426D01*
X0175862Y0105465D01*
X0175901Y0105506D01*
X0175937Y0105550D01*
X0175970Y0105596D01*
X0176000Y0105645D01*
X0176027Y0105695D01*
X0176050Y0105746D01*
X0176070Y0105799D01*
X0176086Y0105854D01*
X0176099Y0105909D01*
X0176109Y0105965D01*
X0176114Y0106021D01*
X0176116Y0106078D01*
X0172758Y0105103D02*
X0172699Y0105164D01*
X0172643Y0105228D01*
X0172590Y0105295D01*
X0172540Y0105363D01*
X0172493Y0105435D01*
X0172450Y0105508D01*
X0172410Y0105583D01*
X0172374Y0105660D01*
X0172341Y0105738D01*
X0172312Y0105818D01*
X0172287Y0105899D01*
X0172265Y0105982D01*
X0172248Y0106065D01*
X0172234Y0106149D01*
X0172224Y0106233D01*
X0172218Y0106318D01*
X0172216Y0106403D01*
X0172218Y0106460D01*
X0172223Y0106516D01*
X0172233Y0106572D01*
X0172246Y0106627D01*
X0172262Y0106682D01*
X0172282Y0106735D01*
X0172305Y0106786D01*
X0172332Y0106837D01*
X0172362Y0106885D01*
X0172395Y0106931D01*
X0172431Y0106975D01*
X0172470Y0107016D01*
X0172511Y0107055D01*
X0172555Y0107091D01*
X0172601Y0107124D01*
X0172650Y0107154D01*
X0172700Y0107181D01*
X0172751Y0107204D01*
X0172804Y0107224D01*
X0172859Y0107240D01*
X0172914Y0107253D01*
X0172970Y0107263D01*
X0173026Y0107268D01*
X0173083Y0107270D01*
X0173140Y0107268D01*
X0173197Y0107263D01*
X0173253Y0107253D01*
X0173309Y0107241D01*
X0173364Y0107224D01*
X0173417Y0107204D01*
X0173469Y0107181D01*
X0173520Y0107154D01*
X0173568Y0107124D01*
X0173615Y0107091D01*
X0173659Y0107055D01*
X0173701Y0107016D01*
X0173740Y0106975D01*
X0173777Y0106931D01*
X0173811Y0106885D01*
X0173841Y0106837D01*
X0177841Y0109520D02*
X0181741Y0109520D01*
X0180441Y0109520D02*
X0180441Y0110603D01*
X0180439Y0110652D01*
X0180434Y0110700D01*
X0180425Y0110748D01*
X0180412Y0110795D01*
X0180396Y0110840D01*
X0180377Y0110885D01*
X0180354Y0110928D01*
X0180328Y0110969D01*
X0180299Y0111008D01*
X0180267Y0111045D01*
X0180233Y0111079D01*
X0180196Y0111111D01*
X0180157Y0111140D01*
X0180116Y0111166D01*
X0180073Y0111189D01*
X0180028Y0111208D01*
X0179983Y0111224D01*
X0179936Y0111237D01*
X0179888Y0111246D01*
X0179840Y0111251D01*
X0179791Y0111253D01*
X0177841Y0111253D01*
X0178708Y0113570D02*
X0179574Y0113570D01*
X0179574Y0113569D02*
X0179632Y0113571D01*
X0179690Y0113577D01*
X0179747Y0113586D01*
X0179803Y0113600D01*
X0179858Y0113617D01*
X0179912Y0113638D01*
X0179965Y0113662D01*
X0180016Y0113690D01*
X0180065Y0113721D01*
X0180111Y0113756D01*
X0180156Y0113793D01*
X0180197Y0113833D01*
X0180236Y0113876D01*
X0180272Y0113922D01*
X0180305Y0113969D01*
X0180334Y0114019D01*
X0180360Y0114071D01*
X0180383Y0114124D01*
X0180402Y0114179D01*
X0180417Y0114235D01*
X0180429Y0114292D01*
X0180437Y0114349D01*
X0180441Y0114407D01*
X0180441Y0114465D01*
X0180437Y0114523D01*
X0180429Y0114580D01*
X0180417Y0114637D01*
X0180402Y0114693D01*
X0180383Y0114748D01*
X0180360Y0114801D01*
X0180334Y0114853D01*
X0180305Y0114903D01*
X0180272Y0114950D01*
X0180236Y0114996D01*
X0180197Y0115039D01*
X0180156Y0115079D01*
X0180111Y0115116D01*
X0180065Y0115151D01*
X0180016Y0115182D01*
X0179965Y0115210D01*
X0179912Y0115234D01*
X0179858Y0115255D01*
X0179803Y0115272D01*
X0179747Y0115286D01*
X0179690Y0115295D01*
X0179632Y0115301D01*
X0179574Y0115303D01*
X0178708Y0115303D01*
X0178650Y0115301D01*
X0178592Y0115295D01*
X0178535Y0115286D01*
X0178479Y0115272D01*
X0178424Y0115255D01*
X0178370Y0115234D01*
X0178317Y0115210D01*
X0178266Y0115182D01*
X0178217Y0115151D01*
X0178171Y0115116D01*
X0178126Y0115079D01*
X0178085Y0115039D01*
X0178046Y0114996D01*
X0178010Y0114950D01*
X0177977Y0114903D01*
X0177948Y0114853D01*
X0177922Y0114801D01*
X0177899Y0114748D01*
X0177880Y0114693D01*
X0177865Y0114637D01*
X0177853Y0114580D01*
X0177845Y0114523D01*
X0177841Y0114465D01*
X0177841Y0114407D01*
X0177845Y0114349D01*
X0177853Y0114292D01*
X0177865Y0114235D01*
X0177880Y0114179D01*
X0177899Y0114124D01*
X0177922Y0114071D01*
X0177948Y0114019D01*
X0177977Y0113969D01*
X0178010Y0113922D01*
X0178046Y0113876D01*
X0178085Y0113833D01*
X0178126Y0113793D01*
X0178171Y0113756D01*
X0178217Y0113721D01*
X0178266Y0113690D01*
X0178317Y0113662D01*
X0178370Y0113638D01*
X0178424Y0113617D01*
X0178479Y0113600D01*
X0178535Y0113586D01*
X0178592Y0113577D01*
X0178650Y0113571D01*
X0178708Y0113569D01*
X0179466Y0106836D02*
X0180116Y0105645D01*
X0181741Y0106078D02*
X0181739Y0106153D01*
X0181734Y0106227D01*
X0181726Y0106301D01*
X0181714Y0106375D01*
X0181698Y0106448D01*
X0181680Y0106520D01*
X0181658Y0106592D01*
X0181632Y0106662D01*
X0181604Y0106731D01*
X0181572Y0106799D01*
X0181538Y0106865D01*
X0181500Y0106930D01*
X0181459Y0106992D01*
X0181416Y0107053D01*
X0180116Y0105645D02*
X0180146Y0105597D01*
X0180180Y0105551D01*
X0180217Y0105507D01*
X0180256Y0105466D01*
X0180298Y0105427D01*
X0180342Y0105391D01*
X0180389Y0105358D01*
X0180437Y0105328D01*
X0180488Y0105301D01*
X0180540Y0105278D01*
X0180593Y0105258D01*
X0180648Y0105241D01*
X0180704Y0105229D01*
X0180760Y0105219D01*
X0180817Y0105214D01*
X0180874Y0105212D01*
X0180874Y0105211D02*
X0180931Y0105213D01*
X0180987Y0105218D01*
X0181043Y0105228D01*
X0181098Y0105241D01*
X0181153Y0105257D01*
X0181206Y0105277D01*
X0181257Y0105300D01*
X0181308Y0105327D01*
X0181356Y0105357D01*
X0181402Y0105390D01*
X0181446Y0105426D01*
X0181487Y0105465D01*
X0181526Y0105506D01*
X0181562Y0105550D01*
X0181595Y0105596D01*
X0181625Y0105645D01*
X0181652Y0105695D01*
X0181675Y0105746D01*
X0181695Y0105799D01*
X0181711Y0105854D01*
X0181724Y0105909D01*
X0181734Y0105965D01*
X0181739Y0106021D01*
X0181741Y0106078D01*
X0178383Y0105103D02*
X0178324Y0105164D01*
X0178268Y0105228D01*
X0178215Y0105295D01*
X0178165Y0105363D01*
X0178118Y0105435D01*
X0178075Y0105508D01*
X0178035Y0105583D01*
X0177999Y0105660D01*
X0177966Y0105738D01*
X0177937Y0105818D01*
X0177912Y0105899D01*
X0177890Y0105982D01*
X0177873Y0106065D01*
X0177859Y0106149D01*
X0177849Y0106233D01*
X0177843Y0106318D01*
X0177841Y0106403D01*
X0177843Y0106460D01*
X0177848Y0106516D01*
X0177858Y0106572D01*
X0177871Y0106627D01*
X0177887Y0106682D01*
X0177907Y0106735D01*
X0177930Y0106786D01*
X0177957Y0106837D01*
X0177987Y0106885D01*
X0178020Y0106931D01*
X0178056Y0106975D01*
X0178095Y0107016D01*
X0178136Y0107055D01*
X0178180Y0107091D01*
X0178226Y0107124D01*
X0178275Y0107154D01*
X0178325Y0107181D01*
X0178376Y0107204D01*
X0178429Y0107224D01*
X0178484Y0107240D01*
X0178539Y0107253D01*
X0178595Y0107263D01*
X0178651Y0107268D01*
X0178708Y0107270D01*
X0178765Y0107268D01*
X0178822Y0107263D01*
X0178878Y0107253D01*
X0178934Y0107241D01*
X0178989Y0107224D01*
X0179042Y0107204D01*
X0179094Y0107181D01*
X0179145Y0107154D01*
X0179193Y0107124D01*
X0179240Y0107091D01*
X0179284Y0107055D01*
X0179326Y0107016D01*
X0179365Y0106975D01*
X0179402Y0106931D01*
X0179436Y0106885D01*
X0179466Y0106837D01*
X0164241Y0072753D02*
X0163158Y0072753D01*
X0164241Y0072753D02*
X0164241Y0068853D01*
X0164241Y0070586D02*
X0163158Y0070586D01*
X0162941Y0070586D02*
X0162074Y0068853D01*
X0159164Y0068853D02*
X0158189Y0068853D01*
X0158189Y0070803D01*
X0158189Y0070370D02*
X0159164Y0070370D01*
X0158189Y0070803D02*
X0158191Y0070852D01*
X0158196Y0070900D01*
X0158205Y0070948D01*
X0158218Y0070995D01*
X0158234Y0071040D01*
X0158253Y0071085D01*
X0158276Y0071128D01*
X0158302Y0071169D01*
X0158331Y0071208D01*
X0158363Y0071245D01*
X0158397Y0071279D01*
X0158434Y0071311D01*
X0158473Y0071340D01*
X0158514Y0071366D01*
X0158557Y0071389D01*
X0158602Y0071408D01*
X0158647Y0071424D01*
X0158694Y0071437D01*
X0158742Y0071446D01*
X0158790Y0071451D01*
X0158839Y0071453D01*
X0159705Y0071453D01*
X0159164Y0070369D02*
X0159218Y0070367D01*
X0159272Y0070361D01*
X0159325Y0070352D01*
X0159378Y0070338D01*
X0159429Y0070321D01*
X0159479Y0070301D01*
X0159527Y0070276D01*
X0159574Y0070249D01*
X0159618Y0070218D01*
X0159660Y0070184D01*
X0159700Y0070147D01*
X0159737Y0070107D01*
X0159771Y0070065D01*
X0159802Y0070021D01*
X0159829Y0069974D01*
X0159854Y0069926D01*
X0159874Y0069876D01*
X0159891Y0069825D01*
X0159905Y0069772D01*
X0159914Y0069719D01*
X0159920Y0069665D01*
X0159922Y0069611D01*
X0159920Y0069557D01*
X0159914Y0069503D01*
X0159905Y0069450D01*
X0159891Y0069397D01*
X0159874Y0069346D01*
X0159854Y0069296D01*
X0159829Y0069248D01*
X0159802Y0069201D01*
X0159771Y0069157D01*
X0159737Y0069115D01*
X0159700Y0069075D01*
X0159660Y0069038D01*
X0159618Y0069004D01*
X0159574Y0068973D01*
X0159527Y0068946D01*
X0159479Y0068921D01*
X0159429Y0068901D01*
X0159378Y0068884D01*
X0159325Y0068870D01*
X0159272Y0068861D01*
X0159218Y0068855D01*
X0159164Y0068853D01*
X0155872Y0069503D02*
X0155872Y0070803D01*
X0155870Y0070852D01*
X0155865Y0070900D01*
X0155856Y0070948D01*
X0155843Y0070995D01*
X0155827Y0071040D01*
X0155808Y0071085D01*
X0155785Y0071128D01*
X0155759Y0071169D01*
X0155730Y0071208D01*
X0155698Y0071245D01*
X0155664Y0071279D01*
X0155627Y0071311D01*
X0155588Y0071340D01*
X0155547Y0071366D01*
X0155504Y0071389D01*
X0155459Y0071408D01*
X0155414Y0071424D01*
X0155367Y0071437D01*
X0155319Y0071446D01*
X0155271Y0071451D01*
X0155222Y0071453D01*
X0154139Y0071453D01*
X0154139Y0072753D02*
X0154139Y0068853D01*
X0155222Y0068853D01*
X0155271Y0068855D01*
X0155319Y0068860D01*
X0155367Y0068869D01*
X0155414Y0068882D01*
X0155459Y0068898D01*
X0155504Y0068917D01*
X0155547Y0068940D01*
X0155588Y0068966D01*
X0155627Y0068995D01*
X0155664Y0069027D01*
X0155698Y0069061D01*
X0155730Y0069098D01*
X0155759Y0069137D01*
X0155785Y0069178D01*
X0155808Y0069221D01*
X0155827Y0069266D01*
X0155843Y0069311D01*
X0155856Y0069358D01*
X0155865Y0069406D01*
X0155870Y0069454D01*
X0155872Y0069503D01*
X0152758Y0067553D02*
X0152709Y0067555D01*
X0152661Y0067560D01*
X0152613Y0067569D01*
X0152566Y0067582D01*
X0152521Y0067598D01*
X0152476Y0067617D01*
X0152433Y0067640D01*
X0152392Y0067666D01*
X0152353Y0067695D01*
X0152316Y0067727D01*
X0152282Y0067761D01*
X0152250Y0067798D01*
X0152221Y0067837D01*
X0152195Y0067878D01*
X0152172Y0067921D01*
X0152153Y0067966D01*
X0152137Y0068011D01*
X0152124Y0068058D01*
X0152115Y0068106D01*
X0152110Y0068154D01*
X0152108Y0068203D01*
X0152108Y0071453D01*
X0151999Y0072536D02*
X0152216Y0072536D01*
X0152216Y0072753D01*
X0151999Y0072753D01*
X0151999Y0072536D01*
X0152758Y0067553D02*
X0152974Y0067553D01*
X0163158Y0070587D02*
X0163094Y0070589D01*
X0163030Y0070595D01*
X0162966Y0070604D01*
X0162904Y0070617D01*
X0162842Y0070634D01*
X0162781Y0070655D01*
X0162721Y0070679D01*
X0162663Y0070707D01*
X0162607Y0070737D01*
X0162553Y0070772D01*
X0162501Y0070809D01*
X0162451Y0070850D01*
X0162404Y0070893D01*
X0162359Y0070939D01*
X0162317Y0070988D01*
X0162278Y0071039D01*
X0162242Y0071092D01*
X0162210Y0071147D01*
X0162180Y0071204D01*
X0162154Y0071263D01*
X0162132Y0071323D01*
X0162113Y0071385D01*
X0162098Y0071447D01*
X0162087Y0071510D01*
X0162079Y0071574D01*
X0162075Y0071638D01*
X0162075Y0071702D01*
X0162079Y0071766D01*
X0162087Y0071830D01*
X0162098Y0071893D01*
X0162113Y0071955D01*
X0162132Y0072017D01*
X0162154Y0072077D01*
X0162180Y0072136D01*
X0162210Y0072193D01*
X0162242Y0072248D01*
X0162278Y0072301D01*
X0162317Y0072352D01*
X0162359Y0072401D01*
X0162404Y0072447D01*
X0162451Y0072490D01*
X0162501Y0072531D01*
X0162553Y0072568D01*
X0162607Y0072603D01*
X0162663Y0072633D01*
X0162721Y0072661D01*
X0162781Y0072685D01*
X0162842Y0072706D01*
X0162904Y0072723D01*
X0162966Y0072736D01*
X0163030Y0072745D01*
X0163094Y0072751D01*
X0163158Y0072753D01*
D12*
X0163666Y0074553D02*
X0168541Y0074553D01*
X0168541Y0079725D01*
X0168541Y0083662D02*
X0168541Y0088835D01*
X0168541Y0092772D02*
X0168541Y0097944D01*
X0168541Y0101881D02*
X0168541Y0107053D01*
X0163666Y0107053D01*
X0159729Y0107053D02*
X0154853Y0107053D01*
X0150916Y0107053D02*
X0146041Y0107053D01*
X0146041Y0101881D01*
X0146041Y0097944D02*
X0146041Y0092772D01*
X0146041Y0088835D02*
X0146041Y0083662D01*
X0146041Y0079725D02*
X0146041Y0074553D01*
X0150916Y0074553D01*
X0154853Y0074553D02*
X0159729Y0074553D01*
X0183541Y0105178D02*
X0196041Y0105178D01*
X0203541Y0109553D01*
X0217291Y0107678D02*
X0230416Y0091428D01*
X0239166Y0103928D02*
X0224791Y0108303D01*
X0214166Y0090178D02*
X0214168Y0090228D01*
X0214174Y0090277D01*
X0214184Y0090326D01*
X0214197Y0090373D01*
X0214215Y0090420D01*
X0214236Y0090465D01*
X0214260Y0090508D01*
X0214288Y0090549D01*
X0214319Y0090588D01*
X0214353Y0090624D01*
X0214390Y0090658D01*
X0214430Y0090688D01*
X0214471Y0090715D01*
X0214515Y0090739D01*
X0214560Y0090759D01*
X0214607Y0090775D01*
X0214655Y0090788D01*
X0214704Y0090797D01*
X0214754Y0090802D01*
X0214803Y0090803D01*
X0214853Y0090800D01*
X0214902Y0090793D01*
X0214951Y0090782D01*
X0214998Y0090768D01*
X0215044Y0090749D01*
X0215089Y0090727D01*
X0215132Y0090702D01*
X0215172Y0090673D01*
X0215210Y0090641D01*
X0215246Y0090607D01*
X0215279Y0090569D01*
X0215308Y0090529D01*
X0215334Y0090487D01*
X0215357Y0090443D01*
X0215376Y0090397D01*
X0215392Y0090350D01*
X0215404Y0090301D01*
X0215412Y0090252D01*
X0215416Y0090203D01*
X0215416Y0090153D01*
X0215412Y0090104D01*
X0215404Y0090055D01*
X0215392Y0090006D01*
X0215376Y0089959D01*
X0215357Y0089913D01*
X0215334Y0089869D01*
X0215308Y0089827D01*
X0215279Y0089787D01*
X0215246Y0089749D01*
X0215210Y0089715D01*
X0215172Y0089683D01*
X0215132Y0089654D01*
X0215089Y0089629D01*
X0215044Y0089607D01*
X0214998Y0089588D01*
X0214951Y0089574D01*
X0214902Y0089563D01*
X0214853Y0089556D01*
X0214803Y0089553D01*
X0214754Y0089554D01*
X0214704Y0089559D01*
X0214655Y0089568D01*
X0214607Y0089581D01*
X0214560Y0089597D01*
X0214515Y0089617D01*
X0214471Y0089641D01*
X0214430Y0089668D01*
X0214390Y0089698D01*
X0214353Y0089732D01*
X0214319Y0089768D01*
X0214288Y0089807D01*
X0214260Y0089848D01*
X0214236Y0089891D01*
X0214215Y0089936D01*
X0214197Y0089983D01*
X0214184Y0090030D01*
X0214174Y0090079D01*
X0214168Y0090128D01*
X0214166Y0090178D01*
D13*
X0212744Y0099036D02*
X0223000Y0099036D01*
X0223000Y0071320D01*
X0196582Y0071320D01*
X0196582Y0099036D01*
X0206838Y0099036D01*
X0196582Y0099036D02*
X0223000Y0099036D01*
X0223000Y0071320D01*
X0216681Y0071320D02*
X0202901Y0071320D01*
X0196582Y0071320D02*
X0196582Y0099036D01*
X0215022Y0119553D02*
X0215024Y0119592D01*
X0215030Y0119631D01*
X0215040Y0119669D01*
X0215053Y0119706D01*
X0215070Y0119741D01*
X0215090Y0119775D01*
X0215114Y0119806D01*
X0215141Y0119835D01*
X0215170Y0119861D01*
X0215202Y0119884D01*
X0215236Y0119904D01*
X0215272Y0119920D01*
X0215309Y0119932D01*
X0215348Y0119941D01*
X0215387Y0119946D01*
X0215426Y0119947D01*
X0215465Y0119944D01*
X0215504Y0119937D01*
X0215541Y0119926D01*
X0215578Y0119912D01*
X0215613Y0119894D01*
X0215646Y0119873D01*
X0215677Y0119848D01*
X0215705Y0119821D01*
X0215730Y0119791D01*
X0215752Y0119758D01*
X0215771Y0119724D01*
X0215786Y0119688D01*
X0215798Y0119650D01*
X0215806Y0119612D01*
X0215810Y0119573D01*
X0215810Y0119533D01*
X0215806Y0119494D01*
X0215798Y0119456D01*
X0215786Y0119418D01*
X0215771Y0119382D01*
X0215752Y0119348D01*
X0215730Y0119315D01*
X0215705Y0119285D01*
X0215677Y0119258D01*
X0215646Y0119233D01*
X0215613Y0119212D01*
X0215578Y0119194D01*
X0215541Y0119180D01*
X0215504Y0119169D01*
X0215465Y0119162D01*
X0215426Y0119159D01*
X0215387Y0119160D01*
X0215348Y0119165D01*
X0215309Y0119174D01*
X0215272Y0119186D01*
X0215236Y0119202D01*
X0215202Y0119222D01*
X0215170Y0119245D01*
X0215141Y0119271D01*
X0215114Y0119300D01*
X0215090Y0119331D01*
X0215070Y0119365D01*
X0215053Y0119400D01*
X0215040Y0119437D01*
X0215030Y0119475D01*
X0215024Y0119514D01*
X0215022Y0119553D01*
X0220022Y0119553D02*
X0220024Y0119592D01*
X0220030Y0119631D01*
X0220040Y0119669D01*
X0220053Y0119706D01*
X0220070Y0119741D01*
X0220090Y0119775D01*
X0220114Y0119806D01*
X0220141Y0119835D01*
X0220170Y0119861D01*
X0220202Y0119884D01*
X0220236Y0119904D01*
X0220272Y0119920D01*
X0220309Y0119932D01*
X0220348Y0119941D01*
X0220387Y0119946D01*
X0220426Y0119947D01*
X0220465Y0119944D01*
X0220504Y0119937D01*
X0220541Y0119926D01*
X0220578Y0119912D01*
X0220613Y0119894D01*
X0220646Y0119873D01*
X0220677Y0119848D01*
X0220705Y0119821D01*
X0220730Y0119791D01*
X0220752Y0119758D01*
X0220771Y0119724D01*
X0220786Y0119688D01*
X0220798Y0119650D01*
X0220806Y0119612D01*
X0220810Y0119573D01*
X0220810Y0119533D01*
X0220806Y0119494D01*
X0220798Y0119456D01*
X0220786Y0119418D01*
X0220771Y0119382D01*
X0220752Y0119348D01*
X0220730Y0119315D01*
X0220705Y0119285D01*
X0220677Y0119258D01*
X0220646Y0119233D01*
X0220613Y0119212D01*
X0220578Y0119194D01*
X0220541Y0119180D01*
X0220504Y0119169D01*
X0220465Y0119162D01*
X0220426Y0119159D01*
X0220387Y0119160D01*
X0220348Y0119165D01*
X0220309Y0119174D01*
X0220272Y0119186D01*
X0220236Y0119202D01*
X0220202Y0119222D01*
X0220170Y0119245D01*
X0220141Y0119271D01*
X0220114Y0119300D01*
X0220090Y0119331D01*
X0220070Y0119365D01*
X0220053Y0119400D01*
X0220040Y0119437D01*
X0220030Y0119475D01*
X0220024Y0119514D01*
X0220022Y0119553D01*
X0127522Y0118303D02*
X0127524Y0118342D01*
X0127530Y0118381D01*
X0127540Y0118419D01*
X0127553Y0118456D01*
X0127570Y0118491D01*
X0127590Y0118525D01*
X0127614Y0118556D01*
X0127641Y0118585D01*
X0127670Y0118611D01*
X0127702Y0118634D01*
X0127736Y0118654D01*
X0127772Y0118670D01*
X0127809Y0118682D01*
X0127848Y0118691D01*
X0127887Y0118696D01*
X0127926Y0118697D01*
X0127965Y0118694D01*
X0128004Y0118687D01*
X0128041Y0118676D01*
X0128078Y0118662D01*
X0128113Y0118644D01*
X0128146Y0118623D01*
X0128177Y0118598D01*
X0128205Y0118571D01*
X0128230Y0118541D01*
X0128252Y0118508D01*
X0128271Y0118474D01*
X0128286Y0118438D01*
X0128298Y0118400D01*
X0128306Y0118362D01*
X0128310Y0118323D01*
X0128310Y0118283D01*
X0128306Y0118244D01*
X0128298Y0118206D01*
X0128286Y0118168D01*
X0128271Y0118132D01*
X0128252Y0118098D01*
X0128230Y0118065D01*
X0128205Y0118035D01*
X0128177Y0118008D01*
X0128146Y0117983D01*
X0128113Y0117962D01*
X0128078Y0117944D01*
X0128041Y0117930D01*
X0128004Y0117919D01*
X0127965Y0117912D01*
X0127926Y0117909D01*
X0127887Y0117910D01*
X0127848Y0117915D01*
X0127809Y0117924D01*
X0127772Y0117936D01*
X0127736Y0117952D01*
X0127702Y0117972D01*
X0127670Y0117995D01*
X0127641Y0118021D01*
X0127614Y0118050D01*
X0127590Y0118081D01*
X0127570Y0118115D01*
X0127553Y0118150D01*
X0127540Y0118187D01*
X0127530Y0118225D01*
X0127524Y0118264D01*
X0127522Y0118303D01*
D14*
X0125947Y0113776D02*
X0129884Y0113776D01*
X0129884Y0122831D01*
X0125947Y0122831D01*
X0125947Y0113776D01*
X0147822Y0105134D02*
X0147822Y0096472D01*
X0151759Y0096472D01*
X0151759Y0105134D01*
X0147822Y0105134D01*
X0152960Y0097772D02*
X0152960Y0093835D01*
X0161622Y0093835D01*
X0161622Y0097772D01*
X0152960Y0097772D01*
X0151759Y0095134D02*
X0147822Y0095134D01*
X0147822Y0086472D01*
X0151759Y0086472D01*
X0151759Y0095134D01*
X0152960Y0087772D02*
X0152960Y0083835D01*
X0161622Y0083835D01*
X0161622Y0087772D01*
X0152960Y0087772D01*
X0151759Y0085134D02*
X0147822Y0085134D01*
X0147822Y0076472D01*
X0151759Y0076472D01*
X0151759Y0085134D01*
X0162822Y0085134D02*
X0162822Y0076472D01*
X0166759Y0076472D01*
X0166759Y0085134D01*
X0162822Y0085134D01*
X0162822Y0086472D02*
X0166759Y0086472D01*
X0166759Y0095134D01*
X0162822Y0095134D01*
X0162822Y0086472D01*
X0170460Y0079647D02*
X0170460Y0075710D01*
X0179122Y0075710D01*
X0179122Y0079647D01*
X0170460Y0079647D01*
X0166759Y0096472D02*
X0162822Y0096472D01*
X0162822Y0105134D01*
X0166759Y0105134D01*
X0166759Y0096472D01*
X0129884Y0087634D02*
X0129884Y0078972D01*
X0125947Y0078972D01*
X0125947Y0087634D01*
X0129884Y0087634D01*
X0205947Y0115222D02*
X0209884Y0115222D01*
X0209884Y0123884D01*
X0205947Y0123884D01*
X0205947Y0115222D01*
X0213447Y0115026D02*
X0217384Y0115026D01*
X0217384Y0124081D01*
X0213447Y0124081D01*
X0213447Y0115026D01*
X0218447Y0115026D02*
X0222384Y0115026D01*
X0222384Y0124081D01*
X0218447Y0124081D01*
X0218447Y0115026D01*
X0199791Y0085178D02*
X0199794Y0085423D01*
X0199803Y0085669D01*
X0199818Y0085914D01*
X0199839Y0086158D01*
X0199866Y0086402D01*
X0199899Y0086645D01*
X0199938Y0086888D01*
X0199983Y0087129D01*
X0200034Y0087369D01*
X0200091Y0087608D01*
X0200153Y0087845D01*
X0200222Y0088081D01*
X0200296Y0088315D01*
X0200376Y0088547D01*
X0200461Y0088777D01*
X0200552Y0089005D01*
X0200649Y0089230D01*
X0200751Y0089454D01*
X0200859Y0089674D01*
X0200972Y0089892D01*
X0201090Y0090107D01*
X0201214Y0090319D01*
X0201342Y0090528D01*
X0201476Y0090734D01*
X0201615Y0090936D01*
X0201759Y0091135D01*
X0201908Y0091330D01*
X0202061Y0091522D01*
X0202219Y0091710D01*
X0202381Y0091894D01*
X0202549Y0092073D01*
X0202720Y0092249D01*
X0202896Y0092420D01*
X0203075Y0092588D01*
X0203259Y0092750D01*
X0203447Y0092908D01*
X0203639Y0093061D01*
X0203834Y0093210D01*
X0204033Y0093354D01*
X0204235Y0093493D01*
X0204441Y0093627D01*
X0204650Y0093755D01*
X0204862Y0093879D01*
X0205077Y0093997D01*
X0205295Y0094110D01*
X0205515Y0094218D01*
X0205739Y0094320D01*
X0205964Y0094417D01*
X0206192Y0094508D01*
X0206422Y0094593D01*
X0206654Y0094673D01*
X0206888Y0094747D01*
X0207124Y0094816D01*
X0207361Y0094878D01*
X0207600Y0094935D01*
X0207840Y0094986D01*
X0208081Y0095031D01*
X0208324Y0095070D01*
X0208567Y0095103D01*
X0208811Y0095130D01*
X0209055Y0095151D01*
X0209300Y0095166D01*
X0209546Y0095175D01*
X0209791Y0095178D01*
X0210036Y0095175D01*
X0210282Y0095166D01*
X0210527Y0095151D01*
X0210771Y0095130D01*
X0211015Y0095103D01*
X0211258Y0095070D01*
X0211501Y0095031D01*
X0211742Y0094986D01*
X0211982Y0094935D01*
X0212221Y0094878D01*
X0212458Y0094816D01*
X0212694Y0094747D01*
X0212928Y0094673D01*
X0213160Y0094593D01*
X0213390Y0094508D01*
X0213618Y0094417D01*
X0213843Y0094320D01*
X0214067Y0094218D01*
X0214287Y0094110D01*
X0214505Y0093997D01*
X0214720Y0093879D01*
X0214932Y0093755D01*
X0215141Y0093627D01*
X0215347Y0093493D01*
X0215549Y0093354D01*
X0215748Y0093210D01*
X0215943Y0093061D01*
X0216135Y0092908D01*
X0216323Y0092750D01*
X0216507Y0092588D01*
X0216686Y0092420D01*
X0216862Y0092249D01*
X0217033Y0092073D01*
X0217201Y0091894D01*
X0217363Y0091710D01*
X0217521Y0091522D01*
X0217674Y0091330D01*
X0217823Y0091135D01*
X0217967Y0090936D01*
X0218106Y0090734D01*
X0218240Y0090528D01*
X0218368Y0090319D01*
X0218492Y0090107D01*
X0218610Y0089892D01*
X0218723Y0089674D01*
X0218831Y0089454D01*
X0218933Y0089230D01*
X0219030Y0089005D01*
X0219121Y0088777D01*
X0219206Y0088547D01*
X0219286Y0088315D01*
X0219360Y0088081D01*
X0219429Y0087845D01*
X0219491Y0087608D01*
X0219548Y0087369D01*
X0219599Y0087129D01*
X0219644Y0086888D01*
X0219683Y0086645D01*
X0219716Y0086402D01*
X0219743Y0086158D01*
X0219764Y0085914D01*
X0219779Y0085669D01*
X0219788Y0085423D01*
X0219791Y0085178D01*
X0219788Y0084933D01*
X0219779Y0084687D01*
X0219764Y0084442D01*
X0219743Y0084198D01*
X0219716Y0083954D01*
X0219683Y0083711D01*
X0219644Y0083468D01*
X0219599Y0083227D01*
X0219548Y0082987D01*
X0219491Y0082748D01*
X0219429Y0082511D01*
X0219360Y0082275D01*
X0219286Y0082041D01*
X0219206Y0081809D01*
X0219121Y0081579D01*
X0219030Y0081351D01*
X0218933Y0081126D01*
X0218831Y0080902D01*
X0218723Y0080682D01*
X0218610Y0080464D01*
X0218492Y0080249D01*
X0218368Y0080037D01*
X0218240Y0079828D01*
X0218106Y0079622D01*
X0217967Y0079420D01*
X0217823Y0079221D01*
X0217674Y0079026D01*
X0217521Y0078834D01*
X0217363Y0078646D01*
X0217201Y0078462D01*
X0217033Y0078283D01*
X0216862Y0078107D01*
X0216686Y0077936D01*
X0216507Y0077768D01*
X0216323Y0077606D01*
X0216135Y0077448D01*
X0215943Y0077295D01*
X0215748Y0077146D01*
X0215549Y0077002D01*
X0215347Y0076863D01*
X0215141Y0076729D01*
X0214932Y0076601D01*
X0214720Y0076477D01*
X0214505Y0076359D01*
X0214287Y0076246D01*
X0214067Y0076138D01*
X0213843Y0076036D01*
X0213618Y0075939D01*
X0213390Y0075848D01*
X0213160Y0075763D01*
X0212928Y0075683D01*
X0212694Y0075609D01*
X0212458Y0075540D01*
X0212221Y0075478D01*
X0211982Y0075421D01*
X0211742Y0075370D01*
X0211501Y0075325D01*
X0211258Y0075286D01*
X0211015Y0075253D01*
X0210771Y0075226D01*
X0210527Y0075205D01*
X0210282Y0075190D01*
X0210036Y0075181D01*
X0209791Y0075178D01*
X0209546Y0075181D01*
X0209300Y0075190D01*
X0209055Y0075205D01*
X0208811Y0075226D01*
X0208567Y0075253D01*
X0208324Y0075286D01*
X0208081Y0075325D01*
X0207840Y0075370D01*
X0207600Y0075421D01*
X0207361Y0075478D01*
X0207124Y0075540D01*
X0206888Y0075609D01*
X0206654Y0075683D01*
X0206422Y0075763D01*
X0206192Y0075848D01*
X0205964Y0075939D01*
X0205739Y0076036D01*
X0205515Y0076138D01*
X0205295Y0076246D01*
X0205077Y0076359D01*
X0204862Y0076477D01*
X0204650Y0076601D01*
X0204441Y0076729D01*
X0204235Y0076863D01*
X0204033Y0077002D01*
X0203834Y0077146D01*
X0203639Y0077295D01*
X0203447Y0077448D01*
X0203259Y0077606D01*
X0203075Y0077768D01*
X0202896Y0077936D01*
X0202720Y0078107D01*
X0202549Y0078283D01*
X0202381Y0078462D01*
X0202219Y0078646D01*
X0202061Y0078834D01*
X0201908Y0079026D01*
X0201759Y0079221D01*
X0201615Y0079420D01*
X0201476Y0079622D01*
X0201342Y0079828D01*
X0201214Y0080037D01*
X0201090Y0080249D01*
X0200972Y0080464D01*
X0200859Y0080682D01*
X0200751Y0080902D01*
X0200649Y0081126D01*
X0200552Y0081351D01*
X0200461Y0081579D01*
X0200376Y0081809D01*
X0200296Y0082041D01*
X0200222Y0082275D01*
X0200153Y0082511D01*
X0200091Y0082748D01*
X0200034Y0082987D01*
X0199983Y0083227D01*
X0199938Y0083468D01*
X0199899Y0083711D01*
X0199866Y0083954D01*
X0199839Y0084198D01*
X0199818Y0084442D01*
X0199803Y0084687D01*
X0199794Y0084933D01*
X0199791Y0085178D01*
X0200298Y0174529D02*
X0200298Y0180828D01*
X0210534Y0180828D01*
X0210534Y0174529D01*
X0200298Y0174529D01*
X0203541Y0174553D02*
X0206666Y0177678D01*
X0203541Y0180803D01*
X0203541Y0174553D01*
X0203541Y0174925D02*
X0203913Y0174925D01*
X0203541Y0175424D02*
X0204411Y0175424D01*
X0204910Y0175922D02*
X0203541Y0175922D01*
X0203541Y0176421D02*
X0205408Y0176421D01*
X0205907Y0176919D02*
X0203541Y0176919D01*
X0203541Y0177418D02*
X0206405Y0177418D01*
X0206428Y0177916D02*
X0203541Y0177916D01*
X0203541Y0178415D02*
X0205929Y0178415D01*
X0205431Y0178913D02*
X0203541Y0178913D01*
X0203541Y0179412D02*
X0204932Y0179412D01*
X0204434Y0179910D02*
X0203541Y0179910D01*
X0203541Y0180409D02*
X0203935Y0180409D01*
D15*
X0122335Y0184858D02*
X0122335Y0166748D01*
X0105997Y0166748D01*
X0105997Y0184858D01*
X0122335Y0184858D01*
D16*
X0109481Y0181807D03*
D17*
X0109166Y0186827D03*
X0119166Y0186827D03*
X0119166Y0164780D03*
X0109166Y0164780D03*
D18*
X0209791Y0100532D03*
X0219791Y0069824D03*
X0199791Y0069824D03*
D19*
X0207291Y0077678D02*
X0212291Y0077678D01*
X0212291Y0082678D01*
X0217291Y0082678D01*
X0217291Y0087678D01*
X0212291Y0087678D01*
X0212291Y0092678D01*
X0207291Y0092678D01*
X0207291Y0087678D01*
X0202291Y0087678D01*
X0202291Y0082678D01*
X0207291Y0082678D01*
X0207291Y0077678D01*
D20*
X0235239Y0131492D02*
X0150593Y0131492D01*
X0150531Y0131494D01*
X0150470Y0131500D01*
X0150409Y0131509D01*
X0150348Y0131523D01*
X0150289Y0131540D01*
X0150231Y0131561D01*
X0150174Y0131586D01*
X0150119Y0131614D01*
X0150066Y0131645D01*
X0150015Y0131680D01*
X0149966Y0131718D01*
X0149919Y0131759D01*
X0149876Y0131802D01*
X0149835Y0131849D01*
X0149797Y0131898D01*
X0149762Y0131949D01*
X0149731Y0132002D01*
X0149703Y0132057D01*
X0149678Y0132114D01*
X0149657Y0132172D01*
X0149640Y0132231D01*
X0149626Y0132292D01*
X0149617Y0132353D01*
X0149611Y0132414D01*
X0149609Y0132476D01*
X0149609Y0154130D01*
X0149611Y0154192D01*
X0149617Y0154253D01*
X0149626Y0154314D01*
X0149640Y0154375D01*
X0149657Y0154434D01*
X0149678Y0154492D01*
X0149703Y0154549D01*
X0149731Y0154604D01*
X0149762Y0154657D01*
X0149797Y0154708D01*
X0149835Y0154757D01*
X0149876Y0154804D01*
X0149919Y0154847D01*
X0149966Y0154888D01*
X0150015Y0154926D01*
X0150066Y0154961D01*
X0150119Y0154992D01*
X0150174Y0155020D01*
X0150231Y0155045D01*
X0150289Y0155066D01*
X0150348Y0155083D01*
X0150409Y0155097D01*
X0150470Y0155106D01*
X0150531Y0155112D01*
X0150593Y0155114D01*
X0235239Y0155114D01*
X0235301Y0155112D01*
X0235362Y0155106D01*
X0235423Y0155097D01*
X0235484Y0155083D01*
X0235543Y0155066D01*
X0235601Y0155045D01*
X0235658Y0155020D01*
X0235713Y0154992D01*
X0235766Y0154961D01*
X0235817Y0154926D01*
X0235866Y0154888D01*
X0235913Y0154847D01*
X0235956Y0154804D01*
X0235997Y0154757D01*
X0236035Y0154708D01*
X0236070Y0154657D01*
X0236101Y0154604D01*
X0236129Y0154549D01*
X0236154Y0154492D01*
X0236175Y0154434D01*
X0236192Y0154375D01*
X0236206Y0154314D01*
X0236215Y0154253D01*
X0236221Y0154192D01*
X0236223Y0154130D01*
X0236223Y0132476D01*
X0236221Y0132414D01*
X0236215Y0132353D01*
X0236206Y0132292D01*
X0236192Y0132231D01*
X0236175Y0132172D01*
X0236154Y0132114D01*
X0236129Y0132057D01*
X0236101Y0132002D01*
X0236070Y0131949D01*
X0236035Y0131898D01*
X0235997Y0131849D01*
X0235956Y0131802D01*
X0235913Y0131759D01*
X0235866Y0131718D01*
X0235817Y0131680D01*
X0235766Y0131645D01*
X0235713Y0131614D01*
X0235658Y0131586D01*
X0235601Y0131561D01*
X0235543Y0131540D01*
X0235484Y0131523D01*
X0235423Y0131509D01*
X0235362Y0131500D01*
X0235301Y0131494D01*
X0235239Y0131492D01*
X0119914Y0193205D02*
X0108418Y0193205D01*
X0108418Y0198402D01*
X0119914Y0198402D01*
X0119914Y0193205D01*
D21*
X0114166Y0191853D03*
X0117866Y0199753D03*
X0110466Y0199753D03*
D22*
X0150313Y0137678D02*
X0177291Y0137678D01*
X0208541Y0148928D02*
X0235519Y0148928D01*
D23*
X0236003Y0148928D03*
X0149828Y0137678D03*
D24*
X0207384Y0177678D03*
D25*
X0211125Y0177678D03*
X0199707Y0177678D03*
M02*
