G75*
%MOIN*%
%OFA0B0*%
%FSLAX25Y25*%
%IPPOS*%
%LPD*%
%AMOC8*
5,1,8,0,0,1.08239X$1,22.5*
%
%ADD10C,0.00900*%
%ADD11C,0.01100*%
%ADD12C,0.01200*%
%ADD13C,0.01000*%
%ADD14C,0.00500*%
%ADD15C,0.00800*%
%ADD16C,0.02953*%
%ADD17R,0.01969X0.03937*%
%ADD18R,0.02362X0.03937*%
%ADD19C,0.00400*%
%ADD20C,0.00600*%
%ADD21R,0.01800X0.02300*%
%ADD22C,0.02000*%
%ADD23R,0.01000X0.02000*%
%ADD24R,0.01181X0.06299*%
%ADD25R,0.02362X0.03543*%
D10*
X0099616Y0084753D02*
X0099616Y0087853D01*
X0101338Y0087853D02*
X0099616Y0084753D01*
X0101338Y0084753D02*
X0101338Y0087853D01*
X0103336Y0086992D02*
X0103336Y0085614D01*
X0103338Y0085556D01*
X0103344Y0085499D01*
X0103353Y0085443D01*
X0103367Y0085387D01*
X0103384Y0085332D01*
X0103404Y0085278D01*
X0103429Y0085226D01*
X0103456Y0085175D01*
X0103487Y0085127D01*
X0103521Y0085080D01*
X0103558Y0085036D01*
X0103598Y0084995D01*
X0103641Y0084956D01*
X0103686Y0084921D01*
X0103734Y0084888D01*
X0103783Y0084859D01*
X0103835Y0084833D01*
X0103888Y0084811D01*
X0103942Y0084792D01*
X0103997Y0084776D01*
X0104054Y0084765D01*
X0104111Y0084757D01*
X0104168Y0084753D01*
X0104226Y0084753D01*
X0104283Y0084757D01*
X0104340Y0084765D01*
X0104397Y0084776D01*
X0104452Y0084792D01*
X0104506Y0084811D01*
X0104559Y0084833D01*
X0104611Y0084859D01*
X0104660Y0084888D01*
X0104708Y0084921D01*
X0104753Y0084956D01*
X0104796Y0084995D01*
X0104836Y0085036D01*
X0104873Y0085080D01*
X0104907Y0085127D01*
X0104938Y0085175D01*
X0104965Y0085226D01*
X0104990Y0085278D01*
X0105010Y0085332D01*
X0105027Y0085387D01*
X0105041Y0085443D01*
X0105050Y0085499D01*
X0105056Y0085556D01*
X0105058Y0085614D01*
X0105058Y0086992D01*
X0105056Y0087050D01*
X0105050Y0087107D01*
X0105041Y0087163D01*
X0105027Y0087219D01*
X0105010Y0087274D01*
X0104990Y0087328D01*
X0104965Y0087380D01*
X0104938Y0087431D01*
X0104907Y0087479D01*
X0104873Y0087526D01*
X0104836Y0087570D01*
X0104796Y0087611D01*
X0104753Y0087650D01*
X0104708Y0087685D01*
X0104660Y0087718D01*
X0104611Y0087747D01*
X0104559Y0087773D01*
X0104506Y0087795D01*
X0104452Y0087814D01*
X0104397Y0087830D01*
X0104340Y0087841D01*
X0104283Y0087849D01*
X0104226Y0087853D01*
X0104168Y0087853D01*
X0104111Y0087849D01*
X0104054Y0087841D01*
X0103997Y0087830D01*
X0103942Y0087814D01*
X0103888Y0087795D01*
X0103835Y0087773D01*
X0103783Y0087747D01*
X0103734Y0087718D01*
X0103686Y0087685D01*
X0103641Y0087650D01*
X0103598Y0087611D01*
X0103558Y0087570D01*
X0103521Y0087526D01*
X0103487Y0087479D01*
X0103456Y0087431D01*
X0103429Y0087380D01*
X0103404Y0087328D01*
X0103384Y0087274D01*
X0103367Y0087219D01*
X0103353Y0087163D01*
X0103344Y0087107D01*
X0103338Y0087050D01*
X0103336Y0086992D01*
X0107004Y0086475D02*
X0109070Y0086475D01*
X0109070Y0085442D02*
X0107004Y0085442D01*
X0110816Y0084753D02*
X0110988Y0084753D01*
X0111031Y0084755D01*
X0111073Y0084760D01*
X0111115Y0084769D01*
X0111156Y0084781D01*
X0111196Y0084797D01*
X0111234Y0084815D01*
X0111271Y0084837D01*
X0111306Y0084862D01*
X0111338Y0084890D01*
X0111368Y0084920D01*
X0111396Y0084952D01*
X0111421Y0084987D01*
X0111443Y0085024D01*
X0111461Y0085062D01*
X0111477Y0085102D01*
X0111489Y0085143D01*
X0111498Y0085185D01*
X0111503Y0085227D01*
X0111505Y0085270D01*
X0111505Y0087853D01*
X0111849Y0086820D02*
X0110816Y0086820D01*
X0112813Y0086820D02*
X0112813Y0086475D01*
X0112813Y0086820D02*
X0113846Y0086820D01*
X0113846Y0084753D01*
X0115748Y0085442D02*
X0115748Y0086131D01*
X0115750Y0086182D01*
X0115756Y0086234D01*
X0115765Y0086284D01*
X0115779Y0086334D01*
X0115796Y0086383D01*
X0115816Y0086430D01*
X0115840Y0086476D01*
X0115868Y0086519D01*
X0115898Y0086561D01*
X0115932Y0086600D01*
X0115968Y0086636D01*
X0116007Y0086670D01*
X0116049Y0086700D01*
X0116093Y0086728D01*
X0116138Y0086752D01*
X0116185Y0086772D01*
X0116234Y0086789D01*
X0116284Y0086803D01*
X0116334Y0086812D01*
X0116386Y0086818D01*
X0116437Y0086820D01*
X0116488Y0086818D01*
X0116540Y0086812D01*
X0116590Y0086803D01*
X0116640Y0086789D01*
X0116689Y0086772D01*
X0116736Y0086752D01*
X0116782Y0086728D01*
X0116825Y0086700D01*
X0116867Y0086670D01*
X0116906Y0086636D01*
X0116942Y0086600D01*
X0116976Y0086561D01*
X0117006Y0086519D01*
X0117034Y0086476D01*
X0117058Y0086430D01*
X0117078Y0086383D01*
X0117095Y0086334D01*
X0117109Y0086284D01*
X0117118Y0086234D01*
X0117124Y0086182D01*
X0117126Y0086131D01*
X0117126Y0085442D01*
X0117124Y0085391D01*
X0117118Y0085339D01*
X0117109Y0085289D01*
X0117095Y0085239D01*
X0117078Y0085190D01*
X0117058Y0085143D01*
X0117034Y0085098D01*
X0117006Y0085054D01*
X0116976Y0085012D01*
X0116942Y0084973D01*
X0116906Y0084937D01*
X0116867Y0084903D01*
X0116825Y0084873D01*
X0116782Y0084845D01*
X0116736Y0084821D01*
X0116689Y0084801D01*
X0116640Y0084784D01*
X0116590Y0084770D01*
X0116540Y0084761D01*
X0116488Y0084755D01*
X0116437Y0084753D01*
X0116386Y0084755D01*
X0116334Y0084761D01*
X0116284Y0084770D01*
X0116234Y0084784D01*
X0116185Y0084801D01*
X0116138Y0084821D01*
X0116093Y0084845D01*
X0116049Y0084873D01*
X0116007Y0084903D01*
X0115968Y0084937D01*
X0115932Y0084973D01*
X0115898Y0085012D01*
X0115868Y0085054D01*
X0115840Y0085098D01*
X0115816Y0085143D01*
X0115796Y0085190D01*
X0115779Y0085239D01*
X0115765Y0085289D01*
X0115756Y0085339D01*
X0115750Y0085391D01*
X0115748Y0085442D01*
X0118988Y0084753D02*
X0118988Y0086303D01*
X0118990Y0086346D01*
X0118995Y0086388D01*
X0119004Y0086430D01*
X0119016Y0086471D01*
X0119032Y0086511D01*
X0119050Y0086549D01*
X0119072Y0086586D01*
X0119097Y0086621D01*
X0119125Y0086653D01*
X0119155Y0086683D01*
X0119187Y0086711D01*
X0119222Y0086736D01*
X0119259Y0086758D01*
X0119297Y0086776D01*
X0119337Y0086792D01*
X0119378Y0086804D01*
X0119420Y0086813D01*
X0119462Y0086818D01*
X0119505Y0086820D01*
X0120366Y0086820D01*
X0120366Y0087853D02*
X0120366Y0084753D01*
X0122520Y0086045D02*
X0123467Y0086561D01*
X0123123Y0087854D02*
X0123054Y0087852D01*
X0122985Y0087847D01*
X0122916Y0087837D01*
X0122848Y0087824D01*
X0122781Y0087808D01*
X0122714Y0087788D01*
X0122649Y0087764D01*
X0122586Y0087737D01*
X0122523Y0087706D01*
X0122463Y0087673D01*
X0122404Y0087636D01*
X0122348Y0087596D01*
X0123467Y0086561D02*
X0123511Y0086589D01*
X0123553Y0086620D01*
X0123592Y0086654D01*
X0123628Y0086691D01*
X0123662Y0086731D01*
X0123692Y0086773D01*
X0123720Y0086817D01*
X0123744Y0086863D01*
X0123764Y0086910D01*
X0123781Y0086959D01*
X0123795Y0087010D01*
X0123804Y0087061D01*
X0123810Y0087112D01*
X0123812Y0087164D01*
X0123810Y0087215D01*
X0123804Y0087267D01*
X0123795Y0087317D01*
X0123781Y0087367D01*
X0123764Y0087416D01*
X0123744Y0087463D01*
X0123720Y0087509D01*
X0123692Y0087552D01*
X0123662Y0087594D01*
X0123628Y0087633D01*
X0123592Y0087669D01*
X0123553Y0087703D01*
X0123511Y0087733D01*
X0123468Y0087761D01*
X0123422Y0087785D01*
X0123375Y0087805D01*
X0123326Y0087822D01*
X0123276Y0087836D01*
X0123226Y0087845D01*
X0123174Y0087851D01*
X0123123Y0087853D01*
X0123898Y0085183D02*
X0123846Y0085134D01*
X0123792Y0085087D01*
X0123736Y0085042D01*
X0123677Y0085001D01*
X0123617Y0084962D01*
X0123554Y0084927D01*
X0123490Y0084894D01*
X0123425Y0084865D01*
X0123358Y0084839D01*
X0123290Y0084816D01*
X0123220Y0084797D01*
X0123150Y0084781D01*
X0123080Y0084769D01*
X0123008Y0084760D01*
X0122937Y0084755D01*
X0122865Y0084753D01*
X0122814Y0084755D01*
X0122762Y0084761D01*
X0122712Y0084770D01*
X0122662Y0084784D01*
X0122613Y0084801D01*
X0122566Y0084821D01*
X0122521Y0084845D01*
X0122477Y0084873D01*
X0122435Y0084903D01*
X0122396Y0084937D01*
X0122360Y0084973D01*
X0122326Y0085012D01*
X0122296Y0085054D01*
X0122268Y0085097D01*
X0122244Y0085143D01*
X0122224Y0085190D01*
X0122207Y0085239D01*
X0122193Y0085289D01*
X0122184Y0085339D01*
X0122178Y0085391D01*
X0122176Y0085442D01*
X0122175Y0085442D02*
X0122177Y0085494D01*
X0122183Y0085545D01*
X0122192Y0085596D01*
X0122206Y0085647D01*
X0122223Y0085696D01*
X0122243Y0085743D01*
X0122267Y0085789D01*
X0122295Y0085833D01*
X0122325Y0085875D01*
X0122359Y0085915D01*
X0122395Y0085952D01*
X0122434Y0085986D01*
X0122476Y0086017D01*
X0122520Y0086045D01*
X0131491Y0085356D02*
X0131491Y0087079D01*
X0131491Y0085356D02*
X0133213Y0086820D01*
X0134591Y0086304D02*
X0134589Y0086244D01*
X0134584Y0086185D01*
X0134575Y0086126D01*
X0134563Y0086068D01*
X0134547Y0086010D01*
X0134527Y0085954D01*
X0134505Y0085899D01*
X0134479Y0085845D01*
X0134450Y0085793D01*
X0134418Y0085743D01*
X0134383Y0085694D01*
X0134345Y0085648D01*
X0134304Y0085605D01*
X0134261Y0085563D01*
X0134215Y0085525D01*
X0134168Y0085489D01*
X0134118Y0085456D01*
X0134066Y0085427D01*
X0134013Y0085400D01*
X0133958Y0085377D01*
X0133902Y0085356D01*
X0133214Y0086820D02*
X0133254Y0086859D01*
X0133296Y0086896D01*
X0133341Y0086929D01*
X0133388Y0086960D01*
X0133437Y0086987D01*
X0133488Y0087011D01*
X0133541Y0087031D01*
X0133594Y0087048D01*
X0133649Y0087061D01*
X0133704Y0087070D01*
X0133760Y0087076D01*
X0133816Y0087078D01*
X0133816Y0087079D02*
X0133871Y0087077D01*
X0133926Y0087071D01*
X0133981Y0087061D01*
X0134034Y0087048D01*
X0134087Y0087030D01*
X0134138Y0087009D01*
X0134187Y0086984D01*
X0134235Y0086956D01*
X0134280Y0086924D01*
X0134324Y0086890D01*
X0134364Y0086852D01*
X0134402Y0086812D01*
X0134436Y0086768D01*
X0134468Y0086723D01*
X0134496Y0086675D01*
X0134521Y0086626D01*
X0134542Y0086575D01*
X0134560Y0086522D01*
X0134573Y0086469D01*
X0134583Y0086414D01*
X0134589Y0086359D01*
X0134591Y0086304D01*
X0134591Y0082839D02*
X0134591Y0081978D01*
X0131491Y0081978D01*
X0132869Y0081978D02*
X0132869Y0082839D01*
X0132871Y0082897D01*
X0132877Y0082954D01*
X0132886Y0083010D01*
X0132900Y0083066D01*
X0132917Y0083121D01*
X0132937Y0083175D01*
X0132962Y0083227D01*
X0132989Y0083278D01*
X0133020Y0083326D01*
X0133054Y0083373D01*
X0133091Y0083417D01*
X0133131Y0083458D01*
X0133174Y0083497D01*
X0133219Y0083532D01*
X0133267Y0083565D01*
X0133316Y0083594D01*
X0133368Y0083620D01*
X0133421Y0083642D01*
X0133475Y0083661D01*
X0133530Y0083677D01*
X0133587Y0083688D01*
X0133644Y0083696D01*
X0133701Y0083700D01*
X0133759Y0083700D01*
X0133816Y0083696D01*
X0133873Y0083688D01*
X0133930Y0083677D01*
X0133985Y0083661D01*
X0134039Y0083642D01*
X0134092Y0083620D01*
X0134144Y0083594D01*
X0134193Y0083565D01*
X0134241Y0083532D01*
X0134286Y0083497D01*
X0134329Y0083458D01*
X0134369Y0083417D01*
X0134406Y0083373D01*
X0134440Y0083326D01*
X0134471Y0083278D01*
X0134498Y0083227D01*
X0134523Y0083175D01*
X0134543Y0083121D01*
X0134560Y0083066D01*
X0134574Y0083010D01*
X0134583Y0082954D01*
X0134589Y0082897D01*
X0134591Y0082839D01*
X0134591Y0079786D02*
X0132180Y0079786D01*
X0132180Y0079787D02*
X0132129Y0079785D01*
X0132077Y0079779D01*
X0132027Y0079770D01*
X0131977Y0079756D01*
X0131928Y0079739D01*
X0131881Y0079719D01*
X0131836Y0079695D01*
X0131792Y0079667D01*
X0131750Y0079637D01*
X0131711Y0079603D01*
X0131675Y0079567D01*
X0131641Y0079528D01*
X0131611Y0079486D01*
X0131583Y0079443D01*
X0131559Y0079397D01*
X0131539Y0079350D01*
X0131522Y0079301D01*
X0131508Y0079251D01*
X0131499Y0079201D01*
X0131493Y0079149D01*
X0131491Y0079098D01*
X0131491Y0078753D01*
X0122416Y0107976D02*
X0122319Y0107974D01*
X0122223Y0107969D01*
X0122127Y0107960D01*
X0122031Y0107947D01*
X0121936Y0107931D01*
X0121841Y0107911D01*
X0121748Y0107887D01*
X0121655Y0107860D01*
X0121563Y0107830D01*
X0121473Y0107796D01*
X0121384Y0107758D01*
X0121296Y0107718D01*
X0121296Y0107717D02*
X0121250Y0107699D01*
X0121206Y0107677D01*
X0121163Y0107653D01*
X0121122Y0107625D01*
X0121084Y0107594D01*
X0121048Y0107560D01*
X0121015Y0107523D01*
X0120985Y0107484D01*
X0120958Y0107443D01*
X0120934Y0107400D01*
X0120913Y0107355D01*
X0120896Y0107308D01*
X0120883Y0107261D01*
X0120874Y0107212D01*
X0120868Y0107163D01*
X0120866Y0107114D01*
X0120868Y0107065D01*
X0120874Y0107016D01*
X0120883Y0106967D01*
X0120896Y0106920D01*
X0120913Y0106873D01*
X0120934Y0106828D01*
X0120958Y0106785D01*
X0120985Y0106744D01*
X0121015Y0106705D01*
X0121048Y0106668D01*
X0121084Y0106634D01*
X0121122Y0106603D01*
X0121163Y0106575D01*
X0121206Y0106551D01*
X0121250Y0106529D01*
X0121296Y0106511D01*
X0121555Y0106425D02*
X0123277Y0107803D01*
X0123536Y0107717D02*
X0123582Y0107699D01*
X0123626Y0107677D01*
X0123669Y0107653D01*
X0123710Y0107625D01*
X0123748Y0107594D01*
X0123784Y0107560D01*
X0123817Y0107523D01*
X0123847Y0107484D01*
X0123874Y0107443D01*
X0123898Y0107400D01*
X0123919Y0107355D01*
X0123936Y0107308D01*
X0123949Y0107261D01*
X0123958Y0107212D01*
X0123964Y0107163D01*
X0123966Y0107114D01*
X0123964Y0107065D01*
X0123958Y0107016D01*
X0123949Y0106967D01*
X0123936Y0106920D01*
X0123919Y0106873D01*
X0123898Y0106828D01*
X0123874Y0106785D01*
X0123847Y0106744D01*
X0123817Y0106705D01*
X0123784Y0106668D01*
X0123748Y0106634D01*
X0123710Y0106603D01*
X0123669Y0106575D01*
X0123626Y0106551D01*
X0123582Y0106529D01*
X0123536Y0106511D01*
X0123536Y0107718D02*
X0123448Y0107758D01*
X0123359Y0107796D01*
X0123269Y0107830D01*
X0123177Y0107860D01*
X0123084Y0107887D01*
X0122991Y0107911D01*
X0122896Y0107930D01*
X0122801Y0107947D01*
X0122705Y0107960D01*
X0122609Y0107969D01*
X0122513Y0107974D01*
X0122416Y0107976D01*
X0122416Y0106253D02*
X0122513Y0106255D01*
X0122609Y0106260D01*
X0122705Y0106269D01*
X0122801Y0106282D01*
X0122896Y0106298D01*
X0122991Y0106318D01*
X0123084Y0106342D01*
X0123177Y0106369D01*
X0123269Y0106399D01*
X0123359Y0106433D01*
X0123448Y0106471D01*
X0123536Y0106511D01*
X0122416Y0106253D02*
X0122319Y0106255D01*
X0122223Y0106260D01*
X0122127Y0106269D01*
X0122031Y0106282D01*
X0121936Y0106298D01*
X0121841Y0106318D01*
X0121748Y0106342D01*
X0121655Y0106369D01*
X0121563Y0106399D01*
X0121473Y0106433D01*
X0121384Y0106471D01*
X0121296Y0106511D01*
X0121038Y0109548D02*
X0121038Y0109720D01*
X0120866Y0109720D01*
X0120866Y0109548D01*
X0121038Y0109548D01*
X0120866Y0111293D02*
X0120866Y0113015D01*
X0120866Y0112154D02*
X0123966Y0112154D01*
X0123277Y0111293D01*
X0126491Y0110995D02*
X0126491Y0109273D01*
X0126491Y0110134D02*
X0129591Y0110134D01*
X0128902Y0109273D01*
X0129591Y0107631D02*
X0129591Y0106942D01*
X0129589Y0106891D01*
X0129583Y0106839D01*
X0129574Y0106789D01*
X0129560Y0106739D01*
X0129543Y0106690D01*
X0129523Y0106643D01*
X0129499Y0106598D01*
X0129471Y0106554D01*
X0129441Y0106512D01*
X0129407Y0106473D01*
X0129371Y0106437D01*
X0129332Y0106403D01*
X0129290Y0106373D01*
X0129247Y0106345D01*
X0129201Y0106321D01*
X0129154Y0106301D01*
X0129105Y0106284D01*
X0129055Y0106270D01*
X0129005Y0106261D01*
X0128953Y0106255D01*
X0128902Y0106253D01*
X0127180Y0106253D01*
X0127129Y0106255D01*
X0127077Y0106261D01*
X0127027Y0106270D01*
X0126977Y0106284D01*
X0126928Y0106301D01*
X0126881Y0106321D01*
X0126836Y0106345D01*
X0126792Y0106373D01*
X0126750Y0106403D01*
X0126711Y0106437D01*
X0126675Y0106473D01*
X0126641Y0106512D01*
X0126611Y0106554D01*
X0126583Y0106598D01*
X0126559Y0106643D01*
X0126539Y0106690D01*
X0126522Y0106739D01*
X0126508Y0106789D01*
X0126499Y0106839D01*
X0126493Y0106891D01*
X0126491Y0106942D01*
X0126491Y0107631D01*
X0122933Y0114945D02*
X0121383Y0114945D01*
X0121340Y0114947D01*
X0121298Y0114952D01*
X0121256Y0114961D01*
X0121215Y0114973D01*
X0121175Y0114989D01*
X0121137Y0115007D01*
X0121100Y0115029D01*
X0121065Y0115054D01*
X0121033Y0115082D01*
X0121003Y0115112D01*
X0120975Y0115144D01*
X0120950Y0115179D01*
X0120928Y0115216D01*
X0120910Y0115254D01*
X0120894Y0115294D01*
X0120882Y0115335D01*
X0120873Y0115377D01*
X0120868Y0115419D01*
X0120866Y0115462D01*
X0120866Y0116323D01*
X0122933Y0116323D01*
X0122588Y0118387D02*
X0122588Y0119764D01*
X0123966Y0119764D02*
X0123966Y0118387D01*
X0120866Y0118387D01*
X0171210Y0084103D02*
X0171282Y0084101D01*
X0171354Y0084095D01*
X0171426Y0084086D01*
X0171497Y0084073D01*
X0171567Y0084056D01*
X0171636Y0084036D01*
X0171704Y0084011D01*
X0171770Y0083984D01*
X0171836Y0083953D01*
X0171899Y0083918D01*
X0171961Y0083881D01*
X0172020Y0083840D01*
X0172077Y0083796D01*
X0172132Y0083749D01*
X0172184Y0083699D01*
X0172234Y0083647D01*
X0172281Y0083592D01*
X0172325Y0083535D01*
X0172366Y0083476D01*
X0172403Y0083414D01*
X0172438Y0083351D01*
X0172469Y0083285D01*
X0172496Y0083219D01*
X0172521Y0083151D01*
X0172541Y0083082D01*
X0172558Y0083011D01*
X0172571Y0082941D01*
X0172580Y0082869D01*
X0172586Y0082797D01*
X0172588Y0082725D01*
X0172588Y0081864D01*
X0172586Y0081806D01*
X0172580Y0081749D01*
X0172571Y0081693D01*
X0172557Y0081637D01*
X0172540Y0081582D01*
X0172520Y0081528D01*
X0172495Y0081476D01*
X0172468Y0081425D01*
X0172437Y0081377D01*
X0172403Y0081330D01*
X0172366Y0081286D01*
X0172326Y0081245D01*
X0172283Y0081206D01*
X0172238Y0081171D01*
X0172190Y0081138D01*
X0172141Y0081109D01*
X0172089Y0081083D01*
X0172036Y0081061D01*
X0171982Y0081042D01*
X0171927Y0081026D01*
X0171870Y0081015D01*
X0171813Y0081007D01*
X0171756Y0081003D01*
X0171698Y0081003D01*
X0171641Y0081007D01*
X0171584Y0081015D01*
X0171527Y0081026D01*
X0171472Y0081042D01*
X0171418Y0081061D01*
X0171365Y0081083D01*
X0171313Y0081109D01*
X0171264Y0081138D01*
X0171216Y0081171D01*
X0171171Y0081206D01*
X0171128Y0081245D01*
X0171088Y0081286D01*
X0171051Y0081330D01*
X0171017Y0081377D01*
X0170986Y0081425D01*
X0170959Y0081476D01*
X0170934Y0081528D01*
X0170914Y0081582D01*
X0170897Y0081637D01*
X0170883Y0081693D01*
X0170874Y0081749D01*
X0170868Y0081806D01*
X0170866Y0081864D01*
X0170866Y0082036D01*
X0170868Y0082088D01*
X0170874Y0082139D01*
X0170883Y0082189D01*
X0170897Y0082239D01*
X0170914Y0082288D01*
X0170934Y0082335D01*
X0170958Y0082381D01*
X0170986Y0082424D01*
X0171016Y0082466D01*
X0171050Y0082505D01*
X0171086Y0082541D01*
X0171125Y0082575D01*
X0171167Y0082605D01*
X0171211Y0082633D01*
X0171256Y0082657D01*
X0171303Y0082677D01*
X0171352Y0082694D01*
X0171402Y0082708D01*
X0171452Y0082717D01*
X0171504Y0082723D01*
X0171555Y0082725D01*
X0172588Y0082725D01*
X0175105Y0082381D02*
X0175966Y0082381D01*
X0175105Y0082381D02*
X0175047Y0082383D01*
X0174990Y0082389D01*
X0174934Y0082398D01*
X0174878Y0082412D01*
X0174823Y0082429D01*
X0174769Y0082449D01*
X0174717Y0082474D01*
X0174666Y0082501D01*
X0174618Y0082532D01*
X0174571Y0082566D01*
X0174527Y0082603D01*
X0174486Y0082643D01*
X0174447Y0082686D01*
X0174412Y0082731D01*
X0174379Y0082779D01*
X0174350Y0082828D01*
X0174324Y0082880D01*
X0174302Y0082933D01*
X0174283Y0082987D01*
X0174267Y0083042D01*
X0174256Y0083099D01*
X0174248Y0083156D01*
X0174244Y0083213D01*
X0174244Y0083271D01*
X0174248Y0083328D01*
X0174256Y0083385D01*
X0174267Y0083442D01*
X0174283Y0083497D01*
X0174302Y0083551D01*
X0174324Y0083604D01*
X0174350Y0083656D01*
X0174379Y0083705D01*
X0174412Y0083753D01*
X0174447Y0083798D01*
X0174486Y0083841D01*
X0174527Y0083881D01*
X0174571Y0083918D01*
X0174618Y0083952D01*
X0174666Y0083983D01*
X0174717Y0084010D01*
X0174769Y0084035D01*
X0174823Y0084055D01*
X0174878Y0084072D01*
X0174934Y0084086D01*
X0174990Y0084095D01*
X0175047Y0084101D01*
X0175105Y0084103D01*
X0175966Y0084103D01*
X0175966Y0081003D01*
X0178158Y0081692D02*
X0178158Y0084103D01*
X0178158Y0081692D02*
X0178160Y0081641D01*
X0178166Y0081589D01*
X0178175Y0081539D01*
X0178189Y0081489D01*
X0178206Y0081440D01*
X0178226Y0081393D01*
X0178250Y0081347D01*
X0178278Y0081304D01*
X0178308Y0081262D01*
X0178342Y0081223D01*
X0178378Y0081187D01*
X0178417Y0081153D01*
X0178459Y0081123D01*
X0178503Y0081095D01*
X0178548Y0081071D01*
X0178595Y0081051D01*
X0178644Y0081034D01*
X0178694Y0081020D01*
X0178744Y0081011D01*
X0178796Y0081005D01*
X0178847Y0081003D01*
X0179191Y0081003D01*
X0191748Y0080090D02*
X0194848Y0081124D01*
X0194848Y0082993D02*
X0191748Y0082993D01*
X0193126Y0082993D02*
X0193126Y0083855D01*
X0193126Y0084027D02*
X0191748Y0084716D01*
X0191748Y0086549D02*
X0191748Y0088271D01*
X0191748Y0087410D02*
X0194848Y0087410D01*
X0194159Y0086549D01*
X0194848Y0083855D02*
X0194846Y0083913D01*
X0194840Y0083970D01*
X0194831Y0084026D01*
X0194817Y0084082D01*
X0194800Y0084137D01*
X0194780Y0084191D01*
X0194755Y0084243D01*
X0194728Y0084294D01*
X0194697Y0084342D01*
X0194663Y0084389D01*
X0194626Y0084433D01*
X0194586Y0084474D01*
X0194543Y0084513D01*
X0194498Y0084548D01*
X0194450Y0084581D01*
X0194401Y0084610D01*
X0194349Y0084636D01*
X0194296Y0084658D01*
X0194242Y0084677D01*
X0194187Y0084693D01*
X0194130Y0084704D01*
X0194073Y0084712D01*
X0194016Y0084716D01*
X0193958Y0084716D01*
X0193901Y0084712D01*
X0193844Y0084704D01*
X0193787Y0084693D01*
X0193732Y0084677D01*
X0193678Y0084658D01*
X0193625Y0084636D01*
X0193573Y0084610D01*
X0193524Y0084581D01*
X0193476Y0084548D01*
X0193431Y0084513D01*
X0193388Y0084474D01*
X0193348Y0084433D01*
X0193311Y0084389D01*
X0193277Y0084342D01*
X0193246Y0084294D01*
X0193219Y0084243D01*
X0193194Y0084191D01*
X0193174Y0084137D01*
X0193157Y0084082D01*
X0193143Y0084026D01*
X0193134Y0083970D01*
X0193128Y0083913D01*
X0193126Y0083855D01*
X0194848Y0083855D02*
X0194848Y0082993D01*
X0194848Y0079057D02*
X0191748Y0080090D01*
X0210849Y0110003D02*
X0212571Y0110003D01*
X0211107Y0111725D01*
X0211624Y0113103D02*
X0211684Y0113101D01*
X0211743Y0113096D01*
X0211802Y0113087D01*
X0211860Y0113075D01*
X0211918Y0113059D01*
X0211974Y0113039D01*
X0212029Y0113017D01*
X0212083Y0112991D01*
X0212135Y0112962D01*
X0212185Y0112930D01*
X0212234Y0112895D01*
X0212280Y0112857D01*
X0212323Y0112816D01*
X0212365Y0112773D01*
X0212403Y0112727D01*
X0212439Y0112680D01*
X0212472Y0112630D01*
X0212501Y0112578D01*
X0212528Y0112525D01*
X0212551Y0112470D01*
X0212572Y0112414D01*
X0211107Y0111726D02*
X0211068Y0111766D01*
X0211031Y0111808D01*
X0210998Y0111853D01*
X0210967Y0111900D01*
X0210940Y0111949D01*
X0210916Y0112000D01*
X0210896Y0112053D01*
X0210879Y0112106D01*
X0210866Y0112161D01*
X0210857Y0112216D01*
X0210851Y0112272D01*
X0210849Y0112328D01*
X0210851Y0112383D01*
X0210857Y0112438D01*
X0210867Y0112493D01*
X0210880Y0112546D01*
X0210898Y0112599D01*
X0210919Y0112650D01*
X0210944Y0112699D01*
X0210972Y0112747D01*
X0211004Y0112792D01*
X0211038Y0112836D01*
X0211076Y0112876D01*
X0211116Y0112914D01*
X0211160Y0112948D01*
X0211205Y0112980D01*
X0211253Y0113008D01*
X0211302Y0113033D01*
X0211353Y0113054D01*
X0211406Y0113072D01*
X0211459Y0113085D01*
X0211514Y0113095D01*
X0211569Y0113101D01*
X0211624Y0113103D01*
X0214213Y0113103D02*
X0214902Y0113103D01*
X0214953Y0113101D01*
X0215005Y0113095D01*
X0215055Y0113086D01*
X0215105Y0113072D01*
X0215154Y0113055D01*
X0215201Y0113035D01*
X0215247Y0113011D01*
X0215290Y0112983D01*
X0215332Y0112953D01*
X0215371Y0112919D01*
X0215407Y0112883D01*
X0215441Y0112844D01*
X0215471Y0112802D01*
X0215499Y0112759D01*
X0215523Y0112713D01*
X0215543Y0112666D01*
X0215560Y0112617D01*
X0215574Y0112567D01*
X0215583Y0112517D01*
X0215589Y0112465D01*
X0215591Y0112414D01*
X0215591Y0110692D01*
X0215589Y0110641D01*
X0215583Y0110589D01*
X0215574Y0110539D01*
X0215560Y0110489D01*
X0215543Y0110440D01*
X0215523Y0110393D01*
X0215499Y0110348D01*
X0215471Y0110304D01*
X0215441Y0110262D01*
X0215407Y0110223D01*
X0215371Y0110187D01*
X0215332Y0110153D01*
X0215290Y0110123D01*
X0215247Y0110095D01*
X0215201Y0110071D01*
X0215154Y0110051D01*
X0215105Y0110034D01*
X0215055Y0110020D01*
X0215005Y0110011D01*
X0214953Y0110005D01*
X0214902Y0110003D01*
X0214213Y0110003D01*
X0219835Y0110003D02*
X0220696Y0110003D01*
X0219835Y0110003D02*
X0219777Y0110005D01*
X0219720Y0110011D01*
X0219664Y0110020D01*
X0219608Y0110034D01*
X0219553Y0110051D01*
X0219499Y0110071D01*
X0219447Y0110096D01*
X0219396Y0110123D01*
X0219348Y0110154D01*
X0219301Y0110188D01*
X0219257Y0110225D01*
X0219216Y0110265D01*
X0219177Y0110308D01*
X0219142Y0110353D01*
X0219109Y0110401D01*
X0219080Y0110450D01*
X0219054Y0110502D01*
X0219032Y0110555D01*
X0219013Y0110609D01*
X0218997Y0110664D01*
X0218986Y0110721D01*
X0218978Y0110778D01*
X0218974Y0110835D01*
X0218974Y0110893D01*
X0218978Y0110950D01*
X0218986Y0111007D01*
X0218997Y0111064D01*
X0219013Y0111119D01*
X0219032Y0111173D01*
X0219054Y0111226D01*
X0219080Y0111278D01*
X0219109Y0111327D01*
X0219142Y0111375D01*
X0219177Y0111420D01*
X0219216Y0111463D01*
X0219257Y0111503D01*
X0219301Y0111540D01*
X0219348Y0111574D01*
X0219396Y0111605D01*
X0219447Y0111632D01*
X0219499Y0111657D01*
X0219553Y0111677D01*
X0219608Y0111694D01*
X0219664Y0111708D01*
X0219720Y0111717D01*
X0219777Y0111723D01*
X0219835Y0111725D01*
X0219663Y0111725D02*
X0220352Y0111725D01*
X0219663Y0111725D02*
X0219612Y0111727D01*
X0219560Y0111733D01*
X0219510Y0111742D01*
X0219460Y0111756D01*
X0219411Y0111773D01*
X0219364Y0111793D01*
X0219319Y0111817D01*
X0219275Y0111845D01*
X0219233Y0111875D01*
X0219194Y0111909D01*
X0219158Y0111945D01*
X0219124Y0111984D01*
X0219094Y0112026D01*
X0219066Y0112070D01*
X0219042Y0112115D01*
X0219022Y0112162D01*
X0219005Y0112211D01*
X0218991Y0112261D01*
X0218982Y0112311D01*
X0218976Y0112363D01*
X0218974Y0112414D01*
X0218976Y0112465D01*
X0218982Y0112517D01*
X0218991Y0112567D01*
X0219005Y0112617D01*
X0219022Y0112666D01*
X0219042Y0112713D01*
X0219066Y0112759D01*
X0219094Y0112802D01*
X0219124Y0112844D01*
X0219158Y0112883D01*
X0219194Y0112919D01*
X0219233Y0112953D01*
X0219275Y0112983D01*
X0219319Y0113011D01*
X0219364Y0113035D01*
X0219411Y0113055D01*
X0219460Y0113072D01*
X0219510Y0113086D01*
X0219560Y0113095D01*
X0219612Y0113101D01*
X0219663Y0113103D01*
X0220696Y0113103D01*
X0222338Y0113103D02*
X0223027Y0113103D01*
X0223078Y0113101D01*
X0223130Y0113095D01*
X0223180Y0113086D01*
X0223230Y0113072D01*
X0223279Y0113055D01*
X0223326Y0113035D01*
X0223372Y0113011D01*
X0223415Y0112983D01*
X0223457Y0112953D01*
X0223496Y0112919D01*
X0223532Y0112883D01*
X0223566Y0112844D01*
X0223596Y0112802D01*
X0223624Y0112759D01*
X0223648Y0112713D01*
X0223668Y0112666D01*
X0223685Y0112617D01*
X0223699Y0112567D01*
X0223708Y0112517D01*
X0223714Y0112465D01*
X0223716Y0112414D01*
X0223716Y0110692D01*
X0223714Y0110641D01*
X0223708Y0110589D01*
X0223699Y0110539D01*
X0223685Y0110489D01*
X0223668Y0110440D01*
X0223648Y0110393D01*
X0223624Y0110348D01*
X0223596Y0110304D01*
X0223566Y0110262D01*
X0223532Y0110223D01*
X0223496Y0110187D01*
X0223457Y0110153D01*
X0223415Y0110123D01*
X0223372Y0110095D01*
X0223326Y0110071D01*
X0223279Y0110051D01*
X0223230Y0110034D01*
X0223180Y0110020D01*
X0223130Y0110011D01*
X0223078Y0110005D01*
X0223027Y0110003D01*
X0222338Y0110003D01*
X0238583Y0098866D02*
X0241683Y0098866D01*
X0241683Y0099727D01*
X0241681Y0099770D01*
X0241676Y0099812D01*
X0241667Y0099854D01*
X0241655Y0099895D01*
X0241639Y0099935D01*
X0241621Y0099973D01*
X0241599Y0100010D01*
X0241574Y0100045D01*
X0241546Y0100077D01*
X0241516Y0100107D01*
X0241484Y0100135D01*
X0241449Y0100160D01*
X0241412Y0100182D01*
X0241374Y0100200D01*
X0241334Y0100216D01*
X0241293Y0100228D01*
X0241251Y0100237D01*
X0241209Y0100242D01*
X0241166Y0100244D01*
X0241166Y0100243D02*
X0240133Y0100243D01*
X0240133Y0100244D02*
X0240090Y0100242D01*
X0240048Y0100237D01*
X0240006Y0100228D01*
X0239965Y0100216D01*
X0239925Y0100200D01*
X0239887Y0100182D01*
X0239850Y0100160D01*
X0239815Y0100135D01*
X0239783Y0100107D01*
X0239753Y0100077D01*
X0239725Y0100045D01*
X0239700Y0100010D01*
X0239678Y0099973D01*
X0239660Y0099935D01*
X0239644Y0099895D01*
X0239632Y0099854D01*
X0239623Y0099812D01*
X0239618Y0099770D01*
X0239616Y0099727D01*
X0239616Y0098866D01*
X0240046Y0095436D02*
X0240134Y0095396D01*
X0240223Y0095358D01*
X0240313Y0095324D01*
X0240405Y0095294D01*
X0240498Y0095267D01*
X0240591Y0095243D01*
X0240686Y0095223D01*
X0240781Y0095207D01*
X0240877Y0095194D01*
X0240973Y0095185D01*
X0241069Y0095180D01*
X0241166Y0095178D01*
X0241166Y0096901D02*
X0241263Y0096899D01*
X0241359Y0096894D01*
X0241455Y0096885D01*
X0241551Y0096872D01*
X0241646Y0096855D01*
X0241741Y0096836D01*
X0241834Y0096812D01*
X0241927Y0096785D01*
X0242019Y0096755D01*
X0242109Y0096721D01*
X0242198Y0096683D01*
X0242286Y0096643D01*
X0242027Y0096728D02*
X0240305Y0095350D01*
X0239616Y0096039D02*
X0239618Y0096088D01*
X0239624Y0096137D01*
X0239633Y0096186D01*
X0239646Y0096233D01*
X0239663Y0096280D01*
X0239684Y0096325D01*
X0239708Y0096368D01*
X0239735Y0096409D01*
X0239765Y0096448D01*
X0239798Y0096485D01*
X0239834Y0096519D01*
X0239872Y0096550D01*
X0239913Y0096578D01*
X0239956Y0096602D01*
X0240000Y0096624D01*
X0240046Y0096642D01*
X0239616Y0096039D02*
X0239618Y0095990D01*
X0239624Y0095941D01*
X0239633Y0095892D01*
X0239646Y0095845D01*
X0239663Y0095798D01*
X0239684Y0095753D01*
X0239708Y0095710D01*
X0239735Y0095669D01*
X0239765Y0095630D01*
X0239798Y0095593D01*
X0239834Y0095559D01*
X0239872Y0095528D01*
X0239913Y0095500D01*
X0239956Y0095476D01*
X0240000Y0095454D01*
X0240046Y0095436D01*
X0240046Y0096643D02*
X0240134Y0096683D01*
X0240223Y0096721D01*
X0240313Y0096755D01*
X0240405Y0096785D01*
X0240498Y0096812D01*
X0240591Y0096836D01*
X0240686Y0096856D01*
X0240781Y0096872D01*
X0240877Y0096885D01*
X0240973Y0096894D01*
X0241069Y0096899D01*
X0241166Y0096901D01*
X0241166Y0095178D02*
X0241263Y0095180D01*
X0241359Y0095185D01*
X0241455Y0095194D01*
X0241551Y0095207D01*
X0241646Y0095223D01*
X0241741Y0095243D01*
X0241834Y0095267D01*
X0241927Y0095294D01*
X0242019Y0095324D01*
X0242109Y0095358D01*
X0242198Y0095396D01*
X0242286Y0095436D01*
X0242716Y0096039D02*
X0242714Y0096088D01*
X0242708Y0096137D01*
X0242699Y0096186D01*
X0242686Y0096233D01*
X0242669Y0096280D01*
X0242648Y0096325D01*
X0242624Y0096368D01*
X0242597Y0096409D01*
X0242567Y0096448D01*
X0242534Y0096485D01*
X0242498Y0096519D01*
X0242460Y0096550D01*
X0242419Y0096578D01*
X0242376Y0096602D01*
X0242332Y0096624D01*
X0242286Y0096642D01*
X0242716Y0096039D02*
X0242714Y0095990D01*
X0242708Y0095941D01*
X0242699Y0095892D01*
X0242686Y0095845D01*
X0242669Y0095798D01*
X0242648Y0095753D01*
X0242624Y0095710D01*
X0242597Y0095669D01*
X0242567Y0095630D01*
X0242534Y0095593D01*
X0242498Y0095559D01*
X0242460Y0095528D01*
X0242419Y0095500D01*
X0242376Y0095476D01*
X0242332Y0095454D01*
X0242286Y0095436D01*
X0241166Y0091578D02*
X0241069Y0091580D01*
X0240973Y0091585D01*
X0240877Y0091594D01*
X0240781Y0091607D01*
X0240686Y0091623D01*
X0240591Y0091643D01*
X0240498Y0091667D01*
X0240405Y0091694D01*
X0240313Y0091724D01*
X0240223Y0091758D01*
X0240134Y0091796D01*
X0240046Y0091836D01*
X0240305Y0091750D02*
X0242027Y0093128D01*
X0242286Y0093042D02*
X0242332Y0093024D01*
X0242376Y0093002D01*
X0242419Y0092978D01*
X0242460Y0092950D01*
X0242498Y0092919D01*
X0242534Y0092885D01*
X0242567Y0092848D01*
X0242597Y0092809D01*
X0242624Y0092768D01*
X0242648Y0092725D01*
X0242669Y0092680D01*
X0242686Y0092633D01*
X0242699Y0092586D01*
X0242708Y0092537D01*
X0242714Y0092488D01*
X0242716Y0092439D01*
X0242714Y0092390D01*
X0242708Y0092341D01*
X0242699Y0092292D01*
X0242686Y0092245D01*
X0242669Y0092198D01*
X0242648Y0092153D01*
X0242624Y0092110D01*
X0242597Y0092069D01*
X0242567Y0092030D01*
X0242534Y0091993D01*
X0242498Y0091959D01*
X0242460Y0091928D01*
X0242419Y0091900D01*
X0242376Y0091876D01*
X0242332Y0091854D01*
X0242286Y0091836D01*
X0242286Y0093043D02*
X0242198Y0093083D01*
X0242109Y0093121D01*
X0242019Y0093155D01*
X0241927Y0093185D01*
X0241834Y0093212D01*
X0241741Y0093236D01*
X0241646Y0093255D01*
X0241551Y0093272D01*
X0241455Y0093285D01*
X0241359Y0093294D01*
X0241263Y0093299D01*
X0241166Y0093301D01*
X0241166Y0091578D02*
X0241263Y0091580D01*
X0241359Y0091585D01*
X0241455Y0091594D01*
X0241551Y0091607D01*
X0241646Y0091623D01*
X0241741Y0091643D01*
X0241834Y0091667D01*
X0241927Y0091694D01*
X0242019Y0091724D01*
X0242109Y0091758D01*
X0242198Y0091796D01*
X0242286Y0091836D01*
X0241166Y0093301D02*
X0241069Y0093299D01*
X0240973Y0093294D01*
X0240877Y0093285D01*
X0240781Y0093272D01*
X0240686Y0093256D01*
X0240591Y0093236D01*
X0240498Y0093212D01*
X0240405Y0093185D01*
X0240313Y0093155D01*
X0240223Y0093121D01*
X0240134Y0093083D01*
X0240046Y0093043D01*
X0240046Y0093042D02*
X0240000Y0093024D01*
X0239956Y0093002D01*
X0239913Y0092978D01*
X0239872Y0092950D01*
X0239834Y0092919D01*
X0239798Y0092885D01*
X0239765Y0092848D01*
X0239735Y0092809D01*
X0239708Y0092768D01*
X0239684Y0092725D01*
X0239663Y0092680D01*
X0239646Y0092633D01*
X0239633Y0092586D01*
X0239624Y0092537D01*
X0239618Y0092488D01*
X0239616Y0092439D01*
X0239618Y0092390D01*
X0239624Y0092341D01*
X0239633Y0092292D01*
X0239646Y0092245D01*
X0239663Y0092198D01*
X0239684Y0092153D01*
X0239708Y0092110D01*
X0239735Y0092069D01*
X0239765Y0092030D01*
X0239798Y0091993D01*
X0239834Y0091959D01*
X0239872Y0091928D01*
X0239913Y0091900D01*
X0239956Y0091876D01*
X0240000Y0091854D01*
X0240046Y0091836D01*
X0240046Y0088236D02*
X0240134Y0088196D01*
X0240223Y0088158D01*
X0240313Y0088124D01*
X0240405Y0088094D01*
X0240498Y0088067D01*
X0240591Y0088043D01*
X0240686Y0088023D01*
X0240781Y0088007D01*
X0240877Y0087994D01*
X0240973Y0087985D01*
X0241069Y0087980D01*
X0241166Y0087978D01*
X0241166Y0089701D02*
X0241263Y0089699D01*
X0241359Y0089694D01*
X0241455Y0089685D01*
X0241551Y0089672D01*
X0241646Y0089655D01*
X0241741Y0089636D01*
X0241834Y0089612D01*
X0241927Y0089585D01*
X0242019Y0089555D01*
X0242109Y0089521D01*
X0242198Y0089483D01*
X0242286Y0089443D01*
X0242027Y0089528D02*
X0240305Y0088150D01*
X0239616Y0088839D02*
X0239618Y0088888D01*
X0239624Y0088937D01*
X0239633Y0088986D01*
X0239646Y0089033D01*
X0239663Y0089080D01*
X0239684Y0089125D01*
X0239708Y0089168D01*
X0239735Y0089209D01*
X0239765Y0089248D01*
X0239798Y0089285D01*
X0239834Y0089319D01*
X0239872Y0089350D01*
X0239913Y0089378D01*
X0239956Y0089402D01*
X0240000Y0089424D01*
X0240046Y0089442D01*
X0239616Y0088839D02*
X0239618Y0088790D01*
X0239624Y0088741D01*
X0239633Y0088692D01*
X0239646Y0088645D01*
X0239663Y0088598D01*
X0239684Y0088553D01*
X0239708Y0088510D01*
X0239735Y0088469D01*
X0239765Y0088430D01*
X0239798Y0088393D01*
X0239834Y0088359D01*
X0239872Y0088328D01*
X0239913Y0088300D01*
X0239956Y0088276D01*
X0240000Y0088254D01*
X0240046Y0088236D01*
X0240046Y0089443D02*
X0240134Y0089483D01*
X0240223Y0089521D01*
X0240313Y0089555D01*
X0240405Y0089585D01*
X0240498Y0089612D01*
X0240591Y0089636D01*
X0240686Y0089656D01*
X0240781Y0089672D01*
X0240877Y0089685D01*
X0240973Y0089694D01*
X0241069Y0089699D01*
X0241166Y0089701D01*
X0241166Y0087978D02*
X0241263Y0087980D01*
X0241359Y0087985D01*
X0241455Y0087994D01*
X0241551Y0088007D01*
X0241646Y0088023D01*
X0241741Y0088043D01*
X0241834Y0088067D01*
X0241927Y0088094D01*
X0242019Y0088124D01*
X0242109Y0088158D01*
X0242198Y0088196D01*
X0242286Y0088236D01*
X0242716Y0088839D02*
X0242714Y0088888D01*
X0242708Y0088937D01*
X0242699Y0088986D01*
X0242686Y0089033D01*
X0242669Y0089080D01*
X0242648Y0089125D01*
X0242624Y0089168D01*
X0242597Y0089209D01*
X0242567Y0089248D01*
X0242534Y0089285D01*
X0242498Y0089319D01*
X0242460Y0089350D01*
X0242419Y0089378D01*
X0242376Y0089402D01*
X0242332Y0089424D01*
X0242286Y0089442D01*
X0242716Y0088839D02*
X0242714Y0088790D01*
X0242708Y0088741D01*
X0242699Y0088692D01*
X0242686Y0088645D01*
X0242669Y0088598D01*
X0242648Y0088553D01*
X0242624Y0088510D01*
X0242597Y0088469D01*
X0242567Y0088430D01*
X0242534Y0088393D01*
X0242498Y0088359D01*
X0242460Y0088328D01*
X0242419Y0088300D01*
X0242376Y0088276D01*
X0242332Y0088254D01*
X0242286Y0088236D01*
X0242716Y0085239D02*
X0239616Y0085239D01*
X0239616Y0084378D02*
X0239616Y0086100D01*
X0242027Y0084378D02*
X0242716Y0085239D01*
X0235216Y0084029D02*
X0232116Y0084029D01*
X0232116Y0083168D02*
X0232116Y0084890D01*
X0232633Y0086820D02*
X0234183Y0086820D01*
X0234183Y0088198D02*
X0232116Y0088198D01*
X0232116Y0087337D01*
X0232118Y0087294D01*
X0232123Y0087252D01*
X0232132Y0087210D01*
X0232144Y0087169D01*
X0232160Y0087129D01*
X0232178Y0087091D01*
X0232200Y0087054D01*
X0232225Y0087019D01*
X0232253Y0086987D01*
X0232283Y0086957D01*
X0232315Y0086929D01*
X0232350Y0086904D01*
X0232387Y0086882D01*
X0232425Y0086864D01*
X0232465Y0086848D01*
X0232506Y0086836D01*
X0232548Y0086827D01*
X0232590Y0086822D01*
X0232633Y0086820D01*
X0235216Y0084029D02*
X0234527Y0083168D01*
X0233666Y0078128D02*
X0233569Y0078130D01*
X0233473Y0078135D01*
X0233377Y0078144D01*
X0233281Y0078157D01*
X0233186Y0078173D01*
X0233091Y0078193D01*
X0232998Y0078217D01*
X0232905Y0078244D01*
X0232813Y0078274D01*
X0232723Y0078308D01*
X0232634Y0078346D01*
X0232546Y0078386D01*
X0232805Y0078300D02*
X0234527Y0079678D01*
X0234786Y0079592D02*
X0234832Y0079574D01*
X0234876Y0079552D01*
X0234919Y0079528D01*
X0234960Y0079500D01*
X0234998Y0079469D01*
X0235034Y0079435D01*
X0235067Y0079398D01*
X0235097Y0079359D01*
X0235124Y0079318D01*
X0235148Y0079275D01*
X0235169Y0079230D01*
X0235186Y0079183D01*
X0235199Y0079136D01*
X0235208Y0079087D01*
X0235214Y0079038D01*
X0235216Y0078989D01*
X0235214Y0078940D01*
X0235208Y0078891D01*
X0235199Y0078842D01*
X0235186Y0078795D01*
X0235169Y0078748D01*
X0235148Y0078703D01*
X0235124Y0078660D01*
X0235097Y0078619D01*
X0235067Y0078580D01*
X0235034Y0078543D01*
X0234998Y0078509D01*
X0234960Y0078478D01*
X0234919Y0078450D01*
X0234876Y0078426D01*
X0234832Y0078404D01*
X0234786Y0078386D01*
X0234786Y0079593D02*
X0234698Y0079633D01*
X0234609Y0079671D01*
X0234519Y0079705D01*
X0234427Y0079735D01*
X0234334Y0079762D01*
X0234241Y0079786D01*
X0234146Y0079805D01*
X0234051Y0079822D01*
X0233955Y0079835D01*
X0233859Y0079844D01*
X0233763Y0079849D01*
X0233666Y0079851D01*
X0233666Y0078128D02*
X0233763Y0078130D01*
X0233859Y0078135D01*
X0233955Y0078144D01*
X0234051Y0078157D01*
X0234146Y0078173D01*
X0234241Y0078193D01*
X0234334Y0078217D01*
X0234427Y0078244D01*
X0234519Y0078274D01*
X0234609Y0078308D01*
X0234698Y0078346D01*
X0234786Y0078386D01*
X0233666Y0079851D02*
X0233569Y0079849D01*
X0233473Y0079844D01*
X0233377Y0079835D01*
X0233281Y0079822D01*
X0233186Y0079806D01*
X0233091Y0079786D01*
X0232998Y0079762D01*
X0232905Y0079735D01*
X0232813Y0079705D01*
X0232723Y0079671D01*
X0232634Y0079633D01*
X0232546Y0079593D01*
X0232546Y0079592D02*
X0232500Y0079574D01*
X0232456Y0079552D01*
X0232413Y0079528D01*
X0232372Y0079500D01*
X0232334Y0079469D01*
X0232298Y0079435D01*
X0232265Y0079398D01*
X0232235Y0079359D01*
X0232208Y0079318D01*
X0232184Y0079275D01*
X0232163Y0079230D01*
X0232146Y0079183D01*
X0232133Y0079136D01*
X0232124Y0079087D01*
X0232118Y0079038D01*
X0232116Y0078989D01*
X0232118Y0078940D01*
X0232124Y0078891D01*
X0232133Y0078842D01*
X0232146Y0078795D01*
X0232163Y0078748D01*
X0232184Y0078703D01*
X0232208Y0078660D01*
X0232235Y0078619D01*
X0232265Y0078580D01*
X0232298Y0078543D01*
X0232334Y0078509D01*
X0232372Y0078478D01*
X0232413Y0078450D01*
X0232456Y0078426D01*
X0232500Y0078404D01*
X0232546Y0078386D01*
X0232288Y0081423D02*
X0232288Y0081595D01*
X0232116Y0081595D01*
X0232116Y0081423D01*
X0232288Y0081423D01*
X0232116Y0090262D02*
X0235216Y0090262D01*
X0235216Y0091639D01*
X0233838Y0091639D02*
X0233838Y0090262D01*
X0239616Y0102152D02*
X0242716Y0102152D01*
X0242716Y0103529D01*
X0241338Y0103529D02*
X0241338Y0102152D01*
X0198966Y0116036D02*
X0196555Y0116036D01*
X0196555Y0116037D02*
X0196504Y0116035D01*
X0196452Y0116029D01*
X0196402Y0116020D01*
X0196352Y0116006D01*
X0196303Y0115989D01*
X0196256Y0115969D01*
X0196211Y0115945D01*
X0196167Y0115917D01*
X0196125Y0115887D01*
X0196086Y0115853D01*
X0196050Y0115817D01*
X0196016Y0115778D01*
X0195986Y0115736D01*
X0195958Y0115693D01*
X0195934Y0115647D01*
X0195914Y0115600D01*
X0195897Y0115551D01*
X0195883Y0115501D01*
X0195874Y0115451D01*
X0195868Y0115399D01*
X0195866Y0115348D01*
X0195866Y0115003D01*
X0195866Y0118228D02*
X0198966Y0118228D01*
X0198966Y0119089D01*
X0198964Y0119147D01*
X0198958Y0119204D01*
X0198949Y0119260D01*
X0198935Y0119316D01*
X0198918Y0119371D01*
X0198898Y0119425D01*
X0198873Y0119477D01*
X0198846Y0119528D01*
X0198815Y0119576D01*
X0198781Y0119623D01*
X0198744Y0119667D01*
X0198704Y0119708D01*
X0198661Y0119747D01*
X0198616Y0119782D01*
X0198568Y0119815D01*
X0198519Y0119844D01*
X0198467Y0119870D01*
X0198414Y0119892D01*
X0198360Y0119911D01*
X0198305Y0119927D01*
X0198248Y0119938D01*
X0198191Y0119946D01*
X0198134Y0119950D01*
X0198076Y0119950D01*
X0198019Y0119946D01*
X0197962Y0119938D01*
X0197905Y0119927D01*
X0197850Y0119911D01*
X0197796Y0119892D01*
X0197743Y0119870D01*
X0197691Y0119844D01*
X0197642Y0119815D01*
X0197594Y0119782D01*
X0197549Y0119747D01*
X0197506Y0119708D01*
X0197466Y0119667D01*
X0197429Y0119623D01*
X0197395Y0119576D01*
X0197364Y0119528D01*
X0197337Y0119477D01*
X0197312Y0119425D01*
X0197292Y0119371D01*
X0197275Y0119316D01*
X0197261Y0119260D01*
X0197252Y0119204D01*
X0197246Y0119147D01*
X0197244Y0119089D01*
X0197244Y0118228D01*
X0195866Y0121606D02*
X0195866Y0122467D01*
X0195868Y0122525D01*
X0195874Y0122582D01*
X0195883Y0122638D01*
X0195897Y0122694D01*
X0195914Y0122749D01*
X0195934Y0122803D01*
X0195959Y0122855D01*
X0195986Y0122906D01*
X0196017Y0122954D01*
X0196051Y0123001D01*
X0196088Y0123045D01*
X0196128Y0123086D01*
X0196171Y0123125D01*
X0196216Y0123160D01*
X0196264Y0123193D01*
X0196313Y0123222D01*
X0196365Y0123248D01*
X0196418Y0123270D01*
X0196472Y0123289D01*
X0196527Y0123305D01*
X0196584Y0123316D01*
X0196641Y0123324D01*
X0196698Y0123328D01*
X0196756Y0123328D01*
X0196813Y0123324D01*
X0196870Y0123316D01*
X0196927Y0123305D01*
X0196982Y0123289D01*
X0197036Y0123270D01*
X0197089Y0123248D01*
X0197141Y0123222D01*
X0197190Y0123193D01*
X0197238Y0123160D01*
X0197283Y0123125D01*
X0197326Y0123086D01*
X0197366Y0123045D01*
X0197403Y0123001D01*
X0197437Y0122954D01*
X0197468Y0122906D01*
X0197495Y0122855D01*
X0197520Y0122803D01*
X0197540Y0122749D01*
X0197557Y0122694D01*
X0197571Y0122638D01*
X0197580Y0122582D01*
X0197586Y0122525D01*
X0197588Y0122467D01*
X0197588Y0122640D02*
X0197588Y0121951D01*
X0197588Y0122640D02*
X0197590Y0122691D01*
X0197596Y0122743D01*
X0197605Y0122793D01*
X0197619Y0122843D01*
X0197636Y0122892D01*
X0197656Y0122939D01*
X0197680Y0122985D01*
X0197708Y0123028D01*
X0197738Y0123070D01*
X0197772Y0123109D01*
X0197808Y0123145D01*
X0197847Y0123179D01*
X0197889Y0123209D01*
X0197933Y0123237D01*
X0197978Y0123261D01*
X0198025Y0123281D01*
X0198074Y0123298D01*
X0198124Y0123312D01*
X0198174Y0123321D01*
X0198226Y0123327D01*
X0198277Y0123329D01*
X0198328Y0123327D01*
X0198380Y0123321D01*
X0198430Y0123312D01*
X0198480Y0123298D01*
X0198529Y0123281D01*
X0198576Y0123261D01*
X0198622Y0123237D01*
X0198665Y0123209D01*
X0198707Y0123179D01*
X0198746Y0123145D01*
X0198782Y0123109D01*
X0198816Y0123070D01*
X0198846Y0123028D01*
X0198874Y0122985D01*
X0198898Y0122939D01*
X0198918Y0122892D01*
X0198935Y0122843D01*
X0198949Y0122793D01*
X0198958Y0122743D01*
X0198964Y0122691D01*
X0198966Y0122640D01*
X0198966Y0121606D01*
X0224616Y0156628D02*
X0226338Y0156628D01*
X0225477Y0156628D02*
X0225477Y0159728D01*
X0226338Y0159039D01*
X0227980Y0159728D02*
X0228669Y0159728D01*
X0228720Y0159726D01*
X0228772Y0159720D01*
X0228822Y0159711D01*
X0228872Y0159697D01*
X0228921Y0159680D01*
X0228968Y0159660D01*
X0229014Y0159636D01*
X0229057Y0159608D01*
X0229099Y0159578D01*
X0229138Y0159544D01*
X0229174Y0159508D01*
X0229208Y0159469D01*
X0229238Y0159427D01*
X0229266Y0159384D01*
X0229290Y0159338D01*
X0229310Y0159291D01*
X0229327Y0159242D01*
X0229341Y0159192D01*
X0229350Y0159142D01*
X0229356Y0159090D01*
X0229358Y0159039D01*
X0229358Y0157317D01*
X0229356Y0157266D01*
X0229350Y0157214D01*
X0229341Y0157164D01*
X0229327Y0157114D01*
X0229310Y0157065D01*
X0229290Y0157018D01*
X0229266Y0156973D01*
X0229238Y0156929D01*
X0229208Y0156887D01*
X0229174Y0156848D01*
X0229138Y0156812D01*
X0229099Y0156778D01*
X0229057Y0156748D01*
X0229014Y0156720D01*
X0228968Y0156696D01*
X0228921Y0156676D01*
X0228872Y0156659D01*
X0228822Y0156645D01*
X0228772Y0156636D01*
X0228720Y0156630D01*
X0228669Y0156628D01*
X0227980Y0156628D01*
X0231837Y0156628D02*
X0231837Y0159728D01*
X0232698Y0159728D02*
X0230976Y0159728D01*
X0234456Y0159728D02*
X0234456Y0156628D01*
X0236178Y0159728D01*
X0236178Y0156628D01*
X0234372Y0194378D02*
X0233511Y0194378D01*
X0233511Y0196445D01*
X0234889Y0196445D02*
X0234889Y0194895D01*
X0234887Y0194852D01*
X0234882Y0194810D01*
X0234873Y0194768D01*
X0234861Y0194727D01*
X0234845Y0194687D01*
X0234827Y0194649D01*
X0234805Y0194612D01*
X0234780Y0194577D01*
X0234752Y0194545D01*
X0234722Y0194515D01*
X0234690Y0194487D01*
X0234655Y0194462D01*
X0234618Y0194440D01*
X0234580Y0194422D01*
X0234540Y0194406D01*
X0234499Y0194394D01*
X0234457Y0194385D01*
X0234415Y0194380D01*
X0234372Y0194378D01*
X0238283Y0194808D02*
X0238323Y0194896D01*
X0238361Y0194985D01*
X0238395Y0195075D01*
X0238425Y0195167D01*
X0238452Y0195260D01*
X0238476Y0195354D01*
X0238496Y0195448D01*
X0238512Y0195543D01*
X0238525Y0195639D01*
X0238534Y0195735D01*
X0238539Y0195831D01*
X0238541Y0195928D01*
X0236818Y0195928D02*
X0236820Y0196025D01*
X0236825Y0196121D01*
X0236834Y0196217D01*
X0236847Y0196313D01*
X0236864Y0196408D01*
X0236883Y0196503D01*
X0236907Y0196596D01*
X0236934Y0196689D01*
X0236964Y0196781D01*
X0236998Y0196871D01*
X0237036Y0196960D01*
X0237076Y0197048D01*
X0236991Y0196789D02*
X0238369Y0195067D01*
X0237680Y0194378D02*
X0237631Y0194380D01*
X0237582Y0194386D01*
X0237533Y0194395D01*
X0237486Y0194408D01*
X0237439Y0194425D01*
X0237394Y0194446D01*
X0237351Y0194470D01*
X0237310Y0194497D01*
X0237271Y0194527D01*
X0237234Y0194560D01*
X0237200Y0194596D01*
X0237169Y0194634D01*
X0237141Y0194675D01*
X0237117Y0194718D01*
X0237095Y0194762D01*
X0237077Y0194808D01*
X0237680Y0194378D02*
X0237729Y0194380D01*
X0237778Y0194386D01*
X0237827Y0194395D01*
X0237874Y0194408D01*
X0237921Y0194425D01*
X0237966Y0194446D01*
X0238009Y0194470D01*
X0238050Y0194497D01*
X0238089Y0194527D01*
X0238126Y0194560D01*
X0238160Y0194596D01*
X0238191Y0194634D01*
X0238219Y0194675D01*
X0238243Y0194718D01*
X0238265Y0194762D01*
X0238283Y0194808D01*
X0237076Y0194808D02*
X0237036Y0194896D01*
X0236998Y0194985D01*
X0236964Y0195075D01*
X0236934Y0195167D01*
X0236907Y0195260D01*
X0236883Y0195353D01*
X0236863Y0195448D01*
X0236847Y0195543D01*
X0236834Y0195639D01*
X0236825Y0195735D01*
X0236820Y0195831D01*
X0236818Y0195928D01*
X0238541Y0195928D02*
X0238539Y0196025D01*
X0238534Y0196121D01*
X0238525Y0196217D01*
X0238512Y0196313D01*
X0238496Y0196408D01*
X0238476Y0196503D01*
X0238452Y0196596D01*
X0238425Y0196689D01*
X0238395Y0196781D01*
X0238361Y0196871D01*
X0238323Y0196960D01*
X0238283Y0197048D01*
X0237680Y0197478D02*
X0237631Y0197476D01*
X0237582Y0197470D01*
X0237533Y0197461D01*
X0237486Y0197448D01*
X0237439Y0197431D01*
X0237394Y0197410D01*
X0237351Y0197386D01*
X0237310Y0197359D01*
X0237271Y0197329D01*
X0237234Y0197296D01*
X0237200Y0197260D01*
X0237169Y0197222D01*
X0237141Y0197181D01*
X0237117Y0197138D01*
X0237095Y0197094D01*
X0237077Y0197048D01*
X0237680Y0197478D02*
X0237729Y0197476D01*
X0237778Y0197470D01*
X0237827Y0197461D01*
X0237874Y0197448D01*
X0237921Y0197431D01*
X0237966Y0197410D01*
X0238009Y0197386D01*
X0238050Y0197359D01*
X0238089Y0197329D01*
X0238126Y0197296D01*
X0238160Y0197260D01*
X0238191Y0197222D01*
X0238219Y0197181D01*
X0238243Y0197138D01*
X0238265Y0197094D01*
X0238283Y0197048D01*
X0242141Y0195928D02*
X0242139Y0195831D01*
X0242134Y0195735D01*
X0242125Y0195639D01*
X0242112Y0195543D01*
X0242096Y0195448D01*
X0242076Y0195354D01*
X0242052Y0195260D01*
X0242025Y0195167D01*
X0241995Y0195075D01*
X0241961Y0194985D01*
X0241923Y0194896D01*
X0241883Y0194808D01*
X0241969Y0195067D02*
X0240591Y0196789D01*
X0240677Y0197048D02*
X0240695Y0197094D01*
X0240717Y0197138D01*
X0240741Y0197181D01*
X0240769Y0197222D01*
X0240800Y0197260D01*
X0240834Y0197296D01*
X0240871Y0197329D01*
X0240910Y0197359D01*
X0240951Y0197386D01*
X0240994Y0197410D01*
X0241039Y0197431D01*
X0241086Y0197448D01*
X0241133Y0197461D01*
X0241182Y0197470D01*
X0241231Y0197476D01*
X0241280Y0197478D01*
X0241329Y0197476D01*
X0241378Y0197470D01*
X0241427Y0197461D01*
X0241474Y0197448D01*
X0241521Y0197431D01*
X0241566Y0197410D01*
X0241609Y0197386D01*
X0241650Y0197359D01*
X0241689Y0197329D01*
X0241726Y0197296D01*
X0241760Y0197260D01*
X0241791Y0197222D01*
X0241819Y0197181D01*
X0241843Y0197138D01*
X0241865Y0197094D01*
X0241883Y0197048D01*
X0240676Y0197048D02*
X0240636Y0196960D01*
X0240598Y0196871D01*
X0240564Y0196781D01*
X0240534Y0196689D01*
X0240507Y0196596D01*
X0240483Y0196503D01*
X0240464Y0196408D01*
X0240447Y0196313D01*
X0240434Y0196217D01*
X0240425Y0196121D01*
X0240420Y0196025D01*
X0240418Y0195928D01*
X0242141Y0195928D02*
X0242139Y0196025D01*
X0242134Y0196121D01*
X0242125Y0196217D01*
X0242112Y0196313D01*
X0242096Y0196408D01*
X0242076Y0196503D01*
X0242052Y0196596D01*
X0242025Y0196689D01*
X0241995Y0196781D01*
X0241961Y0196871D01*
X0241923Y0196960D01*
X0241883Y0197048D01*
X0240418Y0195928D02*
X0240420Y0195831D01*
X0240425Y0195735D01*
X0240434Y0195639D01*
X0240447Y0195543D01*
X0240463Y0195448D01*
X0240483Y0195353D01*
X0240507Y0195260D01*
X0240534Y0195167D01*
X0240564Y0195075D01*
X0240598Y0194985D01*
X0240636Y0194896D01*
X0240676Y0194808D01*
X0240677Y0194808D02*
X0240695Y0194762D01*
X0240717Y0194718D01*
X0240741Y0194675D01*
X0240769Y0194634D01*
X0240800Y0194596D01*
X0240834Y0194560D01*
X0240871Y0194527D01*
X0240910Y0194497D01*
X0240951Y0194470D01*
X0240994Y0194446D01*
X0241039Y0194425D01*
X0241086Y0194408D01*
X0241133Y0194395D01*
X0241182Y0194386D01*
X0241231Y0194380D01*
X0241280Y0194378D01*
X0241329Y0194380D01*
X0241378Y0194386D01*
X0241427Y0194395D01*
X0241474Y0194408D01*
X0241521Y0194425D01*
X0241566Y0194446D01*
X0241609Y0194470D01*
X0241650Y0194497D01*
X0241689Y0194527D01*
X0241726Y0194560D01*
X0241760Y0194596D01*
X0241791Y0194634D01*
X0241819Y0194675D01*
X0241843Y0194718D01*
X0241865Y0194762D01*
X0241883Y0194808D01*
X0244019Y0195067D02*
X0244019Y0195411D01*
X0244021Y0195462D01*
X0244027Y0195514D01*
X0244036Y0195564D01*
X0244050Y0195614D01*
X0244067Y0195663D01*
X0244087Y0195710D01*
X0244111Y0195756D01*
X0244139Y0195799D01*
X0244169Y0195841D01*
X0244203Y0195880D01*
X0244239Y0195916D01*
X0244278Y0195950D01*
X0244320Y0195980D01*
X0244364Y0196008D01*
X0244409Y0196032D01*
X0244456Y0196052D01*
X0244505Y0196069D01*
X0244555Y0196083D01*
X0244605Y0196092D01*
X0244657Y0196098D01*
X0244708Y0196100D01*
X0245741Y0196100D01*
X0245741Y0197478D01*
X0244019Y0197478D01*
X0244019Y0195067D02*
X0244021Y0195015D01*
X0244027Y0194964D01*
X0244036Y0194914D01*
X0244050Y0194864D01*
X0244067Y0194815D01*
X0244087Y0194768D01*
X0244111Y0194722D01*
X0244139Y0194679D01*
X0244169Y0194637D01*
X0244203Y0194598D01*
X0244239Y0194562D01*
X0244278Y0194528D01*
X0244320Y0194498D01*
X0244364Y0194470D01*
X0244409Y0194446D01*
X0244456Y0194426D01*
X0244505Y0194409D01*
X0244555Y0194395D01*
X0244605Y0194386D01*
X0244657Y0194380D01*
X0244708Y0194378D01*
X0245741Y0194378D01*
X0247619Y0194378D02*
X0249341Y0194378D01*
X0248480Y0194378D02*
X0248480Y0197478D01*
X0249341Y0196789D01*
X0242913Y0201239D02*
X0242913Y0202617D01*
X0242911Y0202675D01*
X0242905Y0202732D01*
X0242896Y0202788D01*
X0242882Y0202844D01*
X0242865Y0202899D01*
X0242845Y0202953D01*
X0242820Y0203005D01*
X0242793Y0203056D01*
X0242762Y0203104D01*
X0242728Y0203151D01*
X0242691Y0203195D01*
X0242651Y0203236D01*
X0242608Y0203275D01*
X0242563Y0203310D01*
X0242515Y0203343D01*
X0242466Y0203372D01*
X0242414Y0203398D01*
X0242361Y0203420D01*
X0242307Y0203439D01*
X0242252Y0203455D01*
X0242195Y0203466D01*
X0242138Y0203474D01*
X0242081Y0203478D01*
X0242023Y0203478D01*
X0241966Y0203474D01*
X0241909Y0203466D01*
X0241852Y0203455D01*
X0241797Y0203439D01*
X0241743Y0203420D01*
X0241690Y0203398D01*
X0241638Y0203372D01*
X0241589Y0203343D01*
X0241541Y0203310D01*
X0241496Y0203275D01*
X0241453Y0203236D01*
X0241413Y0203195D01*
X0241376Y0203151D01*
X0241342Y0203104D01*
X0241311Y0203056D01*
X0241284Y0203005D01*
X0241259Y0202953D01*
X0241239Y0202899D01*
X0241222Y0202844D01*
X0241208Y0202788D01*
X0241199Y0202732D01*
X0241193Y0202675D01*
X0241191Y0202617D01*
X0241191Y0201239D01*
X0241193Y0201181D01*
X0241199Y0201124D01*
X0241208Y0201068D01*
X0241222Y0201012D01*
X0241239Y0200957D01*
X0241259Y0200903D01*
X0241284Y0200851D01*
X0241311Y0200800D01*
X0241342Y0200752D01*
X0241376Y0200705D01*
X0241413Y0200661D01*
X0241453Y0200620D01*
X0241496Y0200581D01*
X0241541Y0200546D01*
X0241589Y0200513D01*
X0241638Y0200484D01*
X0241690Y0200458D01*
X0241743Y0200436D01*
X0241797Y0200417D01*
X0241852Y0200401D01*
X0241909Y0200390D01*
X0241966Y0200382D01*
X0242023Y0200378D01*
X0242081Y0200378D01*
X0242138Y0200382D01*
X0242195Y0200390D01*
X0242252Y0200401D01*
X0242307Y0200417D01*
X0242361Y0200436D01*
X0242414Y0200458D01*
X0242466Y0200484D01*
X0242515Y0200513D01*
X0242563Y0200546D01*
X0242608Y0200581D01*
X0242651Y0200620D01*
X0242691Y0200661D01*
X0242728Y0200705D01*
X0242762Y0200752D01*
X0242793Y0200800D01*
X0242820Y0200851D01*
X0242845Y0200903D01*
X0242865Y0200957D01*
X0242882Y0201012D01*
X0242896Y0201068D01*
X0242905Y0201124D01*
X0242911Y0201181D01*
X0242913Y0201239D01*
X0239501Y0202445D02*
X0238812Y0200378D01*
X0238123Y0202445D01*
X0236501Y0201756D02*
X0236501Y0200895D01*
X0236501Y0201411D02*
X0235123Y0201411D01*
X0235123Y0201756D01*
X0235125Y0201807D01*
X0235131Y0201859D01*
X0235140Y0201909D01*
X0235154Y0201959D01*
X0235171Y0202008D01*
X0235191Y0202055D01*
X0235215Y0202101D01*
X0235243Y0202144D01*
X0235273Y0202186D01*
X0235307Y0202225D01*
X0235343Y0202261D01*
X0235382Y0202295D01*
X0235424Y0202325D01*
X0235468Y0202353D01*
X0235513Y0202377D01*
X0235560Y0202397D01*
X0235609Y0202414D01*
X0235659Y0202428D01*
X0235709Y0202437D01*
X0235761Y0202443D01*
X0235812Y0202445D01*
X0235863Y0202443D01*
X0235915Y0202437D01*
X0235965Y0202428D01*
X0236015Y0202414D01*
X0236064Y0202397D01*
X0236111Y0202377D01*
X0236157Y0202353D01*
X0236200Y0202325D01*
X0236242Y0202295D01*
X0236281Y0202261D01*
X0236317Y0202225D01*
X0236351Y0202186D01*
X0236381Y0202144D01*
X0236409Y0202101D01*
X0236433Y0202055D01*
X0236453Y0202008D01*
X0236470Y0201959D01*
X0236484Y0201909D01*
X0236493Y0201859D01*
X0236499Y0201807D01*
X0236501Y0201756D01*
X0236501Y0200895D02*
X0236499Y0200852D01*
X0236494Y0200810D01*
X0236485Y0200768D01*
X0236473Y0200727D01*
X0236457Y0200687D01*
X0236439Y0200649D01*
X0236417Y0200612D01*
X0236392Y0200577D01*
X0236364Y0200545D01*
X0236334Y0200515D01*
X0236302Y0200487D01*
X0236267Y0200462D01*
X0236230Y0200440D01*
X0236192Y0200422D01*
X0236152Y0200406D01*
X0236111Y0200394D01*
X0236069Y0200385D01*
X0236027Y0200380D01*
X0235984Y0200378D01*
X0235123Y0200378D01*
X0233221Y0200378D02*
X0233221Y0202445D01*
X0232188Y0202445D01*
X0232188Y0202100D01*
X0230793Y0200378D02*
X0229071Y0200378D01*
X0230793Y0200378D02*
X0229329Y0202100D01*
X0229846Y0203478D02*
X0229906Y0203476D01*
X0229965Y0203471D01*
X0230024Y0203462D01*
X0230082Y0203450D01*
X0230140Y0203434D01*
X0230196Y0203414D01*
X0230251Y0203392D01*
X0230305Y0203366D01*
X0230357Y0203337D01*
X0230407Y0203305D01*
X0230456Y0203270D01*
X0230502Y0203232D01*
X0230545Y0203191D01*
X0230587Y0203148D01*
X0230625Y0203102D01*
X0230661Y0203055D01*
X0230694Y0203005D01*
X0230723Y0202953D01*
X0230750Y0202900D01*
X0230773Y0202845D01*
X0230794Y0202789D01*
X0229329Y0202101D02*
X0229290Y0202141D01*
X0229253Y0202183D01*
X0229220Y0202228D01*
X0229189Y0202275D01*
X0229162Y0202324D01*
X0229138Y0202375D01*
X0229118Y0202428D01*
X0229101Y0202481D01*
X0229088Y0202536D01*
X0229079Y0202591D01*
X0229073Y0202647D01*
X0229071Y0202703D01*
X0229073Y0202758D01*
X0229079Y0202813D01*
X0229089Y0202868D01*
X0229102Y0202921D01*
X0229120Y0202974D01*
X0229141Y0203025D01*
X0229166Y0203074D01*
X0229194Y0203122D01*
X0229226Y0203167D01*
X0229260Y0203211D01*
X0229298Y0203251D01*
X0229338Y0203289D01*
X0229382Y0203323D01*
X0229427Y0203355D01*
X0229475Y0203383D01*
X0229524Y0203408D01*
X0229575Y0203429D01*
X0229628Y0203447D01*
X0229681Y0203460D01*
X0229736Y0203470D01*
X0229791Y0203476D01*
X0229846Y0203478D01*
X0229341Y0206878D02*
X0228480Y0206878D01*
X0229341Y0206878D02*
X0229341Y0209978D01*
X0228480Y0209978D01*
X0228424Y0209976D01*
X0228368Y0209971D01*
X0228312Y0209961D01*
X0228257Y0209949D01*
X0228203Y0209932D01*
X0228151Y0209912D01*
X0228099Y0209889D01*
X0228050Y0209863D01*
X0228002Y0209833D01*
X0227956Y0209800D01*
X0227912Y0209764D01*
X0227871Y0209726D01*
X0227833Y0209685D01*
X0227797Y0209641D01*
X0227764Y0209595D01*
X0227734Y0209548D01*
X0227708Y0209498D01*
X0227685Y0209446D01*
X0227665Y0209394D01*
X0227648Y0209340D01*
X0227636Y0209285D01*
X0227626Y0209229D01*
X0227621Y0209173D01*
X0227619Y0209117D01*
X0227619Y0207739D01*
X0227621Y0207683D01*
X0227626Y0207627D01*
X0227636Y0207571D01*
X0227648Y0207516D01*
X0227665Y0207462D01*
X0227685Y0207410D01*
X0227708Y0207358D01*
X0227734Y0207309D01*
X0227764Y0207261D01*
X0227797Y0207215D01*
X0227833Y0207171D01*
X0227871Y0207130D01*
X0227912Y0207092D01*
X0227956Y0207056D01*
X0228002Y0207023D01*
X0228050Y0206993D01*
X0228099Y0206967D01*
X0228151Y0206944D01*
X0228203Y0206924D01*
X0228257Y0206907D01*
X0228312Y0206895D01*
X0228368Y0206885D01*
X0228424Y0206880D01*
X0228480Y0206878D01*
X0225621Y0206878D02*
X0224157Y0208600D01*
X0224674Y0209978D02*
X0224734Y0209976D01*
X0224793Y0209971D01*
X0224852Y0209962D01*
X0224910Y0209950D01*
X0224968Y0209934D01*
X0225024Y0209914D01*
X0225079Y0209892D01*
X0225133Y0209866D01*
X0225185Y0209837D01*
X0225235Y0209805D01*
X0225284Y0209770D01*
X0225330Y0209732D01*
X0225373Y0209691D01*
X0225415Y0209648D01*
X0225453Y0209602D01*
X0225489Y0209555D01*
X0225522Y0209505D01*
X0225551Y0209453D01*
X0225578Y0209400D01*
X0225601Y0209345D01*
X0225622Y0209289D01*
X0224157Y0208601D02*
X0224118Y0208641D01*
X0224081Y0208683D01*
X0224048Y0208728D01*
X0224017Y0208775D01*
X0223990Y0208824D01*
X0223966Y0208875D01*
X0223946Y0208928D01*
X0223929Y0208981D01*
X0223916Y0209036D01*
X0223907Y0209091D01*
X0223901Y0209147D01*
X0223899Y0209203D01*
X0223901Y0209258D01*
X0223907Y0209313D01*
X0223917Y0209368D01*
X0223930Y0209421D01*
X0223948Y0209474D01*
X0223969Y0209525D01*
X0223994Y0209574D01*
X0224022Y0209622D01*
X0224054Y0209667D01*
X0224088Y0209711D01*
X0224126Y0209751D01*
X0224166Y0209789D01*
X0224210Y0209823D01*
X0224255Y0209855D01*
X0224303Y0209883D01*
X0224352Y0209908D01*
X0224403Y0209929D01*
X0224456Y0209947D01*
X0224509Y0209960D01*
X0224564Y0209970D01*
X0224619Y0209976D01*
X0224674Y0209978D01*
X0223899Y0206878D02*
X0225621Y0206878D01*
X0226246Y0203478D02*
X0226191Y0203476D01*
X0226136Y0203470D01*
X0226081Y0203460D01*
X0226028Y0203447D01*
X0225975Y0203429D01*
X0225924Y0203408D01*
X0225875Y0203383D01*
X0225827Y0203355D01*
X0225782Y0203323D01*
X0225738Y0203289D01*
X0225698Y0203251D01*
X0225660Y0203211D01*
X0225626Y0203167D01*
X0225594Y0203122D01*
X0225566Y0203074D01*
X0225541Y0203025D01*
X0225520Y0202974D01*
X0225502Y0202921D01*
X0225489Y0202868D01*
X0225479Y0202813D01*
X0225473Y0202758D01*
X0225471Y0202703D01*
X0225729Y0202100D02*
X0227193Y0200378D01*
X0225471Y0200378D01*
X0227194Y0202789D02*
X0227173Y0202845D01*
X0227150Y0202900D01*
X0227123Y0202953D01*
X0227094Y0203005D01*
X0227061Y0203055D01*
X0227025Y0203102D01*
X0226987Y0203148D01*
X0226945Y0203191D01*
X0226902Y0203232D01*
X0226856Y0203270D01*
X0226807Y0203305D01*
X0226757Y0203337D01*
X0226705Y0203366D01*
X0226651Y0203392D01*
X0226596Y0203414D01*
X0226540Y0203434D01*
X0226482Y0203450D01*
X0226424Y0203462D01*
X0226365Y0203471D01*
X0226306Y0203476D01*
X0226246Y0203478D01*
X0225471Y0202703D02*
X0225473Y0202647D01*
X0225479Y0202591D01*
X0225488Y0202536D01*
X0225501Y0202481D01*
X0225518Y0202428D01*
X0225538Y0202375D01*
X0225562Y0202324D01*
X0225589Y0202275D01*
X0225620Y0202228D01*
X0225653Y0202183D01*
X0225690Y0202141D01*
X0225729Y0202101D01*
X0223525Y0201584D02*
X0221459Y0201584D01*
X0220948Y0197478D02*
X0221981Y0197478D01*
X0220948Y0197478D02*
X0220897Y0197476D01*
X0220845Y0197470D01*
X0220795Y0197461D01*
X0220745Y0197447D01*
X0220696Y0197430D01*
X0220649Y0197410D01*
X0220604Y0197386D01*
X0220560Y0197358D01*
X0220518Y0197328D01*
X0220479Y0197294D01*
X0220443Y0197258D01*
X0220409Y0197219D01*
X0220379Y0197177D01*
X0220351Y0197134D01*
X0220327Y0197088D01*
X0220307Y0197041D01*
X0220290Y0196992D01*
X0220276Y0196942D01*
X0220267Y0196892D01*
X0220261Y0196840D01*
X0220259Y0196789D01*
X0220261Y0196738D01*
X0220267Y0196686D01*
X0220276Y0196636D01*
X0220290Y0196586D01*
X0220307Y0196537D01*
X0220327Y0196490D01*
X0220351Y0196445D01*
X0220379Y0196401D01*
X0220409Y0196359D01*
X0220443Y0196320D01*
X0220479Y0196284D01*
X0220518Y0196250D01*
X0220560Y0196220D01*
X0220604Y0196192D01*
X0220649Y0196168D01*
X0220696Y0196148D01*
X0220745Y0196131D01*
X0220795Y0196117D01*
X0220845Y0196108D01*
X0220897Y0196102D01*
X0220948Y0196100D01*
X0221637Y0196100D01*
X0221120Y0196100D02*
X0221062Y0196098D01*
X0221005Y0196092D01*
X0220949Y0196083D01*
X0220893Y0196069D01*
X0220838Y0196052D01*
X0220784Y0196032D01*
X0220732Y0196007D01*
X0220681Y0195980D01*
X0220633Y0195949D01*
X0220586Y0195915D01*
X0220542Y0195878D01*
X0220501Y0195838D01*
X0220462Y0195795D01*
X0220427Y0195750D01*
X0220394Y0195702D01*
X0220365Y0195653D01*
X0220339Y0195601D01*
X0220317Y0195548D01*
X0220298Y0195494D01*
X0220282Y0195439D01*
X0220271Y0195382D01*
X0220263Y0195325D01*
X0220259Y0195268D01*
X0220259Y0195210D01*
X0220263Y0195153D01*
X0220271Y0195096D01*
X0220282Y0195039D01*
X0220298Y0194984D01*
X0220317Y0194930D01*
X0220339Y0194877D01*
X0220365Y0194825D01*
X0220394Y0194776D01*
X0220427Y0194728D01*
X0220462Y0194683D01*
X0220501Y0194640D01*
X0220542Y0194600D01*
X0220586Y0194563D01*
X0220633Y0194529D01*
X0220681Y0194498D01*
X0220732Y0194471D01*
X0220784Y0194446D01*
X0220838Y0194426D01*
X0220893Y0194409D01*
X0220949Y0194395D01*
X0221005Y0194386D01*
X0221062Y0194380D01*
X0221120Y0194378D01*
X0221981Y0194378D01*
X0223859Y0195239D02*
X0223859Y0195411D01*
X0223861Y0195463D01*
X0223867Y0195514D01*
X0223876Y0195564D01*
X0223890Y0195614D01*
X0223907Y0195663D01*
X0223927Y0195710D01*
X0223951Y0195756D01*
X0223979Y0195799D01*
X0224009Y0195841D01*
X0224043Y0195880D01*
X0224079Y0195916D01*
X0224118Y0195950D01*
X0224160Y0195980D01*
X0224204Y0196008D01*
X0224249Y0196032D01*
X0224296Y0196052D01*
X0224345Y0196069D01*
X0224395Y0196083D01*
X0224445Y0196092D01*
X0224497Y0196098D01*
X0224548Y0196100D01*
X0225581Y0196100D01*
X0225581Y0195239D01*
X0225579Y0195181D01*
X0225573Y0195124D01*
X0225564Y0195068D01*
X0225550Y0195012D01*
X0225533Y0194957D01*
X0225513Y0194903D01*
X0225488Y0194851D01*
X0225461Y0194800D01*
X0225430Y0194752D01*
X0225396Y0194705D01*
X0225359Y0194661D01*
X0225319Y0194620D01*
X0225276Y0194581D01*
X0225231Y0194546D01*
X0225183Y0194513D01*
X0225134Y0194484D01*
X0225082Y0194458D01*
X0225029Y0194436D01*
X0224975Y0194417D01*
X0224920Y0194401D01*
X0224863Y0194390D01*
X0224806Y0194382D01*
X0224749Y0194378D01*
X0224691Y0194378D01*
X0224634Y0194382D01*
X0224577Y0194390D01*
X0224520Y0194401D01*
X0224465Y0194417D01*
X0224411Y0194436D01*
X0224358Y0194458D01*
X0224306Y0194484D01*
X0224257Y0194513D01*
X0224209Y0194546D01*
X0224164Y0194581D01*
X0224121Y0194620D01*
X0224081Y0194661D01*
X0224044Y0194705D01*
X0224010Y0194752D01*
X0223979Y0194800D01*
X0223952Y0194851D01*
X0223927Y0194903D01*
X0223907Y0194957D01*
X0223890Y0195012D01*
X0223876Y0195068D01*
X0223867Y0195124D01*
X0223861Y0195181D01*
X0223859Y0195239D01*
X0225581Y0196100D02*
X0225579Y0196172D01*
X0225573Y0196244D01*
X0225564Y0196316D01*
X0225551Y0196386D01*
X0225534Y0196457D01*
X0225514Y0196526D01*
X0225489Y0196594D01*
X0225462Y0196660D01*
X0225431Y0196726D01*
X0225396Y0196789D01*
X0225359Y0196851D01*
X0225318Y0196910D01*
X0225274Y0196967D01*
X0225227Y0197022D01*
X0225177Y0197074D01*
X0225125Y0197124D01*
X0225070Y0197171D01*
X0225013Y0197215D01*
X0224954Y0197256D01*
X0224892Y0197293D01*
X0224829Y0197328D01*
X0224763Y0197359D01*
X0224697Y0197386D01*
X0224629Y0197411D01*
X0224560Y0197431D01*
X0224490Y0197448D01*
X0224419Y0197461D01*
X0224347Y0197470D01*
X0224275Y0197476D01*
X0224203Y0197478D01*
X0227271Y0194034D02*
X0228649Y0194034D01*
X0230070Y0196100D02*
X0231447Y0196100D01*
X0231447Y0197478D02*
X0230070Y0197478D01*
X0231447Y0197478D02*
X0231447Y0194378D01*
X0218553Y0197478D02*
X0217520Y0194378D01*
X0216487Y0197478D01*
X0182466Y0200003D02*
X0180744Y0200003D01*
X0181605Y0200003D02*
X0181605Y0203103D01*
X0182466Y0202414D01*
X0177143Y0201553D02*
X0177145Y0201456D01*
X0177150Y0201360D01*
X0177159Y0201264D01*
X0177172Y0201168D01*
X0177188Y0201073D01*
X0177208Y0200978D01*
X0177232Y0200885D01*
X0177259Y0200792D01*
X0177289Y0200700D01*
X0177323Y0200610D01*
X0177361Y0200521D01*
X0177401Y0200433D01*
X0177402Y0200433D02*
X0177420Y0200387D01*
X0177442Y0200343D01*
X0177466Y0200300D01*
X0177494Y0200259D01*
X0177525Y0200221D01*
X0177559Y0200185D01*
X0177596Y0200152D01*
X0177635Y0200122D01*
X0177676Y0200095D01*
X0177719Y0200071D01*
X0177764Y0200050D01*
X0177811Y0200033D01*
X0177858Y0200020D01*
X0177907Y0200011D01*
X0177956Y0200005D01*
X0178005Y0200003D01*
X0178054Y0200005D01*
X0178103Y0200011D01*
X0178152Y0200020D01*
X0178199Y0200033D01*
X0178246Y0200050D01*
X0178291Y0200071D01*
X0178334Y0200095D01*
X0178375Y0200122D01*
X0178414Y0200152D01*
X0178451Y0200185D01*
X0178485Y0200221D01*
X0178516Y0200259D01*
X0178544Y0200300D01*
X0178568Y0200343D01*
X0178590Y0200387D01*
X0178608Y0200433D01*
X0178694Y0200692D02*
X0177316Y0202414D01*
X0177402Y0202673D02*
X0177420Y0202719D01*
X0177442Y0202763D01*
X0177466Y0202806D01*
X0177494Y0202847D01*
X0177525Y0202885D01*
X0177559Y0202921D01*
X0177596Y0202954D01*
X0177635Y0202984D01*
X0177676Y0203011D01*
X0177719Y0203035D01*
X0177764Y0203056D01*
X0177811Y0203073D01*
X0177858Y0203086D01*
X0177907Y0203095D01*
X0177956Y0203101D01*
X0178005Y0203103D01*
X0178054Y0203101D01*
X0178103Y0203095D01*
X0178152Y0203086D01*
X0178199Y0203073D01*
X0178246Y0203056D01*
X0178291Y0203035D01*
X0178334Y0203011D01*
X0178375Y0202984D01*
X0178414Y0202954D01*
X0178451Y0202921D01*
X0178485Y0202885D01*
X0178516Y0202847D01*
X0178544Y0202806D01*
X0178568Y0202763D01*
X0178590Y0202719D01*
X0178608Y0202673D01*
X0177401Y0202673D02*
X0177361Y0202585D01*
X0177323Y0202496D01*
X0177289Y0202406D01*
X0177259Y0202314D01*
X0177232Y0202221D01*
X0177208Y0202128D01*
X0177189Y0202033D01*
X0177172Y0201938D01*
X0177159Y0201842D01*
X0177150Y0201746D01*
X0177145Y0201650D01*
X0177143Y0201553D01*
X0178866Y0201553D02*
X0178864Y0201650D01*
X0178859Y0201746D01*
X0178850Y0201842D01*
X0178837Y0201938D01*
X0178821Y0202033D01*
X0178801Y0202128D01*
X0178777Y0202221D01*
X0178750Y0202314D01*
X0178720Y0202406D01*
X0178686Y0202496D01*
X0178648Y0202585D01*
X0178608Y0202673D01*
X0178866Y0201553D02*
X0178864Y0201456D01*
X0178859Y0201360D01*
X0178850Y0201264D01*
X0178837Y0201168D01*
X0178821Y0201073D01*
X0178801Y0200979D01*
X0178777Y0200885D01*
X0178750Y0200792D01*
X0178720Y0200700D01*
X0178686Y0200610D01*
X0178648Y0200521D01*
X0178608Y0200433D01*
X0180355Y0198728D02*
X0180355Y0195628D01*
X0181216Y0195628D02*
X0179494Y0195628D01*
X0176151Y0196058D02*
X0176111Y0196146D01*
X0176073Y0196235D01*
X0176039Y0196325D01*
X0176009Y0196417D01*
X0175982Y0196510D01*
X0175958Y0196603D01*
X0175938Y0196698D01*
X0175922Y0196793D01*
X0175909Y0196889D01*
X0175900Y0196985D01*
X0175895Y0197081D01*
X0175893Y0197178D01*
X0177616Y0197178D02*
X0177614Y0197275D01*
X0177609Y0197371D01*
X0177600Y0197467D01*
X0177587Y0197563D01*
X0177571Y0197658D01*
X0177551Y0197753D01*
X0177527Y0197846D01*
X0177500Y0197939D01*
X0177470Y0198031D01*
X0177436Y0198121D01*
X0177398Y0198210D01*
X0177358Y0198298D01*
X0176755Y0198728D02*
X0176706Y0198726D01*
X0176657Y0198720D01*
X0176608Y0198711D01*
X0176561Y0198698D01*
X0176514Y0198681D01*
X0176469Y0198660D01*
X0176426Y0198636D01*
X0176385Y0198609D01*
X0176346Y0198579D01*
X0176309Y0198546D01*
X0176275Y0198510D01*
X0176244Y0198472D01*
X0176216Y0198431D01*
X0176192Y0198388D01*
X0176170Y0198344D01*
X0176152Y0198298D01*
X0176066Y0198039D02*
X0177444Y0196317D01*
X0176755Y0195628D02*
X0176706Y0195630D01*
X0176657Y0195636D01*
X0176608Y0195645D01*
X0176561Y0195658D01*
X0176514Y0195675D01*
X0176469Y0195696D01*
X0176426Y0195720D01*
X0176385Y0195747D01*
X0176346Y0195777D01*
X0176309Y0195810D01*
X0176275Y0195846D01*
X0176244Y0195884D01*
X0176216Y0195925D01*
X0176192Y0195968D01*
X0176170Y0196012D01*
X0176152Y0196058D01*
X0176755Y0195628D02*
X0176804Y0195630D01*
X0176853Y0195636D01*
X0176902Y0195645D01*
X0176949Y0195658D01*
X0176996Y0195675D01*
X0177041Y0195696D01*
X0177084Y0195720D01*
X0177125Y0195747D01*
X0177164Y0195777D01*
X0177201Y0195810D01*
X0177235Y0195846D01*
X0177266Y0195884D01*
X0177294Y0195925D01*
X0177318Y0195968D01*
X0177340Y0196012D01*
X0177358Y0196058D01*
X0175893Y0197178D02*
X0175895Y0197275D01*
X0175900Y0197371D01*
X0175909Y0197467D01*
X0175922Y0197563D01*
X0175939Y0197658D01*
X0175958Y0197753D01*
X0175982Y0197846D01*
X0176009Y0197939D01*
X0176039Y0198031D01*
X0176073Y0198121D01*
X0176111Y0198210D01*
X0176151Y0198298D01*
X0176755Y0198728D02*
X0176804Y0198726D01*
X0176853Y0198720D01*
X0176902Y0198711D01*
X0176949Y0198698D01*
X0176996Y0198681D01*
X0177041Y0198660D01*
X0177084Y0198636D01*
X0177125Y0198609D01*
X0177164Y0198579D01*
X0177201Y0198546D01*
X0177235Y0198510D01*
X0177266Y0198472D01*
X0177294Y0198431D01*
X0177318Y0198388D01*
X0177340Y0198344D01*
X0177358Y0198298D01*
X0177616Y0197178D02*
X0177614Y0197081D01*
X0177609Y0196985D01*
X0177600Y0196889D01*
X0177587Y0196793D01*
X0177571Y0196698D01*
X0177551Y0196604D01*
X0177527Y0196510D01*
X0177500Y0196417D01*
X0177470Y0196325D01*
X0177436Y0196235D01*
X0177398Y0196146D01*
X0177358Y0196058D01*
X0172551Y0196058D02*
X0172511Y0196146D01*
X0172473Y0196235D01*
X0172439Y0196325D01*
X0172409Y0196417D01*
X0172382Y0196510D01*
X0172358Y0196603D01*
X0172338Y0196698D01*
X0172322Y0196793D01*
X0172309Y0196889D01*
X0172300Y0196985D01*
X0172295Y0197081D01*
X0172293Y0197178D01*
X0174016Y0197178D02*
X0174014Y0197275D01*
X0174009Y0197371D01*
X0174000Y0197467D01*
X0173987Y0197563D01*
X0173971Y0197658D01*
X0173951Y0197753D01*
X0173927Y0197846D01*
X0173900Y0197939D01*
X0173870Y0198031D01*
X0173836Y0198121D01*
X0173798Y0198210D01*
X0173758Y0198298D01*
X0173155Y0198728D02*
X0173106Y0198726D01*
X0173057Y0198720D01*
X0173008Y0198711D01*
X0172961Y0198698D01*
X0172914Y0198681D01*
X0172869Y0198660D01*
X0172826Y0198636D01*
X0172785Y0198609D01*
X0172746Y0198579D01*
X0172709Y0198546D01*
X0172675Y0198510D01*
X0172644Y0198472D01*
X0172616Y0198431D01*
X0172592Y0198388D01*
X0172570Y0198344D01*
X0172552Y0198298D01*
X0172466Y0198039D02*
X0173844Y0196317D01*
X0173155Y0195628D02*
X0173106Y0195630D01*
X0173057Y0195636D01*
X0173008Y0195645D01*
X0172961Y0195658D01*
X0172914Y0195675D01*
X0172869Y0195696D01*
X0172826Y0195720D01*
X0172785Y0195747D01*
X0172746Y0195777D01*
X0172709Y0195810D01*
X0172675Y0195846D01*
X0172644Y0195884D01*
X0172616Y0195925D01*
X0172592Y0195968D01*
X0172570Y0196012D01*
X0172552Y0196058D01*
X0173155Y0195628D02*
X0173204Y0195630D01*
X0173253Y0195636D01*
X0173302Y0195645D01*
X0173349Y0195658D01*
X0173396Y0195675D01*
X0173441Y0195696D01*
X0173484Y0195720D01*
X0173525Y0195747D01*
X0173564Y0195777D01*
X0173601Y0195810D01*
X0173635Y0195846D01*
X0173666Y0195884D01*
X0173694Y0195925D01*
X0173718Y0195968D01*
X0173740Y0196012D01*
X0173758Y0196058D01*
X0172293Y0197178D02*
X0172295Y0197275D01*
X0172300Y0197371D01*
X0172309Y0197467D01*
X0172322Y0197563D01*
X0172339Y0197658D01*
X0172358Y0197753D01*
X0172382Y0197846D01*
X0172409Y0197939D01*
X0172439Y0198031D01*
X0172473Y0198121D01*
X0172511Y0198210D01*
X0172551Y0198298D01*
X0173155Y0198728D02*
X0173204Y0198726D01*
X0173253Y0198720D01*
X0173302Y0198711D01*
X0173349Y0198698D01*
X0173396Y0198681D01*
X0173441Y0198660D01*
X0173484Y0198636D01*
X0173525Y0198609D01*
X0173564Y0198579D01*
X0173601Y0198546D01*
X0173635Y0198510D01*
X0173666Y0198472D01*
X0173694Y0198431D01*
X0173718Y0198388D01*
X0173740Y0198344D01*
X0173758Y0198298D01*
X0174405Y0200003D02*
X0174356Y0200005D01*
X0174307Y0200011D01*
X0174258Y0200020D01*
X0174211Y0200033D01*
X0174164Y0200050D01*
X0174119Y0200071D01*
X0174076Y0200095D01*
X0174035Y0200122D01*
X0173996Y0200152D01*
X0173959Y0200185D01*
X0173925Y0200221D01*
X0173894Y0200259D01*
X0173866Y0200300D01*
X0173842Y0200343D01*
X0173820Y0200387D01*
X0173802Y0200433D01*
X0174405Y0200003D02*
X0174454Y0200005D01*
X0174503Y0200011D01*
X0174552Y0200020D01*
X0174599Y0200033D01*
X0174646Y0200050D01*
X0174691Y0200071D01*
X0174734Y0200095D01*
X0174775Y0200122D01*
X0174814Y0200152D01*
X0174851Y0200185D01*
X0174885Y0200221D01*
X0174916Y0200259D01*
X0174944Y0200300D01*
X0174968Y0200343D01*
X0174990Y0200387D01*
X0175008Y0200433D01*
X0175094Y0200692D02*
X0173716Y0202414D01*
X0173802Y0202673D02*
X0173820Y0202719D01*
X0173842Y0202763D01*
X0173866Y0202806D01*
X0173894Y0202847D01*
X0173925Y0202885D01*
X0173959Y0202921D01*
X0173996Y0202954D01*
X0174035Y0202984D01*
X0174076Y0203011D01*
X0174119Y0203035D01*
X0174164Y0203056D01*
X0174211Y0203073D01*
X0174258Y0203086D01*
X0174307Y0203095D01*
X0174356Y0203101D01*
X0174405Y0203103D01*
X0174454Y0203101D01*
X0174503Y0203095D01*
X0174552Y0203086D01*
X0174599Y0203073D01*
X0174646Y0203056D01*
X0174691Y0203035D01*
X0174734Y0203011D01*
X0174775Y0202984D01*
X0174814Y0202954D01*
X0174851Y0202921D01*
X0174885Y0202885D01*
X0174916Y0202847D01*
X0174944Y0202806D01*
X0174968Y0202763D01*
X0174990Y0202719D01*
X0175008Y0202673D01*
X0173801Y0202673D02*
X0173761Y0202585D01*
X0173723Y0202496D01*
X0173689Y0202406D01*
X0173659Y0202314D01*
X0173632Y0202221D01*
X0173608Y0202128D01*
X0173589Y0202033D01*
X0173572Y0201938D01*
X0173559Y0201842D01*
X0173550Y0201746D01*
X0173545Y0201650D01*
X0173543Y0201553D01*
X0175266Y0201553D02*
X0175264Y0201650D01*
X0175259Y0201746D01*
X0175250Y0201842D01*
X0175237Y0201938D01*
X0175221Y0202033D01*
X0175201Y0202128D01*
X0175177Y0202221D01*
X0175150Y0202314D01*
X0175120Y0202406D01*
X0175086Y0202496D01*
X0175048Y0202585D01*
X0175008Y0202673D01*
X0173543Y0201553D02*
X0173545Y0201456D01*
X0173550Y0201360D01*
X0173559Y0201264D01*
X0173572Y0201168D01*
X0173588Y0201073D01*
X0173608Y0200978D01*
X0173632Y0200885D01*
X0173659Y0200792D01*
X0173689Y0200700D01*
X0173723Y0200610D01*
X0173761Y0200521D01*
X0173801Y0200433D01*
X0175008Y0200433D02*
X0175048Y0200521D01*
X0175086Y0200610D01*
X0175120Y0200700D01*
X0175150Y0200792D01*
X0175177Y0200885D01*
X0175201Y0200979D01*
X0175221Y0201073D01*
X0175237Y0201168D01*
X0175250Y0201264D01*
X0175259Y0201360D01*
X0175264Y0201456D01*
X0175266Y0201553D01*
X0171614Y0202070D02*
X0171614Y0200520D01*
X0171612Y0200477D01*
X0171607Y0200435D01*
X0171598Y0200393D01*
X0171586Y0200352D01*
X0171570Y0200312D01*
X0171552Y0200274D01*
X0171530Y0200237D01*
X0171505Y0200202D01*
X0171477Y0200170D01*
X0171447Y0200140D01*
X0171415Y0200112D01*
X0171380Y0200087D01*
X0171343Y0200065D01*
X0171305Y0200047D01*
X0171265Y0200031D01*
X0171224Y0200019D01*
X0171182Y0200010D01*
X0171140Y0200005D01*
X0171097Y0200003D01*
X0170236Y0200003D01*
X0170236Y0202070D01*
X0168172Y0201725D02*
X0166795Y0201725D01*
X0166795Y0203103D02*
X0168172Y0203103D01*
X0168172Y0200003D01*
X0168521Y0198728D02*
X0169555Y0195628D01*
X0170588Y0198728D01*
X0174016Y0197178D02*
X0174014Y0197081D01*
X0174009Y0196985D01*
X0174000Y0196889D01*
X0173987Y0196793D01*
X0173971Y0196698D01*
X0173951Y0196604D01*
X0173927Y0196510D01*
X0173900Y0196417D01*
X0173870Y0196325D01*
X0173836Y0196235D01*
X0173798Y0196146D01*
X0173758Y0196058D01*
X0180355Y0198728D02*
X0181216Y0198039D01*
X0179878Y0206864D02*
X0179878Y0208242D01*
X0179876Y0208300D01*
X0179870Y0208357D01*
X0179861Y0208413D01*
X0179847Y0208469D01*
X0179830Y0208524D01*
X0179810Y0208578D01*
X0179785Y0208630D01*
X0179758Y0208681D01*
X0179727Y0208729D01*
X0179693Y0208776D01*
X0179656Y0208820D01*
X0179616Y0208861D01*
X0179573Y0208900D01*
X0179528Y0208935D01*
X0179480Y0208968D01*
X0179431Y0208997D01*
X0179379Y0209023D01*
X0179326Y0209045D01*
X0179272Y0209064D01*
X0179217Y0209080D01*
X0179160Y0209091D01*
X0179103Y0209099D01*
X0179046Y0209103D01*
X0178988Y0209103D01*
X0178931Y0209099D01*
X0178874Y0209091D01*
X0178817Y0209080D01*
X0178762Y0209064D01*
X0178708Y0209045D01*
X0178655Y0209023D01*
X0178603Y0208997D01*
X0178554Y0208968D01*
X0178506Y0208935D01*
X0178461Y0208900D01*
X0178418Y0208861D01*
X0178378Y0208820D01*
X0178341Y0208776D01*
X0178307Y0208729D01*
X0178276Y0208681D01*
X0178249Y0208630D01*
X0178224Y0208578D01*
X0178204Y0208524D01*
X0178187Y0208469D01*
X0178173Y0208413D01*
X0178164Y0208357D01*
X0178158Y0208300D01*
X0178156Y0208242D01*
X0178156Y0206864D01*
X0178158Y0206806D01*
X0178164Y0206749D01*
X0178173Y0206693D01*
X0178187Y0206637D01*
X0178204Y0206582D01*
X0178224Y0206528D01*
X0178249Y0206476D01*
X0178276Y0206425D01*
X0178307Y0206377D01*
X0178341Y0206330D01*
X0178378Y0206286D01*
X0178418Y0206245D01*
X0178461Y0206206D01*
X0178506Y0206171D01*
X0178554Y0206138D01*
X0178603Y0206109D01*
X0178655Y0206083D01*
X0178708Y0206061D01*
X0178762Y0206042D01*
X0178817Y0206026D01*
X0178874Y0206015D01*
X0178931Y0206007D01*
X0178988Y0206003D01*
X0179046Y0206003D01*
X0179103Y0206007D01*
X0179160Y0206015D01*
X0179217Y0206026D01*
X0179272Y0206042D01*
X0179326Y0206061D01*
X0179379Y0206083D01*
X0179431Y0206109D01*
X0179480Y0206138D01*
X0179528Y0206171D01*
X0179573Y0206206D01*
X0179616Y0206245D01*
X0179656Y0206286D01*
X0179693Y0206330D01*
X0179727Y0206377D01*
X0179758Y0206425D01*
X0179785Y0206476D01*
X0179810Y0206528D01*
X0179830Y0206582D01*
X0179847Y0206637D01*
X0179861Y0206693D01*
X0179870Y0206749D01*
X0179876Y0206806D01*
X0179878Y0206864D01*
X0176466Y0208070D02*
X0175777Y0206003D01*
X0175088Y0208070D01*
X0173466Y0207381D02*
X0173466Y0206520D01*
X0173466Y0207036D02*
X0172088Y0207036D01*
X0172088Y0207381D01*
X0172090Y0207432D01*
X0172096Y0207484D01*
X0172105Y0207534D01*
X0172119Y0207584D01*
X0172136Y0207633D01*
X0172156Y0207680D01*
X0172180Y0207726D01*
X0172208Y0207769D01*
X0172238Y0207811D01*
X0172272Y0207850D01*
X0172308Y0207886D01*
X0172347Y0207920D01*
X0172389Y0207950D01*
X0172433Y0207978D01*
X0172478Y0208002D01*
X0172525Y0208022D01*
X0172574Y0208039D01*
X0172624Y0208053D01*
X0172674Y0208062D01*
X0172726Y0208068D01*
X0172777Y0208070D01*
X0172828Y0208068D01*
X0172880Y0208062D01*
X0172930Y0208053D01*
X0172980Y0208039D01*
X0173029Y0208022D01*
X0173076Y0208002D01*
X0173122Y0207978D01*
X0173165Y0207950D01*
X0173207Y0207920D01*
X0173246Y0207886D01*
X0173282Y0207850D01*
X0173316Y0207811D01*
X0173346Y0207769D01*
X0173374Y0207726D01*
X0173398Y0207680D01*
X0173418Y0207633D01*
X0173435Y0207584D01*
X0173449Y0207534D01*
X0173458Y0207484D01*
X0173464Y0207432D01*
X0173466Y0207381D01*
X0173466Y0206520D02*
X0173464Y0206477D01*
X0173459Y0206435D01*
X0173450Y0206393D01*
X0173438Y0206352D01*
X0173422Y0206312D01*
X0173404Y0206274D01*
X0173382Y0206237D01*
X0173357Y0206202D01*
X0173329Y0206170D01*
X0173299Y0206140D01*
X0173267Y0206112D01*
X0173232Y0206087D01*
X0173195Y0206065D01*
X0173157Y0206047D01*
X0173117Y0206031D01*
X0173076Y0206019D01*
X0173034Y0206010D01*
X0172992Y0206005D01*
X0172949Y0206003D01*
X0172088Y0206003D01*
X0170186Y0206003D02*
X0170186Y0208070D01*
X0169153Y0208070D01*
X0169153Y0207725D01*
X0161923Y0212942D02*
X0161925Y0212994D01*
X0161931Y0213045D01*
X0161940Y0213096D01*
X0161954Y0213147D01*
X0161971Y0213196D01*
X0161991Y0213243D01*
X0162015Y0213289D01*
X0162043Y0213333D01*
X0162073Y0213375D01*
X0162107Y0213415D01*
X0162143Y0213452D01*
X0162182Y0213486D01*
X0162224Y0213517D01*
X0162268Y0213545D01*
X0163215Y0214061D01*
X0162871Y0215354D02*
X0162802Y0215352D01*
X0162733Y0215347D01*
X0162664Y0215337D01*
X0162596Y0215324D01*
X0162529Y0215308D01*
X0162462Y0215288D01*
X0162397Y0215264D01*
X0162334Y0215237D01*
X0162271Y0215206D01*
X0162211Y0215173D01*
X0162152Y0215136D01*
X0162096Y0215096D01*
X0163215Y0214061D02*
X0163259Y0214089D01*
X0163301Y0214120D01*
X0163340Y0214154D01*
X0163376Y0214191D01*
X0163410Y0214231D01*
X0163440Y0214273D01*
X0163468Y0214317D01*
X0163492Y0214363D01*
X0163512Y0214410D01*
X0163529Y0214459D01*
X0163543Y0214510D01*
X0163552Y0214561D01*
X0163558Y0214612D01*
X0163560Y0214664D01*
X0163558Y0214715D01*
X0163552Y0214767D01*
X0163543Y0214817D01*
X0163529Y0214867D01*
X0163512Y0214916D01*
X0163492Y0214963D01*
X0163468Y0215009D01*
X0163440Y0215052D01*
X0163410Y0215094D01*
X0163376Y0215133D01*
X0163340Y0215169D01*
X0163301Y0215203D01*
X0163259Y0215233D01*
X0163216Y0215261D01*
X0163170Y0215285D01*
X0163123Y0215305D01*
X0163074Y0215322D01*
X0163024Y0215336D01*
X0162974Y0215345D01*
X0162922Y0215351D01*
X0162871Y0215353D01*
X0163646Y0212683D02*
X0163594Y0212634D01*
X0163540Y0212587D01*
X0163484Y0212542D01*
X0163425Y0212501D01*
X0163365Y0212462D01*
X0163302Y0212427D01*
X0163238Y0212394D01*
X0163173Y0212365D01*
X0163106Y0212339D01*
X0163038Y0212316D01*
X0162968Y0212297D01*
X0162898Y0212281D01*
X0162828Y0212269D01*
X0162756Y0212260D01*
X0162685Y0212255D01*
X0162613Y0212253D01*
X0162562Y0212255D01*
X0162510Y0212261D01*
X0162460Y0212270D01*
X0162410Y0212284D01*
X0162361Y0212301D01*
X0162314Y0212321D01*
X0162269Y0212345D01*
X0162225Y0212373D01*
X0162183Y0212403D01*
X0162144Y0212437D01*
X0162108Y0212473D01*
X0162074Y0212512D01*
X0162044Y0212554D01*
X0162016Y0212597D01*
X0161992Y0212643D01*
X0161972Y0212690D01*
X0161955Y0212739D01*
X0161941Y0212789D01*
X0161932Y0212839D01*
X0161926Y0212891D01*
X0161924Y0212942D01*
X0160114Y0212253D02*
X0160114Y0215353D01*
X0160114Y0214320D02*
X0159253Y0214320D01*
X0159210Y0214318D01*
X0159168Y0214313D01*
X0159126Y0214304D01*
X0159085Y0214292D01*
X0159045Y0214276D01*
X0159007Y0214258D01*
X0158970Y0214236D01*
X0158935Y0214211D01*
X0158903Y0214183D01*
X0158873Y0214153D01*
X0158845Y0214121D01*
X0158820Y0214086D01*
X0158798Y0214049D01*
X0158780Y0214011D01*
X0158764Y0213971D01*
X0158752Y0213930D01*
X0158743Y0213888D01*
X0158738Y0213846D01*
X0158736Y0213803D01*
X0158736Y0212253D01*
X0156874Y0212942D02*
X0156874Y0213631D01*
X0156872Y0213682D01*
X0156866Y0213734D01*
X0156857Y0213784D01*
X0156843Y0213834D01*
X0156826Y0213883D01*
X0156806Y0213930D01*
X0156782Y0213976D01*
X0156754Y0214019D01*
X0156724Y0214061D01*
X0156690Y0214100D01*
X0156654Y0214136D01*
X0156615Y0214170D01*
X0156573Y0214200D01*
X0156530Y0214228D01*
X0156484Y0214252D01*
X0156437Y0214272D01*
X0156388Y0214289D01*
X0156338Y0214303D01*
X0156288Y0214312D01*
X0156236Y0214318D01*
X0156185Y0214320D01*
X0156134Y0214318D01*
X0156082Y0214312D01*
X0156032Y0214303D01*
X0155982Y0214289D01*
X0155933Y0214272D01*
X0155886Y0214252D01*
X0155841Y0214228D01*
X0155797Y0214200D01*
X0155755Y0214170D01*
X0155716Y0214136D01*
X0155680Y0214100D01*
X0155646Y0214061D01*
X0155616Y0214019D01*
X0155588Y0213976D01*
X0155564Y0213930D01*
X0155544Y0213883D01*
X0155527Y0213834D01*
X0155513Y0213784D01*
X0155504Y0213734D01*
X0155498Y0213682D01*
X0155496Y0213631D01*
X0155496Y0212942D01*
X0155498Y0212891D01*
X0155504Y0212839D01*
X0155513Y0212789D01*
X0155527Y0212739D01*
X0155544Y0212690D01*
X0155564Y0212643D01*
X0155588Y0212598D01*
X0155616Y0212554D01*
X0155646Y0212512D01*
X0155680Y0212473D01*
X0155716Y0212437D01*
X0155755Y0212403D01*
X0155797Y0212373D01*
X0155841Y0212345D01*
X0155886Y0212321D01*
X0155933Y0212301D01*
X0155982Y0212284D01*
X0156032Y0212270D01*
X0156082Y0212261D01*
X0156134Y0212255D01*
X0156185Y0212253D01*
X0156236Y0212255D01*
X0156288Y0212261D01*
X0156338Y0212270D01*
X0156388Y0212284D01*
X0156437Y0212301D01*
X0156484Y0212321D01*
X0156530Y0212345D01*
X0156573Y0212373D01*
X0156615Y0212403D01*
X0156654Y0212437D01*
X0156690Y0212473D01*
X0156724Y0212512D01*
X0156754Y0212554D01*
X0156782Y0212598D01*
X0156806Y0212643D01*
X0156826Y0212690D01*
X0156843Y0212739D01*
X0156857Y0212789D01*
X0156866Y0212839D01*
X0156872Y0212891D01*
X0156874Y0212942D01*
X0153594Y0212253D02*
X0153594Y0214320D01*
X0152560Y0214320D01*
X0152560Y0213975D01*
X0151597Y0214320D02*
X0150564Y0214320D01*
X0151252Y0215353D02*
X0151252Y0212770D01*
X0151253Y0212770D02*
X0151251Y0212727D01*
X0151246Y0212685D01*
X0151237Y0212643D01*
X0151225Y0212602D01*
X0151209Y0212562D01*
X0151191Y0212524D01*
X0151169Y0212487D01*
X0151144Y0212452D01*
X0151116Y0212420D01*
X0151086Y0212390D01*
X0151054Y0212362D01*
X0151019Y0212337D01*
X0150982Y0212315D01*
X0150944Y0212297D01*
X0150904Y0212281D01*
X0150863Y0212269D01*
X0150821Y0212260D01*
X0150779Y0212255D01*
X0150736Y0212253D01*
X0150564Y0212253D01*
X0151338Y0209353D02*
X0149616Y0206253D01*
X0149616Y0209353D01*
X0151338Y0209353D02*
X0151338Y0206253D01*
X0153336Y0207114D02*
X0153336Y0208492D01*
X0153338Y0208550D01*
X0153344Y0208607D01*
X0153353Y0208663D01*
X0153367Y0208719D01*
X0153384Y0208774D01*
X0153404Y0208828D01*
X0153429Y0208880D01*
X0153456Y0208931D01*
X0153487Y0208979D01*
X0153521Y0209026D01*
X0153558Y0209070D01*
X0153598Y0209111D01*
X0153641Y0209150D01*
X0153686Y0209185D01*
X0153734Y0209218D01*
X0153783Y0209247D01*
X0153835Y0209273D01*
X0153888Y0209295D01*
X0153942Y0209314D01*
X0153997Y0209330D01*
X0154054Y0209341D01*
X0154111Y0209349D01*
X0154168Y0209353D01*
X0154226Y0209353D01*
X0154283Y0209349D01*
X0154340Y0209341D01*
X0154397Y0209330D01*
X0154452Y0209314D01*
X0154506Y0209295D01*
X0154559Y0209273D01*
X0154611Y0209247D01*
X0154660Y0209218D01*
X0154708Y0209185D01*
X0154753Y0209150D01*
X0154796Y0209111D01*
X0154836Y0209070D01*
X0154873Y0209026D01*
X0154907Y0208979D01*
X0154938Y0208931D01*
X0154965Y0208880D01*
X0154990Y0208828D01*
X0155010Y0208774D01*
X0155027Y0208719D01*
X0155041Y0208663D01*
X0155050Y0208607D01*
X0155056Y0208550D01*
X0155058Y0208492D01*
X0155058Y0207114D01*
X0155056Y0207056D01*
X0155050Y0206999D01*
X0155041Y0206943D01*
X0155027Y0206887D01*
X0155010Y0206832D01*
X0154990Y0206778D01*
X0154965Y0206726D01*
X0154938Y0206675D01*
X0154907Y0206627D01*
X0154873Y0206580D01*
X0154836Y0206536D01*
X0154796Y0206495D01*
X0154753Y0206456D01*
X0154708Y0206421D01*
X0154660Y0206388D01*
X0154611Y0206359D01*
X0154559Y0206333D01*
X0154506Y0206311D01*
X0154452Y0206292D01*
X0154397Y0206276D01*
X0154340Y0206265D01*
X0154283Y0206257D01*
X0154226Y0206253D01*
X0154168Y0206253D01*
X0154111Y0206257D01*
X0154054Y0206265D01*
X0153997Y0206276D01*
X0153942Y0206292D01*
X0153888Y0206311D01*
X0153835Y0206333D01*
X0153783Y0206359D01*
X0153734Y0206388D01*
X0153686Y0206421D01*
X0153641Y0206456D01*
X0153598Y0206495D01*
X0153558Y0206536D01*
X0153521Y0206580D01*
X0153487Y0206627D01*
X0153456Y0206675D01*
X0153429Y0206726D01*
X0153404Y0206778D01*
X0153384Y0206832D01*
X0153367Y0206887D01*
X0153353Y0206943D01*
X0153344Y0206999D01*
X0153338Y0207056D01*
X0153336Y0207114D01*
X0157004Y0206942D02*
X0159070Y0206942D01*
X0159070Y0207975D02*
X0157004Y0207975D01*
X0126533Y0196367D02*
X0126533Y0194989D01*
X0126532Y0194989D02*
X0126530Y0194931D01*
X0126524Y0194874D01*
X0126515Y0194818D01*
X0126501Y0194762D01*
X0126484Y0194707D01*
X0126464Y0194653D01*
X0126439Y0194601D01*
X0126412Y0194550D01*
X0126381Y0194502D01*
X0126347Y0194455D01*
X0126310Y0194411D01*
X0126270Y0194370D01*
X0126227Y0194331D01*
X0126182Y0194296D01*
X0126134Y0194263D01*
X0126085Y0194234D01*
X0126033Y0194208D01*
X0125980Y0194186D01*
X0125926Y0194167D01*
X0125871Y0194151D01*
X0125814Y0194140D01*
X0125757Y0194132D01*
X0125700Y0194128D01*
X0125642Y0194128D01*
X0125585Y0194132D01*
X0125528Y0194140D01*
X0125471Y0194151D01*
X0125416Y0194167D01*
X0125362Y0194186D01*
X0125309Y0194208D01*
X0125257Y0194234D01*
X0125208Y0194263D01*
X0125160Y0194296D01*
X0125115Y0194331D01*
X0125072Y0194370D01*
X0125032Y0194411D01*
X0124995Y0194455D01*
X0124961Y0194502D01*
X0124930Y0194550D01*
X0124903Y0194601D01*
X0124878Y0194653D01*
X0124858Y0194707D01*
X0124841Y0194762D01*
X0124827Y0194818D01*
X0124818Y0194874D01*
X0124812Y0194931D01*
X0124810Y0194989D01*
X0124810Y0196367D01*
X0124812Y0196425D01*
X0124818Y0196482D01*
X0124827Y0196538D01*
X0124841Y0196594D01*
X0124858Y0196649D01*
X0124878Y0196703D01*
X0124903Y0196755D01*
X0124930Y0196806D01*
X0124961Y0196854D01*
X0124995Y0196901D01*
X0125032Y0196945D01*
X0125072Y0196986D01*
X0125115Y0197025D01*
X0125160Y0197060D01*
X0125208Y0197093D01*
X0125257Y0197122D01*
X0125309Y0197148D01*
X0125362Y0197170D01*
X0125416Y0197189D01*
X0125471Y0197205D01*
X0125528Y0197216D01*
X0125585Y0197224D01*
X0125642Y0197228D01*
X0125700Y0197228D01*
X0125757Y0197224D01*
X0125814Y0197216D01*
X0125871Y0197205D01*
X0125926Y0197189D01*
X0125980Y0197170D01*
X0126033Y0197148D01*
X0126085Y0197122D01*
X0126134Y0197093D01*
X0126182Y0197060D01*
X0126227Y0197025D01*
X0126270Y0196986D01*
X0126310Y0196945D01*
X0126347Y0196901D01*
X0126381Y0196854D01*
X0126412Y0196806D01*
X0126439Y0196755D01*
X0126464Y0196703D01*
X0126484Y0196649D01*
X0126501Y0196594D01*
X0126515Y0196538D01*
X0126524Y0196482D01*
X0126530Y0196425D01*
X0126532Y0196367D01*
X0125155Y0194817D02*
X0124466Y0194128D01*
X0123213Y0194128D02*
X0121491Y0194128D01*
X0122352Y0194128D02*
X0122352Y0197228D01*
X0123213Y0196539D01*
X0125088Y0183900D02*
X0125088Y0183211D01*
X0125088Y0183900D02*
X0125090Y0183951D01*
X0125096Y0184003D01*
X0125105Y0184053D01*
X0125119Y0184103D01*
X0125136Y0184152D01*
X0125156Y0184199D01*
X0125180Y0184245D01*
X0125208Y0184288D01*
X0125238Y0184330D01*
X0125272Y0184369D01*
X0125308Y0184405D01*
X0125347Y0184439D01*
X0125389Y0184469D01*
X0125433Y0184497D01*
X0125478Y0184521D01*
X0125525Y0184541D01*
X0125574Y0184558D01*
X0125624Y0184572D01*
X0125674Y0184581D01*
X0125726Y0184587D01*
X0125777Y0184589D01*
X0125828Y0184587D01*
X0125880Y0184581D01*
X0125930Y0184572D01*
X0125980Y0184558D01*
X0126029Y0184541D01*
X0126076Y0184521D01*
X0126122Y0184497D01*
X0126165Y0184469D01*
X0126207Y0184439D01*
X0126246Y0184405D01*
X0126282Y0184369D01*
X0126316Y0184330D01*
X0126346Y0184288D01*
X0126374Y0184245D01*
X0126398Y0184199D01*
X0126418Y0184152D01*
X0126435Y0184103D01*
X0126449Y0184053D01*
X0126458Y0184003D01*
X0126464Y0183951D01*
X0126466Y0183900D01*
X0126466Y0182866D01*
X0126466Y0181224D02*
X0126466Y0180535D01*
X0126464Y0180484D01*
X0126458Y0180432D01*
X0126449Y0180382D01*
X0126435Y0180332D01*
X0126418Y0180283D01*
X0126398Y0180236D01*
X0126374Y0180191D01*
X0126346Y0180147D01*
X0126316Y0180105D01*
X0126282Y0180066D01*
X0126246Y0180030D01*
X0126207Y0179996D01*
X0126165Y0179966D01*
X0126122Y0179938D01*
X0126076Y0179914D01*
X0126029Y0179894D01*
X0125980Y0179877D01*
X0125930Y0179863D01*
X0125880Y0179854D01*
X0125828Y0179848D01*
X0125777Y0179846D01*
X0125777Y0179847D02*
X0124055Y0179847D01*
X0124055Y0179846D02*
X0124004Y0179848D01*
X0123952Y0179854D01*
X0123902Y0179863D01*
X0123852Y0179877D01*
X0123803Y0179894D01*
X0123756Y0179914D01*
X0123711Y0179938D01*
X0123667Y0179966D01*
X0123625Y0179996D01*
X0123586Y0180030D01*
X0123550Y0180066D01*
X0123516Y0180105D01*
X0123486Y0180147D01*
X0123458Y0180191D01*
X0123434Y0180236D01*
X0123414Y0180283D01*
X0123397Y0180332D01*
X0123383Y0180382D01*
X0123374Y0180432D01*
X0123368Y0180484D01*
X0123366Y0180535D01*
X0123366Y0181224D01*
X0123366Y0182866D02*
X0123366Y0183728D01*
X0123368Y0183786D01*
X0123374Y0183843D01*
X0123383Y0183899D01*
X0123397Y0183955D01*
X0123414Y0184010D01*
X0123434Y0184064D01*
X0123459Y0184116D01*
X0123486Y0184167D01*
X0123517Y0184215D01*
X0123551Y0184262D01*
X0123588Y0184306D01*
X0123628Y0184347D01*
X0123671Y0184386D01*
X0123716Y0184421D01*
X0123764Y0184454D01*
X0123813Y0184483D01*
X0123865Y0184509D01*
X0123918Y0184531D01*
X0123972Y0184550D01*
X0124027Y0184566D01*
X0124084Y0184577D01*
X0124141Y0184585D01*
X0124198Y0184589D01*
X0124256Y0184589D01*
X0124313Y0184585D01*
X0124370Y0184577D01*
X0124427Y0184566D01*
X0124482Y0184550D01*
X0124536Y0184531D01*
X0124589Y0184509D01*
X0124641Y0184483D01*
X0124690Y0184454D01*
X0124738Y0184421D01*
X0124783Y0184386D01*
X0124826Y0184347D01*
X0124866Y0184306D01*
X0124903Y0184262D01*
X0124937Y0184215D01*
X0124968Y0184167D01*
X0124995Y0184116D01*
X0125020Y0184064D01*
X0125040Y0184010D01*
X0125057Y0183955D01*
X0125071Y0183899D01*
X0125080Y0183843D01*
X0125086Y0183786D01*
X0125088Y0183728D01*
X0126466Y0178192D02*
X0126466Y0177503D01*
X0126466Y0177848D02*
X0123366Y0177848D01*
X0123366Y0178192D02*
X0123366Y0177503D01*
X0088341Y0200628D02*
X0088341Y0201489D01*
X0088341Y0200628D02*
X0085241Y0200628D01*
X0086619Y0200628D02*
X0086619Y0201489D01*
X0086619Y0201661D02*
X0085241Y0202350D01*
X0086619Y0201489D02*
X0086621Y0201547D01*
X0086627Y0201604D01*
X0086636Y0201660D01*
X0086650Y0201716D01*
X0086667Y0201771D01*
X0086687Y0201825D01*
X0086712Y0201877D01*
X0086739Y0201928D01*
X0086770Y0201976D01*
X0086804Y0202023D01*
X0086841Y0202067D01*
X0086881Y0202108D01*
X0086924Y0202147D01*
X0086969Y0202182D01*
X0087017Y0202215D01*
X0087066Y0202244D01*
X0087118Y0202270D01*
X0087171Y0202292D01*
X0087225Y0202311D01*
X0087280Y0202327D01*
X0087337Y0202338D01*
X0087394Y0202346D01*
X0087451Y0202350D01*
X0087509Y0202350D01*
X0087566Y0202346D01*
X0087623Y0202338D01*
X0087680Y0202327D01*
X0087735Y0202311D01*
X0087789Y0202292D01*
X0087842Y0202270D01*
X0087894Y0202244D01*
X0087943Y0202215D01*
X0087991Y0202182D01*
X0088036Y0202147D01*
X0088079Y0202108D01*
X0088119Y0202067D01*
X0088156Y0202023D01*
X0088190Y0201976D01*
X0088221Y0201928D01*
X0088248Y0201877D01*
X0088273Y0201825D01*
X0088293Y0201771D01*
X0088310Y0201716D01*
X0088324Y0201660D01*
X0088333Y0201604D01*
X0088339Y0201547D01*
X0088341Y0201489D01*
X0088341Y0204184D02*
X0088341Y0205906D01*
X0085241Y0205045D01*
X0087996Y0204184D02*
X0088341Y0204184D01*
D11*
X0171566Y0129060D02*
X0174816Y0129060D01*
X0174816Y0127976D01*
X0174814Y0127927D01*
X0174809Y0127879D01*
X0174800Y0127831D01*
X0174787Y0127784D01*
X0174771Y0127739D01*
X0174752Y0127694D01*
X0174729Y0127651D01*
X0174703Y0127610D01*
X0174674Y0127571D01*
X0174642Y0127534D01*
X0174608Y0127500D01*
X0174571Y0127468D01*
X0174532Y0127439D01*
X0174491Y0127413D01*
X0174448Y0127390D01*
X0174403Y0127371D01*
X0174358Y0127355D01*
X0174311Y0127342D01*
X0174263Y0127333D01*
X0174215Y0127328D01*
X0174166Y0127326D01*
X0172866Y0127326D01*
X0172817Y0127328D01*
X0172769Y0127333D01*
X0172721Y0127342D01*
X0172674Y0127355D01*
X0172629Y0127371D01*
X0172584Y0127390D01*
X0172541Y0127413D01*
X0172500Y0127439D01*
X0172461Y0127468D01*
X0172424Y0127500D01*
X0172390Y0127534D01*
X0172358Y0127571D01*
X0172329Y0127610D01*
X0172303Y0127651D01*
X0172280Y0127694D01*
X0172261Y0127739D01*
X0172245Y0127784D01*
X0172232Y0127831D01*
X0172223Y0127879D01*
X0172218Y0127927D01*
X0172216Y0127976D01*
X0172216Y0129060D01*
X0171566Y0129060D02*
X0171517Y0129058D01*
X0171469Y0129053D01*
X0171421Y0129044D01*
X0171374Y0129031D01*
X0171329Y0129015D01*
X0171284Y0128996D01*
X0171241Y0128973D01*
X0171200Y0128947D01*
X0171161Y0128918D01*
X0171124Y0128886D01*
X0171090Y0128852D01*
X0171058Y0128815D01*
X0171029Y0128776D01*
X0171003Y0128735D01*
X0170980Y0128692D01*
X0170961Y0128647D01*
X0170945Y0128602D01*
X0170932Y0128555D01*
X0170923Y0128507D01*
X0170918Y0128459D01*
X0170916Y0128410D01*
X0170916Y0127543D01*
X0172216Y0125053D02*
X0174166Y0125053D01*
X0174215Y0125051D01*
X0174263Y0125046D01*
X0174311Y0125037D01*
X0174358Y0125024D01*
X0174403Y0125008D01*
X0174448Y0124989D01*
X0174491Y0124966D01*
X0174532Y0124940D01*
X0174571Y0124911D01*
X0174608Y0124879D01*
X0174642Y0124845D01*
X0174674Y0124808D01*
X0174703Y0124769D01*
X0174729Y0124728D01*
X0174752Y0124685D01*
X0174771Y0124640D01*
X0174787Y0124595D01*
X0174800Y0124548D01*
X0174809Y0124500D01*
X0174814Y0124452D01*
X0174816Y0124403D01*
X0174816Y0123320D01*
X0172216Y0123320D01*
X0172216Y0121186D02*
X0174816Y0121186D01*
X0175899Y0121295D02*
X0175899Y0121078D01*
X0176116Y0121078D01*
X0176116Y0121295D01*
X0175899Y0121295D01*
X0177841Y0121252D02*
X0177841Y0121468D01*
X0177841Y0121252D02*
X0177843Y0121203D01*
X0177848Y0121155D01*
X0177857Y0121107D01*
X0177870Y0121060D01*
X0177886Y0121015D01*
X0177905Y0120970D01*
X0177928Y0120927D01*
X0177954Y0120886D01*
X0177983Y0120847D01*
X0178015Y0120810D01*
X0178049Y0120776D01*
X0178086Y0120744D01*
X0178125Y0120715D01*
X0178166Y0120689D01*
X0178209Y0120666D01*
X0178254Y0120647D01*
X0178299Y0120631D01*
X0178346Y0120618D01*
X0178394Y0120609D01*
X0178442Y0120604D01*
X0178491Y0120602D01*
X0181741Y0120602D01*
X0180441Y0120168D02*
X0180441Y0121468D01*
X0180441Y0118969D02*
X0180008Y0118969D01*
X0180441Y0118969D02*
X0180441Y0117669D01*
X0177841Y0117669D01*
X0172432Y0117470D02*
X0172396Y0117574D01*
X0172363Y0117680D01*
X0172334Y0117787D01*
X0172308Y0117894D01*
X0172285Y0118002D01*
X0172265Y0118111D01*
X0172248Y0118221D01*
X0172235Y0118330D01*
X0172225Y0118441D01*
X0172219Y0118551D01*
X0172215Y0118662D01*
X0172216Y0118661D02*
X0172217Y0118707D01*
X0172222Y0118752D01*
X0172231Y0118797D01*
X0172243Y0118842D01*
X0172259Y0118885D01*
X0172278Y0118926D01*
X0172301Y0118966D01*
X0172327Y0119004D01*
X0172356Y0119040D01*
X0172387Y0119073D01*
X0172421Y0119103D01*
X0172458Y0119131D01*
X0172497Y0119156D01*
X0172537Y0119177D01*
X0172580Y0119195D01*
X0172623Y0119209D01*
X0172668Y0119220D01*
X0172713Y0119227D01*
X0172759Y0119231D01*
X0172805Y0119230D01*
X0172850Y0119226D01*
X0172896Y0119219D01*
X0172940Y0119207D01*
X0172983Y0119192D01*
X0173025Y0119174D01*
X0173066Y0119152D01*
X0173104Y0119127D01*
X0173140Y0119099D01*
X0173174Y0119068D01*
X0173205Y0119034D01*
X0173234Y0118998D01*
X0173259Y0118960D01*
X0173281Y0118920D01*
X0173300Y0118878D01*
X0173299Y0118878D02*
X0173733Y0117795D01*
X0173732Y0117794D02*
X0173751Y0117752D01*
X0173773Y0117712D01*
X0173798Y0117674D01*
X0173827Y0117638D01*
X0173858Y0117604D01*
X0173892Y0117573D01*
X0173928Y0117545D01*
X0173966Y0117520D01*
X0174007Y0117498D01*
X0174049Y0117480D01*
X0174092Y0117465D01*
X0174136Y0117453D01*
X0174182Y0117446D01*
X0174227Y0117442D01*
X0174273Y0117441D01*
X0174319Y0117445D01*
X0174364Y0117452D01*
X0174409Y0117463D01*
X0174452Y0117477D01*
X0174495Y0117495D01*
X0174535Y0117516D01*
X0174574Y0117541D01*
X0174611Y0117569D01*
X0174645Y0117599D01*
X0174676Y0117632D01*
X0174705Y0117668D01*
X0174731Y0117706D01*
X0174754Y0117746D01*
X0174773Y0117787D01*
X0174789Y0117830D01*
X0174801Y0117875D01*
X0174810Y0117920D01*
X0174815Y0117965D01*
X0174816Y0118011D01*
X0174813Y0118103D01*
X0174806Y0118194D01*
X0174797Y0118285D01*
X0174783Y0118375D01*
X0174767Y0118465D01*
X0174747Y0118554D01*
X0174724Y0118643D01*
X0174698Y0118730D01*
X0174668Y0118817D01*
X0174635Y0118902D01*
X0174599Y0118986D01*
X0174166Y0115153D02*
X0172216Y0115153D01*
X0172216Y0113420D02*
X0174816Y0113420D01*
X0174816Y0114503D01*
X0174814Y0114552D01*
X0174809Y0114600D01*
X0174800Y0114648D01*
X0174787Y0114695D01*
X0174771Y0114740D01*
X0174752Y0114785D01*
X0174729Y0114828D01*
X0174703Y0114869D01*
X0174674Y0114908D01*
X0174642Y0114945D01*
X0174608Y0114979D01*
X0174571Y0115011D01*
X0174532Y0115040D01*
X0174491Y0115066D01*
X0174448Y0115089D01*
X0174403Y0115108D01*
X0174358Y0115124D01*
X0174311Y0115137D01*
X0174263Y0115146D01*
X0174215Y0115151D01*
X0174166Y0115153D01*
X0173949Y0111103D02*
X0173516Y0111103D01*
X0173516Y0109370D01*
X0173949Y0109370D02*
X0172866Y0109370D01*
X0172817Y0109372D01*
X0172769Y0109377D01*
X0172721Y0109386D01*
X0172674Y0109399D01*
X0172629Y0109415D01*
X0172584Y0109434D01*
X0172541Y0109457D01*
X0172500Y0109483D01*
X0172461Y0109512D01*
X0172424Y0109544D01*
X0172390Y0109578D01*
X0172358Y0109615D01*
X0172329Y0109654D01*
X0172303Y0109695D01*
X0172280Y0109738D01*
X0172261Y0109783D01*
X0172245Y0109828D01*
X0172232Y0109875D01*
X0172223Y0109923D01*
X0172218Y0109971D01*
X0172216Y0110020D01*
X0172216Y0111103D01*
X0173949Y0111103D02*
X0174007Y0111101D01*
X0174065Y0111095D01*
X0174122Y0111086D01*
X0174178Y0111072D01*
X0174233Y0111055D01*
X0174287Y0111034D01*
X0174340Y0111010D01*
X0174391Y0110982D01*
X0174440Y0110951D01*
X0174486Y0110916D01*
X0174531Y0110879D01*
X0174572Y0110839D01*
X0174611Y0110796D01*
X0174647Y0110750D01*
X0174680Y0110703D01*
X0174709Y0110653D01*
X0174735Y0110601D01*
X0174758Y0110548D01*
X0174777Y0110493D01*
X0174792Y0110437D01*
X0174804Y0110380D01*
X0174812Y0110323D01*
X0174816Y0110265D01*
X0174816Y0110207D01*
X0174812Y0110149D01*
X0174804Y0110092D01*
X0174792Y0110035D01*
X0174777Y0109979D01*
X0174758Y0109924D01*
X0174735Y0109871D01*
X0174709Y0109819D01*
X0174680Y0109769D01*
X0174647Y0109722D01*
X0174611Y0109676D01*
X0174572Y0109633D01*
X0174531Y0109593D01*
X0174486Y0109556D01*
X0174440Y0109521D01*
X0174391Y0109490D01*
X0174340Y0109462D01*
X0174287Y0109438D01*
X0174233Y0109417D01*
X0174178Y0109400D01*
X0174122Y0109386D01*
X0174065Y0109377D01*
X0174007Y0109371D01*
X0173949Y0109369D01*
X0173841Y0106836D02*
X0174491Y0105645D01*
X0176116Y0106078D02*
X0176114Y0106153D01*
X0176109Y0106227D01*
X0176101Y0106301D01*
X0176089Y0106375D01*
X0176073Y0106448D01*
X0176055Y0106520D01*
X0176033Y0106592D01*
X0176007Y0106662D01*
X0175979Y0106731D01*
X0175947Y0106799D01*
X0175913Y0106865D01*
X0175875Y0106930D01*
X0175834Y0106992D01*
X0175791Y0107053D01*
X0174491Y0105645D02*
X0174521Y0105597D01*
X0174555Y0105551D01*
X0174592Y0105507D01*
X0174631Y0105466D01*
X0174673Y0105427D01*
X0174717Y0105391D01*
X0174764Y0105358D01*
X0174812Y0105328D01*
X0174863Y0105301D01*
X0174915Y0105278D01*
X0174968Y0105258D01*
X0175023Y0105241D01*
X0175079Y0105229D01*
X0175135Y0105219D01*
X0175192Y0105214D01*
X0175249Y0105212D01*
X0175249Y0105211D02*
X0175306Y0105213D01*
X0175362Y0105218D01*
X0175418Y0105228D01*
X0175473Y0105241D01*
X0175528Y0105257D01*
X0175581Y0105277D01*
X0175632Y0105300D01*
X0175683Y0105327D01*
X0175731Y0105357D01*
X0175777Y0105390D01*
X0175821Y0105426D01*
X0175862Y0105465D01*
X0175901Y0105506D01*
X0175937Y0105550D01*
X0175970Y0105596D01*
X0176000Y0105645D01*
X0176027Y0105695D01*
X0176050Y0105746D01*
X0176070Y0105799D01*
X0176086Y0105854D01*
X0176099Y0105909D01*
X0176109Y0105965D01*
X0176114Y0106021D01*
X0176116Y0106078D01*
X0172758Y0105103D02*
X0172699Y0105164D01*
X0172643Y0105228D01*
X0172590Y0105295D01*
X0172540Y0105363D01*
X0172493Y0105435D01*
X0172450Y0105508D01*
X0172410Y0105583D01*
X0172374Y0105660D01*
X0172341Y0105738D01*
X0172312Y0105818D01*
X0172287Y0105899D01*
X0172265Y0105982D01*
X0172248Y0106065D01*
X0172234Y0106149D01*
X0172224Y0106233D01*
X0172218Y0106318D01*
X0172216Y0106403D01*
X0172218Y0106460D01*
X0172223Y0106516D01*
X0172233Y0106572D01*
X0172246Y0106627D01*
X0172262Y0106682D01*
X0172282Y0106735D01*
X0172305Y0106786D01*
X0172332Y0106837D01*
X0172362Y0106885D01*
X0172395Y0106931D01*
X0172431Y0106975D01*
X0172470Y0107016D01*
X0172511Y0107055D01*
X0172555Y0107091D01*
X0172601Y0107124D01*
X0172650Y0107154D01*
X0172700Y0107181D01*
X0172751Y0107204D01*
X0172804Y0107224D01*
X0172859Y0107240D01*
X0172914Y0107253D01*
X0172970Y0107263D01*
X0173026Y0107268D01*
X0173083Y0107270D01*
X0173140Y0107268D01*
X0173197Y0107263D01*
X0173253Y0107253D01*
X0173309Y0107241D01*
X0173364Y0107224D01*
X0173417Y0107204D01*
X0173469Y0107181D01*
X0173520Y0107154D01*
X0173568Y0107124D01*
X0173615Y0107091D01*
X0173659Y0107055D01*
X0173701Y0107016D01*
X0173740Y0106975D01*
X0173777Y0106931D01*
X0173811Y0106885D01*
X0173841Y0106837D01*
X0177841Y0109520D02*
X0181741Y0109520D01*
X0180441Y0109520D02*
X0180441Y0110603D01*
X0180439Y0110652D01*
X0180434Y0110700D01*
X0180425Y0110748D01*
X0180412Y0110795D01*
X0180396Y0110840D01*
X0180377Y0110885D01*
X0180354Y0110928D01*
X0180328Y0110969D01*
X0180299Y0111008D01*
X0180267Y0111045D01*
X0180233Y0111079D01*
X0180196Y0111111D01*
X0180157Y0111140D01*
X0180116Y0111166D01*
X0180073Y0111189D01*
X0180028Y0111208D01*
X0179983Y0111224D01*
X0179936Y0111237D01*
X0179888Y0111246D01*
X0179840Y0111251D01*
X0179791Y0111253D01*
X0177841Y0111253D01*
X0178708Y0113570D02*
X0179574Y0113570D01*
X0179574Y0113569D02*
X0179632Y0113571D01*
X0179690Y0113577D01*
X0179747Y0113586D01*
X0179803Y0113600D01*
X0179858Y0113617D01*
X0179912Y0113638D01*
X0179965Y0113662D01*
X0180016Y0113690D01*
X0180065Y0113721D01*
X0180111Y0113756D01*
X0180156Y0113793D01*
X0180197Y0113833D01*
X0180236Y0113876D01*
X0180272Y0113922D01*
X0180305Y0113969D01*
X0180334Y0114019D01*
X0180360Y0114071D01*
X0180383Y0114124D01*
X0180402Y0114179D01*
X0180417Y0114235D01*
X0180429Y0114292D01*
X0180437Y0114349D01*
X0180441Y0114407D01*
X0180441Y0114465D01*
X0180437Y0114523D01*
X0180429Y0114580D01*
X0180417Y0114637D01*
X0180402Y0114693D01*
X0180383Y0114748D01*
X0180360Y0114801D01*
X0180334Y0114853D01*
X0180305Y0114903D01*
X0180272Y0114950D01*
X0180236Y0114996D01*
X0180197Y0115039D01*
X0180156Y0115079D01*
X0180111Y0115116D01*
X0180065Y0115151D01*
X0180016Y0115182D01*
X0179965Y0115210D01*
X0179912Y0115234D01*
X0179858Y0115255D01*
X0179803Y0115272D01*
X0179747Y0115286D01*
X0179690Y0115295D01*
X0179632Y0115301D01*
X0179574Y0115303D01*
X0178708Y0115303D01*
X0178650Y0115301D01*
X0178592Y0115295D01*
X0178535Y0115286D01*
X0178479Y0115272D01*
X0178424Y0115255D01*
X0178370Y0115234D01*
X0178317Y0115210D01*
X0178266Y0115182D01*
X0178217Y0115151D01*
X0178171Y0115116D01*
X0178126Y0115079D01*
X0178085Y0115039D01*
X0178046Y0114996D01*
X0178010Y0114950D01*
X0177977Y0114903D01*
X0177948Y0114853D01*
X0177922Y0114801D01*
X0177899Y0114748D01*
X0177880Y0114693D01*
X0177865Y0114637D01*
X0177853Y0114580D01*
X0177845Y0114523D01*
X0177841Y0114465D01*
X0177841Y0114407D01*
X0177845Y0114349D01*
X0177853Y0114292D01*
X0177865Y0114235D01*
X0177880Y0114179D01*
X0177899Y0114124D01*
X0177922Y0114071D01*
X0177948Y0114019D01*
X0177977Y0113969D01*
X0178010Y0113922D01*
X0178046Y0113876D01*
X0178085Y0113833D01*
X0178126Y0113793D01*
X0178171Y0113756D01*
X0178217Y0113721D01*
X0178266Y0113690D01*
X0178317Y0113662D01*
X0178370Y0113638D01*
X0178424Y0113617D01*
X0178479Y0113600D01*
X0178535Y0113586D01*
X0178592Y0113577D01*
X0178650Y0113571D01*
X0178708Y0113569D01*
X0179466Y0106836D02*
X0180116Y0105645D01*
X0181741Y0106078D02*
X0181739Y0106153D01*
X0181734Y0106227D01*
X0181726Y0106301D01*
X0181714Y0106375D01*
X0181698Y0106448D01*
X0181680Y0106520D01*
X0181658Y0106592D01*
X0181632Y0106662D01*
X0181604Y0106731D01*
X0181572Y0106799D01*
X0181538Y0106865D01*
X0181500Y0106930D01*
X0181459Y0106992D01*
X0181416Y0107053D01*
X0180116Y0105645D02*
X0180146Y0105597D01*
X0180180Y0105551D01*
X0180217Y0105507D01*
X0180256Y0105466D01*
X0180298Y0105427D01*
X0180342Y0105391D01*
X0180389Y0105358D01*
X0180437Y0105328D01*
X0180488Y0105301D01*
X0180540Y0105278D01*
X0180593Y0105258D01*
X0180648Y0105241D01*
X0180704Y0105229D01*
X0180760Y0105219D01*
X0180817Y0105214D01*
X0180874Y0105212D01*
X0180874Y0105211D02*
X0180931Y0105213D01*
X0180987Y0105218D01*
X0181043Y0105228D01*
X0181098Y0105241D01*
X0181153Y0105257D01*
X0181206Y0105277D01*
X0181257Y0105300D01*
X0181308Y0105327D01*
X0181356Y0105357D01*
X0181402Y0105390D01*
X0181446Y0105426D01*
X0181487Y0105465D01*
X0181526Y0105506D01*
X0181562Y0105550D01*
X0181595Y0105596D01*
X0181625Y0105645D01*
X0181652Y0105695D01*
X0181675Y0105746D01*
X0181695Y0105799D01*
X0181711Y0105854D01*
X0181724Y0105909D01*
X0181734Y0105965D01*
X0181739Y0106021D01*
X0181741Y0106078D01*
X0178383Y0105103D02*
X0178324Y0105164D01*
X0178268Y0105228D01*
X0178215Y0105295D01*
X0178165Y0105363D01*
X0178118Y0105435D01*
X0178075Y0105508D01*
X0178035Y0105583D01*
X0177999Y0105660D01*
X0177966Y0105738D01*
X0177937Y0105818D01*
X0177912Y0105899D01*
X0177890Y0105982D01*
X0177873Y0106065D01*
X0177859Y0106149D01*
X0177849Y0106233D01*
X0177843Y0106318D01*
X0177841Y0106403D01*
X0177843Y0106460D01*
X0177848Y0106516D01*
X0177858Y0106572D01*
X0177871Y0106627D01*
X0177887Y0106682D01*
X0177907Y0106735D01*
X0177930Y0106786D01*
X0177957Y0106837D01*
X0177987Y0106885D01*
X0178020Y0106931D01*
X0178056Y0106975D01*
X0178095Y0107016D01*
X0178136Y0107055D01*
X0178180Y0107091D01*
X0178226Y0107124D01*
X0178275Y0107154D01*
X0178325Y0107181D01*
X0178376Y0107204D01*
X0178429Y0107224D01*
X0178484Y0107240D01*
X0178539Y0107253D01*
X0178595Y0107263D01*
X0178651Y0107268D01*
X0178708Y0107270D01*
X0178765Y0107268D01*
X0178822Y0107263D01*
X0178878Y0107253D01*
X0178934Y0107241D01*
X0178989Y0107224D01*
X0179042Y0107204D01*
X0179094Y0107181D01*
X0179145Y0107154D01*
X0179193Y0107124D01*
X0179240Y0107091D01*
X0179284Y0107055D01*
X0179326Y0107016D01*
X0179365Y0106975D01*
X0179402Y0106931D01*
X0179436Y0106885D01*
X0179466Y0106837D01*
X0164866Y0072753D02*
X0163783Y0072753D01*
X0164866Y0072753D02*
X0164866Y0068853D01*
X0164866Y0070586D02*
X0163783Y0070586D01*
X0163566Y0070586D02*
X0162699Y0068853D01*
X0159789Y0068853D02*
X0158814Y0068853D01*
X0158814Y0070803D01*
X0158814Y0070370D02*
X0159789Y0070370D01*
X0158814Y0070803D02*
X0158816Y0070852D01*
X0158821Y0070900D01*
X0158830Y0070948D01*
X0158843Y0070995D01*
X0158859Y0071040D01*
X0158878Y0071085D01*
X0158901Y0071128D01*
X0158927Y0071169D01*
X0158956Y0071208D01*
X0158988Y0071245D01*
X0159022Y0071279D01*
X0159059Y0071311D01*
X0159098Y0071340D01*
X0159139Y0071366D01*
X0159182Y0071389D01*
X0159227Y0071408D01*
X0159272Y0071424D01*
X0159319Y0071437D01*
X0159367Y0071446D01*
X0159415Y0071451D01*
X0159464Y0071453D01*
X0160330Y0071453D01*
X0159789Y0070369D02*
X0159843Y0070367D01*
X0159897Y0070361D01*
X0159950Y0070352D01*
X0160003Y0070338D01*
X0160054Y0070321D01*
X0160104Y0070301D01*
X0160152Y0070276D01*
X0160199Y0070249D01*
X0160243Y0070218D01*
X0160285Y0070184D01*
X0160325Y0070147D01*
X0160362Y0070107D01*
X0160396Y0070065D01*
X0160427Y0070021D01*
X0160454Y0069974D01*
X0160479Y0069926D01*
X0160499Y0069876D01*
X0160516Y0069825D01*
X0160530Y0069772D01*
X0160539Y0069719D01*
X0160545Y0069665D01*
X0160547Y0069611D01*
X0160545Y0069557D01*
X0160539Y0069503D01*
X0160530Y0069450D01*
X0160516Y0069397D01*
X0160499Y0069346D01*
X0160479Y0069296D01*
X0160454Y0069248D01*
X0160427Y0069201D01*
X0160396Y0069157D01*
X0160362Y0069115D01*
X0160325Y0069075D01*
X0160285Y0069038D01*
X0160243Y0069004D01*
X0160199Y0068973D01*
X0160152Y0068946D01*
X0160104Y0068921D01*
X0160054Y0068901D01*
X0160003Y0068884D01*
X0159950Y0068870D01*
X0159897Y0068861D01*
X0159843Y0068855D01*
X0159789Y0068853D01*
X0156497Y0069503D02*
X0156497Y0070803D01*
X0156495Y0070852D01*
X0156490Y0070900D01*
X0156481Y0070948D01*
X0156468Y0070995D01*
X0156452Y0071040D01*
X0156433Y0071085D01*
X0156410Y0071128D01*
X0156384Y0071169D01*
X0156355Y0071208D01*
X0156323Y0071245D01*
X0156289Y0071279D01*
X0156252Y0071311D01*
X0156213Y0071340D01*
X0156172Y0071366D01*
X0156129Y0071389D01*
X0156084Y0071408D01*
X0156039Y0071424D01*
X0155992Y0071437D01*
X0155944Y0071446D01*
X0155896Y0071451D01*
X0155847Y0071453D01*
X0154764Y0071453D01*
X0154764Y0072753D02*
X0154764Y0068853D01*
X0155847Y0068853D01*
X0155896Y0068855D01*
X0155944Y0068860D01*
X0155992Y0068869D01*
X0156039Y0068882D01*
X0156084Y0068898D01*
X0156129Y0068917D01*
X0156172Y0068940D01*
X0156213Y0068966D01*
X0156252Y0068995D01*
X0156289Y0069027D01*
X0156323Y0069061D01*
X0156355Y0069098D01*
X0156384Y0069137D01*
X0156410Y0069178D01*
X0156433Y0069221D01*
X0156452Y0069266D01*
X0156468Y0069311D01*
X0156481Y0069358D01*
X0156490Y0069406D01*
X0156495Y0069454D01*
X0156497Y0069503D01*
X0153383Y0067553D02*
X0153334Y0067555D01*
X0153286Y0067560D01*
X0153238Y0067569D01*
X0153191Y0067582D01*
X0153146Y0067598D01*
X0153101Y0067617D01*
X0153058Y0067640D01*
X0153017Y0067666D01*
X0152978Y0067695D01*
X0152941Y0067727D01*
X0152907Y0067761D01*
X0152875Y0067798D01*
X0152846Y0067837D01*
X0152820Y0067878D01*
X0152797Y0067921D01*
X0152778Y0067966D01*
X0152762Y0068011D01*
X0152749Y0068058D01*
X0152740Y0068106D01*
X0152735Y0068154D01*
X0152733Y0068203D01*
X0152733Y0071453D01*
X0152624Y0072536D02*
X0152841Y0072536D01*
X0152841Y0072753D01*
X0152624Y0072753D01*
X0152624Y0072536D01*
X0153383Y0067553D02*
X0153599Y0067553D01*
X0163783Y0070587D02*
X0163719Y0070589D01*
X0163655Y0070595D01*
X0163591Y0070604D01*
X0163529Y0070617D01*
X0163467Y0070634D01*
X0163406Y0070655D01*
X0163346Y0070679D01*
X0163288Y0070707D01*
X0163232Y0070737D01*
X0163178Y0070772D01*
X0163126Y0070809D01*
X0163076Y0070850D01*
X0163029Y0070893D01*
X0162984Y0070939D01*
X0162942Y0070988D01*
X0162903Y0071039D01*
X0162867Y0071092D01*
X0162835Y0071147D01*
X0162805Y0071204D01*
X0162779Y0071263D01*
X0162757Y0071323D01*
X0162738Y0071385D01*
X0162723Y0071447D01*
X0162712Y0071510D01*
X0162704Y0071574D01*
X0162700Y0071638D01*
X0162700Y0071702D01*
X0162704Y0071766D01*
X0162712Y0071830D01*
X0162723Y0071893D01*
X0162738Y0071955D01*
X0162757Y0072017D01*
X0162779Y0072077D01*
X0162805Y0072136D01*
X0162835Y0072193D01*
X0162867Y0072248D01*
X0162903Y0072301D01*
X0162942Y0072352D01*
X0162984Y0072401D01*
X0163029Y0072447D01*
X0163076Y0072490D01*
X0163126Y0072531D01*
X0163178Y0072568D01*
X0163232Y0072603D01*
X0163288Y0072633D01*
X0163346Y0072661D01*
X0163406Y0072685D01*
X0163467Y0072706D01*
X0163529Y0072723D01*
X0163591Y0072736D01*
X0163655Y0072745D01*
X0163719Y0072751D01*
X0163783Y0072753D01*
D12*
X0163666Y0074553D02*
X0168541Y0074553D01*
X0168541Y0079725D01*
X0168541Y0083662D02*
X0168541Y0088835D01*
X0168541Y0092772D02*
X0168541Y0097944D01*
X0168541Y0101881D02*
X0168541Y0107053D01*
X0163666Y0107053D01*
X0159729Y0107053D02*
X0154853Y0107053D01*
X0150916Y0107053D02*
X0146041Y0107053D01*
X0146041Y0101881D01*
X0146041Y0097944D02*
X0146041Y0092772D01*
X0146041Y0088835D02*
X0146041Y0083662D01*
X0146041Y0079725D02*
X0146041Y0074553D01*
X0150916Y0074553D01*
X0154853Y0074553D02*
X0159729Y0074553D01*
X0183541Y0105178D02*
X0194791Y0105178D01*
X0202916Y0113303D01*
X0216041Y0108928D02*
X0230416Y0091428D01*
X0239166Y0103928D02*
X0224166Y0108928D01*
X0214166Y0090178D02*
X0214168Y0090228D01*
X0214174Y0090277D01*
X0214184Y0090326D01*
X0214197Y0090373D01*
X0214215Y0090420D01*
X0214236Y0090465D01*
X0214260Y0090508D01*
X0214288Y0090549D01*
X0214319Y0090588D01*
X0214353Y0090624D01*
X0214390Y0090658D01*
X0214430Y0090688D01*
X0214471Y0090715D01*
X0214515Y0090739D01*
X0214560Y0090759D01*
X0214607Y0090775D01*
X0214655Y0090788D01*
X0214704Y0090797D01*
X0214754Y0090802D01*
X0214803Y0090803D01*
X0214853Y0090800D01*
X0214902Y0090793D01*
X0214951Y0090782D01*
X0214998Y0090768D01*
X0215044Y0090749D01*
X0215089Y0090727D01*
X0215132Y0090702D01*
X0215172Y0090673D01*
X0215210Y0090641D01*
X0215246Y0090607D01*
X0215279Y0090569D01*
X0215308Y0090529D01*
X0215334Y0090487D01*
X0215357Y0090443D01*
X0215376Y0090397D01*
X0215392Y0090350D01*
X0215404Y0090301D01*
X0215412Y0090252D01*
X0215416Y0090203D01*
X0215416Y0090153D01*
X0215412Y0090104D01*
X0215404Y0090055D01*
X0215392Y0090006D01*
X0215376Y0089959D01*
X0215357Y0089913D01*
X0215334Y0089869D01*
X0215308Y0089827D01*
X0215279Y0089787D01*
X0215246Y0089749D01*
X0215210Y0089715D01*
X0215172Y0089683D01*
X0215132Y0089654D01*
X0215089Y0089629D01*
X0215044Y0089607D01*
X0214998Y0089588D01*
X0214951Y0089574D01*
X0214902Y0089563D01*
X0214853Y0089556D01*
X0214803Y0089553D01*
X0214754Y0089554D01*
X0214704Y0089559D01*
X0214655Y0089568D01*
X0214607Y0089581D01*
X0214560Y0089597D01*
X0214515Y0089617D01*
X0214471Y0089641D01*
X0214430Y0089668D01*
X0214390Y0089698D01*
X0214353Y0089732D01*
X0214319Y0089768D01*
X0214288Y0089807D01*
X0214260Y0089848D01*
X0214236Y0089891D01*
X0214215Y0089936D01*
X0214197Y0089983D01*
X0214184Y0090030D01*
X0214174Y0090079D01*
X0214168Y0090128D01*
X0214166Y0090178D01*
D13*
X0212744Y0099036D02*
X0223000Y0099036D01*
X0223000Y0071320D01*
X0196582Y0071320D01*
X0196582Y0099036D01*
X0206838Y0099036D01*
X0196582Y0099036D02*
X0223000Y0099036D01*
X0223000Y0071320D01*
X0216681Y0071320D02*
X0202901Y0071320D01*
X0196582Y0071320D02*
X0196582Y0099036D01*
X0212522Y0119553D02*
X0212524Y0119592D01*
X0212530Y0119631D01*
X0212540Y0119669D01*
X0212553Y0119706D01*
X0212570Y0119741D01*
X0212590Y0119775D01*
X0212614Y0119806D01*
X0212641Y0119835D01*
X0212670Y0119861D01*
X0212702Y0119884D01*
X0212736Y0119904D01*
X0212772Y0119920D01*
X0212809Y0119932D01*
X0212848Y0119941D01*
X0212887Y0119946D01*
X0212926Y0119947D01*
X0212965Y0119944D01*
X0213004Y0119937D01*
X0213041Y0119926D01*
X0213078Y0119912D01*
X0213113Y0119894D01*
X0213146Y0119873D01*
X0213177Y0119848D01*
X0213205Y0119821D01*
X0213230Y0119791D01*
X0213252Y0119758D01*
X0213271Y0119724D01*
X0213286Y0119688D01*
X0213298Y0119650D01*
X0213306Y0119612D01*
X0213310Y0119573D01*
X0213310Y0119533D01*
X0213306Y0119494D01*
X0213298Y0119456D01*
X0213286Y0119418D01*
X0213271Y0119382D01*
X0213252Y0119348D01*
X0213230Y0119315D01*
X0213205Y0119285D01*
X0213177Y0119258D01*
X0213146Y0119233D01*
X0213113Y0119212D01*
X0213078Y0119194D01*
X0213041Y0119180D01*
X0213004Y0119169D01*
X0212965Y0119162D01*
X0212926Y0119159D01*
X0212887Y0119160D01*
X0212848Y0119165D01*
X0212809Y0119174D01*
X0212772Y0119186D01*
X0212736Y0119202D01*
X0212702Y0119222D01*
X0212670Y0119245D01*
X0212641Y0119271D01*
X0212614Y0119300D01*
X0212590Y0119331D01*
X0212570Y0119365D01*
X0212553Y0119400D01*
X0212540Y0119437D01*
X0212530Y0119475D01*
X0212524Y0119514D01*
X0212522Y0119553D01*
X0220022Y0119553D02*
X0220024Y0119592D01*
X0220030Y0119631D01*
X0220040Y0119669D01*
X0220053Y0119706D01*
X0220070Y0119741D01*
X0220090Y0119775D01*
X0220114Y0119806D01*
X0220141Y0119835D01*
X0220170Y0119861D01*
X0220202Y0119884D01*
X0220236Y0119904D01*
X0220272Y0119920D01*
X0220309Y0119932D01*
X0220348Y0119941D01*
X0220387Y0119946D01*
X0220426Y0119947D01*
X0220465Y0119944D01*
X0220504Y0119937D01*
X0220541Y0119926D01*
X0220578Y0119912D01*
X0220613Y0119894D01*
X0220646Y0119873D01*
X0220677Y0119848D01*
X0220705Y0119821D01*
X0220730Y0119791D01*
X0220752Y0119758D01*
X0220771Y0119724D01*
X0220786Y0119688D01*
X0220798Y0119650D01*
X0220806Y0119612D01*
X0220810Y0119573D01*
X0220810Y0119533D01*
X0220806Y0119494D01*
X0220798Y0119456D01*
X0220786Y0119418D01*
X0220771Y0119382D01*
X0220752Y0119348D01*
X0220730Y0119315D01*
X0220705Y0119285D01*
X0220677Y0119258D01*
X0220646Y0119233D01*
X0220613Y0119212D01*
X0220578Y0119194D01*
X0220541Y0119180D01*
X0220504Y0119169D01*
X0220465Y0119162D01*
X0220426Y0119159D01*
X0220387Y0119160D01*
X0220348Y0119165D01*
X0220309Y0119174D01*
X0220272Y0119186D01*
X0220236Y0119202D01*
X0220202Y0119222D01*
X0220170Y0119245D01*
X0220141Y0119271D01*
X0220114Y0119300D01*
X0220090Y0119331D01*
X0220070Y0119365D01*
X0220053Y0119400D01*
X0220040Y0119437D01*
X0220030Y0119475D01*
X0220024Y0119514D01*
X0220022Y0119553D01*
X0127522Y0117053D02*
X0127524Y0117092D01*
X0127530Y0117131D01*
X0127540Y0117169D01*
X0127553Y0117206D01*
X0127570Y0117241D01*
X0127590Y0117275D01*
X0127614Y0117306D01*
X0127641Y0117335D01*
X0127670Y0117361D01*
X0127702Y0117384D01*
X0127736Y0117404D01*
X0127772Y0117420D01*
X0127809Y0117432D01*
X0127848Y0117441D01*
X0127887Y0117446D01*
X0127926Y0117447D01*
X0127965Y0117444D01*
X0128004Y0117437D01*
X0128041Y0117426D01*
X0128078Y0117412D01*
X0128113Y0117394D01*
X0128146Y0117373D01*
X0128177Y0117348D01*
X0128205Y0117321D01*
X0128230Y0117291D01*
X0128252Y0117258D01*
X0128271Y0117224D01*
X0128286Y0117188D01*
X0128298Y0117150D01*
X0128306Y0117112D01*
X0128310Y0117073D01*
X0128310Y0117033D01*
X0128306Y0116994D01*
X0128298Y0116956D01*
X0128286Y0116918D01*
X0128271Y0116882D01*
X0128252Y0116848D01*
X0128230Y0116815D01*
X0128205Y0116785D01*
X0128177Y0116758D01*
X0128146Y0116733D01*
X0128113Y0116712D01*
X0128078Y0116694D01*
X0128041Y0116680D01*
X0128004Y0116669D01*
X0127965Y0116662D01*
X0127926Y0116659D01*
X0127887Y0116660D01*
X0127848Y0116665D01*
X0127809Y0116674D01*
X0127772Y0116686D01*
X0127736Y0116702D01*
X0127702Y0116722D01*
X0127670Y0116745D01*
X0127641Y0116771D01*
X0127614Y0116800D01*
X0127590Y0116831D01*
X0127570Y0116865D01*
X0127553Y0116900D01*
X0127540Y0116937D01*
X0127530Y0116975D01*
X0127524Y0117014D01*
X0127522Y0117053D01*
D14*
X0125947Y0112526D02*
X0129884Y0112526D01*
X0129884Y0121581D01*
X0125947Y0121581D01*
X0125947Y0112526D01*
X0147822Y0105134D02*
X0147822Y0096472D01*
X0151759Y0096472D01*
X0151759Y0105134D01*
X0147822Y0105134D01*
X0152960Y0097772D02*
X0152960Y0093835D01*
X0161622Y0093835D01*
X0161622Y0097772D01*
X0152960Y0097772D01*
X0151759Y0095134D02*
X0147822Y0095134D01*
X0147822Y0086472D01*
X0151759Y0086472D01*
X0151759Y0095134D01*
X0152960Y0087772D02*
X0152960Y0083835D01*
X0161622Y0083835D01*
X0161622Y0087772D01*
X0152960Y0087772D01*
X0151759Y0085134D02*
X0147822Y0085134D01*
X0147822Y0076472D01*
X0151759Y0076472D01*
X0151759Y0085134D01*
X0162822Y0085134D02*
X0162822Y0076472D01*
X0166759Y0076472D01*
X0166759Y0085134D01*
X0162822Y0085134D01*
X0162822Y0086472D02*
X0166759Y0086472D01*
X0166759Y0095134D01*
X0162822Y0095134D01*
X0162822Y0086472D01*
X0170460Y0079647D02*
X0170460Y0075710D01*
X0179122Y0075710D01*
X0179122Y0079647D01*
X0170460Y0079647D01*
X0166759Y0096472D02*
X0162822Y0096472D01*
X0162822Y0105134D01*
X0166759Y0105134D01*
X0166759Y0096472D01*
X0129884Y0087634D02*
X0129884Y0078972D01*
X0125947Y0078972D01*
X0125947Y0087634D01*
X0129884Y0087634D01*
X0200947Y0115222D02*
X0204884Y0115222D01*
X0204884Y0123884D01*
X0200947Y0123884D01*
X0200947Y0115222D01*
X0210947Y0115026D02*
X0214884Y0115026D01*
X0214884Y0124081D01*
X0210947Y0124081D01*
X0210947Y0115026D01*
X0218447Y0115026D02*
X0222384Y0115026D01*
X0222384Y0124081D01*
X0218447Y0124081D01*
X0218447Y0115026D01*
X0199791Y0085178D02*
X0199794Y0085423D01*
X0199803Y0085669D01*
X0199818Y0085914D01*
X0199839Y0086158D01*
X0199866Y0086402D01*
X0199899Y0086645D01*
X0199938Y0086888D01*
X0199983Y0087129D01*
X0200034Y0087369D01*
X0200091Y0087608D01*
X0200153Y0087845D01*
X0200222Y0088081D01*
X0200296Y0088315D01*
X0200376Y0088547D01*
X0200461Y0088777D01*
X0200552Y0089005D01*
X0200649Y0089230D01*
X0200751Y0089454D01*
X0200859Y0089674D01*
X0200972Y0089892D01*
X0201090Y0090107D01*
X0201214Y0090319D01*
X0201342Y0090528D01*
X0201476Y0090734D01*
X0201615Y0090936D01*
X0201759Y0091135D01*
X0201908Y0091330D01*
X0202061Y0091522D01*
X0202219Y0091710D01*
X0202381Y0091894D01*
X0202549Y0092073D01*
X0202720Y0092249D01*
X0202896Y0092420D01*
X0203075Y0092588D01*
X0203259Y0092750D01*
X0203447Y0092908D01*
X0203639Y0093061D01*
X0203834Y0093210D01*
X0204033Y0093354D01*
X0204235Y0093493D01*
X0204441Y0093627D01*
X0204650Y0093755D01*
X0204862Y0093879D01*
X0205077Y0093997D01*
X0205295Y0094110D01*
X0205515Y0094218D01*
X0205739Y0094320D01*
X0205964Y0094417D01*
X0206192Y0094508D01*
X0206422Y0094593D01*
X0206654Y0094673D01*
X0206888Y0094747D01*
X0207124Y0094816D01*
X0207361Y0094878D01*
X0207600Y0094935D01*
X0207840Y0094986D01*
X0208081Y0095031D01*
X0208324Y0095070D01*
X0208567Y0095103D01*
X0208811Y0095130D01*
X0209055Y0095151D01*
X0209300Y0095166D01*
X0209546Y0095175D01*
X0209791Y0095178D01*
X0210036Y0095175D01*
X0210282Y0095166D01*
X0210527Y0095151D01*
X0210771Y0095130D01*
X0211015Y0095103D01*
X0211258Y0095070D01*
X0211501Y0095031D01*
X0211742Y0094986D01*
X0211982Y0094935D01*
X0212221Y0094878D01*
X0212458Y0094816D01*
X0212694Y0094747D01*
X0212928Y0094673D01*
X0213160Y0094593D01*
X0213390Y0094508D01*
X0213618Y0094417D01*
X0213843Y0094320D01*
X0214067Y0094218D01*
X0214287Y0094110D01*
X0214505Y0093997D01*
X0214720Y0093879D01*
X0214932Y0093755D01*
X0215141Y0093627D01*
X0215347Y0093493D01*
X0215549Y0093354D01*
X0215748Y0093210D01*
X0215943Y0093061D01*
X0216135Y0092908D01*
X0216323Y0092750D01*
X0216507Y0092588D01*
X0216686Y0092420D01*
X0216862Y0092249D01*
X0217033Y0092073D01*
X0217201Y0091894D01*
X0217363Y0091710D01*
X0217521Y0091522D01*
X0217674Y0091330D01*
X0217823Y0091135D01*
X0217967Y0090936D01*
X0218106Y0090734D01*
X0218240Y0090528D01*
X0218368Y0090319D01*
X0218492Y0090107D01*
X0218610Y0089892D01*
X0218723Y0089674D01*
X0218831Y0089454D01*
X0218933Y0089230D01*
X0219030Y0089005D01*
X0219121Y0088777D01*
X0219206Y0088547D01*
X0219286Y0088315D01*
X0219360Y0088081D01*
X0219429Y0087845D01*
X0219491Y0087608D01*
X0219548Y0087369D01*
X0219599Y0087129D01*
X0219644Y0086888D01*
X0219683Y0086645D01*
X0219716Y0086402D01*
X0219743Y0086158D01*
X0219764Y0085914D01*
X0219779Y0085669D01*
X0219788Y0085423D01*
X0219791Y0085178D01*
X0219788Y0084933D01*
X0219779Y0084687D01*
X0219764Y0084442D01*
X0219743Y0084198D01*
X0219716Y0083954D01*
X0219683Y0083711D01*
X0219644Y0083468D01*
X0219599Y0083227D01*
X0219548Y0082987D01*
X0219491Y0082748D01*
X0219429Y0082511D01*
X0219360Y0082275D01*
X0219286Y0082041D01*
X0219206Y0081809D01*
X0219121Y0081579D01*
X0219030Y0081351D01*
X0218933Y0081126D01*
X0218831Y0080902D01*
X0218723Y0080682D01*
X0218610Y0080464D01*
X0218492Y0080249D01*
X0218368Y0080037D01*
X0218240Y0079828D01*
X0218106Y0079622D01*
X0217967Y0079420D01*
X0217823Y0079221D01*
X0217674Y0079026D01*
X0217521Y0078834D01*
X0217363Y0078646D01*
X0217201Y0078462D01*
X0217033Y0078283D01*
X0216862Y0078107D01*
X0216686Y0077936D01*
X0216507Y0077768D01*
X0216323Y0077606D01*
X0216135Y0077448D01*
X0215943Y0077295D01*
X0215748Y0077146D01*
X0215549Y0077002D01*
X0215347Y0076863D01*
X0215141Y0076729D01*
X0214932Y0076601D01*
X0214720Y0076477D01*
X0214505Y0076359D01*
X0214287Y0076246D01*
X0214067Y0076138D01*
X0213843Y0076036D01*
X0213618Y0075939D01*
X0213390Y0075848D01*
X0213160Y0075763D01*
X0212928Y0075683D01*
X0212694Y0075609D01*
X0212458Y0075540D01*
X0212221Y0075478D01*
X0211982Y0075421D01*
X0211742Y0075370D01*
X0211501Y0075325D01*
X0211258Y0075286D01*
X0211015Y0075253D01*
X0210771Y0075226D01*
X0210527Y0075205D01*
X0210282Y0075190D01*
X0210036Y0075181D01*
X0209791Y0075178D01*
X0209546Y0075181D01*
X0209300Y0075190D01*
X0209055Y0075205D01*
X0208811Y0075226D01*
X0208567Y0075253D01*
X0208324Y0075286D01*
X0208081Y0075325D01*
X0207840Y0075370D01*
X0207600Y0075421D01*
X0207361Y0075478D01*
X0207124Y0075540D01*
X0206888Y0075609D01*
X0206654Y0075683D01*
X0206422Y0075763D01*
X0206192Y0075848D01*
X0205964Y0075939D01*
X0205739Y0076036D01*
X0205515Y0076138D01*
X0205295Y0076246D01*
X0205077Y0076359D01*
X0204862Y0076477D01*
X0204650Y0076601D01*
X0204441Y0076729D01*
X0204235Y0076863D01*
X0204033Y0077002D01*
X0203834Y0077146D01*
X0203639Y0077295D01*
X0203447Y0077448D01*
X0203259Y0077606D01*
X0203075Y0077768D01*
X0202896Y0077936D01*
X0202720Y0078107D01*
X0202549Y0078283D01*
X0202381Y0078462D01*
X0202219Y0078646D01*
X0202061Y0078834D01*
X0201908Y0079026D01*
X0201759Y0079221D01*
X0201615Y0079420D01*
X0201476Y0079622D01*
X0201342Y0079828D01*
X0201214Y0080037D01*
X0201090Y0080249D01*
X0200972Y0080464D01*
X0200859Y0080682D01*
X0200751Y0080902D01*
X0200649Y0081126D01*
X0200552Y0081351D01*
X0200461Y0081579D01*
X0200376Y0081809D01*
X0200296Y0082041D01*
X0200222Y0082275D01*
X0200153Y0082511D01*
X0200091Y0082748D01*
X0200034Y0082987D01*
X0199983Y0083227D01*
X0199938Y0083468D01*
X0199899Y0083711D01*
X0199866Y0083954D01*
X0199839Y0084198D01*
X0199818Y0084442D01*
X0199803Y0084687D01*
X0199794Y0084933D01*
X0199791Y0085178D01*
X0093634Y0198972D02*
X0089697Y0198972D01*
X0089697Y0207634D01*
X0093634Y0207634D01*
X0093634Y0198972D01*
X0221548Y0211404D02*
X0221548Y0217703D01*
X0231784Y0217703D01*
X0231784Y0211404D01*
X0221548Y0211404D01*
X0225416Y0214553D02*
X0228541Y0217678D01*
X0228541Y0211428D01*
X0225416Y0214553D01*
X0225662Y0214307D02*
X0228541Y0214307D01*
X0228541Y0213809D02*
X0226160Y0213809D01*
X0226659Y0213310D02*
X0228541Y0213310D01*
X0228541Y0212812D02*
X0227157Y0212812D01*
X0227656Y0212313D02*
X0228541Y0212313D01*
X0228541Y0211815D02*
X0228154Y0211815D01*
X0228541Y0214806D02*
X0225669Y0214806D01*
X0226167Y0215304D02*
X0228541Y0215304D01*
X0228541Y0215803D02*
X0226666Y0215803D01*
X0227164Y0216301D02*
X0228541Y0216301D01*
X0228541Y0216800D02*
X0227663Y0216800D01*
X0228161Y0217298D02*
X0228541Y0217298D01*
D15*
X0122335Y0184858D02*
X0122335Y0166748D01*
X0105997Y0166748D01*
X0105997Y0184858D01*
X0122335Y0184858D01*
D16*
X0109481Y0181807D03*
D17*
X0109166Y0186827D03*
X0119166Y0186827D03*
X0119166Y0164780D03*
X0109166Y0164780D03*
D18*
X0209791Y0100532D03*
X0219791Y0069824D03*
X0199791Y0069824D03*
D19*
X0207291Y0077678D02*
X0212291Y0077678D01*
X0212291Y0082678D01*
X0217291Y0082678D01*
X0217291Y0087678D01*
X0212291Y0087678D01*
X0212291Y0092678D01*
X0207291Y0092678D01*
X0207291Y0087678D01*
X0202291Y0087678D01*
X0202291Y0082678D01*
X0207291Y0082678D01*
X0207291Y0077678D01*
D20*
X0166843Y0131492D02*
X0251489Y0131492D01*
X0251551Y0131494D01*
X0251612Y0131500D01*
X0251673Y0131509D01*
X0251734Y0131523D01*
X0251793Y0131540D01*
X0251851Y0131561D01*
X0251908Y0131586D01*
X0251963Y0131614D01*
X0252016Y0131645D01*
X0252067Y0131680D01*
X0252116Y0131718D01*
X0252163Y0131759D01*
X0252206Y0131802D01*
X0252247Y0131849D01*
X0252285Y0131898D01*
X0252320Y0131949D01*
X0252351Y0132002D01*
X0252379Y0132057D01*
X0252404Y0132114D01*
X0252425Y0132172D01*
X0252442Y0132231D01*
X0252456Y0132292D01*
X0252465Y0132353D01*
X0252471Y0132414D01*
X0252473Y0132476D01*
X0252473Y0154130D01*
X0252471Y0154192D01*
X0252465Y0154253D01*
X0252456Y0154314D01*
X0252442Y0154375D01*
X0252425Y0154434D01*
X0252404Y0154492D01*
X0252379Y0154549D01*
X0252351Y0154604D01*
X0252320Y0154657D01*
X0252285Y0154708D01*
X0252247Y0154757D01*
X0252206Y0154804D01*
X0252163Y0154847D01*
X0252116Y0154888D01*
X0252067Y0154926D01*
X0252016Y0154961D01*
X0251963Y0154992D01*
X0251908Y0155020D01*
X0251851Y0155045D01*
X0251793Y0155066D01*
X0251734Y0155083D01*
X0251673Y0155097D01*
X0251612Y0155106D01*
X0251551Y0155112D01*
X0251489Y0155114D01*
X0166843Y0155114D01*
X0166781Y0155112D01*
X0166720Y0155106D01*
X0166659Y0155097D01*
X0166598Y0155083D01*
X0166539Y0155066D01*
X0166481Y0155045D01*
X0166424Y0155020D01*
X0166369Y0154992D01*
X0166316Y0154961D01*
X0166265Y0154926D01*
X0166216Y0154888D01*
X0166169Y0154847D01*
X0166126Y0154804D01*
X0166085Y0154757D01*
X0166047Y0154708D01*
X0166012Y0154657D01*
X0165981Y0154604D01*
X0165953Y0154549D01*
X0165928Y0154492D01*
X0165907Y0154434D01*
X0165890Y0154375D01*
X0165876Y0154314D01*
X0165867Y0154253D01*
X0165861Y0154192D01*
X0165859Y0154130D01*
X0165859Y0132476D01*
X0165861Y0132414D01*
X0165867Y0132353D01*
X0165876Y0132292D01*
X0165890Y0132231D01*
X0165907Y0132172D01*
X0165928Y0132114D01*
X0165953Y0132057D01*
X0165981Y0132002D01*
X0166012Y0131949D01*
X0166047Y0131898D01*
X0166085Y0131849D01*
X0166126Y0131802D01*
X0166169Y0131759D01*
X0166216Y0131718D01*
X0166265Y0131680D01*
X0166316Y0131645D01*
X0166369Y0131614D01*
X0166424Y0131586D01*
X0166481Y0131561D01*
X0166539Y0131540D01*
X0166598Y0131523D01*
X0166659Y0131509D01*
X0166720Y0131500D01*
X0166781Y0131494D01*
X0166843Y0131492D01*
X0119914Y0193205D02*
X0108418Y0193205D01*
X0108418Y0198402D01*
X0119914Y0198402D01*
X0119914Y0193205D01*
D21*
X0114166Y0191853D03*
X0117866Y0199753D03*
X0110466Y0199753D03*
D22*
X0166563Y0137678D02*
X0193541Y0137678D01*
X0224791Y0148928D02*
X0251769Y0148928D01*
D23*
X0252253Y0148928D03*
X0166078Y0137678D03*
D24*
X0224697Y0214553D03*
D25*
X0220957Y0214553D03*
X0232375Y0214553D03*
M02*
