G75*
%MOIN*%
%OFA0B0*%
%FSLAX25Y25*%
%IPPOS*%
%LPD*%
%AMOC8*
5,1,8,0,0,1.08239X$1,22.5*
%
%ADD10C,0.13398*%
%ADD11C,0.14173*%
%ADD12C,0.14973*%
%ADD13C,0.10236*%
%ADD14C,0.11036*%
%ADD15R,0.03950X0.03359*%
%ADD16C,0.10000*%
%ADD17C,0.10800*%
%ADD18OC8,0.10000*%
%ADD19OC8,0.10800*%
%ADD20R,0.04343X0.03359*%
%ADD21C,0.05937*%
%ADD22C,0.06737*%
%ADD23R,0.03359X0.04343*%
%ADD24C,0.07874*%
%ADD25C,0.08674*%
%ADD26R,0.03950X0.05524*%
%ADD27R,0.05524X0.13792*%
%ADD28R,0.04737X0.06312*%
%ADD29OC8,0.12400*%
%ADD30OC8,0.13200*%
%ADD31C,0.12400*%
%ADD32C,0.13200*%
%ADD33R,0.05524X0.07099*%
%ADD34C,0.15000*%
%ADD35C,0.15800*%
%ADD36C,0.02756*%
%ADD37C,0.04724*%
%ADD38C,0.05524*%
D10*
X0067227Y0060114D03*
X0067227Y0209720D03*
X0287699Y0209720D03*
X0287699Y0060114D03*
D11*
X0232640Y0068579D03*
X0188866Y0067132D03*
X0188866Y0126974D03*
X0232640Y0128421D03*
D12*
X0232640Y0128421D03*
X0188866Y0126974D03*
X0188866Y0067132D03*
X0232640Y0068579D03*
D13*
X0232640Y0098500D03*
X0232640Y0113461D03*
X0188866Y0112014D03*
X0188866Y0097053D03*
X0135322Y0097053D03*
X0122798Y0098500D03*
X0122798Y0128421D03*
X0135322Y0126974D03*
X0122798Y0068579D03*
X0135322Y0067132D03*
D14*
X0135322Y0067132D03*
X0122798Y0068579D03*
X0135322Y0097053D03*
X0122798Y0098500D03*
X0122798Y0128421D03*
X0135322Y0126974D03*
X0188866Y0112014D03*
X0188866Y0097053D03*
X0232640Y0098500D03*
X0232640Y0113461D03*
D15*
X0220416Y0116699D03*
X0215416Y0116699D03*
X0215416Y0122407D03*
X0220416Y0122407D03*
X0127916Y0121157D03*
X0127916Y0115449D03*
D16*
X0165416Y0190803D03*
X0242916Y0187053D03*
D17*
X0242916Y0187053D03*
X0165416Y0190803D03*
D18*
X0185416Y0190803D03*
X0222916Y0187053D03*
X0178541Y0153928D03*
X0177562Y0137398D03*
X0208270Y0149209D03*
X0142916Y0175803D03*
X0138541Y0153928D03*
X0092916Y0175803D03*
D19*
X0092916Y0175803D03*
X0138541Y0153928D03*
X0142916Y0175803D03*
X0178541Y0153928D03*
X0177562Y0137398D03*
X0208270Y0149209D03*
X0222916Y0187053D03*
X0185416Y0190803D03*
D20*
X0207916Y0122407D03*
X0207916Y0116699D03*
X0164791Y0103657D03*
X0164791Y0097949D03*
X0164791Y0093657D03*
X0164791Y0087949D03*
X0164791Y0083657D03*
X0164791Y0077949D03*
X0149791Y0077949D03*
X0149791Y0083657D03*
X0149791Y0087949D03*
X0149791Y0093657D03*
X0149791Y0097949D03*
X0149791Y0103657D03*
X0127916Y0086157D03*
X0127916Y0080449D03*
D21*
X0104634Y0198382D02*
X0098697Y0198382D01*
X0098697Y0208224D02*
X0104634Y0208224D01*
X0284947Y0183928D02*
X0290884Y0183928D01*
X0290884Y0173928D02*
X0284947Y0173928D01*
D22*
X0290884Y0173928D01*
X0290884Y0183928D02*
X0284947Y0183928D01*
X0104634Y0198382D02*
X0098697Y0198382D01*
X0098697Y0208224D02*
X0104634Y0208224D01*
D23*
X0154437Y0095803D03*
X0160145Y0095803D03*
X0160145Y0085803D03*
X0154437Y0085803D03*
X0171937Y0077678D03*
X0177645Y0077678D03*
D24*
X0144353Y0203303D02*
X0136479Y0203303D01*
X0136479Y0213303D02*
X0144353Y0213303D01*
D25*
X0136479Y0213303D01*
X0136479Y0203303D02*
X0144353Y0203303D01*
D26*
X0119166Y0188205D03*
X0109166Y0188205D03*
X0109166Y0163402D03*
X0119166Y0163402D03*
D27*
X0209791Y0101910D03*
X0219791Y0068446D03*
X0199791Y0068446D03*
D28*
X0114166Y0191472D03*
X0117906Y0200134D03*
X0110426Y0200134D03*
D29*
X0222916Y0187053D03*
D30*
X0222916Y0187053D03*
D31*
X0252916Y0187053D03*
D32*
X0252916Y0187053D03*
D33*
X0212109Y0177678D03*
X0198723Y0177678D03*
D34*
X0264791Y0140213D02*
X0279791Y0140213D01*
X0279791Y0115803D02*
X0264791Y0115803D01*
X0264791Y0091394D02*
X0279791Y0091394D01*
X0092291Y0117348D02*
X0077291Y0117348D01*
X0077291Y0141758D02*
X0092291Y0141758D01*
D35*
X0077291Y0141758D01*
X0077291Y0117348D02*
X0092291Y0117348D01*
X0264791Y0115803D02*
X0279791Y0115803D01*
X0279791Y0140213D02*
X0264791Y0140213D01*
X0264791Y0091394D02*
X0279791Y0091394D01*
D36*
X0212916Y0077949D03*
X0157291Y0077949D03*
X0157291Y0103657D03*
X0106666Y0122053D03*
X0109166Y0169553D03*
X0109166Y0192678D03*
X0214619Y0214553D03*
D37*
X0227916Y0215803D03*
X0237916Y0215803D03*
X0247916Y0215803D03*
X0257916Y0215803D03*
X0267916Y0215803D03*
X0267916Y0205803D03*
X0267916Y0195803D03*
X0257916Y0205803D03*
X0247916Y0205803D03*
X0267916Y0185803D03*
X0266666Y0175803D03*
X0257916Y0175803D03*
X0262916Y0165803D03*
X0252916Y0165803D03*
X0245416Y0170803D03*
X0235416Y0170803D03*
X0235416Y0163303D03*
X0225416Y0163303D03*
X0225416Y0170803D03*
X0215416Y0170803D03*
X0215416Y0163303D03*
X0205416Y0163303D03*
X0205416Y0170803D03*
X0195416Y0170803D03*
X0187916Y0170803D03*
X0182916Y0175803D03*
X0177916Y0168303D03*
X0170416Y0158303D03*
X0162916Y0158303D03*
X0162916Y0150803D03*
X0170416Y0150803D03*
X0155416Y0140803D03*
X0160416Y0135803D03*
X0167916Y0135803D03*
X0177916Y0125803D03*
X0167916Y0123303D03*
X0167916Y0113303D03*
X0157916Y0113303D03*
X0147916Y0113303D03*
X0142916Y0120803D03*
X0150416Y0123303D03*
X0157916Y0123303D03*
X0150416Y0135803D03*
X0142916Y0133303D03*
X0142916Y0140803D03*
X0132916Y0140803D03*
X0132916Y0148303D03*
X0122916Y0148303D03*
X0117916Y0138303D03*
X0117916Y0120803D03*
X0112916Y0100803D03*
X0102916Y0100803D03*
X0102916Y0090803D03*
X0112916Y0090803D03*
X0112916Y0080803D03*
X0107916Y0073303D03*
X0102916Y0080803D03*
X0097916Y0073303D03*
X0092916Y0080803D03*
X0087916Y0073303D03*
X0082916Y0080803D03*
X0072916Y0080803D03*
X0062916Y0080803D03*
X0062916Y0090803D03*
X0072916Y0090803D03*
X0082916Y0090803D03*
X0092916Y0090803D03*
X0072916Y0100803D03*
X0062916Y0100803D03*
X0062916Y0110803D03*
X0062916Y0120803D03*
X0060416Y0128303D03*
X0060416Y0138303D03*
X0060416Y0148303D03*
X0072916Y0155803D03*
X0072916Y0165803D03*
X0082916Y0165803D03*
X0092916Y0165803D03*
X0100416Y0160803D03*
X0092916Y0155803D03*
X0100416Y0170803D03*
X0101666Y0179553D03*
X0099166Y0192053D03*
X0092916Y0192053D03*
X0082916Y0175803D03*
X0072916Y0175803D03*
X0060416Y0178303D03*
X0060416Y0168303D03*
X0060416Y0188303D03*
X0095416Y0215803D03*
X0105416Y0215803D03*
X0127916Y0215803D03*
X0127916Y0200803D03*
X0130416Y0195803D03*
X0142916Y0188303D03*
X0145416Y0194553D03*
X0152916Y0194553D03*
X0152916Y0188303D03*
X0152916Y0180803D03*
X0152916Y0173303D03*
X0160416Y0173303D03*
X0165416Y0165803D03*
X0155416Y0165803D03*
X0152916Y0158303D03*
X0145416Y0165803D03*
X0132916Y0160803D03*
X0124166Y0160803D03*
X0124166Y0170803D03*
X0132916Y0170803D03*
X0132916Y0179553D03*
X0152916Y0200803D03*
X0162916Y0200803D03*
X0172916Y0215803D03*
X0182916Y0215803D03*
X0192916Y0215803D03*
X0192916Y0205803D03*
X0192916Y0195803D03*
X0182916Y0205803D03*
X0205416Y0203303D03*
X0210416Y0195803D03*
X0196666Y0163303D03*
X0196666Y0155803D03*
X0196666Y0145803D03*
X0192916Y0138303D03*
X0200416Y0135803D03*
X0200416Y0128303D03*
X0210416Y0128303D03*
X0210416Y0135803D03*
X0220416Y0135803D03*
X0220416Y0128303D03*
X0217916Y0148303D03*
X0225416Y0148303D03*
X0232916Y0148303D03*
X0240416Y0148303D03*
X0247916Y0148303D03*
X0257916Y0150803D03*
X0247916Y0138303D03*
X0247916Y0128303D03*
X0257916Y0128303D03*
X0247916Y0109553D03*
X0247916Y0102053D03*
X0247916Y0093303D03*
X0247916Y0083303D03*
X0247916Y0073303D03*
X0257916Y0073303D03*
X0257916Y0065803D03*
X0267916Y0065803D03*
X0267916Y0055803D03*
X0257916Y0055803D03*
X0247916Y0054553D03*
X0232916Y0055803D03*
X0222916Y0055803D03*
X0212916Y0055803D03*
X0202916Y0055803D03*
X0212916Y0065803D03*
X0227916Y0080803D03*
X0227916Y0088303D03*
X0215416Y0104553D03*
X0202916Y0104553D03*
X0182916Y0090803D03*
X0187916Y0085803D03*
X0172916Y0090803D03*
X0177916Y0065803D03*
X0167916Y0065803D03*
X0157916Y0064553D03*
X0147916Y0065803D03*
X0147916Y0055803D03*
X0157916Y0055803D03*
X0167916Y0055803D03*
X0177916Y0055803D03*
X0187916Y0055803D03*
X0137916Y0055803D03*
X0127916Y0055803D03*
X0117916Y0055803D03*
X0107916Y0053303D03*
X0097916Y0053303D03*
X0087916Y0053303D03*
X0087916Y0063303D03*
X0097916Y0063303D03*
X0107916Y0063303D03*
X0137916Y0075803D03*
X0137916Y0085803D03*
X0137916Y0105803D03*
X0137916Y0113303D03*
X0257916Y0103303D03*
X0292916Y0105803D03*
X0292916Y0115803D03*
X0292916Y0125803D03*
X0292916Y0093303D03*
X0292916Y0080803D03*
X0284166Y0157053D03*
X0277916Y0160803D03*
D38*
X0277916Y0160803D03*
X0284166Y0157053D03*
X0262916Y0165803D03*
X0252916Y0165803D03*
X0245416Y0170803D03*
X0235416Y0170803D03*
X0235416Y0163303D03*
X0225416Y0163303D03*
X0225416Y0170803D03*
X0215416Y0170803D03*
X0215416Y0163303D03*
X0205416Y0163303D03*
X0205416Y0170803D03*
X0195416Y0170803D03*
X0187916Y0170803D03*
X0182916Y0175803D03*
X0177916Y0168303D03*
X0170416Y0158303D03*
X0162916Y0158303D03*
X0162916Y0150803D03*
X0170416Y0150803D03*
X0155416Y0140803D03*
X0160416Y0135803D03*
X0167916Y0135803D03*
X0177916Y0125803D03*
X0167916Y0123303D03*
X0167916Y0113303D03*
X0157916Y0113303D03*
X0147916Y0113303D03*
X0142916Y0120803D03*
X0150416Y0123303D03*
X0157916Y0123303D03*
X0150416Y0135803D03*
X0142916Y0133303D03*
X0142916Y0140803D03*
X0132916Y0140803D03*
X0132916Y0148303D03*
X0122916Y0148303D03*
X0117916Y0138303D03*
X0117916Y0120803D03*
X0112916Y0100803D03*
X0102916Y0100803D03*
X0102916Y0090803D03*
X0112916Y0090803D03*
X0112916Y0080803D03*
X0107916Y0073303D03*
X0102916Y0080803D03*
X0097916Y0073303D03*
X0092916Y0080803D03*
X0087916Y0073303D03*
X0082916Y0080803D03*
X0072916Y0080803D03*
X0062916Y0080803D03*
X0062916Y0090803D03*
X0072916Y0090803D03*
X0082916Y0090803D03*
X0092916Y0090803D03*
X0072916Y0100803D03*
X0062916Y0100803D03*
X0062916Y0110803D03*
X0062916Y0120803D03*
X0060416Y0128303D03*
X0060416Y0138303D03*
X0060416Y0148303D03*
X0072916Y0155803D03*
X0072916Y0165803D03*
X0082916Y0165803D03*
X0092916Y0165803D03*
X0100416Y0160803D03*
X0092916Y0155803D03*
X0100416Y0170803D03*
X0101666Y0179553D03*
X0099166Y0192053D03*
X0092916Y0192053D03*
X0082916Y0175803D03*
X0072916Y0175803D03*
X0060416Y0178303D03*
X0060416Y0168303D03*
X0060416Y0188303D03*
X0095416Y0215803D03*
X0105416Y0215803D03*
X0127916Y0215803D03*
X0127916Y0200803D03*
X0130416Y0195803D03*
X0142916Y0188303D03*
X0145416Y0194553D03*
X0152916Y0194553D03*
X0152916Y0188303D03*
X0152916Y0180803D03*
X0152916Y0173303D03*
X0160416Y0173303D03*
X0165416Y0165803D03*
X0155416Y0165803D03*
X0152916Y0158303D03*
X0145416Y0165803D03*
X0132916Y0160803D03*
X0124166Y0160803D03*
X0124166Y0170803D03*
X0132916Y0170803D03*
X0132916Y0179553D03*
X0152916Y0200803D03*
X0162916Y0200803D03*
X0172916Y0215803D03*
X0182916Y0215803D03*
X0192916Y0215803D03*
X0192916Y0205803D03*
X0192916Y0195803D03*
X0182916Y0205803D03*
X0205416Y0203303D03*
X0210416Y0195803D03*
X0227916Y0215803D03*
X0237916Y0215803D03*
X0247916Y0215803D03*
X0257916Y0215803D03*
X0267916Y0215803D03*
X0267916Y0205803D03*
X0267916Y0195803D03*
X0257916Y0205803D03*
X0247916Y0205803D03*
X0267916Y0185803D03*
X0266666Y0175803D03*
X0257916Y0175803D03*
X0257916Y0150803D03*
X0247916Y0148303D03*
X0240416Y0148303D03*
X0232916Y0148303D03*
X0225416Y0148303D03*
X0217916Y0148303D03*
X0220416Y0135803D03*
X0220416Y0128303D03*
X0210416Y0128303D03*
X0210416Y0135803D03*
X0200416Y0135803D03*
X0200416Y0128303D03*
X0192916Y0138303D03*
X0196666Y0145803D03*
X0196666Y0155803D03*
X0196666Y0163303D03*
X0247916Y0138303D03*
X0247916Y0128303D03*
X0257916Y0128303D03*
X0247916Y0109553D03*
X0247916Y0102053D03*
X0247916Y0093303D03*
X0247916Y0083303D03*
X0247916Y0073303D03*
X0257916Y0073303D03*
X0257916Y0065803D03*
X0267916Y0065803D03*
X0267916Y0055803D03*
X0257916Y0055803D03*
X0247916Y0054553D03*
X0232916Y0055803D03*
X0222916Y0055803D03*
X0212916Y0055803D03*
X0202916Y0055803D03*
X0212916Y0065803D03*
X0227916Y0080803D03*
X0227916Y0088303D03*
X0215416Y0104553D03*
X0202916Y0104553D03*
X0182916Y0090803D03*
X0187916Y0085803D03*
X0172916Y0090803D03*
X0177916Y0065803D03*
X0167916Y0065803D03*
X0157916Y0064553D03*
X0147916Y0065803D03*
X0147916Y0055803D03*
X0157916Y0055803D03*
X0167916Y0055803D03*
X0177916Y0055803D03*
X0187916Y0055803D03*
X0137916Y0055803D03*
X0127916Y0055803D03*
X0117916Y0055803D03*
X0107916Y0053303D03*
X0097916Y0053303D03*
X0087916Y0053303D03*
X0087916Y0063303D03*
X0097916Y0063303D03*
X0107916Y0063303D03*
X0137916Y0075803D03*
X0137916Y0085803D03*
X0137916Y0105803D03*
X0137916Y0113303D03*
X0257916Y0103303D03*
X0292916Y0105803D03*
X0292916Y0115803D03*
X0292916Y0125803D03*
X0292916Y0093303D03*
X0292916Y0080803D03*
M02*
