G75*
%MOIN*%
%OFA0B0*%
%FSLAX25Y25*%
%IPPOS*%
%LPD*%
%AMOC8*
5,1,8,0,0,1.08239X$1,22.5*
%
%ADD10C,0.00000*%
D10*
X0055416Y0048303D02*
X0055416Y0221531D01*
X0299510Y0221531D01*
X0299510Y0048303D01*
X0055416Y0048303D01*
X0060928Y0060114D02*
X0060930Y0060272D01*
X0060936Y0060430D01*
X0060946Y0060588D01*
X0060960Y0060746D01*
X0060978Y0060903D01*
X0060999Y0061060D01*
X0061025Y0061216D01*
X0061055Y0061372D01*
X0061088Y0061527D01*
X0061126Y0061680D01*
X0061167Y0061833D01*
X0061212Y0061985D01*
X0061261Y0062136D01*
X0061314Y0062285D01*
X0061370Y0062433D01*
X0061430Y0062579D01*
X0061494Y0062724D01*
X0061562Y0062867D01*
X0061633Y0063009D01*
X0061707Y0063149D01*
X0061785Y0063286D01*
X0061867Y0063422D01*
X0061951Y0063556D01*
X0062040Y0063687D01*
X0062131Y0063816D01*
X0062226Y0063943D01*
X0062323Y0064068D01*
X0062424Y0064190D01*
X0062528Y0064309D01*
X0062635Y0064426D01*
X0062745Y0064540D01*
X0062858Y0064651D01*
X0062973Y0064760D01*
X0063091Y0064865D01*
X0063212Y0064967D01*
X0063335Y0065067D01*
X0063461Y0065163D01*
X0063589Y0065256D01*
X0063719Y0065346D01*
X0063852Y0065432D01*
X0063987Y0065516D01*
X0064123Y0065595D01*
X0064262Y0065672D01*
X0064403Y0065744D01*
X0064545Y0065814D01*
X0064689Y0065879D01*
X0064835Y0065941D01*
X0064982Y0065999D01*
X0065131Y0066054D01*
X0065281Y0066105D01*
X0065432Y0066152D01*
X0065584Y0066195D01*
X0065737Y0066234D01*
X0065892Y0066270D01*
X0066047Y0066301D01*
X0066203Y0066329D01*
X0066359Y0066353D01*
X0066516Y0066373D01*
X0066674Y0066389D01*
X0066831Y0066401D01*
X0066990Y0066409D01*
X0067148Y0066413D01*
X0067306Y0066413D01*
X0067464Y0066409D01*
X0067623Y0066401D01*
X0067780Y0066389D01*
X0067938Y0066373D01*
X0068095Y0066353D01*
X0068251Y0066329D01*
X0068407Y0066301D01*
X0068562Y0066270D01*
X0068717Y0066234D01*
X0068870Y0066195D01*
X0069022Y0066152D01*
X0069173Y0066105D01*
X0069323Y0066054D01*
X0069472Y0065999D01*
X0069619Y0065941D01*
X0069765Y0065879D01*
X0069909Y0065814D01*
X0070051Y0065744D01*
X0070192Y0065672D01*
X0070331Y0065595D01*
X0070467Y0065516D01*
X0070602Y0065432D01*
X0070735Y0065346D01*
X0070865Y0065256D01*
X0070993Y0065163D01*
X0071119Y0065067D01*
X0071242Y0064967D01*
X0071363Y0064865D01*
X0071481Y0064760D01*
X0071596Y0064651D01*
X0071709Y0064540D01*
X0071819Y0064426D01*
X0071926Y0064309D01*
X0072030Y0064190D01*
X0072131Y0064068D01*
X0072228Y0063943D01*
X0072323Y0063816D01*
X0072414Y0063687D01*
X0072503Y0063556D01*
X0072587Y0063422D01*
X0072669Y0063286D01*
X0072747Y0063149D01*
X0072821Y0063009D01*
X0072892Y0062867D01*
X0072960Y0062724D01*
X0073024Y0062579D01*
X0073084Y0062433D01*
X0073140Y0062285D01*
X0073193Y0062136D01*
X0073242Y0061985D01*
X0073287Y0061833D01*
X0073328Y0061680D01*
X0073366Y0061527D01*
X0073399Y0061372D01*
X0073429Y0061216D01*
X0073455Y0061060D01*
X0073476Y0060903D01*
X0073494Y0060746D01*
X0073508Y0060588D01*
X0073518Y0060430D01*
X0073524Y0060272D01*
X0073526Y0060114D01*
X0073524Y0059956D01*
X0073518Y0059798D01*
X0073508Y0059640D01*
X0073494Y0059482D01*
X0073476Y0059325D01*
X0073455Y0059168D01*
X0073429Y0059012D01*
X0073399Y0058856D01*
X0073366Y0058701D01*
X0073328Y0058548D01*
X0073287Y0058395D01*
X0073242Y0058243D01*
X0073193Y0058092D01*
X0073140Y0057943D01*
X0073084Y0057795D01*
X0073024Y0057649D01*
X0072960Y0057504D01*
X0072892Y0057361D01*
X0072821Y0057219D01*
X0072747Y0057079D01*
X0072669Y0056942D01*
X0072587Y0056806D01*
X0072503Y0056672D01*
X0072414Y0056541D01*
X0072323Y0056412D01*
X0072228Y0056285D01*
X0072131Y0056160D01*
X0072030Y0056038D01*
X0071926Y0055919D01*
X0071819Y0055802D01*
X0071709Y0055688D01*
X0071596Y0055577D01*
X0071481Y0055468D01*
X0071363Y0055363D01*
X0071242Y0055261D01*
X0071119Y0055161D01*
X0070993Y0055065D01*
X0070865Y0054972D01*
X0070735Y0054882D01*
X0070602Y0054796D01*
X0070467Y0054712D01*
X0070331Y0054633D01*
X0070192Y0054556D01*
X0070051Y0054484D01*
X0069909Y0054414D01*
X0069765Y0054349D01*
X0069619Y0054287D01*
X0069472Y0054229D01*
X0069323Y0054174D01*
X0069173Y0054123D01*
X0069022Y0054076D01*
X0068870Y0054033D01*
X0068717Y0053994D01*
X0068562Y0053958D01*
X0068407Y0053927D01*
X0068251Y0053899D01*
X0068095Y0053875D01*
X0067938Y0053855D01*
X0067780Y0053839D01*
X0067623Y0053827D01*
X0067464Y0053819D01*
X0067306Y0053815D01*
X0067148Y0053815D01*
X0066990Y0053819D01*
X0066831Y0053827D01*
X0066674Y0053839D01*
X0066516Y0053855D01*
X0066359Y0053875D01*
X0066203Y0053899D01*
X0066047Y0053927D01*
X0065892Y0053958D01*
X0065737Y0053994D01*
X0065584Y0054033D01*
X0065432Y0054076D01*
X0065281Y0054123D01*
X0065131Y0054174D01*
X0064982Y0054229D01*
X0064835Y0054287D01*
X0064689Y0054349D01*
X0064545Y0054414D01*
X0064403Y0054484D01*
X0064262Y0054556D01*
X0064123Y0054633D01*
X0063987Y0054712D01*
X0063852Y0054796D01*
X0063719Y0054882D01*
X0063589Y0054972D01*
X0063461Y0055065D01*
X0063335Y0055161D01*
X0063212Y0055261D01*
X0063091Y0055363D01*
X0062973Y0055468D01*
X0062858Y0055577D01*
X0062745Y0055688D01*
X0062635Y0055802D01*
X0062528Y0055919D01*
X0062424Y0056038D01*
X0062323Y0056160D01*
X0062226Y0056285D01*
X0062131Y0056412D01*
X0062040Y0056541D01*
X0061951Y0056672D01*
X0061867Y0056806D01*
X0061785Y0056942D01*
X0061707Y0057079D01*
X0061633Y0057219D01*
X0061562Y0057361D01*
X0061494Y0057504D01*
X0061430Y0057649D01*
X0061370Y0057795D01*
X0061314Y0057943D01*
X0061261Y0058092D01*
X0061212Y0058243D01*
X0061167Y0058395D01*
X0061126Y0058548D01*
X0061088Y0058701D01*
X0061055Y0058856D01*
X0061025Y0059012D01*
X0060999Y0059168D01*
X0060978Y0059325D01*
X0060960Y0059482D01*
X0060946Y0059640D01*
X0060936Y0059798D01*
X0060930Y0059956D01*
X0060928Y0060114D01*
X0060928Y0209720D02*
X0060930Y0209878D01*
X0060936Y0210036D01*
X0060946Y0210194D01*
X0060960Y0210352D01*
X0060978Y0210509D01*
X0060999Y0210666D01*
X0061025Y0210822D01*
X0061055Y0210978D01*
X0061088Y0211133D01*
X0061126Y0211286D01*
X0061167Y0211439D01*
X0061212Y0211591D01*
X0061261Y0211742D01*
X0061314Y0211891D01*
X0061370Y0212039D01*
X0061430Y0212185D01*
X0061494Y0212330D01*
X0061562Y0212473D01*
X0061633Y0212615D01*
X0061707Y0212755D01*
X0061785Y0212892D01*
X0061867Y0213028D01*
X0061951Y0213162D01*
X0062040Y0213293D01*
X0062131Y0213422D01*
X0062226Y0213549D01*
X0062323Y0213674D01*
X0062424Y0213796D01*
X0062528Y0213915D01*
X0062635Y0214032D01*
X0062745Y0214146D01*
X0062858Y0214257D01*
X0062973Y0214366D01*
X0063091Y0214471D01*
X0063212Y0214573D01*
X0063335Y0214673D01*
X0063461Y0214769D01*
X0063589Y0214862D01*
X0063719Y0214952D01*
X0063852Y0215038D01*
X0063987Y0215122D01*
X0064123Y0215201D01*
X0064262Y0215278D01*
X0064403Y0215350D01*
X0064545Y0215420D01*
X0064689Y0215485D01*
X0064835Y0215547D01*
X0064982Y0215605D01*
X0065131Y0215660D01*
X0065281Y0215711D01*
X0065432Y0215758D01*
X0065584Y0215801D01*
X0065737Y0215840D01*
X0065892Y0215876D01*
X0066047Y0215907D01*
X0066203Y0215935D01*
X0066359Y0215959D01*
X0066516Y0215979D01*
X0066674Y0215995D01*
X0066831Y0216007D01*
X0066990Y0216015D01*
X0067148Y0216019D01*
X0067306Y0216019D01*
X0067464Y0216015D01*
X0067623Y0216007D01*
X0067780Y0215995D01*
X0067938Y0215979D01*
X0068095Y0215959D01*
X0068251Y0215935D01*
X0068407Y0215907D01*
X0068562Y0215876D01*
X0068717Y0215840D01*
X0068870Y0215801D01*
X0069022Y0215758D01*
X0069173Y0215711D01*
X0069323Y0215660D01*
X0069472Y0215605D01*
X0069619Y0215547D01*
X0069765Y0215485D01*
X0069909Y0215420D01*
X0070051Y0215350D01*
X0070192Y0215278D01*
X0070331Y0215201D01*
X0070467Y0215122D01*
X0070602Y0215038D01*
X0070735Y0214952D01*
X0070865Y0214862D01*
X0070993Y0214769D01*
X0071119Y0214673D01*
X0071242Y0214573D01*
X0071363Y0214471D01*
X0071481Y0214366D01*
X0071596Y0214257D01*
X0071709Y0214146D01*
X0071819Y0214032D01*
X0071926Y0213915D01*
X0072030Y0213796D01*
X0072131Y0213674D01*
X0072228Y0213549D01*
X0072323Y0213422D01*
X0072414Y0213293D01*
X0072503Y0213162D01*
X0072587Y0213028D01*
X0072669Y0212892D01*
X0072747Y0212755D01*
X0072821Y0212615D01*
X0072892Y0212473D01*
X0072960Y0212330D01*
X0073024Y0212185D01*
X0073084Y0212039D01*
X0073140Y0211891D01*
X0073193Y0211742D01*
X0073242Y0211591D01*
X0073287Y0211439D01*
X0073328Y0211286D01*
X0073366Y0211133D01*
X0073399Y0210978D01*
X0073429Y0210822D01*
X0073455Y0210666D01*
X0073476Y0210509D01*
X0073494Y0210352D01*
X0073508Y0210194D01*
X0073518Y0210036D01*
X0073524Y0209878D01*
X0073526Y0209720D01*
X0073524Y0209562D01*
X0073518Y0209404D01*
X0073508Y0209246D01*
X0073494Y0209088D01*
X0073476Y0208931D01*
X0073455Y0208774D01*
X0073429Y0208618D01*
X0073399Y0208462D01*
X0073366Y0208307D01*
X0073328Y0208154D01*
X0073287Y0208001D01*
X0073242Y0207849D01*
X0073193Y0207698D01*
X0073140Y0207549D01*
X0073084Y0207401D01*
X0073024Y0207255D01*
X0072960Y0207110D01*
X0072892Y0206967D01*
X0072821Y0206825D01*
X0072747Y0206685D01*
X0072669Y0206548D01*
X0072587Y0206412D01*
X0072503Y0206278D01*
X0072414Y0206147D01*
X0072323Y0206018D01*
X0072228Y0205891D01*
X0072131Y0205766D01*
X0072030Y0205644D01*
X0071926Y0205525D01*
X0071819Y0205408D01*
X0071709Y0205294D01*
X0071596Y0205183D01*
X0071481Y0205074D01*
X0071363Y0204969D01*
X0071242Y0204867D01*
X0071119Y0204767D01*
X0070993Y0204671D01*
X0070865Y0204578D01*
X0070735Y0204488D01*
X0070602Y0204402D01*
X0070467Y0204318D01*
X0070331Y0204239D01*
X0070192Y0204162D01*
X0070051Y0204090D01*
X0069909Y0204020D01*
X0069765Y0203955D01*
X0069619Y0203893D01*
X0069472Y0203835D01*
X0069323Y0203780D01*
X0069173Y0203729D01*
X0069022Y0203682D01*
X0068870Y0203639D01*
X0068717Y0203600D01*
X0068562Y0203564D01*
X0068407Y0203533D01*
X0068251Y0203505D01*
X0068095Y0203481D01*
X0067938Y0203461D01*
X0067780Y0203445D01*
X0067623Y0203433D01*
X0067464Y0203425D01*
X0067306Y0203421D01*
X0067148Y0203421D01*
X0066990Y0203425D01*
X0066831Y0203433D01*
X0066674Y0203445D01*
X0066516Y0203461D01*
X0066359Y0203481D01*
X0066203Y0203505D01*
X0066047Y0203533D01*
X0065892Y0203564D01*
X0065737Y0203600D01*
X0065584Y0203639D01*
X0065432Y0203682D01*
X0065281Y0203729D01*
X0065131Y0203780D01*
X0064982Y0203835D01*
X0064835Y0203893D01*
X0064689Y0203955D01*
X0064545Y0204020D01*
X0064403Y0204090D01*
X0064262Y0204162D01*
X0064123Y0204239D01*
X0063987Y0204318D01*
X0063852Y0204402D01*
X0063719Y0204488D01*
X0063589Y0204578D01*
X0063461Y0204671D01*
X0063335Y0204767D01*
X0063212Y0204867D01*
X0063091Y0204969D01*
X0062973Y0205074D01*
X0062858Y0205183D01*
X0062745Y0205294D01*
X0062635Y0205408D01*
X0062528Y0205525D01*
X0062424Y0205644D01*
X0062323Y0205766D01*
X0062226Y0205891D01*
X0062131Y0206018D01*
X0062040Y0206147D01*
X0061951Y0206278D01*
X0061867Y0206412D01*
X0061785Y0206548D01*
X0061707Y0206685D01*
X0061633Y0206825D01*
X0061562Y0206967D01*
X0061494Y0207110D01*
X0061430Y0207255D01*
X0061370Y0207401D01*
X0061314Y0207549D01*
X0061261Y0207698D01*
X0061212Y0207849D01*
X0061167Y0208001D01*
X0061126Y0208154D01*
X0061088Y0208307D01*
X0061055Y0208462D01*
X0061025Y0208618D01*
X0060999Y0208774D01*
X0060978Y0208931D01*
X0060960Y0209088D01*
X0060946Y0209246D01*
X0060936Y0209404D01*
X0060930Y0209562D01*
X0060928Y0209720D01*
X0281400Y0209720D02*
X0281402Y0209878D01*
X0281408Y0210036D01*
X0281418Y0210194D01*
X0281432Y0210352D01*
X0281450Y0210509D01*
X0281471Y0210666D01*
X0281497Y0210822D01*
X0281527Y0210978D01*
X0281560Y0211133D01*
X0281598Y0211286D01*
X0281639Y0211439D01*
X0281684Y0211591D01*
X0281733Y0211742D01*
X0281786Y0211891D01*
X0281842Y0212039D01*
X0281902Y0212185D01*
X0281966Y0212330D01*
X0282034Y0212473D01*
X0282105Y0212615D01*
X0282179Y0212755D01*
X0282257Y0212892D01*
X0282339Y0213028D01*
X0282423Y0213162D01*
X0282512Y0213293D01*
X0282603Y0213422D01*
X0282698Y0213549D01*
X0282795Y0213674D01*
X0282896Y0213796D01*
X0283000Y0213915D01*
X0283107Y0214032D01*
X0283217Y0214146D01*
X0283330Y0214257D01*
X0283445Y0214366D01*
X0283563Y0214471D01*
X0283684Y0214573D01*
X0283807Y0214673D01*
X0283933Y0214769D01*
X0284061Y0214862D01*
X0284191Y0214952D01*
X0284324Y0215038D01*
X0284459Y0215122D01*
X0284595Y0215201D01*
X0284734Y0215278D01*
X0284875Y0215350D01*
X0285017Y0215420D01*
X0285161Y0215485D01*
X0285307Y0215547D01*
X0285454Y0215605D01*
X0285603Y0215660D01*
X0285753Y0215711D01*
X0285904Y0215758D01*
X0286056Y0215801D01*
X0286209Y0215840D01*
X0286364Y0215876D01*
X0286519Y0215907D01*
X0286675Y0215935D01*
X0286831Y0215959D01*
X0286988Y0215979D01*
X0287146Y0215995D01*
X0287303Y0216007D01*
X0287462Y0216015D01*
X0287620Y0216019D01*
X0287778Y0216019D01*
X0287936Y0216015D01*
X0288095Y0216007D01*
X0288252Y0215995D01*
X0288410Y0215979D01*
X0288567Y0215959D01*
X0288723Y0215935D01*
X0288879Y0215907D01*
X0289034Y0215876D01*
X0289189Y0215840D01*
X0289342Y0215801D01*
X0289494Y0215758D01*
X0289645Y0215711D01*
X0289795Y0215660D01*
X0289944Y0215605D01*
X0290091Y0215547D01*
X0290237Y0215485D01*
X0290381Y0215420D01*
X0290523Y0215350D01*
X0290664Y0215278D01*
X0290803Y0215201D01*
X0290939Y0215122D01*
X0291074Y0215038D01*
X0291207Y0214952D01*
X0291337Y0214862D01*
X0291465Y0214769D01*
X0291591Y0214673D01*
X0291714Y0214573D01*
X0291835Y0214471D01*
X0291953Y0214366D01*
X0292068Y0214257D01*
X0292181Y0214146D01*
X0292291Y0214032D01*
X0292398Y0213915D01*
X0292502Y0213796D01*
X0292603Y0213674D01*
X0292700Y0213549D01*
X0292795Y0213422D01*
X0292886Y0213293D01*
X0292975Y0213162D01*
X0293059Y0213028D01*
X0293141Y0212892D01*
X0293219Y0212755D01*
X0293293Y0212615D01*
X0293364Y0212473D01*
X0293432Y0212330D01*
X0293496Y0212185D01*
X0293556Y0212039D01*
X0293612Y0211891D01*
X0293665Y0211742D01*
X0293714Y0211591D01*
X0293759Y0211439D01*
X0293800Y0211286D01*
X0293838Y0211133D01*
X0293871Y0210978D01*
X0293901Y0210822D01*
X0293927Y0210666D01*
X0293948Y0210509D01*
X0293966Y0210352D01*
X0293980Y0210194D01*
X0293990Y0210036D01*
X0293996Y0209878D01*
X0293998Y0209720D01*
X0293996Y0209562D01*
X0293990Y0209404D01*
X0293980Y0209246D01*
X0293966Y0209088D01*
X0293948Y0208931D01*
X0293927Y0208774D01*
X0293901Y0208618D01*
X0293871Y0208462D01*
X0293838Y0208307D01*
X0293800Y0208154D01*
X0293759Y0208001D01*
X0293714Y0207849D01*
X0293665Y0207698D01*
X0293612Y0207549D01*
X0293556Y0207401D01*
X0293496Y0207255D01*
X0293432Y0207110D01*
X0293364Y0206967D01*
X0293293Y0206825D01*
X0293219Y0206685D01*
X0293141Y0206548D01*
X0293059Y0206412D01*
X0292975Y0206278D01*
X0292886Y0206147D01*
X0292795Y0206018D01*
X0292700Y0205891D01*
X0292603Y0205766D01*
X0292502Y0205644D01*
X0292398Y0205525D01*
X0292291Y0205408D01*
X0292181Y0205294D01*
X0292068Y0205183D01*
X0291953Y0205074D01*
X0291835Y0204969D01*
X0291714Y0204867D01*
X0291591Y0204767D01*
X0291465Y0204671D01*
X0291337Y0204578D01*
X0291207Y0204488D01*
X0291074Y0204402D01*
X0290939Y0204318D01*
X0290803Y0204239D01*
X0290664Y0204162D01*
X0290523Y0204090D01*
X0290381Y0204020D01*
X0290237Y0203955D01*
X0290091Y0203893D01*
X0289944Y0203835D01*
X0289795Y0203780D01*
X0289645Y0203729D01*
X0289494Y0203682D01*
X0289342Y0203639D01*
X0289189Y0203600D01*
X0289034Y0203564D01*
X0288879Y0203533D01*
X0288723Y0203505D01*
X0288567Y0203481D01*
X0288410Y0203461D01*
X0288252Y0203445D01*
X0288095Y0203433D01*
X0287936Y0203425D01*
X0287778Y0203421D01*
X0287620Y0203421D01*
X0287462Y0203425D01*
X0287303Y0203433D01*
X0287146Y0203445D01*
X0286988Y0203461D01*
X0286831Y0203481D01*
X0286675Y0203505D01*
X0286519Y0203533D01*
X0286364Y0203564D01*
X0286209Y0203600D01*
X0286056Y0203639D01*
X0285904Y0203682D01*
X0285753Y0203729D01*
X0285603Y0203780D01*
X0285454Y0203835D01*
X0285307Y0203893D01*
X0285161Y0203955D01*
X0285017Y0204020D01*
X0284875Y0204090D01*
X0284734Y0204162D01*
X0284595Y0204239D01*
X0284459Y0204318D01*
X0284324Y0204402D01*
X0284191Y0204488D01*
X0284061Y0204578D01*
X0283933Y0204671D01*
X0283807Y0204767D01*
X0283684Y0204867D01*
X0283563Y0204969D01*
X0283445Y0205074D01*
X0283330Y0205183D01*
X0283217Y0205294D01*
X0283107Y0205408D01*
X0283000Y0205525D01*
X0282896Y0205644D01*
X0282795Y0205766D01*
X0282698Y0205891D01*
X0282603Y0206018D01*
X0282512Y0206147D01*
X0282423Y0206278D01*
X0282339Y0206412D01*
X0282257Y0206548D01*
X0282179Y0206685D01*
X0282105Y0206825D01*
X0282034Y0206967D01*
X0281966Y0207110D01*
X0281902Y0207255D01*
X0281842Y0207401D01*
X0281786Y0207549D01*
X0281733Y0207698D01*
X0281684Y0207849D01*
X0281639Y0208001D01*
X0281598Y0208154D01*
X0281560Y0208307D01*
X0281527Y0208462D01*
X0281497Y0208618D01*
X0281471Y0208774D01*
X0281450Y0208931D01*
X0281432Y0209088D01*
X0281418Y0209246D01*
X0281408Y0209404D01*
X0281402Y0209562D01*
X0281400Y0209720D01*
X0281400Y0060114D02*
X0281402Y0060272D01*
X0281408Y0060430D01*
X0281418Y0060588D01*
X0281432Y0060746D01*
X0281450Y0060903D01*
X0281471Y0061060D01*
X0281497Y0061216D01*
X0281527Y0061372D01*
X0281560Y0061527D01*
X0281598Y0061680D01*
X0281639Y0061833D01*
X0281684Y0061985D01*
X0281733Y0062136D01*
X0281786Y0062285D01*
X0281842Y0062433D01*
X0281902Y0062579D01*
X0281966Y0062724D01*
X0282034Y0062867D01*
X0282105Y0063009D01*
X0282179Y0063149D01*
X0282257Y0063286D01*
X0282339Y0063422D01*
X0282423Y0063556D01*
X0282512Y0063687D01*
X0282603Y0063816D01*
X0282698Y0063943D01*
X0282795Y0064068D01*
X0282896Y0064190D01*
X0283000Y0064309D01*
X0283107Y0064426D01*
X0283217Y0064540D01*
X0283330Y0064651D01*
X0283445Y0064760D01*
X0283563Y0064865D01*
X0283684Y0064967D01*
X0283807Y0065067D01*
X0283933Y0065163D01*
X0284061Y0065256D01*
X0284191Y0065346D01*
X0284324Y0065432D01*
X0284459Y0065516D01*
X0284595Y0065595D01*
X0284734Y0065672D01*
X0284875Y0065744D01*
X0285017Y0065814D01*
X0285161Y0065879D01*
X0285307Y0065941D01*
X0285454Y0065999D01*
X0285603Y0066054D01*
X0285753Y0066105D01*
X0285904Y0066152D01*
X0286056Y0066195D01*
X0286209Y0066234D01*
X0286364Y0066270D01*
X0286519Y0066301D01*
X0286675Y0066329D01*
X0286831Y0066353D01*
X0286988Y0066373D01*
X0287146Y0066389D01*
X0287303Y0066401D01*
X0287462Y0066409D01*
X0287620Y0066413D01*
X0287778Y0066413D01*
X0287936Y0066409D01*
X0288095Y0066401D01*
X0288252Y0066389D01*
X0288410Y0066373D01*
X0288567Y0066353D01*
X0288723Y0066329D01*
X0288879Y0066301D01*
X0289034Y0066270D01*
X0289189Y0066234D01*
X0289342Y0066195D01*
X0289494Y0066152D01*
X0289645Y0066105D01*
X0289795Y0066054D01*
X0289944Y0065999D01*
X0290091Y0065941D01*
X0290237Y0065879D01*
X0290381Y0065814D01*
X0290523Y0065744D01*
X0290664Y0065672D01*
X0290803Y0065595D01*
X0290939Y0065516D01*
X0291074Y0065432D01*
X0291207Y0065346D01*
X0291337Y0065256D01*
X0291465Y0065163D01*
X0291591Y0065067D01*
X0291714Y0064967D01*
X0291835Y0064865D01*
X0291953Y0064760D01*
X0292068Y0064651D01*
X0292181Y0064540D01*
X0292291Y0064426D01*
X0292398Y0064309D01*
X0292502Y0064190D01*
X0292603Y0064068D01*
X0292700Y0063943D01*
X0292795Y0063816D01*
X0292886Y0063687D01*
X0292975Y0063556D01*
X0293059Y0063422D01*
X0293141Y0063286D01*
X0293219Y0063149D01*
X0293293Y0063009D01*
X0293364Y0062867D01*
X0293432Y0062724D01*
X0293496Y0062579D01*
X0293556Y0062433D01*
X0293612Y0062285D01*
X0293665Y0062136D01*
X0293714Y0061985D01*
X0293759Y0061833D01*
X0293800Y0061680D01*
X0293838Y0061527D01*
X0293871Y0061372D01*
X0293901Y0061216D01*
X0293927Y0061060D01*
X0293948Y0060903D01*
X0293966Y0060746D01*
X0293980Y0060588D01*
X0293990Y0060430D01*
X0293996Y0060272D01*
X0293998Y0060114D01*
X0293996Y0059956D01*
X0293990Y0059798D01*
X0293980Y0059640D01*
X0293966Y0059482D01*
X0293948Y0059325D01*
X0293927Y0059168D01*
X0293901Y0059012D01*
X0293871Y0058856D01*
X0293838Y0058701D01*
X0293800Y0058548D01*
X0293759Y0058395D01*
X0293714Y0058243D01*
X0293665Y0058092D01*
X0293612Y0057943D01*
X0293556Y0057795D01*
X0293496Y0057649D01*
X0293432Y0057504D01*
X0293364Y0057361D01*
X0293293Y0057219D01*
X0293219Y0057079D01*
X0293141Y0056942D01*
X0293059Y0056806D01*
X0292975Y0056672D01*
X0292886Y0056541D01*
X0292795Y0056412D01*
X0292700Y0056285D01*
X0292603Y0056160D01*
X0292502Y0056038D01*
X0292398Y0055919D01*
X0292291Y0055802D01*
X0292181Y0055688D01*
X0292068Y0055577D01*
X0291953Y0055468D01*
X0291835Y0055363D01*
X0291714Y0055261D01*
X0291591Y0055161D01*
X0291465Y0055065D01*
X0291337Y0054972D01*
X0291207Y0054882D01*
X0291074Y0054796D01*
X0290939Y0054712D01*
X0290803Y0054633D01*
X0290664Y0054556D01*
X0290523Y0054484D01*
X0290381Y0054414D01*
X0290237Y0054349D01*
X0290091Y0054287D01*
X0289944Y0054229D01*
X0289795Y0054174D01*
X0289645Y0054123D01*
X0289494Y0054076D01*
X0289342Y0054033D01*
X0289189Y0053994D01*
X0289034Y0053958D01*
X0288879Y0053927D01*
X0288723Y0053899D01*
X0288567Y0053875D01*
X0288410Y0053855D01*
X0288252Y0053839D01*
X0288095Y0053827D01*
X0287936Y0053819D01*
X0287778Y0053815D01*
X0287620Y0053815D01*
X0287462Y0053819D01*
X0287303Y0053827D01*
X0287146Y0053839D01*
X0286988Y0053855D01*
X0286831Y0053875D01*
X0286675Y0053899D01*
X0286519Y0053927D01*
X0286364Y0053958D01*
X0286209Y0053994D01*
X0286056Y0054033D01*
X0285904Y0054076D01*
X0285753Y0054123D01*
X0285603Y0054174D01*
X0285454Y0054229D01*
X0285307Y0054287D01*
X0285161Y0054349D01*
X0285017Y0054414D01*
X0284875Y0054484D01*
X0284734Y0054556D01*
X0284595Y0054633D01*
X0284459Y0054712D01*
X0284324Y0054796D01*
X0284191Y0054882D01*
X0284061Y0054972D01*
X0283933Y0055065D01*
X0283807Y0055161D01*
X0283684Y0055261D01*
X0283563Y0055363D01*
X0283445Y0055468D01*
X0283330Y0055577D01*
X0283217Y0055688D01*
X0283107Y0055802D01*
X0283000Y0055919D01*
X0282896Y0056038D01*
X0282795Y0056160D01*
X0282698Y0056285D01*
X0282603Y0056412D01*
X0282512Y0056541D01*
X0282423Y0056672D01*
X0282339Y0056806D01*
X0282257Y0056942D01*
X0282179Y0057079D01*
X0282105Y0057219D01*
X0282034Y0057361D01*
X0281966Y0057504D01*
X0281902Y0057649D01*
X0281842Y0057795D01*
X0281786Y0057943D01*
X0281733Y0058092D01*
X0281684Y0058243D01*
X0281639Y0058395D01*
X0281598Y0058548D01*
X0281560Y0058701D01*
X0281527Y0058856D01*
X0281497Y0059012D01*
X0281471Y0059168D01*
X0281450Y0059325D01*
X0281432Y0059482D01*
X0281418Y0059640D01*
X0281408Y0059798D01*
X0281402Y0059956D01*
X0281400Y0060114D01*
M02*
