G75*
%MOIN*%
%OFA0B0*%
%FSLAX25Y25*%
%IPPOS*%
%LPD*%
%AMOC8*
5,1,8,0,0,1.08239X$1,22.5*
%
%ADD10C,0.01400*%
%ADD11C,0.00900*%
%ADD12C,0.01100*%
%ADD13C,0.00600*%
%ADD14C,0.01200*%
%ADD15R,0.02500X0.09000*%
%ADD16C,0.01000*%
%ADD17C,0.00500*%
%ADD18C,0.02000*%
%ADD19R,0.01000X0.02000*%
%ADD20R,0.02500X0.15000*%
%ADD21R,0.01197X0.02000*%
%ADD22R,0.05000X0.20000*%
%ADD23C,0.00400*%
%ADD24C,0.00200*%
%ADD25R,0.00591X0.00787*%
%ADD26R,0.00197X0.00197*%
%ADD27R,0.01476X0.00197*%
%ADD28R,0.01181X0.00787*%
%ADD29R,0.00886X0.03543*%
%ADD30R,0.01969X0.00787*%
%ADD31R,0.00886X0.02165*%
%ADD32R,0.00394X0.00394*%
%ADD33R,0.06299X0.01181*%
%ADD34R,0.03543X0.02362*%
D10*
X0077985Y0081503D02*
X0079852Y0081503D01*
X0079852Y0084614D01*
X0078919Y0084614D01*
X0076741Y0085859D02*
X0076743Y0085929D01*
X0076749Y0085998D01*
X0076759Y0086067D01*
X0076772Y0086136D01*
X0076790Y0086203D01*
X0076811Y0086270D01*
X0076836Y0086335D01*
X0076864Y0086399D01*
X0076896Y0086461D01*
X0076932Y0086521D01*
X0076970Y0086579D01*
X0077012Y0086635D01*
X0077057Y0086688D01*
X0077105Y0086739D01*
X0077156Y0086787D01*
X0077209Y0086832D01*
X0077265Y0086874D01*
X0077323Y0086912D01*
X0077383Y0086948D01*
X0077445Y0086980D01*
X0077509Y0087008D01*
X0077574Y0087033D01*
X0077641Y0087054D01*
X0077708Y0087072D01*
X0077777Y0087085D01*
X0077846Y0087095D01*
X0077915Y0087101D01*
X0077985Y0087103D01*
X0079852Y0087103D01*
X0076741Y0085859D02*
X0076741Y0082748D01*
X0076743Y0082678D01*
X0076749Y0082609D01*
X0076759Y0082540D01*
X0076772Y0082471D01*
X0076790Y0082404D01*
X0076811Y0082337D01*
X0076836Y0082272D01*
X0076864Y0082208D01*
X0076896Y0082146D01*
X0076932Y0082086D01*
X0076970Y0082028D01*
X0077012Y0081972D01*
X0077057Y0081919D01*
X0077105Y0081868D01*
X0077156Y0081820D01*
X0077209Y0081775D01*
X0077265Y0081733D01*
X0077323Y0081695D01*
X0077383Y0081659D01*
X0077445Y0081627D01*
X0077509Y0081599D01*
X0077574Y0081574D01*
X0077641Y0081553D01*
X0077708Y0081535D01*
X0077777Y0081522D01*
X0077846Y0081512D01*
X0077915Y0081506D01*
X0077985Y0081504D01*
X0083305Y0081503D02*
X0083305Y0087103D01*
X0086416Y0081503D01*
X0086416Y0087103D01*
X0089870Y0087103D02*
X0091425Y0087103D01*
X0091425Y0087104D02*
X0091501Y0087102D01*
X0091578Y0087097D01*
X0091653Y0087087D01*
X0091729Y0087074D01*
X0091803Y0087057D01*
X0091877Y0087037D01*
X0091949Y0087013D01*
X0092020Y0086986D01*
X0092090Y0086955D01*
X0092158Y0086920D01*
X0092225Y0086883D01*
X0092289Y0086842D01*
X0092352Y0086798D01*
X0092412Y0086751D01*
X0092470Y0086701D01*
X0092525Y0086648D01*
X0092578Y0086593D01*
X0092628Y0086535D01*
X0092675Y0086475D01*
X0092719Y0086412D01*
X0092760Y0086348D01*
X0092797Y0086281D01*
X0092832Y0086213D01*
X0092863Y0086143D01*
X0092890Y0086072D01*
X0092914Y0086000D01*
X0092934Y0085926D01*
X0092951Y0085852D01*
X0092964Y0085776D01*
X0092974Y0085701D01*
X0092979Y0085624D01*
X0092981Y0085548D01*
X0092981Y0083059D01*
X0092979Y0082983D01*
X0092974Y0082906D01*
X0092964Y0082831D01*
X0092951Y0082755D01*
X0092934Y0082681D01*
X0092914Y0082607D01*
X0092890Y0082535D01*
X0092863Y0082464D01*
X0092832Y0082394D01*
X0092797Y0082326D01*
X0092760Y0082259D01*
X0092719Y0082195D01*
X0092675Y0082132D01*
X0092628Y0082072D01*
X0092578Y0082014D01*
X0092525Y0081959D01*
X0092470Y0081906D01*
X0092412Y0081856D01*
X0092352Y0081809D01*
X0092289Y0081765D01*
X0092225Y0081724D01*
X0092158Y0081687D01*
X0092090Y0081652D01*
X0092020Y0081621D01*
X0091949Y0081594D01*
X0091877Y0081570D01*
X0091803Y0081550D01*
X0091729Y0081533D01*
X0091653Y0081520D01*
X0091578Y0081510D01*
X0091501Y0081505D01*
X0091425Y0081503D01*
X0089870Y0081503D01*
X0089870Y0087103D01*
X0090840Y0143378D02*
X0090840Y0148978D01*
X0087729Y0148978D02*
X0090840Y0143378D01*
X0087729Y0143378D02*
X0087729Y0148978D01*
X0084778Y0148978D02*
X0083534Y0148978D01*
X0084156Y0148978D02*
X0084156Y0143378D01*
X0083534Y0143378D02*
X0084778Y0143378D01*
X0079233Y0143378D02*
X0081099Y0148978D01*
X0077366Y0148978D02*
X0079233Y0143378D01*
X0261116Y0161478D02*
X0262983Y0155878D01*
X0264849Y0161478D01*
X0267581Y0159923D02*
X0267581Y0157434D01*
X0267583Y0157356D01*
X0267589Y0157279D01*
X0267598Y0157202D01*
X0267612Y0157126D01*
X0267629Y0157050D01*
X0267650Y0156975D01*
X0267675Y0156902D01*
X0267703Y0156830D01*
X0267735Y0156759D01*
X0267770Y0156690D01*
X0267809Y0156623D01*
X0267851Y0156557D01*
X0267897Y0156494D01*
X0267945Y0156434D01*
X0267996Y0156376D01*
X0268051Y0156320D01*
X0268107Y0156267D01*
X0268167Y0156217D01*
X0268229Y0156171D01*
X0268293Y0156127D01*
X0268359Y0156086D01*
X0268427Y0156049D01*
X0268497Y0156016D01*
X0268569Y0155986D01*
X0268641Y0155959D01*
X0268716Y0155936D01*
X0268791Y0155917D01*
X0268867Y0155902D01*
X0268944Y0155890D01*
X0269021Y0155882D01*
X0269098Y0155878D01*
X0269176Y0155878D01*
X0269253Y0155882D01*
X0269330Y0155890D01*
X0269407Y0155902D01*
X0269483Y0155917D01*
X0269558Y0155936D01*
X0269633Y0155959D01*
X0269705Y0155986D01*
X0269777Y0156016D01*
X0269847Y0156049D01*
X0269915Y0156086D01*
X0269981Y0156127D01*
X0270045Y0156171D01*
X0270107Y0156217D01*
X0270167Y0156267D01*
X0270223Y0156320D01*
X0270278Y0156376D01*
X0270329Y0156434D01*
X0270377Y0156494D01*
X0270423Y0156557D01*
X0270465Y0156623D01*
X0270504Y0156690D01*
X0270539Y0156759D01*
X0270571Y0156830D01*
X0270599Y0156902D01*
X0270624Y0156975D01*
X0270645Y0157050D01*
X0270662Y0157126D01*
X0270676Y0157202D01*
X0270685Y0157279D01*
X0270691Y0157356D01*
X0270693Y0157434D01*
X0270692Y0157434D02*
X0270692Y0159923D01*
X0270693Y0159923D02*
X0270691Y0160001D01*
X0270685Y0160078D01*
X0270676Y0160155D01*
X0270662Y0160231D01*
X0270645Y0160307D01*
X0270624Y0160382D01*
X0270599Y0160455D01*
X0270571Y0160527D01*
X0270539Y0160598D01*
X0270504Y0160667D01*
X0270465Y0160734D01*
X0270423Y0160800D01*
X0270377Y0160863D01*
X0270329Y0160923D01*
X0270278Y0160981D01*
X0270223Y0161037D01*
X0270167Y0161090D01*
X0270107Y0161140D01*
X0270045Y0161186D01*
X0269981Y0161230D01*
X0269915Y0161271D01*
X0269847Y0161308D01*
X0269777Y0161341D01*
X0269705Y0161371D01*
X0269633Y0161398D01*
X0269558Y0161421D01*
X0269483Y0161440D01*
X0269407Y0161455D01*
X0269330Y0161467D01*
X0269253Y0161475D01*
X0269176Y0161479D01*
X0269098Y0161479D01*
X0269021Y0161475D01*
X0268944Y0161467D01*
X0268867Y0161455D01*
X0268791Y0161440D01*
X0268716Y0161421D01*
X0268641Y0161398D01*
X0268569Y0161371D01*
X0268497Y0161341D01*
X0268427Y0161308D01*
X0268359Y0161271D01*
X0268293Y0161230D01*
X0268229Y0161186D01*
X0268167Y0161140D01*
X0268107Y0161090D01*
X0268051Y0161037D01*
X0267996Y0160981D01*
X0267945Y0160923D01*
X0267897Y0160863D01*
X0267851Y0160800D01*
X0267809Y0160734D01*
X0267770Y0160667D01*
X0267735Y0160598D01*
X0267703Y0160527D01*
X0267675Y0160455D01*
X0267650Y0160382D01*
X0267629Y0160307D01*
X0267612Y0160231D01*
X0267598Y0160155D01*
X0267589Y0160078D01*
X0267583Y0160001D01*
X0267581Y0159923D01*
X0273940Y0161478D02*
X0273940Y0157434D01*
X0273942Y0157356D01*
X0273948Y0157279D01*
X0273957Y0157202D01*
X0273971Y0157126D01*
X0273988Y0157050D01*
X0274009Y0156975D01*
X0274034Y0156902D01*
X0274062Y0156830D01*
X0274094Y0156759D01*
X0274129Y0156690D01*
X0274168Y0156623D01*
X0274210Y0156557D01*
X0274256Y0156494D01*
X0274304Y0156434D01*
X0274355Y0156376D01*
X0274410Y0156320D01*
X0274466Y0156267D01*
X0274526Y0156217D01*
X0274588Y0156171D01*
X0274652Y0156127D01*
X0274718Y0156086D01*
X0274786Y0156049D01*
X0274856Y0156016D01*
X0274928Y0155986D01*
X0275000Y0155959D01*
X0275075Y0155936D01*
X0275150Y0155917D01*
X0275226Y0155902D01*
X0275303Y0155890D01*
X0275380Y0155882D01*
X0275457Y0155878D01*
X0275535Y0155878D01*
X0275612Y0155882D01*
X0275689Y0155890D01*
X0275766Y0155902D01*
X0275842Y0155917D01*
X0275917Y0155936D01*
X0275992Y0155959D01*
X0276064Y0155986D01*
X0276136Y0156016D01*
X0276206Y0156049D01*
X0276274Y0156086D01*
X0276340Y0156127D01*
X0276404Y0156171D01*
X0276466Y0156217D01*
X0276526Y0156267D01*
X0276582Y0156320D01*
X0276637Y0156376D01*
X0276688Y0156434D01*
X0276736Y0156494D01*
X0276782Y0156557D01*
X0276824Y0156623D01*
X0276863Y0156690D01*
X0276898Y0156759D01*
X0276930Y0156830D01*
X0276958Y0156902D01*
X0276983Y0156975D01*
X0277004Y0157050D01*
X0277021Y0157126D01*
X0277035Y0157202D01*
X0277044Y0157279D01*
X0277050Y0157356D01*
X0277052Y0157434D01*
X0277051Y0157434D02*
X0277051Y0161478D01*
X0279889Y0161478D02*
X0283000Y0161478D01*
X0281445Y0161478D02*
X0281445Y0155878D01*
X0277675Y0075228D02*
X0276120Y0075228D01*
X0276120Y0069628D01*
X0277675Y0069628D01*
X0277751Y0069630D01*
X0277828Y0069635D01*
X0277903Y0069645D01*
X0277979Y0069658D01*
X0278053Y0069675D01*
X0278127Y0069695D01*
X0278199Y0069719D01*
X0278270Y0069746D01*
X0278340Y0069777D01*
X0278408Y0069812D01*
X0278475Y0069849D01*
X0278539Y0069890D01*
X0278602Y0069934D01*
X0278662Y0069981D01*
X0278720Y0070031D01*
X0278775Y0070084D01*
X0278828Y0070139D01*
X0278878Y0070197D01*
X0278925Y0070257D01*
X0278969Y0070320D01*
X0279010Y0070384D01*
X0279047Y0070451D01*
X0279082Y0070519D01*
X0279113Y0070589D01*
X0279140Y0070660D01*
X0279164Y0070732D01*
X0279184Y0070806D01*
X0279201Y0070880D01*
X0279214Y0070956D01*
X0279224Y0071031D01*
X0279229Y0071108D01*
X0279231Y0071184D01*
X0279231Y0073673D01*
X0279229Y0073749D01*
X0279224Y0073826D01*
X0279214Y0073901D01*
X0279201Y0073977D01*
X0279184Y0074051D01*
X0279164Y0074125D01*
X0279140Y0074197D01*
X0279113Y0074268D01*
X0279082Y0074338D01*
X0279047Y0074406D01*
X0279010Y0074473D01*
X0278969Y0074537D01*
X0278925Y0074600D01*
X0278878Y0074660D01*
X0278828Y0074718D01*
X0278775Y0074773D01*
X0278720Y0074826D01*
X0278662Y0074876D01*
X0278602Y0074923D01*
X0278539Y0074967D01*
X0278475Y0075008D01*
X0278408Y0075045D01*
X0278340Y0075080D01*
X0278270Y0075111D01*
X0278199Y0075138D01*
X0278127Y0075162D01*
X0278053Y0075182D01*
X0277979Y0075199D01*
X0277903Y0075212D01*
X0277828Y0075222D01*
X0277751Y0075227D01*
X0277675Y0075229D01*
X0272666Y0075228D02*
X0272666Y0069628D01*
X0269555Y0075228D01*
X0269555Y0069628D01*
X0266102Y0069628D02*
X0266102Y0072739D01*
X0265169Y0072739D01*
X0262991Y0073984D02*
X0262993Y0074054D01*
X0262999Y0074123D01*
X0263009Y0074192D01*
X0263022Y0074261D01*
X0263040Y0074328D01*
X0263061Y0074395D01*
X0263086Y0074460D01*
X0263114Y0074524D01*
X0263146Y0074586D01*
X0263182Y0074646D01*
X0263220Y0074704D01*
X0263262Y0074760D01*
X0263307Y0074813D01*
X0263355Y0074864D01*
X0263406Y0074912D01*
X0263459Y0074957D01*
X0263515Y0074999D01*
X0263573Y0075037D01*
X0263633Y0075073D01*
X0263695Y0075105D01*
X0263759Y0075133D01*
X0263824Y0075158D01*
X0263891Y0075179D01*
X0263958Y0075197D01*
X0264027Y0075210D01*
X0264096Y0075220D01*
X0264165Y0075226D01*
X0264235Y0075228D01*
X0266102Y0075228D01*
X0262991Y0073984D02*
X0262991Y0070873D01*
X0262993Y0070803D01*
X0262999Y0070734D01*
X0263009Y0070665D01*
X0263022Y0070596D01*
X0263040Y0070529D01*
X0263061Y0070462D01*
X0263086Y0070397D01*
X0263114Y0070333D01*
X0263146Y0070271D01*
X0263182Y0070211D01*
X0263220Y0070153D01*
X0263262Y0070097D01*
X0263307Y0070044D01*
X0263355Y0069993D01*
X0263406Y0069945D01*
X0263459Y0069900D01*
X0263515Y0069858D01*
X0263573Y0069820D01*
X0263633Y0069784D01*
X0263695Y0069752D01*
X0263759Y0069724D01*
X0263824Y0069699D01*
X0263891Y0069678D01*
X0263958Y0069660D01*
X0264027Y0069647D01*
X0264096Y0069637D01*
X0264165Y0069631D01*
X0264235Y0069629D01*
X0264235Y0069628D02*
X0266102Y0069628D01*
D11*
X0288323Y0159753D02*
X0289012Y0159753D01*
X0288323Y0159753D02*
X0288272Y0159755D01*
X0288220Y0159761D01*
X0288170Y0159770D01*
X0288120Y0159784D01*
X0288071Y0159801D01*
X0288024Y0159821D01*
X0287979Y0159845D01*
X0287935Y0159873D01*
X0287893Y0159903D01*
X0287854Y0159937D01*
X0287818Y0159973D01*
X0287784Y0160012D01*
X0287754Y0160054D01*
X0287726Y0160098D01*
X0287702Y0160143D01*
X0287682Y0160190D01*
X0287665Y0160239D01*
X0287651Y0160289D01*
X0287642Y0160339D01*
X0287636Y0160391D01*
X0287634Y0160442D01*
X0287634Y0162164D01*
X0287636Y0162215D01*
X0287642Y0162267D01*
X0287651Y0162317D01*
X0287665Y0162367D01*
X0287682Y0162416D01*
X0287702Y0162463D01*
X0287726Y0162508D01*
X0287754Y0162552D01*
X0287784Y0162594D01*
X0287818Y0162633D01*
X0287854Y0162669D01*
X0287893Y0162703D01*
X0287935Y0162733D01*
X0287978Y0162761D01*
X0288024Y0162785D01*
X0288071Y0162805D01*
X0288120Y0162822D01*
X0288170Y0162836D01*
X0288220Y0162845D01*
X0288271Y0162851D01*
X0288323Y0162853D01*
X0289012Y0162853D01*
X0290774Y0162853D02*
X0292496Y0159753D01*
X0292496Y0162853D01*
X0290774Y0162853D02*
X0290774Y0159753D01*
X0294494Y0160442D02*
X0295183Y0162853D01*
X0295699Y0161131D02*
X0295699Y0159753D01*
X0296216Y0160442D02*
X0294494Y0160442D01*
X0280256Y0165628D02*
X0279395Y0165628D01*
X0279352Y0165630D01*
X0279310Y0165635D01*
X0279268Y0165644D01*
X0279227Y0165656D01*
X0279187Y0165672D01*
X0279149Y0165690D01*
X0279112Y0165712D01*
X0279077Y0165737D01*
X0279045Y0165765D01*
X0279015Y0165795D01*
X0278987Y0165827D01*
X0278962Y0165862D01*
X0278940Y0165899D01*
X0278922Y0165937D01*
X0278906Y0165977D01*
X0278894Y0166018D01*
X0278885Y0166060D01*
X0278880Y0166102D01*
X0278878Y0166145D01*
X0278878Y0167006D01*
X0278878Y0166661D02*
X0280256Y0166661D01*
X0280256Y0167006D01*
X0280254Y0167057D01*
X0280248Y0167109D01*
X0280239Y0167159D01*
X0280225Y0167209D01*
X0280208Y0167258D01*
X0280188Y0167305D01*
X0280164Y0167351D01*
X0280136Y0167394D01*
X0280106Y0167436D01*
X0280072Y0167475D01*
X0280036Y0167511D01*
X0279997Y0167545D01*
X0279955Y0167575D01*
X0279912Y0167603D01*
X0279866Y0167627D01*
X0279819Y0167647D01*
X0279770Y0167664D01*
X0279720Y0167678D01*
X0279670Y0167687D01*
X0279618Y0167693D01*
X0279567Y0167695D01*
X0279516Y0167693D01*
X0279464Y0167687D01*
X0279414Y0167678D01*
X0279364Y0167664D01*
X0279315Y0167647D01*
X0279268Y0167627D01*
X0279223Y0167603D01*
X0279179Y0167575D01*
X0279137Y0167545D01*
X0279098Y0167511D01*
X0279062Y0167475D01*
X0279028Y0167436D01*
X0278998Y0167394D01*
X0278970Y0167351D01*
X0278946Y0167305D01*
X0278926Y0167258D01*
X0278909Y0167209D01*
X0278895Y0167159D01*
X0278886Y0167109D01*
X0278880Y0167057D01*
X0278878Y0167006D01*
X0276877Y0166489D02*
X0276016Y0166834D01*
X0276016Y0166833D02*
X0275978Y0166850D01*
X0275942Y0166871D01*
X0275909Y0166894D01*
X0275877Y0166921D01*
X0275848Y0166951D01*
X0275822Y0166983D01*
X0275799Y0167017D01*
X0275780Y0167053D01*
X0275763Y0167092D01*
X0275751Y0167131D01*
X0275742Y0167171D01*
X0275736Y0167212D01*
X0275735Y0167254D01*
X0275737Y0167295D01*
X0275744Y0167336D01*
X0275754Y0167376D01*
X0275767Y0167415D01*
X0275784Y0167452D01*
X0275805Y0167488D01*
X0275829Y0167522D01*
X0275856Y0167554D01*
X0275885Y0167582D01*
X0275917Y0167608D01*
X0275952Y0167631D01*
X0275988Y0167651D01*
X0276026Y0167667D01*
X0276066Y0167680D01*
X0276106Y0167689D01*
X0276147Y0167694D01*
X0276188Y0167695D01*
X0275758Y0165800D02*
X0275860Y0165765D01*
X0275963Y0165734D01*
X0276067Y0165707D01*
X0276172Y0165684D01*
X0276277Y0165665D01*
X0276384Y0165650D01*
X0276491Y0165638D01*
X0276598Y0165631D01*
X0276705Y0165627D01*
X0276706Y0165628D02*
X0276747Y0165629D01*
X0276788Y0165635D01*
X0276828Y0165643D01*
X0276868Y0165656D01*
X0276906Y0165672D01*
X0276942Y0165692D01*
X0276977Y0165715D01*
X0277009Y0165741D01*
X0277038Y0165770D01*
X0277065Y0165801D01*
X0277089Y0165835D01*
X0277110Y0165871D01*
X0277127Y0165908D01*
X0277140Y0165947D01*
X0277150Y0165987D01*
X0277157Y0166028D01*
X0277159Y0166069D01*
X0277158Y0166111D01*
X0277152Y0166152D01*
X0277143Y0166192D01*
X0277131Y0166231D01*
X0277114Y0166270D01*
X0277095Y0166306D01*
X0277072Y0166340D01*
X0277046Y0166372D01*
X0277017Y0166402D01*
X0276985Y0166429D01*
X0276952Y0166452D01*
X0276916Y0166473D01*
X0276878Y0166490D01*
X0276964Y0167523D02*
X0276890Y0167554D01*
X0276816Y0167582D01*
X0276740Y0167607D01*
X0276663Y0167629D01*
X0276585Y0167648D01*
X0276507Y0167664D01*
X0276428Y0167677D01*
X0276349Y0167686D01*
X0276269Y0167692D01*
X0276189Y0167695D01*
X0273896Y0167178D02*
X0273896Y0165628D01*
X0272518Y0165628D02*
X0272518Y0167695D01*
X0273379Y0167695D01*
X0273422Y0167693D01*
X0273464Y0167688D01*
X0273506Y0167679D01*
X0273547Y0167667D01*
X0273587Y0167651D01*
X0273625Y0167633D01*
X0273662Y0167611D01*
X0273697Y0167586D01*
X0273729Y0167558D01*
X0273759Y0167528D01*
X0273787Y0167496D01*
X0273812Y0167461D01*
X0273834Y0167424D01*
X0273852Y0167386D01*
X0273868Y0167346D01*
X0273880Y0167305D01*
X0273889Y0167263D01*
X0273894Y0167221D01*
X0273896Y0167178D01*
X0270656Y0167006D02*
X0270656Y0166661D01*
X0269278Y0166661D01*
X0269278Y0167006D02*
X0269278Y0166145D01*
X0269280Y0166102D01*
X0269285Y0166060D01*
X0269294Y0166018D01*
X0269306Y0165977D01*
X0269322Y0165937D01*
X0269340Y0165899D01*
X0269362Y0165862D01*
X0269387Y0165827D01*
X0269415Y0165795D01*
X0269445Y0165765D01*
X0269477Y0165737D01*
X0269512Y0165712D01*
X0269549Y0165690D01*
X0269587Y0165672D01*
X0269627Y0165656D01*
X0269668Y0165644D01*
X0269710Y0165635D01*
X0269752Y0165630D01*
X0269795Y0165628D01*
X0270656Y0165628D01*
X0270656Y0167006D02*
X0270654Y0167057D01*
X0270648Y0167109D01*
X0270639Y0167159D01*
X0270625Y0167209D01*
X0270608Y0167258D01*
X0270588Y0167305D01*
X0270564Y0167351D01*
X0270536Y0167394D01*
X0270506Y0167436D01*
X0270472Y0167475D01*
X0270436Y0167511D01*
X0270397Y0167545D01*
X0270355Y0167575D01*
X0270312Y0167603D01*
X0270266Y0167627D01*
X0270219Y0167647D01*
X0270170Y0167664D01*
X0270120Y0167678D01*
X0270070Y0167687D01*
X0270018Y0167693D01*
X0269967Y0167695D01*
X0269916Y0167693D01*
X0269864Y0167687D01*
X0269814Y0167678D01*
X0269764Y0167664D01*
X0269715Y0167647D01*
X0269668Y0167627D01*
X0269623Y0167603D01*
X0269579Y0167575D01*
X0269537Y0167545D01*
X0269498Y0167511D01*
X0269462Y0167475D01*
X0269428Y0167436D01*
X0269398Y0167394D01*
X0269370Y0167351D01*
X0269346Y0167305D01*
X0269326Y0167258D01*
X0269309Y0167209D01*
X0269295Y0167159D01*
X0269286Y0167109D01*
X0269280Y0167057D01*
X0269278Y0167006D01*
X0267244Y0166920D02*
X0266296Y0167436D01*
X0266641Y0168728D02*
X0266710Y0168726D01*
X0266779Y0168721D01*
X0266848Y0168711D01*
X0266916Y0168698D01*
X0266983Y0168682D01*
X0267050Y0168662D01*
X0267115Y0168638D01*
X0267178Y0168611D01*
X0267241Y0168580D01*
X0267301Y0168547D01*
X0267360Y0168510D01*
X0267416Y0168470D01*
X0266297Y0167436D02*
X0266253Y0167464D01*
X0266211Y0167495D01*
X0266172Y0167529D01*
X0266136Y0167566D01*
X0266102Y0167606D01*
X0266072Y0167648D01*
X0266044Y0167692D01*
X0266020Y0167738D01*
X0266000Y0167785D01*
X0265983Y0167834D01*
X0265969Y0167885D01*
X0265960Y0167936D01*
X0265954Y0167987D01*
X0265952Y0168039D01*
X0265954Y0168090D01*
X0265960Y0168142D01*
X0265969Y0168192D01*
X0265983Y0168242D01*
X0266000Y0168291D01*
X0266020Y0168338D01*
X0266044Y0168384D01*
X0266072Y0168427D01*
X0266102Y0168469D01*
X0266136Y0168508D01*
X0266172Y0168544D01*
X0266211Y0168578D01*
X0266253Y0168608D01*
X0266297Y0168636D01*
X0266342Y0168660D01*
X0266389Y0168680D01*
X0266438Y0168697D01*
X0266488Y0168711D01*
X0266538Y0168720D01*
X0266590Y0168726D01*
X0266641Y0168728D01*
X0265866Y0166058D02*
X0265918Y0166009D01*
X0265972Y0165962D01*
X0266028Y0165917D01*
X0266087Y0165876D01*
X0266147Y0165837D01*
X0266210Y0165802D01*
X0266274Y0165769D01*
X0266339Y0165740D01*
X0266406Y0165714D01*
X0266474Y0165691D01*
X0266544Y0165672D01*
X0266614Y0165656D01*
X0266684Y0165644D01*
X0266756Y0165635D01*
X0266827Y0165630D01*
X0266899Y0165628D01*
X0266950Y0165630D01*
X0267002Y0165636D01*
X0267052Y0165645D01*
X0267102Y0165659D01*
X0267151Y0165676D01*
X0267198Y0165696D01*
X0267244Y0165720D01*
X0267287Y0165748D01*
X0267329Y0165778D01*
X0267368Y0165812D01*
X0267404Y0165848D01*
X0267438Y0165887D01*
X0267468Y0165929D01*
X0267496Y0165973D01*
X0267520Y0166018D01*
X0267540Y0166065D01*
X0267557Y0166114D01*
X0267571Y0166164D01*
X0267580Y0166214D01*
X0267586Y0166266D01*
X0267588Y0166317D01*
X0267586Y0166369D01*
X0267580Y0166420D01*
X0267571Y0166471D01*
X0267557Y0166522D01*
X0267540Y0166571D01*
X0267520Y0166618D01*
X0267496Y0166664D01*
X0267468Y0166708D01*
X0267438Y0166750D01*
X0267404Y0166790D01*
X0267368Y0166827D01*
X0267329Y0166861D01*
X0267287Y0166892D01*
X0267243Y0166920D01*
X0276866Y0181878D02*
X0279966Y0182911D01*
X0276866Y0183945D01*
X0278588Y0185583D02*
X0279277Y0185583D01*
X0279277Y0185582D02*
X0279328Y0185584D01*
X0279380Y0185590D01*
X0279430Y0185599D01*
X0279480Y0185613D01*
X0279529Y0185630D01*
X0279576Y0185650D01*
X0279622Y0185674D01*
X0279665Y0185702D01*
X0279707Y0185732D01*
X0279746Y0185766D01*
X0279782Y0185802D01*
X0279816Y0185841D01*
X0279846Y0185883D01*
X0279874Y0185927D01*
X0279898Y0185972D01*
X0279918Y0186019D01*
X0279935Y0186068D01*
X0279949Y0186118D01*
X0279958Y0186168D01*
X0279964Y0186220D01*
X0279966Y0186271D01*
X0279964Y0186322D01*
X0279958Y0186374D01*
X0279949Y0186424D01*
X0279935Y0186474D01*
X0279918Y0186523D01*
X0279898Y0186570D01*
X0279874Y0186616D01*
X0279846Y0186659D01*
X0279816Y0186701D01*
X0279782Y0186740D01*
X0279746Y0186776D01*
X0279707Y0186810D01*
X0279665Y0186840D01*
X0279622Y0186868D01*
X0279576Y0186892D01*
X0279529Y0186912D01*
X0279480Y0186929D01*
X0279430Y0186943D01*
X0279380Y0186952D01*
X0279328Y0186958D01*
X0279277Y0186960D01*
X0278588Y0186960D01*
X0278537Y0186958D01*
X0278485Y0186952D01*
X0278435Y0186943D01*
X0278385Y0186929D01*
X0278336Y0186912D01*
X0278289Y0186892D01*
X0278244Y0186868D01*
X0278200Y0186840D01*
X0278158Y0186810D01*
X0278119Y0186776D01*
X0278083Y0186740D01*
X0278049Y0186701D01*
X0278019Y0186659D01*
X0277991Y0186616D01*
X0277967Y0186570D01*
X0277947Y0186523D01*
X0277930Y0186474D01*
X0277916Y0186424D01*
X0277907Y0186374D01*
X0277901Y0186322D01*
X0277899Y0186271D01*
X0277901Y0186220D01*
X0277907Y0186168D01*
X0277916Y0186118D01*
X0277930Y0186068D01*
X0277947Y0186019D01*
X0277967Y0185972D01*
X0277991Y0185927D01*
X0278019Y0185883D01*
X0278049Y0185841D01*
X0278083Y0185802D01*
X0278119Y0185766D01*
X0278158Y0185732D01*
X0278200Y0185702D01*
X0278244Y0185674D01*
X0278289Y0185650D01*
X0278336Y0185630D01*
X0278385Y0185613D01*
X0278435Y0185599D01*
X0278485Y0185590D01*
X0278537Y0185584D01*
X0278588Y0185582D01*
X0277899Y0188823D02*
X0279449Y0188823D01*
X0279449Y0188822D02*
X0279492Y0188824D01*
X0279534Y0188829D01*
X0279576Y0188838D01*
X0279617Y0188850D01*
X0279657Y0188866D01*
X0279695Y0188884D01*
X0279732Y0188906D01*
X0279767Y0188931D01*
X0279799Y0188959D01*
X0279829Y0188989D01*
X0279857Y0189021D01*
X0279882Y0189056D01*
X0279904Y0189093D01*
X0279922Y0189131D01*
X0279938Y0189171D01*
X0279950Y0189212D01*
X0279959Y0189254D01*
X0279964Y0189296D01*
X0279966Y0189339D01*
X0279966Y0190200D01*
X0277899Y0190200D01*
X0277899Y0191699D02*
X0277899Y0192733D01*
X0276866Y0192044D02*
X0279449Y0192044D01*
X0279449Y0192043D02*
X0279492Y0192045D01*
X0279534Y0192050D01*
X0279576Y0192059D01*
X0279617Y0192071D01*
X0279657Y0192087D01*
X0279695Y0192105D01*
X0279732Y0192127D01*
X0279767Y0192152D01*
X0279799Y0192180D01*
X0279829Y0192210D01*
X0279857Y0192242D01*
X0279882Y0192277D01*
X0279904Y0192314D01*
X0279922Y0192352D01*
X0279938Y0192392D01*
X0279950Y0192433D01*
X0279959Y0192475D01*
X0279964Y0192517D01*
X0279966Y0192560D01*
X0279966Y0192733D01*
X0267983Y0211878D02*
X0266261Y0211878D01*
X0267725Y0213600D01*
X0267208Y0214978D02*
X0267148Y0214976D01*
X0267089Y0214971D01*
X0267030Y0214962D01*
X0266972Y0214950D01*
X0266914Y0214934D01*
X0266858Y0214914D01*
X0266803Y0214892D01*
X0266749Y0214866D01*
X0266697Y0214837D01*
X0266647Y0214805D01*
X0266598Y0214770D01*
X0266552Y0214732D01*
X0266509Y0214691D01*
X0266467Y0214648D01*
X0266429Y0214602D01*
X0266393Y0214555D01*
X0266360Y0214505D01*
X0266331Y0214453D01*
X0266304Y0214400D01*
X0266281Y0214345D01*
X0266260Y0214289D01*
X0267725Y0213601D02*
X0267764Y0213641D01*
X0267801Y0213683D01*
X0267834Y0213728D01*
X0267865Y0213775D01*
X0267892Y0213824D01*
X0267916Y0213875D01*
X0267936Y0213928D01*
X0267953Y0213981D01*
X0267966Y0214036D01*
X0267975Y0214091D01*
X0267981Y0214147D01*
X0267983Y0214203D01*
X0267981Y0214258D01*
X0267975Y0214313D01*
X0267965Y0214368D01*
X0267952Y0214421D01*
X0267934Y0214474D01*
X0267913Y0214525D01*
X0267888Y0214574D01*
X0267860Y0214622D01*
X0267828Y0214667D01*
X0267794Y0214711D01*
X0267756Y0214751D01*
X0267716Y0214789D01*
X0267672Y0214823D01*
X0267627Y0214855D01*
X0267579Y0214883D01*
X0267530Y0214908D01*
X0267479Y0214929D01*
X0267426Y0214947D01*
X0267373Y0214960D01*
X0267318Y0214970D01*
X0267263Y0214976D01*
X0267208Y0214978D01*
X0264619Y0214978D02*
X0263930Y0214978D01*
X0263878Y0214976D01*
X0263827Y0214970D01*
X0263777Y0214961D01*
X0263727Y0214947D01*
X0263678Y0214930D01*
X0263631Y0214910D01*
X0263585Y0214886D01*
X0263542Y0214858D01*
X0263500Y0214828D01*
X0263461Y0214794D01*
X0263425Y0214758D01*
X0263391Y0214719D01*
X0263361Y0214677D01*
X0263333Y0214633D01*
X0263309Y0214588D01*
X0263289Y0214541D01*
X0263272Y0214492D01*
X0263258Y0214442D01*
X0263249Y0214392D01*
X0263243Y0214340D01*
X0263241Y0214289D01*
X0263241Y0212567D01*
X0263243Y0212516D01*
X0263249Y0212464D01*
X0263258Y0212414D01*
X0263272Y0212364D01*
X0263289Y0212315D01*
X0263309Y0212268D01*
X0263333Y0212223D01*
X0263361Y0212179D01*
X0263391Y0212137D01*
X0263425Y0212098D01*
X0263461Y0212062D01*
X0263500Y0212028D01*
X0263542Y0211998D01*
X0263586Y0211970D01*
X0263631Y0211946D01*
X0263678Y0211926D01*
X0263727Y0211909D01*
X0263777Y0211895D01*
X0263827Y0211886D01*
X0263879Y0211880D01*
X0263930Y0211878D01*
X0264619Y0211878D01*
X0261619Y0211878D02*
X0260930Y0211878D01*
X0260879Y0211880D01*
X0260827Y0211886D01*
X0260777Y0211895D01*
X0260727Y0211909D01*
X0260678Y0211926D01*
X0260631Y0211946D01*
X0260586Y0211970D01*
X0260542Y0211998D01*
X0260500Y0212028D01*
X0260461Y0212062D01*
X0260425Y0212098D01*
X0260391Y0212137D01*
X0260361Y0212179D01*
X0260333Y0212223D01*
X0260309Y0212268D01*
X0260289Y0212315D01*
X0260272Y0212364D01*
X0260258Y0212414D01*
X0260249Y0212464D01*
X0260243Y0212516D01*
X0260241Y0212567D01*
X0260241Y0214289D01*
X0260243Y0214340D01*
X0260249Y0214392D01*
X0260258Y0214442D01*
X0260272Y0214492D01*
X0260289Y0214541D01*
X0260309Y0214588D01*
X0260333Y0214633D01*
X0260361Y0214677D01*
X0260391Y0214719D01*
X0260425Y0214758D01*
X0260461Y0214794D01*
X0260500Y0214828D01*
X0260542Y0214858D01*
X0260585Y0214886D01*
X0260631Y0214910D01*
X0260678Y0214930D01*
X0260727Y0214947D01*
X0260777Y0214961D01*
X0260827Y0214970D01*
X0260878Y0214976D01*
X0260930Y0214978D01*
X0261619Y0214978D01*
X0211284Y0208128D02*
X0209562Y0208128D01*
X0211026Y0209850D01*
X0210509Y0211228D02*
X0210449Y0211226D01*
X0210390Y0211221D01*
X0210331Y0211212D01*
X0210273Y0211200D01*
X0210215Y0211184D01*
X0210159Y0211164D01*
X0210104Y0211142D01*
X0210050Y0211116D01*
X0209998Y0211087D01*
X0209948Y0211055D01*
X0209899Y0211020D01*
X0209853Y0210982D01*
X0209810Y0210941D01*
X0209768Y0210898D01*
X0209730Y0210852D01*
X0209694Y0210805D01*
X0209661Y0210755D01*
X0209632Y0210703D01*
X0209605Y0210650D01*
X0209582Y0210595D01*
X0209561Y0210539D01*
X0211026Y0209851D02*
X0211065Y0209891D01*
X0211102Y0209933D01*
X0211135Y0209978D01*
X0211166Y0210025D01*
X0211193Y0210074D01*
X0211217Y0210125D01*
X0211237Y0210178D01*
X0211254Y0210231D01*
X0211267Y0210286D01*
X0211276Y0210341D01*
X0211282Y0210397D01*
X0211284Y0210453D01*
X0211282Y0210508D01*
X0211276Y0210563D01*
X0211266Y0210618D01*
X0211253Y0210671D01*
X0211235Y0210724D01*
X0211214Y0210775D01*
X0211189Y0210824D01*
X0211161Y0210872D01*
X0211129Y0210917D01*
X0211095Y0210961D01*
X0211057Y0211001D01*
X0211017Y0211039D01*
X0210973Y0211073D01*
X0210928Y0211105D01*
X0210880Y0211133D01*
X0210831Y0211158D01*
X0210780Y0211179D01*
X0210727Y0211197D01*
X0210674Y0211210D01*
X0210619Y0211220D01*
X0210564Y0211226D01*
X0210509Y0211228D01*
X0207565Y0210367D02*
X0207565Y0208989D01*
X0207564Y0208989D02*
X0207562Y0208933D01*
X0207557Y0208877D01*
X0207547Y0208821D01*
X0207535Y0208766D01*
X0207518Y0208712D01*
X0207498Y0208660D01*
X0207475Y0208608D01*
X0207449Y0208559D01*
X0207419Y0208511D01*
X0207386Y0208465D01*
X0207350Y0208421D01*
X0207312Y0208380D01*
X0207271Y0208342D01*
X0207227Y0208306D01*
X0207181Y0208273D01*
X0207134Y0208243D01*
X0207084Y0208217D01*
X0207032Y0208194D01*
X0206980Y0208174D01*
X0206926Y0208157D01*
X0206871Y0208145D01*
X0206815Y0208135D01*
X0206759Y0208130D01*
X0206703Y0208128D01*
X0205842Y0208128D01*
X0205842Y0211228D01*
X0206703Y0211228D01*
X0206759Y0211226D01*
X0206815Y0211221D01*
X0206871Y0211211D01*
X0206926Y0211199D01*
X0206980Y0211182D01*
X0207032Y0211162D01*
X0207084Y0211139D01*
X0207134Y0211113D01*
X0207181Y0211083D01*
X0207227Y0211050D01*
X0207271Y0211014D01*
X0207312Y0210976D01*
X0207350Y0210935D01*
X0207386Y0210891D01*
X0207419Y0210845D01*
X0207449Y0210797D01*
X0207475Y0210748D01*
X0207498Y0210696D01*
X0207518Y0210644D01*
X0207535Y0210590D01*
X0207547Y0210535D01*
X0207557Y0210479D01*
X0207562Y0210423D01*
X0207564Y0210367D01*
X0204114Y0211228D02*
X0202736Y0211228D01*
X0202736Y0208128D01*
X0204114Y0208128D01*
X0203769Y0209850D02*
X0202736Y0209850D01*
X0200994Y0208128D02*
X0199616Y0208128D01*
X0199616Y0211228D01*
X0157358Y0213128D02*
X0155636Y0213128D01*
X0156497Y0213128D02*
X0156497Y0216228D01*
X0155636Y0215539D01*
X0153994Y0216228D02*
X0153305Y0216228D01*
X0153253Y0216226D01*
X0153202Y0216220D01*
X0153152Y0216211D01*
X0153102Y0216197D01*
X0153053Y0216180D01*
X0153006Y0216160D01*
X0152960Y0216136D01*
X0152917Y0216108D01*
X0152875Y0216078D01*
X0152836Y0216044D01*
X0152800Y0216008D01*
X0152766Y0215969D01*
X0152736Y0215927D01*
X0152708Y0215883D01*
X0152684Y0215838D01*
X0152664Y0215791D01*
X0152647Y0215742D01*
X0152633Y0215692D01*
X0152624Y0215642D01*
X0152618Y0215590D01*
X0152616Y0215539D01*
X0152616Y0213817D01*
X0152618Y0213766D01*
X0152624Y0213714D01*
X0152633Y0213664D01*
X0152647Y0213614D01*
X0152664Y0213565D01*
X0152684Y0213518D01*
X0152708Y0213473D01*
X0152736Y0213429D01*
X0152766Y0213387D01*
X0152800Y0213348D01*
X0152836Y0213312D01*
X0152875Y0213278D01*
X0152917Y0213248D01*
X0152961Y0213220D01*
X0153006Y0213196D01*
X0153053Y0213176D01*
X0153102Y0213159D01*
X0153152Y0213145D01*
X0153202Y0213136D01*
X0153254Y0213130D01*
X0153305Y0213128D01*
X0153994Y0213128D01*
X0150994Y0213128D02*
X0150305Y0213128D01*
X0150254Y0213130D01*
X0150202Y0213136D01*
X0150152Y0213145D01*
X0150102Y0213159D01*
X0150053Y0213176D01*
X0150006Y0213196D01*
X0149961Y0213220D01*
X0149917Y0213248D01*
X0149875Y0213278D01*
X0149836Y0213312D01*
X0149800Y0213348D01*
X0149766Y0213387D01*
X0149736Y0213429D01*
X0149708Y0213473D01*
X0149684Y0213518D01*
X0149664Y0213565D01*
X0149647Y0213614D01*
X0149633Y0213664D01*
X0149624Y0213714D01*
X0149618Y0213766D01*
X0149616Y0213817D01*
X0149616Y0215539D01*
X0149618Y0215590D01*
X0149624Y0215642D01*
X0149633Y0215692D01*
X0149647Y0215742D01*
X0149664Y0215791D01*
X0149684Y0215838D01*
X0149708Y0215883D01*
X0149736Y0215927D01*
X0149766Y0215969D01*
X0149800Y0216008D01*
X0149836Y0216044D01*
X0149875Y0216078D01*
X0149917Y0216108D01*
X0149960Y0216136D01*
X0150006Y0216160D01*
X0150053Y0216180D01*
X0150102Y0216197D01*
X0150152Y0216211D01*
X0150202Y0216220D01*
X0150253Y0216226D01*
X0150305Y0216228D01*
X0150994Y0216228D01*
X0137966Y0196978D02*
X0137966Y0195256D01*
X0137966Y0196117D02*
X0134866Y0196117D01*
X0135555Y0195256D01*
X0134866Y0192739D02*
X0134868Y0192797D01*
X0134874Y0192854D01*
X0134883Y0192910D01*
X0134897Y0192966D01*
X0134914Y0193021D01*
X0134934Y0193075D01*
X0134959Y0193127D01*
X0134986Y0193178D01*
X0135017Y0193226D01*
X0135051Y0193273D01*
X0135088Y0193317D01*
X0135128Y0193358D01*
X0135171Y0193397D01*
X0135216Y0193432D01*
X0135264Y0193465D01*
X0135313Y0193494D01*
X0135365Y0193520D01*
X0135418Y0193542D01*
X0135472Y0193561D01*
X0135527Y0193577D01*
X0135584Y0193588D01*
X0135641Y0193596D01*
X0135698Y0193600D01*
X0135756Y0193600D01*
X0135813Y0193596D01*
X0135870Y0193588D01*
X0135927Y0193577D01*
X0135982Y0193561D01*
X0136036Y0193542D01*
X0136089Y0193520D01*
X0136141Y0193494D01*
X0136190Y0193465D01*
X0136238Y0193432D01*
X0136283Y0193397D01*
X0136326Y0193358D01*
X0136366Y0193317D01*
X0136403Y0193273D01*
X0136437Y0193226D01*
X0136468Y0193178D01*
X0136495Y0193127D01*
X0136520Y0193075D01*
X0136540Y0193021D01*
X0136557Y0192966D01*
X0136571Y0192910D01*
X0136580Y0192854D01*
X0136586Y0192797D01*
X0136588Y0192739D01*
X0136588Y0191878D01*
X0137966Y0191878D02*
X0134866Y0191878D01*
X0134866Y0192739D01*
X0134866Y0189686D02*
X0137277Y0189686D01*
X0137328Y0189684D01*
X0137380Y0189678D01*
X0137430Y0189669D01*
X0137480Y0189655D01*
X0137529Y0189638D01*
X0137576Y0189618D01*
X0137622Y0189594D01*
X0137665Y0189566D01*
X0137707Y0189536D01*
X0137746Y0189502D01*
X0137782Y0189466D01*
X0137816Y0189427D01*
X0137846Y0189385D01*
X0137874Y0189342D01*
X0137898Y0189296D01*
X0137918Y0189249D01*
X0137935Y0189200D01*
X0137949Y0189150D01*
X0137958Y0189100D01*
X0137964Y0189048D01*
X0137966Y0188997D01*
X0137966Y0188653D01*
X0125200Y0198192D02*
X0123134Y0198192D01*
X0123134Y0199225D02*
X0125200Y0199225D01*
X0124341Y0195978D02*
X0122963Y0195978D01*
X0122963Y0192878D01*
X0122963Y0194600D02*
X0124341Y0194600D01*
X0121221Y0194600D02*
X0119843Y0194600D01*
X0119843Y0195978D02*
X0119843Y0192878D01*
X0117832Y0193739D02*
X0117832Y0195117D01*
X0117830Y0195175D01*
X0117824Y0195232D01*
X0117815Y0195288D01*
X0117801Y0195344D01*
X0117784Y0195399D01*
X0117764Y0195453D01*
X0117739Y0195505D01*
X0117712Y0195556D01*
X0117681Y0195604D01*
X0117647Y0195651D01*
X0117610Y0195695D01*
X0117570Y0195736D01*
X0117527Y0195775D01*
X0117482Y0195810D01*
X0117434Y0195843D01*
X0117385Y0195872D01*
X0117333Y0195898D01*
X0117280Y0195920D01*
X0117226Y0195939D01*
X0117171Y0195955D01*
X0117114Y0195966D01*
X0117057Y0195974D01*
X0117000Y0195978D01*
X0116942Y0195978D01*
X0116885Y0195974D01*
X0116828Y0195966D01*
X0116771Y0195955D01*
X0116716Y0195939D01*
X0116662Y0195920D01*
X0116609Y0195898D01*
X0116557Y0195872D01*
X0116508Y0195843D01*
X0116460Y0195810D01*
X0116415Y0195775D01*
X0116372Y0195736D01*
X0116332Y0195695D01*
X0116295Y0195651D01*
X0116261Y0195604D01*
X0116230Y0195556D01*
X0116203Y0195505D01*
X0116178Y0195453D01*
X0116158Y0195399D01*
X0116141Y0195344D01*
X0116127Y0195288D01*
X0116118Y0195232D01*
X0116112Y0195175D01*
X0116110Y0195117D01*
X0116110Y0193739D01*
X0116112Y0193681D01*
X0116118Y0193624D01*
X0116127Y0193568D01*
X0116141Y0193512D01*
X0116158Y0193457D01*
X0116178Y0193403D01*
X0116203Y0193351D01*
X0116230Y0193300D01*
X0116261Y0193252D01*
X0116295Y0193205D01*
X0116332Y0193161D01*
X0116372Y0193120D01*
X0116415Y0193081D01*
X0116460Y0193046D01*
X0116508Y0193013D01*
X0116557Y0192984D01*
X0116609Y0192958D01*
X0116662Y0192936D01*
X0116716Y0192917D01*
X0116771Y0192901D01*
X0116828Y0192890D01*
X0116885Y0192882D01*
X0116942Y0192878D01*
X0117000Y0192878D01*
X0117057Y0192882D01*
X0117114Y0192890D01*
X0117171Y0192901D01*
X0117226Y0192917D01*
X0117280Y0192936D01*
X0117333Y0192958D01*
X0117385Y0192984D01*
X0117434Y0193013D01*
X0117482Y0193046D01*
X0117527Y0193081D01*
X0117570Y0193120D01*
X0117610Y0193161D01*
X0117647Y0193205D01*
X0117681Y0193252D01*
X0117712Y0193300D01*
X0117739Y0193351D01*
X0117764Y0193403D01*
X0117784Y0193457D01*
X0117801Y0193512D01*
X0117815Y0193568D01*
X0117824Y0193624D01*
X0117830Y0193681D01*
X0117832Y0193739D01*
X0119843Y0195978D02*
X0121221Y0195978D01*
X0120327Y0197503D02*
X0121360Y0200603D01*
X0119294Y0200603D02*
X0120327Y0197503D01*
X0116727Y0197503D02*
X0115866Y0197503D01*
X0116727Y0197503D02*
X0116785Y0197505D01*
X0116842Y0197511D01*
X0116898Y0197520D01*
X0116954Y0197534D01*
X0117009Y0197551D01*
X0117063Y0197571D01*
X0117115Y0197596D01*
X0117166Y0197623D01*
X0117214Y0197654D01*
X0117261Y0197688D01*
X0117305Y0197725D01*
X0117346Y0197765D01*
X0117385Y0197808D01*
X0117420Y0197853D01*
X0117453Y0197901D01*
X0117482Y0197950D01*
X0117508Y0198002D01*
X0117530Y0198055D01*
X0117549Y0198109D01*
X0117565Y0198164D01*
X0117576Y0198221D01*
X0117584Y0198278D01*
X0117588Y0198335D01*
X0117588Y0198393D01*
X0117584Y0198450D01*
X0117576Y0198507D01*
X0117565Y0198564D01*
X0117549Y0198619D01*
X0117530Y0198673D01*
X0117508Y0198726D01*
X0117482Y0198778D01*
X0117453Y0198827D01*
X0117420Y0198875D01*
X0117385Y0198920D01*
X0117346Y0198963D01*
X0117305Y0199003D01*
X0117261Y0199040D01*
X0117214Y0199074D01*
X0117166Y0199105D01*
X0117115Y0199132D01*
X0117063Y0199157D01*
X0117009Y0199177D01*
X0116954Y0199194D01*
X0116898Y0199208D01*
X0116842Y0199217D01*
X0116785Y0199223D01*
X0116727Y0199225D01*
X0116899Y0199225D02*
X0116210Y0199225D01*
X0116899Y0199225D02*
X0116950Y0199227D01*
X0117002Y0199233D01*
X0117052Y0199242D01*
X0117102Y0199256D01*
X0117151Y0199273D01*
X0117198Y0199293D01*
X0117244Y0199317D01*
X0117287Y0199345D01*
X0117329Y0199375D01*
X0117368Y0199409D01*
X0117404Y0199445D01*
X0117438Y0199484D01*
X0117468Y0199526D01*
X0117496Y0199570D01*
X0117520Y0199615D01*
X0117540Y0199662D01*
X0117557Y0199711D01*
X0117571Y0199761D01*
X0117580Y0199811D01*
X0117586Y0199863D01*
X0117588Y0199914D01*
X0117586Y0199965D01*
X0117580Y0200017D01*
X0117571Y0200067D01*
X0117557Y0200117D01*
X0117540Y0200166D01*
X0117520Y0200213D01*
X0117496Y0200259D01*
X0117468Y0200302D01*
X0117438Y0200344D01*
X0117404Y0200383D01*
X0117368Y0200419D01*
X0117329Y0200453D01*
X0117287Y0200483D01*
X0117244Y0200511D01*
X0117198Y0200535D01*
X0117151Y0200555D01*
X0117102Y0200572D01*
X0117052Y0200586D01*
X0117002Y0200595D01*
X0116950Y0200601D01*
X0116899Y0200603D01*
X0115866Y0200603D01*
X0118366Y0189353D02*
X0119227Y0189353D01*
X0119283Y0189351D01*
X0119339Y0189346D01*
X0119395Y0189336D01*
X0119450Y0189324D01*
X0119504Y0189307D01*
X0119556Y0189287D01*
X0119608Y0189264D01*
X0119658Y0189238D01*
X0119705Y0189208D01*
X0119751Y0189175D01*
X0119795Y0189139D01*
X0119836Y0189101D01*
X0119874Y0189060D01*
X0119910Y0189016D01*
X0119943Y0188970D01*
X0119973Y0188922D01*
X0119999Y0188873D01*
X0120022Y0188821D01*
X0120042Y0188769D01*
X0120059Y0188715D01*
X0120071Y0188660D01*
X0120081Y0188604D01*
X0120086Y0188548D01*
X0120088Y0188492D01*
X0120088Y0187114D01*
X0120086Y0187058D01*
X0120081Y0187002D01*
X0120071Y0186946D01*
X0120059Y0186891D01*
X0120042Y0186837D01*
X0120022Y0186785D01*
X0119999Y0186733D01*
X0119973Y0186684D01*
X0119943Y0186636D01*
X0119910Y0186590D01*
X0119874Y0186546D01*
X0119836Y0186505D01*
X0119795Y0186467D01*
X0119751Y0186431D01*
X0119705Y0186398D01*
X0119658Y0186368D01*
X0119608Y0186342D01*
X0119556Y0186319D01*
X0119504Y0186299D01*
X0119450Y0186282D01*
X0119395Y0186270D01*
X0119339Y0186260D01*
X0119283Y0186255D01*
X0119227Y0186253D01*
X0118366Y0186253D01*
X0118366Y0189353D01*
X0122086Y0188664D02*
X0122947Y0189353D01*
X0122947Y0186253D01*
X0122086Y0186253D02*
X0123808Y0186253D01*
X0086909Y0189378D02*
X0085187Y0189378D01*
X0086048Y0189378D02*
X0086048Y0192478D01*
X0085187Y0191789D01*
X0083190Y0191617D02*
X0083190Y0190239D01*
X0083189Y0190239D02*
X0083187Y0190183D01*
X0083182Y0190127D01*
X0083172Y0190071D01*
X0083160Y0190016D01*
X0083143Y0189962D01*
X0083123Y0189910D01*
X0083100Y0189858D01*
X0083074Y0189809D01*
X0083044Y0189761D01*
X0083011Y0189715D01*
X0082975Y0189671D01*
X0082937Y0189630D01*
X0082896Y0189592D01*
X0082852Y0189556D01*
X0082806Y0189523D01*
X0082759Y0189493D01*
X0082709Y0189467D01*
X0082657Y0189444D01*
X0082605Y0189424D01*
X0082551Y0189407D01*
X0082496Y0189395D01*
X0082440Y0189385D01*
X0082384Y0189380D01*
X0082328Y0189378D01*
X0081467Y0189378D01*
X0081467Y0192478D01*
X0082328Y0192478D01*
X0082384Y0192476D01*
X0082440Y0192471D01*
X0082496Y0192461D01*
X0082551Y0192449D01*
X0082605Y0192432D01*
X0082657Y0192412D01*
X0082709Y0192389D01*
X0082759Y0192363D01*
X0082806Y0192333D01*
X0082852Y0192300D01*
X0082896Y0192264D01*
X0082937Y0192226D01*
X0082975Y0192185D01*
X0083011Y0192141D01*
X0083044Y0192095D01*
X0083074Y0192047D01*
X0083100Y0191998D01*
X0083123Y0191946D01*
X0083143Y0191894D01*
X0083160Y0191840D01*
X0083172Y0191785D01*
X0083182Y0191729D01*
X0083187Y0191673D01*
X0083189Y0191617D01*
X0079739Y0192478D02*
X0078361Y0192478D01*
X0078361Y0189378D01*
X0079739Y0189378D01*
X0079394Y0191100D02*
X0078361Y0191100D01*
X0076619Y0189378D02*
X0075241Y0189378D01*
X0075241Y0192478D01*
X0084366Y0200067D02*
X0084366Y0200756D01*
X0084366Y0200067D02*
X0084368Y0200015D01*
X0084374Y0199964D01*
X0084383Y0199914D01*
X0084397Y0199864D01*
X0084414Y0199815D01*
X0084434Y0199768D01*
X0084458Y0199722D01*
X0084486Y0199679D01*
X0084516Y0199637D01*
X0084550Y0199598D01*
X0084586Y0199562D01*
X0084625Y0199528D01*
X0084667Y0199498D01*
X0084711Y0199470D01*
X0084756Y0199446D01*
X0084803Y0199426D01*
X0084852Y0199409D01*
X0084902Y0199395D01*
X0084952Y0199386D01*
X0085004Y0199380D01*
X0085055Y0199378D01*
X0086777Y0199378D01*
X0086828Y0199380D01*
X0086880Y0199386D01*
X0086930Y0199395D01*
X0086980Y0199409D01*
X0087029Y0199426D01*
X0087076Y0199446D01*
X0087122Y0199470D01*
X0087165Y0199498D01*
X0087207Y0199528D01*
X0087246Y0199562D01*
X0087282Y0199598D01*
X0087316Y0199637D01*
X0087346Y0199679D01*
X0087374Y0199723D01*
X0087398Y0199768D01*
X0087418Y0199815D01*
X0087435Y0199864D01*
X0087449Y0199914D01*
X0087458Y0199964D01*
X0087464Y0200016D01*
X0087466Y0200067D01*
X0087466Y0200756D01*
X0087466Y0202518D02*
X0084366Y0202518D01*
X0087466Y0204240D01*
X0084366Y0204240D01*
X0084366Y0206238D02*
X0084366Y0207271D01*
X0084368Y0207322D01*
X0084374Y0207374D01*
X0084383Y0207424D01*
X0084397Y0207474D01*
X0084414Y0207523D01*
X0084434Y0207570D01*
X0084458Y0207616D01*
X0084486Y0207659D01*
X0084516Y0207701D01*
X0084550Y0207740D01*
X0084586Y0207776D01*
X0084625Y0207810D01*
X0084667Y0207840D01*
X0084711Y0207868D01*
X0084756Y0207892D01*
X0084803Y0207912D01*
X0084852Y0207929D01*
X0084902Y0207943D01*
X0084952Y0207952D01*
X0085004Y0207958D01*
X0085055Y0207960D01*
X0085106Y0207958D01*
X0085158Y0207952D01*
X0085208Y0207943D01*
X0085258Y0207929D01*
X0085307Y0207912D01*
X0085354Y0207892D01*
X0085400Y0207868D01*
X0085443Y0207840D01*
X0085485Y0207810D01*
X0085524Y0207776D01*
X0085560Y0207740D01*
X0085594Y0207701D01*
X0085624Y0207659D01*
X0085652Y0207616D01*
X0085676Y0207570D01*
X0085696Y0207523D01*
X0085713Y0207474D01*
X0085727Y0207424D01*
X0085736Y0207374D01*
X0085742Y0207322D01*
X0085744Y0207271D01*
X0085744Y0206582D01*
X0085744Y0207099D02*
X0085746Y0207157D01*
X0085752Y0207214D01*
X0085761Y0207270D01*
X0085775Y0207326D01*
X0085792Y0207381D01*
X0085812Y0207435D01*
X0085837Y0207487D01*
X0085864Y0207538D01*
X0085895Y0207586D01*
X0085929Y0207633D01*
X0085966Y0207677D01*
X0086006Y0207718D01*
X0086049Y0207757D01*
X0086094Y0207792D01*
X0086142Y0207825D01*
X0086191Y0207854D01*
X0086243Y0207880D01*
X0086296Y0207902D01*
X0086350Y0207921D01*
X0086405Y0207937D01*
X0086462Y0207948D01*
X0086519Y0207956D01*
X0086576Y0207960D01*
X0086634Y0207960D01*
X0086691Y0207956D01*
X0086748Y0207948D01*
X0086805Y0207937D01*
X0086860Y0207921D01*
X0086914Y0207902D01*
X0086967Y0207880D01*
X0087019Y0207854D01*
X0087068Y0207825D01*
X0087116Y0207792D01*
X0087161Y0207757D01*
X0087204Y0207718D01*
X0087244Y0207677D01*
X0087281Y0207633D01*
X0087315Y0207586D01*
X0087346Y0207538D01*
X0087373Y0207487D01*
X0087398Y0207435D01*
X0087418Y0207381D01*
X0087435Y0207326D01*
X0087449Y0207270D01*
X0087458Y0207214D01*
X0087464Y0207157D01*
X0087466Y0207099D01*
X0087466Y0206238D01*
X0062466Y0178959D02*
X0062466Y0178098D01*
X0062466Y0178959D02*
X0062464Y0179017D01*
X0062458Y0179074D01*
X0062449Y0179130D01*
X0062435Y0179186D01*
X0062418Y0179241D01*
X0062398Y0179295D01*
X0062373Y0179347D01*
X0062346Y0179398D01*
X0062315Y0179446D01*
X0062281Y0179493D01*
X0062244Y0179537D01*
X0062204Y0179578D01*
X0062161Y0179617D01*
X0062116Y0179652D01*
X0062068Y0179685D01*
X0062019Y0179714D01*
X0061967Y0179740D01*
X0061914Y0179762D01*
X0061860Y0179781D01*
X0061805Y0179797D01*
X0061748Y0179808D01*
X0061691Y0179816D01*
X0061634Y0179820D01*
X0061576Y0179820D01*
X0061519Y0179816D01*
X0061462Y0179808D01*
X0061405Y0179797D01*
X0061350Y0179781D01*
X0061296Y0179762D01*
X0061243Y0179740D01*
X0061191Y0179714D01*
X0061142Y0179685D01*
X0061094Y0179652D01*
X0061049Y0179617D01*
X0061006Y0179578D01*
X0060966Y0179537D01*
X0060929Y0179493D01*
X0060895Y0179446D01*
X0060864Y0179398D01*
X0060837Y0179347D01*
X0060812Y0179295D01*
X0060792Y0179241D01*
X0060775Y0179186D01*
X0060761Y0179130D01*
X0060752Y0179074D01*
X0060746Y0179017D01*
X0060744Y0178959D01*
X0060744Y0179131D02*
X0060744Y0178443D01*
X0060744Y0179131D02*
X0060742Y0179182D01*
X0060736Y0179234D01*
X0060727Y0179284D01*
X0060713Y0179334D01*
X0060696Y0179383D01*
X0060676Y0179430D01*
X0060652Y0179476D01*
X0060624Y0179519D01*
X0060594Y0179561D01*
X0060560Y0179600D01*
X0060524Y0179636D01*
X0060485Y0179670D01*
X0060443Y0179700D01*
X0060400Y0179728D01*
X0060354Y0179752D01*
X0060307Y0179772D01*
X0060258Y0179789D01*
X0060208Y0179803D01*
X0060158Y0179812D01*
X0060106Y0179818D01*
X0060055Y0179820D01*
X0060004Y0179818D01*
X0059952Y0179812D01*
X0059902Y0179803D01*
X0059852Y0179789D01*
X0059803Y0179772D01*
X0059756Y0179752D01*
X0059711Y0179728D01*
X0059667Y0179700D01*
X0059625Y0179670D01*
X0059586Y0179636D01*
X0059550Y0179600D01*
X0059516Y0179561D01*
X0059486Y0179519D01*
X0059458Y0179476D01*
X0059434Y0179430D01*
X0059414Y0179383D01*
X0059397Y0179334D01*
X0059383Y0179284D01*
X0059374Y0179234D01*
X0059368Y0179182D01*
X0059366Y0179131D01*
X0059366Y0178098D01*
X0060227Y0176100D02*
X0061605Y0176100D01*
X0061661Y0176098D01*
X0061717Y0176093D01*
X0061773Y0176083D01*
X0061828Y0176071D01*
X0061882Y0176054D01*
X0061934Y0176034D01*
X0061986Y0176011D01*
X0062036Y0175985D01*
X0062083Y0175955D01*
X0062129Y0175922D01*
X0062173Y0175886D01*
X0062214Y0175848D01*
X0062252Y0175807D01*
X0062288Y0175763D01*
X0062321Y0175717D01*
X0062351Y0175670D01*
X0062377Y0175620D01*
X0062400Y0175568D01*
X0062420Y0175516D01*
X0062437Y0175462D01*
X0062449Y0175407D01*
X0062459Y0175351D01*
X0062464Y0175295D01*
X0062466Y0175239D01*
X0062466Y0174378D01*
X0059366Y0174378D01*
X0059366Y0175239D01*
X0059368Y0175295D01*
X0059373Y0175351D01*
X0059383Y0175407D01*
X0059395Y0175462D01*
X0059412Y0175516D01*
X0059432Y0175568D01*
X0059455Y0175620D01*
X0059481Y0175670D01*
X0059511Y0175717D01*
X0059544Y0175763D01*
X0059580Y0175807D01*
X0059618Y0175848D01*
X0059659Y0175886D01*
X0059703Y0175922D01*
X0059749Y0175955D01*
X0059797Y0175985D01*
X0059846Y0176011D01*
X0059898Y0176034D01*
X0059950Y0176054D01*
X0060004Y0176071D01*
X0060059Y0176083D01*
X0060115Y0176093D01*
X0060171Y0176098D01*
X0060227Y0176100D01*
D12*
X0059958Y0147128D02*
X0060824Y0147128D01*
X0059958Y0147128D02*
X0059901Y0147126D01*
X0059845Y0147121D01*
X0059789Y0147111D01*
X0059734Y0147098D01*
X0059679Y0147082D01*
X0059626Y0147062D01*
X0059575Y0147039D01*
X0059524Y0147012D01*
X0059476Y0146982D01*
X0059430Y0146949D01*
X0059386Y0146913D01*
X0059345Y0146874D01*
X0059306Y0146833D01*
X0059270Y0146789D01*
X0059237Y0146743D01*
X0059207Y0146694D01*
X0059180Y0146644D01*
X0059157Y0146593D01*
X0059137Y0146540D01*
X0059121Y0146485D01*
X0059108Y0146430D01*
X0059098Y0146374D01*
X0059093Y0146318D01*
X0059091Y0146261D01*
X0059091Y0144095D01*
X0059093Y0144038D01*
X0059098Y0143982D01*
X0059108Y0143926D01*
X0059121Y0143871D01*
X0059137Y0143816D01*
X0059157Y0143763D01*
X0059180Y0143712D01*
X0059207Y0143662D01*
X0059237Y0143613D01*
X0059270Y0143567D01*
X0059306Y0143523D01*
X0059345Y0143482D01*
X0059386Y0143443D01*
X0059430Y0143407D01*
X0059476Y0143374D01*
X0059525Y0143344D01*
X0059575Y0143317D01*
X0059626Y0143294D01*
X0059679Y0143274D01*
X0059734Y0143258D01*
X0059789Y0143245D01*
X0059845Y0143235D01*
X0059901Y0143230D01*
X0059958Y0143228D01*
X0060824Y0143228D01*
X0063015Y0143228D02*
X0063015Y0147128D01*
X0065182Y0143228D01*
X0065182Y0147128D01*
X0067665Y0146261D02*
X0068749Y0147128D01*
X0068749Y0143228D01*
X0069832Y0143228D02*
X0067665Y0143228D01*
X0100341Y0147603D02*
X0100341Y0151503D01*
X0101424Y0151503D01*
X0101488Y0151501D01*
X0101552Y0151495D01*
X0101616Y0151486D01*
X0101678Y0151473D01*
X0101740Y0151456D01*
X0101801Y0151435D01*
X0101861Y0151411D01*
X0101919Y0151383D01*
X0101975Y0151353D01*
X0102029Y0151318D01*
X0102081Y0151281D01*
X0102131Y0151240D01*
X0102178Y0151197D01*
X0102223Y0151151D01*
X0102265Y0151102D01*
X0102304Y0151051D01*
X0102340Y0150998D01*
X0102372Y0150943D01*
X0102402Y0150886D01*
X0102428Y0150827D01*
X0102450Y0150767D01*
X0102469Y0150705D01*
X0102484Y0150643D01*
X0102495Y0150580D01*
X0102503Y0150516D01*
X0102507Y0150452D01*
X0102507Y0150388D01*
X0102503Y0150324D01*
X0102495Y0150260D01*
X0102484Y0150197D01*
X0102469Y0150135D01*
X0102450Y0150073D01*
X0102428Y0150013D01*
X0102402Y0149954D01*
X0102372Y0149897D01*
X0102340Y0149842D01*
X0102304Y0149789D01*
X0102265Y0149738D01*
X0102223Y0149689D01*
X0102178Y0149643D01*
X0102131Y0149600D01*
X0102081Y0149559D01*
X0102029Y0149522D01*
X0101975Y0149487D01*
X0101919Y0149457D01*
X0101861Y0149429D01*
X0101801Y0149405D01*
X0101740Y0149384D01*
X0101678Y0149367D01*
X0101616Y0149354D01*
X0101552Y0149345D01*
X0101488Y0149339D01*
X0101424Y0149337D01*
X0101424Y0149336D02*
X0100341Y0149336D01*
X0104958Y0149878D02*
X0106149Y0149228D01*
X0105716Y0147603D02*
X0105631Y0147605D01*
X0105546Y0147611D01*
X0105462Y0147621D01*
X0105378Y0147635D01*
X0105295Y0147652D01*
X0105212Y0147674D01*
X0105131Y0147699D01*
X0105051Y0147728D01*
X0104973Y0147761D01*
X0104896Y0147797D01*
X0104821Y0147837D01*
X0104748Y0147880D01*
X0104676Y0147927D01*
X0104608Y0147977D01*
X0104541Y0148030D01*
X0104477Y0148086D01*
X0104416Y0148145D01*
X0106149Y0149228D02*
X0106197Y0149198D01*
X0106243Y0149164D01*
X0106287Y0149127D01*
X0106328Y0149088D01*
X0106367Y0149046D01*
X0106403Y0149002D01*
X0106436Y0148955D01*
X0106466Y0148907D01*
X0106493Y0148856D01*
X0106516Y0148804D01*
X0106536Y0148751D01*
X0106553Y0148696D01*
X0106565Y0148640D01*
X0106575Y0148584D01*
X0106580Y0148527D01*
X0106582Y0148470D01*
X0106583Y0148470D02*
X0106581Y0148413D01*
X0106576Y0148357D01*
X0106566Y0148301D01*
X0106553Y0148246D01*
X0106537Y0148191D01*
X0106517Y0148138D01*
X0106494Y0148087D01*
X0106467Y0148037D01*
X0106437Y0147988D01*
X0106404Y0147942D01*
X0106368Y0147898D01*
X0106329Y0147857D01*
X0106288Y0147818D01*
X0106244Y0147782D01*
X0106198Y0147749D01*
X0106150Y0147719D01*
X0106099Y0147692D01*
X0106048Y0147669D01*
X0105995Y0147649D01*
X0105940Y0147633D01*
X0105885Y0147620D01*
X0105829Y0147610D01*
X0105773Y0147605D01*
X0105716Y0147603D01*
X0106366Y0151178D02*
X0106305Y0151221D01*
X0106243Y0151262D01*
X0106178Y0151300D01*
X0106112Y0151334D01*
X0106044Y0151366D01*
X0105975Y0151394D01*
X0105905Y0151420D01*
X0105833Y0151442D01*
X0105761Y0151460D01*
X0105688Y0151476D01*
X0105614Y0151488D01*
X0105540Y0151496D01*
X0105466Y0151501D01*
X0105391Y0151503D01*
X0105334Y0151501D01*
X0105278Y0151496D01*
X0105222Y0151486D01*
X0105167Y0151473D01*
X0105112Y0151457D01*
X0105059Y0151437D01*
X0105008Y0151414D01*
X0104958Y0151387D01*
X0104909Y0151357D01*
X0104863Y0151324D01*
X0104819Y0151288D01*
X0104778Y0151249D01*
X0104739Y0151208D01*
X0104703Y0151164D01*
X0104670Y0151118D01*
X0104640Y0151070D01*
X0104613Y0151019D01*
X0104590Y0150968D01*
X0104570Y0150915D01*
X0104554Y0150860D01*
X0104541Y0150805D01*
X0104531Y0150749D01*
X0104526Y0150693D01*
X0104524Y0150636D01*
X0104526Y0150579D01*
X0104531Y0150522D01*
X0104541Y0150466D01*
X0104553Y0150410D01*
X0104570Y0150355D01*
X0104590Y0150302D01*
X0104613Y0150250D01*
X0104640Y0150199D01*
X0104670Y0150151D01*
X0104703Y0150104D01*
X0104739Y0150060D01*
X0104778Y0150018D01*
X0104819Y0149979D01*
X0104863Y0149942D01*
X0104909Y0149908D01*
X0104957Y0149878D01*
X0108716Y0151503D02*
X0109583Y0147603D01*
X0110449Y0150203D01*
X0111316Y0147603D01*
X0112183Y0151503D01*
X0114466Y0150636D02*
X0115549Y0151503D01*
X0115549Y0147603D01*
X0114466Y0147603D02*
X0116633Y0147603D01*
X0116833Y0205986D02*
X0118999Y0205986D01*
X0119056Y0205988D01*
X0119112Y0205993D01*
X0119168Y0206003D01*
X0119223Y0206016D01*
X0119278Y0206032D01*
X0119331Y0206052D01*
X0119382Y0206075D01*
X0119433Y0206102D01*
X0119481Y0206132D01*
X0119527Y0206165D01*
X0119571Y0206201D01*
X0119612Y0206240D01*
X0119651Y0206281D01*
X0119687Y0206325D01*
X0119720Y0206371D01*
X0119750Y0206420D01*
X0119777Y0206470D01*
X0119800Y0206521D01*
X0119820Y0206574D01*
X0119836Y0206629D01*
X0119849Y0206684D01*
X0119859Y0206740D01*
X0119864Y0206796D01*
X0119866Y0206853D01*
X0119866Y0208153D01*
X0117699Y0208153D01*
X0117699Y0207503D01*
X0116833Y0205986D02*
X0116776Y0205988D01*
X0116720Y0205993D01*
X0116664Y0206003D01*
X0116609Y0206016D01*
X0116554Y0206032D01*
X0116501Y0206052D01*
X0116450Y0206075D01*
X0116400Y0206102D01*
X0116351Y0206132D01*
X0116305Y0206165D01*
X0116261Y0206201D01*
X0116220Y0206240D01*
X0116181Y0206281D01*
X0116145Y0206325D01*
X0116112Y0206371D01*
X0116082Y0206419D01*
X0116055Y0206470D01*
X0116032Y0206521D01*
X0116012Y0206574D01*
X0115996Y0206629D01*
X0115983Y0206684D01*
X0115973Y0206740D01*
X0115968Y0206796D01*
X0115966Y0206853D01*
X0115966Y0208153D01*
X0115966Y0210786D02*
X0119866Y0212953D01*
X0115966Y0212953D01*
X0115966Y0210786D02*
X0119866Y0210786D01*
X0119866Y0215586D02*
X0115966Y0215586D01*
X0115966Y0216670D01*
X0115968Y0216733D01*
X0115973Y0216796D01*
X0115982Y0216858D01*
X0115995Y0216920D01*
X0116011Y0216981D01*
X0116031Y0217040D01*
X0116055Y0217099D01*
X0116081Y0217156D01*
X0116111Y0217212D01*
X0116144Y0217265D01*
X0116180Y0217317D01*
X0116219Y0217366D01*
X0116261Y0217413D01*
X0116306Y0217458D01*
X0116353Y0217500D01*
X0116402Y0217539D01*
X0116454Y0217575D01*
X0116508Y0217608D01*
X0116563Y0217638D01*
X0116620Y0217664D01*
X0116679Y0217688D01*
X0116738Y0217708D01*
X0116799Y0217724D01*
X0116861Y0217737D01*
X0116923Y0217746D01*
X0116986Y0217751D01*
X0117049Y0217753D01*
X0118783Y0217753D01*
X0118846Y0217751D01*
X0118909Y0217746D01*
X0118971Y0217737D01*
X0119033Y0217724D01*
X0119094Y0217708D01*
X0119153Y0217688D01*
X0119212Y0217664D01*
X0119269Y0217638D01*
X0119325Y0217608D01*
X0119378Y0217575D01*
X0119430Y0217539D01*
X0119479Y0217500D01*
X0119526Y0217458D01*
X0119571Y0217413D01*
X0119613Y0217366D01*
X0119652Y0217317D01*
X0119688Y0217265D01*
X0119721Y0217212D01*
X0119751Y0217156D01*
X0119777Y0217099D01*
X0119801Y0217040D01*
X0119821Y0216981D01*
X0119837Y0216920D01*
X0119850Y0216858D01*
X0119859Y0216796D01*
X0119864Y0216733D01*
X0119866Y0216670D01*
X0119866Y0215586D01*
X0285966Y0075011D02*
X0285966Y0072845D01*
X0285968Y0072788D01*
X0285973Y0072732D01*
X0285983Y0072676D01*
X0285996Y0072621D01*
X0286012Y0072566D01*
X0286032Y0072513D01*
X0286055Y0072462D01*
X0286082Y0072412D01*
X0286112Y0072363D01*
X0286145Y0072317D01*
X0286181Y0072273D01*
X0286220Y0072232D01*
X0286261Y0072193D01*
X0286305Y0072157D01*
X0286351Y0072124D01*
X0286400Y0072094D01*
X0286450Y0072067D01*
X0286501Y0072044D01*
X0286554Y0072024D01*
X0286609Y0072008D01*
X0286664Y0071995D01*
X0286720Y0071985D01*
X0286776Y0071980D01*
X0286833Y0071978D01*
X0287699Y0071978D01*
X0289890Y0071978D02*
X0289890Y0075878D01*
X0292057Y0071978D01*
X0292057Y0075878D01*
X0296382Y0074145D02*
X0296425Y0074188D01*
X0296465Y0074233D01*
X0296502Y0074281D01*
X0296537Y0074331D01*
X0296568Y0074382D01*
X0296597Y0074436D01*
X0296622Y0074491D01*
X0296645Y0074547D01*
X0296664Y0074604D01*
X0296679Y0074663D01*
X0296691Y0074722D01*
X0296700Y0074782D01*
X0296705Y0074842D01*
X0296707Y0074903D01*
X0296382Y0074145D02*
X0294540Y0071978D01*
X0296707Y0071978D01*
X0294540Y0075012D02*
X0294563Y0075077D01*
X0294589Y0075140D01*
X0294619Y0075202D01*
X0294652Y0075261D01*
X0294688Y0075320D01*
X0294728Y0075376D01*
X0294770Y0075429D01*
X0294816Y0075481D01*
X0294864Y0075529D01*
X0294914Y0075576D01*
X0294968Y0075619D01*
X0295023Y0075659D01*
X0295081Y0075696D01*
X0295140Y0075730D01*
X0295201Y0075761D01*
X0295264Y0075788D01*
X0295328Y0075812D01*
X0295394Y0075832D01*
X0295460Y0075849D01*
X0295527Y0075862D01*
X0295595Y0075872D01*
X0295664Y0075877D01*
X0295732Y0075879D01*
X0295732Y0075878D02*
X0295793Y0075876D01*
X0295854Y0075870D01*
X0295915Y0075861D01*
X0295974Y0075847D01*
X0296033Y0075830D01*
X0296091Y0075810D01*
X0296147Y0075785D01*
X0296202Y0075757D01*
X0296254Y0075726D01*
X0296305Y0075692D01*
X0296353Y0075654D01*
X0296399Y0075614D01*
X0296443Y0075570D01*
X0296483Y0075524D01*
X0296521Y0075476D01*
X0296555Y0075425D01*
X0296586Y0075373D01*
X0296614Y0075318D01*
X0296639Y0075262D01*
X0296659Y0075204D01*
X0296676Y0075145D01*
X0296690Y0075086D01*
X0296699Y0075025D01*
X0296705Y0074964D01*
X0296707Y0074903D01*
X0287699Y0075878D02*
X0286833Y0075878D01*
X0286776Y0075876D01*
X0286720Y0075871D01*
X0286664Y0075861D01*
X0286609Y0075848D01*
X0286554Y0075832D01*
X0286501Y0075812D01*
X0286450Y0075789D01*
X0286399Y0075762D01*
X0286351Y0075732D01*
X0286305Y0075699D01*
X0286261Y0075663D01*
X0286220Y0075624D01*
X0286181Y0075583D01*
X0286145Y0075539D01*
X0286112Y0075493D01*
X0286082Y0075444D01*
X0286055Y0075394D01*
X0286032Y0075343D01*
X0286012Y0075290D01*
X0285996Y0075235D01*
X0285983Y0075180D01*
X0285973Y0075124D01*
X0285968Y0075068D01*
X0285966Y0075011D01*
D13*
X0242877Y0053224D02*
X0112955Y0053224D01*
X0112955Y0138382D01*
X0117955Y0143382D01*
X0242877Y0143382D01*
X0242877Y0053224D01*
X0199889Y0050990D02*
X0124692Y0050990D01*
X0124692Y0138116D01*
X0129692Y0143116D01*
X0199889Y0143116D01*
X0199889Y0050990D01*
X0189944Y0143553D02*
X0099637Y0143553D01*
X0099577Y0143555D01*
X0099516Y0143560D01*
X0099457Y0143569D01*
X0099398Y0143582D01*
X0099339Y0143598D01*
X0099282Y0143618D01*
X0099227Y0143641D01*
X0099172Y0143668D01*
X0099120Y0143697D01*
X0099069Y0143730D01*
X0099020Y0143766D01*
X0098974Y0143804D01*
X0098930Y0143846D01*
X0098888Y0143890D01*
X0098850Y0143936D01*
X0098814Y0143985D01*
X0098781Y0144036D01*
X0098752Y0144088D01*
X0098725Y0144143D01*
X0098702Y0144198D01*
X0098682Y0144255D01*
X0098666Y0144314D01*
X0098653Y0144373D01*
X0098644Y0144432D01*
X0098639Y0144493D01*
X0098637Y0144553D01*
X0098637Y0162053D01*
X0098639Y0162113D01*
X0098644Y0162174D01*
X0098653Y0162233D01*
X0098666Y0162292D01*
X0098682Y0162351D01*
X0098702Y0162408D01*
X0098725Y0162463D01*
X0098752Y0162518D01*
X0098781Y0162570D01*
X0098814Y0162621D01*
X0098850Y0162670D01*
X0098888Y0162716D01*
X0098930Y0162760D01*
X0098974Y0162802D01*
X0099020Y0162840D01*
X0099069Y0162876D01*
X0099120Y0162909D01*
X0099172Y0162938D01*
X0099227Y0162965D01*
X0099282Y0162988D01*
X0099339Y0163008D01*
X0099398Y0163024D01*
X0099457Y0163037D01*
X0099516Y0163046D01*
X0099577Y0163051D01*
X0099637Y0163053D01*
X0189944Y0163053D01*
X0190004Y0163051D01*
X0190065Y0163046D01*
X0190124Y0163037D01*
X0190183Y0163024D01*
X0190242Y0163008D01*
X0190299Y0162988D01*
X0190354Y0162965D01*
X0190409Y0162938D01*
X0190461Y0162909D01*
X0190512Y0162876D01*
X0190561Y0162840D01*
X0190607Y0162802D01*
X0190651Y0162760D01*
X0190693Y0162716D01*
X0190731Y0162670D01*
X0190767Y0162621D01*
X0190800Y0162570D01*
X0190829Y0162518D01*
X0190856Y0162463D01*
X0190879Y0162408D01*
X0190899Y0162351D01*
X0190915Y0162292D01*
X0190928Y0162233D01*
X0190937Y0162174D01*
X0190942Y0162113D01*
X0190944Y0162053D01*
X0190944Y0144553D01*
X0190942Y0144493D01*
X0190937Y0144432D01*
X0190928Y0144373D01*
X0190915Y0144314D01*
X0190899Y0144255D01*
X0190879Y0144198D01*
X0190856Y0144143D01*
X0190829Y0144088D01*
X0190800Y0144036D01*
X0190767Y0143985D01*
X0190731Y0143936D01*
X0190693Y0143890D01*
X0190651Y0143846D01*
X0190607Y0143804D01*
X0190561Y0143766D01*
X0190512Y0143730D01*
X0190461Y0143697D01*
X0190409Y0143668D01*
X0190354Y0143641D01*
X0190299Y0143618D01*
X0190242Y0143598D01*
X0190183Y0143582D01*
X0190124Y0143569D01*
X0190065Y0143560D01*
X0190004Y0143555D01*
X0189944Y0143553D01*
X0186041Y0165563D02*
X0186041Y0216428D01*
X0188944Y0214828D01*
X0191671Y0212945D01*
X0194197Y0210799D01*
X0196494Y0208410D01*
X0198541Y0205803D01*
X0200021Y0203444D01*
X0201233Y0200936D01*
X0202162Y0198310D01*
X0202796Y0195598D01*
X0203128Y0192833D01*
X0203154Y0190048D01*
X0202874Y0187277D01*
X0202291Y0184553D01*
X0201314Y0181571D01*
X0200041Y0178702D01*
X0198485Y0175977D01*
X0196661Y0173422D01*
X0194590Y0171065D01*
X0192291Y0168928D01*
X0190367Y0167525D01*
X0188271Y0166396D01*
X0186041Y0165563D01*
X0186041Y0165611D02*
X0186171Y0165611D01*
X0186041Y0166210D02*
X0187772Y0166210D01*
X0189036Y0166808D02*
X0186041Y0166808D01*
X0186041Y0167407D02*
X0190148Y0167407D01*
X0191026Y0168005D02*
X0186041Y0168005D01*
X0186041Y0168604D02*
X0191846Y0168604D01*
X0192586Y0169202D02*
X0186041Y0169202D01*
X0186041Y0169801D02*
X0193230Y0169801D01*
X0193874Y0170399D02*
X0186041Y0170399D01*
X0186041Y0170998D02*
X0194518Y0170998D01*
X0195057Y0171596D02*
X0186041Y0171596D01*
X0186041Y0172195D02*
X0195583Y0172195D01*
X0196109Y0172794D02*
X0186041Y0172794D01*
X0186041Y0173392D02*
X0196635Y0173392D01*
X0197067Y0173991D02*
X0186041Y0173991D01*
X0186041Y0174589D02*
X0197494Y0174589D01*
X0197921Y0175188D02*
X0186041Y0175188D01*
X0186041Y0175786D02*
X0198349Y0175786D01*
X0198718Y0176385D02*
X0186041Y0176385D01*
X0186041Y0176983D02*
X0199059Y0176983D01*
X0199401Y0177582D02*
X0186041Y0177582D01*
X0186041Y0178180D02*
X0199743Y0178180D01*
X0200075Y0178779D02*
X0186041Y0178779D01*
X0186041Y0179377D02*
X0200340Y0179377D01*
X0200606Y0179976D02*
X0186041Y0179976D01*
X0186041Y0180574D02*
X0200871Y0180574D01*
X0201137Y0181173D02*
X0186041Y0181173D01*
X0186041Y0181771D02*
X0201379Y0181771D01*
X0201576Y0182370D02*
X0186041Y0182370D01*
X0186041Y0182968D02*
X0201772Y0182968D01*
X0201968Y0183567D02*
X0186041Y0183567D01*
X0186041Y0184165D02*
X0202164Y0184165D01*
X0202336Y0184764D02*
X0186041Y0184764D01*
X0186041Y0185362D02*
X0202464Y0185362D01*
X0202592Y0185961D02*
X0186041Y0185961D01*
X0186041Y0186559D02*
X0202721Y0186559D01*
X0202849Y0187158D02*
X0186041Y0187158D01*
X0186041Y0187756D02*
X0202923Y0187756D01*
X0202983Y0188355D02*
X0186041Y0188355D01*
X0186041Y0188953D02*
X0203044Y0188953D01*
X0203104Y0189552D02*
X0186041Y0189552D01*
X0186041Y0190150D02*
X0203153Y0190150D01*
X0203148Y0190749D02*
X0186041Y0190749D01*
X0186041Y0191347D02*
X0203142Y0191347D01*
X0203137Y0191946D02*
X0186041Y0191946D01*
X0186041Y0192544D02*
X0203131Y0192544D01*
X0203091Y0193143D02*
X0186041Y0193143D01*
X0186041Y0193741D02*
X0203019Y0193741D01*
X0202947Y0194340D02*
X0186041Y0194340D01*
X0186041Y0194938D02*
X0202875Y0194938D01*
X0202803Y0195537D02*
X0186041Y0195537D01*
X0186041Y0196135D02*
X0202670Y0196135D01*
X0202530Y0196734D02*
X0186041Y0196734D01*
X0186041Y0197332D02*
X0202390Y0197332D01*
X0202250Y0197931D02*
X0186041Y0197931D01*
X0186041Y0198529D02*
X0202084Y0198529D01*
X0201872Y0199128D02*
X0186041Y0199128D01*
X0186041Y0199727D02*
X0201661Y0199727D01*
X0201449Y0200325D02*
X0186041Y0200325D01*
X0186041Y0200924D02*
X0201237Y0200924D01*
X0200950Y0201522D02*
X0186041Y0201522D01*
X0186041Y0202121D02*
X0200661Y0202121D01*
X0200371Y0202719D02*
X0186041Y0202719D01*
X0186041Y0203318D02*
X0200082Y0203318D01*
X0199725Y0203916D02*
X0186041Y0203916D01*
X0186041Y0204515D02*
X0199349Y0204515D01*
X0198974Y0205113D02*
X0186041Y0205113D01*
X0186041Y0205712D02*
X0198598Y0205712D01*
X0198143Y0206310D02*
X0186041Y0206310D01*
X0186041Y0206909D02*
X0197673Y0206909D01*
X0197203Y0207507D02*
X0186041Y0207507D01*
X0186041Y0208106D02*
X0196733Y0208106D01*
X0196211Y0208704D02*
X0186041Y0208704D01*
X0186041Y0209303D02*
X0195636Y0209303D01*
X0195060Y0209901D02*
X0186041Y0209901D01*
X0186041Y0210500D02*
X0194484Y0210500D01*
X0193844Y0211098D02*
X0186041Y0211098D01*
X0186041Y0211697D02*
X0193140Y0211697D01*
X0192436Y0212295D02*
X0186041Y0212295D01*
X0186041Y0212894D02*
X0191732Y0212894D01*
X0190879Y0213492D02*
X0186041Y0213492D01*
X0186041Y0214091D02*
X0190012Y0214091D01*
X0189145Y0214689D02*
X0186041Y0214689D01*
X0186041Y0215288D02*
X0188110Y0215288D01*
X0187024Y0215886D02*
X0186041Y0215886D01*
X0161916Y0195803D02*
X0158916Y0195803D01*
X0160416Y0197303D02*
X0160416Y0194303D01*
X0168916Y0190803D02*
X0170916Y0190803D01*
X0171916Y0190803D01*
X0171916Y0195303D01*
X0174416Y0195303D01*
X0174416Y0186303D01*
X0171916Y0186303D01*
X0171916Y0190803D01*
X0155416Y0190803D02*
X0155422Y0191294D01*
X0155440Y0191784D01*
X0155470Y0192274D01*
X0155512Y0192763D01*
X0155566Y0193251D01*
X0155632Y0193738D01*
X0155710Y0194222D01*
X0155800Y0194705D01*
X0155902Y0195185D01*
X0156015Y0195663D01*
X0156140Y0196137D01*
X0156277Y0196609D01*
X0156425Y0197077D01*
X0156585Y0197541D01*
X0156756Y0198001D01*
X0156938Y0198457D01*
X0157132Y0198908D01*
X0157336Y0199354D01*
X0157552Y0199795D01*
X0157778Y0200231D01*
X0158014Y0200661D01*
X0158261Y0201085D01*
X0158519Y0201503D01*
X0158787Y0201914D01*
X0159064Y0202319D01*
X0159352Y0202717D01*
X0159649Y0203108D01*
X0159956Y0203491D01*
X0160272Y0203866D01*
X0160597Y0204234D01*
X0160931Y0204594D01*
X0161274Y0204945D01*
X0161625Y0205288D01*
X0161985Y0205622D01*
X0162353Y0205947D01*
X0162728Y0206263D01*
X0163111Y0206570D01*
X0163502Y0206867D01*
X0163900Y0207155D01*
X0164305Y0207432D01*
X0164716Y0207700D01*
X0165134Y0207958D01*
X0165558Y0208205D01*
X0165988Y0208441D01*
X0166424Y0208667D01*
X0166865Y0208883D01*
X0167311Y0209087D01*
X0167762Y0209281D01*
X0168218Y0209463D01*
X0168678Y0209634D01*
X0169142Y0209794D01*
X0169610Y0209942D01*
X0170082Y0210079D01*
X0170556Y0210204D01*
X0171034Y0210317D01*
X0171514Y0210419D01*
X0171997Y0210509D01*
X0172481Y0210587D01*
X0172968Y0210653D01*
X0173456Y0210707D01*
X0173945Y0210749D01*
X0174435Y0210779D01*
X0174925Y0210797D01*
X0175416Y0210803D01*
X0175907Y0210797D01*
X0176397Y0210779D01*
X0176887Y0210749D01*
X0177376Y0210707D01*
X0177864Y0210653D01*
X0178351Y0210587D01*
X0178835Y0210509D01*
X0179318Y0210419D01*
X0179798Y0210317D01*
X0180276Y0210204D01*
X0180750Y0210079D01*
X0181222Y0209942D01*
X0181690Y0209794D01*
X0182154Y0209634D01*
X0182614Y0209463D01*
X0183070Y0209281D01*
X0183521Y0209087D01*
X0183967Y0208883D01*
X0184408Y0208667D01*
X0184844Y0208441D01*
X0185274Y0208205D01*
X0185698Y0207958D01*
X0186116Y0207700D01*
X0186527Y0207432D01*
X0186932Y0207155D01*
X0187330Y0206867D01*
X0187721Y0206570D01*
X0188104Y0206263D01*
X0188479Y0205947D01*
X0188847Y0205622D01*
X0189207Y0205288D01*
X0189558Y0204945D01*
X0189901Y0204594D01*
X0190235Y0204234D01*
X0190560Y0203866D01*
X0190876Y0203491D01*
X0191183Y0203108D01*
X0191480Y0202717D01*
X0191768Y0202319D01*
X0192045Y0201914D01*
X0192313Y0201503D01*
X0192571Y0201085D01*
X0192818Y0200661D01*
X0193054Y0200231D01*
X0193280Y0199795D01*
X0193496Y0199354D01*
X0193700Y0198908D01*
X0193894Y0198457D01*
X0194076Y0198001D01*
X0194247Y0197541D01*
X0194407Y0197077D01*
X0194555Y0196609D01*
X0194692Y0196137D01*
X0194817Y0195663D01*
X0194930Y0195185D01*
X0195032Y0194705D01*
X0195122Y0194222D01*
X0195200Y0193738D01*
X0195266Y0193251D01*
X0195320Y0192763D01*
X0195362Y0192274D01*
X0195392Y0191784D01*
X0195410Y0191294D01*
X0195416Y0190803D01*
X0195410Y0190312D01*
X0195392Y0189822D01*
X0195362Y0189332D01*
X0195320Y0188843D01*
X0195266Y0188355D01*
X0195200Y0187868D01*
X0195122Y0187384D01*
X0195032Y0186901D01*
X0194930Y0186421D01*
X0194817Y0185943D01*
X0194692Y0185469D01*
X0194555Y0184997D01*
X0194407Y0184529D01*
X0194247Y0184065D01*
X0194076Y0183605D01*
X0193894Y0183149D01*
X0193700Y0182698D01*
X0193496Y0182252D01*
X0193280Y0181811D01*
X0193054Y0181375D01*
X0192818Y0180945D01*
X0192571Y0180521D01*
X0192313Y0180103D01*
X0192045Y0179692D01*
X0191768Y0179287D01*
X0191480Y0178889D01*
X0191183Y0178498D01*
X0190876Y0178115D01*
X0190560Y0177740D01*
X0190235Y0177372D01*
X0189901Y0177012D01*
X0189558Y0176661D01*
X0189207Y0176318D01*
X0188847Y0175984D01*
X0188479Y0175659D01*
X0188104Y0175343D01*
X0187721Y0175036D01*
X0187330Y0174739D01*
X0186932Y0174451D01*
X0186527Y0174174D01*
X0186116Y0173906D01*
X0185698Y0173648D01*
X0185274Y0173401D01*
X0184844Y0173165D01*
X0184408Y0172939D01*
X0183967Y0172723D01*
X0183521Y0172519D01*
X0183070Y0172325D01*
X0182614Y0172143D01*
X0182154Y0171972D01*
X0181690Y0171812D01*
X0181222Y0171664D01*
X0180750Y0171527D01*
X0180276Y0171402D01*
X0179798Y0171289D01*
X0179318Y0171187D01*
X0178835Y0171097D01*
X0178351Y0171019D01*
X0177864Y0170953D01*
X0177376Y0170899D01*
X0176887Y0170857D01*
X0176397Y0170827D01*
X0175907Y0170809D01*
X0175416Y0170803D01*
X0174925Y0170809D01*
X0174435Y0170827D01*
X0173945Y0170857D01*
X0173456Y0170899D01*
X0172968Y0170953D01*
X0172481Y0171019D01*
X0171997Y0171097D01*
X0171514Y0171187D01*
X0171034Y0171289D01*
X0170556Y0171402D01*
X0170082Y0171527D01*
X0169610Y0171664D01*
X0169142Y0171812D01*
X0168678Y0171972D01*
X0168218Y0172143D01*
X0167762Y0172325D01*
X0167311Y0172519D01*
X0166865Y0172723D01*
X0166424Y0172939D01*
X0165988Y0173165D01*
X0165558Y0173401D01*
X0165134Y0173648D01*
X0164716Y0173906D01*
X0164305Y0174174D01*
X0163900Y0174451D01*
X0163502Y0174739D01*
X0163111Y0175036D01*
X0162728Y0175343D01*
X0162353Y0175659D01*
X0161985Y0175984D01*
X0161625Y0176318D01*
X0161274Y0176661D01*
X0160931Y0177012D01*
X0160597Y0177372D01*
X0160272Y0177740D01*
X0159956Y0178115D01*
X0159649Y0178498D01*
X0159352Y0178889D01*
X0159064Y0179287D01*
X0158787Y0179692D01*
X0158519Y0180103D01*
X0158261Y0180521D01*
X0158014Y0180945D01*
X0157778Y0181375D01*
X0157552Y0181811D01*
X0157336Y0182252D01*
X0157132Y0182698D01*
X0156938Y0183149D01*
X0156756Y0183605D01*
X0156585Y0184065D01*
X0156425Y0184529D01*
X0156277Y0184997D01*
X0156140Y0185469D01*
X0156015Y0185943D01*
X0155902Y0186421D01*
X0155800Y0186901D01*
X0155710Y0187384D01*
X0155632Y0187868D01*
X0155566Y0188355D01*
X0155512Y0188843D01*
X0155470Y0189332D01*
X0155440Y0189822D01*
X0155422Y0190312D01*
X0155416Y0190803D01*
X0145416Y0199303D02*
X0145416Y0217303D01*
X0145414Y0217363D01*
X0145409Y0217424D01*
X0145400Y0217483D01*
X0145387Y0217542D01*
X0145371Y0217601D01*
X0145351Y0217658D01*
X0145328Y0217713D01*
X0145301Y0217768D01*
X0145272Y0217820D01*
X0145239Y0217871D01*
X0145203Y0217920D01*
X0145165Y0217966D01*
X0145123Y0218010D01*
X0145079Y0218052D01*
X0145033Y0218090D01*
X0144984Y0218126D01*
X0144933Y0218159D01*
X0144881Y0218188D01*
X0144826Y0218215D01*
X0144771Y0218238D01*
X0144714Y0218258D01*
X0144655Y0218274D01*
X0144596Y0218287D01*
X0144537Y0218296D01*
X0144476Y0218301D01*
X0144416Y0218303D01*
X0136416Y0218303D01*
X0136356Y0218301D01*
X0136295Y0218296D01*
X0136236Y0218287D01*
X0136177Y0218274D01*
X0136118Y0218258D01*
X0136061Y0218238D01*
X0136006Y0218215D01*
X0135951Y0218188D01*
X0135899Y0218159D01*
X0135848Y0218126D01*
X0135799Y0218090D01*
X0135753Y0218052D01*
X0135709Y0218010D01*
X0135667Y0217966D01*
X0135629Y0217920D01*
X0135593Y0217871D01*
X0135560Y0217820D01*
X0135531Y0217768D01*
X0135504Y0217713D01*
X0135481Y0217658D01*
X0135461Y0217601D01*
X0135445Y0217542D01*
X0135432Y0217483D01*
X0135423Y0217424D01*
X0135418Y0217363D01*
X0135416Y0217303D01*
X0135416Y0199303D01*
X0135418Y0199243D01*
X0135423Y0199182D01*
X0135432Y0199123D01*
X0135445Y0199064D01*
X0135461Y0199005D01*
X0135481Y0198948D01*
X0135504Y0198893D01*
X0135531Y0198838D01*
X0135560Y0198786D01*
X0135593Y0198735D01*
X0135629Y0198686D01*
X0135667Y0198640D01*
X0135709Y0198596D01*
X0135753Y0198554D01*
X0135799Y0198516D01*
X0135848Y0198480D01*
X0135899Y0198447D01*
X0135951Y0198418D01*
X0136006Y0198391D01*
X0136061Y0198368D01*
X0136118Y0198348D01*
X0136177Y0198332D01*
X0136236Y0198319D01*
X0136295Y0198310D01*
X0136356Y0198305D01*
X0136416Y0198303D01*
X0144416Y0198303D01*
X0144476Y0198305D01*
X0144537Y0198310D01*
X0144596Y0198319D01*
X0144655Y0198332D01*
X0144714Y0198348D01*
X0144771Y0198368D01*
X0144826Y0198391D01*
X0144881Y0198418D01*
X0144933Y0198447D01*
X0144984Y0198480D01*
X0145033Y0198516D01*
X0145079Y0198554D01*
X0145123Y0198596D01*
X0145165Y0198640D01*
X0145203Y0198686D01*
X0145239Y0198735D01*
X0145272Y0198786D01*
X0145301Y0198838D01*
X0145328Y0198893D01*
X0145351Y0198948D01*
X0145371Y0199005D01*
X0145387Y0199064D01*
X0145400Y0199123D01*
X0145409Y0199182D01*
X0145414Y0199243D01*
X0145416Y0199303D01*
X0134451Y0185183D02*
X0101380Y0185183D01*
X0101381Y0185184D02*
X0101268Y0185185D01*
X0101156Y0185182D01*
X0101044Y0185175D01*
X0100932Y0185164D01*
X0100821Y0185150D01*
X0100710Y0185131D01*
X0100600Y0185109D01*
X0100491Y0185083D01*
X0100383Y0185053D01*
X0100276Y0185019D01*
X0100170Y0184982D01*
X0100066Y0184940D01*
X0099963Y0184896D01*
X0099861Y0184847D01*
X0099762Y0184795D01*
X0099664Y0184740D01*
X0099568Y0184682D01*
X0099475Y0184620D01*
X0099383Y0184554D01*
X0099294Y0184486D01*
X0099208Y0184415D01*
X0099124Y0184340D01*
X0099042Y0184263D01*
X0098964Y0184183D01*
X0098888Y0184100D01*
X0098815Y0184015D01*
X0098745Y0183927D01*
X0098678Y0183837D01*
X0098614Y0183744D01*
X0098554Y0183650D01*
X0098497Y0183553D01*
X0098444Y0183454D01*
X0098393Y0183354D01*
X0098347Y0183252D01*
X0098304Y0183148D01*
X0098265Y0183043D01*
X0098229Y0182937D01*
X0098197Y0182829D01*
X0098169Y0182720D01*
X0098145Y0182611D01*
X0098124Y0182500D01*
X0098108Y0182389D01*
X0098095Y0182278D01*
X0098086Y0182166D01*
X0098081Y0182054D01*
X0098081Y0182053D02*
X0098081Y0167053D01*
X0098086Y0166941D01*
X0098095Y0166829D01*
X0098108Y0166718D01*
X0098124Y0166607D01*
X0098145Y0166496D01*
X0098169Y0166387D01*
X0098197Y0166278D01*
X0098229Y0166170D01*
X0098265Y0166064D01*
X0098304Y0165959D01*
X0098347Y0165855D01*
X0098393Y0165753D01*
X0098444Y0165653D01*
X0098497Y0165554D01*
X0098554Y0165457D01*
X0098614Y0165363D01*
X0098678Y0165270D01*
X0098745Y0165180D01*
X0098815Y0165092D01*
X0098888Y0165007D01*
X0098964Y0164924D01*
X0099042Y0164844D01*
X0099124Y0164767D01*
X0099208Y0164692D01*
X0099294Y0164621D01*
X0099383Y0164553D01*
X0099475Y0164487D01*
X0099568Y0164425D01*
X0099664Y0164367D01*
X0099762Y0164312D01*
X0099861Y0164260D01*
X0099963Y0164211D01*
X0100066Y0164167D01*
X0100170Y0164125D01*
X0100276Y0164088D01*
X0100383Y0164054D01*
X0100491Y0164024D01*
X0100600Y0163998D01*
X0100710Y0163976D01*
X0100821Y0163957D01*
X0100932Y0163943D01*
X0101044Y0163932D01*
X0101156Y0163925D01*
X0101268Y0163922D01*
X0101381Y0163923D01*
X0101380Y0163923D02*
X0134451Y0163923D01*
X0134564Y0163922D01*
X0134676Y0163925D01*
X0134788Y0163932D01*
X0134900Y0163943D01*
X0135011Y0163957D01*
X0135122Y0163976D01*
X0135232Y0163998D01*
X0135341Y0164024D01*
X0135449Y0164054D01*
X0135556Y0164088D01*
X0135662Y0164125D01*
X0135766Y0164167D01*
X0135869Y0164211D01*
X0135971Y0164260D01*
X0136070Y0164312D01*
X0136168Y0164367D01*
X0136264Y0164425D01*
X0136357Y0164487D01*
X0136449Y0164553D01*
X0136538Y0164621D01*
X0136624Y0164692D01*
X0136708Y0164767D01*
X0136790Y0164844D01*
X0136868Y0164924D01*
X0136944Y0165007D01*
X0137017Y0165092D01*
X0137087Y0165180D01*
X0137154Y0165270D01*
X0137218Y0165363D01*
X0137278Y0165457D01*
X0137335Y0165554D01*
X0137388Y0165653D01*
X0137439Y0165753D01*
X0137485Y0165855D01*
X0137528Y0165959D01*
X0137567Y0166064D01*
X0137603Y0166170D01*
X0137635Y0166278D01*
X0137663Y0166387D01*
X0137687Y0166496D01*
X0137708Y0166607D01*
X0137724Y0166718D01*
X0137737Y0166829D01*
X0137746Y0166941D01*
X0137751Y0167053D01*
X0137751Y0182053D01*
X0137751Y0182054D02*
X0137746Y0182166D01*
X0137737Y0182278D01*
X0137724Y0182389D01*
X0137708Y0182500D01*
X0137687Y0182611D01*
X0137663Y0182720D01*
X0137635Y0182829D01*
X0137603Y0182937D01*
X0137567Y0183043D01*
X0137528Y0183148D01*
X0137485Y0183252D01*
X0137439Y0183354D01*
X0137388Y0183454D01*
X0137335Y0183553D01*
X0137278Y0183650D01*
X0137218Y0183744D01*
X0137154Y0183837D01*
X0137087Y0183927D01*
X0137017Y0184015D01*
X0136944Y0184100D01*
X0136868Y0184183D01*
X0136790Y0184263D01*
X0136708Y0184340D01*
X0136624Y0184415D01*
X0136538Y0184486D01*
X0136449Y0184554D01*
X0136357Y0184620D01*
X0136264Y0184682D01*
X0136168Y0184740D01*
X0136070Y0184795D01*
X0135971Y0184847D01*
X0135869Y0184896D01*
X0135766Y0184940D01*
X0135662Y0184982D01*
X0135556Y0185019D01*
X0135449Y0185053D01*
X0135341Y0185083D01*
X0135232Y0185109D01*
X0135122Y0185131D01*
X0135011Y0185150D01*
X0134900Y0185164D01*
X0134788Y0185175D01*
X0134676Y0185182D01*
X0134564Y0185185D01*
X0134451Y0185184D01*
X0147803Y0190803D02*
X0147811Y0191481D01*
X0147836Y0192158D01*
X0147878Y0192834D01*
X0147936Y0193510D01*
X0148011Y0194183D01*
X0148102Y0194855D01*
X0148210Y0195524D01*
X0148334Y0196190D01*
X0148474Y0196853D01*
X0148631Y0197512D01*
X0148803Y0198168D01*
X0148992Y0198819D01*
X0149197Y0199465D01*
X0149417Y0200106D01*
X0149653Y0200741D01*
X0149905Y0201370D01*
X0150172Y0201993D01*
X0150454Y0202609D01*
X0150751Y0203218D01*
X0151064Y0203820D01*
X0151390Y0204413D01*
X0151732Y0204999D01*
X0152087Y0205576D01*
X0152457Y0206144D01*
X0152840Y0206703D01*
X0153237Y0207252D01*
X0153647Y0207791D01*
X0154071Y0208321D01*
X0154507Y0208839D01*
X0154956Y0209347D01*
X0155417Y0209843D01*
X0155891Y0210328D01*
X0156376Y0210802D01*
X0156872Y0211263D01*
X0157380Y0211712D01*
X0157898Y0212148D01*
X0158428Y0212572D01*
X0158967Y0212982D01*
X0159516Y0213379D01*
X0160075Y0213762D01*
X0160643Y0214132D01*
X0161220Y0214487D01*
X0161806Y0214829D01*
X0162399Y0215155D01*
X0163001Y0215468D01*
X0163610Y0215765D01*
X0164226Y0216047D01*
X0164849Y0216314D01*
X0165478Y0216566D01*
X0166113Y0216802D01*
X0166754Y0217022D01*
X0167400Y0217227D01*
X0168051Y0217416D01*
X0168707Y0217588D01*
X0169366Y0217745D01*
X0170029Y0217885D01*
X0170695Y0218009D01*
X0171364Y0218117D01*
X0172036Y0218208D01*
X0172709Y0218283D01*
X0173385Y0218341D01*
X0174061Y0218383D01*
X0174738Y0218408D01*
X0175416Y0218416D01*
X0176094Y0218408D01*
X0176771Y0218383D01*
X0177447Y0218341D01*
X0178123Y0218283D01*
X0178796Y0218208D01*
X0179468Y0218117D01*
X0180137Y0218009D01*
X0180803Y0217885D01*
X0181466Y0217745D01*
X0182125Y0217588D01*
X0182781Y0217416D01*
X0183432Y0217227D01*
X0184078Y0217022D01*
X0184719Y0216802D01*
X0185354Y0216566D01*
X0185983Y0216314D01*
X0186606Y0216047D01*
X0187222Y0215765D01*
X0187831Y0215468D01*
X0188433Y0215155D01*
X0189026Y0214829D01*
X0189612Y0214487D01*
X0190189Y0214132D01*
X0190757Y0213762D01*
X0191316Y0213379D01*
X0191865Y0212982D01*
X0192404Y0212572D01*
X0192934Y0212148D01*
X0193452Y0211712D01*
X0193960Y0211263D01*
X0194456Y0210802D01*
X0194941Y0210328D01*
X0195415Y0209843D01*
X0195876Y0209347D01*
X0196325Y0208839D01*
X0196761Y0208321D01*
X0197185Y0207791D01*
X0197595Y0207252D01*
X0197992Y0206703D01*
X0198375Y0206144D01*
X0198745Y0205576D01*
X0199100Y0204999D01*
X0199442Y0204413D01*
X0199768Y0203820D01*
X0200081Y0203218D01*
X0200378Y0202609D01*
X0200660Y0201993D01*
X0200927Y0201370D01*
X0201179Y0200741D01*
X0201415Y0200106D01*
X0201635Y0199465D01*
X0201840Y0198819D01*
X0202029Y0198168D01*
X0202201Y0197512D01*
X0202358Y0196853D01*
X0202498Y0196190D01*
X0202622Y0195524D01*
X0202730Y0194855D01*
X0202821Y0194183D01*
X0202896Y0193510D01*
X0202954Y0192834D01*
X0202996Y0192158D01*
X0203021Y0191481D01*
X0203029Y0190803D01*
X0203021Y0190125D01*
X0202996Y0189448D01*
X0202954Y0188772D01*
X0202896Y0188096D01*
X0202821Y0187423D01*
X0202730Y0186751D01*
X0202622Y0186082D01*
X0202498Y0185416D01*
X0202358Y0184753D01*
X0202201Y0184094D01*
X0202029Y0183438D01*
X0201840Y0182787D01*
X0201635Y0182141D01*
X0201415Y0181500D01*
X0201179Y0180865D01*
X0200927Y0180236D01*
X0200660Y0179613D01*
X0200378Y0178997D01*
X0200081Y0178388D01*
X0199768Y0177786D01*
X0199442Y0177193D01*
X0199100Y0176607D01*
X0198745Y0176030D01*
X0198375Y0175462D01*
X0197992Y0174903D01*
X0197595Y0174354D01*
X0197185Y0173815D01*
X0196761Y0173285D01*
X0196325Y0172767D01*
X0195876Y0172259D01*
X0195415Y0171763D01*
X0194941Y0171278D01*
X0194456Y0170804D01*
X0193960Y0170343D01*
X0193452Y0169894D01*
X0192934Y0169458D01*
X0192404Y0169034D01*
X0191865Y0168624D01*
X0191316Y0168227D01*
X0190757Y0167844D01*
X0190189Y0167474D01*
X0189612Y0167119D01*
X0189026Y0166777D01*
X0188433Y0166451D01*
X0187831Y0166138D01*
X0187222Y0165841D01*
X0186606Y0165559D01*
X0185983Y0165292D01*
X0185354Y0165040D01*
X0184719Y0164804D01*
X0184078Y0164584D01*
X0183432Y0164379D01*
X0182781Y0164190D01*
X0182125Y0164018D01*
X0181466Y0163861D01*
X0180803Y0163721D01*
X0180137Y0163597D01*
X0179468Y0163489D01*
X0178796Y0163398D01*
X0178123Y0163323D01*
X0177447Y0163265D01*
X0176771Y0163223D01*
X0176094Y0163198D01*
X0175416Y0163190D01*
X0174738Y0163198D01*
X0174061Y0163223D01*
X0173385Y0163265D01*
X0172709Y0163323D01*
X0172036Y0163398D01*
X0171364Y0163489D01*
X0170695Y0163597D01*
X0170029Y0163721D01*
X0169366Y0163861D01*
X0168707Y0164018D01*
X0168051Y0164190D01*
X0167400Y0164379D01*
X0166754Y0164584D01*
X0166113Y0164804D01*
X0165478Y0165040D01*
X0164849Y0165292D01*
X0164226Y0165559D01*
X0163610Y0165841D01*
X0163001Y0166138D01*
X0162399Y0166451D01*
X0161806Y0166777D01*
X0161220Y0167119D01*
X0160643Y0167474D01*
X0160075Y0167844D01*
X0159516Y0168227D01*
X0158967Y0168624D01*
X0158428Y0169034D01*
X0157898Y0169458D01*
X0157380Y0169894D01*
X0156872Y0170343D01*
X0156376Y0170804D01*
X0155891Y0171278D01*
X0155417Y0171763D01*
X0154956Y0172259D01*
X0154507Y0172767D01*
X0154071Y0173285D01*
X0153647Y0173815D01*
X0153237Y0174354D01*
X0152840Y0174903D01*
X0152457Y0175462D01*
X0152087Y0176030D01*
X0151732Y0176607D01*
X0151390Y0177193D01*
X0151064Y0177786D01*
X0150751Y0178388D01*
X0150454Y0178997D01*
X0150172Y0179613D01*
X0149905Y0180236D01*
X0149653Y0180865D01*
X0149417Y0181500D01*
X0149197Y0182141D01*
X0148992Y0182787D01*
X0148803Y0183438D01*
X0148631Y0184094D01*
X0148474Y0184753D01*
X0148334Y0185416D01*
X0148210Y0186082D01*
X0148102Y0186751D01*
X0148011Y0187423D01*
X0147936Y0188096D01*
X0147878Y0188772D01*
X0147836Y0189448D01*
X0147811Y0190125D01*
X0147803Y0190803D01*
X0177916Y0190803D02*
X0179916Y0190803D01*
X0181916Y0190803D01*
X0208416Y0187053D02*
X0214416Y0187053D01*
X0211416Y0184053D02*
X0211416Y0190053D01*
X0216416Y0192053D02*
X0219416Y0192053D01*
X0217916Y0193553D02*
X0217916Y0190553D01*
X0226416Y0187053D02*
X0228416Y0187053D01*
X0229416Y0187053D01*
X0229416Y0191553D01*
X0231916Y0191553D01*
X0231916Y0182553D01*
X0229416Y0182553D01*
X0229416Y0187053D01*
X0229916Y0187053D02*
X0234416Y0187053D01*
X0234416Y0179553D01*
X0236916Y0179553D01*
X0236916Y0194553D01*
X0234416Y0194553D01*
X0234416Y0187053D01*
X0235416Y0187053D02*
X0237416Y0187053D01*
X0239416Y0187053D01*
X0240416Y0187053D02*
X0245916Y0187053D01*
X0205416Y0187053D02*
X0205426Y0187851D01*
X0205455Y0188648D01*
X0205504Y0189444D01*
X0205572Y0190239D01*
X0205660Y0191031D01*
X0205768Y0191822D01*
X0205894Y0192609D01*
X0206040Y0193393D01*
X0206206Y0194174D01*
X0206390Y0194950D01*
X0206593Y0195721D01*
X0206815Y0196487D01*
X0207056Y0197248D01*
X0207316Y0198002D01*
X0207594Y0198750D01*
X0207890Y0199490D01*
X0208204Y0200223D01*
X0208536Y0200949D01*
X0208886Y0201665D01*
X0209254Y0202373D01*
X0209638Y0203072D01*
X0210040Y0203761D01*
X0210458Y0204440D01*
X0210893Y0205109D01*
X0211344Y0205767D01*
X0211812Y0206413D01*
X0212295Y0207048D01*
X0212793Y0207671D01*
X0213307Y0208281D01*
X0213835Y0208879D01*
X0214378Y0209463D01*
X0214935Y0210034D01*
X0215506Y0210591D01*
X0216090Y0211134D01*
X0216688Y0211662D01*
X0217298Y0212176D01*
X0217921Y0212674D01*
X0218556Y0213157D01*
X0219202Y0213625D01*
X0219860Y0214076D01*
X0220529Y0214511D01*
X0221208Y0214929D01*
X0221897Y0215331D01*
X0222596Y0215715D01*
X0223304Y0216083D01*
X0224020Y0216433D01*
X0224746Y0216765D01*
X0225479Y0217079D01*
X0226219Y0217375D01*
X0226967Y0217653D01*
X0227721Y0217913D01*
X0228482Y0218154D01*
X0229248Y0218376D01*
X0230019Y0218579D01*
X0230795Y0218763D01*
X0231576Y0218929D01*
X0232360Y0219075D01*
X0233147Y0219201D01*
X0233938Y0219309D01*
X0234730Y0219397D01*
X0235525Y0219465D01*
X0236321Y0219514D01*
X0237118Y0219543D01*
X0237916Y0219553D01*
X0238714Y0219543D01*
X0239511Y0219514D01*
X0240307Y0219465D01*
X0241102Y0219397D01*
X0241894Y0219309D01*
X0242685Y0219201D01*
X0243472Y0219075D01*
X0244256Y0218929D01*
X0245037Y0218763D01*
X0245813Y0218579D01*
X0246584Y0218376D01*
X0247350Y0218154D01*
X0248111Y0217913D01*
X0248865Y0217653D01*
X0249613Y0217375D01*
X0250353Y0217079D01*
X0251086Y0216765D01*
X0251812Y0216433D01*
X0252528Y0216083D01*
X0253236Y0215715D01*
X0253935Y0215331D01*
X0254624Y0214929D01*
X0255303Y0214511D01*
X0255972Y0214076D01*
X0256630Y0213625D01*
X0257276Y0213157D01*
X0257911Y0212674D01*
X0258534Y0212176D01*
X0259144Y0211662D01*
X0259742Y0211134D01*
X0260326Y0210591D01*
X0260897Y0210034D01*
X0261454Y0209463D01*
X0261997Y0208879D01*
X0262525Y0208281D01*
X0263039Y0207671D01*
X0263537Y0207048D01*
X0264020Y0206413D01*
X0264488Y0205767D01*
X0264939Y0205109D01*
X0265374Y0204440D01*
X0265792Y0203761D01*
X0266194Y0203072D01*
X0266578Y0202373D01*
X0266946Y0201665D01*
X0267296Y0200949D01*
X0267628Y0200223D01*
X0267942Y0199490D01*
X0268238Y0198750D01*
X0268516Y0198002D01*
X0268776Y0197248D01*
X0269017Y0196487D01*
X0269239Y0195721D01*
X0269442Y0194950D01*
X0269626Y0194174D01*
X0269792Y0193393D01*
X0269938Y0192609D01*
X0270064Y0191822D01*
X0270172Y0191031D01*
X0270260Y0190239D01*
X0270328Y0189444D01*
X0270377Y0188648D01*
X0270406Y0187851D01*
X0270416Y0187053D01*
X0270406Y0186255D01*
X0270377Y0185458D01*
X0270328Y0184662D01*
X0270260Y0183867D01*
X0270172Y0183075D01*
X0270064Y0182284D01*
X0269938Y0181497D01*
X0269792Y0180713D01*
X0269626Y0179932D01*
X0269442Y0179156D01*
X0269239Y0178385D01*
X0269017Y0177619D01*
X0268776Y0176858D01*
X0268516Y0176104D01*
X0268238Y0175356D01*
X0267942Y0174616D01*
X0267628Y0173883D01*
X0267296Y0173157D01*
X0266946Y0172441D01*
X0266578Y0171733D01*
X0266194Y0171034D01*
X0265792Y0170345D01*
X0265374Y0169666D01*
X0264939Y0168997D01*
X0264488Y0168339D01*
X0264020Y0167693D01*
X0263537Y0167058D01*
X0263039Y0166435D01*
X0262525Y0165825D01*
X0261997Y0165227D01*
X0261454Y0164643D01*
X0260897Y0164072D01*
X0260326Y0163515D01*
X0259742Y0162972D01*
X0259144Y0162444D01*
X0258534Y0161930D01*
X0257911Y0161432D01*
X0257276Y0160949D01*
X0256630Y0160481D01*
X0255972Y0160030D01*
X0255303Y0159595D01*
X0254624Y0159177D01*
X0253935Y0158775D01*
X0253236Y0158391D01*
X0252528Y0158023D01*
X0251812Y0157673D01*
X0251086Y0157341D01*
X0250353Y0157027D01*
X0249613Y0156731D01*
X0248865Y0156453D01*
X0248111Y0156193D01*
X0247350Y0155952D01*
X0246584Y0155730D01*
X0245813Y0155527D01*
X0245037Y0155343D01*
X0244256Y0155177D01*
X0243472Y0155031D01*
X0242685Y0154905D01*
X0241894Y0154797D01*
X0241102Y0154709D01*
X0240307Y0154641D01*
X0239511Y0154592D01*
X0238714Y0154563D01*
X0237916Y0154553D01*
X0237118Y0154563D01*
X0236321Y0154592D01*
X0235525Y0154641D01*
X0234730Y0154709D01*
X0233938Y0154797D01*
X0233147Y0154905D01*
X0232360Y0155031D01*
X0231576Y0155177D01*
X0230795Y0155343D01*
X0230019Y0155527D01*
X0229248Y0155730D01*
X0228482Y0155952D01*
X0227721Y0156193D01*
X0226967Y0156453D01*
X0226219Y0156731D01*
X0225479Y0157027D01*
X0224746Y0157341D01*
X0224020Y0157673D01*
X0223304Y0158023D01*
X0222596Y0158391D01*
X0221897Y0158775D01*
X0221208Y0159177D01*
X0220529Y0159595D01*
X0219860Y0160030D01*
X0219202Y0160481D01*
X0218556Y0160949D01*
X0217921Y0161432D01*
X0217298Y0161930D01*
X0216688Y0162444D01*
X0216090Y0162972D01*
X0215506Y0163515D01*
X0214935Y0164072D01*
X0214378Y0164643D01*
X0213835Y0165227D01*
X0213307Y0165825D01*
X0212793Y0166435D01*
X0212295Y0167058D01*
X0211812Y0167693D01*
X0211344Y0168339D01*
X0210893Y0168997D01*
X0210458Y0169666D01*
X0210040Y0170345D01*
X0209638Y0171034D01*
X0209254Y0171733D01*
X0208886Y0172441D01*
X0208536Y0173157D01*
X0208204Y0173883D01*
X0207890Y0174616D01*
X0207594Y0175356D01*
X0207316Y0176104D01*
X0207056Y0176858D01*
X0206815Y0177619D01*
X0206593Y0178385D01*
X0206390Y0179156D01*
X0206206Y0179932D01*
X0206040Y0180713D01*
X0205894Y0181497D01*
X0205768Y0182284D01*
X0205660Y0183075D01*
X0205572Y0183867D01*
X0205504Y0184662D01*
X0205455Y0185458D01*
X0205426Y0186255D01*
X0205416Y0187053D01*
X0212916Y0187053D02*
X0212922Y0187544D01*
X0212940Y0188034D01*
X0212970Y0188524D01*
X0213012Y0189013D01*
X0213066Y0189501D01*
X0213132Y0189988D01*
X0213210Y0190472D01*
X0213300Y0190955D01*
X0213402Y0191435D01*
X0213515Y0191913D01*
X0213640Y0192387D01*
X0213777Y0192859D01*
X0213925Y0193327D01*
X0214085Y0193791D01*
X0214256Y0194251D01*
X0214438Y0194707D01*
X0214632Y0195158D01*
X0214836Y0195604D01*
X0215052Y0196045D01*
X0215278Y0196481D01*
X0215514Y0196911D01*
X0215761Y0197335D01*
X0216019Y0197753D01*
X0216287Y0198164D01*
X0216564Y0198569D01*
X0216852Y0198967D01*
X0217149Y0199358D01*
X0217456Y0199741D01*
X0217772Y0200116D01*
X0218097Y0200484D01*
X0218431Y0200844D01*
X0218774Y0201195D01*
X0219125Y0201538D01*
X0219485Y0201872D01*
X0219853Y0202197D01*
X0220228Y0202513D01*
X0220611Y0202820D01*
X0221002Y0203117D01*
X0221400Y0203405D01*
X0221805Y0203682D01*
X0222216Y0203950D01*
X0222634Y0204208D01*
X0223058Y0204455D01*
X0223488Y0204691D01*
X0223924Y0204917D01*
X0224365Y0205133D01*
X0224811Y0205337D01*
X0225262Y0205531D01*
X0225718Y0205713D01*
X0226178Y0205884D01*
X0226642Y0206044D01*
X0227110Y0206192D01*
X0227582Y0206329D01*
X0228056Y0206454D01*
X0228534Y0206567D01*
X0229014Y0206669D01*
X0229497Y0206759D01*
X0229981Y0206837D01*
X0230468Y0206903D01*
X0230956Y0206957D01*
X0231445Y0206999D01*
X0231935Y0207029D01*
X0232425Y0207047D01*
X0232916Y0207053D01*
X0233407Y0207047D01*
X0233897Y0207029D01*
X0234387Y0206999D01*
X0234876Y0206957D01*
X0235364Y0206903D01*
X0235851Y0206837D01*
X0236335Y0206759D01*
X0236818Y0206669D01*
X0237298Y0206567D01*
X0237776Y0206454D01*
X0238250Y0206329D01*
X0238722Y0206192D01*
X0239190Y0206044D01*
X0239654Y0205884D01*
X0240114Y0205713D01*
X0240570Y0205531D01*
X0241021Y0205337D01*
X0241467Y0205133D01*
X0241908Y0204917D01*
X0242344Y0204691D01*
X0242774Y0204455D01*
X0243198Y0204208D01*
X0243616Y0203950D01*
X0244027Y0203682D01*
X0244432Y0203405D01*
X0244830Y0203117D01*
X0245221Y0202820D01*
X0245604Y0202513D01*
X0245979Y0202197D01*
X0246347Y0201872D01*
X0246707Y0201538D01*
X0247058Y0201195D01*
X0247401Y0200844D01*
X0247735Y0200484D01*
X0248060Y0200116D01*
X0248376Y0199741D01*
X0248683Y0199358D01*
X0248980Y0198967D01*
X0249268Y0198569D01*
X0249545Y0198164D01*
X0249813Y0197753D01*
X0250071Y0197335D01*
X0250318Y0196911D01*
X0250554Y0196481D01*
X0250780Y0196045D01*
X0250996Y0195604D01*
X0251200Y0195158D01*
X0251394Y0194707D01*
X0251576Y0194251D01*
X0251747Y0193791D01*
X0251907Y0193327D01*
X0252055Y0192859D01*
X0252192Y0192387D01*
X0252317Y0191913D01*
X0252430Y0191435D01*
X0252532Y0190955D01*
X0252622Y0190472D01*
X0252700Y0189988D01*
X0252766Y0189501D01*
X0252820Y0189013D01*
X0252862Y0188524D01*
X0252892Y0188034D01*
X0252910Y0187544D01*
X0252916Y0187053D01*
X0252910Y0186562D01*
X0252892Y0186072D01*
X0252862Y0185582D01*
X0252820Y0185093D01*
X0252766Y0184605D01*
X0252700Y0184118D01*
X0252622Y0183634D01*
X0252532Y0183151D01*
X0252430Y0182671D01*
X0252317Y0182193D01*
X0252192Y0181719D01*
X0252055Y0181247D01*
X0251907Y0180779D01*
X0251747Y0180315D01*
X0251576Y0179855D01*
X0251394Y0179399D01*
X0251200Y0178948D01*
X0250996Y0178502D01*
X0250780Y0178061D01*
X0250554Y0177625D01*
X0250318Y0177195D01*
X0250071Y0176771D01*
X0249813Y0176353D01*
X0249545Y0175942D01*
X0249268Y0175537D01*
X0248980Y0175139D01*
X0248683Y0174748D01*
X0248376Y0174365D01*
X0248060Y0173990D01*
X0247735Y0173622D01*
X0247401Y0173262D01*
X0247058Y0172911D01*
X0246707Y0172568D01*
X0246347Y0172234D01*
X0245979Y0171909D01*
X0245604Y0171593D01*
X0245221Y0171286D01*
X0244830Y0170989D01*
X0244432Y0170701D01*
X0244027Y0170424D01*
X0243616Y0170156D01*
X0243198Y0169898D01*
X0242774Y0169651D01*
X0242344Y0169415D01*
X0241908Y0169189D01*
X0241467Y0168973D01*
X0241021Y0168769D01*
X0240570Y0168575D01*
X0240114Y0168393D01*
X0239654Y0168222D01*
X0239190Y0168062D01*
X0238722Y0167914D01*
X0238250Y0167777D01*
X0237776Y0167652D01*
X0237298Y0167539D01*
X0236818Y0167437D01*
X0236335Y0167347D01*
X0235851Y0167269D01*
X0235364Y0167203D01*
X0234876Y0167149D01*
X0234387Y0167107D01*
X0233897Y0167077D01*
X0233407Y0167059D01*
X0232916Y0167053D01*
X0232425Y0167059D01*
X0231935Y0167077D01*
X0231445Y0167107D01*
X0230956Y0167149D01*
X0230468Y0167203D01*
X0229981Y0167269D01*
X0229497Y0167347D01*
X0229014Y0167437D01*
X0228534Y0167539D01*
X0228056Y0167652D01*
X0227582Y0167777D01*
X0227110Y0167914D01*
X0226642Y0168062D01*
X0226178Y0168222D01*
X0225718Y0168393D01*
X0225262Y0168575D01*
X0224811Y0168769D01*
X0224365Y0168973D01*
X0223924Y0169189D01*
X0223488Y0169415D01*
X0223058Y0169651D01*
X0222634Y0169898D01*
X0222216Y0170156D01*
X0221805Y0170424D01*
X0221400Y0170701D01*
X0221002Y0170989D01*
X0220611Y0171286D01*
X0220228Y0171593D01*
X0219853Y0171909D01*
X0219485Y0172234D01*
X0219125Y0172568D01*
X0218774Y0172911D01*
X0218431Y0173262D01*
X0218097Y0173622D01*
X0217772Y0173990D01*
X0217456Y0174365D01*
X0217149Y0174748D01*
X0216852Y0175139D01*
X0216564Y0175537D01*
X0216287Y0175942D01*
X0216019Y0176353D01*
X0215761Y0176771D01*
X0215514Y0177195D01*
X0215278Y0177625D01*
X0215052Y0178061D01*
X0214836Y0178502D01*
X0214632Y0178948D01*
X0214438Y0179399D01*
X0214256Y0179855D01*
X0214085Y0180315D01*
X0213925Y0180779D01*
X0213777Y0181247D01*
X0213640Y0181719D01*
X0213515Y0182193D01*
X0213402Y0182671D01*
X0213300Y0183151D01*
X0213210Y0183634D01*
X0213132Y0184118D01*
X0213066Y0184605D01*
X0213012Y0185093D01*
X0212970Y0185582D01*
X0212940Y0186072D01*
X0212922Y0186562D01*
X0212916Y0187053D01*
D14*
X0248541Y0187330D02*
X0270269Y0187330D01*
X0270278Y0186424D02*
X0269973Y0183410D01*
X0269339Y0180448D01*
X0268193Y0176952D01*
X0266701Y0173590D01*
X0264877Y0170395D01*
X0262740Y0167400D01*
X0260311Y0164637D01*
X0257617Y0162132D01*
X0255547Y0160568D01*
X0253329Y0159224D01*
X0250986Y0158112D01*
X0248541Y0157245D01*
X0248541Y0217772D01*
X0252423Y0215632D01*
X0256072Y0213114D01*
X0259449Y0210242D01*
X0262523Y0207047D01*
X0265260Y0203560D01*
X0266870Y0200994D01*
X0268188Y0198267D01*
X0269198Y0195411D01*
X0269888Y0192461D01*
X0270249Y0189454D01*
X0270278Y0186424D01*
X0270248Y0186132D02*
X0248541Y0186132D01*
X0248541Y0184933D02*
X0270127Y0184933D01*
X0270006Y0183735D02*
X0248541Y0183735D01*
X0248541Y0182536D02*
X0269786Y0182536D01*
X0269529Y0181338D02*
X0248541Y0181338D01*
X0248541Y0180139D02*
X0269238Y0180139D01*
X0268845Y0178941D02*
X0248541Y0178941D01*
X0248541Y0177742D02*
X0268452Y0177742D01*
X0268012Y0176544D02*
X0248541Y0176544D01*
X0248541Y0175345D02*
X0267480Y0175345D01*
X0266948Y0174147D02*
X0248541Y0174147D01*
X0248541Y0172948D02*
X0266335Y0172948D01*
X0265651Y0171750D02*
X0248541Y0171750D01*
X0248541Y0170551D02*
X0264966Y0170551D01*
X0264133Y0169353D02*
X0248541Y0169353D01*
X0248541Y0168154D02*
X0263278Y0168154D01*
X0262349Y0166956D02*
X0248541Y0166956D01*
X0248541Y0165757D02*
X0261296Y0165757D01*
X0260228Y0164559D02*
X0248541Y0164559D01*
X0248541Y0163360D02*
X0258938Y0163360D01*
X0257648Y0162162D02*
X0248541Y0162162D01*
X0248541Y0160963D02*
X0256070Y0160963D01*
X0254221Y0159765D02*
X0248541Y0159765D01*
X0248541Y0158566D02*
X0251943Y0158566D01*
X0248886Y0157368D02*
X0248541Y0157368D01*
X0273541Y0168928D02*
X0281041Y0173303D01*
X0270258Y0188529D02*
X0248541Y0188529D01*
X0248541Y0189727D02*
X0270217Y0189727D01*
X0270073Y0190926D02*
X0248541Y0190926D01*
X0248541Y0192125D02*
X0269929Y0192125D01*
X0269687Y0193323D02*
X0248541Y0193323D01*
X0248541Y0194522D02*
X0269406Y0194522D01*
X0269089Y0195720D02*
X0248541Y0195720D01*
X0248541Y0196919D02*
X0268665Y0196919D01*
X0268241Y0198117D02*
X0248541Y0198117D01*
X0248541Y0199316D02*
X0267681Y0199316D01*
X0267102Y0200514D02*
X0248541Y0200514D01*
X0248541Y0201713D02*
X0266420Y0201713D01*
X0265668Y0202911D02*
X0248541Y0202911D01*
X0248541Y0204110D02*
X0264829Y0204110D01*
X0263888Y0205308D02*
X0248541Y0205308D01*
X0248541Y0206507D02*
X0262947Y0206507D01*
X0261890Y0207705D02*
X0248541Y0207705D01*
X0248541Y0208904D02*
X0260737Y0208904D01*
X0259584Y0210102D02*
X0248541Y0210102D01*
X0248541Y0211301D02*
X0258205Y0211301D01*
X0256795Y0212499D02*
X0248541Y0212499D01*
X0248541Y0213698D02*
X0255225Y0213698D01*
X0253489Y0214896D02*
X0248541Y0214896D01*
X0248541Y0216095D02*
X0251584Y0216095D01*
X0249409Y0217293D02*
X0248541Y0217293D01*
X0122941Y0116346D02*
X0122941Y0113902D01*
X0122941Y0115124D02*
X0118541Y0115124D01*
X0119519Y0113902D01*
X0118541Y0111630D02*
X0118541Y0110653D01*
X0118543Y0110592D01*
X0118549Y0110530D01*
X0118558Y0110470D01*
X0118572Y0110410D01*
X0118589Y0110351D01*
X0118610Y0110293D01*
X0118634Y0110237D01*
X0118662Y0110182D01*
X0118693Y0110129D01*
X0118728Y0110078D01*
X0118765Y0110030D01*
X0118806Y0109984D01*
X0118850Y0109940D01*
X0118896Y0109899D01*
X0118944Y0109862D01*
X0118995Y0109827D01*
X0119048Y0109796D01*
X0119103Y0109768D01*
X0119159Y0109744D01*
X0119217Y0109723D01*
X0119276Y0109706D01*
X0119336Y0109692D01*
X0119396Y0109683D01*
X0119458Y0109677D01*
X0119519Y0109675D01*
X0121963Y0109675D01*
X0122024Y0109677D01*
X0122086Y0109683D01*
X0122146Y0109692D01*
X0122206Y0109706D01*
X0122265Y0109723D01*
X0122323Y0109744D01*
X0122379Y0109768D01*
X0122434Y0109796D01*
X0122487Y0109827D01*
X0122538Y0109862D01*
X0122586Y0109899D01*
X0122632Y0109940D01*
X0122676Y0109984D01*
X0122717Y0110030D01*
X0122754Y0110078D01*
X0122789Y0110129D01*
X0122820Y0110182D01*
X0122848Y0110237D01*
X0122872Y0110293D01*
X0122893Y0110351D01*
X0122910Y0110410D01*
X0122924Y0110470D01*
X0122933Y0110530D01*
X0122939Y0110592D01*
X0122941Y0110653D01*
X0122941Y0111630D01*
X0122941Y0107381D02*
X0122941Y0106403D01*
X0122941Y0106892D02*
X0118541Y0106892D01*
X0118541Y0106403D02*
X0118541Y0107381D01*
X0244166Y0067746D02*
X0244168Y0067810D01*
X0244173Y0067874D01*
X0244183Y0067937D01*
X0244196Y0068000D01*
X0244212Y0068061D01*
X0244232Y0068122D01*
X0244256Y0068182D01*
X0244283Y0068240D01*
X0244313Y0068296D01*
X0244347Y0068350D01*
X0244384Y0068403D01*
X0244423Y0068453D01*
X0244466Y0068501D01*
X0244511Y0068546D01*
X0244559Y0068589D01*
X0244609Y0068628D01*
X0244662Y0068665D01*
X0244716Y0068699D01*
X0244772Y0068729D01*
X0244830Y0068756D01*
X0244890Y0068780D01*
X0244951Y0068800D01*
X0245012Y0068816D01*
X0245075Y0068829D01*
X0245138Y0068839D01*
X0245202Y0068844D01*
X0245266Y0068846D01*
X0246121Y0068480D02*
X0248566Y0066402D01*
X0248566Y0068846D01*
X0245144Y0066402D02*
X0245074Y0066426D01*
X0245005Y0066455D01*
X0244939Y0066486D01*
X0244873Y0066522D01*
X0244810Y0066560D01*
X0244749Y0066602D01*
X0244691Y0066647D01*
X0244634Y0066695D01*
X0244580Y0066746D01*
X0244529Y0066800D01*
X0244481Y0066856D01*
X0244436Y0066915D01*
X0244394Y0066976D01*
X0244356Y0067039D01*
X0244320Y0067104D01*
X0244288Y0067171D01*
X0244260Y0067239D01*
X0244235Y0067309D01*
X0244214Y0067380D01*
X0244197Y0067452D01*
X0244183Y0067525D01*
X0244174Y0067598D01*
X0244168Y0067672D01*
X0244166Y0067746D01*
X0245266Y0068846D02*
X0245334Y0068844D01*
X0245402Y0068838D01*
X0245470Y0068828D01*
X0245537Y0068815D01*
X0245603Y0068797D01*
X0245668Y0068776D01*
X0245731Y0068751D01*
X0245793Y0068722D01*
X0245853Y0068690D01*
X0245912Y0068654D01*
X0245968Y0068615D01*
X0246021Y0068573D01*
X0246073Y0068528D01*
X0246121Y0068479D01*
X0244166Y0064130D02*
X0244166Y0063153D01*
X0244168Y0063092D01*
X0244174Y0063030D01*
X0244183Y0062970D01*
X0244197Y0062910D01*
X0244214Y0062851D01*
X0244235Y0062793D01*
X0244259Y0062737D01*
X0244287Y0062682D01*
X0244318Y0062629D01*
X0244353Y0062578D01*
X0244390Y0062530D01*
X0244431Y0062484D01*
X0244475Y0062440D01*
X0244521Y0062399D01*
X0244569Y0062362D01*
X0244620Y0062327D01*
X0244673Y0062296D01*
X0244728Y0062268D01*
X0244784Y0062244D01*
X0244842Y0062223D01*
X0244901Y0062206D01*
X0244961Y0062192D01*
X0245021Y0062183D01*
X0245083Y0062177D01*
X0245144Y0062175D01*
X0247588Y0062175D01*
X0247649Y0062177D01*
X0247711Y0062183D01*
X0247771Y0062192D01*
X0247831Y0062206D01*
X0247890Y0062223D01*
X0247948Y0062244D01*
X0248004Y0062268D01*
X0248059Y0062296D01*
X0248112Y0062327D01*
X0248163Y0062362D01*
X0248211Y0062399D01*
X0248257Y0062440D01*
X0248301Y0062484D01*
X0248342Y0062530D01*
X0248379Y0062578D01*
X0248414Y0062629D01*
X0248445Y0062682D01*
X0248473Y0062737D01*
X0248497Y0062793D01*
X0248518Y0062851D01*
X0248535Y0062910D01*
X0248549Y0062970D01*
X0248558Y0063030D01*
X0248564Y0063092D01*
X0248566Y0063153D01*
X0248566Y0064130D01*
X0248566Y0059881D02*
X0248566Y0058903D01*
X0248566Y0059392D02*
X0244166Y0059392D01*
X0244166Y0058903D02*
X0244166Y0059881D01*
D15*
X0235166Y0187053D03*
X0177666Y0190803D03*
D16*
X0114264Y0188539D02*
X0111508Y0188539D01*
X0111508Y0218067D01*
X0114264Y0218067D01*
X0114264Y0188539D01*
X0111508Y0188539D02*
X0089067Y0188539D01*
X0089067Y0218067D01*
X0111508Y0218067D01*
X0109830Y0141556D02*
X0098019Y0141556D01*
X0098019Y0133485D01*
X0109830Y0133485D01*
X0109830Y0096871D01*
X0098019Y0096871D01*
X0098019Y0088800D01*
X0065736Y0088800D01*
X0065736Y0141556D01*
X0098019Y0141556D01*
X0098019Y0133485D02*
X0098019Y0096871D01*
X0098019Y0088800D02*
X0109830Y0088800D01*
X0109830Y0096871D01*
X0065736Y0088800D02*
X0057862Y0088800D01*
X0057862Y0141556D01*
X0065736Y0141556D01*
X0109830Y0141556D02*
X0109830Y0133485D01*
X0245362Y0154386D02*
X0245362Y0077220D01*
X0253236Y0077220D01*
X0253236Y0154386D01*
X0285519Y0154386D01*
X0285519Y0134110D01*
X0297330Y0134110D01*
X0297330Y0097496D01*
X0285519Y0097496D01*
X0285519Y0077220D01*
X0253236Y0077220D01*
X0285519Y0077220D02*
X0297330Y0077220D01*
X0297330Y0097496D01*
X0285519Y0097496D02*
X0285519Y0134110D01*
X0297330Y0134110D02*
X0297330Y0154386D01*
X0285519Y0154386D01*
X0282995Y0164164D02*
X0281617Y0164164D01*
X0281617Y0193692D01*
X0282995Y0193692D01*
X0282995Y0164164D01*
X0296577Y0164164D01*
X0296577Y0193692D01*
X0282995Y0193692D01*
X0253236Y0154386D02*
X0245362Y0154386D01*
D17*
X0283009Y0152176D02*
X0284978Y0150798D01*
X0284978Y0153554D01*
X0283009Y0152176D01*
X0283270Y0151994D02*
X0284978Y0151994D01*
X0284978Y0152492D02*
X0283461Y0152492D01*
X0284173Y0152991D02*
X0284978Y0152991D01*
X0284978Y0153489D02*
X0284885Y0153489D01*
X0284978Y0151495D02*
X0283983Y0151495D01*
X0284695Y0150996D02*
X0284978Y0150996D01*
X0282729Y0165552D02*
X0282729Y0168308D01*
X0284697Y0166930D01*
X0282729Y0165552D01*
X0282729Y0165952D02*
X0283300Y0165952D01*
X0282729Y0166450D02*
X0284012Y0166450D01*
X0284671Y0166949D02*
X0282729Y0166949D01*
X0282729Y0167447D02*
X0283958Y0167447D01*
X0283246Y0167946D02*
X0282729Y0167946D01*
X0206041Y0214553D02*
X0202291Y0214553D01*
X0203541Y0214553D02*
X0204791Y0213303D01*
X0204791Y0215803D01*
X0204791Y0215803D01*
X0203541Y0214553D01*
X0203787Y0214307D02*
X0204791Y0214307D01*
X0204791Y0213809D02*
X0204285Y0213809D01*
X0204784Y0213310D02*
X0204791Y0213310D01*
X0203541Y0213303D02*
X0203541Y0215803D01*
X0204292Y0215304D02*
X0204791Y0215304D01*
X0204791Y0214806D02*
X0203794Y0214806D01*
X0145416Y0213303D02*
X0135416Y0213303D01*
X0135492Y0214171D01*
X0135717Y0215013D01*
X0136086Y0215803D01*
X0136586Y0216517D01*
X0137202Y0217133D01*
X0137916Y0217633D01*
X0138706Y0218002D01*
X0139548Y0218227D01*
X0140416Y0218303D01*
X0141284Y0218227D01*
X0142126Y0218002D01*
X0142916Y0217633D01*
X0143630Y0217133D01*
X0144246Y0216517D01*
X0144746Y0215803D01*
X0136086Y0215803D01*
X0135853Y0215304D02*
X0144979Y0215304D01*
X0145114Y0215013D02*
X0144746Y0215803D01*
X0144397Y0216301D02*
X0136435Y0216301D01*
X0136869Y0216800D02*
X0143963Y0216800D01*
X0143394Y0217298D02*
X0137438Y0217298D01*
X0138267Y0217797D02*
X0142565Y0217797D01*
X0140503Y0218296D02*
X0140329Y0218296D01*
X0135662Y0214806D02*
X0145170Y0214806D01*
X0145114Y0215013D02*
X0145340Y0214171D01*
X0145416Y0213303D01*
X0145415Y0213310D02*
X0135417Y0213310D01*
X0135460Y0213809D02*
X0145372Y0213809D01*
X0145303Y0214307D02*
X0135528Y0214307D01*
X0135416Y0203303D02*
X0145416Y0203303D01*
X0145340Y0202435D01*
X0145114Y0201593D01*
X0144746Y0200803D01*
X0144246Y0200089D01*
X0143630Y0199473D01*
X0142916Y0198973D01*
X0142126Y0198605D01*
X0141284Y0198379D01*
X0140416Y0198303D01*
X0139548Y0198379D01*
X0138706Y0198605D01*
X0137916Y0198973D01*
X0137202Y0199473D01*
X0136586Y0200089D01*
X0136086Y0200803D01*
X0135717Y0201593D01*
X0135492Y0202435D01*
X0135416Y0203303D01*
X0135456Y0202842D02*
X0145376Y0202842D01*
X0145315Y0202343D02*
X0135516Y0202343D01*
X0135650Y0201845D02*
X0145182Y0201845D01*
X0144999Y0201346D02*
X0135833Y0201346D01*
X0136065Y0200848D02*
X0144767Y0200848D01*
X0144428Y0200349D02*
X0136404Y0200349D01*
X0136824Y0199851D02*
X0144007Y0199851D01*
X0143457Y0199352D02*
X0137375Y0199352D01*
X0138172Y0198854D02*
X0142660Y0198854D01*
X0141009Y0198355D02*
X0139823Y0198355D01*
X0117871Y0177916D02*
X0107916Y0177916D01*
X0107916Y0177418D02*
X0118619Y0177418D01*
X0119367Y0176919D02*
X0107916Y0176919D01*
X0107916Y0176421D02*
X0120115Y0176421D01*
X0120863Y0175922D02*
X0107916Y0175922D01*
X0107916Y0175424D02*
X0121610Y0175424D01*
X0122358Y0174925D02*
X0107916Y0174925D01*
X0107916Y0174427D02*
X0122726Y0174427D01*
X0122916Y0174553D02*
X0107916Y0184553D01*
X0107916Y0164553D01*
X0122916Y0174553D01*
X0121978Y0173928D02*
X0107916Y0173928D01*
X0107916Y0173429D02*
X0121230Y0173429D01*
X0120483Y0172931D02*
X0107916Y0172931D01*
X0107916Y0172432D02*
X0119735Y0172432D01*
X0118987Y0171934D02*
X0107916Y0171934D01*
X0107916Y0171435D02*
X0118239Y0171435D01*
X0117492Y0170937D02*
X0107916Y0170937D01*
X0107916Y0170438D02*
X0116744Y0170438D01*
X0115996Y0169940D02*
X0107916Y0169940D01*
X0107916Y0169441D02*
X0115248Y0169441D01*
X0114500Y0168943D02*
X0107916Y0168943D01*
X0107916Y0168444D02*
X0113753Y0168444D01*
X0113005Y0167946D02*
X0107916Y0167946D01*
X0107916Y0167447D02*
X0112257Y0167447D01*
X0111509Y0166949D02*
X0107916Y0166949D01*
X0107916Y0166450D02*
X0110762Y0166450D01*
X0110014Y0165952D02*
X0107916Y0165952D01*
X0107916Y0165453D02*
X0109266Y0165453D01*
X0108518Y0164955D02*
X0107916Y0164955D01*
X0107916Y0178415D02*
X0117124Y0178415D01*
X0116376Y0178913D02*
X0107916Y0178913D01*
X0107916Y0179412D02*
X0115628Y0179412D01*
X0114880Y0179910D02*
X0107916Y0179910D01*
X0107916Y0180409D02*
X0114133Y0180409D01*
X0113385Y0180907D02*
X0107916Y0180907D01*
X0107916Y0181406D02*
X0112637Y0181406D01*
X0111889Y0181904D02*
X0107916Y0181904D01*
X0107916Y0182403D02*
X0111142Y0182403D01*
X0110394Y0182901D02*
X0107916Y0182901D01*
X0107916Y0183400D02*
X0109646Y0183400D01*
X0108898Y0183898D02*
X0107916Y0183898D01*
X0107916Y0184397D02*
X0108151Y0184397D01*
X0111228Y0197048D02*
X0111228Y0199804D01*
X0109259Y0198426D01*
X0111228Y0197048D01*
X0111228Y0197358D02*
X0110785Y0197358D01*
X0111228Y0197857D02*
X0110073Y0197857D01*
X0109361Y0198355D02*
X0111228Y0198355D01*
X0111228Y0198854D02*
X0109870Y0198854D01*
X0110582Y0199352D02*
X0111228Y0199352D01*
X0082291Y0185803D02*
X0078541Y0185803D01*
X0079791Y0185892D02*
X0080952Y0185892D01*
X0081041Y0185803D02*
X0079791Y0187053D01*
X0079791Y0184553D01*
X0081041Y0185803D01*
X0080631Y0185394D02*
X0079791Y0185394D01*
X0079791Y0184895D02*
X0080133Y0184895D01*
X0081041Y0184553D02*
X0081041Y0187053D01*
X0080453Y0186391D02*
X0079791Y0186391D01*
X0079791Y0186889D02*
X0079955Y0186889D01*
X0069815Y0180921D02*
X0063516Y0180921D01*
X0063516Y0170685D01*
X0069815Y0170685D01*
X0069815Y0180921D01*
X0066666Y0177053D02*
X0063541Y0173928D01*
X0069791Y0173928D01*
X0066666Y0177053D01*
X0066532Y0176919D02*
X0066800Y0176919D01*
X0067298Y0176421D02*
X0066033Y0176421D01*
X0065535Y0175922D02*
X0067797Y0175922D01*
X0068295Y0175424D02*
X0065036Y0175424D01*
X0064538Y0174925D02*
X0068794Y0174925D01*
X0069293Y0174427D02*
X0064039Y0174427D01*
X0095509Y0139051D02*
X0097478Y0137673D01*
X0097478Y0140429D01*
X0095509Y0139051D01*
X0095536Y0139032D02*
X0097478Y0139032D01*
X0097478Y0138534D02*
X0096249Y0138534D01*
X0096961Y0138035D02*
X0097478Y0138035D01*
X0097478Y0139531D02*
X0096194Y0139531D01*
X0096907Y0140029D02*
X0097478Y0140029D01*
D18*
X0100137Y0153303D02*
X0124791Y0153303D01*
X0127916Y0174553D02*
X0137916Y0174553D01*
X0138416Y0174553D02*
X0142916Y0174553D01*
X0164791Y0153303D02*
X0189444Y0153303D01*
X0107916Y0174553D02*
X0097916Y0174553D01*
X0097416Y0174553D02*
X0092916Y0174553D01*
D19*
X0099387Y0153303D03*
X0190194Y0153303D03*
D20*
X0240166Y0187053D03*
D21*
X0138349Y0174553D03*
X0097483Y0174553D03*
D22*
X0125416Y0174553D03*
D23*
X0083565Y0184621D02*
X0083498Y0184629D01*
X0083431Y0184641D01*
X0083365Y0184656D01*
X0083300Y0184675D01*
X0083237Y0184698D01*
X0083174Y0184725D01*
X0083114Y0184755D01*
X0083055Y0184788D01*
X0082998Y0184824D01*
X0082943Y0184864D01*
X0082891Y0184907D01*
X0082841Y0184953D01*
X0082794Y0185002D01*
X0082749Y0185053D01*
X0082708Y0185106D01*
X0082670Y0185162D01*
X0082635Y0185220D01*
X0082604Y0185280D01*
X0082575Y0185342D01*
X0082551Y0185405D01*
X0082530Y0185469D01*
X0082513Y0185535D01*
X0082499Y0185601D01*
X0082490Y0185668D01*
X0082484Y0185735D01*
X0082482Y0185803D01*
X0082484Y0185871D01*
X0082490Y0185938D01*
X0082499Y0186005D01*
X0082513Y0186071D01*
X0082530Y0186137D01*
X0082551Y0186201D01*
X0082575Y0186264D01*
X0082604Y0186326D01*
X0082635Y0186386D01*
X0082670Y0186444D01*
X0082708Y0186500D01*
X0082749Y0186553D01*
X0082794Y0186604D01*
X0082841Y0186653D01*
X0082891Y0186699D01*
X0082943Y0186742D01*
X0082998Y0186782D01*
X0083055Y0186818D01*
X0083114Y0186851D01*
X0083174Y0186881D01*
X0083237Y0186908D01*
X0083300Y0186931D01*
X0083365Y0186950D01*
X0083431Y0186965D01*
X0083498Y0186977D01*
X0083565Y0186985D01*
X0081892Y0187378D02*
X0079038Y0187378D01*
X0079038Y0184228D02*
X0081794Y0184228D01*
X0201017Y0213371D02*
X0201084Y0213379D01*
X0201151Y0213391D01*
X0201217Y0213406D01*
X0201282Y0213425D01*
X0201345Y0213448D01*
X0201408Y0213475D01*
X0201468Y0213505D01*
X0201527Y0213538D01*
X0201584Y0213574D01*
X0201639Y0213614D01*
X0201691Y0213657D01*
X0201741Y0213703D01*
X0201788Y0213752D01*
X0201833Y0213803D01*
X0201874Y0213856D01*
X0201912Y0213912D01*
X0201947Y0213970D01*
X0201978Y0214030D01*
X0202007Y0214092D01*
X0202031Y0214155D01*
X0202052Y0214219D01*
X0202069Y0214285D01*
X0202083Y0214351D01*
X0202092Y0214418D01*
X0202098Y0214485D01*
X0202100Y0214553D01*
X0202098Y0214621D01*
X0202092Y0214688D01*
X0202083Y0214755D01*
X0202069Y0214821D01*
X0202052Y0214887D01*
X0202031Y0214951D01*
X0202007Y0215014D01*
X0201978Y0215076D01*
X0201947Y0215136D01*
X0201912Y0215194D01*
X0201874Y0215250D01*
X0201833Y0215303D01*
X0201788Y0215354D01*
X0201741Y0215403D01*
X0201691Y0215449D01*
X0201639Y0215492D01*
X0201584Y0215532D01*
X0201527Y0215568D01*
X0201468Y0215601D01*
X0201408Y0215631D01*
X0201345Y0215658D01*
X0201282Y0215681D01*
X0201217Y0215700D01*
X0201151Y0215715D01*
X0201084Y0215727D01*
X0201017Y0215735D01*
X0202788Y0216128D02*
X0205544Y0216128D01*
X0205544Y0212978D02*
X0202690Y0212978D01*
D24*
X0201410Y0213175D02*
X0201412Y0213209D01*
X0201418Y0213243D01*
X0201428Y0213276D01*
X0201441Y0213307D01*
X0201459Y0213337D01*
X0201479Y0213365D01*
X0201503Y0213390D01*
X0201529Y0213412D01*
X0201557Y0213430D01*
X0201588Y0213446D01*
X0201620Y0213458D01*
X0201654Y0213466D01*
X0201688Y0213470D01*
X0201722Y0213470D01*
X0201756Y0213466D01*
X0201790Y0213458D01*
X0201822Y0213446D01*
X0201852Y0213430D01*
X0201881Y0213412D01*
X0201907Y0213390D01*
X0201931Y0213365D01*
X0201951Y0213337D01*
X0201969Y0213307D01*
X0201982Y0213276D01*
X0201992Y0213243D01*
X0201998Y0213209D01*
X0202000Y0213175D01*
X0201998Y0213141D01*
X0201992Y0213107D01*
X0201982Y0213074D01*
X0201969Y0213043D01*
X0201951Y0213013D01*
X0201931Y0212985D01*
X0201907Y0212960D01*
X0201881Y0212938D01*
X0201853Y0212920D01*
X0201822Y0212904D01*
X0201790Y0212892D01*
X0201756Y0212884D01*
X0201722Y0212880D01*
X0201688Y0212880D01*
X0201654Y0212884D01*
X0201620Y0212892D01*
X0201588Y0212904D01*
X0201557Y0212920D01*
X0201529Y0212938D01*
X0201503Y0212960D01*
X0201479Y0212985D01*
X0201459Y0213013D01*
X0201441Y0213043D01*
X0201428Y0213074D01*
X0201418Y0213107D01*
X0201412Y0213141D01*
X0201410Y0213175D01*
X0207414Y0213470D02*
X0207350Y0213472D01*
X0207286Y0213478D01*
X0207222Y0213487D01*
X0207160Y0213500D01*
X0207098Y0213517D01*
X0207037Y0213538D01*
X0206977Y0213562D01*
X0206919Y0213590D01*
X0206863Y0213620D01*
X0206809Y0213655D01*
X0206757Y0213692D01*
X0206707Y0213733D01*
X0206660Y0213776D01*
X0206615Y0213822D01*
X0206573Y0213871D01*
X0206534Y0213922D01*
X0206498Y0213975D01*
X0206466Y0214030D01*
X0206436Y0214087D01*
X0206410Y0214146D01*
X0206388Y0214206D01*
X0206369Y0214268D01*
X0206354Y0214330D01*
X0206343Y0214393D01*
X0206335Y0214457D01*
X0206331Y0214521D01*
X0206331Y0214585D01*
X0206335Y0214649D01*
X0206343Y0214713D01*
X0206354Y0214776D01*
X0206369Y0214838D01*
X0206388Y0214900D01*
X0206410Y0214960D01*
X0206436Y0215019D01*
X0206466Y0215076D01*
X0206498Y0215131D01*
X0206534Y0215184D01*
X0206573Y0215235D01*
X0206615Y0215284D01*
X0206660Y0215330D01*
X0206707Y0215373D01*
X0206757Y0215414D01*
X0206809Y0215451D01*
X0206863Y0215486D01*
X0206919Y0215516D01*
X0206977Y0215544D01*
X0207037Y0215568D01*
X0207098Y0215589D01*
X0207160Y0215606D01*
X0207222Y0215619D01*
X0207286Y0215628D01*
X0207350Y0215634D01*
X0207414Y0215636D01*
X0082582Y0187181D02*
X0082584Y0187215D01*
X0082590Y0187249D01*
X0082600Y0187282D01*
X0082613Y0187313D01*
X0082631Y0187343D01*
X0082651Y0187371D01*
X0082675Y0187396D01*
X0082701Y0187418D01*
X0082729Y0187436D01*
X0082760Y0187452D01*
X0082792Y0187464D01*
X0082826Y0187472D01*
X0082860Y0187476D01*
X0082894Y0187476D01*
X0082928Y0187472D01*
X0082962Y0187464D01*
X0082994Y0187452D01*
X0083024Y0187436D01*
X0083053Y0187418D01*
X0083079Y0187396D01*
X0083103Y0187371D01*
X0083123Y0187343D01*
X0083141Y0187313D01*
X0083154Y0187282D01*
X0083164Y0187249D01*
X0083170Y0187215D01*
X0083172Y0187181D01*
X0083170Y0187147D01*
X0083164Y0187113D01*
X0083154Y0187080D01*
X0083141Y0187049D01*
X0083123Y0187019D01*
X0083103Y0186991D01*
X0083079Y0186966D01*
X0083053Y0186944D01*
X0083025Y0186926D01*
X0082994Y0186910D01*
X0082962Y0186898D01*
X0082928Y0186890D01*
X0082894Y0186886D01*
X0082860Y0186886D01*
X0082826Y0186890D01*
X0082792Y0186898D01*
X0082760Y0186910D01*
X0082729Y0186926D01*
X0082701Y0186944D01*
X0082675Y0186966D01*
X0082651Y0186991D01*
X0082631Y0187019D01*
X0082613Y0187049D01*
X0082600Y0187080D01*
X0082590Y0187113D01*
X0082584Y0187147D01*
X0082582Y0187181D01*
X0077168Y0186886D02*
X0077232Y0186884D01*
X0077296Y0186878D01*
X0077360Y0186869D01*
X0077422Y0186856D01*
X0077484Y0186839D01*
X0077545Y0186818D01*
X0077605Y0186794D01*
X0077663Y0186766D01*
X0077719Y0186736D01*
X0077773Y0186701D01*
X0077825Y0186664D01*
X0077875Y0186623D01*
X0077922Y0186580D01*
X0077967Y0186534D01*
X0078009Y0186485D01*
X0078048Y0186434D01*
X0078084Y0186381D01*
X0078116Y0186326D01*
X0078146Y0186269D01*
X0078172Y0186210D01*
X0078194Y0186150D01*
X0078213Y0186088D01*
X0078228Y0186026D01*
X0078239Y0185963D01*
X0078247Y0185899D01*
X0078251Y0185835D01*
X0078251Y0185771D01*
X0078247Y0185707D01*
X0078239Y0185643D01*
X0078228Y0185580D01*
X0078213Y0185518D01*
X0078194Y0185456D01*
X0078172Y0185396D01*
X0078146Y0185337D01*
X0078116Y0185280D01*
X0078084Y0185225D01*
X0078048Y0185172D01*
X0078009Y0185121D01*
X0077967Y0185072D01*
X0077922Y0185026D01*
X0077875Y0184983D01*
X0077825Y0184942D01*
X0077773Y0184905D01*
X0077719Y0184870D01*
X0077663Y0184840D01*
X0077605Y0184812D01*
X0077545Y0184788D01*
X0077484Y0184767D01*
X0077422Y0184750D01*
X0077360Y0184737D01*
X0077296Y0184728D01*
X0077232Y0184722D01*
X0077168Y0184720D01*
D25*
X0083467Y0187181D03*
X0201115Y0213175D03*
D26*
X0201902Y0213569D03*
X0082680Y0186787D03*
D27*
X0082532Y0187476D03*
X0202050Y0212880D03*
D28*
X0201410Y0215931D03*
X0083172Y0184425D03*
D29*
X0082237Y0185803D03*
X0202345Y0214553D03*
D30*
X0206528Y0213175D03*
X0206528Y0215931D03*
X0078054Y0187181D03*
X0078054Y0184425D03*
D31*
X0078595Y0185803D03*
X0205987Y0214553D03*
D32*
X0206528Y0213667D03*
X0206528Y0215439D03*
X0078054Y0186689D03*
X0078054Y0184917D03*
D33*
X0066666Y0177772D03*
D34*
X0066666Y0181512D03*
X0066666Y0170094D03*
M02*
