G75*
%MOIN*%
%OFA0B0*%
%FSLAX25Y25*%
%IPPOS*%
%LPD*%
%AMOC8*
5,1,8,0,0,1.08239X$1,22.5*
%
%ADD10C,0.00900*%
%ADD11C,0.01100*%
%ADD12C,0.00600*%
%ADD13C,0.03200*%
%ADD14C,0.01200*%
%ADD15R,0.02500X0.09000*%
%ADD16C,0.01000*%
%ADD17C,0.00500*%
%ADD18C,0.02000*%
%ADD19R,0.01000X0.02000*%
%ADD20R,0.02500X0.15000*%
%ADD21R,0.01197X0.02000*%
%ADD22R,0.05000X0.20000*%
%ADD23R,0.02000X0.01000*%
%ADD24C,0.00400*%
%ADD25C,0.00200*%
%ADD26R,0.00591X0.00787*%
%ADD27R,0.00197X0.00197*%
%ADD28R,0.01476X0.00197*%
%ADD29R,0.01181X0.00787*%
%ADD30R,0.00886X0.03543*%
%ADD31R,0.01969X0.00787*%
%ADD32R,0.00886X0.02165*%
%ADD33R,0.00394X0.00394*%
%ADD34R,0.01181X0.06299*%
%ADD35R,0.02362X0.03543*%
D10*
X0090305Y0111771D02*
X0092027Y0111771D01*
X0092078Y0111773D01*
X0092130Y0111779D01*
X0092180Y0111788D01*
X0092230Y0111802D01*
X0092279Y0111819D01*
X0092326Y0111839D01*
X0092372Y0111863D01*
X0092415Y0111891D01*
X0092457Y0111921D01*
X0092496Y0111955D01*
X0092532Y0111991D01*
X0092566Y0112030D01*
X0092596Y0112072D01*
X0092624Y0112116D01*
X0092648Y0112161D01*
X0092668Y0112208D01*
X0092685Y0112257D01*
X0092699Y0112307D01*
X0092708Y0112357D01*
X0092714Y0112409D01*
X0092716Y0112460D01*
X0092716Y0113149D01*
X0092716Y0114911D02*
X0089616Y0114911D01*
X0092716Y0116633D01*
X0089616Y0116633D01*
X0090994Y0118631D02*
X0091855Y0118631D01*
X0091913Y0118633D01*
X0091970Y0118639D01*
X0092026Y0118648D01*
X0092082Y0118662D01*
X0092137Y0118679D01*
X0092191Y0118699D01*
X0092243Y0118724D01*
X0092294Y0118751D01*
X0092342Y0118782D01*
X0092389Y0118816D01*
X0092433Y0118853D01*
X0092474Y0118893D01*
X0092513Y0118936D01*
X0092548Y0118981D01*
X0092581Y0119029D01*
X0092610Y0119078D01*
X0092636Y0119130D01*
X0092658Y0119183D01*
X0092677Y0119237D01*
X0092693Y0119292D01*
X0092704Y0119349D01*
X0092712Y0119406D01*
X0092716Y0119463D01*
X0092716Y0119521D01*
X0092712Y0119578D01*
X0092704Y0119635D01*
X0092693Y0119692D01*
X0092677Y0119747D01*
X0092658Y0119801D01*
X0092636Y0119854D01*
X0092610Y0119906D01*
X0092581Y0119955D01*
X0092548Y0120003D01*
X0092513Y0120048D01*
X0092474Y0120091D01*
X0092433Y0120131D01*
X0092389Y0120168D01*
X0092342Y0120202D01*
X0092294Y0120233D01*
X0092243Y0120260D01*
X0092191Y0120285D01*
X0092137Y0120305D01*
X0092082Y0120322D01*
X0092026Y0120336D01*
X0091970Y0120345D01*
X0091913Y0120351D01*
X0091855Y0120353D01*
X0091683Y0120353D01*
X0091632Y0120351D01*
X0091580Y0120345D01*
X0091530Y0120336D01*
X0091480Y0120322D01*
X0091431Y0120305D01*
X0091384Y0120285D01*
X0091339Y0120261D01*
X0091295Y0120233D01*
X0091253Y0120203D01*
X0091214Y0120169D01*
X0091178Y0120133D01*
X0091144Y0120094D01*
X0091114Y0120052D01*
X0091086Y0120009D01*
X0091062Y0119963D01*
X0091042Y0119916D01*
X0091025Y0119867D01*
X0091011Y0119817D01*
X0091002Y0119767D01*
X0090996Y0119715D01*
X0090994Y0119664D01*
X0090994Y0118631D01*
X0090922Y0118633D01*
X0090850Y0118639D01*
X0090778Y0118648D01*
X0090707Y0118661D01*
X0090637Y0118678D01*
X0090568Y0118698D01*
X0090500Y0118723D01*
X0090434Y0118750D01*
X0090368Y0118781D01*
X0090305Y0118816D01*
X0090243Y0118853D01*
X0090184Y0118894D01*
X0090127Y0118938D01*
X0090072Y0118985D01*
X0090020Y0119035D01*
X0089970Y0119087D01*
X0089923Y0119142D01*
X0089879Y0119199D01*
X0089838Y0119258D01*
X0089801Y0119320D01*
X0089766Y0119383D01*
X0089735Y0119449D01*
X0089708Y0119515D01*
X0089683Y0119583D01*
X0089663Y0119652D01*
X0089646Y0119722D01*
X0089633Y0119793D01*
X0089624Y0119865D01*
X0089618Y0119937D01*
X0089616Y0120009D01*
X0089616Y0113149D02*
X0089616Y0112460D01*
X0089618Y0112408D01*
X0089624Y0112357D01*
X0089633Y0112307D01*
X0089647Y0112257D01*
X0089664Y0112208D01*
X0089684Y0112161D01*
X0089708Y0112115D01*
X0089736Y0112072D01*
X0089766Y0112030D01*
X0089800Y0111991D01*
X0089836Y0111955D01*
X0089875Y0111921D01*
X0089917Y0111891D01*
X0089961Y0111863D01*
X0090006Y0111839D01*
X0090053Y0111819D01*
X0090102Y0111802D01*
X0090152Y0111788D01*
X0090202Y0111779D01*
X0090254Y0111773D01*
X0090305Y0111771D01*
X0090305Y0131771D02*
X0092027Y0131771D01*
X0092078Y0131773D01*
X0092130Y0131779D01*
X0092180Y0131788D01*
X0092230Y0131802D01*
X0092279Y0131819D01*
X0092326Y0131839D01*
X0092372Y0131863D01*
X0092415Y0131891D01*
X0092457Y0131921D01*
X0092496Y0131955D01*
X0092532Y0131991D01*
X0092566Y0132030D01*
X0092596Y0132072D01*
X0092624Y0132116D01*
X0092648Y0132161D01*
X0092668Y0132208D01*
X0092685Y0132257D01*
X0092699Y0132307D01*
X0092708Y0132357D01*
X0092714Y0132409D01*
X0092716Y0132460D01*
X0092716Y0133149D01*
X0092716Y0134911D02*
X0089616Y0134911D01*
X0092716Y0136633D01*
X0089616Y0136633D01*
X0089616Y0138631D02*
X0089616Y0140353D01*
X0090994Y0139664D02*
X0090994Y0138631D01*
X0089616Y0138631D01*
X0090994Y0139664D02*
X0090996Y0139716D01*
X0091002Y0139767D01*
X0091011Y0139817D01*
X0091025Y0139867D01*
X0091042Y0139916D01*
X0091062Y0139963D01*
X0091086Y0140009D01*
X0091114Y0140052D01*
X0091144Y0140094D01*
X0091178Y0140133D01*
X0091214Y0140169D01*
X0091253Y0140203D01*
X0091295Y0140233D01*
X0091339Y0140261D01*
X0091384Y0140285D01*
X0091431Y0140305D01*
X0091480Y0140322D01*
X0091530Y0140336D01*
X0091580Y0140345D01*
X0091632Y0140351D01*
X0091683Y0140353D01*
X0092027Y0140353D01*
X0092078Y0140351D01*
X0092130Y0140345D01*
X0092180Y0140336D01*
X0092230Y0140322D01*
X0092279Y0140305D01*
X0092326Y0140285D01*
X0092372Y0140261D01*
X0092415Y0140233D01*
X0092457Y0140203D01*
X0092496Y0140169D01*
X0092532Y0140133D01*
X0092566Y0140094D01*
X0092596Y0140052D01*
X0092624Y0140009D01*
X0092648Y0139963D01*
X0092668Y0139916D01*
X0092685Y0139867D01*
X0092699Y0139817D01*
X0092708Y0139767D01*
X0092714Y0139715D01*
X0092716Y0139664D01*
X0092716Y0138631D01*
X0089616Y0133149D02*
X0089616Y0132460D01*
X0089618Y0132408D01*
X0089624Y0132357D01*
X0089633Y0132307D01*
X0089647Y0132257D01*
X0089664Y0132208D01*
X0089684Y0132161D01*
X0089708Y0132115D01*
X0089736Y0132072D01*
X0089766Y0132030D01*
X0089800Y0131991D01*
X0089836Y0131955D01*
X0089875Y0131921D01*
X0089917Y0131891D01*
X0089961Y0131863D01*
X0090006Y0131839D01*
X0090053Y0131819D01*
X0090102Y0131802D01*
X0090152Y0131788D01*
X0090202Y0131779D01*
X0090254Y0131773D01*
X0090305Y0131771D01*
X0097116Y0156253D02*
X0097116Y0159353D01*
X0097977Y0159353D01*
X0098028Y0159351D01*
X0098080Y0159345D01*
X0098130Y0159336D01*
X0098180Y0159322D01*
X0098229Y0159305D01*
X0098276Y0159285D01*
X0098322Y0159261D01*
X0098365Y0159233D01*
X0098407Y0159203D01*
X0098446Y0159169D01*
X0098482Y0159133D01*
X0098516Y0159094D01*
X0098546Y0159052D01*
X0098574Y0159009D01*
X0098598Y0158963D01*
X0098618Y0158916D01*
X0098635Y0158867D01*
X0098649Y0158817D01*
X0098658Y0158767D01*
X0098664Y0158715D01*
X0098666Y0158664D01*
X0098664Y0158613D01*
X0098658Y0158561D01*
X0098649Y0158511D01*
X0098635Y0158461D01*
X0098618Y0158412D01*
X0098598Y0158365D01*
X0098574Y0158320D01*
X0098546Y0158276D01*
X0098516Y0158234D01*
X0098482Y0158195D01*
X0098446Y0158159D01*
X0098407Y0158125D01*
X0098365Y0158095D01*
X0098322Y0158067D01*
X0098276Y0158043D01*
X0098229Y0158023D01*
X0098180Y0158006D01*
X0098130Y0157992D01*
X0098080Y0157983D01*
X0098028Y0157977D01*
X0097977Y0157975D01*
X0097116Y0157975D01*
X0097977Y0157975D02*
X0098035Y0157973D01*
X0098092Y0157967D01*
X0098148Y0157958D01*
X0098204Y0157944D01*
X0098259Y0157927D01*
X0098313Y0157907D01*
X0098365Y0157882D01*
X0098416Y0157855D01*
X0098464Y0157824D01*
X0098511Y0157790D01*
X0098555Y0157753D01*
X0098596Y0157713D01*
X0098635Y0157670D01*
X0098670Y0157625D01*
X0098703Y0157577D01*
X0098732Y0157528D01*
X0098758Y0157476D01*
X0098780Y0157423D01*
X0098799Y0157369D01*
X0098815Y0157314D01*
X0098826Y0157257D01*
X0098834Y0157200D01*
X0098838Y0157143D01*
X0098838Y0157085D01*
X0098834Y0157028D01*
X0098826Y0156971D01*
X0098815Y0156914D01*
X0098799Y0156859D01*
X0098780Y0156805D01*
X0098758Y0156752D01*
X0098732Y0156700D01*
X0098703Y0156651D01*
X0098670Y0156603D01*
X0098635Y0156558D01*
X0098596Y0156515D01*
X0098555Y0156475D01*
X0098511Y0156438D01*
X0098464Y0156404D01*
X0098416Y0156373D01*
X0098365Y0156346D01*
X0098313Y0156321D01*
X0098259Y0156301D01*
X0098204Y0156284D01*
X0098148Y0156270D01*
X0098092Y0156261D01*
X0098035Y0156255D01*
X0097977Y0156253D01*
X0097116Y0156253D01*
X0100426Y0156942D02*
X0100426Y0157631D01*
X0100428Y0157682D01*
X0100434Y0157734D01*
X0100443Y0157784D01*
X0100457Y0157834D01*
X0100474Y0157883D01*
X0100494Y0157930D01*
X0100518Y0157976D01*
X0100546Y0158019D01*
X0100576Y0158061D01*
X0100610Y0158100D01*
X0100646Y0158136D01*
X0100685Y0158170D01*
X0100727Y0158200D01*
X0100771Y0158228D01*
X0100816Y0158252D01*
X0100863Y0158272D01*
X0100912Y0158289D01*
X0100962Y0158303D01*
X0101012Y0158312D01*
X0101064Y0158318D01*
X0101115Y0158320D01*
X0101166Y0158318D01*
X0101218Y0158312D01*
X0101268Y0158303D01*
X0101318Y0158289D01*
X0101367Y0158272D01*
X0101414Y0158252D01*
X0101460Y0158228D01*
X0101503Y0158200D01*
X0101545Y0158170D01*
X0101584Y0158136D01*
X0101620Y0158100D01*
X0101654Y0158061D01*
X0101684Y0158019D01*
X0101712Y0157976D01*
X0101736Y0157930D01*
X0101756Y0157883D01*
X0101773Y0157834D01*
X0101787Y0157784D01*
X0101796Y0157734D01*
X0101802Y0157682D01*
X0101804Y0157631D01*
X0101804Y0156942D01*
X0101802Y0156891D01*
X0101796Y0156839D01*
X0101787Y0156789D01*
X0101773Y0156739D01*
X0101756Y0156690D01*
X0101736Y0156643D01*
X0101712Y0156598D01*
X0101684Y0156554D01*
X0101654Y0156512D01*
X0101620Y0156473D01*
X0101584Y0156437D01*
X0101545Y0156403D01*
X0101503Y0156373D01*
X0101460Y0156345D01*
X0101414Y0156321D01*
X0101367Y0156301D01*
X0101318Y0156284D01*
X0101268Y0156270D01*
X0101218Y0156261D01*
X0101166Y0156255D01*
X0101115Y0156253D01*
X0101064Y0156255D01*
X0101012Y0156261D01*
X0100962Y0156270D01*
X0100912Y0156284D01*
X0100863Y0156301D01*
X0100816Y0156321D01*
X0100771Y0156345D01*
X0100727Y0156373D01*
X0100685Y0156403D01*
X0100646Y0156437D01*
X0100610Y0156473D01*
X0100576Y0156512D01*
X0100546Y0156554D01*
X0100518Y0156598D01*
X0100494Y0156643D01*
X0100474Y0156690D01*
X0100457Y0156739D01*
X0100443Y0156789D01*
X0100434Y0156839D01*
X0100428Y0156891D01*
X0100426Y0156942D01*
X0103183Y0158320D02*
X0104217Y0158320D01*
X0103528Y0159353D02*
X0103528Y0156770D01*
X0103527Y0156770D02*
X0103529Y0156727D01*
X0103534Y0156685D01*
X0103543Y0156643D01*
X0103555Y0156602D01*
X0103571Y0156562D01*
X0103589Y0156524D01*
X0103611Y0156487D01*
X0103636Y0156452D01*
X0103664Y0156420D01*
X0103694Y0156390D01*
X0103726Y0156362D01*
X0103761Y0156337D01*
X0103798Y0156315D01*
X0103836Y0156297D01*
X0103876Y0156281D01*
X0103917Y0156269D01*
X0103959Y0156260D01*
X0104001Y0156255D01*
X0104044Y0156253D01*
X0104217Y0156253D01*
X0105808Y0156770D02*
X0105808Y0159353D01*
X0105463Y0158320D02*
X0106497Y0158320D01*
X0105807Y0156770D02*
X0105809Y0156727D01*
X0105814Y0156685D01*
X0105823Y0156643D01*
X0105835Y0156602D01*
X0105851Y0156562D01*
X0105869Y0156524D01*
X0105891Y0156487D01*
X0105916Y0156452D01*
X0105944Y0156420D01*
X0105974Y0156390D01*
X0106006Y0156362D01*
X0106041Y0156337D01*
X0106078Y0156315D01*
X0106116Y0156297D01*
X0106156Y0156281D01*
X0106197Y0156269D01*
X0106239Y0156260D01*
X0106281Y0156255D01*
X0106324Y0156253D01*
X0106497Y0156253D01*
X0108106Y0156942D02*
X0108106Y0157631D01*
X0108108Y0157682D01*
X0108114Y0157734D01*
X0108123Y0157784D01*
X0108137Y0157834D01*
X0108154Y0157883D01*
X0108174Y0157930D01*
X0108198Y0157976D01*
X0108226Y0158019D01*
X0108256Y0158061D01*
X0108290Y0158100D01*
X0108326Y0158136D01*
X0108365Y0158170D01*
X0108407Y0158200D01*
X0108451Y0158228D01*
X0108496Y0158252D01*
X0108543Y0158272D01*
X0108592Y0158289D01*
X0108642Y0158303D01*
X0108692Y0158312D01*
X0108744Y0158318D01*
X0108795Y0158320D01*
X0108846Y0158318D01*
X0108898Y0158312D01*
X0108948Y0158303D01*
X0108998Y0158289D01*
X0109047Y0158272D01*
X0109094Y0158252D01*
X0109140Y0158228D01*
X0109183Y0158200D01*
X0109225Y0158170D01*
X0109264Y0158136D01*
X0109300Y0158100D01*
X0109334Y0158061D01*
X0109364Y0158019D01*
X0109392Y0157976D01*
X0109416Y0157930D01*
X0109436Y0157883D01*
X0109453Y0157834D01*
X0109467Y0157784D01*
X0109476Y0157734D01*
X0109482Y0157682D01*
X0109484Y0157631D01*
X0109484Y0156942D01*
X0109482Y0156891D01*
X0109476Y0156839D01*
X0109467Y0156789D01*
X0109453Y0156739D01*
X0109436Y0156690D01*
X0109416Y0156643D01*
X0109392Y0156598D01*
X0109364Y0156554D01*
X0109334Y0156512D01*
X0109300Y0156473D01*
X0109264Y0156437D01*
X0109225Y0156403D01*
X0109183Y0156373D01*
X0109140Y0156345D01*
X0109094Y0156321D01*
X0109047Y0156301D01*
X0108998Y0156284D01*
X0108948Y0156270D01*
X0108898Y0156261D01*
X0108846Y0156255D01*
X0108795Y0156253D01*
X0108744Y0156255D01*
X0108692Y0156261D01*
X0108642Y0156270D01*
X0108592Y0156284D01*
X0108543Y0156301D01*
X0108496Y0156321D01*
X0108451Y0156345D01*
X0108407Y0156373D01*
X0108365Y0156403D01*
X0108326Y0156437D01*
X0108290Y0156473D01*
X0108256Y0156512D01*
X0108226Y0156554D01*
X0108198Y0156598D01*
X0108174Y0156643D01*
X0108154Y0156690D01*
X0108137Y0156739D01*
X0108123Y0156789D01*
X0108114Y0156839D01*
X0108108Y0156891D01*
X0108106Y0156942D01*
X0111482Y0156253D02*
X0111482Y0158320D01*
X0113032Y0158320D01*
X0112515Y0158320D02*
X0112515Y0156253D01*
X0113549Y0156253D02*
X0113549Y0157803D01*
X0113547Y0157846D01*
X0113542Y0157888D01*
X0113533Y0157930D01*
X0113521Y0157971D01*
X0113505Y0158011D01*
X0113487Y0158049D01*
X0113465Y0158086D01*
X0113440Y0158121D01*
X0113412Y0158153D01*
X0113382Y0158183D01*
X0113350Y0158211D01*
X0113315Y0158236D01*
X0113278Y0158258D01*
X0113240Y0158276D01*
X0113200Y0158292D01*
X0113159Y0158304D01*
X0113117Y0158313D01*
X0113075Y0158318D01*
X0113032Y0158320D01*
X0137116Y0151853D02*
X0137116Y0148753D01*
X0137977Y0148753D01*
X0138035Y0148755D01*
X0138092Y0148761D01*
X0138148Y0148770D01*
X0138204Y0148784D01*
X0138259Y0148801D01*
X0138313Y0148821D01*
X0138365Y0148846D01*
X0138416Y0148873D01*
X0138464Y0148904D01*
X0138511Y0148938D01*
X0138555Y0148975D01*
X0138596Y0149015D01*
X0138635Y0149058D01*
X0138670Y0149103D01*
X0138703Y0149151D01*
X0138732Y0149200D01*
X0138758Y0149252D01*
X0138780Y0149305D01*
X0138799Y0149359D01*
X0138815Y0149414D01*
X0138826Y0149471D01*
X0138834Y0149528D01*
X0138838Y0149585D01*
X0138838Y0149643D01*
X0138834Y0149700D01*
X0138826Y0149757D01*
X0138815Y0149814D01*
X0138799Y0149869D01*
X0138780Y0149923D01*
X0138758Y0149976D01*
X0138732Y0150028D01*
X0138703Y0150077D01*
X0138670Y0150125D01*
X0138635Y0150170D01*
X0138596Y0150213D01*
X0138555Y0150253D01*
X0138511Y0150290D01*
X0138464Y0150324D01*
X0138416Y0150355D01*
X0138365Y0150382D01*
X0138313Y0150407D01*
X0138259Y0150427D01*
X0138204Y0150444D01*
X0138148Y0150458D01*
X0138092Y0150467D01*
X0138035Y0150473D01*
X0137977Y0150475D01*
X0137116Y0150475D01*
X0137977Y0150475D02*
X0138028Y0150477D01*
X0138080Y0150483D01*
X0138130Y0150492D01*
X0138180Y0150506D01*
X0138229Y0150523D01*
X0138276Y0150543D01*
X0138322Y0150567D01*
X0138365Y0150595D01*
X0138407Y0150625D01*
X0138446Y0150659D01*
X0138482Y0150695D01*
X0138516Y0150734D01*
X0138546Y0150776D01*
X0138574Y0150820D01*
X0138598Y0150865D01*
X0138618Y0150912D01*
X0138635Y0150961D01*
X0138649Y0151011D01*
X0138658Y0151061D01*
X0138664Y0151113D01*
X0138666Y0151164D01*
X0138664Y0151215D01*
X0138658Y0151267D01*
X0138649Y0151317D01*
X0138635Y0151367D01*
X0138618Y0151416D01*
X0138598Y0151463D01*
X0138574Y0151509D01*
X0138546Y0151552D01*
X0138516Y0151594D01*
X0138482Y0151633D01*
X0138446Y0151669D01*
X0138407Y0151703D01*
X0138365Y0151733D01*
X0138322Y0151761D01*
X0138276Y0151785D01*
X0138229Y0151805D01*
X0138180Y0151822D01*
X0138130Y0151836D01*
X0138080Y0151845D01*
X0138028Y0151851D01*
X0137977Y0151853D01*
X0137116Y0151853D01*
X0140426Y0150131D02*
X0140426Y0149442D01*
X0140428Y0149391D01*
X0140434Y0149339D01*
X0140443Y0149289D01*
X0140457Y0149239D01*
X0140474Y0149190D01*
X0140494Y0149143D01*
X0140518Y0149098D01*
X0140546Y0149054D01*
X0140576Y0149012D01*
X0140610Y0148973D01*
X0140646Y0148937D01*
X0140685Y0148903D01*
X0140727Y0148873D01*
X0140771Y0148845D01*
X0140816Y0148821D01*
X0140863Y0148801D01*
X0140912Y0148784D01*
X0140962Y0148770D01*
X0141012Y0148761D01*
X0141064Y0148755D01*
X0141115Y0148753D01*
X0141166Y0148755D01*
X0141218Y0148761D01*
X0141268Y0148770D01*
X0141318Y0148784D01*
X0141367Y0148801D01*
X0141414Y0148821D01*
X0141460Y0148845D01*
X0141503Y0148873D01*
X0141545Y0148903D01*
X0141584Y0148937D01*
X0141620Y0148973D01*
X0141654Y0149012D01*
X0141684Y0149054D01*
X0141712Y0149098D01*
X0141736Y0149143D01*
X0141756Y0149190D01*
X0141773Y0149239D01*
X0141787Y0149289D01*
X0141796Y0149339D01*
X0141802Y0149391D01*
X0141804Y0149442D01*
X0141804Y0150131D01*
X0141802Y0150182D01*
X0141796Y0150234D01*
X0141787Y0150284D01*
X0141773Y0150334D01*
X0141756Y0150383D01*
X0141736Y0150430D01*
X0141712Y0150476D01*
X0141684Y0150519D01*
X0141654Y0150561D01*
X0141620Y0150600D01*
X0141584Y0150636D01*
X0141545Y0150670D01*
X0141503Y0150700D01*
X0141460Y0150728D01*
X0141414Y0150752D01*
X0141367Y0150772D01*
X0141318Y0150789D01*
X0141268Y0150803D01*
X0141218Y0150812D01*
X0141166Y0150818D01*
X0141115Y0150820D01*
X0141064Y0150818D01*
X0141012Y0150812D01*
X0140962Y0150803D01*
X0140912Y0150789D01*
X0140863Y0150772D01*
X0140816Y0150752D01*
X0140771Y0150728D01*
X0140727Y0150700D01*
X0140685Y0150670D01*
X0140646Y0150636D01*
X0140610Y0150600D01*
X0140576Y0150561D01*
X0140546Y0150519D01*
X0140518Y0150476D01*
X0140494Y0150430D01*
X0140474Y0150383D01*
X0140457Y0150334D01*
X0140443Y0150284D01*
X0140434Y0150234D01*
X0140428Y0150182D01*
X0140426Y0150131D01*
X0143183Y0150820D02*
X0144217Y0150820D01*
X0143528Y0151853D02*
X0143528Y0149270D01*
X0143527Y0149270D02*
X0143529Y0149227D01*
X0143534Y0149185D01*
X0143543Y0149143D01*
X0143555Y0149102D01*
X0143571Y0149062D01*
X0143589Y0149024D01*
X0143611Y0148987D01*
X0143636Y0148952D01*
X0143664Y0148920D01*
X0143694Y0148890D01*
X0143726Y0148862D01*
X0143761Y0148837D01*
X0143798Y0148815D01*
X0143836Y0148797D01*
X0143876Y0148781D01*
X0143917Y0148769D01*
X0143959Y0148760D01*
X0144001Y0148755D01*
X0144044Y0148753D01*
X0144217Y0148753D01*
X0145808Y0149270D02*
X0145808Y0151853D01*
X0145463Y0150820D02*
X0146497Y0150820D01*
X0145807Y0149270D02*
X0145809Y0149227D01*
X0145814Y0149185D01*
X0145823Y0149143D01*
X0145835Y0149102D01*
X0145851Y0149062D01*
X0145869Y0149024D01*
X0145891Y0148987D01*
X0145916Y0148952D01*
X0145944Y0148920D01*
X0145974Y0148890D01*
X0146006Y0148862D01*
X0146041Y0148837D01*
X0146078Y0148815D01*
X0146116Y0148797D01*
X0146156Y0148781D01*
X0146197Y0148769D01*
X0146239Y0148760D01*
X0146281Y0148755D01*
X0146324Y0148753D01*
X0146497Y0148753D01*
X0148106Y0149442D02*
X0148106Y0150131D01*
X0148108Y0150182D01*
X0148114Y0150234D01*
X0148123Y0150284D01*
X0148137Y0150334D01*
X0148154Y0150383D01*
X0148174Y0150430D01*
X0148198Y0150476D01*
X0148226Y0150519D01*
X0148256Y0150561D01*
X0148290Y0150600D01*
X0148326Y0150636D01*
X0148365Y0150670D01*
X0148407Y0150700D01*
X0148451Y0150728D01*
X0148496Y0150752D01*
X0148543Y0150772D01*
X0148592Y0150789D01*
X0148642Y0150803D01*
X0148692Y0150812D01*
X0148744Y0150818D01*
X0148795Y0150820D01*
X0148846Y0150818D01*
X0148898Y0150812D01*
X0148948Y0150803D01*
X0148998Y0150789D01*
X0149047Y0150772D01*
X0149094Y0150752D01*
X0149140Y0150728D01*
X0149183Y0150700D01*
X0149225Y0150670D01*
X0149264Y0150636D01*
X0149300Y0150600D01*
X0149334Y0150561D01*
X0149364Y0150519D01*
X0149392Y0150476D01*
X0149416Y0150430D01*
X0149436Y0150383D01*
X0149453Y0150334D01*
X0149467Y0150284D01*
X0149476Y0150234D01*
X0149482Y0150182D01*
X0149484Y0150131D01*
X0149484Y0149442D01*
X0149482Y0149391D01*
X0149476Y0149339D01*
X0149467Y0149289D01*
X0149453Y0149239D01*
X0149436Y0149190D01*
X0149416Y0149143D01*
X0149392Y0149098D01*
X0149364Y0149054D01*
X0149334Y0149012D01*
X0149300Y0148973D01*
X0149264Y0148937D01*
X0149225Y0148903D01*
X0149183Y0148873D01*
X0149140Y0148845D01*
X0149094Y0148821D01*
X0149047Y0148801D01*
X0148998Y0148784D01*
X0148948Y0148770D01*
X0148898Y0148761D01*
X0148846Y0148755D01*
X0148795Y0148753D01*
X0148744Y0148755D01*
X0148692Y0148761D01*
X0148642Y0148770D01*
X0148592Y0148784D01*
X0148543Y0148801D01*
X0148496Y0148821D01*
X0148451Y0148845D01*
X0148407Y0148873D01*
X0148365Y0148903D01*
X0148326Y0148937D01*
X0148290Y0148973D01*
X0148256Y0149012D01*
X0148226Y0149054D01*
X0148198Y0149098D01*
X0148174Y0149143D01*
X0148154Y0149190D01*
X0148137Y0149239D01*
X0148123Y0149289D01*
X0148114Y0149339D01*
X0148108Y0149391D01*
X0148106Y0149442D01*
X0151482Y0148753D02*
X0151482Y0150820D01*
X0153032Y0150820D01*
X0152515Y0150820D02*
X0152515Y0148753D01*
X0153549Y0148753D02*
X0153549Y0150303D01*
X0153547Y0150346D01*
X0153542Y0150388D01*
X0153533Y0150430D01*
X0153521Y0150471D01*
X0153505Y0150511D01*
X0153487Y0150549D01*
X0153465Y0150586D01*
X0153440Y0150621D01*
X0153412Y0150653D01*
X0153382Y0150683D01*
X0153350Y0150711D01*
X0153315Y0150736D01*
X0153278Y0150758D01*
X0153240Y0150776D01*
X0153200Y0150792D01*
X0153159Y0150804D01*
X0153117Y0150813D01*
X0153075Y0150818D01*
X0153032Y0150820D01*
X0138716Y0187503D02*
X0135616Y0187503D01*
X0135616Y0188364D01*
X0135618Y0188420D01*
X0135623Y0188476D01*
X0135633Y0188532D01*
X0135645Y0188587D01*
X0135662Y0188641D01*
X0135682Y0188693D01*
X0135705Y0188745D01*
X0135731Y0188795D01*
X0135761Y0188842D01*
X0135794Y0188888D01*
X0135830Y0188932D01*
X0135868Y0188973D01*
X0135909Y0189011D01*
X0135953Y0189047D01*
X0135999Y0189080D01*
X0136047Y0189110D01*
X0136096Y0189136D01*
X0136148Y0189159D01*
X0136200Y0189179D01*
X0136254Y0189196D01*
X0136309Y0189208D01*
X0136365Y0189218D01*
X0136421Y0189223D01*
X0136477Y0189225D01*
X0137855Y0189225D01*
X0137911Y0189223D01*
X0137967Y0189218D01*
X0138023Y0189208D01*
X0138078Y0189196D01*
X0138132Y0189179D01*
X0138184Y0189159D01*
X0138236Y0189136D01*
X0138286Y0189110D01*
X0138333Y0189080D01*
X0138379Y0189047D01*
X0138423Y0189011D01*
X0138464Y0188973D01*
X0138502Y0188932D01*
X0138538Y0188888D01*
X0138571Y0188842D01*
X0138601Y0188795D01*
X0138627Y0188745D01*
X0138650Y0188693D01*
X0138670Y0188641D01*
X0138687Y0188587D01*
X0138699Y0188532D01*
X0138709Y0188476D01*
X0138714Y0188420D01*
X0138716Y0188364D01*
X0138716Y0187503D01*
X0138716Y0191223D02*
X0138716Y0192945D01*
X0138716Y0192084D02*
X0135616Y0192084D01*
X0136305Y0191223D01*
X0131091Y0204278D02*
X0131091Y0204622D01*
X0131089Y0204673D01*
X0131083Y0204725D01*
X0131074Y0204775D01*
X0131060Y0204825D01*
X0131043Y0204874D01*
X0131023Y0204921D01*
X0130999Y0204967D01*
X0130971Y0205010D01*
X0130941Y0205052D01*
X0130907Y0205091D01*
X0130871Y0205127D01*
X0130832Y0205161D01*
X0130790Y0205191D01*
X0130747Y0205219D01*
X0130701Y0205243D01*
X0130654Y0205263D01*
X0130605Y0205280D01*
X0130555Y0205294D01*
X0130505Y0205303D01*
X0130453Y0205309D01*
X0130402Y0205311D01*
X0127991Y0205311D01*
X0127991Y0207503D02*
X0127991Y0208364D01*
X0127993Y0208422D01*
X0127999Y0208479D01*
X0128008Y0208535D01*
X0128022Y0208591D01*
X0128039Y0208646D01*
X0128059Y0208700D01*
X0128084Y0208752D01*
X0128111Y0208803D01*
X0128142Y0208851D01*
X0128176Y0208898D01*
X0128213Y0208942D01*
X0128253Y0208983D01*
X0128296Y0209022D01*
X0128341Y0209057D01*
X0128389Y0209090D01*
X0128438Y0209119D01*
X0128490Y0209145D01*
X0128543Y0209167D01*
X0128597Y0209186D01*
X0128652Y0209202D01*
X0128709Y0209213D01*
X0128766Y0209221D01*
X0128823Y0209225D01*
X0128881Y0209225D01*
X0128938Y0209221D01*
X0128995Y0209213D01*
X0129052Y0209202D01*
X0129107Y0209186D01*
X0129161Y0209167D01*
X0129214Y0209145D01*
X0129266Y0209119D01*
X0129315Y0209090D01*
X0129363Y0209057D01*
X0129408Y0209022D01*
X0129451Y0208983D01*
X0129491Y0208942D01*
X0129528Y0208898D01*
X0129562Y0208851D01*
X0129593Y0208803D01*
X0129620Y0208752D01*
X0129645Y0208700D01*
X0129665Y0208646D01*
X0129682Y0208591D01*
X0129696Y0208535D01*
X0129705Y0208479D01*
X0129711Y0208422D01*
X0129713Y0208364D01*
X0129713Y0207503D01*
X0131091Y0207503D02*
X0127991Y0207503D01*
X0128680Y0210881D02*
X0127991Y0211742D01*
X0131091Y0211742D01*
X0131091Y0210881D02*
X0131091Y0212603D01*
X0118966Y0207617D02*
X0118966Y0206756D01*
X0118966Y0207617D02*
X0118964Y0207675D01*
X0118958Y0207732D01*
X0118949Y0207788D01*
X0118935Y0207844D01*
X0118918Y0207899D01*
X0118898Y0207953D01*
X0118873Y0208005D01*
X0118846Y0208056D01*
X0118815Y0208104D01*
X0118781Y0208151D01*
X0118744Y0208195D01*
X0118704Y0208236D01*
X0118661Y0208275D01*
X0118616Y0208310D01*
X0118568Y0208343D01*
X0118519Y0208372D01*
X0118467Y0208398D01*
X0118414Y0208420D01*
X0118360Y0208439D01*
X0118305Y0208455D01*
X0118248Y0208466D01*
X0118191Y0208474D01*
X0118134Y0208478D01*
X0118076Y0208478D01*
X0118019Y0208474D01*
X0117962Y0208466D01*
X0117905Y0208455D01*
X0117850Y0208439D01*
X0117796Y0208420D01*
X0117743Y0208398D01*
X0117691Y0208372D01*
X0117642Y0208343D01*
X0117594Y0208310D01*
X0117549Y0208275D01*
X0117506Y0208236D01*
X0117466Y0208195D01*
X0117429Y0208151D01*
X0117395Y0208104D01*
X0117364Y0208056D01*
X0117337Y0208005D01*
X0117312Y0207953D01*
X0117292Y0207899D01*
X0117275Y0207844D01*
X0117261Y0207788D01*
X0117252Y0207732D01*
X0117246Y0207675D01*
X0117244Y0207617D01*
X0117244Y0207789D02*
X0117244Y0207100D01*
X0117244Y0207789D02*
X0117242Y0207840D01*
X0117236Y0207892D01*
X0117227Y0207942D01*
X0117213Y0207992D01*
X0117196Y0208041D01*
X0117176Y0208088D01*
X0117152Y0208134D01*
X0117124Y0208177D01*
X0117094Y0208219D01*
X0117060Y0208258D01*
X0117024Y0208294D01*
X0116985Y0208328D01*
X0116943Y0208358D01*
X0116900Y0208386D01*
X0116854Y0208410D01*
X0116807Y0208430D01*
X0116758Y0208447D01*
X0116708Y0208461D01*
X0116658Y0208470D01*
X0116606Y0208476D01*
X0116555Y0208478D01*
X0116504Y0208476D01*
X0116452Y0208470D01*
X0116402Y0208461D01*
X0116352Y0208447D01*
X0116303Y0208430D01*
X0116256Y0208410D01*
X0116211Y0208386D01*
X0116167Y0208358D01*
X0116125Y0208328D01*
X0116086Y0208294D01*
X0116050Y0208258D01*
X0116016Y0208219D01*
X0115986Y0208177D01*
X0115958Y0208134D01*
X0115934Y0208088D01*
X0115914Y0208041D01*
X0115897Y0207992D01*
X0115883Y0207942D01*
X0115874Y0207892D01*
X0115868Y0207840D01*
X0115866Y0207789D01*
X0115866Y0206756D01*
X0115866Y0204758D02*
X0118966Y0204758D01*
X0115866Y0203036D01*
X0118966Y0203036D01*
X0118966Y0201274D02*
X0118966Y0200585D01*
X0118964Y0200534D01*
X0118958Y0200482D01*
X0118949Y0200432D01*
X0118935Y0200382D01*
X0118918Y0200333D01*
X0118898Y0200286D01*
X0118874Y0200241D01*
X0118846Y0200197D01*
X0118816Y0200155D01*
X0118782Y0200116D01*
X0118746Y0200080D01*
X0118707Y0200046D01*
X0118665Y0200016D01*
X0118622Y0199988D01*
X0118576Y0199964D01*
X0118529Y0199944D01*
X0118480Y0199927D01*
X0118430Y0199913D01*
X0118380Y0199904D01*
X0118328Y0199898D01*
X0118277Y0199896D01*
X0116555Y0199896D01*
X0116504Y0199898D01*
X0116452Y0199904D01*
X0116402Y0199913D01*
X0116352Y0199927D01*
X0116303Y0199944D01*
X0116256Y0199964D01*
X0116211Y0199988D01*
X0116167Y0200016D01*
X0116125Y0200046D01*
X0116086Y0200080D01*
X0116050Y0200116D01*
X0116016Y0200155D01*
X0115986Y0200197D01*
X0115958Y0200240D01*
X0115934Y0200286D01*
X0115914Y0200333D01*
X0115897Y0200382D01*
X0115883Y0200432D01*
X0115874Y0200482D01*
X0115868Y0200533D01*
X0115866Y0200585D01*
X0115866Y0201274D01*
X0087466Y0199172D02*
X0087466Y0197450D01*
X0087466Y0198311D02*
X0084366Y0198311D01*
X0085055Y0197450D01*
X0085227Y0195452D02*
X0086605Y0195452D01*
X0086661Y0195450D01*
X0086717Y0195445D01*
X0086773Y0195435D01*
X0086828Y0195423D01*
X0086882Y0195406D01*
X0086934Y0195386D01*
X0086986Y0195363D01*
X0087036Y0195337D01*
X0087083Y0195307D01*
X0087129Y0195274D01*
X0087173Y0195238D01*
X0087214Y0195200D01*
X0087252Y0195159D01*
X0087288Y0195115D01*
X0087321Y0195069D01*
X0087351Y0195022D01*
X0087377Y0194972D01*
X0087400Y0194920D01*
X0087420Y0194868D01*
X0087437Y0194814D01*
X0087449Y0194759D01*
X0087459Y0194703D01*
X0087464Y0194647D01*
X0087466Y0194591D01*
X0087466Y0193730D01*
X0084366Y0193730D01*
X0084366Y0194591D01*
X0084368Y0194647D01*
X0084373Y0194703D01*
X0084383Y0194759D01*
X0084395Y0194814D01*
X0084412Y0194868D01*
X0084432Y0194920D01*
X0084455Y0194972D01*
X0084481Y0195022D01*
X0084511Y0195069D01*
X0084544Y0195115D01*
X0084580Y0195159D01*
X0084618Y0195200D01*
X0084659Y0195238D01*
X0084703Y0195274D01*
X0084749Y0195307D01*
X0084797Y0195337D01*
X0084846Y0195363D01*
X0084898Y0195386D01*
X0084950Y0195406D01*
X0085004Y0195423D01*
X0085059Y0195435D01*
X0085115Y0195445D01*
X0085171Y0195450D01*
X0085227Y0195452D01*
X0084366Y0192001D02*
X0084366Y0190623D01*
X0087466Y0190623D01*
X0087466Y0192001D01*
X0085744Y0191656D02*
X0085744Y0190623D01*
X0087466Y0188881D02*
X0087466Y0187503D01*
X0084366Y0187503D01*
X0076697Y0190003D02*
X0075836Y0190003D01*
X0076697Y0190003D02*
X0076755Y0190005D01*
X0076812Y0190011D01*
X0076868Y0190020D01*
X0076924Y0190034D01*
X0076979Y0190051D01*
X0077033Y0190071D01*
X0077085Y0190096D01*
X0077136Y0190123D01*
X0077184Y0190154D01*
X0077231Y0190188D01*
X0077275Y0190225D01*
X0077316Y0190265D01*
X0077355Y0190308D01*
X0077390Y0190353D01*
X0077423Y0190401D01*
X0077452Y0190450D01*
X0077478Y0190502D01*
X0077500Y0190555D01*
X0077519Y0190609D01*
X0077535Y0190664D01*
X0077546Y0190721D01*
X0077554Y0190778D01*
X0077558Y0190835D01*
X0077558Y0190893D01*
X0077554Y0190950D01*
X0077546Y0191007D01*
X0077535Y0191064D01*
X0077519Y0191119D01*
X0077500Y0191173D01*
X0077478Y0191226D01*
X0077452Y0191278D01*
X0077423Y0191327D01*
X0077390Y0191375D01*
X0077355Y0191420D01*
X0077316Y0191463D01*
X0077275Y0191503D01*
X0077231Y0191540D01*
X0077184Y0191574D01*
X0077136Y0191605D01*
X0077085Y0191632D01*
X0077033Y0191657D01*
X0076979Y0191677D01*
X0076924Y0191694D01*
X0076868Y0191708D01*
X0076812Y0191717D01*
X0076755Y0191723D01*
X0076697Y0191725D01*
X0076869Y0191725D02*
X0076180Y0191725D01*
X0076869Y0191725D02*
X0076920Y0191727D01*
X0076972Y0191733D01*
X0077022Y0191742D01*
X0077072Y0191756D01*
X0077121Y0191773D01*
X0077168Y0191793D01*
X0077214Y0191817D01*
X0077257Y0191845D01*
X0077299Y0191875D01*
X0077338Y0191909D01*
X0077374Y0191945D01*
X0077408Y0191984D01*
X0077438Y0192026D01*
X0077466Y0192070D01*
X0077490Y0192115D01*
X0077510Y0192162D01*
X0077527Y0192211D01*
X0077541Y0192261D01*
X0077550Y0192311D01*
X0077556Y0192363D01*
X0077558Y0192414D01*
X0077556Y0192465D01*
X0077550Y0192517D01*
X0077541Y0192567D01*
X0077527Y0192617D01*
X0077510Y0192666D01*
X0077490Y0192713D01*
X0077466Y0192759D01*
X0077438Y0192802D01*
X0077408Y0192844D01*
X0077374Y0192883D01*
X0077338Y0192919D01*
X0077299Y0192953D01*
X0077257Y0192983D01*
X0077214Y0193011D01*
X0077168Y0193035D01*
X0077121Y0193055D01*
X0077072Y0193072D01*
X0077022Y0193086D01*
X0076972Y0193095D01*
X0076920Y0193101D01*
X0076869Y0193103D01*
X0075836Y0193103D01*
X0073838Y0192242D02*
X0073838Y0190864D01*
X0073836Y0190808D01*
X0073831Y0190752D01*
X0073821Y0190696D01*
X0073809Y0190641D01*
X0073792Y0190587D01*
X0073772Y0190535D01*
X0073749Y0190483D01*
X0073723Y0190434D01*
X0073693Y0190386D01*
X0073660Y0190340D01*
X0073624Y0190296D01*
X0073586Y0190255D01*
X0073545Y0190217D01*
X0073501Y0190181D01*
X0073455Y0190148D01*
X0073408Y0190118D01*
X0073358Y0190092D01*
X0073306Y0190069D01*
X0073254Y0190049D01*
X0073200Y0190032D01*
X0073145Y0190020D01*
X0073089Y0190010D01*
X0073033Y0190005D01*
X0072977Y0190003D01*
X0072116Y0190003D01*
X0072116Y0193103D01*
X0072977Y0193103D01*
X0073033Y0193101D01*
X0073089Y0193096D01*
X0073145Y0193086D01*
X0073200Y0193074D01*
X0073254Y0193057D01*
X0073306Y0193037D01*
X0073358Y0193014D01*
X0073408Y0192988D01*
X0073455Y0192958D01*
X0073501Y0192925D01*
X0073545Y0192889D01*
X0073586Y0192851D01*
X0073624Y0192810D01*
X0073660Y0192766D01*
X0073693Y0192720D01*
X0073723Y0192672D01*
X0073749Y0192623D01*
X0073772Y0192571D01*
X0073792Y0192519D01*
X0073809Y0192465D01*
X0073821Y0192410D01*
X0073831Y0192354D01*
X0073836Y0192298D01*
X0073838Y0192242D01*
X0068091Y0177335D02*
X0068091Y0175613D01*
X0068091Y0176474D02*
X0064991Y0176474D01*
X0065680Y0175613D01*
X0064991Y0173615D02*
X0068091Y0173615D01*
X0064991Y0171893D01*
X0068091Y0171893D01*
X0068091Y0170131D02*
X0068091Y0169442D01*
X0068089Y0169391D01*
X0068083Y0169339D01*
X0068074Y0169289D01*
X0068060Y0169239D01*
X0068043Y0169190D01*
X0068023Y0169143D01*
X0067999Y0169098D01*
X0067971Y0169054D01*
X0067941Y0169012D01*
X0067907Y0168973D01*
X0067871Y0168937D01*
X0067832Y0168903D01*
X0067790Y0168873D01*
X0067747Y0168845D01*
X0067701Y0168821D01*
X0067654Y0168801D01*
X0067605Y0168784D01*
X0067555Y0168770D01*
X0067505Y0168761D01*
X0067453Y0168755D01*
X0067402Y0168753D01*
X0065680Y0168753D01*
X0065629Y0168755D01*
X0065577Y0168761D01*
X0065527Y0168770D01*
X0065477Y0168784D01*
X0065428Y0168801D01*
X0065381Y0168821D01*
X0065336Y0168845D01*
X0065292Y0168873D01*
X0065250Y0168903D01*
X0065211Y0168937D01*
X0065175Y0168973D01*
X0065141Y0169012D01*
X0065111Y0169054D01*
X0065083Y0169097D01*
X0065059Y0169143D01*
X0065039Y0169190D01*
X0065022Y0169239D01*
X0065008Y0169289D01*
X0064999Y0169339D01*
X0064993Y0169390D01*
X0064991Y0169442D01*
X0064991Y0170131D01*
X0084991Y0210003D02*
X0084991Y0210864D01*
X0084991Y0210003D02*
X0088091Y0210003D01*
X0086713Y0210003D02*
X0086713Y0210864D01*
X0086713Y0211036D02*
X0088091Y0211725D01*
X0086713Y0210864D02*
X0086711Y0210922D01*
X0086705Y0210979D01*
X0086696Y0211035D01*
X0086682Y0211091D01*
X0086665Y0211146D01*
X0086645Y0211200D01*
X0086620Y0211252D01*
X0086593Y0211303D01*
X0086562Y0211351D01*
X0086528Y0211398D01*
X0086491Y0211442D01*
X0086451Y0211483D01*
X0086408Y0211522D01*
X0086363Y0211557D01*
X0086315Y0211590D01*
X0086266Y0211619D01*
X0086214Y0211645D01*
X0086161Y0211667D01*
X0086107Y0211686D01*
X0086052Y0211702D01*
X0085995Y0211713D01*
X0085938Y0211721D01*
X0085881Y0211725D01*
X0085823Y0211725D01*
X0085766Y0211721D01*
X0085709Y0211713D01*
X0085652Y0211702D01*
X0085597Y0211686D01*
X0085543Y0211667D01*
X0085490Y0211645D01*
X0085438Y0211619D01*
X0085389Y0211590D01*
X0085341Y0211557D01*
X0085296Y0211522D01*
X0085253Y0211483D01*
X0085213Y0211442D01*
X0085176Y0211398D01*
X0085142Y0211351D01*
X0085111Y0211303D01*
X0085084Y0211252D01*
X0085059Y0211200D01*
X0085039Y0211146D01*
X0085022Y0211091D01*
X0085008Y0211035D01*
X0084999Y0210979D01*
X0084993Y0210922D01*
X0084991Y0210864D01*
X0084991Y0213559D02*
X0084991Y0215281D01*
X0088091Y0214420D01*
X0085335Y0213559D02*
X0084991Y0213559D01*
X0150241Y0214442D02*
X0150241Y0216164D01*
X0150243Y0216215D01*
X0150249Y0216267D01*
X0150258Y0216317D01*
X0150272Y0216367D01*
X0150289Y0216416D01*
X0150309Y0216463D01*
X0150333Y0216508D01*
X0150361Y0216552D01*
X0150391Y0216594D01*
X0150425Y0216633D01*
X0150461Y0216669D01*
X0150500Y0216703D01*
X0150542Y0216733D01*
X0150585Y0216761D01*
X0150631Y0216785D01*
X0150678Y0216805D01*
X0150727Y0216822D01*
X0150777Y0216836D01*
X0150827Y0216845D01*
X0150878Y0216851D01*
X0150930Y0216853D01*
X0151619Y0216853D01*
X0153241Y0216164D02*
X0153241Y0214442D01*
X0153243Y0214391D01*
X0153249Y0214339D01*
X0153258Y0214289D01*
X0153272Y0214239D01*
X0153289Y0214190D01*
X0153309Y0214143D01*
X0153333Y0214098D01*
X0153361Y0214054D01*
X0153391Y0214012D01*
X0153425Y0213973D01*
X0153461Y0213937D01*
X0153500Y0213903D01*
X0153542Y0213873D01*
X0153586Y0213845D01*
X0153631Y0213821D01*
X0153678Y0213801D01*
X0153727Y0213784D01*
X0153777Y0213770D01*
X0153827Y0213761D01*
X0153879Y0213755D01*
X0153930Y0213753D01*
X0154619Y0213753D01*
X0156261Y0213753D02*
X0157983Y0213753D01*
X0157122Y0213753D02*
X0157122Y0216853D01*
X0156261Y0216164D01*
X0154619Y0216853D02*
X0153930Y0216853D01*
X0153878Y0216851D01*
X0153827Y0216845D01*
X0153777Y0216836D01*
X0153727Y0216822D01*
X0153678Y0216805D01*
X0153631Y0216785D01*
X0153585Y0216761D01*
X0153542Y0216733D01*
X0153500Y0216703D01*
X0153461Y0216669D01*
X0153425Y0216633D01*
X0153391Y0216594D01*
X0153361Y0216552D01*
X0153333Y0216508D01*
X0153309Y0216463D01*
X0153289Y0216416D01*
X0153272Y0216367D01*
X0153258Y0216317D01*
X0153249Y0216267D01*
X0153243Y0216215D01*
X0153241Y0216164D01*
X0150930Y0213753D02*
X0150879Y0213755D01*
X0150827Y0213761D01*
X0150777Y0213770D01*
X0150727Y0213784D01*
X0150678Y0213801D01*
X0150631Y0213821D01*
X0150586Y0213845D01*
X0150542Y0213873D01*
X0150500Y0213903D01*
X0150461Y0213937D01*
X0150425Y0213973D01*
X0150391Y0214012D01*
X0150361Y0214054D01*
X0150333Y0214098D01*
X0150309Y0214143D01*
X0150289Y0214190D01*
X0150272Y0214239D01*
X0150258Y0214289D01*
X0150249Y0214339D01*
X0150243Y0214391D01*
X0150241Y0214442D01*
X0150930Y0213753D02*
X0151619Y0213753D01*
X0153366Y0206992D02*
X0153366Y0205614D01*
X0153368Y0205556D01*
X0153374Y0205499D01*
X0153383Y0205443D01*
X0153397Y0205387D01*
X0153414Y0205332D01*
X0153434Y0205278D01*
X0153459Y0205226D01*
X0153486Y0205175D01*
X0153517Y0205127D01*
X0153551Y0205080D01*
X0153588Y0205036D01*
X0153628Y0204995D01*
X0153671Y0204956D01*
X0153716Y0204921D01*
X0153764Y0204888D01*
X0153813Y0204859D01*
X0153865Y0204833D01*
X0153918Y0204811D01*
X0153972Y0204792D01*
X0154027Y0204776D01*
X0154084Y0204765D01*
X0154141Y0204757D01*
X0154198Y0204753D01*
X0154256Y0204753D01*
X0154313Y0204757D01*
X0154370Y0204765D01*
X0154427Y0204776D01*
X0154482Y0204792D01*
X0154536Y0204811D01*
X0154589Y0204833D01*
X0154641Y0204859D01*
X0154690Y0204888D01*
X0154738Y0204921D01*
X0154783Y0204956D01*
X0154826Y0204995D01*
X0154866Y0205036D01*
X0154903Y0205080D01*
X0154937Y0205127D01*
X0154968Y0205175D01*
X0154995Y0205226D01*
X0155020Y0205278D01*
X0155040Y0205332D01*
X0155057Y0205387D01*
X0155071Y0205443D01*
X0155080Y0205499D01*
X0155086Y0205556D01*
X0155088Y0205614D01*
X0155088Y0206992D01*
X0155086Y0207050D01*
X0155080Y0207107D01*
X0155071Y0207163D01*
X0155057Y0207219D01*
X0155040Y0207274D01*
X0155020Y0207328D01*
X0154995Y0207380D01*
X0154968Y0207431D01*
X0154937Y0207479D01*
X0154903Y0207526D01*
X0154866Y0207570D01*
X0154826Y0207611D01*
X0154783Y0207650D01*
X0154738Y0207685D01*
X0154690Y0207718D01*
X0154641Y0207747D01*
X0154589Y0207773D01*
X0154536Y0207795D01*
X0154482Y0207814D01*
X0154427Y0207830D01*
X0154370Y0207841D01*
X0154313Y0207849D01*
X0154256Y0207853D01*
X0154198Y0207853D01*
X0154141Y0207849D01*
X0154084Y0207841D01*
X0154027Y0207830D01*
X0153972Y0207814D01*
X0153918Y0207795D01*
X0153865Y0207773D01*
X0153813Y0207747D01*
X0153764Y0207718D01*
X0153716Y0207685D01*
X0153671Y0207650D01*
X0153628Y0207611D01*
X0153588Y0207570D01*
X0153551Y0207526D01*
X0153517Y0207479D01*
X0153486Y0207431D01*
X0153459Y0207380D01*
X0153434Y0207328D01*
X0153414Y0207274D01*
X0153397Y0207219D01*
X0153383Y0207163D01*
X0153374Y0207107D01*
X0153368Y0207050D01*
X0153366Y0206992D01*
X0156778Y0206820D02*
X0157467Y0204753D01*
X0158156Y0206820D01*
X0159778Y0206131D02*
X0159778Y0205270D01*
X0159778Y0205786D02*
X0161156Y0205786D01*
X0161156Y0206131D01*
X0161154Y0206182D01*
X0161148Y0206234D01*
X0161139Y0206284D01*
X0161125Y0206334D01*
X0161108Y0206383D01*
X0161088Y0206430D01*
X0161064Y0206476D01*
X0161036Y0206519D01*
X0161006Y0206561D01*
X0160972Y0206600D01*
X0160936Y0206636D01*
X0160897Y0206670D01*
X0160855Y0206700D01*
X0160812Y0206728D01*
X0160766Y0206752D01*
X0160719Y0206772D01*
X0160670Y0206789D01*
X0160620Y0206803D01*
X0160570Y0206812D01*
X0160518Y0206818D01*
X0160467Y0206820D01*
X0160416Y0206818D01*
X0160364Y0206812D01*
X0160314Y0206803D01*
X0160264Y0206789D01*
X0160215Y0206772D01*
X0160168Y0206752D01*
X0160123Y0206728D01*
X0160079Y0206700D01*
X0160037Y0206670D01*
X0159998Y0206636D01*
X0159962Y0206600D01*
X0159928Y0206561D01*
X0159898Y0206519D01*
X0159870Y0206476D01*
X0159846Y0206430D01*
X0159826Y0206383D01*
X0159809Y0206334D01*
X0159795Y0206284D01*
X0159786Y0206234D01*
X0159780Y0206182D01*
X0159778Y0206131D01*
X0159778Y0205270D02*
X0159780Y0205227D01*
X0159785Y0205185D01*
X0159794Y0205143D01*
X0159806Y0205102D01*
X0159822Y0205062D01*
X0159840Y0205024D01*
X0159862Y0204987D01*
X0159887Y0204952D01*
X0159915Y0204920D01*
X0159945Y0204890D01*
X0159977Y0204862D01*
X0160012Y0204837D01*
X0160049Y0204815D01*
X0160087Y0204797D01*
X0160127Y0204781D01*
X0160168Y0204769D01*
X0160210Y0204760D01*
X0160252Y0204755D01*
X0160295Y0204753D01*
X0161156Y0204753D01*
X0163058Y0204753D02*
X0163058Y0206820D01*
X0164091Y0206820D01*
X0164091Y0206475D01*
X0165486Y0207164D02*
X0166347Y0207853D01*
X0166347Y0204753D01*
X0165486Y0204753D02*
X0167208Y0204753D01*
X0170550Y0205183D02*
X0170590Y0205271D01*
X0170628Y0205360D01*
X0170662Y0205450D01*
X0170692Y0205542D01*
X0170719Y0205635D01*
X0170743Y0205728D01*
X0170763Y0205823D01*
X0170779Y0205918D01*
X0170792Y0206014D01*
X0170801Y0206110D01*
X0170806Y0206206D01*
X0170808Y0206303D01*
X0169085Y0206303D02*
X0169087Y0206400D01*
X0169092Y0206496D01*
X0169101Y0206592D01*
X0169114Y0206688D01*
X0169130Y0206783D01*
X0169150Y0206878D01*
X0169174Y0206971D01*
X0169201Y0207064D01*
X0169231Y0207156D01*
X0169265Y0207246D01*
X0169303Y0207335D01*
X0169343Y0207423D01*
X0169947Y0207853D02*
X0169996Y0207851D01*
X0170045Y0207845D01*
X0170094Y0207836D01*
X0170141Y0207823D01*
X0170188Y0207806D01*
X0170233Y0207785D01*
X0170276Y0207761D01*
X0170317Y0207734D01*
X0170356Y0207704D01*
X0170393Y0207671D01*
X0170427Y0207635D01*
X0170458Y0207597D01*
X0170486Y0207556D01*
X0170510Y0207513D01*
X0170532Y0207469D01*
X0170550Y0207423D01*
X0170636Y0207164D02*
X0169258Y0205442D01*
X0169344Y0205183D02*
X0169362Y0205137D01*
X0169384Y0205093D01*
X0169408Y0205050D01*
X0169436Y0205009D01*
X0169467Y0204971D01*
X0169501Y0204935D01*
X0169538Y0204902D01*
X0169577Y0204872D01*
X0169618Y0204845D01*
X0169661Y0204821D01*
X0169706Y0204800D01*
X0169753Y0204783D01*
X0169800Y0204770D01*
X0169849Y0204761D01*
X0169898Y0204755D01*
X0169947Y0204753D01*
X0169996Y0204755D01*
X0170045Y0204761D01*
X0170094Y0204770D01*
X0170141Y0204783D01*
X0170188Y0204800D01*
X0170233Y0204821D01*
X0170276Y0204845D01*
X0170317Y0204872D01*
X0170356Y0204902D01*
X0170393Y0204935D01*
X0170427Y0204971D01*
X0170458Y0205009D01*
X0170486Y0205050D01*
X0170510Y0205093D01*
X0170532Y0205137D01*
X0170550Y0205183D01*
X0169344Y0205183D02*
X0169304Y0205271D01*
X0169266Y0205360D01*
X0169232Y0205450D01*
X0169202Y0205542D01*
X0169175Y0205635D01*
X0169151Y0205728D01*
X0169131Y0205823D01*
X0169115Y0205918D01*
X0169102Y0206014D01*
X0169093Y0206110D01*
X0169088Y0206206D01*
X0169086Y0206303D01*
X0170809Y0206303D02*
X0170807Y0206400D01*
X0170802Y0206496D01*
X0170793Y0206592D01*
X0170780Y0206688D01*
X0170763Y0206783D01*
X0170744Y0206878D01*
X0170720Y0206971D01*
X0170693Y0207064D01*
X0170663Y0207156D01*
X0170629Y0207246D01*
X0170591Y0207335D01*
X0170551Y0207423D01*
X0169947Y0207853D02*
X0169898Y0207851D01*
X0169849Y0207845D01*
X0169800Y0207836D01*
X0169753Y0207823D01*
X0169706Y0207806D01*
X0169661Y0207785D01*
X0169618Y0207761D01*
X0169577Y0207734D01*
X0169538Y0207704D01*
X0169501Y0207671D01*
X0169467Y0207635D01*
X0169436Y0207597D01*
X0169408Y0207556D01*
X0169384Y0207513D01*
X0169362Y0207469D01*
X0169344Y0207423D01*
X0174408Y0206303D02*
X0174406Y0206206D01*
X0174401Y0206110D01*
X0174392Y0206014D01*
X0174379Y0205918D01*
X0174363Y0205823D01*
X0174343Y0205728D01*
X0174319Y0205635D01*
X0174292Y0205542D01*
X0174262Y0205450D01*
X0174228Y0205360D01*
X0174190Y0205271D01*
X0174150Y0205183D01*
X0174132Y0205137D01*
X0174110Y0205093D01*
X0174086Y0205050D01*
X0174058Y0205009D01*
X0174027Y0204971D01*
X0173993Y0204935D01*
X0173956Y0204902D01*
X0173917Y0204872D01*
X0173876Y0204845D01*
X0173833Y0204821D01*
X0173788Y0204800D01*
X0173741Y0204783D01*
X0173694Y0204770D01*
X0173645Y0204761D01*
X0173596Y0204755D01*
X0173547Y0204753D01*
X0173498Y0204755D01*
X0173449Y0204761D01*
X0173400Y0204770D01*
X0173353Y0204783D01*
X0173306Y0204800D01*
X0173261Y0204821D01*
X0173218Y0204845D01*
X0173177Y0204872D01*
X0173138Y0204902D01*
X0173101Y0204935D01*
X0173067Y0204971D01*
X0173036Y0205009D01*
X0173008Y0205050D01*
X0172984Y0205093D01*
X0172962Y0205137D01*
X0172944Y0205183D01*
X0172858Y0205442D02*
X0174236Y0207164D01*
X0174150Y0207423D02*
X0174132Y0207469D01*
X0174110Y0207513D01*
X0174086Y0207556D01*
X0174058Y0207597D01*
X0174027Y0207635D01*
X0173993Y0207671D01*
X0173956Y0207704D01*
X0173917Y0207734D01*
X0173876Y0207761D01*
X0173833Y0207785D01*
X0173788Y0207806D01*
X0173741Y0207823D01*
X0173694Y0207836D01*
X0173645Y0207845D01*
X0173596Y0207851D01*
X0173547Y0207853D01*
X0173498Y0207851D01*
X0173449Y0207845D01*
X0173400Y0207836D01*
X0173353Y0207823D01*
X0173306Y0207806D01*
X0173261Y0207785D01*
X0173218Y0207761D01*
X0173177Y0207734D01*
X0173138Y0207704D01*
X0173101Y0207671D01*
X0173067Y0207635D01*
X0173036Y0207597D01*
X0173008Y0207556D01*
X0172984Y0207513D01*
X0172962Y0207469D01*
X0172944Y0207423D01*
X0174151Y0207423D02*
X0174191Y0207335D01*
X0174229Y0207246D01*
X0174263Y0207156D01*
X0174293Y0207064D01*
X0174320Y0206971D01*
X0174344Y0206878D01*
X0174363Y0206783D01*
X0174380Y0206688D01*
X0174393Y0206592D01*
X0174402Y0206496D01*
X0174407Y0206400D01*
X0174409Y0206303D01*
X0172685Y0206303D02*
X0172687Y0206400D01*
X0172692Y0206496D01*
X0172701Y0206592D01*
X0172714Y0206688D01*
X0172730Y0206783D01*
X0172750Y0206878D01*
X0172774Y0206971D01*
X0172801Y0207064D01*
X0172831Y0207156D01*
X0172865Y0207246D01*
X0172903Y0207335D01*
X0172943Y0207423D01*
X0172686Y0206303D02*
X0172688Y0206206D01*
X0172693Y0206110D01*
X0172702Y0206014D01*
X0172715Y0205918D01*
X0172731Y0205823D01*
X0172751Y0205728D01*
X0172775Y0205635D01*
X0172802Y0205542D01*
X0172832Y0205450D01*
X0172866Y0205360D01*
X0172904Y0205271D01*
X0172944Y0205183D01*
X0176338Y0205270D02*
X0176338Y0206820D01*
X0177716Y0206820D02*
X0177716Y0204753D01*
X0176855Y0204753D01*
X0176812Y0204755D01*
X0176770Y0204760D01*
X0176728Y0204769D01*
X0176687Y0204781D01*
X0176647Y0204797D01*
X0176609Y0204815D01*
X0176572Y0204837D01*
X0176537Y0204862D01*
X0176505Y0204890D01*
X0176475Y0204920D01*
X0176447Y0204952D01*
X0176422Y0204987D01*
X0176400Y0205024D01*
X0176382Y0205062D01*
X0176366Y0205102D01*
X0176354Y0205143D01*
X0176345Y0205185D01*
X0176340Y0205227D01*
X0176338Y0205270D01*
X0179779Y0204753D02*
X0179779Y0207853D01*
X0181157Y0207853D01*
X0181157Y0206475D02*
X0179779Y0206475D01*
X0166060Y0201853D02*
X0165027Y0198753D01*
X0163994Y0201853D01*
X0160566Y0200303D02*
X0160568Y0200206D01*
X0160573Y0200110D01*
X0160582Y0200014D01*
X0160595Y0199918D01*
X0160611Y0199823D01*
X0160631Y0199728D01*
X0160655Y0199635D01*
X0160682Y0199542D01*
X0160712Y0199450D01*
X0160746Y0199360D01*
X0160784Y0199271D01*
X0160824Y0199183D01*
X0160738Y0199442D02*
X0162116Y0201164D01*
X0162030Y0201423D02*
X0162012Y0201469D01*
X0161990Y0201513D01*
X0161966Y0201556D01*
X0161938Y0201597D01*
X0161907Y0201635D01*
X0161873Y0201671D01*
X0161836Y0201704D01*
X0161797Y0201734D01*
X0161756Y0201761D01*
X0161713Y0201785D01*
X0161668Y0201806D01*
X0161621Y0201823D01*
X0161574Y0201836D01*
X0161525Y0201845D01*
X0161476Y0201851D01*
X0161427Y0201853D01*
X0161378Y0201851D01*
X0161329Y0201845D01*
X0161280Y0201836D01*
X0161233Y0201823D01*
X0161186Y0201806D01*
X0161141Y0201785D01*
X0161098Y0201761D01*
X0161057Y0201734D01*
X0161018Y0201704D01*
X0160981Y0201671D01*
X0160947Y0201635D01*
X0160916Y0201597D01*
X0160888Y0201556D01*
X0160864Y0201513D01*
X0160842Y0201469D01*
X0160824Y0201423D01*
X0162031Y0201423D02*
X0162071Y0201335D01*
X0162109Y0201246D01*
X0162143Y0201156D01*
X0162173Y0201064D01*
X0162200Y0200971D01*
X0162224Y0200878D01*
X0162243Y0200783D01*
X0162260Y0200688D01*
X0162273Y0200592D01*
X0162282Y0200496D01*
X0162287Y0200400D01*
X0162289Y0200303D01*
X0160566Y0200303D02*
X0160568Y0200400D01*
X0160573Y0200496D01*
X0160582Y0200592D01*
X0160595Y0200688D01*
X0160611Y0200783D01*
X0160631Y0200878D01*
X0160655Y0200971D01*
X0160682Y0201064D01*
X0160712Y0201156D01*
X0160746Y0201246D01*
X0160784Y0201335D01*
X0160824Y0201423D01*
X0162288Y0200303D02*
X0162286Y0200206D01*
X0162281Y0200110D01*
X0162272Y0200014D01*
X0162259Y0199918D01*
X0162243Y0199823D01*
X0162223Y0199728D01*
X0162199Y0199635D01*
X0162172Y0199542D01*
X0162142Y0199450D01*
X0162108Y0199360D01*
X0162070Y0199271D01*
X0162030Y0199183D01*
X0162012Y0199137D01*
X0161990Y0199093D01*
X0161966Y0199050D01*
X0161938Y0199009D01*
X0161907Y0198971D01*
X0161873Y0198935D01*
X0161836Y0198902D01*
X0161797Y0198872D01*
X0161756Y0198845D01*
X0161713Y0198821D01*
X0161668Y0198800D01*
X0161621Y0198783D01*
X0161574Y0198770D01*
X0161525Y0198761D01*
X0161476Y0198755D01*
X0161427Y0198753D01*
X0161378Y0198755D01*
X0161329Y0198761D01*
X0161280Y0198770D01*
X0161233Y0198783D01*
X0161186Y0198800D01*
X0161141Y0198821D01*
X0161098Y0198845D01*
X0161057Y0198872D01*
X0161018Y0198902D01*
X0160981Y0198935D01*
X0160947Y0198971D01*
X0160916Y0199009D01*
X0160888Y0199050D01*
X0160864Y0199093D01*
X0160842Y0199137D01*
X0160824Y0199183D01*
X0157224Y0199183D02*
X0157184Y0199271D01*
X0157146Y0199360D01*
X0157112Y0199450D01*
X0157082Y0199542D01*
X0157055Y0199635D01*
X0157031Y0199728D01*
X0157011Y0199823D01*
X0156995Y0199918D01*
X0156982Y0200014D01*
X0156973Y0200110D01*
X0156968Y0200206D01*
X0156966Y0200303D01*
X0158689Y0200303D02*
X0158687Y0200400D01*
X0158682Y0200496D01*
X0158673Y0200592D01*
X0158660Y0200688D01*
X0158643Y0200783D01*
X0158624Y0200878D01*
X0158600Y0200971D01*
X0158573Y0201064D01*
X0158543Y0201156D01*
X0158509Y0201246D01*
X0158471Y0201335D01*
X0158431Y0201423D01*
X0158516Y0201164D02*
X0157138Y0199442D01*
X0157224Y0199183D02*
X0157242Y0199137D01*
X0157264Y0199093D01*
X0157288Y0199050D01*
X0157316Y0199009D01*
X0157347Y0198971D01*
X0157381Y0198935D01*
X0157418Y0198902D01*
X0157457Y0198872D01*
X0157498Y0198845D01*
X0157541Y0198821D01*
X0157586Y0198800D01*
X0157633Y0198783D01*
X0157680Y0198770D01*
X0157729Y0198761D01*
X0157778Y0198755D01*
X0157827Y0198753D01*
X0157876Y0198755D01*
X0157925Y0198761D01*
X0157974Y0198770D01*
X0158021Y0198783D01*
X0158068Y0198800D01*
X0158113Y0198821D01*
X0158156Y0198845D01*
X0158197Y0198872D01*
X0158236Y0198902D01*
X0158273Y0198935D01*
X0158307Y0198971D01*
X0158338Y0199009D01*
X0158366Y0199050D01*
X0158390Y0199093D01*
X0158412Y0199137D01*
X0158430Y0199183D01*
X0156966Y0200303D02*
X0156968Y0200400D01*
X0156973Y0200496D01*
X0156982Y0200592D01*
X0156995Y0200688D01*
X0157011Y0200783D01*
X0157031Y0200878D01*
X0157055Y0200971D01*
X0157082Y0201064D01*
X0157112Y0201156D01*
X0157146Y0201246D01*
X0157184Y0201335D01*
X0157224Y0201423D01*
X0157827Y0201853D02*
X0157876Y0201851D01*
X0157925Y0201845D01*
X0157974Y0201836D01*
X0158021Y0201823D01*
X0158068Y0201806D01*
X0158113Y0201785D01*
X0158156Y0201761D01*
X0158197Y0201734D01*
X0158236Y0201704D01*
X0158273Y0201671D01*
X0158307Y0201635D01*
X0158338Y0201597D01*
X0158366Y0201556D01*
X0158390Y0201513D01*
X0158412Y0201469D01*
X0158430Y0201423D01*
X0157827Y0201853D02*
X0157778Y0201851D01*
X0157729Y0201845D01*
X0157680Y0201836D01*
X0157633Y0201823D01*
X0157586Y0201806D01*
X0157541Y0201785D01*
X0157498Y0201761D01*
X0157457Y0201734D01*
X0157418Y0201704D01*
X0157381Y0201671D01*
X0157347Y0201635D01*
X0157316Y0201597D01*
X0157288Y0201556D01*
X0157264Y0201513D01*
X0157242Y0201469D01*
X0157224Y0201423D01*
X0158688Y0200303D02*
X0158686Y0200206D01*
X0158681Y0200110D01*
X0158672Y0200014D01*
X0158659Y0199918D01*
X0158643Y0199823D01*
X0158623Y0199728D01*
X0158599Y0199635D01*
X0158572Y0199542D01*
X0158542Y0199450D01*
X0158508Y0199360D01*
X0158470Y0199271D01*
X0158430Y0199183D01*
X0155088Y0198753D02*
X0153366Y0198753D01*
X0154227Y0198753D02*
X0154227Y0201853D01*
X0153366Y0201164D01*
X0199616Y0160603D02*
X0200477Y0160603D01*
X0200528Y0160601D01*
X0200580Y0160595D01*
X0200630Y0160586D01*
X0200680Y0160572D01*
X0200729Y0160555D01*
X0200776Y0160535D01*
X0200822Y0160511D01*
X0200865Y0160483D01*
X0200907Y0160453D01*
X0200946Y0160419D01*
X0200982Y0160383D01*
X0201016Y0160344D01*
X0201046Y0160302D01*
X0201074Y0160259D01*
X0201098Y0160213D01*
X0201118Y0160166D01*
X0201135Y0160117D01*
X0201149Y0160067D01*
X0201158Y0160017D01*
X0201164Y0159965D01*
X0201166Y0159914D01*
X0201164Y0159863D01*
X0201158Y0159811D01*
X0201149Y0159761D01*
X0201135Y0159711D01*
X0201118Y0159662D01*
X0201098Y0159615D01*
X0201074Y0159570D01*
X0201046Y0159526D01*
X0201016Y0159484D01*
X0200982Y0159445D01*
X0200946Y0159409D01*
X0200907Y0159375D01*
X0200865Y0159345D01*
X0200822Y0159317D01*
X0200776Y0159293D01*
X0200729Y0159273D01*
X0200680Y0159256D01*
X0200630Y0159242D01*
X0200580Y0159233D01*
X0200528Y0159227D01*
X0200477Y0159225D01*
X0199616Y0159225D01*
X0200477Y0159225D02*
X0200535Y0159223D01*
X0200592Y0159217D01*
X0200648Y0159208D01*
X0200704Y0159194D01*
X0200759Y0159177D01*
X0200813Y0159157D01*
X0200865Y0159132D01*
X0200916Y0159105D01*
X0200964Y0159074D01*
X0201011Y0159040D01*
X0201055Y0159003D01*
X0201096Y0158963D01*
X0201135Y0158920D01*
X0201170Y0158875D01*
X0201203Y0158827D01*
X0201232Y0158778D01*
X0201258Y0158726D01*
X0201280Y0158673D01*
X0201299Y0158619D01*
X0201315Y0158564D01*
X0201326Y0158507D01*
X0201334Y0158450D01*
X0201338Y0158393D01*
X0201338Y0158335D01*
X0201334Y0158278D01*
X0201326Y0158221D01*
X0201315Y0158164D01*
X0201299Y0158109D01*
X0201280Y0158055D01*
X0201258Y0158002D01*
X0201232Y0157950D01*
X0201203Y0157901D01*
X0201170Y0157853D01*
X0201135Y0157808D01*
X0201096Y0157765D01*
X0201055Y0157725D01*
X0201011Y0157688D01*
X0200964Y0157654D01*
X0200916Y0157623D01*
X0200865Y0157596D01*
X0200813Y0157571D01*
X0200759Y0157551D01*
X0200704Y0157534D01*
X0200648Y0157520D01*
X0200592Y0157511D01*
X0200535Y0157505D01*
X0200477Y0157503D01*
X0199616Y0157503D01*
X0199616Y0160603D01*
X0202926Y0158881D02*
X0202926Y0158192D01*
X0202928Y0158141D01*
X0202934Y0158089D01*
X0202943Y0158039D01*
X0202957Y0157989D01*
X0202974Y0157940D01*
X0202994Y0157893D01*
X0203018Y0157848D01*
X0203046Y0157804D01*
X0203076Y0157762D01*
X0203110Y0157723D01*
X0203146Y0157687D01*
X0203185Y0157653D01*
X0203227Y0157623D01*
X0203271Y0157595D01*
X0203316Y0157571D01*
X0203363Y0157551D01*
X0203412Y0157534D01*
X0203462Y0157520D01*
X0203512Y0157511D01*
X0203564Y0157505D01*
X0203615Y0157503D01*
X0203666Y0157505D01*
X0203718Y0157511D01*
X0203768Y0157520D01*
X0203818Y0157534D01*
X0203867Y0157551D01*
X0203914Y0157571D01*
X0203960Y0157595D01*
X0204003Y0157623D01*
X0204045Y0157653D01*
X0204084Y0157687D01*
X0204120Y0157723D01*
X0204154Y0157762D01*
X0204184Y0157804D01*
X0204212Y0157848D01*
X0204236Y0157893D01*
X0204256Y0157940D01*
X0204273Y0157989D01*
X0204287Y0158039D01*
X0204296Y0158089D01*
X0204302Y0158141D01*
X0204304Y0158192D01*
X0204304Y0158881D01*
X0204302Y0158932D01*
X0204296Y0158984D01*
X0204287Y0159034D01*
X0204273Y0159084D01*
X0204256Y0159133D01*
X0204236Y0159180D01*
X0204212Y0159226D01*
X0204184Y0159269D01*
X0204154Y0159311D01*
X0204120Y0159350D01*
X0204084Y0159386D01*
X0204045Y0159420D01*
X0204003Y0159450D01*
X0203960Y0159478D01*
X0203914Y0159502D01*
X0203867Y0159522D01*
X0203818Y0159539D01*
X0203768Y0159553D01*
X0203718Y0159562D01*
X0203666Y0159568D01*
X0203615Y0159570D01*
X0203564Y0159568D01*
X0203512Y0159562D01*
X0203462Y0159553D01*
X0203412Y0159539D01*
X0203363Y0159522D01*
X0203316Y0159502D01*
X0203271Y0159478D01*
X0203227Y0159450D01*
X0203185Y0159420D01*
X0203146Y0159386D01*
X0203110Y0159350D01*
X0203076Y0159311D01*
X0203046Y0159269D01*
X0203018Y0159226D01*
X0202994Y0159180D01*
X0202974Y0159133D01*
X0202957Y0159084D01*
X0202943Y0159034D01*
X0202934Y0158984D01*
X0202928Y0158932D01*
X0202926Y0158881D01*
X0205683Y0159570D02*
X0206717Y0159570D01*
X0206028Y0160603D02*
X0206028Y0158020D01*
X0206027Y0158020D02*
X0206029Y0157977D01*
X0206034Y0157935D01*
X0206043Y0157893D01*
X0206055Y0157852D01*
X0206071Y0157812D01*
X0206089Y0157774D01*
X0206111Y0157737D01*
X0206136Y0157702D01*
X0206164Y0157670D01*
X0206194Y0157640D01*
X0206226Y0157612D01*
X0206261Y0157587D01*
X0206298Y0157565D01*
X0206336Y0157547D01*
X0206376Y0157531D01*
X0206417Y0157519D01*
X0206459Y0157510D01*
X0206501Y0157505D01*
X0206544Y0157503D01*
X0206717Y0157503D01*
X0208308Y0158020D02*
X0208308Y0160603D01*
X0207963Y0159570D02*
X0208997Y0159570D01*
X0208307Y0158020D02*
X0208309Y0157977D01*
X0208314Y0157935D01*
X0208323Y0157893D01*
X0208335Y0157852D01*
X0208351Y0157812D01*
X0208369Y0157774D01*
X0208391Y0157737D01*
X0208416Y0157702D01*
X0208444Y0157670D01*
X0208474Y0157640D01*
X0208506Y0157612D01*
X0208541Y0157587D01*
X0208578Y0157565D01*
X0208616Y0157547D01*
X0208656Y0157531D01*
X0208697Y0157519D01*
X0208739Y0157510D01*
X0208781Y0157505D01*
X0208824Y0157503D01*
X0208997Y0157503D01*
X0210606Y0158192D02*
X0210606Y0158881D01*
X0210608Y0158932D01*
X0210614Y0158984D01*
X0210623Y0159034D01*
X0210637Y0159084D01*
X0210654Y0159133D01*
X0210674Y0159180D01*
X0210698Y0159226D01*
X0210726Y0159269D01*
X0210756Y0159311D01*
X0210790Y0159350D01*
X0210826Y0159386D01*
X0210865Y0159420D01*
X0210907Y0159450D01*
X0210951Y0159478D01*
X0210996Y0159502D01*
X0211043Y0159522D01*
X0211092Y0159539D01*
X0211142Y0159553D01*
X0211192Y0159562D01*
X0211244Y0159568D01*
X0211295Y0159570D01*
X0211346Y0159568D01*
X0211398Y0159562D01*
X0211448Y0159553D01*
X0211498Y0159539D01*
X0211547Y0159522D01*
X0211594Y0159502D01*
X0211640Y0159478D01*
X0211683Y0159450D01*
X0211725Y0159420D01*
X0211764Y0159386D01*
X0211800Y0159350D01*
X0211834Y0159311D01*
X0211864Y0159269D01*
X0211892Y0159226D01*
X0211916Y0159180D01*
X0211936Y0159133D01*
X0211953Y0159084D01*
X0211967Y0159034D01*
X0211976Y0158984D01*
X0211982Y0158932D01*
X0211984Y0158881D01*
X0211984Y0158192D01*
X0211982Y0158141D01*
X0211976Y0158089D01*
X0211967Y0158039D01*
X0211953Y0157989D01*
X0211936Y0157940D01*
X0211916Y0157893D01*
X0211892Y0157848D01*
X0211864Y0157804D01*
X0211834Y0157762D01*
X0211800Y0157723D01*
X0211764Y0157687D01*
X0211725Y0157653D01*
X0211683Y0157623D01*
X0211640Y0157595D01*
X0211594Y0157571D01*
X0211547Y0157551D01*
X0211498Y0157534D01*
X0211448Y0157520D01*
X0211398Y0157511D01*
X0211346Y0157505D01*
X0211295Y0157503D01*
X0211244Y0157505D01*
X0211192Y0157511D01*
X0211142Y0157520D01*
X0211092Y0157534D01*
X0211043Y0157551D01*
X0210996Y0157571D01*
X0210951Y0157595D01*
X0210907Y0157623D01*
X0210865Y0157653D01*
X0210826Y0157687D01*
X0210790Y0157723D01*
X0210756Y0157762D01*
X0210726Y0157804D01*
X0210698Y0157848D01*
X0210674Y0157893D01*
X0210654Y0157940D01*
X0210637Y0157989D01*
X0210623Y0158039D01*
X0210614Y0158089D01*
X0210608Y0158141D01*
X0210606Y0158192D01*
X0213982Y0157503D02*
X0213982Y0159570D01*
X0215532Y0159570D01*
X0215015Y0159570D02*
X0215015Y0157503D01*
X0216049Y0157503D02*
X0216049Y0159053D01*
X0216047Y0159096D01*
X0216042Y0159138D01*
X0216033Y0159180D01*
X0216021Y0159221D01*
X0216005Y0159261D01*
X0215987Y0159299D01*
X0215965Y0159336D01*
X0215940Y0159371D01*
X0215912Y0159403D01*
X0215882Y0159433D01*
X0215850Y0159461D01*
X0215815Y0159486D01*
X0215778Y0159508D01*
X0215740Y0159526D01*
X0215700Y0159542D01*
X0215659Y0159554D01*
X0215617Y0159563D01*
X0215575Y0159568D01*
X0215532Y0159570D01*
X0215295Y0193753D02*
X0216156Y0193753D01*
X0215295Y0193753D02*
X0215252Y0193755D01*
X0215210Y0193760D01*
X0215168Y0193769D01*
X0215127Y0193781D01*
X0215087Y0193797D01*
X0215049Y0193815D01*
X0215012Y0193837D01*
X0214977Y0193862D01*
X0214945Y0193890D01*
X0214915Y0193920D01*
X0214887Y0193952D01*
X0214862Y0193987D01*
X0214840Y0194024D01*
X0214822Y0194062D01*
X0214806Y0194102D01*
X0214794Y0194143D01*
X0214785Y0194185D01*
X0214780Y0194227D01*
X0214778Y0194270D01*
X0214778Y0195131D01*
X0214778Y0194786D02*
X0216156Y0194786D01*
X0216156Y0195131D01*
X0216154Y0195182D01*
X0216148Y0195234D01*
X0216139Y0195284D01*
X0216125Y0195334D01*
X0216108Y0195383D01*
X0216088Y0195430D01*
X0216064Y0195476D01*
X0216036Y0195519D01*
X0216006Y0195561D01*
X0215972Y0195600D01*
X0215936Y0195636D01*
X0215897Y0195670D01*
X0215855Y0195700D01*
X0215812Y0195728D01*
X0215766Y0195752D01*
X0215719Y0195772D01*
X0215670Y0195789D01*
X0215620Y0195803D01*
X0215570Y0195812D01*
X0215518Y0195818D01*
X0215467Y0195820D01*
X0215416Y0195818D01*
X0215364Y0195812D01*
X0215314Y0195803D01*
X0215264Y0195789D01*
X0215215Y0195772D01*
X0215168Y0195752D01*
X0215123Y0195728D01*
X0215079Y0195700D01*
X0215037Y0195670D01*
X0214998Y0195636D01*
X0214962Y0195600D01*
X0214928Y0195561D01*
X0214898Y0195519D01*
X0214870Y0195476D01*
X0214846Y0195430D01*
X0214826Y0195383D01*
X0214809Y0195334D01*
X0214795Y0195284D01*
X0214786Y0195234D01*
X0214780Y0195182D01*
X0214778Y0195131D01*
X0213156Y0195820D02*
X0212467Y0193753D01*
X0211778Y0195820D01*
X0210088Y0195992D02*
X0210088Y0194614D01*
X0210086Y0194556D01*
X0210080Y0194499D01*
X0210071Y0194443D01*
X0210057Y0194387D01*
X0210040Y0194332D01*
X0210020Y0194278D01*
X0209995Y0194226D01*
X0209968Y0194175D01*
X0209937Y0194127D01*
X0209903Y0194080D01*
X0209866Y0194036D01*
X0209826Y0193995D01*
X0209783Y0193956D01*
X0209738Y0193921D01*
X0209690Y0193888D01*
X0209641Y0193859D01*
X0209589Y0193833D01*
X0209536Y0193811D01*
X0209482Y0193792D01*
X0209427Y0193776D01*
X0209370Y0193765D01*
X0209313Y0193757D01*
X0209256Y0193753D01*
X0209198Y0193753D01*
X0209141Y0193757D01*
X0209084Y0193765D01*
X0209027Y0193776D01*
X0208972Y0193792D01*
X0208918Y0193811D01*
X0208865Y0193833D01*
X0208813Y0193859D01*
X0208764Y0193888D01*
X0208716Y0193921D01*
X0208671Y0193956D01*
X0208628Y0193995D01*
X0208588Y0194036D01*
X0208551Y0194080D01*
X0208517Y0194127D01*
X0208486Y0194175D01*
X0208459Y0194226D01*
X0208434Y0194278D01*
X0208414Y0194332D01*
X0208397Y0194387D01*
X0208383Y0194443D01*
X0208374Y0194499D01*
X0208368Y0194556D01*
X0208366Y0194614D01*
X0208366Y0195992D01*
X0208368Y0196050D01*
X0208374Y0196107D01*
X0208383Y0196163D01*
X0208397Y0196219D01*
X0208414Y0196274D01*
X0208434Y0196328D01*
X0208459Y0196380D01*
X0208486Y0196431D01*
X0208517Y0196479D01*
X0208551Y0196526D01*
X0208588Y0196570D01*
X0208628Y0196611D01*
X0208671Y0196650D01*
X0208716Y0196685D01*
X0208764Y0196718D01*
X0208813Y0196747D01*
X0208865Y0196773D01*
X0208918Y0196795D01*
X0208972Y0196814D01*
X0209027Y0196830D01*
X0209084Y0196841D01*
X0209141Y0196849D01*
X0209198Y0196853D01*
X0209256Y0196853D01*
X0209313Y0196849D01*
X0209370Y0196841D01*
X0209427Y0196830D01*
X0209482Y0196814D01*
X0209536Y0196795D01*
X0209589Y0196773D01*
X0209641Y0196747D01*
X0209690Y0196718D01*
X0209738Y0196685D01*
X0209783Y0196650D01*
X0209826Y0196611D01*
X0209866Y0196570D01*
X0209903Y0196526D01*
X0209937Y0196479D01*
X0209968Y0196431D01*
X0209995Y0196380D01*
X0210020Y0196328D01*
X0210040Y0196274D01*
X0210057Y0196219D01*
X0210071Y0196163D01*
X0210080Y0196107D01*
X0210086Y0196050D01*
X0210088Y0195992D01*
X0218058Y0195820D02*
X0218058Y0193753D01*
X0219091Y0195475D02*
X0219091Y0195820D01*
X0218058Y0195820D01*
X0220486Y0193753D02*
X0222208Y0193753D01*
X0220486Y0193753D02*
X0221950Y0195475D01*
X0221433Y0196853D02*
X0221373Y0196851D01*
X0221314Y0196846D01*
X0221255Y0196837D01*
X0221197Y0196825D01*
X0221139Y0196809D01*
X0221083Y0196789D01*
X0221028Y0196767D01*
X0220974Y0196741D01*
X0220922Y0196712D01*
X0220872Y0196680D01*
X0220823Y0196645D01*
X0220777Y0196607D01*
X0220734Y0196566D01*
X0220692Y0196523D01*
X0220654Y0196477D01*
X0220618Y0196430D01*
X0220585Y0196380D01*
X0220556Y0196328D01*
X0220529Y0196275D01*
X0220506Y0196220D01*
X0220485Y0196164D01*
X0221950Y0195476D02*
X0221989Y0195516D01*
X0222026Y0195558D01*
X0222059Y0195603D01*
X0222090Y0195650D01*
X0222117Y0195699D01*
X0222141Y0195750D01*
X0222161Y0195803D01*
X0222178Y0195856D01*
X0222191Y0195911D01*
X0222200Y0195966D01*
X0222206Y0196022D01*
X0222208Y0196078D01*
X0222206Y0196133D01*
X0222200Y0196188D01*
X0222190Y0196243D01*
X0222177Y0196296D01*
X0222159Y0196349D01*
X0222138Y0196400D01*
X0222113Y0196449D01*
X0222085Y0196497D01*
X0222053Y0196542D01*
X0222019Y0196586D01*
X0221981Y0196626D01*
X0221941Y0196664D01*
X0221897Y0196698D01*
X0221852Y0196730D01*
X0221804Y0196758D01*
X0221755Y0196783D01*
X0221704Y0196804D01*
X0221651Y0196822D01*
X0221598Y0196835D01*
X0221543Y0196845D01*
X0221488Y0196851D01*
X0221433Y0196853D01*
X0225550Y0195476D02*
X0225589Y0195516D01*
X0225626Y0195558D01*
X0225659Y0195603D01*
X0225690Y0195650D01*
X0225717Y0195699D01*
X0225741Y0195750D01*
X0225761Y0195803D01*
X0225778Y0195856D01*
X0225791Y0195911D01*
X0225800Y0195966D01*
X0225806Y0196022D01*
X0225808Y0196078D01*
X0225550Y0195475D02*
X0224086Y0193753D01*
X0225808Y0193753D01*
X0224085Y0196164D02*
X0224106Y0196220D01*
X0224129Y0196275D01*
X0224156Y0196328D01*
X0224185Y0196380D01*
X0224218Y0196430D01*
X0224254Y0196477D01*
X0224292Y0196523D01*
X0224334Y0196566D01*
X0224377Y0196607D01*
X0224423Y0196645D01*
X0224472Y0196680D01*
X0224522Y0196712D01*
X0224574Y0196741D01*
X0224628Y0196767D01*
X0224683Y0196789D01*
X0224739Y0196809D01*
X0224797Y0196825D01*
X0224855Y0196837D01*
X0224914Y0196846D01*
X0224973Y0196851D01*
X0225033Y0196853D01*
X0225088Y0196851D01*
X0225143Y0196845D01*
X0225198Y0196835D01*
X0225251Y0196822D01*
X0225304Y0196804D01*
X0225355Y0196783D01*
X0225404Y0196758D01*
X0225452Y0196730D01*
X0225497Y0196698D01*
X0225541Y0196664D01*
X0225581Y0196626D01*
X0225619Y0196586D01*
X0225653Y0196542D01*
X0225685Y0196497D01*
X0225713Y0196449D01*
X0225738Y0196400D01*
X0225759Y0196349D01*
X0225777Y0196296D01*
X0225790Y0196243D01*
X0225800Y0196188D01*
X0225806Y0196133D01*
X0225808Y0196078D01*
X0227754Y0194959D02*
X0229820Y0194959D01*
X0231766Y0196164D02*
X0232627Y0196853D01*
X0232627Y0193753D01*
X0231766Y0193753D02*
X0233488Y0193753D01*
X0235366Y0193753D02*
X0236399Y0193753D01*
X0236450Y0193755D01*
X0236502Y0193761D01*
X0236552Y0193770D01*
X0236602Y0193784D01*
X0236651Y0193801D01*
X0236698Y0193821D01*
X0236744Y0193845D01*
X0236787Y0193873D01*
X0236829Y0193903D01*
X0236868Y0193937D01*
X0236904Y0193973D01*
X0236938Y0194012D01*
X0236968Y0194054D01*
X0236996Y0194098D01*
X0237020Y0194143D01*
X0237040Y0194190D01*
X0237057Y0194239D01*
X0237071Y0194289D01*
X0237080Y0194339D01*
X0237086Y0194391D01*
X0237088Y0194442D01*
X0237088Y0194786D01*
X0237086Y0194837D01*
X0237080Y0194889D01*
X0237071Y0194939D01*
X0237057Y0194989D01*
X0237040Y0195038D01*
X0237020Y0195085D01*
X0236996Y0195131D01*
X0236968Y0195174D01*
X0236938Y0195216D01*
X0236904Y0195255D01*
X0236868Y0195291D01*
X0236829Y0195325D01*
X0236787Y0195355D01*
X0236744Y0195383D01*
X0236698Y0195407D01*
X0236651Y0195427D01*
X0236602Y0195444D01*
X0236552Y0195458D01*
X0236502Y0195467D01*
X0236450Y0195473D01*
X0236399Y0195475D01*
X0235366Y0195475D01*
X0235366Y0196853D01*
X0237088Y0196853D01*
X0240688Y0195303D02*
X0240686Y0195206D01*
X0240681Y0195110D01*
X0240672Y0195014D01*
X0240659Y0194918D01*
X0240643Y0194823D01*
X0240623Y0194728D01*
X0240599Y0194635D01*
X0240572Y0194542D01*
X0240542Y0194450D01*
X0240508Y0194360D01*
X0240470Y0194271D01*
X0240430Y0194183D01*
X0240412Y0194137D01*
X0240390Y0194093D01*
X0240366Y0194050D01*
X0240338Y0194009D01*
X0240307Y0193971D01*
X0240273Y0193935D01*
X0240236Y0193902D01*
X0240197Y0193872D01*
X0240156Y0193845D01*
X0240113Y0193821D01*
X0240068Y0193800D01*
X0240021Y0193783D01*
X0239974Y0193770D01*
X0239925Y0193761D01*
X0239876Y0193755D01*
X0239827Y0193753D01*
X0239778Y0193755D01*
X0239729Y0193761D01*
X0239680Y0193770D01*
X0239633Y0193783D01*
X0239586Y0193800D01*
X0239541Y0193821D01*
X0239498Y0193845D01*
X0239457Y0193872D01*
X0239418Y0193902D01*
X0239381Y0193935D01*
X0239347Y0193971D01*
X0239316Y0194009D01*
X0239288Y0194050D01*
X0239264Y0194093D01*
X0239242Y0194137D01*
X0239224Y0194183D01*
X0239138Y0194442D02*
X0240516Y0196164D01*
X0240430Y0196423D02*
X0240412Y0196469D01*
X0240390Y0196513D01*
X0240366Y0196556D01*
X0240338Y0196597D01*
X0240307Y0196635D01*
X0240273Y0196671D01*
X0240236Y0196704D01*
X0240197Y0196734D01*
X0240156Y0196761D01*
X0240113Y0196785D01*
X0240068Y0196806D01*
X0240021Y0196823D01*
X0239974Y0196836D01*
X0239925Y0196845D01*
X0239876Y0196851D01*
X0239827Y0196853D01*
X0239778Y0196851D01*
X0239729Y0196845D01*
X0239680Y0196836D01*
X0239633Y0196823D01*
X0239586Y0196806D01*
X0239541Y0196785D01*
X0239498Y0196761D01*
X0239457Y0196734D01*
X0239418Y0196704D01*
X0239381Y0196671D01*
X0239347Y0196635D01*
X0239316Y0196597D01*
X0239288Y0196556D01*
X0239264Y0196513D01*
X0239242Y0196469D01*
X0239224Y0196423D01*
X0240431Y0196423D02*
X0240471Y0196335D01*
X0240509Y0196246D01*
X0240543Y0196156D01*
X0240573Y0196064D01*
X0240600Y0195971D01*
X0240624Y0195878D01*
X0240643Y0195783D01*
X0240660Y0195688D01*
X0240673Y0195592D01*
X0240682Y0195496D01*
X0240687Y0195400D01*
X0240689Y0195303D01*
X0238965Y0195303D02*
X0238967Y0195400D01*
X0238972Y0195496D01*
X0238981Y0195592D01*
X0238994Y0195688D01*
X0239010Y0195783D01*
X0239030Y0195878D01*
X0239054Y0195971D01*
X0239081Y0196064D01*
X0239111Y0196156D01*
X0239145Y0196246D01*
X0239183Y0196335D01*
X0239223Y0196423D01*
X0238966Y0195303D02*
X0238968Y0195206D01*
X0238973Y0195110D01*
X0238982Y0195014D01*
X0238995Y0194918D01*
X0239011Y0194823D01*
X0239031Y0194728D01*
X0239055Y0194635D01*
X0239082Y0194542D01*
X0239112Y0194450D01*
X0239146Y0194360D01*
X0239184Y0194271D01*
X0239224Y0194183D01*
X0244030Y0194183D02*
X0244070Y0194271D01*
X0244108Y0194360D01*
X0244142Y0194450D01*
X0244172Y0194542D01*
X0244199Y0194635D01*
X0244223Y0194728D01*
X0244243Y0194823D01*
X0244259Y0194918D01*
X0244272Y0195014D01*
X0244281Y0195110D01*
X0244286Y0195206D01*
X0244288Y0195303D01*
X0242565Y0195303D02*
X0242567Y0195400D01*
X0242572Y0195496D01*
X0242581Y0195592D01*
X0242594Y0195688D01*
X0242610Y0195783D01*
X0242630Y0195878D01*
X0242654Y0195971D01*
X0242681Y0196064D01*
X0242711Y0196156D01*
X0242745Y0196246D01*
X0242783Y0196335D01*
X0242823Y0196423D01*
X0243427Y0196853D02*
X0243476Y0196851D01*
X0243525Y0196845D01*
X0243574Y0196836D01*
X0243621Y0196823D01*
X0243668Y0196806D01*
X0243713Y0196785D01*
X0243756Y0196761D01*
X0243797Y0196734D01*
X0243836Y0196704D01*
X0243873Y0196671D01*
X0243907Y0196635D01*
X0243938Y0196597D01*
X0243966Y0196556D01*
X0243990Y0196513D01*
X0244012Y0196469D01*
X0244030Y0196423D01*
X0244116Y0196164D02*
X0242738Y0194442D01*
X0242824Y0194183D02*
X0242842Y0194137D01*
X0242864Y0194093D01*
X0242888Y0194050D01*
X0242916Y0194009D01*
X0242947Y0193971D01*
X0242981Y0193935D01*
X0243018Y0193902D01*
X0243057Y0193872D01*
X0243098Y0193845D01*
X0243141Y0193821D01*
X0243186Y0193800D01*
X0243233Y0193783D01*
X0243280Y0193770D01*
X0243329Y0193761D01*
X0243378Y0193755D01*
X0243427Y0193753D01*
X0243476Y0193755D01*
X0243525Y0193761D01*
X0243574Y0193770D01*
X0243621Y0193783D01*
X0243668Y0193800D01*
X0243713Y0193821D01*
X0243756Y0193845D01*
X0243797Y0193872D01*
X0243836Y0193902D01*
X0243873Y0193935D01*
X0243907Y0193971D01*
X0243938Y0194009D01*
X0243966Y0194050D01*
X0243990Y0194093D01*
X0244012Y0194137D01*
X0244030Y0194183D01*
X0242824Y0194183D02*
X0242784Y0194271D01*
X0242746Y0194360D01*
X0242712Y0194450D01*
X0242682Y0194542D01*
X0242655Y0194635D01*
X0242631Y0194728D01*
X0242611Y0194823D01*
X0242595Y0194918D01*
X0242582Y0195014D01*
X0242573Y0195110D01*
X0242568Y0195206D01*
X0242566Y0195303D01*
X0244289Y0195303D02*
X0244287Y0195400D01*
X0244282Y0195496D01*
X0244273Y0195592D01*
X0244260Y0195688D01*
X0244243Y0195783D01*
X0244224Y0195878D01*
X0244200Y0195971D01*
X0244173Y0196064D01*
X0244143Y0196156D01*
X0244109Y0196246D01*
X0244071Y0196335D01*
X0244031Y0196423D01*
X0243427Y0196853D02*
X0243378Y0196851D01*
X0243329Y0196845D01*
X0243280Y0196836D01*
X0243233Y0196823D01*
X0243186Y0196806D01*
X0243141Y0196785D01*
X0243098Y0196761D01*
X0243057Y0196734D01*
X0243018Y0196704D01*
X0242981Y0196671D01*
X0242947Y0196635D01*
X0242916Y0196597D01*
X0242888Y0196556D01*
X0242864Y0196513D01*
X0242842Y0196469D01*
X0242824Y0196423D01*
X0246218Y0195820D02*
X0246218Y0194270D01*
X0246220Y0194227D01*
X0246225Y0194185D01*
X0246234Y0194143D01*
X0246246Y0194102D01*
X0246262Y0194062D01*
X0246280Y0194024D01*
X0246302Y0193987D01*
X0246327Y0193952D01*
X0246355Y0193920D01*
X0246385Y0193890D01*
X0246417Y0193862D01*
X0246452Y0193837D01*
X0246489Y0193815D01*
X0246527Y0193797D01*
X0246567Y0193781D01*
X0246608Y0193769D01*
X0246650Y0193760D01*
X0246692Y0193755D01*
X0246735Y0193753D01*
X0247596Y0193753D01*
X0247596Y0195820D01*
X0249659Y0195475D02*
X0251037Y0195475D01*
X0251037Y0196853D02*
X0249659Y0196853D01*
X0249659Y0193753D01*
X0252458Y0193409D02*
X0253836Y0193409D01*
X0255526Y0194614D02*
X0255526Y0195475D01*
X0256559Y0195475D01*
X0255526Y0195475D02*
X0255528Y0195547D01*
X0255534Y0195619D01*
X0255543Y0195691D01*
X0255556Y0195762D01*
X0255573Y0195832D01*
X0255593Y0195901D01*
X0255618Y0195969D01*
X0255645Y0196035D01*
X0255676Y0196101D01*
X0255711Y0196164D01*
X0255748Y0196226D01*
X0255789Y0196285D01*
X0255833Y0196342D01*
X0255880Y0196397D01*
X0255930Y0196449D01*
X0255982Y0196499D01*
X0256037Y0196546D01*
X0256094Y0196590D01*
X0256153Y0196631D01*
X0256215Y0196668D01*
X0256278Y0196703D01*
X0256344Y0196734D01*
X0256410Y0196761D01*
X0256478Y0196786D01*
X0256547Y0196806D01*
X0256617Y0196823D01*
X0256688Y0196836D01*
X0256760Y0196845D01*
X0256832Y0196851D01*
X0256904Y0196853D01*
X0257248Y0194786D02*
X0257248Y0194614D01*
X0257248Y0194786D02*
X0257246Y0194837D01*
X0257240Y0194889D01*
X0257231Y0194939D01*
X0257217Y0194989D01*
X0257200Y0195038D01*
X0257180Y0195085D01*
X0257156Y0195131D01*
X0257128Y0195174D01*
X0257098Y0195216D01*
X0257064Y0195255D01*
X0257028Y0195291D01*
X0256989Y0195325D01*
X0256947Y0195355D01*
X0256904Y0195383D01*
X0256858Y0195407D01*
X0256811Y0195427D01*
X0256762Y0195444D01*
X0256712Y0195458D01*
X0256662Y0195467D01*
X0256610Y0195473D01*
X0256559Y0195475D01*
X0257248Y0194614D02*
X0257246Y0194556D01*
X0257240Y0194499D01*
X0257231Y0194443D01*
X0257217Y0194387D01*
X0257200Y0194332D01*
X0257180Y0194278D01*
X0257155Y0194226D01*
X0257128Y0194175D01*
X0257097Y0194127D01*
X0257063Y0194080D01*
X0257026Y0194036D01*
X0256986Y0193995D01*
X0256943Y0193956D01*
X0256898Y0193921D01*
X0256850Y0193888D01*
X0256801Y0193859D01*
X0256749Y0193833D01*
X0256696Y0193811D01*
X0256642Y0193792D01*
X0256587Y0193776D01*
X0256530Y0193765D01*
X0256473Y0193757D01*
X0256416Y0193753D01*
X0256358Y0193753D01*
X0256301Y0193757D01*
X0256244Y0193765D01*
X0256187Y0193776D01*
X0256132Y0193792D01*
X0256078Y0193811D01*
X0256025Y0193833D01*
X0255973Y0193859D01*
X0255924Y0193888D01*
X0255876Y0193921D01*
X0255831Y0193956D01*
X0255788Y0193995D01*
X0255748Y0194036D01*
X0255711Y0194080D01*
X0255677Y0194127D01*
X0255646Y0194175D01*
X0255619Y0194226D01*
X0255594Y0194278D01*
X0255574Y0194332D01*
X0255557Y0194387D01*
X0255543Y0194443D01*
X0255534Y0194499D01*
X0255528Y0194556D01*
X0255526Y0194614D01*
X0259126Y0193753D02*
X0259987Y0193753D01*
X0260045Y0193755D01*
X0260102Y0193761D01*
X0260158Y0193770D01*
X0260214Y0193784D01*
X0260269Y0193801D01*
X0260323Y0193821D01*
X0260375Y0193846D01*
X0260426Y0193873D01*
X0260474Y0193904D01*
X0260521Y0193938D01*
X0260565Y0193975D01*
X0260606Y0194015D01*
X0260645Y0194058D01*
X0260680Y0194103D01*
X0260713Y0194151D01*
X0260742Y0194200D01*
X0260768Y0194252D01*
X0260790Y0194305D01*
X0260809Y0194359D01*
X0260825Y0194414D01*
X0260836Y0194471D01*
X0260844Y0194528D01*
X0260848Y0194585D01*
X0260848Y0194643D01*
X0260844Y0194700D01*
X0260836Y0194757D01*
X0260825Y0194814D01*
X0260809Y0194869D01*
X0260790Y0194923D01*
X0260768Y0194976D01*
X0260742Y0195028D01*
X0260713Y0195077D01*
X0260680Y0195125D01*
X0260645Y0195170D01*
X0260606Y0195213D01*
X0260565Y0195253D01*
X0260521Y0195290D01*
X0260474Y0195324D01*
X0260426Y0195355D01*
X0260375Y0195382D01*
X0260323Y0195407D01*
X0260269Y0195427D01*
X0260214Y0195444D01*
X0260158Y0195458D01*
X0260102Y0195467D01*
X0260045Y0195473D01*
X0259987Y0195475D01*
X0260159Y0195475D02*
X0259470Y0195475D01*
X0260159Y0195475D02*
X0260210Y0195477D01*
X0260262Y0195483D01*
X0260312Y0195492D01*
X0260362Y0195506D01*
X0260411Y0195523D01*
X0260458Y0195543D01*
X0260504Y0195567D01*
X0260547Y0195595D01*
X0260589Y0195625D01*
X0260628Y0195659D01*
X0260664Y0195695D01*
X0260698Y0195734D01*
X0260728Y0195776D01*
X0260756Y0195820D01*
X0260780Y0195865D01*
X0260800Y0195912D01*
X0260817Y0195961D01*
X0260831Y0196011D01*
X0260840Y0196061D01*
X0260846Y0196113D01*
X0260848Y0196164D01*
X0260846Y0196215D01*
X0260840Y0196267D01*
X0260831Y0196317D01*
X0260817Y0196367D01*
X0260800Y0196416D01*
X0260780Y0196463D01*
X0260756Y0196509D01*
X0260728Y0196552D01*
X0260698Y0196594D01*
X0260664Y0196633D01*
X0260628Y0196669D01*
X0260589Y0196703D01*
X0260547Y0196733D01*
X0260504Y0196761D01*
X0260458Y0196785D01*
X0260411Y0196805D01*
X0260362Y0196822D01*
X0260312Y0196836D01*
X0260262Y0196845D01*
X0260210Y0196851D01*
X0260159Y0196853D01*
X0259126Y0196853D01*
X0262554Y0196853D02*
X0263587Y0193753D01*
X0264620Y0196853D01*
X0268991Y0197567D02*
X0268991Y0199289D01*
X0268993Y0199340D01*
X0268999Y0199392D01*
X0269008Y0199442D01*
X0269022Y0199492D01*
X0269039Y0199541D01*
X0269059Y0199588D01*
X0269083Y0199633D01*
X0269111Y0199677D01*
X0269141Y0199719D01*
X0269175Y0199758D01*
X0269211Y0199794D01*
X0269250Y0199828D01*
X0269292Y0199858D01*
X0269335Y0199886D01*
X0269381Y0199910D01*
X0269428Y0199930D01*
X0269477Y0199947D01*
X0269527Y0199961D01*
X0269577Y0199970D01*
X0269628Y0199976D01*
X0269680Y0199978D01*
X0270369Y0199978D01*
X0271991Y0199289D02*
X0271991Y0197567D01*
X0271993Y0197516D01*
X0271999Y0197464D01*
X0272008Y0197414D01*
X0272022Y0197364D01*
X0272039Y0197315D01*
X0272059Y0197268D01*
X0272083Y0197223D01*
X0272111Y0197179D01*
X0272141Y0197137D01*
X0272175Y0197098D01*
X0272211Y0197062D01*
X0272250Y0197028D01*
X0272292Y0196998D01*
X0272336Y0196970D01*
X0272381Y0196946D01*
X0272428Y0196926D01*
X0272477Y0196909D01*
X0272527Y0196895D01*
X0272577Y0196886D01*
X0272629Y0196880D01*
X0272680Y0196878D01*
X0273369Y0196878D01*
X0275011Y0196878D02*
X0276733Y0196878D01*
X0275011Y0196878D02*
X0276475Y0198600D01*
X0275958Y0199978D02*
X0275898Y0199976D01*
X0275839Y0199971D01*
X0275780Y0199962D01*
X0275722Y0199950D01*
X0275664Y0199934D01*
X0275608Y0199914D01*
X0275553Y0199892D01*
X0275499Y0199866D01*
X0275447Y0199837D01*
X0275397Y0199805D01*
X0275348Y0199770D01*
X0275302Y0199732D01*
X0275259Y0199691D01*
X0275217Y0199648D01*
X0275179Y0199602D01*
X0275143Y0199555D01*
X0275110Y0199505D01*
X0275081Y0199453D01*
X0275054Y0199400D01*
X0275031Y0199345D01*
X0275010Y0199289D01*
X0276475Y0198601D02*
X0276514Y0198641D01*
X0276551Y0198683D01*
X0276584Y0198728D01*
X0276615Y0198775D01*
X0276642Y0198824D01*
X0276666Y0198875D01*
X0276686Y0198928D01*
X0276703Y0198981D01*
X0276716Y0199036D01*
X0276725Y0199091D01*
X0276731Y0199147D01*
X0276733Y0199203D01*
X0276731Y0199258D01*
X0276725Y0199313D01*
X0276715Y0199368D01*
X0276702Y0199421D01*
X0276684Y0199474D01*
X0276663Y0199525D01*
X0276638Y0199574D01*
X0276610Y0199622D01*
X0276578Y0199667D01*
X0276544Y0199711D01*
X0276506Y0199751D01*
X0276466Y0199789D01*
X0276422Y0199823D01*
X0276377Y0199855D01*
X0276329Y0199883D01*
X0276280Y0199908D01*
X0276229Y0199929D01*
X0276176Y0199947D01*
X0276123Y0199960D01*
X0276068Y0199970D01*
X0276013Y0199976D01*
X0275958Y0199978D01*
X0273369Y0199978D02*
X0272680Y0199978D01*
X0272628Y0199976D01*
X0272577Y0199970D01*
X0272527Y0199961D01*
X0272477Y0199947D01*
X0272428Y0199930D01*
X0272381Y0199910D01*
X0272335Y0199886D01*
X0272292Y0199858D01*
X0272250Y0199828D01*
X0272211Y0199794D01*
X0272175Y0199758D01*
X0272141Y0199719D01*
X0272111Y0199677D01*
X0272083Y0199633D01*
X0272059Y0199588D01*
X0272039Y0199541D01*
X0272022Y0199492D01*
X0272008Y0199442D01*
X0271999Y0199392D01*
X0271993Y0199340D01*
X0271991Y0199289D01*
X0269680Y0196878D02*
X0269629Y0196880D01*
X0269577Y0196886D01*
X0269527Y0196895D01*
X0269477Y0196909D01*
X0269428Y0196926D01*
X0269381Y0196946D01*
X0269336Y0196970D01*
X0269292Y0196998D01*
X0269250Y0197028D01*
X0269211Y0197062D01*
X0269175Y0197098D01*
X0269141Y0197137D01*
X0269111Y0197179D01*
X0269083Y0197223D01*
X0269059Y0197268D01*
X0269039Y0197315D01*
X0269022Y0197364D01*
X0269008Y0197414D01*
X0268999Y0197464D01*
X0268993Y0197516D01*
X0268991Y0197567D01*
X0269680Y0196878D02*
X0270369Y0196878D01*
X0218784Y0212503D02*
X0217062Y0212503D01*
X0218526Y0214225D01*
X0218009Y0215603D02*
X0217949Y0215601D01*
X0217890Y0215596D01*
X0217831Y0215587D01*
X0217773Y0215575D01*
X0217715Y0215559D01*
X0217659Y0215539D01*
X0217604Y0215517D01*
X0217550Y0215491D01*
X0217498Y0215462D01*
X0217448Y0215430D01*
X0217399Y0215395D01*
X0217353Y0215357D01*
X0217310Y0215316D01*
X0217268Y0215273D01*
X0217230Y0215227D01*
X0217194Y0215180D01*
X0217161Y0215130D01*
X0217132Y0215078D01*
X0217105Y0215025D01*
X0217082Y0214970D01*
X0217061Y0214914D01*
X0218526Y0214226D02*
X0218565Y0214266D01*
X0218602Y0214308D01*
X0218635Y0214353D01*
X0218666Y0214400D01*
X0218693Y0214449D01*
X0218717Y0214500D01*
X0218737Y0214553D01*
X0218754Y0214606D01*
X0218767Y0214661D01*
X0218776Y0214716D01*
X0218782Y0214772D01*
X0218784Y0214828D01*
X0218782Y0214883D01*
X0218776Y0214938D01*
X0218766Y0214993D01*
X0218753Y0215046D01*
X0218735Y0215099D01*
X0218714Y0215150D01*
X0218689Y0215199D01*
X0218661Y0215247D01*
X0218629Y0215292D01*
X0218595Y0215336D01*
X0218557Y0215376D01*
X0218517Y0215414D01*
X0218473Y0215448D01*
X0218428Y0215480D01*
X0218380Y0215508D01*
X0218331Y0215533D01*
X0218280Y0215554D01*
X0218227Y0215572D01*
X0218174Y0215585D01*
X0218119Y0215595D01*
X0218064Y0215601D01*
X0218009Y0215603D01*
X0215065Y0214742D02*
X0215065Y0213364D01*
X0215064Y0213364D02*
X0215062Y0213308D01*
X0215057Y0213252D01*
X0215047Y0213196D01*
X0215035Y0213141D01*
X0215018Y0213087D01*
X0214998Y0213035D01*
X0214975Y0212983D01*
X0214949Y0212934D01*
X0214919Y0212886D01*
X0214886Y0212840D01*
X0214850Y0212796D01*
X0214812Y0212755D01*
X0214771Y0212717D01*
X0214727Y0212681D01*
X0214681Y0212648D01*
X0214634Y0212618D01*
X0214584Y0212592D01*
X0214532Y0212569D01*
X0214480Y0212549D01*
X0214426Y0212532D01*
X0214371Y0212520D01*
X0214315Y0212510D01*
X0214259Y0212505D01*
X0214203Y0212503D01*
X0213342Y0212503D01*
X0213342Y0215603D01*
X0214203Y0215603D01*
X0214259Y0215601D01*
X0214315Y0215596D01*
X0214371Y0215586D01*
X0214426Y0215574D01*
X0214480Y0215557D01*
X0214532Y0215537D01*
X0214584Y0215514D01*
X0214634Y0215488D01*
X0214681Y0215458D01*
X0214727Y0215425D01*
X0214771Y0215389D01*
X0214812Y0215351D01*
X0214850Y0215310D01*
X0214886Y0215266D01*
X0214919Y0215220D01*
X0214949Y0215172D01*
X0214975Y0215123D01*
X0214998Y0215071D01*
X0215018Y0215019D01*
X0215035Y0214965D01*
X0215047Y0214910D01*
X0215057Y0214854D01*
X0215062Y0214798D01*
X0215064Y0214742D01*
X0211614Y0215603D02*
X0210236Y0215603D01*
X0210236Y0212503D01*
X0211614Y0212503D01*
X0211269Y0214225D02*
X0210236Y0214225D01*
X0208494Y0212503D02*
X0207116Y0212503D01*
X0207116Y0215603D01*
X0260055Y0138413D02*
X0260106Y0138411D01*
X0260158Y0138405D01*
X0260208Y0138396D01*
X0260258Y0138382D01*
X0260307Y0138365D01*
X0260354Y0138345D01*
X0260400Y0138321D01*
X0260443Y0138293D01*
X0260485Y0138263D01*
X0260524Y0138229D01*
X0260560Y0138193D01*
X0260594Y0138154D01*
X0260624Y0138112D01*
X0260652Y0138069D01*
X0260676Y0138023D01*
X0260696Y0137976D01*
X0260713Y0137927D01*
X0260727Y0137877D01*
X0260736Y0137827D01*
X0260742Y0137775D01*
X0260744Y0137724D01*
X0260742Y0137673D01*
X0260736Y0137621D01*
X0260727Y0137571D01*
X0260713Y0137521D01*
X0260696Y0137472D01*
X0260676Y0137425D01*
X0260652Y0137380D01*
X0260624Y0137336D01*
X0260594Y0137294D01*
X0260560Y0137255D01*
X0260524Y0137219D01*
X0260485Y0137185D01*
X0260443Y0137155D01*
X0260400Y0137127D01*
X0260354Y0137103D01*
X0260307Y0137083D01*
X0260258Y0137066D01*
X0260208Y0137052D01*
X0260158Y0137043D01*
X0260106Y0137037D01*
X0260055Y0137035D01*
X0260004Y0137037D01*
X0259952Y0137043D01*
X0259902Y0137052D01*
X0259852Y0137066D01*
X0259803Y0137083D01*
X0259756Y0137103D01*
X0259711Y0137127D01*
X0259667Y0137155D01*
X0259625Y0137185D01*
X0259586Y0137219D01*
X0259550Y0137255D01*
X0259516Y0137294D01*
X0259486Y0137336D01*
X0259458Y0137380D01*
X0259434Y0137425D01*
X0259414Y0137472D01*
X0259397Y0137521D01*
X0259383Y0137571D01*
X0259374Y0137621D01*
X0259368Y0137673D01*
X0259366Y0137724D01*
X0259368Y0137775D01*
X0259374Y0137827D01*
X0259383Y0137877D01*
X0259397Y0137927D01*
X0259414Y0137976D01*
X0259434Y0138023D01*
X0259458Y0138069D01*
X0259486Y0138112D01*
X0259516Y0138154D01*
X0259550Y0138193D01*
X0259586Y0138229D01*
X0259625Y0138263D01*
X0259667Y0138293D01*
X0259711Y0138321D01*
X0259756Y0138345D01*
X0259803Y0138365D01*
X0259852Y0138382D01*
X0259902Y0138396D01*
X0259952Y0138405D01*
X0260004Y0138411D01*
X0260055Y0138413D01*
X0261605Y0138585D02*
X0261663Y0138583D01*
X0261720Y0138577D01*
X0261776Y0138568D01*
X0261832Y0138554D01*
X0261887Y0138537D01*
X0261941Y0138517D01*
X0261993Y0138492D01*
X0262044Y0138465D01*
X0262092Y0138434D01*
X0262139Y0138400D01*
X0262183Y0138363D01*
X0262224Y0138323D01*
X0262263Y0138280D01*
X0262298Y0138235D01*
X0262331Y0138187D01*
X0262360Y0138138D01*
X0262386Y0138086D01*
X0262408Y0138033D01*
X0262427Y0137979D01*
X0262443Y0137924D01*
X0262454Y0137867D01*
X0262462Y0137810D01*
X0262466Y0137753D01*
X0262466Y0137695D01*
X0262462Y0137638D01*
X0262454Y0137581D01*
X0262443Y0137524D01*
X0262427Y0137469D01*
X0262408Y0137415D01*
X0262386Y0137362D01*
X0262360Y0137310D01*
X0262331Y0137261D01*
X0262298Y0137213D01*
X0262263Y0137168D01*
X0262224Y0137125D01*
X0262183Y0137085D01*
X0262139Y0137048D01*
X0262092Y0137014D01*
X0262044Y0136983D01*
X0261993Y0136956D01*
X0261941Y0136931D01*
X0261887Y0136911D01*
X0261832Y0136894D01*
X0261776Y0136880D01*
X0261720Y0136871D01*
X0261663Y0136865D01*
X0261605Y0136863D01*
X0261547Y0136865D01*
X0261490Y0136871D01*
X0261434Y0136880D01*
X0261378Y0136894D01*
X0261323Y0136911D01*
X0261269Y0136931D01*
X0261217Y0136956D01*
X0261166Y0136983D01*
X0261118Y0137014D01*
X0261071Y0137048D01*
X0261027Y0137085D01*
X0260986Y0137125D01*
X0260947Y0137168D01*
X0260912Y0137213D01*
X0260879Y0137261D01*
X0260850Y0137310D01*
X0260824Y0137362D01*
X0260802Y0137415D01*
X0260783Y0137469D01*
X0260767Y0137524D01*
X0260756Y0137581D01*
X0260748Y0137638D01*
X0260744Y0137695D01*
X0260744Y0137753D01*
X0260748Y0137810D01*
X0260756Y0137867D01*
X0260767Y0137924D01*
X0260783Y0137979D01*
X0260802Y0138033D01*
X0260824Y0138086D01*
X0260850Y0138138D01*
X0260879Y0138187D01*
X0260912Y0138235D01*
X0260947Y0138280D01*
X0260986Y0138323D01*
X0261027Y0138363D01*
X0261071Y0138400D01*
X0261118Y0138434D01*
X0261166Y0138465D01*
X0261217Y0138492D01*
X0261269Y0138517D01*
X0261323Y0138537D01*
X0261378Y0138554D01*
X0261434Y0138568D01*
X0261490Y0138577D01*
X0261547Y0138583D01*
X0261605Y0138585D01*
X0262466Y0134865D02*
X0259366Y0134865D01*
X0259366Y0133143D02*
X0262466Y0134865D01*
X0262466Y0133143D02*
X0259366Y0133143D01*
X0259366Y0131381D02*
X0259366Y0130692D01*
X0259368Y0130640D01*
X0259374Y0130589D01*
X0259383Y0130539D01*
X0259397Y0130489D01*
X0259414Y0130440D01*
X0259434Y0130393D01*
X0259458Y0130347D01*
X0259486Y0130304D01*
X0259516Y0130262D01*
X0259550Y0130223D01*
X0259586Y0130187D01*
X0259625Y0130153D01*
X0259667Y0130123D01*
X0259711Y0130095D01*
X0259756Y0130071D01*
X0259803Y0130051D01*
X0259852Y0130034D01*
X0259902Y0130020D01*
X0259952Y0130011D01*
X0260004Y0130005D01*
X0260055Y0130003D01*
X0261777Y0130003D01*
X0261828Y0130005D01*
X0261880Y0130011D01*
X0261930Y0130020D01*
X0261980Y0130034D01*
X0262029Y0130051D01*
X0262076Y0130071D01*
X0262122Y0130095D01*
X0262165Y0130123D01*
X0262207Y0130153D01*
X0262246Y0130187D01*
X0262282Y0130223D01*
X0262316Y0130262D01*
X0262346Y0130304D01*
X0262374Y0130348D01*
X0262398Y0130393D01*
X0262418Y0130440D01*
X0262435Y0130489D01*
X0262449Y0130539D01*
X0262458Y0130589D01*
X0262464Y0130641D01*
X0262466Y0130692D01*
X0262466Y0131381D01*
X0259366Y0123585D02*
X0262466Y0122724D01*
X0262466Y0119865D02*
X0259366Y0119865D01*
X0259366Y0118143D02*
X0262466Y0119865D01*
X0262466Y0118143D02*
X0259366Y0118143D01*
X0259366Y0116381D02*
X0259366Y0115692D01*
X0259368Y0115640D01*
X0259374Y0115589D01*
X0259383Y0115539D01*
X0259397Y0115489D01*
X0259414Y0115440D01*
X0259434Y0115393D01*
X0259458Y0115347D01*
X0259486Y0115304D01*
X0259516Y0115262D01*
X0259550Y0115223D01*
X0259586Y0115187D01*
X0259625Y0115153D01*
X0259667Y0115123D01*
X0259711Y0115095D01*
X0259756Y0115071D01*
X0259803Y0115051D01*
X0259852Y0115034D01*
X0259902Y0115020D01*
X0259952Y0115011D01*
X0260004Y0115005D01*
X0260055Y0115003D01*
X0261777Y0115003D01*
X0261828Y0115005D01*
X0261880Y0115011D01*
X0261930Y0115020D01*
X0261980Y0115034D01*
X0262029Y0115051D01*
X0262076Y0115071D01*
X0262122Y0115095D01*
X0262165Y0115123D01*
X0262207Y0115153D01*
X0262246Y0115187D01*
X0262282Y0115223D01*
X0262316Y0115262D01*
X0262346Y0115304D01*
X0262374Y0115348D01*
X0262398Y0115393D01*
X0262418Y0115440D01*
X0262435Y0115489D01*
X0262449Y0115539D01*
X0262458Y0115589D01*
X0262464Y0115641D01*
X0262466Y0115692D01*
X0262466Y0116381D01*
X0259710Y0121863D02*
X0259366Y0121863D01*
X0259366Y0123585D01*
X0261466Y0109103D02*
X0261466Y0107381D01*
X0261466Y0108242D02*
X0258366Y0108242D01*
X0259055Y0107381D01*
X0258366Y0105739D02*
X0258366Y0105050D01*
X0258368Y0104998D01*
X0258374Y0104947D01*
X0258383Y0104897D01*
X0258397Y0104847D01*
X0258414Y0104798D01*
X0258434Y0104751D01*
X0258458Y0104705D01*
X0258486Y0104662D01*
X0258516Y0104620D01*
X0258550Y0104581D01*
X0258586Y0104545D01*
X0258625Y0104511D01*
X0258667Y0104481D01*
X0258711Y0104453D01*
X0258756Y0104429D01*
X0258803Y0104409D01*
X0258852Y0104392D01*
X0258902Y0104378D01*
X0258952Y0104369D01*
X0259004Y0104363D01*
X0259055Y0104361D01*
X0260777Y0104361D01*
X0260828Y0104363D01*
X0260880Y0104369D01*
X0260930Y0104378D01*
X0260980Y0104392D01*
X0261029Y0104409D01*
X0261076Y0104429D01*
X0261122Y0104453D01*
X0261165Y0104481D01*
X0261207Y0104511D01*
X0261246Y0104545D01*
X0261282Y0104581D01*
X0261316Y0104620D01*
X0261346Y0104662D01*
X0261374Y0104706D01*
X0261398Y0104751D01*
X0261418Y0104798D01*
X0261435Y0104847D01*
X0261449Y0104897D01*
X0261458Y0104947D01*
X0261464Y0104999D01*
X0261466Y0105050D01*
X0261466Y0105739D01*
X0261466Y0101882D02*
X0258366Y0101882D01*
X0258366Y0101021D02*
X0258366Y0102743D01*
X0258366Y0099263D02*
X0261466Y0099263D01*
X0258366Y0097541D01*
X0261466Y0097541D01*
X0266555Y0089978D02*
X0267244Y0089978D01*
X0266555Y0089978D02*
X0266503Y0089976D01*
X0266452Y0089970D01*
X0266402Y0089961D01*
X0266352Y0089947D01*
X0266303Y0089930D01*
X0266256Y0089910D01*
X0266210Y0089886D01*
X0266167Y0089858D01*
X0266125Y0089828D01*
X0266086Y0089794D01*
X0266050Y0089758D01*
X0266016Y0089719D01*
X0265986Y0089677D01*
X0265958Y0089633D01*
X0265934Y0089588D01*
X0265914Y0089541D01*
X0265897Y0089492D01*
X0265883Y0089442D01*
X0265874Y0089392D01*
X0265868Y0089340D01*
X0265866Y0089289D01*
X0265866Y0087567D01*
X0265868Y0087516D01*
X0265874Y0087464D01*
X0265883Y0087414D01*
X0265897Y0087364D01*
X0265914Y0087315D01*
X0265934Y0087268D01*
X0265958Y0087223D01*
X0265986Y0087179D01*
X0266016Y0087137D01*
X0266050Y0087098D01*
X0266086Y0087062D01*
X0266125Y0087028D01*
X0266167Y0086998D01*
X0266211Y0086970D01*
X0266256Y0086946D01*
X0266303Y0086926D01*
X0266352Y0086909D01*
X0266402Y0086895D01*
X0266452Y0086886D01*
X0266504Y0086880D01*
X0266555Y0086878D01*
X0267244Y0086878D01*
X0269006Y0086878D02*
X0269006Y0089978D01*
X0270728Y0086878D01*
X0270728Y0089978D01*
X0274190Y0088601D02*
X0274229Y0088641D01*
X0274266Y0088683D01*
X0274299Y0088728D01*
X0274330Y0088775D01*
X0274357Y0088824D01*
X0274381Y0088875D01*
X0274401Y0088928D01*
X0274418Y0088981D01*
X0274431Y0089036D01*
X0274440Y0089091D01*
X0274446Y0089147D01*
X0274448Y0089203D01*
X0274190Y0088600D02*
X0272726Y0086878D01*
X0274448Y0086878D01*
X0272725Y0089289D02*
X0272746Y0089345D01*
X0272769Y0089400D01*
X0272796Y0089453D01*
X0272825Y0089505D01*
X0272858Y0089555D01*
X0272894Y0089602D01*
X0272932Y0089648D01*
X0272974Y0089691D01*
X0273017Y0089732D01*
X0273063Y0089770D01*
X0273112Y0089805D01*
X0273162Y0089837D01*
X0273214Y0089866D01*
X0273268Y0089892D01*
X0273323Y0089914D01*
X0273379Y0089934D01*
X0273437Y0089950D01*
X0273495Y0089962D01*
X0273554Y0089971D01*
X0273613Y0089976D01*
X0273673Y0089978D01*
X0273728Y0089976D01*
X0273783Y0089970D01*
X0273838Y0089960D01*
X0273891Y0089947D01*
X0273944Y0089929D01*
X0273995Y0089908D01*
X0274044Y0089883D01*
X0274092Y0089855D01*
X0274137Y0089823D01*
X0274181Y0089789D01*
X0274221Y0089751D01*
X0274259Y0089711D01*
X0274293Y0089667D01*
X0274325Y0089622D01*
X0274353Y0089574D01*
X0274378Y0089525D01*
X0274399Y0089474D01*
X0274417Y0089421D01*
X0274430Y0089368D01*
X0274440Y0089313D01*
X0274446Y0089258D01*
X0274448Y0089203D01*
X0278366Y0080353D02*
X0279399Y0077253D01*
X0280433Y0080353D01*
X0282070Y0078631D02*
X0282070Y0077942D01*
X0282072Y0077891D01*
X0282078Y0077839D01*
X0282087Y0077789D01*
X0282101Y0077739D01*
X0282118Y0077690D01*
X0282138Y0077643D01*
X0282162Y0077598D01*
X0282190Y0077554D01*
X0282220Y0077512D01*
X0282254Y0077473D01*
X0282290Y0077437D01*
X0282329Y0077403D01*
X0282371Y0077373D01*
X0282415Y0077345D01*
X0282460Y0077321D01*
X0282507Y0077301D01*
X0282556Y0077284D01*
X0282606Y0077270D01*
X0282656Y0077261D01*
X0282708Y0077255D01*
X0282759Y0077253D01*
X0282810Y0077255D01*
X0282862Y0077261D01*
X0282912Y0077270D01*
X0282962Y0077284D01*
X0283011Y0077301D01*
X0283058Y0077321D01*
X0283104Y0077345D01*
X0283147Y0077373D01*
X0283189Y0077403D01*
X0283228Y0077437D01*
X0283264Y0077473D01*
X0283298Y0077512D01*
X0283328Y0077554D01*
X0283356Y0077598D01*
X0283380Y0077643D01*
X0283400Y0077690D01*
X0283417Y0077739D01*
X0283431Y0077789D01*
X0283440Y0077839D01*
X0283446Y0077891D01*
X0283448Y0077942D01*
X0283448Y0078631D01*
X0283446Y0078682D01*
X0283440Y0078734D01*
X0283431Y0078784D01*
X0283417Y0078834D01*
X0283400Y0078883D01*
X0283380Y0078930D01*
X0283356Y0078976D01*
X0283328Y0079019D01*
X0283298Y0079061D01*
X0283264Y0079100D01*
X0283228Y0079136D01*
X0283189Y0079170D01*
X0283147Y0079200D01*
X0283104Y0079228D01*
X0283058Y0079252D01*
X0283011Y0079272D01*
X0282962Y0079289D01*
X0282912Y0079303D01*
X0282862Y0079312D01*
X0282810Y0079318D01*
X0282759Y0079320D01*
X0282708Y0079318D01*
X0282656Y0079312D01*
X0282606Y0079303D01*
X0282556Y0079289D01*
X0282507Y0079272D01*
X0282460Y0079252D01*
X0282415Y0079228D01*
X0282371Y0079200D01*
X0282329Y0079170D01*
X0282290Y0079136D01*
X0282254Y0079100D01*
X0282220Y0079061D01*
X0282190Y0079019D01*
X0282162Y0078976D01*
X0282138Y0078930D01*
X0282118Y0078883D01*
X0282101Y0078834D01*
X0282087Y0078784D01*
X0282078Y0078734D01*
X0282072Y0078682D01*
X0282070Y0078631D01*
X0285310Y0079320D02*
X0285310Y0077770D01*
X0285312Y0077727D01*
X0285317Y0077685D01*
X0285326Y0077643D01*
X0285338Y0077602D01*
X0285354Y0077562D01*
X0285372Y0077524D01*
X0285394Y0077487D01*
X0285419Y0077452D01*
X0285447Y0077420D01*
X0285477Y0077390D01*
X0285509Y0077362D01*
X0285544Y0077337D01*
X0285581Y0077315D01*
X0285619Y0077297D01*
X0285659Y0077281D01*
X0285700Y0077269D01*
X0285742Y0077260D01*
X0285784Y0077255D01*
X0285827Y0077253D01*
X0286688Y0077253D01*
X0286688Y0079320D01*
X0288187Y0079320D02*
X0289220Y0079320D01*
X0288531Y0080353D02*
X0288531Y0077770D01*
X0288533Y0077727D01*
X0288538Y0077685D01*
X0288547Y0077643D01*
X0288559Y0077602D01*
X0288575Y0077562D01*
X0288593Y0077524D01*
X0288615Y0077487D01*
X0288640Y0077452D01*
X0288668Y0077420D01*
X0288698Y0077390D01*
X0288730Y0077362D01*
X0288765Y0077337D01*
X0288802Y0077315D01*
X0288840Y0077297D01*
X0288880Y0077281D01*
X0288921Y0077269D01*
X0288963Y0077260D01*
X0289005Y0077255D01*
X0289048Y0077253D01*
X0289220Y0077253D01*
X0288258Y0071425D02*
X0288360Y0071390D01*
X0288463Y0071359D01*
X0288567Y0071332D01*
X0288672Y0071309D01*
X0288777Y0071290D01*
X0288884Y0071275D01*
X0288991Y0071263D01*
X0289098Y0071256D01*
X0289205Y0071252D01*
X0289206Y0071253D02*
X0289247Y0071254D01*
X0289288Y0071260D01*
X0289328Y0071268D01*
X0289368Y0071281D01*
X0289406Y0071297D01*
X0289442Y0071317D01*
X0289477Y0071340D01*
X0289509Y0071366D01*
X0289538Y0071395D01*
X0289565Y0071426D01*
X0289589Y0071460D01*
X0289610Y0071496D01*
X0289627Y0071533D01*
X0289640Y0071572D01*
X0289650Y0071612D01*
X0289657Y0071653D01*
X0289659Y0071694D01*
X0289658Y0071736D01*
X0289652Y0071777D01*
X0289643Y0071817D01*
X0289631Y0071856D01*
X0289614Y0071895D01*
X0289595Y0071931D01*
X0289572Y0071965D01*
X0289546Y0071997D01*
X0289517Y0072027D01*
X0289485Y0072054D01*
X0289452Y0072077D01*
X0289416Y0072098D01*
X0289378Y0072115D01*
X0289377Y0072114D02*
X0288516Y0072459D01*
X0288516Y0072458D02*
X0288478Y0072475D01*
X0288442Y0072496D01*
X0288409Y0072519D01*
X0288377Y0072546D01*
X0288348Y0072576D01*
X0288322Y0072608D01*
X0288299Y0072642D01*
X0288280Y0072678D01*
X0288263Y0072717D01*
X0288251Y0072756D01*
X0288242Y0072796D01*
X0288236Y0072837D01*
X0288235Y0072879D01*
X0288237Y0072920D01*
X0288244Y0072961D01*
X0288254Y0073001D01*
X0288267Y0073040D01*
X0288284Y0073077D01*
X0288305Y0073113D01*
X0288329Y0073147D01*
X0288356Y0073179D01*
X0288385Y0073207D01*
X0288417Y0073233D01*
X0288452Y0073256D01*
X0288488Y0073276D01*
X0288526Y0073292D01*
X0288566Y0073305D01*
X0288606Y0073314D01*
X0288647Y0073319D01*
X0288688Y0073320D01*
X0288689Y0073320D02*
X0288769Y0073317D01*
X0288849Y0073311D01*
X0288928Y0073302D01*
X0289007Y0073289D01*
X0289085Y0073273D01*
X0289163Y0073254D01*
X0289240Y0073232D01*
X0289316Y0073207D01*
X0289390Y0073179D01*
X0289464Y0073148D01*
X0291378Y0072631D02*
X0291378Y0071770D01*
X0291378Y0072286D02*
X0292756Y0072286D01*
X0292756Y0072631D01*
X0292754Y0072682D01*
X0292748Y0072734D01*
X0292739Y0072784D01*
X0292725Y0072834D01*
X0292708Y0072883D01*
X0292688Y0072930D01*
X0292664Y0072976D01*
X0292636Y0073019D01*
X0292606Y0073061D01*
X0292572Y0073100D01*
X0292536Y0073136D01*
X0292497Y0073170D01*
X0292455Y0073200D01*
X0292412Y0073228D01*
X0292366Y0073252D01*
X0292319Y0073272D01*
X0292270Y0073289D01*
X0292220Y0073303D01*
X0292170Y0073312D01*
X0292118Y0073318D01*
X0292067Y0073320D01*
X0292016Y0073318D01*
X0291964Y0073312D01*
X0291914Y0073303D01*
X0291864Y0073289D01*
X0291815Y0073272D01*
X0291768Y0073252D01*
X0291723Y0073228D01*
X0291679Y0073200D01*
X0291637Y0073170D01*
X0291598Y0073136D01*
X0291562Y0073100D01*
X0291528Y0073061D01*
X0291498Y0073019D01*
X0291470Y0072976D01*
X0291446Y0072930D01*
X0291426Y0072883D01*
X0291409Y0072834D01*
X0291395Y0072784D01*
X0291386Y0072734D01*
X0291380Y0072682D01*
X0291378Y0072631D01*
X0291378Y0071770D02*
X0291380Y0071727D01*
X0291385Y0071685D01*
X0291394Y0071643D01*
X0291406Y0071602D01*
X0291422Y0071562D01*
X0291440Y0071524D01*
X0291462Y0071487D01*
X0291487Y0071452D01*
X0291515Y0071420D01*
X0291545Y0071390D01*
X0291577Y0071362D01*
X0291612Y0071337D01*
X0291649Y0071315D01*
X0291687Y0071297D01*
X0291727Y0071281D01*
X0291768Y0071269D01*
X0291810Y0071260D01*
X0291852Y0071255D01*
X0291895Y0071253D01*
X0292756Y0071253D01*
X0286396Y0071253D02*
X0286396Y0072803D01*
X0286394Y0072846D01*
X0286389Y0072888D01*
X0286380Y0072930D01*
X0286368Y0072971D01*
X0286352Y0073011D01*
X0286334Y0073049D01*
X0286312Y0073086D01*
X0286287Y0073121D01*
X0286259Y0073153D01*
X0286229Y0073183D01*
X0286197Y0073211D01*
X0286162Y0073236D01*
X0286125Y0073258D01*
X0286087Y0073276D01*
X0286047Y0073292D01*
X0286006Y0073304D01*
X0285964Y0073313D01*
X0285922Y0073318D01*
X0285879Y0073320D01*
X0285018Y0073320D01*
X0285018Y0071253D01*
X0283156Y0071253D02*
X0282295Y0071253D01*
X0282252Y0071255D01*
X0282210Y0071260D01*
X0282168Y0071269D01*
X0282127Y0071281D01*
X0282087Y0071297D01*
X0282049Y0071315D01*
X0282012Y0071337D01*
X0281977Y0071362D01*
X0281945Y0071390D01*
X0281915Y0071420D01*
X0281887Y0071452D01*
X0281862Y0071487D01*
X0281840Y0071524D01*
X0281822Y0071562D01*
X0281806Y0071602D01*
X0281794Y0071643D01*
X0281785Y0071685D01*
X0281780Y0071727D01*
X0281778Y0071770D01*
X0281778Y0072631D01*
X0281778Y0072286D02*
X0283156Y0072286D01*
X0283156Y0072631D01*
X0283154Y0072682D01*
X0283148Y0072734D01*
X0283139Y0072784D01*
X0283125Y0072834D01*
X0283108Y0072883D01*
X0283088Y0072930D01*
X0283064Y0072976D01*
X0283036Y0073019D01*
X0283006Y0073061D01*
X0282972Y0073100D01*
X0282936Y0073136D01*
X0282897Y0073170D01*
X0282855Y0073200D01*
X0282812Y0073228D01*
X0282766Y0073252D01*
X0282719Y0073272D01*
X0282670Y0073289D01*
X0282620Y0073303D01*
X0282570Y0073312D01*
X0282518Y0073318D01*
X0282467Y0073320D01*
X0282416Y0073318D01*
X0282364Y0073312D01*
X0282314Y0073303D01*
X0282264Y0073289D01*
X0282215Y0073272D01*
X0282168Y0073252D01*
X0282123Y0073228D01*
X0282079Y0073200D01*
X0282037Y0073170D01*
X0281998Y0073136D01*
X0281962Y0073100D01*
X0281928Y0073061D01*
X0281898Y0073019D01*
X0281870Y0072976D01*
X0281846Y0072930D01*
X0281826Y0072883D01*
X0281809Y0072834D01*
X0281795Y0072784D01*
X0281786Y0072734D01*
X0281780Y0072682D01*
X0281778Y0072631D01*
X0279744Y0072545D02*
X0278796Y0073061D01*
X0279141Y0074353D02*
X0279210Y0074351D01*
X0279279Y0074346D01*
X0279348Y0074336D01*
X0279416Y0074323D01*
X0279483Y0074307D01*
X0279550Y0074287D01*
X0279615Y0074263D01*
X0279678Y0074236D01*
X0279741Y0074205D01*
X0279801Y0074172D01*
X0279860Y0074135D01*
X0279916Y0074095D01*
X0278797Y0073061D02*
X0278753Y0073089D01*
X0278711Y0073120D01*
X0278672Y0073154D01*
X0278636Y0073191D01*
X0278602Y0073231D01*
X0278572Y0073273D01*
X0278544Y0073317D01*
X0278520Y0073363D01*
X0278500Y0073410D01*
X0278483Y0073459D01*
X0278469Y0073510D01*
X0278460Y0073561D01*
X0278454Y0073612D01*
X0278452Y0073664D01*
X0278454Y0073715D01*
X0278460Y0073767D01*
X0278469Y0073817D01*
X0278483Y0073867D01*
X0278500Y0073916D01*
X0278520Y0073963D01*
X0278544Y0074009D01*
X0278572Y0074052D01*
X0278602Y0074094D01*
X0278636Y0074133D01*
X0278672Y0074169D01*
X0278711Y0074203D01*
X0278753Y0074233D01*
X0278797Y0074261D01*
X0278842Y0074285D01*
X0278889Y0074305D01*
X0278938Y0074322D01*
X0278988Y0074336D01*
X0279038Y0074345D01*
X0279090Y0074351D01*
X0279141Y0074353D01*
X0278366Y0071683D02*
X0278418Y0071634D01*
X0278472Y0071587D01*
X0278528Y0071542D01*
X0278587Y0071501D01*
X0278647Y0071462D01*
X0278710Y0071427D01*
X0278774Y0071394D01*
X0278839Y0071365D01*
X0278906Y0071339D01*
X0278974Y0071316D01*
X0279044Y0071297D01*
X0279114Y0071281D01*
X0279184Y0071269D01*
X0279256Y0071260D01*
X0279327Y0071255D01*
X0279399Y0071253D01*
X0279450Y0071255D01*
X0279502Y0071261D01*
X0279552Y0071270D01*
X0279602Y0071284D01*
X0279651Y0071301D01*
X0279698Y0071321D01*
X0279744Y0071345D01*
X0279787Y0071373D01*
X0279829Y0071403D01*
X0279868Y0071437D01*
X0279904Y0071473D01*
X0279938Y0071512D01*
X0279968Y0071554D01*
X0279996Y0071598D01*
X0280020Y0071643D01*
X0280040Y0071690D01*
X0280057Y0071739D01*
X0280071Y0071789D01*
X0280080Y0071839D01*
X0280086Y0071891D01*
X0280088Y0071942D01*
X0280086Y0071994D01*
X0280080Y0072045D01*
X0280071Y0072096D01*
X0280057Y0072147D01*
X0280040Y0072196D01*
X0280020Y0072243D01*
X0279996Y0072289D01*
X0279968Y0072333D01*
X0279938Y0072375D01*
X0279904Y0072415D01*
X0279868Y0072452D01*
X0279829Y0072486D01*
X0279787Y0072517D01*
X0279743Y0072545D01*
X0256433Y0056603D02*
X0255744Y0054192D01*
X0257466Y0054192D01*
X0256949Y0054881D02*
X0256949Y0053503D01*
X0253746Y0053503D02*
X0253746Y0056603D01*
X0252024Y0056603D02*
X0253746Y0053503D01*
X0252024Y0053503D02*
X0252024Y0056603D01*
X0250262Y0056603D02*
X0249573Y0056603D01*
X0249521Y0056601D01*
X0249470Y0056595D01*
X0249420Y0056586D01*
X0249370Y0056572D01*
X0249321Y0056555D01*
X0249274Y0056535D01*
X0249228Y0056511D01*
X0249185Y0056483D01*
X0249143Y0056453D01*
X0249104Y0056419D01*
X0249068Y0056383D01*
X0249034Y0056344D01*
X0249004Y0056302D01*
X0248976Y0056258D01*
X0248952Y0056213D01*
X0248932Y0056166D01*
X0248915Y0056117D01*
X0248901Y0056067D01*
X0248892Y0056017D01*
X0248886Y0055965D01*
X0248884Y0055914D01*
X0248884Y0054192D01*
X0248886Y0054141D01*
X0248892Y0054089D01*
X0248901Y0054039D01*
X0248915Y0053989D01*
X0248932Y0053940D01*
X0248952Y0053893D01*
X0248976Y0053848D01*
X0249004Y0053804D01*
X0249034Y0053762D01*
X0249068Y0053723D01*
X0249104Y0053687D01*
X0249143Y0053653D01*
X0249185Y0053623D01*
X0249229Y0053595D01*
X0249274Y0053571D01*
X0249321Y0053551D01*
X0249370Y0053534D01*
X0249420Y0053520D01*
X0249470Y0053511D01*
X0249522Y0053505D01*
X0249573Y0053503D01*
X0250262Y0053503D01*
X0252732Y0058753D02*
X0252732Y0060820D01*
X0254282Y0060820D01*
X0253765Y0060820D02*
X0253765Y0058753D01*
X0254799Y0058753D02*
X0254799Y0060303D01*
X0254797Y0060346D01*
X0254792Y0060388D01*
X0254783Y0060430D01*
X0254771Y0060471D01*
X0254755Y0060511D01*
X0254737Y0060549D01*
X0254715Y0060586D01*
X0254690Y0060621D01*
X0254662Y0060653D01*
X0254632Y0060683D01*
X0254600Y0060711D01*
X0254565Y0060736D01*
X0254528Y0060758D01*
X0254490Y0060776D01*
X0254450Y0060792D01*
X0254409Y0060804D01*
X0254367Y0060813D01*
X0254325Y0060818D01*
X0254282Y0060820D01*
X0250734Y0060131D02*
X0250734Y0059442D01*
X0250732Y0059391D01*
X0250726Y0059339D01*
X0250717Y0059289D01*
X0250703Y0059239D01*
X0250686Y0059190D01*
X0250666Y0059143D01*
X0250642Y0059098D01*
X0250614Y0059054D01*
X0250584Y0059012D01*
X0250550Y0058973D01*
X0250514Y0058937D01*
X0250475Y0058903D01*
X0250433Y0058873D01*
X0250390Y0058845D01*
X0250344Y0058821D01*
X0250297Y0058801D01*
X0250248Y0058784D01*
X0250198Y0058770D01*
X0250148Y0058761D01*
X0250096Y0058755D01*
X0250045Y0058753D01*
X0249994Y0058755D01*
X0249942Y0058761D01*
X0249892Y0058770D01*
X0249842Y0058784D01*
X0249793Y0058801D01*
X0249746Y0058821D01*
X0249701Y0058845D01*
X0249657Y0058873D01*
X0249615Y0058903D01*
X0249576Y0058937D01*
X0249540Y0058973D01*
X0249506Y0059012D01*
X0249476Y0059054D01*
X0249448Y0059098D01*
X0249424Y0059143D01*
X0249404Y0059190D01*
X0249387Y0059239D01*
X0249373Y0059289D01*
X0249364Y0059339D01*
X0249358Y0059391D01*
X0249356Y0059442D01*
X0249356Y0060131D01*
X0249358Y0060182D01*
X0249364Y0060234D01*
X0249373Y0060284D01*
X0249387Y0060334D01*
X0249404Y0060383D01*
X0249424Y0060430D01*
X0249448Y0060476D01*
X0249476Y0060519D01*
X0249506Y0060561D01*
X0249540Y0060600D01*
X0249576Y0060636D01*
X0249615Y0060670D01*
X0249657Y0060700D01*
X0249701Y0060728D01*
X0249746Y0060752D01*
X0249793Y0060772D01*
X0249842Y0060789D01*
X0249892Y0060803D01*
X0249942Y0060812D01*
X0249994Y0060818D01*
X0250045Y0060820D01*
X0250096Y0060818D01*
X0250148Y0060812D01*
X0250198Y0060803D01*
X0250248Y0060789D01*
X0250297Y0060772D01*
X0250344Y0060752D01*
X0250390Y0060728D01*
X0250433Y0060700D01*
X0250475Y0060670D01*
X0250514Y0060636D01*
X0250550Y0060600D01*
X0250584Y0060561D01*
X0250614Y0060519D01*
X0250642Y0060476D01*
X0250666Y0060430D01*
X0250686Y0060383D01*
X0250703Y0060334D01*
X0250717Y0060284D01*
X0250726Y0060234D01*
X0250732Y0060182D01*
X0250734Y0060131D01*
X0247747Y0060820D02*
X0246713Y0060820D01*
X0247058Y0061853D02*
X0247058Y0059270D01*
X0247057Y0059270D02*
X0247059Y0059227D01*
X0247064Y0059185D01*
X0247073Y0059143D01*
X0247085Y0059102D01*
X0247101Y0059062D01*
X0247119Y0059024D01*
X0247141Y0058987D01*
X0247166Y0058952D01*
X0247194Y0058920D01*
X0247224Y0058890D01*
X0247256Y0058862D01*
X0247291Y0058837D01*
X0247328Y0058815D01*
X0247366Y0058797D01*
X0247406Y0058781D01*
X0247447Y0058769D01*
X0247489Y0058760D01*
X0247531Y0058755D01*
X0247574Y0058753D01*
X0247747Y0058753D01*
X0245467Y0058753D02*
X0245294Y0058753D01*
X0245251Y0058755D01*
X0245209Y0058760D01*
X0245167Y0058769D01*
X0245126Y0058781D01*
X0245086Y0058797D01*
X0245048Y0058815D01*
X0245011Y0058837D01*
X0244976Y0058862D01*
X0244944Y0058890D01*
X0244914Y0058920D01*
X0244886Y0058952D01*
X0244861Y0058987D01*
X0244839Y0059024D01*
X0244821Y0059062D01*
X0244805Y0059102D01*
X0244793Y0059143D01*
X0244784Y0059185D01*
X0244779Y0059227D01*
X0244777Y0059270D01*
X0244778Y0059270D02*
X0244778Y0061853D01*
X0244433Y0060820D02*
X0245467Y0060820D01*
X0243054Y0060131D02*
X0243054Y0059442D01*
X0243052Y0059391D01*
X0243046Y0059339D01*
X0243037Y0059289D01*
X0243023Y0059239D01*
X0243006Y0059190D01*
X0242986Y0059143D01*
X0242962Y0059098D01*
X0242934Y0059054D01*
X0242904Y0059012D01*
X0242870Y0058973D01*
X0242834Y0058937D01*
X0242795Y0058903D01*
X0242753Y0058873D01*
X0242710Y0058845D01*
X0242664Y0058821D01*
X0242617Y0058801D01*
X0242568Y0058784D01*
X0242518Y0058770D01*
X0242468Y0058761D01*
X0242416Y0058755D01*
X0242365Y0058753D01*
X0242314Y0058755D01*
X0242262Y0058761D01*
X0242212Y0058770D01*
X0242162Y0058784D01*
X0242113Y0058801D01*
X0242066Y0058821D01*
X0242021Y0058845D01*
X0241977Y0058873D01*
X0241935Y0058903D01*
X0241896Y0058937D01*
X0241860Y0058973D01*
X0241826Y0059012D01*
X0241796Y0059054D01*
X0241768Y0059098D01*
X0241744Y0059143D01*
X0241724Y0059190D01*
X0241707Y0059239D01*
X0241693Y0059289D01*
X0241684Y0059339D01*
X0241678Y0059391D01*
X0241676Y0059442D01*
X0241676Y0060131D01*
X0241678Y0060182D01*
X0241684Y0060234D01*
X0241693Y0060284D01*
X0241707Y0060334D01*
X0241724Y0060383D01*
X0241744Y0060430D01*
X0241768Y0060476D01*
X0241796Y0060519D01*
X0241826Y0060561D01*
X0241860Y0060600D01*
X0241896Y0060636D01*
X0241935Y0060670D01*
X0241977Y0060700D01*
X0242021Y0060728D01*
X0242066Y0060752D01*
X0242113Y0060772D01*
X0242162Y0060789D01*
X0242212Y0060803D01*
X0242262Y0060812D01*
X0242314Y0060818D01*
X0242365Y0060820D01*
X0242416Y0060818D01*
X0242468Y0060812D01*
X0242518Y0060803D01*
X0242568Y0060789D01*
X0242617Y0060772D01*
X0242664Y0060752D01*
X0242710Y0060728D01*
X0242753Y0060700D01*
X0242795Y0060670D01*
X0242834Y0060636D01*
X0242870Y0060600D01*
X0242904Y0060561D01*
X0242934Y0060519D01*
X0242962Y0060476D01*
X0242986Y0060430D01*
X0243006Y0060383D01*
X0243023Y0060334D01*
X0243037Y0060284D01*
X0243046Y0060234D01*
X0243052Y0060182D01*
X0243054Y0060131D01*
X0239227Y0060475D02*
X0238366Y0060475D01*
X0239227Y0060475D02*
X0239278Y0060477D01*
X0239330Y0060483D01*
X0239380Y0060492D01*
X0239430Y0060506D01*
X0239479Y0060523D01*
X0239526Y0060543D01*
X0239572Y0060567D01*
X0239615Y0060595D01*
X0239657Y0060625D01*
X0239696Y0060659D01*
X0239732Y0060695D01*
X0239766Y0060734D01*
X0239796Y0060776D01*
X0239824Y0060820D01*
X0239848Y0060865D01*
X0239868Y0060912D01*
X0239885Y0060961D01*
X0239899Y0061011D01*
X0239908Y0061061D01*
X0239914Y0061113D01*
X0239916Y0061164D01*
X0239914Y0061215D01*
X0239908Y0061267D01*
X0239899Y0061317D01*
X0239885Y0061367D01*
X0239868Y0061416D01*
X0239848Y0061463D01*
X0239824Y0061509D01*
X0239796Y0061552D01*
X0239766Y0061594D01*
X0239732Y0061633D01*
X0239696Y0061669D01*
X0239657Y0061703D01*
X0239615Y0061733D01*
X0239572Y0061761D01*
X0239526Y0061785D01*
X0239479Y0061805D01*
X0239430Y0061822D01*
X0239380Y0061836D01*
X0239330Y0061845D01*
X0239278Y0061851D01*
X0239227Y0061853D01*
X0238366Y0061853D01*
X0238366Y0058753D01*
X0239227Y0058753D01*
X0239285Y0058755D01*
X0239342Y0058761D01*
X0239398Y0058770D01*
X0239454Y0058784D01*
X0239509Y0058801D01*
X0239563Y0058821D01*
X0239615Y0058846D01*
X0239666Y0058873D01*
X0239714Y0058904D01*
X0239761Y0058938D01*
X0239805Y0058975D01*
X0239846Y0059015D01*
X0239885Y0059058D01*
X0239920Y0059103D01*
X0239953Y0059151D01*
X0239982Y0059200D01*
X0240008Y0059252D01*
X0240030Y0059305D01*
X0240049Y0059359D01*
X0240065Y0059414D01*
X0240076Y0059471D01*
X0240084Y0059528D01*
X0240088Y0059585D01*
X0240088Y0059643D01*
X0240084Y0059700D01*
X0240076Y0059757D01*
X0240065Y0059814D01*
X0240049Y0059869D01*
X0240030Y0059923D01*
X0240008Y0059976D01*
X0239982Y0060028D01*
X0239953Y0060077D01*
X0239920Y0060125D01*
X0239885Y0060170D01*
X0239846Y0060213D01*
X0239805Y0060253D01*
X0239761Y0060290D01*
X0239714Y0060324D01*
X0239666Y0060355D01*
X0239615Y0060382D01*
X0239563Y0060407D01*
X0239509Y0060427D01*
X0239454Y0060444D01*
X0239398Y0060458D01*
X0239342Y0060467D01*
X0239285Y0060473D01*
X0239227Y0060475D01*
X0211841Y0056978D02*
X0208741Y0056978D01*
X0208741Y0057839D01*
X0208743Y0057897D01*
X0208749Y0057954D01*
X0208758Y0058010D01*
X0208772Y0058066D01*
X0208789Y0058121D01*
X0208809Y0058175D01*
X0208834Y0058227D01*
X0208861Y0058278D01*
X0208892Y0058326D01*
X0208926Y0058373D01*
X0208963Y0058417D01*
X0209003Y0058458D01*
X0209046Y0058497D01*
X0209091Y0058532D01*
X0209139Y0058565D01*
X0209188Y0058594D01*
X0209240Y0058620D01*
X0209293Y0058642D01*
X0209347Y0058661D01*
X0209402Y0058677D01*
X0209459Y0058688D01*
X0209516Y0058696D01*
X0209573Y0058700D01*
X0209631Y0058700D01*
X0209688Y0058696D01*
X0209745Y0058688D01*
X0209802Y0058677D01*
X0209857Y0058661D01*
X0209911Y0058642D01*
X0209964Y0058620D01*
X0210016Y0058594D01*
X0210065Y0058565D01*
X0210113Y0058532D01*
X0210158Y0058497D01*
X0210201Y0058458D01*
X0210241Y0058417D01*
X0210278Y0058373D01*
X0210312Y0058326D01*
X0210343Y0058278D01*
X0210370Y0058227D01*
X0210395Y0058175D01*
X0210415Y0058121D01*
X0210432Y0058066D01*
X0210446Y0058010D01*
X0210455Y0057954D01*
X0210461Y0057897D01*
X0210463Y0057839D01*
X0210463Y0056978D01*
X0211152Y0054786D02*
X0208741Y0054786D01*
X0211152Y0054787D02*
X0211203Y0054785D01*
X0211255Y0054779D01*
X0211305Y0054770D01*
X0211355Y0054756D01*
X0211404Y0054739D01*
X0211451Y0054719D01*
X0211497Y0054695D01*
X0211540Y0054667D01*
X0211582Y0054637D01*
X0211621Y0054603D01*
X0211657Y0054567D01*
X0211691Y0054528D01*
X0211721Y0054486D01*
X0211749Y0054443D01*
X0211773Y0054397D01*
X0211793Y0054350D01*
X0211810Y0054301D01*
X0211824Y0054251D01*
X0211833Y0054201D01*
X0211839Y0054149D01*
X0211841Y0054098D01*
X0211841Y0053753D01*
X0210980Y0060356D02*
X0210119Y0060356D01*
X0210119Y0061390D01*
X0210119Y0060356D02*
X0210047Y0060358D01*
X0209975Y0060364D01*
X0209903Y0060373D01*
X0209832Y0060386D01*
X0209762Y0060403D01*
X0209693Y0060423D01*
X0209625Y0060448D01*
X0209559Y0060475D01*
X0209493Y0060506D01*
X0209430Y0060541D01*
X0209368Y0060578D01*
X0209309Y0060619D01*
X0209252Y0060663D01*
X0209197Y0060710D01*
X0209145Y0060760D01*
X0209095Y0060812D01*
X0209048Y0060867D01*
X0209004Y0060924D01*
X0208963Y0060983D01*
X0208926Y0061045D01*
X0208891Y0061108D01*
X0208860Y0061174D01*
X0208833Y0061240D01*
X0208808Y0061308D01*
X0208788Y0061377D01*
X0208771Y0061447D01*
X0208758Y0061518D01*
X0208749Y0061590D01*
X0208743Y0061662D01*
X0208741Y0061734D01*
X0210119Y0061390D02*
X0210121Y0061441D01*
X0210127Y0061493D01*
X0210136Y0061543D01*
X0210150Y0061593D01*
X0210167Y0061642D01*
X0210187Y0061689D01*
X0210211Y0061735D01*
X0210239Y0061778D01*
X0210269Y0061820D01*
X0210303Y0061859D01*
X0210339Y0061895D01*
X0210378Y0061929D01*
X0210420Y0061959D01*
X0210464Y0061987D01*
X0210509Y0062011D01*
X0210556Y0062031D01*
X0210605Y0062048D01*
X0210655Y0062062D01*
X0210705Y0062071D01*
X0210757Y0062077D01*
X0210808Y0062079D01*
X0210980Y0062079D01*
X0210980Y0062078D02*
X0211038Y0062076D01*
X0211095Y0062070D01*
X0211151Y0062061D01*
X0211207Y0062047D01*
X0211262Y0062030D01*
X0211316Y0062010D01*
X0211368Y0061985D01*
X0211419Y0061958D01*
X0211467Y0061927D01*
X0211514Y0061893D01*
X0211558Y0061856D01*
X0211599Y0061816D01*
X0211638Y0061773D01*
X0211673Y0061728D01*
X0211706Y0061680D01*
X0211735Y0061631D01*
X0211761Y0061579D01*
X0211783Y0061526D01*
X0211802Y0061472D01*
X0211818Y0061417D01*
X0211829Y0061360D01*
X0211837Y0061303D01*
X0211841Y0061246D01*
X0211841Y0061188D01*
X0211837Y0061131D01*
X0211829Y0061074D01*
X0211818Y0061017D01*
X0211802Y0060962D01*
X0211783Y0060908D01*
X0211761Y0060855D01*
X0211735Y0060803D01*
X0211706Y0060754D01*
X0211673Y0060706D01*
X0211638Y0060661D01*
X0211599Y0060618D01*
X0211558Y0060578D01*
X0211514Y0060541D01*
X0211467Y0060507D01*
X0211419Y0060476D01*
X0211368Y0060449D01*
X0211316Y0060424D01*
X0211262Y0060404D01*
X0211207Y0060387D01*
X0211151Y0060373D01*
X0211095Y0060364D01*
X0211038Y0060358D01*
X0210980Y0060356D01*
D11*
X0185383Y0157603D02*
X0183216Y0157603D01*
X0184299Y0157603D02*
X0184299Y0161503D01*
X0183216Y0160636D01*
X0180933Y0161503D02*
X0180066Y0157603D01*
X0179199Y0160203D01*
X0178333Y0157603D01*
X0177466Y0161503D01*
X0173707Y0159878D02*
X0173659Y0159908D01*
X0173613Y0159942D01*
X0173569Y0159979D01*
X0173528Y0160018D01*
X0173489Y0160060D01*
X0173453Y0160104D01*
X0173420Y0160151D01*
X0173390Y0160199D01*
X0173363Y0160250D01*
X0173340Y0160302D01*
X0173320Y0160355D01*
X0173303Y0160410D01*
X0173291Y0160466D01*
X0173281Y0160522D01*
X0173276Y0160579D01*
X0173274Y0160636D01*
X0173276Y0160693D01*
X0173281Y0160749D01*
X0173291Y0160805D01*
X0173304Y0160860D01*
X0173320Y0160915D01*
X0173340Y0160968D01*
X0173363Y0161019D01*
X0173390Y0161070D01*
X0173420Y0161118D01*
X0173453Y0161164D01*
X0173489Y0161208D01*
X0173528Y0161249D01*
X0173569Y0161288D01*
X0173613Y0161324D01*
X0173659Y0161357D01*
X0173708Y0161387D01*
X0173758Y0161414D01*
X0173809Y0161437D01*
X0173862Y0161457D01*
X0173917Y0161473D01*
X0173972Y0161486D01*
X0174028Y0161496D01*
X0174084Y0161501D01*
X0174141Y0161503D01*
X0174216Y0161501D01*
X0174290Y0161496D01*
X0174364Y0161488D01*
X0174438Y0161476D01*
X0174511Y0161460D01*
X0174583Y0161442D01*
X0174655Y0161420D01*
X0174725Y0161394D01*
X0174794Y0161366D01*
X0174862Y0161334D01*
X0174928Y0161300D01*
X0174993Y0161262D01*
X0175055Y0161221D01*
X0175116Y0161178D01*
X0173166Y0158145D02*
X0173227Y0158086D01*
X0173291Y0158030D01*
X0173358Y0157977D01*
X0173426Y0157927D01*
X0173498Y0157880D01*
X0173571Y0157837D01*
X0173646Y0157797D01*
X0173723Y0157761D01*
X0173801Y0157728D01*
X0173881Y0157699D01*
X0173962Y0157674D01*
X0174045Y0157652D01*
X0174128Y0157635D01*
X0174212Y0157621D01*
X0174296Y0157611D01*
X0174381Y0157605D01*
X0174466Y0157603D01*
X0174523Y0157605D01*
X0174579Y0157610D01*
X0174635Y0157620D01*
X0174690Y0157633D01*
X0174745Y0157649D01*
X0174798Y0157669D01*
X0174849Y0157692D01*
X0174900Y0157719D01*
X0174948Y0157749D01*
X0174994Y0157782D01*
X0175038Y0157818D01*
X0175079Y0157857D01*
X0175118Y0157898D01*
X0175154Y0157942D01*
X0175187Y0157988D01*
X0175217Y0158037D01*
X0175244Y0158087D01*
X0175267Y0158138D01*
X0175287Y0158191D01*
X0175303Y0158246D01*
X0175316Y0158301D01*
X0175326Y0158357D01*
X0175331Y0158413D01*
X0175333Y0158470D01*
X0174899Y0159228D02*
X0173708Y0159878D01*
X0174899Y0159228D02*
X0174947Y0159198D01*
X0174993Y0159164D01*
X0175037Y0159127D01*
X0175078Y0159088D01*
X0175117Y0159046D01*
X0175153Y0159002D01*
X0175186Y0158955D01*
X0175216Y0158907D01*
X0175243Y0158856D01*
X0175266Y0158804D01*
X0175286Y0158751D01*
X0175303Y0158696D01*
X0175315Y0158640D01*
X0175325Y0158584D01*
X0175330Y0158527D01*
X0175332Y0158470D01*
X0170174Y0159336D02*
X0169091Y0159336D01*
X0170174Y0159337D02*
X0170238Y0159339D01*
X0170302Y0159345D01*
X0170366Y0159354D01*
X0170428Y0159367D01*
X0170490Y0159384D01*
X0170551Y0159405D01*
X0170611Y0159429D01*
X0170669Y0159457D01*
X0170725Y0159487D01*
X0170779Y0159522D01*
X0170831Y0159559D01*
X0170881Y0159600D01*
X0170928Y0159643D01*
X0170973Y0159689D01*
X0171015Y0159738D01*
X0171054Y0159789D01*
X0171090Y0159842D01*
X0171122Y0159897D01*
X0171152Y0159954D01*
X0171178Y0160013D01*
X0171200Y0160073D01*
X0171219Y0160135D01*
X0171234Y0160197D01*
X0171245Y0160260D01*
X0171253Y0160324D01*
X0171257Y0160388D01*
X0171257Y0160452D01*
X0171253Y0160516D01*
X0171245Y0160580D01*
X0171234Y0160643D01*
X0171219Y0160705D01*
X0171200Y0160767D01*
X0171178Y0160827D01*
X0171152Y0160886D01*
X0171122Y0160943D01*
X0171090Y0160998D01*
X0171054Y0161051D01*
X0171015Y0161102D01*
X0170973Y0161151D01*
X0170928Y0161197D01*
X0170881Y0161240D01*
X0170831Y0161281D01*
X0170779Y0161318D01*
X0170725Y0161353D01*
X0170669Y0161383D01*
X0170611Y0161411D01*
X0170551Y0161435D01*
X0170490Y0161456D01*
X0170428Y0161473D01*
X0170366Y0161486D01*
X0170302Y0161495D01*
X0170238Y0161501D01*
X0170174Y0161503D01*
X0169091Y0161503D01*
X0169091Y0157603D01*
X0082366Y0091086D02*
X0078466Y0091086D01*
X0078466Y0088920D02*
X0082366Y0091086D01*
X0082366Y0088920D02*
X0078466Y0088920D01*
X0078466Y0086686D02*
X0078466Y0085820D01*
X0078466Y0086253D02*
X0082366Y0086253D01*
X0082366Y0085820D02*
X0082366Y0086686D01*
X0082366Y0082653D02*
X0078466Y0083953D01*
X0078466Y0081353D02*
X0082366Y0082653D01*
X0067991Y0082270D02*
X0067991Y0080970D01*
X0067989Y0080913D01*
X0067984Y0080857D01*
X0067974Y0080801D01*
X0067961Y0080746D01*
X0067945Y0080691D01*
X0067925Y0080638D01*
X0067902Y0080587D01*
X0067875Y0080537D01*
X0067845Y0080488D01*
X0067812Y0080442D01*
X0067776Y0080398D01*
X0067737Y0080357D01*
X0067696Y0080318D01*
X0067652Y0080282D01*
X0067606Y0080249D01*
X0067558Y0080219D01*
X0067507Y0080192D01*
X0067456Y0080169D01*
X0067403Y0080149D01*
X0067348Y0080133D01*
X0067293Y0080120D01*
X0067237Y0080110D01*
X0067181Y0080105D01*
X0067124Y0080103D01*
X0064958Y0080103D01*
X0064901Y0080105D01*
X0064845Y0080110D01*
X0064789Y0080120D01*
X0064734Y0080133D01*
X0064679Y0080149D01*
X0064626Y0080169D01*
X0064575Y0080192D01*
X0064525Y0080219D01*
X0064476Y0080249D01*
X0064430Y0080282D01*
X0064386Y0080318D01*
X0064345Y0080357D01*
X0064306Y0080398D01*
X0064270Y0080442D01*
X0064237Y0080488D01*
X0064207Y0080536D01*
X0064180Y0080587D01*
X0064157Y0080638D01*
X0064137Y0080691D01*
X0064121Y0080746D01*
X0064108Y0080801D01*
X0064098Y0080857D01*
X0064093Y0080913D01*
X0064091Y0080970D01*
X0064091Y0082270D01*
X0065824Y0082270D02*
X0067991Y0082270D01*
X0065824Y0082270D02*
X0065824Y0081620D01*
X0064091Y0084903D02*
X0067991Y0087070D01*
X0064091Y0087070D01*
X0064091Y0084903D02*
X0067991Y0084903D01*
X0067991Y0089703D02*
X0064091Y0089703D01*
X0064091Y0090786D01*
X0064093Y0090849D01*
X0064098Y0090912D01*
X0064107Y0090974D01*
X0064120Y0091036D01*
X0064136Y0091097D01*
X0064156Y0091156D01*
X0064180Y0091215D01*
X0064206Y0091272D01*
X0064236Y0091328D01*
X0064269Y0091381D01*
X0064305Y0091433D01*
X0064344Y0091482D01*
X0064386Y0091529D01*
X0064431Y0091574D01*
X0064478Y0091616D01*
X0064527Y0091655D01*
X0064579Y0091691D01*
X0064633Y0091724D01*
X0064688Y0091754D01*
X0064745Y0091780D01*
X0064804Y0091804D01*
X0064863Y0091824D01*
X0064924Y0091840D01*
X0064986Y0091853D01*
X0065048Y0091862D01*
X0065111Y0091867D01*
X0065174Y0091869D01*
X0065174Y0091870D02*
X0066908Y0091870D01*
X0066908Y0091869D02*
X0066971Y0091867D01*
X0067034Y0091862D01*
X0067096Y0091853D01*
X0067158Y0091840D01*
X0067219Y0091824D01*
X0067278Y0091804D01*
X0067337Y0091780D01*
X0067394Y0091754D01*
X0067450Y0091724D01*
X0067503Y0091691D01*
X0067555Y0091655D01*
X0067604Y0091616D01*
X0067651Y0091574D01*
X0067696Y0091529D01*
X0067738Y0091482D01*
X0067777Y0091433D01*
X0067813Y0091381D01*
X0067846Y0091328D01*
X0067876Y0091272D01*
X0067902Y0091215D01*
X0067926Y0091156D01*
X0067946Y0091097D01*
X0067962Y0091036D01*
X0067975Y0090974D01*
X0067984Y0090912D01*
X0067989Y0090849D01*
X0067991Y0090786D01*
X0067991Y0089703D01*
X0270966Y0162603D02*
X0274866Y0163903D01*
X0270966Y0165203D01*
X0272049Y0167320D02*
X0273783Y0167320D01*
X0273847Y0167322D01*
X0273911Y0167328D01*
X0273975Y0167337D01*
X0274037Y0167350D01*
X0274099Y0167367D01*
X0274160Y0167388D01*
X0274220Y0167412D01*
X0274278Y0167440D01*
X0274334Y0167470D01*
X0274388Y0167505D01*
X0274440Y0167542D01*
X0274490Y0167583D01*
X0274537Y0167626D01*
X0274582Y0167672D01*
X0274624Y0167721D01*
X0274663Y0167772D01*
X0274699Y0167825D01*
X0274731Y0167880D01*
X0274761Y0167937D01*
X0274787Y0167996D01*
X0274809Y0168056D01*
X0274828Y0168118D01*
X0274843Y0168180D01*
X0274854Y0168243D01*
X0274862Y0168307D01*
X0274866Y0168371D01*
X0274866Y0168435D01*
X0274862Y0168499D01*
X0274854Y0168563D01*
X0274843Y0168626D01*
X0274828Y0168688D01*
X0274809Y0168750D01*
X0274787Y0168810D01*
X0274761Y0168869D01*
X0274731Y0168926D01*
X0274699Y0168981D01*
X0274663Y0169034D01*
X0274624Y0169085D01*
X0274582Y0169134D01*
X0274537Y0169180D01*
X0274490Y0169223D01*
X0274440Y0169264D01*
X0274388Y0169301D01*
X0274334Y0169336D01*
X0274278Y0169366D01*
X0274220Y0169394D01*
X0274160Y0169418D01*
X0274099Y0169439D01*
X0274037Y0169456D01*
X0273975Y0169469D01*
X0273911Y0169478D01*
X0273847Y0169484D01*
X0273783Y0169486D01*
X0272049Y0169486D01*
X0271985Y0169484D01*
X0271921Y0169478D01*
X0271857Y0169469D01*
X0271795Y0169456D01*
X0271733Y0169439D01*
X0271672Y0169418D01*
X0271612Y0169394D01*
X0271554Y0169366D01*
X0271498Y0169336D01*
X0271444Y0169301D01*
X0271392Y0169264D01*
X0271342Y0169223D01*
X0271295Y0169180D01*
X0271250Y0169134D01*
X0271208Y0169085D01*
X0271169Y0169034D01*
X0271133Y0168981D01*
X0271101Y0168926D01*
X0271071Y0168869D01*
X0271045Y0168810D01*
X0271023Y0168750D01*
X0271004Y0168688D01*
X0270989Y0168626D01*
X0270978Y0168563D01*
X0270970Y0168499D01*
X0270966Y0168435D01*
X0270966Y0168371D01*
X0270970Y0168307D01*
X0270978Y0168243D01*
X0270989Y0168180D01*
X0271004Y0168118D01*
X0271023Y0168056D01*
X0271045Y0167996D01*
X0271071Y0167937D01*
X0271101Y0167880D01*
X0271133Y0167825D01*
X0271169Y0167772D01*
X0271208Y0167721D01*
X0271250Y0167672D01*
X0271295Y0167626D01*
X0271342Y0167583D01*
X0271392Y0167542D01*
X0271444Y0167505D01*
X0271498Y0167470D01*
X0271554Y0167440D01*
X0271612Y0167412D01*
X0271672Y0167388D01*
X0271733Y0167367D01*
X0271795Y0167350D01*
X0271857Y0167337D01*
X0271921Y0167328D01*
X0271985Y0167322D01*
X0272049Y0167320D01*
X0270966Y0171970D02*
X0273783Y0171970D01*
X0273847Y0171972D01*
X0273911Y0171978D01*
X0273975Y0171987D01*
X0274037Y0172000D01*
X0274099Y0172017D01*
X0274160Y0172038D01*
X0274220Y0172062D01*
X0274278Y0172090D01*
X0274334Y0172120D01*
X0274388Y0172155D01*
X0274440Y0172192D01*
X0274490Y0172233D01*
X0274537Y0172276D01*
X0274582Y0172322D01*
X0274624Y0172371D01*
X0274663Y0172422D01*
X0274699Y0172475D01*
X0274731Y0172530D01*
X0274761Y0172587D01*
X0274787Y0172646D01*
X0274809Y0172706D01*
X0274828Y0172768D01*
X0274843Y0172830D01*
X0274854Y0172893D01*
X0274862Y0172957D01*
X0274866Y0173021D01*
X0274866Y0173085D01*
X0274862Y0173149D01*
X0274854Y0173213D01*
X0274843Y0173276D01*
X0274828Y0173338D01*
X0274809Y0173400D01*
X0274787Y0173460D01*
X0274761Y0173519D01*
X0274731Y0173576D01*
X0274699Y0173631D01*
X0274663Y0173684D01*
X0274624Y0173735D01*
X0274582Y0173784D01*
X0274537Y0173830D01*
X0274490Y0173873D01*
X0274440Y0173914D01*
X0274388Y0173951D01*
X0274334Y0173986D01*
X0274278Y0174016D01*
X0274220Y0174044D01*
X0274160Y0174068D01*
X0274099Y0174089D01*
X0274037Y0174106D01*
X0273975Y0174119D01*
X0273911Y0174128D01*
X0273847Y0174134D01*
X0273783Y0174136D01*
X0270966Y0174136D01*
X0270966Y0176320D02*
X0270966Y0178486D01*
X0270966Y0177403D02*
X0274866Y0177403D01*
X0284716Y0173286D02*
X0284716Y0172203D01*
X0288616Y0172203D01*
X0288616Y0173286D01*
X0288614Y0173349D01*
X0288609Y0173412D01*
X0288600Y0173474D01*
X0288587Y0173536D01*
X0288571Y0173597D01*
X0288551Y0173656D01*
X0288527Y0173715D01*
X0288501Y0173772D01*
X0288471Y0173828D01*
X0288438Y0173881D01*
X0288402Y0173933D01*
X0288363Y0173982D01*
X0288321Y0174029D01*
X0288276Y0174074D01*
X0288229Y0174116D01*
X0288180Y0174155D01*
X0288128Y0174191D01*
X0288075Y0174224D01*
X0288019Y0174254D01*
X0287962Y0174280D01*
X0287903Y0174304D01*
X0287844Y0174324D01*
X0287783Y0174340D01*
X0287721Y0174353D01*
X0287659Y0174362D01*
X0287596Y0174367D01*
X0287533Y0174369D01*
X0287533Y0174370D02*
X0285799Y0174370D01*
X0285799Y0174369D02*
X0285736Y0174367D01*
X0285673Y0174362D01*
X0285611Y0174353D01*
X0285549Y0174340D01*
X0285488Y0174324D01*
X0285429Y0174304D01*
X0285370Y0174280D01*
X0285313Y0174254D01*
X0285258Y0174224D01*
X0285204Y0174191D01*
X0285152Y0174155D01*
X0285103Y0174116D01*
X0285056Y0174074D01*
X0285011Y0174029D01*
X0284969Y0173982D01*
X0284930Y0173933D01*
X0284894Y0173881D01*
X0284861Y0173828D01*
X0284831Y0173772D01*
X0284805Y0173715D01*
X0284781Y0173656D01*
X0284761Y0173597D01*
X0284745Y0173536D01*
X0284732Y0173474D01*
X0284723Y0173412D01*
X0284718Y0173349D01*
X0284716Y0173286D01*
X0284716Y0169570D02*
X0288616Y0169570D01*
X0284716Y0167403D01*
X0288616Y0167403D01*
X0288616Y0164770D02*
X0288616Y0163470D01*
X0288614Y0163413D01*
X0288609Y0163357D01*
X0288599Y0163301D01*
X0288586Y0163246D01*
X0288570Y0163191D01*
X0288550Y0163138D01*
X0288527Y0163087D01*
X0288500Y0163037D01*
X0288470Y0162988D01*
X0288437Y0162942D01*
X0288401Y0162898D01*
X0288362Y0162857D01*
X0288321Y0162818D01*
X0288277Y0162782D01*
X0288231Y0162749D01*
X0288183Y0162719D01*
X0288132Y0162692D01*
X0288081Y0162669D01*
X0288028Y0162649D01*
X0287973Y0162633D01*
X0287918Y0162620D01*
X0287862Y0162610D01*
X0287806Y0162605D01*
X0287749Y0162603D01*
X0285583Y0162603D01*
X0285526Y0162605D01*
X0285470Y0162610D01*
X0285414Y0162620D01*
X0285359Y0162633D01*
X0285304Y0162649D01*
X0285251Y0162669D01*
X0285200Y0162692D01*
X0285150Y0162719D01*
X0285101Y0162749D01*
X0285055Y0162782D01*
X0285011Y0162818D01*
X0284970Y0162857D01*
X0284931Y0162898D01*
X0284895Y0162942D01*
X0284862Y0162988D01*
X0284832Y0163036D01*
X0284805Y0163087D01*
X0284782Y0163138D01*
X0284762Y0163191D01*
X0284746Y0163246D01*
X0284733Y0163301D01*
X0284723Y0163357D01*
X0284718Y0163413D01*
X0284716Y0163470D01*
X0284716Y0164770D01*
X0286449Y0164770D02*
X0286449Y0164120D01*
X0286449Y0164770D02*
X0288616Y0164770D01*
D12*
X0227877Y0053224D02*
X0097955Y0053224D01*
X0097955Y0138382D01*
X0102955Y0143382D01*
X0227877Y0143382D01*
X0227877Y0053224D01*
X0234589Y0063746D02*
X0256243Y0063746D01*
X0256305Y0063748D01*
X0256366Y0063754D01*
X0256427Y0063763D01*
X0256488Y0063777D01*
X0256547Y0063794D01*
X0256605Y0063815D01*
X0256662Y0063840D01*
X0256717Y0063868D01*
X0256770Y0063899D01*
X0256821Y0063934D01*
X0256870Y0063972D01*
X0256917Y0064013D01*
X0256960Y0064056D01*
X0257001Y0064103D01*
X0257039Y0064152D01*
X0257074Y0064203D01*
X0257105Y0064256D01*
X0257133Y0064311D01*
X0257158Y0064368D01*
X0257179Y0064426D01*
X0257196Y0064485D01*
X0257210Y0064546D01*
X0257219Y0064607D01*
X0257225Y0064668D01*
X0257227Y0064730D01*
X0257227Y0149376D01*
X0257225Y0149438D01*
X0257219Y0149499D01*
X0257210Y0149560D01*
X0257196Y0149621D01*
X0257179Y0149680D01*
X0257158Y0149738D01*
X0257133Y0149795D01*
X0257105Y0149850D01*
X0257074Y0149903D01*
X0257039Y0149954D01*
X0257001Y0150003D01*
X0256960Y0150050D01*
X0256917Y0150093D01*
X0256870Y0150134D01*
X0256821Y0150172D01*
X0256770Y0150207D01*
X0256717Y0150238D01*
X0256662Y0150266D01*
X0256605Y0150291D01*
X0256547Y0150312D01*
X0256488Y0150329D01*
X0256427Y0150343D01*
X0256366Y0150352D01*
X0256305Y0150358D01*
X0256243Y0150360D01*
X0234589Y0150360D01*
X0234527Y0150358D01*
X0234466Y0150352D01*
X0234405Y0150343D01*
X0234344Y0150329D01*
X0234285Y0150312D01*
X0234227Y0150291D01*
X0234170Y0150266D01*
X0234115Y0150238D01*
X0234062Y0150207D01*
X0234011Y0150172D01*
X0233962Y0150134D01*
X0233915Y0150093D01*
X0233872Y0150050D01*
X0233831Y0150003D01*
X0233793Y0149954D01*
X0233758Y0149903D01*
X0233727Y0149850D01*
X0233699Y0149795D01*
X0233674Y0149738D01*
X0233653Y0149680D01*
X0233636Y0149621D01*
X0233622Y0149560D01*
X0233613Y0149499D01*
X0233607Y0149438D01*
X0233605Y0149376D01*
X0233605Y0064730D01*
X0233607Y0064668D01*
X0233613Y0064607D01*
X0233622Y0064546D01*
X0233636Y0064485D01*
X0233653Y0064426D01*
X0233674Y0064368D01*
X0233699Y0064311D01*
X0233727Y0064256D01*
X0233758Y0064203D01*
X0233793Y0064152D01*
X0233831Y0064103D01*
X0233872Y0064056D01*
X0233915Y0064013D01*
X0233962Y0063972D01*
X0234011Y0063934D01*
X0234062Y0063899D01*
X0234115Y0063868D01*
X0234170Y0063840D01*
X0234227Y0063815D01*
X0234285Y0063794D01*
X0234344Y0063777D01*
X0234405Y0063763D01*
X0234466Y0063754D01*
X0234527Y0063748D01*
X0234589Y0063746D01*
X0194264Y0050990D02*
X0119067Y0050990D01*
X0119067Y0138116D01*
X0124067Y0143116D01*
X0194264Y0143116D01*
X0194264Y0050990D01*
X0185569Y0143553D02*
X0095262Y0143553D01*
X0095202Y0143555D01*
X0095141Y0143560D01*
X0095082Y0143569D01*
X0095023Y0143582D01*
X0094964Y0143598D01*
X0094907Y0143618D01*
X0094852Y0143641D01*
X0094797Y0143668D01*
X0094745Y0143697D01*
X0094694Y0143730D01*
X0094645Y0143766D01*
X0094599Y0143804D01*
X0094555Y0143846D01*
X0094513Y0143890D01*
X0094475Y0143936D01*
X0094439Y0143985D01*
X0094406Y0144036D01*
X0094377Y0144088D01*
X0094350Y0144143D01*
X0094327Y0144198D01*
X0094307Y0144255D01*
X0094291Y0144314D01*
X0094278Y0144373D01*
X0094269Y0144432D01*
X0094264Y0144493D01*
X0094262Y0144553D01*
X0094262Y0162053D01*
X0094264Y0162113D01*
X0094269Y0162174D01*
X0094278Y0162233D01*
X0094291Y0162292D01*
X0094307Y0162351D01*
X0094327Y0162408D01*
X0094350Y0162463D01*
X0094377Y0162518D01*
X0094406Y0162570D01*
X0094439Y0162621D01*
X0094475Y0162670D01*
X0094513Y0162716D01*
X0094555Y0162760D01*
X0094599Y0162802D01*
X0094645Y0162840D01*
X0094694Y0162876D01*
X0094745Y0162909D01*
X0094797Y0162938D01*
X0094852Y0162965D01*
X0094907Y0162988D01*
X0094964Y0163008D01*
X0095023Y0163024D01*
X0095082Y0163037D01*
X0095141Y0163046D01*
X0095202Y0163051D01*
X0095262Y0163053D01*
X0185569Y0163053D01*
X0185629Y0163051D01*
X0185690Y0163046D01*
X0185749Y0163037D01*
X0185808Y0163024D01*
X0185867Y0163008D01*
X0185924Y0162988D01*
X0185979Y0162965D01*
X0186034Y0162938D01*
X0186086Y0162909D01*
X0186137Y0162876D01*
X0186186Y0162840D01*
X0186232Y0162802D01*
X0186276Y0162760D01*
X0186318Y0162716D01*
X0186356Y0162670D01*
X0186392Y0162621D01*
X0186425Y0162570D01*
X0186454Y0162518D01*
X0186481Y0162463D01*
X0186504Y0162408D01*
X0186524Y0162351D01*
X0186540Y0162292D01*
X0186553Y0162233D01*
X0186562Y0162174D01*
X0186567Y0162113D01*
X0186569Y0162053D01*
X0186569Y0144553D01*
X0186567Y0144493D01*
X0186562Y0144432D01*
X0186553Y0144373D01*
X0186540Y0144314D01*
X0186524Y0144255D01*
X0186504Y0144198D01*
X0186481Y0144143D01*
X0186454Y0144088D01*
X0186425Y0144036D01*
X0186392Y0143985D01*
X0186356Y0143936D01*
X0186318Y0143890D01*
X0186276Y0143846D01*
X0186232Y0143804D01*
X0186186Y0143766D01*
X0186137Y0143730D01*
X0186086Y0143697D01*
X0186034Y0143668D01*
X0185979Y0143641D01*
X0185924Y0143618D01*
X0185867Y0143598D01*
X0185808Y0143582D01*
X0185749Y0143569D01*
X0185690Y0143560D01*
X0185629Y0143555D01*
X0185569Y0143553D01*
X0137751Y0168303D02*
X0137751Y0183303D01*
X0137751Y0183304D02*
X0137746Y0183416D01*
X0137737Y0183528D01*
X0137724Y0183639D01*
X0137708Y0183750D01*
X0137687Y0183861D01*
X0137663Y0183970D01*
X0137635Y0184079D01*
X0137603Y0184187D01*
X0137567Y0184293D01*
X0137528Y0184398D01*
X0137485Y0184502D01*
X0137439Y0184604D01*
X0137388Y0184704D01*
X0137335Y0184803D01*
X0137278Y0184900D01*
X0137218Y0184994D01*
X0137154Y0185087D01*
X0137087Y0185177D01*
X0137017Y0185265D01*
X0136944Y0185350D01*
X0136868Y0185433D01*
X0136790Y0185513D01*
X0136708Y0185590D01*
X0136624Y0185665D01*
X0136538Y0185736D01*
X0136449Y0185804D01*
X0136357Y0185870D01*
X0136264Y0185932D01*
X0136168Y0185990D01*
X0136070Y0186045D01*
X0135971Y0186097D01*
X0135869Y0186146D01*
X0135766Y0186190D01*
X0135662Y0186232D01*
X0135556Y0186269D01*
X0135449Y0186303D01*
X0135341Y0186333D01*
X0135232Y0186359D01*
X0135122Y0186381D01*
X0135011Y0186400D01*
X0134900Y0186414D01*
X0134788Y0186425D01*
X0134676Y0186432D01*
X0134564Y0186435D01*
X0134451Y0186434D01*
X0134451Y0186433D02*
X0101380Y0186433D01*
X0101381Y0186434D02*
X0101268Y0186435D01*
X0101156Y0186432D01*
X0101044Y0186425D01*
X0100932Y0186414D01*
X0100821Y0186400D01*
X0100710Y0186381D01*
X0100600Y0186359D01*
X0100491Y0186333D01*
X0100383Y0186303D01*
X0100276Y0186269D01*
X0100170Y0186232D01*
X0100066Y0186190D01*
X0099963Y0186146D01*
X0099861Y0186097D01*
X0099762Y0186045D01*
X0099664Y0185990D01*
X0099568Y0185932D01*
X0099475Y0185870D01*
X0099383Y0185804D01*
X0099294Y0185736D01*
X0099208Y0185665D01*
X0099124Y0185590D01*
X0099042Y0185513D01*
X0098964Y0185433D01*
X0098888Y0185350D01*
X0098815Y0185265D01*
X0098745Y0185177D01*
X0098678Y0185087D01*
X0098614Y0184994D01*
X0098554Y0184900D01*
X0098497Y0184803D01*
X0098444Y0184704D01*
X0098393Y0184604D01*
X0098347Y0184502D01*
X0098304Y0184398D01*
X0098265Y0184293D01*
X0098229Y0184187D01*
X0098197Y0184079D01*
X0098169Y0183970D01*
X0098145Y0183861D01*
X0098124Y0183750D01*
X0098108Y0183639D01*
X0098095Y0183528D01*
X0098086Y0183416D01*
X0098081Y0183304D01*
X0098081Y0183303D02*
X0098081Y0168303D01*
X0098086Y0168191D01*
X0098095Y0168079D01*
X0098108Y0167968D01*
X0098124Y0167857D01*
X0098145Y0167746D01*
X0098169Y0167637D01*
X0098197Y0167528D01*
X0098229Y0167420D01*
X0098265Y0167314D01*
X0098304Y0167209D01*
X0098347Y0167105D01*
X0098393Y0167003D01*
X0098444Y0166903D01*
X0098497Y0166804D01*
X0098554Y0166707D01*
X0098614Y0166613D01*
X0098678Y0166520D01*
X0098745Y0166430D01*
X0098815Y0166342D01*
X0098888Y0166257D01*
X0098964Y0166174D01*
X0099042Y0166094D01*
X0099124Y0166017D01*
X0099208Y0165942D01*
X0099294Y0165871D01*
X0099383Y0165803D01*
X0099475Y0165737D01*
X0099568Y0165675D01*
X0099664Y0165617D01*
X0099762Y0165562D01*
X0099861Y0165510D01*
X0099963Y0165461D01*
X0100066Y0165417D01*
X0100170Y0165375D01*
X0100276Y0165338D01*
X0100383Y0165304D01*
X0100491Y0165274D01*
X0100600Y0165248D01*
X0100710Y0165226D01*
X0100821Y0165207D01*
X0100932Y0165193D01*
X0101044Y0165182D01*
X0101156Y0165175D01*
X0101268Y0165172D01*
X0101381Y0165173D01*
X0101380Y0165173D02*
X0134451Y0165173D01*
X0134564Y0165172D01*
X0134676Y0165175D01*
X0134788Y0165182D01*
X0134900Y0165193D01*
X0135011Y0165207D01*
X0135122Y0165226D01*
X0135232Y0165248D01*
X0135341Y0165274D01*
X0135449Y0165304D01*
X0135556Y0165338D01*
X0135662Y0165375D01*
X0135766Y0165417D01*
X0135869Y0165461D01*
X0135971Y0165510D01*
X0136070Y0165562D01*
X0136168Y0165617D01*
X0136264Y0165675D01*
X0136357Y0165737D01*
X0136449Y0165803D01*
X0136538Y0165871D01*
X0136624Y0165942D01*
X0136708Y0166017D01*
X0136790Y0166094D01*
X0136868Y0166174D01*
X0136944Y0166257D01*
X0137017Y0166342D01*
X0137087Y0166430D01*
X0137154Y0166520D01*
X0137218Y0166613D01*
X0137278Y0166707D01*
X0137335Y0166804D01*
X0137388Y0166903D01*
X0137439Y0167003D01*
X0137485Y0167105D01*
X0137528Y0167209D01*
X0137567Y0167314D01*
X0137603Y0167420D01*
X0137635Y0167528D01*
X0137663Y0167637D01*
X0137687Y0167746D01*
X0137708Y0167857D01*
X0137724Y0167968D01*
X0137737Y0168079D01*
X0137746Y0168191D01*
X0137751Y0168303D01*
X0160416Y0194303D02*
X0160416Y0197303D01*
X0161916Y0195803D02*
X0158916Y0195803D01*
X0168916Y0190803D02*
X0170916Y0190803D01*
X0171916Y0190803D01*
X0171916Y0195303D01*
X0174416Y0195303D01*
X0174416Y0186303D01*
X0171916Y0186303D01*
X0171916Y0190803D01*
X0155416Y0190803D02*
X0155422Y0191294D01*
X0155440Y0191784D01*
X0155470Y0192274D01*
X0155512Y0192763D01*
X0155566Y0193251D01*
X0155632Y0193738D01*
X0155710Y0194222D01*
X0155800Y0194705D01*
X0155902Y0195185D01*
X0156015Y0195663D01*
X0156140Y0196137D01*
X0156277Y0196609D01*
X0156425Y0197077D01*
X0156585Y0197541D01*
X0156756Y0198001D01*
X0156938Y0198457D01*
X0157132Y0198908D01*
X0157336Y0199354D01*
X0157552Y0199795D01*
X0157778Y0200231D01*
X0158014Y0200661D01*
X0158261Y0201085D01*
X0158519Y0201503D01*
X0158787Y0201914D01*
X0159064Y0202319D01*
X0159352Y0202717D01*
X0159649Y0203108D01*
X0159956Y0203491D01*
X0160272Y0203866D01*
X0160597Y0204234D01*
X0160931Y0204594D01*
X0161274Y0204945D01*
X0161625Y0205288D01*
X0161985Y0205622D01*
X0162353Y0205947D01*
X0162728Y0206263D01*
X0163111Y0206570D01*
X0163502Y0206867D01*
X0163900Y0207155D01*
X0164305Y0207432D01*
X0164716Y0207700D01*
X0165134Y0207958D01*
X0165558Y0208205D01*
X0165988Y0208441D01*
X0166424Y0208667D01*
X0166865Y0208883D01*
X0167311Y0209087D01*
X0167762Y0209281D01*
X0168218Y0209463D01*
X0168678Y0209634D01*
X0169142Y0209794D01*
X0169610Y0209942D01*
X0170082Y0210079D01*
X0170556Y0210204D01*
X0171034Y0210317D01*
X0171514Y0210419D01*
X0171997Y0210509D01*
X0172481Y0210587D01*
X0172968Y0210653D01*
X0173456Y0210707D01*
X0173945Y0210749D01*
X0174435Y0210779D01*
X0174925Y0210797D01*
X0175416Y0210803D01*
X0175907Y0210797D01*
X0176397Y0210779D01*
X0176887Y0210749D01*
X0177376Y0210707D01*
X0177864Y0210653D01*
X0178351Y0210587D01*
X0178835Y0210509D01*
X0179318Y0210419D01*
X0179798Y0210317D01*
X0180276Y0210204D01*
X0180750Y0210079D01*
X0181222Y0209942D01*
X0181690Y0209794D01*
X0182154Y0209634D01*
X0182614Y0209463D01*
X0183070Y0209281D01*
X0183521Y0209087D01*
X0183967Y0208883D01*
X0184408Y0208667D01*
X0184844Y0208441D01*
X0185274Y0208205D01*
X0185698Y0207958D01*
X0186116Y0207700D01*
X0186527Y0207432D01*
X0186932Y0207155D01*
X0187330Y0206867D01*
X0187721Y0206570D01*
X0188104Y0206263D01*
X0188479Y0205947D01*
X0188847Y0205622D01*
X0189207Y0205288D01*
X0189558Y0204945D01*
X0189901Y0204594D01*
X0190235Y0204234D01*
X0190560Y0203866D01*
X0190876Y0203491D01*
X0191183Y0203108D01*
X0191480Y0202717D01*
X0191768Y0202319D01*
X0192045Y0201914D01*
X0192313Y0201503D01*
X0192571Y0201085D01*
X0192818Y0200661D01*
X0193054Y0200231D01*
X0193280Y0199795D01*
X0193496Y0199354D01*
X0193700Y0198908D01*
X0193894Y0198457D01*
X0194076Y0198001D01*
X0194247Y0197541D01*
X0194407Y0197077D01*
X0194555Y0196609D01*
X0194692Y0196137D01*
X0194817Y0195663D01*
X0194930Y0195185D01*
X0195032Y0194705D01*
X0195122Y0194222D01*
X0195200Y0193738D01*
X0195266Y0193251D01*
X0195320Y0192763D01*
X0195362Y0192274D01*
X0195392Y0191784D01*
X0195410Y0191294D01*
X0195416Y0190803D01*
X0195410Y0190312D01*
X0195392Y0189822D01*
X0195362Y0189332D01*
X0195320Y0188843D01*
X0195266Y0188355D01*
X0195200Y0187868D01*
X0195122Y0187384D01*
X0195032Y0186901D01*
X0194930Y0186421D01*
X0194817Y0185943D01*
X0194692Y0185469D01*
X0194555Y0184997D01*
X0194407Y0184529D01*
X0194247Y0184065D01*
X0194076Y0183605D01*
X0193894Y0183149D01*
X0193700Y0182698D01*
X0193496Y0182252D01*
X0193280Y0181811D01*
X0193054Y0181375D01*
X0192818Y0180945D01*
X0192571Y0180521D01*
X0192313Y0180103D01*
X0192045Y0179692D01*
X0191768Y0179287D01*
X0191480Y0178889D01*
X0191183Y0178498D01*
X0190876Y0178115D01*
X0190560Y0177740D01*
X0190235Y0177372D01*
X0189901Y0177012D01*
X0189558Y0176661D01*
X0189207Y0176318D01*
X0188847Y0175984D01*
X0188479Y0175659D01*
X0188104Y0175343D01*
X0187721Y0175036D01*
X0187330Y0174739D01*
X0186932Y0174451D01*
X0186527Y0174174D01*
X0186116Y0173906D01*
X0185698Y0173648D01*
X0185274Y0173401D01*
X0184844Y0173165D01*
X0184408Y0172939D01*
X0183967Y0172723D01*
X0183521Y0172519D01*
X0183070Y0172325D01*
X0182614Y0172143D01*
X0182154Y0171972D01*
X0181690Y0171812D01*
X0181222Y0171664D01*
X0180750Y0171527D01*
X0180276Y0171402D01*
X0179798Y0171289D01*
X0179318Y0171187D01*
X0178835Y0171097D01*
X0178351Y0171019D01*
X0177864Y0170953D01*
X0177376Y0170899D01*
X0176887Y0170857D01*
X0176397Y0170827D01*
X0175907Y0170809D01*
X0175416Y0170803D01*
X0174925Y0170809D01*
X0174435Y0170827D01*
X0173945Y0170857D01*
X0173456Y0170899D01*
X0172968Y0170953D01*
X0172481Y0171019D01*
X0171997Y0171097D01*
X0171514Y0171187D01*
X0171034Y0171289D01*
X0170556Y0171402D01*
X0170082Y0171527D01*
X0169610Y0171664D01*
X0169142Y0171812D01*
X0168678Y0171972D01*
X0168218Y0172143D01*
X0167762Y0172325D01*
X0167311Y0172519D01*
X0166865Y0172723D01*
X0166424Y0172939D01*
X0165988Y0173165D01*
X0165558Y0173401D01*
X0165134Y0173648D01*
X0164716Y0173906D01*
X0164305Y0174174D01*
X0163900Y0174451D01*
X0163502Y0174739D01*
X0163111Y0175036D01*
X0162728Y0175343D01*
X0162353Y0175659D01*
X0161985Y0175984D01*
X0161625Y0176318D01*
X0161274Y0176661D01*
X0160931Y0177012D01*
X0160597Y0177372D01*
X0160272Y0177740D01*
X0159956Y0178115D01*
X0159649Y0178498D01*
X0159352Y0178889D01*
X0159064Y0179287D01*
X0158787Y0179692D01*
X0158519Y0180103D01*
X0158261Y0180521D01*
X0158014Y0180945D01*
X0157778Y0181375D01*
X0157552Y0181811D01*
X0157336Y0182252D01*
X0157132Y0182698D01*
X0156938Y0183149D01*
X0156756Y0183605D01*
X0156585Y0184065D01*
X0156425Y0184529D01*
X0156277Y0184997D01*
X0156140Y0185469D01*
X0156015Y0185943D01*
X0155902Y0186421D01*
X0155800Y0186901D01*
X0155710Y0187384D01*
X0155632Y0187868D01*
X0155566Y0188355D01*
X0155512Y0188843D01*
X0155470Y0189332D01*
X0155440Y0189822D01*
X0155422Y0190312D01*
X0155416Y0190803D01*
X0145416Y0199303D02*
X0145416Y0217303D01*
X0145414Y0217363D01*
X0145409Y0217424D01*
X0145400Y0217483D01*
X0145387Y0217542D01*
X0145371Y0217601D01*
X0145351Y0217658D01*
X0145328Y0217713D01*
X0145301Y0217768D01*
X0145272Y0217820D01*
X0145239Y0217871D01*
X0145203Y0217920D01*
X0145165Y0217966D01*
X0145123Y0218010D01*
X0145079Y0218052D01*
X0145033Y0218090D01*
X0144984Y0218126D01*
X0144933Y0218159D01*
X0144881Y0218188D01*
X0144826Y0218215D01*
X0144771Y0218238D01*
X0144714Y0218258D01*
X0144655Y0218274D01*
X0144596Y0218287D01*
X0144537Y0218296D01*
X0144476Y0218301D01*
X0144416Y0218303D01*
X0136416Y0218303D01*
X0136356Y0218301D01*
X0136295Y0218296D01*
X0136236Y0218287D01*
X0136177Y0218274D01*
X0136118Y0218258D01*
X0136061Y0218238D01*
X0136006Y0218215D01*
X0135951Y0218188D01*
X0135899Y0218159D01*
X0135848Y0218126D01*
X0135799Y0218090D01*
X0135753Y0218052D01*
X0135709Y0218010D01*
X0135667Y0217966D01*
X0135629Y0217920D01*
X0135593Y0217871D01*
X0135560Y0217820D01*
X0135531Y0217768D01*
X0135504Y0217713D01*
X0135481Y0217658D01*
X0135461Y0217601D01*
X0135445Y0217542D01*
X0135432Y0217483D01*
X0135423Y0217424D01*
X0135418Y0217363D01*
X0135416Y0217303D01*
X0135416Y0199303D01*
X0135418Y0199243D01*
X0135423Y0199182D01*
X0135432Y0199123D01*
X0135445Y0199064D01*
X0135461Y0199005D01*
X0135481Y0198948D01*
X0135504Y0198893D01*
X0135531Y0198838D01*
X0135560Y0198786D01*
X0135593Y0198735D01*
X0135629Y0198686D01*
X0135667Y0198640D01*
X0135709Y0198596D01*
X0135753Y0198554D01*
X0135799Y0198516D01*
X0135848Y0198480D01*
X0135899Y0198447D01*
X0135951Y0198418D01*
X0136006Y0198391D01*
X0136061Y0198368D01*
X0136118Y0198348D01*
X0136177Y0198332D01*
X0136236Y0198319D01*
X0136295Y0198310D01*
X0136356Y0198305D01*
X0136416Y0198303D01*
X0144416Y0198303D01*
X0144476Y0198305D01*
X0144537Y0198310D01*
X0144596Y0198319D01*
X0144655Y0198332D01*
X0144714Y0198348D01*
X0144771Y0198368D01*
X0144826Y0198391D01*
X0144881Y0198418D01*
X0144933Y0198447D01*
X0144984Y0198480D01*
X0145033Y0198516D01*
X0145079Y0198554D01*
X0145123Y0198596D01*
X0145165Y0198640D01*
X0145203Y0198686D01*
X0145239Y0198735D01*
X0145272Y0198786D01*
X0145301Y0198838D01*
X0145328Y0198893D01*
X0145351Y0198948D01*
X0145371Y0199005D01*
X0145387Y0199064D01*
X0145400Y0199123D01*
X0145409Y0199182D01*
X0145414Y0199243D01*
X0145416Y0199303D01*
X0147803Y0190803D02*
X0147811Y0191481D01*
X0147836Y0192158D01*
X0147878Y0192834D01*
X0147936Y0193510D01*
X0148011Y0194183D01*
X0148102Y0194855D01*
X0148210Y0195524D01*
X0148334Y0196190D01*
X0148474Y0196853D01*
X0148631Y0197512D01*
X0148803Y0198168D01*
X0148992Y0198819D01*
X0149197Y0199465D01*
X0149417Y0200106D01*
X0149653Y0200741D01*
X0149905Y0201370D01*
X0150172Y0201993D01*
X0150454Y0202609D01*
X0150751Y0203218D01*
X0151064Y0203820D01*
X0151390Y0204413D01*
X0151732Y0204999D01*
X0152087Y0205576D01*
X0152457Y0206144D01*
X0152840Y0206703D01*
X0153237Y0207252D01*
X0153647Y0207791D01*
X0154071Y0208321D01*
X0154507Y0208839D01*
X0154956Y0209347D01*
X0155417Y0209843D01*
X0155891Y0210328D01*
X0156376Y0210802D01*
X0156872Y0211263D01*
X0157380Y0211712D01*
X0157898Y0212148D01*
X0158428Y0212572D01*
X0158967Y0212982D01*
X0159516Y0213379D01*
X0160075Y0213762D01*
X0160643Y0214132D01*
X0161220Y0214487D01*
X0161806Y0214829D01*
X0162399Y0215155D01*
X0163001Y0215468D01*
X0163610Y0215765D01*
X0164226Y0216047D01*
X0164849Y0216314D01*
X0165478Y0216566D01*
X0166113Y0216802D01*
X0166754Y0217022D01*
X0167400Y0217227D01*
X0168051Y0217416D01*
X0168707Y0217588D01*
X0169366Y0217745D01*
X0170029Y0217885D01*
X0170695Y0218009D01*
X0171364Y0218117D01*
X0172036Y0218208D01*
X0172709Y0218283D01*
X0173385Y0218341D01*
X0174061Y0218383D01*
X0174738Y0218408D01*
X0175416Y0218416D01*
X0176094Y0218408D01*
X0176771Y0218383D01*
X0177447Y0218341D01*
X0178123Y0218283D01*
X0178796Y0218208D01*
X0179468Y0218117D01*
X0180137Y0218009D01*
X0180803Y0217885D01*
X0181466Y0217745D01*
X0182125Y0217588D01*
X0182781Y0217416D01*
X0183432Y0217227D01*
X0184078Y0217022D01*
X0184719Y0216802D01*
X0185354Y0216566D01*
X0185983Y0216314D01*
X0186606Y0216047D01*
X0187222Y0215765D01*
X0187831Y0215468D01*
X0188433Y0215155D01*
X0189026Y0214829D01*
X0189612Y0214487D01*
X0190189Y0214132D01*
X0190757Y0213762D01*
X0191316Y0213379D01*
X0191865Y0212982D01*
X0192404Y0212572D01*
X0192934Y0212148D01*
X0193452Y0211712D01*
X0193960Y0211263D01*
X0194456Y0210802D01*
X0194941Y0210328D01*
X0195415Y0209843D01*
X0195876Y0209347D01*
X0196325Y0208839D01*
X0196761Y0208321D01*
X0197185Y0207791D01*
X0197595Y0207252D01*
X0197992Y0206703D01*
X0198375Y0206144D01*
X0198745Y0205576D01*
X0199100Y0204999D01*
X0199442Y0204413D01*
X0199768Y0203820D01*
X0200081Y0203218D01*
X0200378Y0202609D01*
X0200660Y0201993D01*
X0200927Y0201370D01*
X0201179Y0200741D01*
X0201415Y0200106D01*
X0201635Y0199465D01*
X0201840Y0198819D01*
X0202029Y0198168D01*
X0202201Y0197512D01*
X0202358Y0196853D01*
X0202498Y0196190D01*
X0202622Y0195524D01*
X0202730Y0194855D01*
X0202821Y0194183D01*
X0202896Y0193510D01*
X0202954Y0192834D01*
X0202996Y0192158D01*
X0203021Y0191481D01*
X0203029Y0190803D01*
X0203021Y0190125D01*
X0202996Y0189448D01*
X0202954Y0188772D01*
X0202896Y0188096D01*
X0202821Y0187423D01*
X0202730Y0186751D01*
X0202622Y0186082D01*
X0202498Y0185416D01*
X0202358Y0184753D01*
X0202201Y0184094D01*
X0202029Y0183438D01*
X0201840Y0182787D01*
X0201635Y0182141D01*
X0201415Y0181500D01*
X0201179Y0180865D01*
X0200927Y0180236D01*
X0200660Y0179613D01*
X0200378Y0178997D01*
X0200081Y0178388D01*
X0199768Y0177786D01*
X0199442Y0177193D01*
X0199100Y0176607D01*
X0198745Y0176030D01*
X0198375Y0175462D01*
X0197992Y0174903D01*
X0197595Y0174354D01*
X0197185Y0173815D01*
X0196761Y0173285D01*
X0196325Y0172767D01*
X0195876Y0172259D01*
X0195415Y0171763D01*
X0194941Y0171278D01*
X0194456Y0170804D01*
X0193960Y0170343D01*
X0193452Y0169894D01*
X0192934Y0169458D01*
X0192404Y0169034D01*
X0191865Y0168624D01*
X0191316Y0168227D01*
X0190757Y0167844D01*
X0190189Y0167474D01*
X0189612Y0167119D01*
X0189026Y0166777D01*
X0188433Y0166451D01*
X0187831Y0166138D01*
X0187222Y0165841D01*
X0186606Y0165559D01*
X0185983Y0165292D01*
X0185354Y0165040D01*
X0184719Y0164804D01*
X0184078Y0164584D01*
X0183432Y0164379D01*
X0182781Y0164190D01*
X0182125Y0164018D01*
X0181466Y0163861D01*
X0180803Y0163721D01*
X0180137Y0163597D01*
X0179468Y0163489D01*
X0178796Y0163398D01*
X0178123Y0163323D01*
X0177447Y0163265D01*
X0176771Y0163223D01*
X0176094Y0163198D01*
X0175416Y0163190D01*
X0174738Y0163198D01*
X0174061Y0163223D01*
X0173385Y0163265D01*
X0172709Y0163323D01*
X0172036Y0163398D01*
X0171364Y0163489D01*
X0170695Y0163597D01*
X0170029Y0163721D01*
X0169366Y0163861D01*
X0168707Y0164018D01*
X0168051Y0164190D01*
X0167400Y0164379D01*
X0166754Y0164584D01*
X0166113Y0164804D01*
X0165478Y0165040D01*
X0164849Y0165292D01*
X0164226Y0165559D01*
X0163610Y0165841D01*
X0163001Y0166138D01*
X0162399Y0166451D01*
X0161806Y0166777D01*
X0161220Y0167119D01*
X0160643Y0167474D01*
X0160075Y0167844D01*
X0159516Y0168227D01*
X0158967Y0168624D01*
X0158428Y0169034D01*
X0157898Y0169458D01*
X0157380Y0169894D01*
X0156872Y0170343D01*
X0156376Y0170804D01*
X0155891Y0171278D01*
X0155417Y0171763D01*
X0154956Y0172259D01*
X0154507Y0172767D01*
X0154071Y0173285D01*
X0153647Y0173815D01*
X0153237Y0174354D01*
X0152840Y0174903D01*
X0152457Y0175462D01*
X0152087Y0176030D01*
X0151732Y0176607D01*
X0151390Y0177193D01*
X0151064Y0177786D01*
X0150751Y0178388D01*
X0150454Y0178997D01*
X0150172Y0179613D01*
X0149905Y0180236D01*
X0149653Y0180865D01*
X0149417Y0181500D01*
X0149197Y0182141D01*
X0148992Y0182787D01*
X0148803Y0183438D01*
X0148631Y0184094D01*
X0148474Y0184753D01*
X0148334Y0185416D01*
X0148210Y0186082D01*
X0148102Y0186751D01*
X0148011Y0187423D01*
X0147936Y0188096D01*
X0147878Y0188772D01*
X0147836Y0189448D01*
X0147811Y0190125D01*
X0147803Y0190803D01*
X0177916Y0190803D02*
X0179916Y0190803D01*
X0181916Y0190803D01*
X0226416Y0184553D02*
X0228416Y0184553D01*
X0230416Y0184553D01*
X0229916Y0184553D02*
X0235416Y0184553D01*
X0236416Y0184553D02*
X0236416Y0180053D01*
X0233916Y0180053D01*
X0233916Y0189053D01*
X0236416Y0189053D01*
X0236416Y0184553D01*
X0237416Y0184553D01*
X0239416Y0184553D01*
X0205416Y0184553D02*
X0205426Y0185351D01*
X0205455Y0186148D01*
X0205504Y0186944D01*
X0205572Y0187739D01*
X0205660Y0188531D01*
X0205768Y0189322D01*
X0205894Y0190109D01*
X0206040Y0190893D01*
X0206206Y0191674D01*
X0206390Y0192450D01*
X0206593Y0193221D01*
X0206815Y0193987D01*
X0207056Y0194748D01*
X0207316Y0195502D01*
X0207594Y0196250D01*
X0207890Y0196990D01*
X0208204Y0197723D01*
X0208536Y0198449D01*
X0208886Y0199165D01*
X0209254Y0199873D01*
X0209638Y0200572D01*
X0210040Y0201261D01*
X0210458Y0201940D01*
X0210893Y0202609D01*
X0211344Y0203267D01*
X0211812Y0203913D01*
X0212295Y0204548D01*
X0212793Y0205171D01*
X0213307Y0205781D01*
X0213835Y0206379D01*
X0214378Y0206963D01*
X0214935Y0207534D01*
X0215506Y0208091D01*
X0216090Y0208634D01*
X0216688Y0209162D01*
X0217298Y0209676D01*
X0217921Y0210174D01*
X0218556Y0210657D01*
X0219202Y0211125D01*
X0219860Y0211576D01*
X0220529Y0212011D01*
X0221208Y0212429D01*
X0221897Y0212831D01*
X0222596Y0213215D01*
X0223304Y0213583D01*
X0224020Y0213933D01*
X0224746Y0214265D01*
X0225479Y0214579D01*
X0226219Y0214875D01*
X0226967Y0215153D01*
X0227721Y0215413D01*
X0228482Y0215654D01*
X0229248Y0215876D01*
X0230019Y0216079D01*
X0230795Y0216263D01*
X0231576Y0216429D01*
X0232360Y0216575D01*
X0233147Y0216701D01*
X0233938Y0216809D01*
X0234730Y0216897D01*
X0235525Y0216965D01*
X0236321Y0217014D01*
X0237118Y0217043D01*
X0237916Y0217053D01*
X0238714Y0217043D01*
X0239511Y0217014D01*
X0240307Y0216965D01*
X0241102Y0216897D01*
X0241894Y0216809D01*
X0242685Y0216701D01*
X0243472Y0216575D01*
X0244256Y0216429D01*
X0245037Y0216263D01*
X0245813Y0216079D01*
X0246584Y0215876D01*
X0247350Y0215654D01*
X0248111Y0215413D01*
X0248865Y0215153D01*
X0249613Y0214875D01*
X0250353Y0214579D01*
X0251086Y0214265D01*
X0251812Y0213933D01*
X0252528Y0213583D01*
X0253236Y0213215D01*
X0253935Y0212831D01*
X0254624Y0212429D01*
X0255303Y0212011D01*
X0255972Y0211576D01*
X0256630Y0211125D01*
X0257276Y0210657D01*
X0257911Y0210174D01*
X0258534Y0209676D01*
X0259144Y0209162D01*
X0259742Y0208634D01*
X0260326Y0208091D01*
X0260897Y0207534D01*
X0261454Y0206963D01*
X0261997Y0206379D01*
X0262525Y0205781D01*
X0263039Y0205171D01*
X0263537Y0204548D01*
X0264020Y0203913D01*
X0264488Y0203267D01*
X0264939Y0202609D01*
X0265374Y0201940D01*
X0265792Y0201261D01*
X0266194Y0200572D01*
X0266578Y0199873D01*
X0266946Y0199165D01*
X0267296Y0198449D01*
X0267628Y0197723D01*
X0267942Y0196990D01*
X0268238Y0196250D01*
X0268516Y0195502D01*
X0268776Y0194748D01*
X0269017Y0193987D01*
X0269239Y0193221D01*
X0269442Y0192450D01*
X0269626Y0191674D01*
X0269792Y0190893D01*
X0269938Y0190109D01*
X0270064Y0189322D01*
X0270172Y0188531D01*
X0270260Y0187739D01*
X0270328Y0186944D01*
X0270377Y0186148D01*
X0270406Y0185351D01*
X0270416Y0184553D01*
X0270406Y0183755D01*
X0270377Y0182958D01*
X0270328Y0182162D01*
X0270260Y0181367D01*
X0270172Y0180575D01*
X0270064Y0179784D01*
X0269938Y0178997D01*
X0269792Y0178213D01*
X0269626Y0177432D01*
X0269442Y0176656D01*
X0269239Y0175885D01*
X0269017Y0175119D01*
X0268776Y0174358D01*
X0268516Y0173604D01*
X0268238Y0172856D01*
X0267942Y0172116D01*
X0267628Y0171383D01*
X0267296Y0170657D01*
X0266946Y0169941D01*
X0266578Y0169233D01*
X0266194Y0168534D01*
X0265792Y0167845D01*
X0265374Y0167166D01*
X0264939Y0166497D01*
X0264488Y0165839D01*
X0264020Y0165193D01*
X0263537Y0164558D01*
X0263039Y0163935D01*
X0262525Y0163325D01*
X0261997Y0162727D01*
X0261454Y0162143D01*
X0260897Y0161572D01*
X0260326Y0161015D01*
X0259742Y0160472D01*
X0259144Y0159944D01*
X0258534Y0159430D01*
X0257911Y0158932D01*
X0257276Y0158449D01*
X0256630Y0157981D01*
X0255972Y0157530D01*
X0255303Y0157095D01*
X0254624Y0156677D01*
X0253935Y0156275D01*
X0253236Y0155891D01*
X0252528Y0155523D01*
X0251812Y0155173D01*
X0251086Y0154841D01*
X0250353Y0154527D01*
X0249613Y0154231D01*
X0248865Y0153953D01*
X0248111Y0153693D01*
X0247350Y0153452D01*
X0246584Y0153230D01*
X0245813Y0153027D01*
X0245037Y0152843D01*
X0244256Y0152677D01*
X0243472Y0152531D01*
X0242685Y0152405D01*
X0241894Y0152297D01*
X0241102Y0152209D01*
X0240307Y0152141D01*
X0239511Y0152092D01*
X0238714Y0152063D01*
X0237916Y0152053D01*
X0237118Y0152063D01*
X0236321Y0152092D01*
X0235525Y0152141D01*
X0234730Y0152209D01*
X0233938Y0152297D01*
X0233147Y0152405D01*
X0232360Y0152531D01*
X0231576Y0152677D01*
X0230795Y0152843D01*
X0230019Y0153027D01*
X0229248Y0153230D01*
X0228482Y0153452D01*
X0227721Y0153693D01*
X0226967Y0153953D01*
X0226219Y0154231D01*
X0225479Y0154527D01*
X0224746Y0154841D01*
X0224020Y0155173D01*
X0223304Y0155523D01*
X0222596Y0155891D01*
X0221897Y0156275D01*
X0221208Y0156677D01*
X0220529Y0157095D01*
X0219860Y0157530D01*
X0219202Y0157981D01*
X0218556Y0158449D01*
X0217921Y0158932D01*
X0217298Y0159430D01*
X0216688Y0159944D01*
X0216090Y0160472D01*
X0215506Y0161015D01*
X0214935Y0161572D01*
X0214378Y0162143D01*
X0213835Y0162727D01*
X0213307Y0163325D01*
X0212793Y0163935D01*
X0212295Y0164558D01*
X0211812Y0165193D01*
X0211344Y0165839D01*
X0210893Y0166497D01*
X0210458Y0167166D01*
X0210040Y0167845D01*
X0209638Y0168534D01*
X0209254Y0169233D01*
X0208886Y0169941D01*
X0208536Y0170657D01*
X0208204Y0171383D01*
X0207890Y0172116D01*
X0207594Y0172856D01*
X0207316Y0173604D01*
X0207056Y0174358D01*
X0206815Y0175119D01*
X0206593Y0175885D01*
X0206390Y0176656D01*
X0206206Y0177432D01*
X0206040Y0178213D01*
X0205894Y0178997D01*
X0205768Y0179784D01*
X0205660Y0180575D01*
X0205572Y0181367D01*
X0205504Y0182162D01*
X0205455Y0182958D01*
X0205426Y0183755D01*
X0205416Y0184553D01*
X0212916Y0184553D02*
X0212922Y0185044D01*
X0212940Y0185534D01*
X0212970Y0186024D01*
X0213012Y0186513D01*
X0213066Y0187001D01*
X0213132Y0187488D01*
X0213210Y0187972D01*
X0213300Y0188455D01*
X0213402Y0188935D01*
X0213515Y0189413D01*
X0213640Y0189887D01*
X0213777Y0190359D01*
X0213925Y0190827D01*
X0214085Y0191291D01*
X0214256Y0191751D01*
X0214438Y0192207D01*
X0214632Y0192658D01*
X0214836Y0193104D01*
X0215052Y0193545D01*
X0215278Y0193981D01*
X0215514Y0194411D01*
X0215761Y0194835D01*
X0216019Y0195253D01*
X0216287Y0195664D01*
X0216564Y0196069D01*
X0216852Y0196467D01*
X0217149Y0196858D01*
X0217456Y0197241D01*
X0217772Y0197616D01*
X0218097Y0197984D01*
X0218431Y0198344D01*
X0218774Y0198695D01*
X0219125Y0199038D01*
X0219485Y0199372D01*
X0219853Y0199697D01*
X0220228Y0200013D01*
X0220611Y0200320D01*
X0221002Y0200617D01*
X0221400Y0200905D01*
X0221805Y0201182D01*
X0222216Y0201450D01*
X0222634Y0201708D01*
X0223058Y0201955D01*
X0223488Y0202191D01*
X0223924Y0202417D01*
X0224365Y0202633D01*
X0224811Y0202837D01*
X0225262Y0203031D01*
X0225718Y0203213D01*
X0226178Y0203384D01*
X0226642Y0203544D01*
X0227110Y0203692D01*
X0227582Y0203829D01*
X0228056Y0203954D01*
X0228534Y0204067D01*
X0229014Y0204169D01*
X0229497Y0204259D01*
X0229981Y0204337D01*
X0230468Y0204403D01*
X0230956Y0204457D01*
X0231445Y0204499D01*
X0231935Y0204529D01*
X0232425Y0204547D01*
X0232916Y0204553D01*
X0233407Y0204547D01*
X0233897Y0204529D01*
X0234387Y0204499D01*
X0234876Y0204457D01*
X0235364Y0204403D01*
X0235851Y0204337D01*
X0236335Y0204259D01*
X0236818Y0204169D01*
X0237298Y0204067D01*
X0237776Y0203954D01*
X0238250Y0203829D01*
X0238722Y0203692D01*
X0239190Y0203544D01*
X0239654Y0203384D01*
X0240114Y0203213D01*
X0240570Y0203031D01*
X0241021Y0202837D01*
X0241467Y0202633D01*
X0241908Y0202417D01*
X0242344Y0202191D01*
X0242774Y0201955D01*
X0243198Y0201708D01*
X0243616Y0201450D01*
X0244027Y0201182D01*
X0244432Y0200905D01*
X0244830Y0200617D01*
X0245221Y0200320D01*
X0245604Y0200013D01*
X0245979Y0199697D01*
X0246347Y0199372D01*
X0246707Y0199038D01*
X0247058Y0198695D01*
X0247401Y0198344D01*
X0247735Y0197984D01*
X0248060Y0197616D01*
X0248376Y0197241D01*
X0248683Y0196858D01*
X0248980Y0196467D01*
X0249268Y0196069D01*
X0249545Y0195664D01*
X0249813Y0195253D01*
X0250071Y0194835D01*
X0250318Y0194411D01*
X0250554Y0193981D01*
X0250780Y0193545D01*
X0250996Y0193104D01*
X0251200Y0192658D01*
X0251394Y0192207D01*
X0251576Y0191751D01*
X0251747Y0191291D01*
X0251907Y0190827D01*
X0252055Y0190359D01*
X0252192Y0189887D01*
X0252317Y0189413D01*
X0252430Y0188935D01*
X0252532Y0188455D01*
X0252622Y0187972D01*
X0252700Y0187488D01*
X0252766Y0187001D01*
X0252820Y0186513D01*
X0252862Y0186024D01*
X0252892Y0185534D01*
X0252910Y0185044D01*
X0252916Y0184553D01*
X0252910Y0184062D01*
X0252892Y0183572D01*
X0252862Y0183082D01*
X0252820Y0182593D01*
X0252766Y0182105D01*
X0252700Y0181618D01*
X0252622Y0181134D01*
X0252532Y0180651D01*
X0252430Y0180171D01*
X0252317Y0179693D01*
X0252192Y0179219D01*
X0252055Y0178747D01*
X0251907Y0178279D01*
X0251747Y0177815D01*
X0251576Y0177355D01*
X0251394Y0176899D01*
X0251200Y0176448D01*
X0250996Y0176002D01*
X0250780Y0175561D01*
X0250554Y0175125D01*
X0250318Y0174695D01*
X0250071Y0174271D01*
X0249813Y0173853D01*
X0249545Y0173442D01*
X0249268Y0173037D01*
X0248980Y0172639D01*
X0248683Y0172248D01*
X0248376Y0171865D01*
X0248060Y0171490D01*
X0247735Y0171122D01*
X0247401Y0170762D01*
X0247058Y0170411D01*
X0246707Y0170068D01*
X0246347Y0169734D01*
X0245979Y0169409D01*
X0245604Y0169093D01*
X0245221Y0168786D01*
X0244830Y0168489D01*
X0244432Y0168201D01*
X0244027Y0167924D01*
X0243616Y0167656D01*
X0243198Y0167398D01*
X0242774Y0167151D01*
X0242344Y0166915D01*
X0241908Y0166689D01*
X0241467Y0166473D01*
X0241021Y0166269D01*
X0240570Y0166075D01*
X0240114Y0165893D01*
X0239654Y0165722D01*
X0239190Y0165562D01*
X0238722Y0165414D01*
X0238250Y0165277D01*
X0237776Y0165152D01*
X0237298Y0165039D01*
X0236818Y0164937D01*
X0236335Y0164847D01*
X0235851Y0164769D01*
X0235364Y0164703D01*
X0234876Y0164649D01*
X0234387Y0164607D01*
X0233897Y0164577D01*
X0233407Y0164559D01*
X0232916Y0164553D01*
X0232425Y0164559D01*
X0231935Y0164577D01*
X0231445Y0164607D01*
X0230956Y0164649D01*
X0230468Y0164703D01*
X0229981Y0164769D01*
X0229497Y0164847D01*
X0229014Y0164937D01*
X0228534Y0165039D01*
X0228056Y0165152D01*
X0227582Y0165277D01*
X0227110Y0165414D01*
X0226642Y0165562D01*
X0226178Y0165722D01*
X0225718Y0165893D01*
X0225262Y0166075D01*
X0224811Y0166269D01*
X0224365Y0166473D01*
X0223924Y0166689D01*
X0223488Y0166915D01*
X0223058Y0167151D01*
X0222634Y0167398D01*
X0222216Y0167656D01*
X0221805Y0167924D01*
X0221400Y0168201D01*
X0221002Y0168489D01*
X0220611Y0168786D01*
X0220228Y0169093D01*
X0219853Y0169409D01*
X0219485Y0169734D01*
X0219125Y0170068D01*
X0218774Y0170411D01*
X0218431Y0170762D01*
X0218097Y0171122D01*
X0217772Y0171490D01*
X0217456Y0171865D01*
X0217149Y0172248D01*
X0216852Y0172639D01*
X0216564Y0173037D01*
X0216287Y0173442D01*
X0216019Y0173853D01*
X0215761Y0174271D01*
X0215514Y0174695D01*
X0215278Y0175125D01*
X0215052Y0175561D01*
X0214836Y0176002D01*
X0214632Y0176448D01*
X0214438Y0176899D01*
X0214256Y0177355D01*
X0214085Y0177815D01*
X0213925Y0178279D01*
X0213777Y0178747D01*
X0213640Y0179219D01*
X0213515Y0179693D01*
X0213402Y0180171D01*
X0213300Y0180651D01*
X0213210Y0181134D01*
X0213132Y0181618D01*
X0213066Y0182105D01*
X0213012Y0182593D01*
X0212970Y0183082D01*
X0212940Y0183572D01*
X0212922Y0184062D01*
X0212916Y0184553D01*
X0238916Y0177053D02*
X0241416Y0177053D01*
X0241416Y0184553D01*
X0241416Y0192053D01*
X0238916Y0192053D01*
X0238916Y0177053D01*
X0246416Y0179553D02*
X0249416Y0179553D01*
X0247916Y0178053D02*
X0247916Y0181053D01*
X0245916Y0184553D02*
X0241416Y0184553D01*
X0261416Y0184553D02*
X0267416Y0184553D01*
X0264416Y0187553D02*
X0264416Y0181553D01*
D13*
X0255416Y0143303D02*
X0211666Y0143303D01*
X0201666Y0169553D02*
X0170416Y0138303D01*
X0150416Y0167053D02*
X0141666Y0158303D01*
X0127916Y0138303D02*
X0127916Y0193303D01*
X0251666Y0079553D02*
X0230416Y0058303D01*
X0201666Y0058303D02*
X0114166Y0058303D01*
D14*
X0187891Y0145153D02*
X0188869Y0145153D01*
X0188380Y0145153D02*
X0188380Y0149553D01*
X0187891Y0149553D02*
X0188869Y0149553D01*
X0191163Y0148575D02*
X0191163Y0146131D01*
X0191162Y0146131D02*
X0191164Y0146070D01*
X0191170Y0146008D01*
X0191179Y0145948D01*
X0191193Y0145888D01*
X0191210Y0145829D01*
X0191231Y0145771D01*
X0191255Y0145715D01*
X0191283Y0145660D01*
X0191314Y0145607D01*
X0191349Y0145556D01*
X0191386Y0145508D01*
X0191427Y0145462D01*
X0191471Y0145418D01*
X0191517Y0145377D01*
X0191565Y0145340D01*
X0191616Y0145305D01*
X0191669Y0145274D01*
X0191724Y0145246D01*
X0191780Y0145222D01*
X0191838Y0145201D01*
X0191897Y0145184D01*
X0191957Y0145170D01*
X0192017Y0145161D01*
X0192079Y0145155D01*
X0192140Y0145153D01*
X0193118Y0145153D01*
X0195390Y0145153D02*
X0197834Y0145153D01*
X0196612Y0145153D02*
X0196612Y0149553D01*
X0195390Y0148575D01*
X0193118Y0149553D02*
X0192140Y0149553D01*
X0192079Y0149551D01*
X0192017Y0149545D01*
X0191957Y0149536D01*
X0191897Y0149522D01*
X0191838Y0149505D01*
X0191780Y0149484D01*
X0191724Y0149460D01*
X0191669Y0149432D01*
X0191616Y0149401D01*
X0191565Y0149366D01*
X0191517Y0149329D01*
X0191471Y0149288D01*
X0191427Y0149244D01*
X0191386Y0149198D01*
X0191349Y0149150D01*
X0191314Y0149099D01*
X0191283Y0149046D01*
X0191255Y0148991D01*
X0191231Y0148935D01*
X0191210Y0148877D01*
X0191193Y0148818D01*
X0191179Y0148758D01*
X0191170Y0148698D01*
X0191164Y0148636D01*
X0191162Y0148575D01*
X0197916Y0159553D02*
X0195416Y0160803D01*
X0214166Y0155803D02*
X0217916Y0145803D01*
X0222266Y0146403D02*
X0223244Y0146403D01*
X0222755Y0146403D02*
X0222755Y0150803D01*
X0222266Y0150803D02*
X0223244Y0150803D01*
X0225538Y0149825D02*
X0225538Y0147381D01*
X0225537Y0147381D02*
X0225539Y0147320D01*
X0225545Y0147258D01*
X0225554Y0147198D01*
X0225568Y0147138D01*
X0225585Y0147079D01*
X0225606Y0147021D01*
X0225630Y0146965D01*
X0225658Y0146910D01*
X0225689Y0146857D01*
X0225724Y0146806D01*
X0225761Y0146758D01*
X0225802Y0146712D01*
X0225846Y0146668D01*
X0225892Y0146627D01*
X0225940Y0146590D01*
X0225991Y0146555D01*
X0226044Y0146524D01*
X0226099Y0146496D01*
X0226155Y0146472D01*
X0226213Y0146451D01*
X0226272Y0146434D01*
X0226332Y0146420D01*
X0226392Y0146411D01*
X0226454Y0146405D01*
X0226515Y0146403D01*
X0227493Y0146403D01*
X0229765Y0146403D02*
X0231842Y0148848D01*
X0231109Y0150803D02*
X0231035Y0150801D01*
X0230961Y0150795D01*
X0230888Y0150786D01*
X0230815Y0150772D01*
X0230743Y0150755D01*
X0230672Y0150734D01*
X0230602Y0150709D01*
X0230534Y0150681D01*
X0230467Y0150649D01*
X0230402Y0150613D01*
X0230339Y0150575D01*
X0230278Y0150533D01*
X0230219Y0150488D01*
X0230163Y0150440D01*
X0230109Y0150389D01*
X0230058Y0150335D01*
X0230010Y0150278D01*
X0229965Y0150220D01*
X0229923Y0150159D01*
X0229885Y0150096D01*
X0229849Y0150030D01*
X0229818Y0149964D01*
X0229789Y0149895D01*
X0229765Y0149825D01*
X0231841Y0148848D02*
X0231890Y0148896D01*
X0231935Y0148948D01*
X0231977Y0149001D01*
X0232016Y0149057D01*
X0232052Y0149116D01*
X0232084Y0149176D01*
X0232113Y0149238D01*
X0232138Y0149301D01*
X0232159Y0149366D01*
X0232177Y0149432D01*
X0232190Y0149499D01*
X0232200Y0149567D01*
X0232206Y0149635D01*
X0232208Y0149703D01*
X0232209Y0149703D02*
X0232207Y0149767D01*
X0232202Y0149831D01*
X0232192Y0149894D01*
X0232179Y0149957D01*
X0232163Y0150018D01*
X0232143Y0150079D01*
X0232119Y0150139D01*
X0232092Y0150197D01*
X0232062Y0150253D01*
X0232028Y0150307D01*
X0231991Y0150360D01*
X0231952Y0150410D01*
X0231909Y0150458D01*
X0231864Y0150503D01*
X0231816Y0150546D01*
X0231766Y0150585D01*
X0231713Y0150622D01*
X0231659Y0150656D01*
X0231603Y0150686D01*
X0231545Y0150713D01*
X0231485Y0150737D01*
X0231424Y0150757D01*
X0231363Y0150773D01*
X0231300Y0150786D01*
X0231237Y0150796D01*
X0231173Y0150801D01*
X0231109Y0150803D01*
X0227493Y0150803D02*
X0226515Y0150803D01*
X0226454Y0150801D01*
X0226392Y0150795D01*
X0226332Y0150786D01*
X0226272Y0150772D01*
X0226213Y0150755D01*
X0226155Y0150734D01*
X0226099Y0150710D01*
X0226044Y0150682D01*
X0225991Y0150651D01*
X0225940Y0150616D01*
X0225892Y0150579D01*
X0225846Y0150538D01*
X0225802Y0150494D01*
X0225761Y0150448D01*
X0225724Y0150400D01*
X0225689Y0150349D01*
X0225658Y0150296D01*
X0225630Y0150241D01*
X0225606Y0150185D01*
X0225585Y0150127D01*
X0225568Y0150068D01*
X0225554Y0150008D01*
X0225545Y0149948D01*
X0225539Y0149886D01*
X0225537Y0149825D01*
X0229765Y0146403D02*
X0232209Y0146403D01*
X0149166Y0152053D02*
X0147916Y0160803D01*
X0126666Y0162053D02*
X0110416Y0159553D01*
X0242916Y0069553D02*
X0242916Y0062053D01*
X0274166Y0063303D02*
X0276666Y0072053D01*
X0274166Y0074553D02*
X0276666Y0078303D01*
D15*
X0230666Y0184553D03*
X0177666Y0190803D03*
D16*
X0114264Y0188539D02*
X0111508Y0188539D01*
X0111508Y0218067D01*
X0114264Y0218067D01*
X0114264Y0188539D01*
X0111508Y0188539D02*
X0089067Y0188539D01*
X0089067Y0218067D01*
X0111508Y0218067D01*
X0073634Y0171689D02*
X0069697Y0171689D01*
X0069697Y0167161D01*
X0058182Y0167161D01*
X0058182Y0150705D01*
X0085150Y0150705D01*
X0085150Y0167161D01*
X0073634Y0167161D01*
X0073634Y0171689D01*
X0073634Y0167161D02*
X0069697Y0167161D01*
X0057443Y0162122D02*
X0057443Y0135429D01*
X0088388Y0135429D01*
X0088388Y0128657D01*
X0057443Y0128657D01*
X0057443Y0135429D01*
X0057443Y0127122D02*
X0057443Y0100429D01*
X0088388Y0100429D01*
X0088388Y0093657D01*
X0057443Y0093657D01*
X0057443Y0100429D01*
X0088388Y0100429D02*
X0088388Y0127122D01*
X0057443Y0127122D01*
X0088388Y0135429D02*
X0088388Y0162122D01*
X0057443Y0162122D01*
X0259117Y0081817D02*
X0259117Y0052289D01*
X0260495Y0052289D01*
X0260495Y0081817D01*
X0274077Y0081817D01*
X0274077Y0052289D01*
X0260495Y0052289D01*
X0260495Y0081817D02*
X0259117Y0081817D01*
X0263693Y0091984D02*
X0263693Y0118677D01*
X0294638Y0118677D01*
X0294638Y0091984D01*
X0263693Y0091984D01*
X0264432Y0091945D02*
X0275947Y0091945D01*
X0275947Y0087417D01*
X0279884Y0087417D01*
X0279884Y0091945D01*
X0291400Y0091945D01*
X0291400Y0108402D01*
X0264432Y0108402D01*
X0264432Y0091945D01*
X0275947Y0091945D02*
X0279884Y0091945D01*
X0294638Y0118677D02*
X0294638Y0125449D01*
X0263693Y0125449D01*
X0263693Y0118677D01*
X0263693Y0126984D02*
X0263693Y0153677D01*
X0294638Y0153677D01*
X0294638Y0126984D01*
X0263693Y0126984D01*
X0263693Y0153677D02*
X0263693Y0160449D01*
X0294638Y0160449D01*
X0294638Y0153677D01*
D17*
X0267921Y0160365D02*
X0266543Y0158397D01*
X0265165Y0160365D01*
X0267921Y0160365D01*
X0267644Y0159970D02*
X0265442Y0159970D01*
X0265791Y0159471D02*
X0267295Y0159471D01*
X0266946Y0158973D02*
X0266140Y0158973D01*
X0266489Y0158474D02*
X0266597Y0158474D01*
X0267921Y0125365D02*
X0265165Y0125365D01*
X0266543Y0123397D01*
X0267921Y0125365D01*
X0267717Y0125074D02*
X0265369Y0125074D01*
X0265718Y0124575D02*
X0267368Y0124575D01*
X0267019Y0124077D02*
X0266067Y0124077D01*
X0266416Y0123578D02*
X0266670Y0123578D01*
X0266164Y0093835D02*
X0264786Y0091866D01*
X0267542Y0091866D01*
X0266164Y0093835D01*
X0266047Y0093668D02*
X0266281Y0093668D01*
X0266630Y0093169D02*
X0265698Y0093169D01*
X0265349Y0092671D02*
X0266979Y0092671D01*
X0267328Y0092172D02*
X0265000Y0092172D01*
X0222247Y0059022D02*
X0222247Y0055085D01*
X0213585Y0055085D01*
X0213585Y0059022D01*
X0222247Y0059022D01*
X0260229Y0056433D02*
X0260229Y0053677D01*
X0262197Y0055055D01*
X0260229Y0056433D01*
X0260229Y0056279D02*
X0260449Y0056279D01*
X0260229Y0055781D02*
X0261161Y0055781D01*
X0261873Y0055282D02*
X0260229Y0055282D01*
X0260229Y0054784D02*
X0261810Y0054784D01*
X0261098Y0054285D02*
X0260229Y0054285D01*
X0260229Y0053787D02*
X0260385Y0053787D01*
X0113373Y0169441D02*
X0107916Y0169441D01*
X0107916Y0168943D02*
X0112625Y0168943D01*
X0111878Y0168444D02*
X0107916Y0168444D01*
X0107916Y0167946D02*
X0111130Y0167946D01*
X0110382Y0167447D02*
X0107916Y0167447D01*
X0107916Y0166949D02*
X0109634Y0166949D01*
X0108887Y0166450D02*
X0107916Y0166450D01*
X0107916Y0165952D02*
X0108139Y0165952D01*
X0107916Y0165803D02*
X0122916Y0175803D01*
X0107916Y0185803D01*
X0107916Y0165803D01*
X0107916Y0169940D02*
X0114121Y0169940D01*
X0114869Y0170438D02*
X0107916Y0170438D01*
X0107916Y0170937D02*
X0115617Y0170937D01*
X0116364Y0171435D02*
X0107916Y0171435D01*
X0107916Y0171934D02*
X0117112Y0171934D01*
X0117860Y0172432D02*
X0107916Y0172432D01*
X0107916Y0172931D02*
X0118608Y0172931D01*
X0119355Y0173429D02*
X0107916Y0173429D01*
X0107916Y0173928D02*
X0120103Y0173928D01*
X0120851Y0174427D02*
X0107916Y0174427D01*
X0107916Y0174925D02*
X0121599Y0174925D01*
X0122346Y0175424D02*
X0107916Y0175424D01*
X0107916Y0175922D02*
X0122738Y0175922D01*
X0121990Y0176421D02*
X0107916Y0176421D01*
X0107916Y0176919D02*
X0121242Y0176919D01*
X0120494Y0177418D02*
X0107916Y0177418D01*
X0107916Y0177916D02*
X0119746Y0177916D01*
X0118999Y0178415D02*
X0107916Y0178415D01*
X0107916Y0178913D02*
X0118251Y0178913D01*
X0117503Y0179412D02*
X0107916Y0179412D01*
X0107916Y0179910D02*
X0116755Y0179910D01*
X0116008Y0180409D02*
X0107916Y0180409D01*
X0107916Y0180907D02*
X0115260Y0180907D01*
X0114512Y0181406D02*
X0107916Y0181406D01*
X0107916Y0181904D02*
X0113764Y0181904D01*
X0113017Y0182403D02*
X0107916Y0182403D01*
X0107916Y0182901D02*
X0112269Y0182901D01*
X0111521Y0183400D02*
X0107916Y0183400D01*
X0107916Y0183898D02*
X0110773Y0183898D01*
X0110026Y0184397D02*
X0107916Y0184397D01*
X0107916Y0184895D02*
X0109278Y0184895D01*
X0108530Y0185394D02*
X0107916Y0185394D01*
X0111228Y0197048D02*
X0111228Y0199804D01*
X0109259Y0198426D01*
X0111228Y0197048D01*
X0111228Y0197358D02*
X0110785Y0197358D01*
X0111228Y0197857D02*
X0110073Y0197857D01*
X0109361Y0198355D02*
X0111228Y0198355D01*
X0111228Y0198854D02*
X0109870Y0198854D01*
X0110582Y0199352D02*
X0111228Y0199352D01*
X0092916Y0184553D02*
X0089166Y0184553D01*
X0090416Y0184397D02*
X0091509Y0184397D01*
X0091666Y0184553D02*
X0090416Y0185803D01*
X0090416Y0183303D01*
X0091666Y0184553D01*
X0091324Y0184895D02*
X0090416Y0184895D01*
X0090416Y0185394D02*
X0090825Y0185394D01*
X0091666Y0185803D02*
X0091666Y0183303D01*
X0091011Y0183898D02*
X0090416Y0183898D01*
X0090416Y0183400D02*
X0090512Y0183400D01*
X0079284Y0182654D02*
X0079284Y0188953D01*
X0069048Y0188953D01*
X0069048Y0182654D01*
X0079284Y0182654D01*
X0075416Y0185803D02*
X0072291Y0188928D01*
X0072291Y0182678D01*
X0075416Y0185803D01*
X0075327Y0185892D02*
X0072291Y0185892D01*
X0072291Y0185394D02*
X0075006Y0185394D01*
X0074508Y0184895D02*
X0072291Y0184895D01*
X0072291Y0184397D02*
X0074009Y0184397D01*
X0073511Y0183898D02*
X0072291Y0183898D01*
X0072291Y0183400D02*
X0073012Y0183400D01*
X0072514Y0182901D02*
X0072291Y0182901D01*
X0072291Y0186391D02*
X0074828Y0186391D01*
X0074330Y0186889D02*
X0072291Y0186889D01*
X0072291Y0187388D02*
X0073831Y0187388D01*
X0073333Y0187886D02*
X0072291Y0187886D01*
X0072291Y0188385D02*
X0072834Y0188385D01*
X0072336Y0188883D02*
X0072291Y0188883D01*
X0084072Y0200222D02*
X0084072Y0208884D01*
X0088009Y0208884D01*
X0088009Y0200222D01*
X0084072Y0200222D01*
X0084796Y0167240D02*
X0082040Y0167240D01*
X0083418Y0165272D01*
X0084796Y0167240D01*
X0084592Y0166949D02*
X0082244Y0166949D01*
X0082593Y0166450D02*
X0084243Y0166450D01*
X0083894Y0165952D02*
X0082942Y0165952D01*
X0083291Y0165453D02*
X0083545Y0165453D01*
X0085539Y0130710D02*
X0084161Y0128741D01*
X0086917Y0128741D01*
X0085539Y0130710D01*
X0085432Y0130558D02*
X0085645Y0130558D01*
X0085994Y0130059D02*
X0085083Y0130059D01*
X0084735Y0129560D02*
X0086343Y0129560D01*
X0086692Y0129062D02*
X0084386Y0129062D01*
X0085539Y0095710D02*
X0084161Y0093741D01*
X0086917Y0093741D01*
X0085539Y0095710D01*
X0085505Y0095662D02*
X0085572Y0095662D01*
X0085921Y0095163D02*
X0085156Y0095163D01*
X0084807Y0094665D02*
X0086270Y0094665D01*
X0086619Y0094166D02*
X0084459Y0094166D01*
X0137916Y0198973D02*
X0137202Y0199473D01*
X0136586Y0200089D01*
X0136086Y0200803D01*
X0135717Y0201593D01*
X0135492Y0202435D01*
X0135416Y0203303D01*
X0145416Y0203303D01*
X0145340Y0202435D01*
X0145114Y0201593D01*
X0144746Y0200803D01*
X0144246Y0200089D01*
X0143630Y0199473D01*
X0142916Y0198973D01*
X0142126Y0198605D01*
X0141284Y0198379D01*
X0140416Y0198303D01*
X0139548Y0198379D01*
X0138706Y0198605D01*
X0137916Y0198973D01*
X0138172Y0198854D02*
X0142660Y0198854D01*
X0143457Y0199352D02*
X0137375Y0199352D01*
X0136824Y0199851D02*
X0144007Y0199851D01*
X0144428Y0200349D02*
X0136404Y0200349D01*
X0136065Y0200848D02*
X0144767Y0200848D01*
X0144999Y0201346D02*
X0135833Y0201346D01*
X0135650Y0201845D02*
X0145182Y0201845D01*
X0145315Y0202343D02*
X0135516Y0202343D01*
X0135456Y0202842D02*
X0145376Y0202842D01*
X0141009Y0198355D02*
X0139823Y0198355D01*
X0135416Y0213303D02*
X0145416Y0213303D01*
X0145340Y0214171D01*
X0145114Y0215013D01*
X0144746Y0215803D01*
X0136086Y0215803D01*
X0135717Y0215013D01*
X0135492Y0214171D01*
X0135416Y0213303D01*
X0135417Y0213310D02*
X0145415Y0213310D01*
X0145372Y0213809D02*
X0135460Y0213809D01*
X0135528Y0214307D02*
X0145303Y0214307D01*
X0145170Y0214806D02*
X0135662Y0214806D01*
X0135853Y0215304D02*
X0144979Y0215304D01*
X0144746Y0215803D02*
X0144246Y0216517D01*
X0143630Y0217133D01*
X0142916Y0217633D01*
X0142126Y0218002D01*
X0141284Y0218227D01*
X0140416Y0218303D01*
X0139548Y0218227D01*
X0138706Y0218002D01*
X0137916Y0217633D01*
X0137202Y0217133D01*
X0136586Y0216517D01*
X0136086Y0215803D01*
X0136435Y0216301D02*
X0144397Y0216301D01*
X0143963Y0216800D02*
X0136869Y0216800D01*
X0137438Y0217298D02*
X0143394Y0217298D01*
X0142565Y0217797D02*
X0138267Y0217797D01*
X0140329Y0218296D02*
X0140503Y0218296D01*
X0198541Y0214553D02*
X0202291Y0214553D01*
X0201041Y0214307D02*
X0200037Y0214307D01*
X0199791Y0214553D02*
X0201041Y0213303D01*
X0201041Y0215803D01*
X0201041Y0215803D01*
X0199791Y0214553D01*
X0200044Y0214806D02*
X0201041Y0214806D01*
X0201041Y0215304D02*
X0200542Y0215304D01*
X0199791Y0215803D02*
X0199791Y0213303D01*
X0200535Y0213809D02*
X0201041Y0213809D01*
X0201034Y0213310D02*
X0201041Y0213310D01*
D18*
X0142916Y0175803D02*
X0138416Y0175803D01*
X0137916Y0175803D02*
X0127916Y0175803D01*
X0107916Y0175803D02*
X0097916Y0175803D01*
X0097416Y0175803D02*
X0092916Y0175803D01*
X0095762Y0153303D02*
X0120416Y0153303D01*
X0160416Y0153303D02*
X0185069Y0153303D01*
X0251041Y0149656D02*
X0251041Y0122678D01*
X0239791Y0091428D02*
X0239791Y0064450D01*
D19*
X0185819Y0153303D03*
X0095012Y0153303D03*
D20*
X0235666Y0184553D03*
D21*
X0138349Y0175803D03*
X0097483Y0175803D03*
D22*
X0125416Y0175803D03*
D23*
X0251041Y0150141D03*
X0239791Y0063966D03*
D24*
X0094190Y0183371D02*
X0094123Y0183379D01*
X0094056Y0183391D01*
X0093990Y0183406D01*
X0093925Y0183425D01*
X0093862Y0183448D01*
X0093799Y0183475D01*
X0093739Y0183505D01*
X0093680Y0183538D01*
X0093623Y0183574D01*
X0093568Y0183614D01*
X0093516Y0183657D01*
X0093466Y0183703D01*
X0093419Y0183752D01*
X0093374Y0183803D01*
X0093333Y0183856D01*
X0093295Y0183912D01*
X0093260Y0183970D01*
X0093229Y0184030D01*
X0093200Y0184092D01*
X0093176Y0184155D01*
X0093155Y0184219D01*
X0093138Y0184285D01*
X0093124Y0184351D01*
X0093115Y0184418D01*
X0093109Y0184485D01*
X0093107Y0184553D01*
X0093109Y0184621D01*
X0093115Y0184688D01*
X0093124Y0184755D01*
X0093138Y0184821D01*
X0093155Y0184887D01*
X0093176Y0184951D01*
X0093200Y0185014D01*
X0093229Y0185076D01*
X0093260Y0185136D01*
X0093295Y0185194D01*
X0093333Y0185250D01*
X0093374Y0185303D01*
X0093419Y0185354D01*
X0093466Y0185403D01*
X0093516Y0185449D01*
X0093568Y0185492D01*
X0093623Y0185532D01*
X0093680Y0185568D01*
X0093739Y0185601D01*
X0093799Y0185631D01*
X0093862Y0185658D01*
X0093925Y0185681D01*
X0093990Y0185700D01*
X0094056Y0185715D01*
X0094123Y0185727D01*
X0094190Y0185735D01*
X0092517Y0186128D02*
X0089663Y0186128D01*
X0089663Y0182978D02*
X0092419Y0182978D01*
X0197267Y0213371D02*
X0197334Y0213379D01*
X0197401Y0213391D01*
X0197467Y0213406D01*
X0197532Y0213425D01*
X0197595Y0213448D01*
X0197658Y0213475D01*
X0197718Y0213505D01*
X0197777Y0213538D01*
X0197834Y0213574D01*
X0197889Y0213614D01*
X0197941Y0213657D01*
X0197991Y0213703D01*
X0198038Y0213752D01*
X0198083Y0213803D01*
X0198124Y0213856D01*
X0198162Y0213912D01*
X0198197Y0213970D01*
X0198228Y0214030D01*
X0198257Y0214092D01*
X0198281Y0214155D01*
X0198302Y0214219D01*
X0198319Y0214285D01*
X0198333Y0214351D01*
X0198342Y0214418D01*
X0198348Y0214485D01*
X0198350Y0214553D01*
X0198348Y0214621D01*
X0198342Y0214688D01*
X0198333Y0214755D01*
X0198319Y0214821D01*
X0198302Y0214887D01*
X0198281Y0214951D01*
X0198257Y0215014D01*
X0198228Y0215076D01*
X0198197Y0215136D01*
X0198162Y0215194D01*
X0198124Y0215250D01*
X0198083Y0215303D01*
X0198038Y0215354D01*
X0197991Y0215403D01*
X0197941Y0215449D01*
X0197889Y0215492D01*
X0197834Y0215532D01*
X0197777Y0215568D01*
X0197718Y0215601D01*
X0197658Y0215631D01*
X0197595Y0215658D01*
X0197532Y0215681D01*
X0197467Y0215700D01*
X0197401Y0215715D01*
X0197334Y0215727D01*
X0197267Y0215735D01*
X0199038Y0216128D02*
X0201794Y0216128D01*
X0201794Y0212978D02*
X0198940Y0212978D01*
D25*
X0197660Y0213175D02*
X0197662Y0213209D01*
X0197668Y0213243D01*
X0197678Y0213276D01*
X0197691Y0213307D01*
X0197709Y0213337D01*
X0197729Y0213365D01*
X0197753Y0213390D01*
X0197779Y0213412D01*
X0197807Y0213430D01*
X0197838Y0213446D01*
X0197870Y0213458D01*
X0197904Y0213466D01*
X0197938Y0213470D01*
X0197972Y0213470D01*
X0198006Y0213466D01*
X0198040Y0213458D01*
X0198072Y0213446D01*
X0198102Y0213430D01*
X0198131Y0213412D01*
X0198157Y0213390D01*
X0198181Y0213365D01*
X0198201Y0213337D01*
X0198219Y0213307D01*
X0198232Y0213276D01*
X0198242Y0213243D01*
X0198248Y0213209D01*
X0198250Y0213175D01*
X0198248Y0213141D01*
X0198242Y0213107D01*
X0198232Y0213074D01*
X0198219Y0213043D01*
X0198201Y0213013D01*
X0198181Y0212985D01*
X0198157Y0212960D01*
X0198131Y0212938D01*
X0198103Y0212920D01*
X0198072Y0212904D01*
X0198040Y0212892D01*
X0198006Y0212884D01*
X0197972Y0212880D01*
X0197938Y0212880D01*
X0197904Y0212884D01*
X0197870Y0212892D01*
X0197838Y0212904D01*
X0197807Y0212920D01*
X0197779Y0212938D01*
X0197753Y0212960D01*
X0197729Y0212985D01*
X0197709Y0213013D01*
X0197691Y0213043D01*
X0197678Y0213074D01*
X0197668Y0213107D01*
X0197662Y0213141D01*
X0197660Y0213175D01*
X0203664Y0213470D02*
X0203600Y0213472D01*
X0203536Y0213478D01*
X0203472Y0213487D01*
X0203410Y0213500D01*
X0203348Y0213517D01*
X0203287Y0213538D01*
X0203227Y0213562D01*
X0203169Y0213590D01*
X0203113Y0213620D01*
X0203059Y0213655D01*
X0203007Y0213692D01*
X0202957Y0213733D01*
X0202910Y0213776D01*
X0202865Y0213822D01*
X0202823Y0213871D01*
X0202784Y0213922D01*
X0202748Y0213975D01*
X0202716Y0214030D01*
X0202686Y0214087D01*
X0202660Y0214146D01*
X0202638Y0214206D01*
X0202619Y0214268D01*
X0202604Y0214330D01*
X0202593Y0214393D01*
X0202585Y0214457D01*
X0202581Y0214521D01*
X0202581Y0214585D01*
X0202585Y0214649D01*
X0202593Y0214713D01*
X0202604Y0214776D01*
X0202619Y0214838D01*
X0202638Y0214900D01*
X0202660Y0214960D01*
X0202686Y0215019D01*
X0202716Y0215076D01*
X0202748Y0215131D01*
X0202784Y0215184D01*
X0202823Y0215235D01*
X0202865Y0215284D01*
X0202910Y0215330D01*
X0202957Y0215373D01*
X0203007Y0215414D01*
X0203059Y0215451D01*
X0203113Y0215486D01*
X0203169Y0215516D01*
X0203227Y0215544D01*
X0203287Y0215568D01*
X0203348Y0215589D01*
X0203410Y0215606D01*
X0203472Y0215619D01*
X0203536Y0215628D01*
X0203600Y0215634D01*
X0203664Y0215636D01*
X0093207Y0185931D02*
X0093209Y0185965D01*
X0093215Y0185999D01*
X0093225Y0186032D01*
X0093238Y0186063D01*
X0093256Y0186093D01*
X0093276Y0186121D01*
X0093300Y0186146D01*
X0093326Y0186168D01*
X0093354Y0186186D01*
X0093385Y0186202D01*
X0093417Y0186214D01*
X0093451Y0186222D01*
X0093485Y0186226D01*
X0093519Y0186226D01*
X0093553Y0186222D01*
X0093587Y0186214D01*
X0093619Y0186202D01*
X0093649Y0186186D01*
X0093678Y0186168D01*
X0093704Y0186146D01*
X0093728Y0186121D01*
X0093748Y0186093D01*
X0093766Y0186063D01*
X0093779Y0186032D01*
X0093789Y0185999D01*
X0093795Y0185965D01*
X0093797Y0185931D01*
X0093795Y0185897D01*
X0093789Y0185863D01*
X0093779Y0185830D01*
X0093766Y0185799D01*
X0093748Y0185769D01*
X0093728Y0185741D01*
X0093704Y0185716D01*
X0093678Y0185694D01*
X0093650Y0185676D01*
X0093619Y0185660D01*
X0093587Y0185648D01*
X0093553Y0185640D01*
X0093519Y0185636D01*
X0093485Y0185636D01*
X0093451Y0185640D01*
X0093417Y0185648D01*
X0093385Y0185660D01*
X0093354Y0185676D01*
X0093326Y0185694D01*
X0093300Y0185716D01*
X0093276Y0185741D01*
X0093256Y0185769D01*
X0093238Y0185799D01*
X0093225Y0185830D01*
X0093215Y0185863D01*
X0093209Y0185897D01*
X0093207Y0185931D01*
X0087793Y0185636D02*
X0087857Y0185634D01*
X0087921Y0185628D01*
X0087985Y0185619D01*
X0088047Y0185606D01*
X0088109Y0185589D01*
X0088170Y0185568D01*
X0088230Y0185544D01*
X0088288Y0185516D01*
X0088344Y0185486D01*
X0088398Y0185451D01*
X0088450Y0185414D01*
X0088500Y0185373D01*
X0088547Y0185330D01*
X0088592Y0185284D01*
X0088634Y0185235D01*
X0088673Y0185184D01*
X0088709Y0185131D01*
X0088741Y0185076D01*
X0088771Y0185019D01*
X0088797Y0184960D01*
X0088819Y0184900D01*
X0088838Y0184838D01*
X0088853Y0184776D01*
X0088864Y0184713D01*
X0088872Y0184649D01*
X0088876Y0184585D01*
X0088876Y0184521D01*
X0088872Y0184457D01*
X0088864Y0184393D01*
X0088853Y0184330D01*
X0088838Y0184268D01*
X0088819Y0184206D01*
X0088797Y0184146D01*
X0088771Y0184087D01*
X0088741Y0184030D01*
X0088709Y0183975D01*
X0088673Y0183922D01*
X0088634Y0183871D01*
X0088592Y0183822D01*
X0088547Y0183776D01*
X0088500Y0183733D01*
X0088450Y0183692D01*
X0088398Y0183655D01*
X0088344Y0183620D01*
X0088288Y0183590D01*
X0088230Y0183562D01*
X0088170Y0183538D01*
X0088109Y0183517D01*
X0088047Y0183500D01*
X0087985Y0183487D01*
X0087921Y0183478D01*
X0087857Y0183472D01*
X0087793Y0183470D01*
D26*
X0094092Y0185931D03*
X0197365Y0213175D03*
D27*
X0198152Y0213569D03*
X0093305Y0185537D03*
D28*
X0093157Y0186226D03*
X0198300Y0212880D03*
D29*
X0197660Y0215931D03*
X0093797Y0183175D03*
D30*
X0092862Y0184553D03*
X0198595Y0214553D03*
D31*
X0202778Y0213175D03*
X0202778Y0215931D03*
X0088679Y0185931D03*
X0088679Y0183175D03*
D32*
X0089220Y0184553D03*
X0202237Y0214553D03*
D33*
X0202778Y0213667D03*
X0202778Y0215439D03*
X0088679Y0185439D03*
X0088679Y0183667D03*
D34*
X0076134Y0185803D03*
D35*
X0079875Y0185803D03*
X0068457Y0185803D03*
M02*
