G75*
%MOIN*%
%OFA0B0*%
%FSLAX25Y25*%
%IPPOS*%
%LPD*%
%AMOC8*
5,1,8,0,0,1.08239X$1,22.5*
%
%ADD10C,0.14173*%
%ADD11C,0.10236*%
%ADD12C,0.10000*%
%ADD13OC8,0.10000*%
%ADD14C,0.05937*%
%ADD15C,0.07874*%
%ADD16R,0.03543X0.02559*%
%ADD17R,0.02559X0.03543*%
%ADD18OC8,0.12400*%
%ADD19C,0.12400*%
%ADD20R,0.03150X0.03150*%
%ADD21C,0.07087*%
%ADD22C,0.10630*%
%ADD23R,0.04724X0.06299*%
%ADD24C,0.03200*%
%ADD25C,0.02378*%
%ADD26C,0.05000*%
%ADD27C,0.04724*%
%ADD28C,0.10000*%
%ADD29C,0.01200*%
D10*
X0183241Y0067132D03*
X0217640Y0068579D03*
X0217640Y0128421D03*
X0183241Y0126974D03*
D11*
X0183241Y0112014D03*
X0183241Y0097053D03*
X0217640Y0098500D03*
X0217640Y0113461D03*
X0129697Y0126974D03*
X0107798Y0128421D03*
X0107798Y0098500D03*
X0129697Y0097053D03*
X0129697Y0067132D03*
X0107798Y0068579D03*
D12*
X0242916Y0184553D03*
X0165416Y0190803D03*
D13*
X0185416Y0190803D03*
X0201666Y0169553D03*
X0222916Y0184553D03*
X0211666Y0143303D03*
X0251321Y0122407D03*
X0255416Y0143303D03*
X0239510Y0091699D03*
X0251666Y0079553D03*
X0230416Y0058303D03*
X0201666Y0058303D03*
X0114166Y0058303D03*
X0127916Y0138303D03*
X0120416Y0153303D03*
X0141666Y0158303D03*
X0150416Y0167053D03*
X0142916Y0175803D03*
X0127916Y0193303D03*
X0092916Y0175803D03*
X0160416Y0153303D03*
X0170416Y0138303D03*
D14*
X0104634Y0198382D02*
X0098697Y0198382D01*
X0098697Y0208224D02*
X0104634Y0208224D01*
X0262447Y0072053D02*
X0268384Y0072053D01*
X0268384Y0062053D02*
X0262447Y0062053D01*
D15*
X0144353Y0203303D02*
X0136479Y0203303D01*
X0136479Y0213303D02*
X0144353Y0213303D01*
D16*
X0086041Y0207407D03*
X0086041Y0201699D03*
D17*
X0215062Y0057053D03*
X0220770Y0057053D03*
D18*
X0222916Y0184553D03*
D19*
X0252916Y0184553D03*
D20*
X0203369Y0214553D03*
X0197463Y0214553D03*
X0093994Y0184553D03*
X0088088Y0184553D03*
D21*
X0077571Y0161846D02*
X0077571Y0154760D01*
X0065760Y0154760D02*
X0065760Y0161846D01*
X0272010Y0104346D02*
X0272010Y0097260D01*
X0283821Y0097260D02*
X0283821Y0104346D01*
D22*
X0286961Y0105488D02*
X0286961Y0116118D01*
X0271371Y0116118D02*
X0271371Y0105488D01*
X0271371Y0140488D02*
X0271371Y0151118D01*
X0286961Y0151118D02*
X0286961Y0140488D01*
X0080711Y0137988D02*
X0080711Y0148618D01*
X0065121Y0148618D02*
X0065121Y0137988D01*
X0065121Y0113618D02*
X0065121Y0102988D01*
X0080711Y0102988D02*
X0080711Y0113618D01*
D23*
X0080859Y0185803D03*
X0067473Y0185803D03*
D24*
X0067473Y0179996D01*
X0074166Y0173303D01*
X0082916Y0173303D01*
X0102916Y0153303D01*
X0120416Y0153303D01*
X0119166Y0167152D02*
X0119166Y0169652D01*
X0119166Y0167152D02*
X0140032Y0146285D01*
X0109166Y0169553D02*
X0109166Y0172053D01*
X0112916Y0175803D01*
X0122916Y0175803D01*
X0140416Y0193303D01*
X0140416Y0203303D01*
X0140416Y0213303D02*
X0137916Y0215803D01*
X0109166Y0193303D02*
X0100416Y0184553D01*
X0093994Y0184553D01*
X0088088Y0184553D02*
X0082109Y0184553D01*
X0080859Y0185803D01*
X0089358Y0198382D02*
X0086041Y0201699D01*
X0089358Y0198382D02*
X0101666Y0198382D01*
X0101666Y0208224D02*
X0086858Y0208224D01*
X0086041Y0207407D01*
X0197463Y0214553D02*
X0197463Y0190333D01*
X0204990Y0184553D01*
X0222916Y0184553D01*
X0232916Y0192506D02*
X0232916Y0175803D01*
X0221666Y0164553D01*
X0232916Y0192506D02*
X0210869Y0214553D01*
X0203369Y0214553D01*
X0217640Y0113461D02*
X0226041Y0105060D01*
X0226041Y0075178D01*
X0239166Y0062053D01*
X0265416Y0062053D01*
X0265416Y0072053D02*
X0244949Y0072053D01*
X0237010Y0079992D01*
X0237010Y0089199D01*
X0239510Y0091699D01*
X0217640Y0068579D02*
X0220770Y0065449D01*
X0220770Y0057053D01*
X0215062Y0057053D02*
X0214166Y0057053D01*
X0204166Y0067053D01*
X0197916Y0067053D01*
X0186666Y0078303D01*
X0175416Y0078303D01*
X0170062Y0072949D01*
X0162916Y0072949D01*
X0162916Y0089696D01*
X0150145Y0097053D02*
X0148541Y0098657D01*
X0150145Y0097053D02*
X0183241Y0097053D01*
X0162916Y0072949D02*
X0148541Y0072949D01*
D25*
X0148541Y0072949D03*
X0162916Y0089696D03*
X0148541Y0098657D03*
X0140032Y0146285D03*
X0119166Y0169652D03*
X0109166Y0169553D03*
X0109166Y0193303D03*
X0221666Y0164553D03*
D26*
X0161041Y0131428D02*
X0159791Y0131428D01*
X0152916Y0124553D01*
X0152916Y0118928D01*
X0141041Y0107053D01*
X0141041Y0078475D01*
X0129697Y0067132D01*
X0129791Y0067132D01*
X0080711Y0155163D02*
X0077571Y0158303D01*
X0283821Y0100803D02*
X0286961Y0103943D01*
D27*
X0294791Y0088928D03*
X0294791Y0080803D03*
X0282916Y0083928D03*
X0265416Y0079553D03*
X0260416Y0088303D03*
X0252916Y0088303D03*
X0252916Y0097053D03*
X0252916Y0104553D03*
X0252916Y0112053D03*
X0245416Y0112053D03*
X0238541Y0111428D03*
X0237916Y0102053D03*
X0220416Y0087053D03*
X0220416Y0080178D03*
X0210416Y0080178D03*
X0202916Y0073303D03*
X0197916Y0080178D03*
X0202916Y0087053D03*
X0185416Y0087053D03*
X0167916Y0087053D03*
X0167916Y0078303D03*
X0171666Y0063303D03*
X0164166Y0063303D03*
X0167916Y0054553D03*
X0182916Y0054553D03*
X0152916Y0054553D03*
X0152916Y0063303D03*
X0142916Y0063303D03*
X0137916Y0054553D03*
X0122916Y0054553D03*
X0102916Y0055803D03*
X0090416Y0055803D03*
X0090416Y0063303D03*
X0090416Y0070803D03*
X0087916Y0084553D03*
X0092916Y0090803D03*
X0101666Y0090803D03*
X0092291Y0099553D03*
X0104166Y0113303D03*
X0112916Y0113303D03*
X0112916Y0107053D03*
X0124791Y0112053D03*
X0129791Y0106428D03*
X0147916Y0112053D03*
X0161041Y0123303D03*
X0170416Y0113303D03*
X0170416Y0105803D03*
X0176666Y0104553D03*
X0147916Y0127053D03*
X0161041Y0131428D03*
X0161041Y0138303D03*
X0182916Y0138303D03*
X0200416Y0138303D03*
X0200416Y0148928D03*
X0193541Y0154553D03*
X0185416Y0168928D03*
X0194166Y0175803D03*
X0209166Y0184553D03*
X0199166Y0188303D03*
X0205416Y0200803D03*
X0205416Y0208303D03*
X0195416Y0203303D03*
X0191666Y0215803D03*
X0177916Y0213928D03*
X0167916Y0213303D03*
X0172916Y0198303D03*
X0152916Y0194553D03*
X0152916Y0188303D03*
X0145416Y0194553D03*
X0142916Y0188303D03*
X0152916Y0180803D03*
X0158541Y0173928D03*
X0165416Y0168303D03*
X0173541Y0167053D03*
X0165416Y0160803D03*
X0165416Y0180803D03*
X0173541Y0180178D03*
X0212916Y0170803D03*
X0227916Y0160178D03*
X0235416Y0155803D03*
X0237916Y0147678D03*
X0237916Y0138303D03*
X0242916Y0133303D03*
X0254791Y0133303D03*
X0242916Y0123303D03*
X0223541Y0138303D03*
X0243541Y0160178D03*
X0250416Y0165178D03*
X0257916Y0170803D03*
X0266041Y0178303D03*
X0275416Y0181428D03*
X0277916Y0189553D03*
X0285416Y0189553D03*
X0292916Y0189553D03*
X0292916Y0181428D03*
X0292916Y0173303D03*
X0284166Y0181428D03*
X0280416Y0168303D03*
X0292916Y0163928D03*
X0266666Y0163303D03*
X0257916Y0153303D03*
X0237916Y0170803D03*
X0215416Y0200803D03*
X0227916Y0208303D03*
X0222916Y0215803D03*
X0237916Y0215803D03*
X0242916Y0208303D03*
X0252916Y0215803D03*
X0255416Y0205803D03*
X0267916Y0205803D03*
X0267916Y0215803D03*
X0137916Y0137678D03*
X0119166Y0129553D03*
X0115416Y0138303D03*
X0107916Y0137053D03*
X0099791Y0143928D03*
X0097916Y0150803D03*
X0090416Y0149553D03*
X0090416Y0155803D03*
X0100416Y0163303D03*
X0101041Y0170803D03*
X0101041Y0179553D03*
X0114166Y0184553D03*
X0130416Y0170803D03*
X0114166Y0167053D03*
X0114166Y0145803D03*
X0092291Y0127053D03*
X0077916Y0168303D03*
X0076666Y0178303D03*
X0059791Y0175803D03*
X0059791Y0190178D03*
X0102916Y0215803D03*
X0210416Y0105803D03*
X0231041Y0080178D03*
X0236666Y0072053D03*
X0243541Y0080178D03*
X0251666Y0067053D03*
X0242916Y0054553D03*
X0265416Y0053303D03*
X0132916Y0082053D03*
X0072916Y0085803D03*
X0060416Y0080803D03*
D28*
X0065121Y0089848D02*
X0070416Y0084553D01*
X0087916Y0084553D01*
X0090416Y0082053D01*
X0090416Y0070803D01*
X0092640Y0068579D01*
X0107798Y0068579D01*
X0129697Y0067132D02*
X0132276Y0064553D01*
X0180662Y0064553D01*
X0183241Y0067132D01*
X0239510Y0091699D02*
X0248615Y0100803D01*
X0272010Y0100803D01*
X0271371Y0101443D01*
X0271371Y0110803D01*
X0271371Y0145803D01*
X0286961Y0145803D02*
X0286961Y0110803D01*
X0286961Y0103943D01*
X0251321Y0122407D02*
X0251321Y0128421D01*
X0217640Y0128421D01*
X0184688Y0128421D01*
X0183241Y0126974D01*
X0176041Y0149553D02*
X0175416Y0150178D01*
X0154166Y0128928D01*
X0129697Y0126974D02*
X0128251Y0128421D01*
X0120416Y0128421D01*
X0120416Y0153303D01*
X0142916Y0175803D02*
X0160416Y0158303D01*
X0160416Y0153303D01*
X0175416Y0150178D02*
X0185416Y0160178D01*
X0185416Y0190803D01*
X0185416Y0207053D01*
X0179166Y0213303D01*
X0140416Y0213303D01*
X0201666Y0183303D02*
X0201666Y0155803D01*
X0195416Y0149553D01*
X0176041Y0149553D01*
X0201666Y0183303D02*
X0202916Y0184553D01*
X0222916Y0184553D01*
X0242916Y0184553D02*
X0252916Y0184553D01*
X0251321Y0184553D01*
X0251321Y0128421D01*
X0239766Y0091699D02*
X0239510Y0091699D01*
X0250731Y0184553D02*
X0252916Y0184553D01*
X0120416Y0128421D02*
X0107798Y0128421D01*
X0080711Y0143303D02*
X0080711Y0108303D01*
X0065121Y0108303D02*
X0065121Y0089848D01*
X0065121Y0108303D02*
X0065121Y0143303D01*
X0065760Y0143943D01*
X0065760Y0158303D01*
X0080711Y0155163D02*
X0080711Y0143303D01*
D29*
X0084575Y0076525D02*
X0084575Y0050478D01*
X0270351Y0050478D01*
X0270351Y0057923D01*
X0269293Y0057485D01*
X0261539Y0057485D01*
X0259860Y0058180D01*
X0259187Y0058853D01*
X0238529Y0058853D01*
X0237353Y0059340D01*
X0236453Y0060240D01*
X0224228Y0072465D01*
X0223328Y0073365D01*
X0222841Y0074542D01*
X0222841Y0094200D01*
X0221446Y0092805D01*
X0218977Y0091782D01*
X0216304Y0091782D01*
X0213835Y0092805D01*
X0211945Y0094694D01*
X0210922Y0097164D01*
X0210922Y0099836D01*
X0211945Y0102305D01*
X0213835Y0104195D01*
X0216304Y0105218D01*
X0218977Y0105218D01*
X0221446Y0104195D01*
X0222841Y0102800D01*
X0222841Y0103735D01*
X0219582Y0106993D01*
X0218977Y0106743D01*
X0216304Y0106743D01*
X0213835Y0107765D01*
X0211945Y0109655D01*
X0210922Y0112124D01*
X0210922Y0114797D01*
X0211945Y0117266D01*
X0213282Y0118603D01*
X0185730Y0118603D01*
X0185309Y0118429D01*
X0187046Y0117709D01*
X0188936Y0115819D01*
X0189959Y0113350D01*
X0189959Y0110677D01*
X0188936Y0108208D01*
X0187046Y0106318D01*
X0184577Y0105296D01*
X0181904Y0105296D01*
X0179435Y0106318D01*
X0177545Y0108208D01*
X0176523Y0110677D01*
X0176523Y0113350D01*
X0177545Y0115819D01*
X0179435Y0117709D01*
X0181173Y0118429D01*
X0180751Y0118603D01*
X0177005Y0118603D01*
X0175716Y0119892D01*
X0175716Y0122442D01*
X0174554Y0125247D01*
X0174554Y0128702D01*
X0175716Y0131507D01*
X0175716Y0137964D01*
X0177005Y0139253D01*
X0181966Y0144214D01*
X0181966Y0144214D01*
X0183255Y0145503D01*
X0203216Y0145503D01*
X0203216Y0174214D01*
X0204505Y0175503D01*
X0228090Y0175503D01*
X0229716Y0177129D01*
X0229716Y0191180D01*
X0209543Y0211353D01*
X0202732Y0211353D01*
X0202671Y0211378D01*
X0201131Y0211378D01*
X0200194Y0212316D01*
X0200194Y0213856D01*
X0200169Y0213917D01*
X0200169Y0215190D01*
X0200194Y0215251D01*
X0200194Y0216791D01*
X0201131Y0217728D01*
X0202671Y0217728D01*
X0202732Y0217753D01*
X0211505Y0217753D01*
X0212681Y0217266D01*
X0213581Y0216366D01*
X0234729Y0195219D01*
X0235629Y0194319D01*
X0236116Y0193142D01*
X0236116Y0193003D01*
X0261327Y0193003D01*
X0262616Y0191714D01*
X0262616Y0160503D01*
X0278827Y0160503D01*
X0280116Y0159214D01*
X0280116Y0092392D01*
X0278827Y0091103D01*
X0251327Y0091103D01*
X0245116Y0084892D01*
X0243827Y0083603D01*
X0240210Y0083603D01*
X0240210Y0081317D01*
X0246274Y0075253D01*
X0259187Y0075253D01*
X0259860Y0075926D01*
X0261539Y0076622D01*
X0269293Y0076622D01*
X0270351Y0076183D01*
X0270351Y0076525D01*
X0271289Y0077462D01*
X0297336Y0077462D01*
X0297336Y0192372D01*
X0271289Y0192372D01*
X0270351Y0193310D01*
X0270351Y0219357D01*
X0084575Y0219357D01*
X0084575Y0204578D01*
X0084631Y0204578D01*
X0085404Y0204899D01*
X0086677Y0204899D01*
X0087451Y0204578D01*
X0088475Y0204578D01*
X0089413Y0203641D01*
X0089413Y0202853D01*
X0090683Y0201582D01*
X0095437Y0201582D01*
X0096110Y0202255D01*
X0097789Y0202950D01*
X0103216Y0202950D01*
X0103216Y0204214D01*
X0104505Y0205503D01*
X0131397Y0205503D01*
X0131785Y0206440D01*
X0133342Y0207997D01*
X0135377Y0208840D01*
X0145454Y0208840D01*
X0147489Y0207997D01*
X0149047Y0206440D01*
X0149435Y0205503D01*
X0176327Y0205503D01*
X0177616Y0204214D01*
X0177616Y0184892D01*
X0176327Y0183603D01*
X0170116Y0183603D01*
X0170116Y0142392D01*
X0168827Y0141103D01*
X0142616Y0141103D01*
X0142616Y0117392D01*
X0141327Y0116103D01*
X0097616Y0116103D01*
X0097616Y0096142D01*
X0096327Y0094853D01*
X0073255Y0094853D01*
X0071966Y0096142D01*
X0071966Y0170978D01*
X0065660Y0177283D01*
X0064760Y0178183D01*
X0064273Y0179360D01*
X0064273Y0181229D01*
X0063511Y0181991D01*
X0063511Y0189615D01*
X0064448Y0190553D01*
X0070498Y0190553D01*
X0071435Y0189615D01*
X0071435Y0181991D01*
X0070719Y0181275D01*
X0071966Y0180029D01*
X0071966Y0181714D01*
X0073255Y0183003D01*
X0076897Y0183003D01*
X0076897Y0189615D01*
X0077834Y0190553D01*
X0083884Y0190553D01*
X0084821Y0189615D01*
X0084821Y0187753D01*
X0088725Y0187753D01*
X0088785Y0187728D01*
X0090326Y0187728D01*
X0091041Y0187013D01*
X0091756Y0187728D01*
X0093296Y0187728D01*
X0093357Y0187753D01*
X0099090Y0187753D01*
X0103216Y0191879D01*
X0103216Y0193813D01*
X0097789Y0193813D01*
X0096110Y0194509D01*
X0095437Y0195182D01*
X0088721Y0195182D01*
X0087545Y0195669D01*
X0084575Y0198639D01*
X0084575Y0193310D01*
X0083638Y0192372D01*
X0057591Y0192372D01*
X0057591Y0077462D01*
X0083638Y0077462D01*
X0084575Y0076525D01*
X0084575Y0075869D02*
X0147229Y0075869D01*
X0146728Y0075662D02*
X0145828Y0074761D01*
X0145341Y0073585D01*
X0145341Y0072312D01*
X0145828Y0071136D01*
X0146728Y0070236D01*
X0147904Y0069749D01*
X0170698Y0069749D01*
X0171874Y0070236D01*
X0176741Y0075103D01*
X0185340Y0075103D01*
X0196103Y0064340D01*
X0197279Y0063853D01*
X0198552Y0063853D01*
X0202840Y0063853D01*
X0211453Y0055240D01*
X0212353Y0054340D01*
X0212536Y0054264D01*
X0213119Y0053681D01*
X0217004Y0053681D01*
X0217941Y0054619D01*
X0217941Y0055643D01*
X0218262Y0056417D01*
X0218262Y0057690D01*
X0217941Y0058463D01*
X0217941Y0059488D01*
X0217004Y0060425D01*
X0215320Y0060425D01*
X0205979Y0069766D01*
X0204802Y0070253D01*
X0199241Y0070253D01*
X0188479Y0081016D01*
X0187302Y0081503D01*
X0174779Y0081503D01*
X0173603Y0081016D01*
X0172703Y0080116D01*
X0168736Y0076149D01*
X0166116Y0076149D01*
X0166116Y0090332D01*
X0165629Y0091509D01*
X0164729Y0092409D01*
X0163552Y0092896D01*
X0162279Y0092896D01*
X0161103Y0092409D01*
X0160203Y0091509D01*
X0159716Y0090332D01*
X0159716Y0076149D01*
X0147904Y0076149D01*
X0146728Y0075662D01*
X0145790Y0074670D02*
X0084575Y0074670D01*
X0084575Y0073472D02*
X0145341Y0073472D01*
X0145357Y0072273D02*
X0084575Y0072273D01*
X0084575Y0071075D02*
X0145889Y0071075D01*
X0147596Y0069876D02*
X0084575Y0069876D01*
X0084575Y0068678D02*
X0191766Y0068678D01*
X0192964Y0067479D02*
X0084575Y0067479D01*
X0084575Y0066281D02*
X0194163Y0066281D01*
X0195361Y0065082D02*
X0084575Y0065082D01*
X0084575Y0063884D02*
X0197205Y0063884D01*
X0204008Y0062685D02*
X0084575Y0062685D01*
X0084575Y0061487D02*
X0205207Y0061487D01*
X0206405Y0060288D02*
X0084575Y0060288D01*
X0084575Y0059090D02*
X0207604Y0059090D01*
X0208802Y0057891D02*
X0084575Y0057891D01*
X0084575Y0056693D02*
X0210001Y0056693D01*
X0211199Y0055494D02*
X0084575Y0055494D01*
X0084575Y0054296D02*
X0212461Y0054296D01*
X0217618Y0054296D02*
X0270351Y0054296D01*
X0270351Y0055494D02*
X0217941Y0055494D01*
X0218262Y0056693D02*
X0270351Y0056693D01*
X0270351Y0057891D02*
X0270275Y0057891D01*
X0270351Y0053097D02*
X0084575Y0053097D01*
X0084575Y0051899D02*
X0270351Y0051899D01*
X0270351Y0050700D02*
X0084575Y0050700D01*
X0084032Y0077067D02*
X0159716Y0077067D01*
X0159716Y0078266D02*
X0057591Y0078266D01*
X0057591Y0079464D02*
X0159716Y0079464D01*
X0159716Y0080663D02*
X0057591Y0080663D01*
X0057591Y0081861D02*
X0159716Y0081861D01*
X0159716Y0083060D02*
X0057591Y0083060D01*
X0057591Y0084258D02*
X0159716Y0084258D01*
X0159716Y0085457D02*
X0057591Y0085457D01*
X0057591Y0086656D02*
X0159716Y0086656D01*
X0159716Y0087854D02*
X0057591Y0087854D01*
X0057591Y0089053D02*
X0159716Y0089053D01*
X0159716Y0090251D02*
X0057591Y0090251D01*
X0057591Y0091450D02*
X0125800Y0091450D01*
X0125892Y0091358D02*
X0128361Y0090335D01*
X0131034Y0090335D01*
X0133503Y0091358D01*
X0135393Y0093248D01*
X0136415Y0095717D01*
X0136415Y0098389D01*
X0135393Y0100859D01*
X0133503Y0102748D01*
X0131034Y0103771D01*
X0128361Y0103771D01*
X0125892Y0102748D01*
X0124002Y0100859D01*
X0122979Y0098389D01*
X0122979Y0095717D01*
X0124002Y0093248D01*
X0125892Y0091358D01*
X0124602Y0092648D02*
X0111225Y0092648D01*
X0111603Y0092805D02*
X0109134Y0091782D01*
X0106461Y0091782D01*
X0103992Y0092805D01*
X0102102Y0094694D01*
X0101080Y0097164D01*
X0101080Y0099836D01*
X0102102Y0102305D01*
X0103992Y0104195D01*
X0106461Y0105218D01*
X0109134Y0105218D01*
X0111603Y0104195D01*
X0113493Y0102305D01*
X0114516Y0099836D01*
X0114516Y0097164D01*
X0113493Y0094694D01*
X0111603Y0092805D01*
X0112645Y0093847D02*
X0123754Y0093847D01*
X0123258Y0095045D02*
X0113638Y0095045D01*
X0114135Y0096244D02*
X0122979Y0096244D01*
X0122979Y0097442D02*
X0114516Y0097442D01*
X0114516Y0098641D02*
X0123083Y0098641D01*
X0123580Y0099839D02*
X0114515Y0099839D01*
X0114018Y0101038D02*
X0124181Y0101038D01*
X0125380Y0102236D02*
X0113522Y0102236D01*
X0112364Y0103435D02*
X0127548Y0103435D01*
X0131846Y0103435D02*
X0181092Y0103435D01*
X0181904Y0103771D02*
X0179435Y0102748D01*
X0177545Y0100859D01*
X0177295Y0100253D01*
X0151471Y0100253D01*
X0150354Y0101370D01*
X0149177Y0101857D01*
X0147904Y0101857D01*
X0146728Y0101370D01*
X0145828Y0100470D01*
X0145341Y0099294D01*
X0145341Y0098021D01*
X0145828Y0096845D01*
X0147432Y0095240D01*
X0148333Y0094340D01*
X0149509Y0093853D01*
X0177295Y0093853D01*
X0177545Y0093248D01*
X0179435Y0091358D01*
X0181904Y0090335D01*
X0184577Y0090335D01*
X0187046Y0091358D01*
X0188936Y0093248D01*
X0189959Y0095717D01*
X0189959Y0098389D01*
X0188936Y0100859D01*
X0187046Y0102748D01*
X0184577Y0103771D01*
X0181904Y0103771D01*
X0180610Y0105832D02*
X0097616Y0105832D01*
X0097616Y0107030D02*
X0178723Y0107030D01*
X0177537Y0108229D02*
X0097616Y0108229D01*
X0097616Y0109427D02*
X0177040Y0109427D01*
X0176544Y0110626D02*
X0097616Y0110626D01*
X0097616Y0111824D02*
X0176523Y0111824D01*
X0176523Y0113023D02*
X0097616Y0113023D01*
X0097616Y0114221D02*
X0176883Y0114221D01*
X0177380Y0115420D02*
X0097616Y0115420D01*
X0095416Y0115420D02*
X0074166Y0115420D01*
X0074166Y0116618D02*
X0095416Y0116618D01*
X0095416Y0117817D02*
X0074166Y0117817D01*
X0074166Y0119015D02*
X0095416Y0119015D01*
X0095416Y0120214D02*
X0074166Y0120214D01*
X0074166Y0121412D02*
X0095416Y0121412D01*
X0095416Y0122611D02*
X0074166Y0122611D01*
X0074166Y0123809D02*
X0095416Y0123809D01*
X0095416Y0125008D02*
X0074166Y0125008D01*
X0074166Y0126206D02*
X0095416Y0126206D01*
X0095416Y0127405D02*
X0074166Y0127405D01*
X0074166Y0128603D02*
X0095416Y0128603D01*
X0095416Y0129802D02*
X0074166Y0129802D01*
X0074166Y0131000D02*
X0095416Y0131000D01*
X0095416Y0132199D02*
X0074166Y0132199D01*
X0074166Y0133397D02*
X0095416Y0133397D01*
X0095416Y0134596D02*
X0074166Y0134596D01*
X0074166Y0135794D02*
X0095416Y0135794D01*
X0095416Y0136993D02*
X0074166Y0136993D01*
X0074166Y0138191D02*
X0095416Y0138191D01*
X0095416Y0139390D02*
X0074166Y0139390D01*
X0074166Y0140589D02*
X0095416Y0140589D01*
X0095416Y0141787D02*
X0074166Y0141787D01*
X0074166Y0142986D02*
X0095416Y0142986D01*
X0095416Y0144184D02*
X0074166Y0144184D01*
X0074166Y0145383D02*
X0095416Y0145383D01*
X0095416Y0146581D02*
X0074166Y0146581D01*
X0074166Y0147780D02*
X0095416Y0147780D01*
X0095416Y0148303D02*
X0095416Y0097053D01*
X0074166Y0097053D01*
X0074166Y0170103D01*
X0081590Y0170103D01*
X0101103Y0150590D01*
X0101793Y0150305D01*
X0099791Y0148303D01*
X0095416Y0148303D01*
X0097916Y0145803D02*
X0101666Y0145803D01*
X0105416Y0149553D01*
X0105416Y0185028D01*
X0111879Y0191490D01*
X0112366Y0192667D01*
X0112366Y0193940D01*
X0111879Y0195116D01*
X0110979Y0196016D01*
X0109802Y0196503D01*
X0108801Y0196503D01*
X0109203Y0197473D01*
X0109203Y0199291D01*
X0108507Y0200970D01*
X0107222Y0202255D01*
X0105543Y0202950D01*
X0105416Y0202950D01*
X0105416Y0203303D01*
X0130942Y0203303D01*
X0130942Y0202202D01*
X0131785Y0200167D01*
X0133342Y0198609D01*
X0135377Y0197766D01*
X0137216Y0197766D01*
X0137216Y0194629D01*
X0121590Y0179003D01*
X0112279Y0179003D01*
X0111103Y0178516D01*
X0110203Y0177616D01*
X0110203Y0177616D01*
X0107353Y0174766D01*
X0106453Y0173866D01*
X0105966Y0172690D01*
X0105966Y0168917D01*
X0106453Y0167740D01*
X0107353Y0166840D01*
X0108529Y0166353D01*
X0109802Y0166353D01*
X0110979Y0166840D01*
X0111879Y0167740D01*
X0112366Y0168917D01*
X0112366Y0170728D01*
X0114241Y0172603D01*
X0117930Y0172603D01*
X0117353Y0172364D01*
X0116453Y0171464D01*
X0115966Y0170288D01*
X0115966Y0166515D01*
X0116453Y0165339D01*
X0117353Y0164439D01*
X0132916Y0148876D01*
X0132916Y0140803D01*
X0140416Y0140803D01*
X0140416Y0118303D01*
X0097916Y0118303D01*
X0097916Y0145803D01*
X0097916Y0145383D02*
X0132916Y0145383D01*
X0132916Y0146581D02*
X0102444Y0146581D01*
X0103642Y0147780D02*
X0132916Y0147780D01*
X0132814Y0148978D02*
X0104841Y0148978D01*
X0105416Y0150177D02*
X0131615Y0150177D01*
X0130417Y0151375D02*
X0105416Y0151375D01*
X0105416Y0152574D02*
X0129218Y0152574D01*
X0128020Y0153772D02*
X0105416Y0153772D01*
X0105416Y0154971D02*
X0126821Y0154971D01*
X0125623Y0156169D02*
X0105416Y0156169D01*
X0105416Y0157368D02*
X0124424Y0157368D01*
X0123226Y0158566D02*
X0105416Y0158566D01*
X0105416Y0159765D02*
X0122027Y0159765D01*
X0120829Y0160963D02*
X0105416Y0160963D01*
X0105416Y0162162D02*
X0119630Y0162162D01*
X0118432Y0163360D02*
X0105416Y0163360D01*
X0105416Y0164559D02*
X0117233Y0164559D01*
X0116280Y0165757D02*
X0105416Y0165757D01*
X0105416Y0166956D02*
X0107238Y0166956D01*
X0106282Y0168154D02*
X0105416Y0168154D01*
X0105416Y0169353D02*
X0105966Y0169353D01*
X0105966Y0170551D02*
X0105416Y0170551D01*
X0105416Y0171750D02*
X0105966Y0171750D01*
X0106073Y0172948D02*
X0105416Y0172948D01*
X0105416Y0174147D02*
X0106734Y0174147D01*
X0107353Y0174766D02*
X0107353Y0174766D01*
X0107933Y0175345D02*
X0105416Y0175345D01*
X0105416Y0176544D02*
X0109131Y0176544D01*
X0110330Y0177742D02*
X0105416Y0177742D01*
X0105416Y0178941D02*
X0112129Y0178941D01*
X0105416Y0180139D02*
X0122727Y0180139D01*
X0123925Y0181338D02*
X0105416Y0181338D01*
X0105416Y0182536D02*
X0125124Y0182536D01*
X0126322Y0183735D02*
X0105416Y0183735D01*
X0105416Y0184933D02*
X0127521Y0184933D01*
X0128719Y0186132D02*
X0106520Y0186132D01*
X0107719Y0187330D02*
X0129918Y0187330D01*
X0131116Y0188529D02*
X0108917Y0188529D01*
X0110116Y0189727D02*
X0132315Y0189727D01*
X0133513Y0190926D02*
X0111314Y0190926D01*
X0112141Y0192125D02*
X0134712Y0192125D01*
X0135910Y0193323D02*
X0112366Y0193323D01*
X0112125Y0194522D02*
X0137109Y0194522D01*
X0137216Y0195720D02*
X0111274Y0195720D01*
X0108973Y0196919D02*
X0137216Y0196919D01*
X0134530Y0198117D02*
X0109203Y0198117D01*
X0109193Y0199316D02*
X0132636Y0199316D01*
X0131641Y0200514D02*
X0108696Y0200514D01*
X0107765Y0201713D02*
X0131144Y0201713D01*
X0130942Y0202911D02*
X0105638Y0202911D01*
X0103216Y0204110D02*
X0088944Y0204110D01*
X0089413Y0202911D02*
X0097694Y0202911D01*
X0095567Y0201713D02*
X0090553Y0201713D01*
X0086296Y0196919D02*
X0084575Y0196919D01*
X0084575Y0198117D02*
X0085097Y0198117D01*
X0084575Y0195720D02*
X0087494Y0195720D01*
X0084575Y0194522D02*
X0096097Y0194522D01*
X0101065Y0189727D02*
X0084709Y0189727D01*
X0084821Y0188529D02*
X0099866Y0188529D01*
X0102263Y0190926D02*
X0057591Y0190926D01*
X0057591Y0192125D02*
X0103216Y0192125D01*
X0103216Y0193323D02*
X0084575Y0193323D01*
X0077009Y0189727D02*
X0071323Y0189727D01*
X0071435Y0188529D02*
X0076897Y0188529D01*
X0076897Y0187330D02*
X0071435Y0187330D01*
X0071435Y0186132D02*
X0076897Y0186132D01*
X0076897Y0184933D02*
X0071435Y0184933D01*
X0071435Y0183735D02*
X0076897Y0183735D01*
X0074166Y0180803D02*
X0102916Y0180803D01*
X0102916Y0157829D01*
X0084729Y0176016D01*
X0083552Y0176503D01*
X0075491Y0176503D01*
X0074166Y0177829D01*
X0074166Y0180803D01*
X0074166Y0180139D02*
X0102916Y0180139D01*
X0102916Y0178941D02*
X0074166Y0178941D01*
X0074252Y0177742D02*
X0102916Y0177742D01*
X0102916Y0176544D02*
X0075451Y0176544D01*
X0069995Y0172948D02*
X0057591Y0172948D01*
X0057591Y0171750D02*
X0071194Y0171750D01*
X0071966Y0170551D02*
X0057591Y0170551D01*
X0057591Y0169353D02*
X0071966Y0169353D01*
X0071966Y0168154D02*
X0057591Y0168154D01*
X0057591Y0166956D02*
X0071966Y0166956D01*
X0071966Y0165757D02*
X0057591Y0165757D01*
X0057591Y0164559D02*
X0071966Y0164559D01*
X0071966Y0163360D02*
X0057591Y0163360D01*
X0057591Y0162162D02*
X0071966Y0162162D01*
X0071966Y0160963D02*
X0057591Y0160963D01*
X0057591Y0159765D02*
X0071966Y0159765D01*
X0071966Y0158566D02*
X0057591Y0158566D01*
X0057591Y0157368D02*
X0071966Y0157368D01*
X0071966Y0156169D02*
X0057591Y0156169D01*
X0057591Y0154971D02*
X0071966Y0154971D01*
X0071966Y0153772D02*
X0057591Y0153772D01*
X0057591Y0152574D02*
X0071966Y0152574D01*
X0071966Y0151375D02*
X0057591Y0151375D01*
X0057591Y0150177D02*
X0071966Y0150177D01*
X0071966Y0148978D02*
X0057591Y0148978D01*
X0057591Y0147780D02*
X0071966Y0147780D01*
X0071966Y0146581D02*
X0057591Y0146581D01*
X0057591Y0145383D02*
X0071966Y0145383D01*
X0071966Y0144184D02*
X0057591Y0144184D01*
X0057591Y0142986D02*
X0071966Y0142986D01*
X0071966Y0141787D02*
X0057591Y0141787D01*
X0057591Y0140589D02*
X0071966Y0140589D01*
X0071966Y0139390D02*
X0057591Y0139390D01*
X0057591Y0138191D02*
X0071966Y0138191D01*
X0071966Y0136993D02*
X0057591Y0136993D01*
X0057591Y0135794D02*
X0071966Y0135794D01*
X0071966Y0134596D02*
X0057591Y0134596D01*
X0057591Y0133397D02*
X0071966Y0133397D01*
X0071966Y0132199D02*
X0057591Y0132199D01*
X0057591Y0131000D02*
X0071966Y0131000D01*
X0071966Y0129802D02*
X0057591Y0129802D01*
X0057591Y0128603D02*
X0071966Y0128603D01*
X0071966Y0127405D02*
X0057591Y0127405D01*
X0057591Y0126206D02*
X0071966Y0126206D01*
X0071966Y0125008D02*
X0057591Y0125008D01*
X0057591Y0123809D02*
X0071966Y0123809D01*
X0071966Y0122611D02*
X0057591Y0122611D01*
X0057591Y0121412D02*
X0071966Y0121412D01*
X0071966Y0120214D02*
X0057591Y0120214D01*
X0057591Y0119015D02*
X0071966Y0119015D01*
X0071966Y0117817D02*
X0057591Y0117817D01*
X0057591Y0116618D02*
X0071966Y0116618D01*
X0071966Y0115420D02*
X0057591Y0115420D01*
X0057591Y0114221D02*
X0071966Y0114221D01*
X0071966Y0113023D02*
X0057591Y0113023D01*
X0057591Y0111824D02*
X0071966Y0111824D01*
X0071966Y0110626D02*
X0057591Y0110626D01*
X0057591Y0109427D02*
X0071966Y0109427D01*
X0071966Y0108229D02*
X0057591Y0108229D01*
X0057591Y0107030D02*
X0071966Y0107030D01*
X0071966Y0105832D02*
X0057591Y0105832D01*
X0057591Y0104633D02*
X0071966Y0104633D01*
X0071966Y0103435D02*
X0057591Y0103435D01*
X0057591Y0102236D02*
X0071966Y0102236D01*
X0071966Y0101038D02*
X0057591Y0101038D01*
X0057591Y0099839D02*
X0071966Y0099839D01*
X0071966Y0098641D02*
X0057591Y0098641D01*
X0057591Y0097442D02*
X0071966Y0097442D01*
X0071966Y0096244D02*
X0057591Y0096244D01*
X0057591Y0095045D02*
X0073063Y0095045D01*
X0074166Y0097442D02*
X0095416Y0097442D01*
X0095416Y0098641D02*
X0074166Y0098641D01*
X0074166Y0099839D02*
X0095416Y0099839D01*
X0095416Y0101038D02*
X0074166Y0101038D01*
X0074166Y0102236D02*
X0095416Y0102236D01*
X0095416Y0103435D02*
X0074166Y0103435D01*
X0074166Y0104633D02*
X0095416Y0104633D01*
X0095416Y0105832D02*
X0074166Y0105832D01*
X0074166Y0107030D02*
X0095416Y0107030D01*
X0095416Y0108229D02*
X0074166Y0108229D01*
X0074166Y0109427D02*
X0095416Y0109427D01*
X0095416Y0110626D02*
X0074166Y0110626D01*
X0074166Y0111824D02*
X0095416Y0111824D01*
X0095416Y0113023D02*
X0074166Y0113023D01*
X0074166Y0114221D02*
X0095416Y0114221D01*
X0097916Y0119015D02*
X0140416Y0119015D01*
X0140416Y0120214D02*
X0097916Y0120214D01*
X0097916Y0121412D02*
X0140416Y0121412D01*
X0140416Y0122611D02*
X0097916Y0122611D01*
X0097916Y0123809D02*
X0140416Y0123809D01*
X0140416Y0125008D02*
X0097916Y0125008D01*
X0097916Y0126206D02*
X0140416Y0126206D01*
X0140416Y0127405D02*
X0097916Y0127405D01*
X0097916Y0128603D02*
X0140416Y0128603D01*
X0140416Y0129802D02*
X0097916Y0129802D01*
X0097916Y0131000D02*
X0140416Y0131000D01*
X0140416Y0132199D02*
X0097916Y0132199D01*
X0097916Y0133397D02*
X0140416Y0133397D01*
X0140416Y0134596D02*
X0097916Y0134596D01*
X0097916Y0135794D02*
X0140416Y0135794D01*
X0140416Y0136993D02*
X0097916Y0136993D01*
X0097916Y0138191D02*
X0140416Y0138191D01*
X0140416Y0139390D02*
X0097916Y0139390D01*
X0097916Y0140589D02*
X0140416Y0140589D01*
X0142616Y0140589D02*
X0178340Y0140589D01*
X0179539Y0141787D02*
X0169511Y0141787D01*
X0170116Y0142986D02*
X0180737Y0142986D01*
X0181936Y0144184D02*
X0170116Y0144184D01*
X0170116Y0145383D02*
X0183134Y0145383D01*
X0183816Y0142953D02*
X0196729Y0142953D01*
X0197574Y0143303D01*
X0205416Y0143303D01*
X0205416Y0150219D01*
X0207261Y0152065D01*
X0208266Y0154490D01*
X0208266Y0173303D01*
X0225890Y0173303D01*
X0218953Y0166366D01*
X0218466Y0165190D01*
X0218466Y0163917D01*
X0218953Y0162740D01*
X0219853Y0161840D01*
X0221029Y0161353D01*
X0222302Y0161353D01*
X0223479Y0161840D01*
X0235629Y0173990D01*
X0236116Y0175167D01*
X0236116Y0190803D01*
X0260416Y0190803D01*
X0260416Y0117053D01*
X0231666Y0117053D01*
X0231666Y0120803D01*
X0177916Y0120803D01*
X0177916Y0137053D01*
X0183816Y0142953D01*
X0182650Y0141787D02*
X0260416Y0141787D01*
X0260416Y0140589D02*
X0181451Y0140589D01*
X0180253Y0139390D02*
X0260416Y0139390D01*
X0260416Y0138191D02*
X0179054Y0138191D01*
X0177916Y0136993D02*
X0260416Y0136993D01*
X0260416Y0135794D02*
X0177916Y0135794D01*
X0177916Y0134596D02*
X0260416Y0134596D01*
X0260416Y0133397D02*
X0177916Y0133397D01*
X0177916Y0132199D02*
X0260416Y0132199D01*
X0260416Y0131000D02*
X0177916Y0131000D01*
X0177916Y0129802D02*
X0260416Y0129802D01*
X0260416Y0128603D02*
X0177916Y0128603D01*
X0177916Y0127405D02*
X0260416Y0127405D01*
X0260416Y0126206D02*
X0177916Y0126206D01*
X0177916Y0125008D02*
X0260416Y0125008D01*
X0260416Y0123809D02*
X0177916Y0123809D01*
X0177916Y0122611D02*
X0260416Y0122611D01*
X0260416Y0121412D02*
X0177916Y0121412D01*
X0175716Y0121412D02*
X0142616Y0121412D01*
X0142616Y0120214D02*
X0175716Y0120214D01*
X0176592Y0119015D02*
X0142616Y0119015D01*
X0142616Y0117817D02*
X0179695Y0117817D01*
X0178344Y0116618D02*
X0141842Y0116618D01*
X0142616Y0122611D02*
X0175646Y0122611D01*
X0175149Y0123809D02*
X0142616Y0123809D01*
X0142616Y0125008D02*
X0174653Y0125008D01*
X0174554Y0126206D02*
X0142616Y0126206D01*
X0142616Y0127405D02*
X0174554Y0127405D01*
X0174554Y0128603D02*
X0142616Y0128603D01*
X0142616Y0129802D02*
X0175010Y0129802D01*
X0175506Y0131000D02*
X0142616Y0131000D01*
X0142616Y0132199D02*
X0175716Y0132199D01*
X0175716Y0133397D02*
X0142616Y0133397D01*
X0142616Y0134596D02*
X0175716Y0134596D01*
X0175716Y0135794D02*
X0142616Y0135794D01*
X0142616Y0136993D02*
X0175716Y0136993D01*
X0175943Y0138191D02*
X0142616Y0138191D01*
X0142616Y0139390D02*
X0177141Y0139390D01*
X0170116Y0146581D02*
X0203216Y0146581D01*
X0203216Y0147780D02*
X0170116Y0147780D01*
X0170116Y0148978D02*
X0203216Y0148978D01*
X0203216Y0150177D02*
X0170116Y0150177D01*
X0170116Y0151375D02*
X0203216Y0151375D01*
X0203216Y0152574D02*
X0170116Y0152574D01*
X0170116Y0153772D02*
X0203216Y0153772D01*
X0203216Y0154971D02*
X0170116Y0154971D01*
X0170116Y0156169D02*
X0203216Y0156169D01*
X0203216Y0157368D02*
X0170116Y0157368D01*
X0170116Y0158566D02*
X0203216Y0158566D01*
X0203216Y0159765D02*
X0170116Y0159765D01*
X0170116Y0160963D02*
X0203216Y0160963D01*
X0203216Y0162162D02*
X0170116Y0162162D01*
X0170116Y0163360D02*
X0203216Y0163360D01*
X0203216Y0164559D02*
X0170116Y0164559D01*
X0170116Y0165757D02*
X0203216Y0165757D01*
X0203216Y0166956D02*
X0170116Y0166956D01*
X0170116Y0168154D02*
X0203216Y0168154D01*
X0203216Y0169353D02*
X0170116Y0169353D01*
X0170116Y0170551D02*
X0203216Y0170551D01*
X0203216Y0171750D02*
X0170116Y0171750D01*
X0170116Y0172948D02*
X0203216Y0172948D01*
X0203216Y0174147D02*
X0170116Y0174147D01*
X0170116Y0175345D02*
X0204347Y0175345D01*
X0208266Y0172948D02*
X0225536Y0172948D01*
X0224337Y0171750D02*
X0208266Y0171750D01*
X0208266Y0170551D02*
X0223139Y0170551D01*
X0221940Y0169353D02*
X0208266Y0169353D01*
X0208266Y0168154D02*
X0220742Y0168154D01*
X0219543Y0166956D02*
X0208266Y0166956D01*
X0208266Y0165757D02*
X0218701Y0165757D01*
X0218466Y0164559D02*
X0208266Y0164559D01*
X0208266Y0163360D02*
X0218696Y0163360D01*
X0219532Y0162162D02*
X0208266Y0162162D01*
X0208266Y0160963D02*
X0260416Y0160963D01*
X0260416Y0159765D02*
X0208266Y0159765D01*
X0208266Y0158566D02*
X0260416Y0158566D01*
X0260416Y0157368D02*
X0208266Y0157368D01*
X0208266Y0156169D02*
X0260416Y0156169D01*
X0260416Y0154971D02*
X0208266Y0154971D01*
X0207968Y0153772D02*
X0260416Y0153772D01*
X0260416Y0152574D02*
X0207472Y0152574D01*
X0206572Y0151375D02*
X0260416Y0151375D01*
X0260416Y0150177D02*
X0205416Y0150177D01*
X0205416Y0148978D02*
X0260416Y0148978D01*
X0260416Y0147780D02*
X0205416Y0147780D01*
X0205416Y0146581D02*
X0260416Y0146581D01*
X0260416Y0145383D02*
X0205416Y0145383D01*
X0205416Y0144184D02*
X0260416Y0144184D01*
X0260416Y0142986D02*
X0196807Y0142986D01*
X0167916Y0152012D02*
X0159207Y0143303D01*
X0141194Y0143303D01*
X0141845Y0143573D01*
X0142745Y0144473D01*
X0143232Y0145649D01*
X0143232Y0146922D01*
X0142745Y0148098D01*
X0135416Y0155427D01*
X0135416Y0183303D01*
X0167916Y0183303D01*
X0167916Y0152012D01*
X0167916Y0152574D02*
X0138269Y0152574D01*
X0137071Y0153772D02*
X0167916Y0153772D01*
X0167916Y0154971D02*
X0135872Y0154971D01*
X0135416Y0156169D02*
X0167916Y0156169D01*
X0167916Y0157368D02*
X0135416Y0157368D01*
X0135416Y0158566D02*
X0167916Y0158566D01*
X0167916Y0159765D02*
X0135416Y0159765D01*
X0135416Y0160963D02*
X0167916Y0160963D01*
X0167916Y0162162D02*
X0135416Y0162162D01*
X0135416Y0163360D02*
X0167916Y0163360D01*
X0167916Y0164559D02*
X0135416Y0164559D01*
X0135416Y0165757D02*
X0167916Y0165757D01*
X0167916Y0166956D02*
X0135416Y0166956D01*
X0135416Y0168154D02*
X0167916Y0168154D01*
X0167916Y0169353D02*
X0135416Y0169353D01*
X0135416Y0170551D02*
X0167916Y0170551D01*
X0167916Y0171750D02*
X0135416Y0171750D01*
X0135416Y0172948D02*
X0167916Y0172948D01*
X0167916Y0174147D02*
X0135416Y0174147D01*
X0135416Y0175345D02*
X0167916Y0175345D01*
X0167916Y0176544D02*
X0135416Y0176544D01*
X0135416Y0177742D02*
X0167916Y0177742D01*
X0167916Y0178941D02*
X0135416Y0178941D01*
X0135416Y0180139D02*
X0167916Y0180139D01*
X0167916Y0181338D02*
X0135416Y0181338D01*
X0135416Y0182536D02*
X0167916Y0182536D01*
X0170116Y0182536D02*
X0229716Y0182536D01*
X0229716Y0181338D02*
X0170116Y0181338D01*
X0170116Y0180139D02*
X0229716Y0180139D01*
X0229716Y0178941D02*
X0170116Y0178941D01*
X0170116Y0177742D02*
X0229716Y0177742D01*
X0229131Y0176544D02*
X0170116Y0176544D01*
X0176459Y0183735D02*
X0229716Y0183735D01*
X0229716Y0184933D02*
X0177616Y0184933D01*
X0177616Y0186132D02*
X0229716Y0186132D01*
X0229716Y0187330D02*
X0177616Y0187330D01*
X0177616Y0188529D02*
X0229716Y0188529D01*
X0229716Y0189727D02*
X0177616Y0189727D01*
X0177616Y0190926D02*
X0229716Y0190926D01*
X0228772Y0192125D02*
X0177616Y0192125D01*
X0177616Y0193323D02*
X0227573Y0193323D01*
X0226375Y0194522D02*
X0177616Y0194522D01*
X0177616Y0195720D02*
X0225176Y0195720D01*
X0223978Y0196919D02*
X0177616Y0196919D01*
X0177616Y0198117D02*
X0222779Y0198117D01*
X0221581Y0199316D02*
X0177616Y0199316D01*
X0177616Y0200514D02*
X0220382Y0200514D01*
X0219184Y0201713D02*
X0177616Y0201713D01*
X0177616Y0202911D02*
X0217985Y0202911D01*
X0216787Y0204110D02*
X0177616Y0204110D01*
X0176522Y0205308D02*
X0215588Y0205308D01*
X0214390Y0206507D02*
X0148980Y0206507D01*
X0147781Y0207705D02*
X0213191Y0207705D01*
X0211993Y0208904D02*
X0084575Y0208904D01*
X0084575Y0210102D02*
X0210794Y0210102D01*
X0209596Y0211301D02*
X0084575Y0211301D01*
X0084575Y0212499D02*
X0200194Y0212499D01*
X0200194Y0213698D02*
X0084575Y0213698D01*
X0084575Y0214896D02*
X0200169Y0214896D01*
X0200194Y0216095D02*
X0084575Y0216095D01*
X0084575Y0217293D02*
X0200696Y0217293D01*
X0212615Y0217293D02*
X0270351Y0217293D01*
X0270351Y0216095D02*
X0213853Y0216095D01*
X0215051Y0214896D02*
X0270351Y0214896D01*
X0270351Y0213698D02*
X0216250Y0213698D01*
X0217448Y0212499D02*
X0270351Y0212499D01*
X0270351Y0211301D02*
X0218647Y0211301D01*
X0219845Y0210102D02*
X0270351Y0210102D01*
X0270351Y0208904D02*
X0221044Y0208904D01*
X0222242Y0207705D02*
X0270351Y0207705D01*
X0270351Y0206507D02*
X0223441Y0206507D01*
X0224639Y0205308D02*
X0270351Y0205308D01*
X0270351Y0204110D02*
X0225838Y0204110D01*
X0227036Y0202911D02*
X0270351Y0202911D01*
X0270351Y0201713D02*
X0228235Y0201713D01*
X0229433Y0200514D02*
X0270351Y0200514D01*
X0270351Y0199316D02*
X0230632Y0199316D01*
X0231830Y0198117D02*
X0270351Y0198117D01*
X0270351Y0196919D02*
X0233029Y0196919D01*
X0234227Y0195720D02*
X0270351Y0195720D01*
X0270351Y0194522D02*
X0235426Y0194522D01*
X0236041Y0193323D02*
X0270351Y0193323D01*
X0262616Y0190926D02*
X0297336Y0190926D01*
X0297336Y0192125D02*
X0262206Y0192125D01*
X0262616Y0189727D02*
X0297336Y0189727D01*
X0297336Y0188529D02*
X0262616Y0188529D01*
X0262616Y0187330D02*
X0297336Y0187330D01*
X0297336Y0186132D02*
X0262616Y0186132D01*
X0262616Y0184933D02*
X0297336Y0184933D01*
X0297336Y0183735D02*
X0262616Y0183735D01*
X0262616Y0182536D02*
X0297336Y0182536D01*
X0297336Y0181338D02*
X0262616Y0181338D01*
X0262616Y0180139D02*
X0297336Y0180139D01*
X0297336Y0178941D02*
X0262616Y0178941D01*
X0262616Y0177742D02*
X0297336Y0177742D01*
X0297336Y0176544D02*
X0262616Y0176544D01*
X0262616Y0175345D02*
X0297336Y0175345D01*
X0297336Y0174147D02*
X0262616Y0174147D01*
X0262616Y0172948D02*
X0297336Y0172948D01*
X0297336Y0171750D02*
X0262616Y0171750D01*
X0262616Y0170551D02*
X0297336Y0170551D01*
X0297336Y0169353D02*
X0262616Y0169353D01*
X0262616Y0168154D02*
X0297336Y0168154D01*
X0297336Y0166956D02*
X0262616Y0166956D01*
X0262616Y0165757D02*
X0297336Y0165757D01*
X0297336Y0164559D02*
X0262616Y0164559D01*
X0262616Y0163360D02*
X0297336Y0163360D01*
X0297336Y0162162D02*
X0262616Y0162162D01*
X0262616Y0160963D02*
X0297336Y0160963D01*
X0297336Y0159765D02*
X0279566Y0159765D01*
X0280116Y0158566D02*
X0297336Y0158566D01*
X0297336Y0157368D02*
X0280116Y0157368D01*
X0280116Y0156169D02*
X0297336Y0156169D01*
X0297336Y0154971D02*
X0280116Y0154971D01*
X0280116Y0153772D02*
X0297336Y0153772D01*
X0297336Y0152574D02*
X0280116Y0152574D01*
X0280116Y0151375D02*
X0297336Y0151375D01*
X0297336Y0150177D02*
X0280116Y0150177D01*
X0280116Y0148978D02*
X0297336Y0148978D01*
X0297336Y0147780D02*
X0280116Y0147780D01*
X0280116Y0146581D02*
X0297336Y0146581D01*
X0297336Y0145383D02*
X0280116Y0145383D01*
X0280116Y0144184D02*
X0297336Y0144184D01*
X0297336Y0142986D02*
X0280116Y0142986D01*
X0280116Y0141787D02*
X0297336Y0141787D01*
X0297336Y0140589D02*
X0280116Y0140589D01*
X0280116Y0139390D02*
X0297336Y0139390D01*
X0297336Y0138191D02*
X0280116Y0138191D01*
X0280116Y0136993D02*
X0297336Y0136993D01*
X0297336Y0135794D02*
X0280116Y0135794D01*
X0280116Y0134596D02*
X0297336Y0134596D01*
X0297336Y0133397D02*
X0280116Y0133397D01*
X0280116Y0132199D02*
X0297336Y0132199D01*
X0297336Y0131000D02*
X0280116Y0131000D01*
X0280116Y0129802D02*
X0297336Y0129802D01*
X0297336Y0128603D02*
X0280116Y0128603D01*
X0280116Y0127405D02*
X0297336Y0127405D01*
X0297336Y0126206D02*
X0280116Y0126206D01*
X0280116Y0125008D02*
X0297336Y0125008D01*
X0297336Y0123809D02*
X0280116Y0123809D01*
X0280116Y0122611D02*
X0297336Y0122611D01*
X0297336Y0121412D02*
X0280116Y0121412D01*
X0280116Y0120214D02*
X0297336Y0120214D01*
X0297336Y0119015D02*
X0280116Y0119015D01*
X0280116Y0117817D02*
X0297336Y0117817D01*
X0297336Y0116618D02*
X0280116Y0116618D01*
X0280116Y0115420D02*
X0297336Y0115420D01*
X0297336Y0114221D02*
X0280116Y0114221D01*
X0280116Y0113023D02*
X0297336Y0113023D01*
X0297336Y0111824D02*
X0280116Y0111824D01*
X0280116Y0110626D02*
X0297336Y0110626D01*
X0297336Y0109427D02*
X0280116Y0109427D01*
X0280116Y0108229D02*
X0297336Y0108229D01*
X0297336Y0107030D02*
X0280116Y0107030D01*
X0280116Y0105832D02*
X0297336Y0105832D01*
X0297336Y0104633D02*
X0280116Y0104633D01*
X0280116Y0103435D02*
X0297336Y0103435D01*
X0297336Y0102236D02*
X0280116Y0102236D01*
X0280116Y0101038D02*
X0297336Y0101038D01*
X0297336Y0099839D02*
X0280116Y0099839D01*
X0280116Y0098641D02*
X0297336Y0098641D01*
X0297336Y0097442D02*
X0280116Y0097442D01*
X0280116Y0096244D02*
X0297336Y0096244D01*
X0297336Y0095045D02*
X0280116Y0095045D01*
X0280116Y0093847D02*
X0297336Y0093847D01*
X0297336Y0092648D02*
X0280116Y0092648D01*
X0279174Y0091450D02*
X0297336Y0091450D01*
X0297336Y0090251D02*
X0250475Y0090251D01*
X0249277Y0089053D02*
X0297336Y0089053D01*
X0297336Y0087854D02*
X0248078Y0087854D01*
X0246880Y0086656D02*
X0297336Y0086656D01*
X0297336Y0085457D02*
X0245681Y0085457D01*
X0244482Y0084258D02*
X0297336Y0084258D01*
X0297336Y0083060D02*
X0240210Y0083060D01*
X0240210Y0081861D02*
X0297336Y0081861D01*
X0297336Y0080663D02*
X0240865Y0080663D01*
X0242063Y0079464D02*
X0297336Y0079464D01*
X0297336Y0078266D02*
X0243262Y0078266D01*
X0244460Y0077067D02*
X0270894Y0077067D01*
X0270351Y0067923D02*
X0270351Y0066183D01*
X0269293Y0066622D01*
X0261539Y0066622D01*
X0259860Y0065926D01*
X0259187Y0065253D01*
X0240491Y0065253D01*
X0229241Y0076504D01*
X0229241Y0105697D01*
X0228754Y0106873D01*
X0227854Y0107773D01*
X0224108Y0111519D01*
X0224358Y0112124D01*
X0224358Y0114797D01*
X0223336Y0117266D01*
X0221999Y0118603D01*
X0229466Y0118603D01*
X0229466Y0116142D01*
X0230716Y0114892D01*
X0230716Y0084892D01*
X0232005Y0083603D01*
X0233810Y0083603D01*
X0233810Y0079355D01*
X0234298Y0078179D01*
X0243136Y0069340D01*
X0244312Y0068853D01*
X0245585Y0068853D01*
X0259187Y0068853D01*
X0259860Y0068180D01*
X0261539Y0067485D01*
X0269293Y0067485D01*
X0270351Y0067923D01*
X0270351Y0067479D02*
X0238265Y0067479D01*
X0239464Y0066281D02*
X0260716Y0066281D01*
X0259362Y0068678D02*
X0237067Y0068678D01*
X0235868Y0069876D02*
X0242600Y0069876D01*
X0241402Y0071075D02*
X0234670Y0071075D01*
X0233471Y0072273D02*
X0240203Y0072273D01*
X0239005Y0073472D02*
X0232273Y0073472D01*
X0231074Y0074670D02*
X0237806Y0074670D01*
X0236608Y0075869D02*
X0229876Y0075869D01*
X0229241Y0077067D02*
X0235409Y0077067D01*
X0234262Y0078266D02*
X0229241Y0078266D01*
X0229241Y0079464D02*
X0233810Y0079464D01*
X0233810Y0080663D02*
X0229241Y0080663D01*
X0229241Y0081861D02*
X0233810Y0081861D01*
X0233810Y0083060D02*
X0229241Y0083060D01*
X0229241Y0084258D02*
X0231349Y0084258D01*
X0230716Y0085457D02*
X0229241Y0085457D01*
X0229241Y0086656D02*
X0230716Y0086656D01*
X0230716Y0087854D02*
X0229241Y0087854D01*
X0229241Y0089053D02*
X0230716Y0089053D01*
X0230716Y0090251D02*
X0229241Y0090251D01*
X0229241Y0091450D02*
X0230716Y0091450D01*
X0230716Y0092648D02*
X0229241Y0092648D01*
X0229241Y0093847D02*
X0230716Y0093847D01*
X0230716Y0095045D02*
X0229241Y0095045D01*
X0229241Y0096244D02*
X0230716Y0096244D01*
X0230716Y0097442D02*
X0229241Y0097442D01*
X0229241Y0098641D02*
X0230716Y0098641D01*
X0230716Y0099839D02*
X0229241Y0099839D01*
X0229241Y0101038D02*
X0230716Y0101038D01*
X0230716Y0102236D02*
X0229241Y0102236D01*
X0229241Y0103435D02*
X0230716Y0103435D01*
X0230716Y0104633D02*
X0229241Y0104633D01*
X0229185Y0105832D02*
X0230716Y0105832D01*
X0230716Y0107030D02*
X0228596Y0107030D01*
X0227398Y0108229D02*
X0230716Y0108229D01*
X0230716Y0109427D02*
X0226199Y0109427D01*
X0225001Y0110626D02*
X0230716Y0110626D01*
X0230716Y0111824D02*
X0224234Y0111824D01*
X0224358Y0113023D02*
X0230716Y0113023D01*
X0230716Y0114221D02*
X0224358Y0114221D01*
X0224100Y0115420D02*
X0230188Y0115420D01*
X0229466Y0116618D02*
X0223604Y0116618D01*
X0222785Y0117817D02*
X0229466Y0117817D01*
X0231666Y0117817D02*
X0260416Y0117817D01*
X0260416Y0119015D02*
X0231666Y0119015D01*
X0231666Y0120214D02*
X0260416Y0120214D01*
X0262916Y0120214D02*
X0277916Y0120214D01*
X0277916Y0121412D02*
X0262916Y0121412D01*
X0262916Y0122611D02*
X0277916Y0122611D01*
X0277916Y0123809D02*
X0262916Y0123809D01*
X0262916Y0125008D02*
X0277916Y0125008D01*
X0277916Y0126206D02*
X0262916Y0126206D01*
X0262916Y0127405D02*
X0277916Y0127405D01*
X0277916Y0128603D02*
X0262916Y0128603D01*
X0262916Y0129802D02*
X0277916Y0129802D01*
X0277916Y0131000D02*
X0262916Y0131000D01*
X0262916Y0132199D02*
X0277916Y0132199D01*
X0277916Y0133397D02*
X0262916Y0133397D01*
X0262916Y0134596D02*
X0277916Y0134596D01*
X0277916Y0135794D02*
X0262916Y0135794D01*
X0262916Y0136993D02*
X0277916Y0136993D01*
X0277916Y0138191D02*
X0262916Y0138191D01*
X0262916Y0139390D02*
X0277916Y0139390D01*
X0277916Y0140589D02*
X0262916Y0140589D01*
X0262916Y0141787D02*
X0277916Y0141787D01*
X0277916Y0142986D02*
X0262916Y0142986D01*
X0262916Y0144184D02*
X0277916Y0144184D01*
X0277916Y0145383D02*
X0262916Y0145383D01*
X0262916Y0146581D02*
X0277916Y0146581D01*
X0277916Y0147780D02*
X0262916Y0147780D01*
X0262916Y0148978D02*
X0277916Y0148978D01*
X0277916Y0150177D02*
X0262916Y0150177D01*
X0262916Y0151375D02*
X0277916Y0151375D01*
X0277916Y0152574D02*
X0262916Y0152574D01*
X0262916Y0153772D02*
X0277916Y0153772D01*
X0277916Y0154971D02*
X0262916Y0154971D01*
X0262916Y0156169D02*
X0277916Y0156169D01*
X0277916Y0157368D02*
X0262916Y0157368D01*
X0262916Y0158303D02*
X0277916Y0158303D01*
X0277916Y0093303D01*
X0250416Y0093303D01*
X0242916Y0085803D01*
X0232916Y0085803D01*
X0232916Y0114553D01*
X0262916Y0114553D01*
X0262916Y0158303D01*
X0260416Y0162162D02*
X0223800Y0162162D01*
X0224998Y0163360D02*
X0260416Y0163360D01*
X0260416Y0164559D02*
X0226197Y0164559D01*
X0227395Y0165757D02*
X0260416Y0165757D01*
X0260416Y0166956D02*
X0228594Y0166956D01*
X0229792Y0168154D02*
X0260416Y0168154D01*
X0260416Y0169353D02*
X0230991Y0169353D01*
X0232190Y0170551D02*
X0260416Y0170551D01*
X0260416Y0171750D02*
X0233388Y0171750D01*
X0234587Y0172948D02*
X0260416Y0172948D01*
X0260416Y0174147D02*
X0235693Y0174147D01*
X0236116Y0175345D02*
X0260416Y0175345D01*
X0260416Y0176544D02*
X0236116Y0176544D01*
X0236116Y0177742D02*
X0260416Y0177742D01*
X0260416Y0178941D02*
X0236116Y0178941D01*
X0236116Y0180139D02*
X0260416Y0180139D01*
X0260416Y0181338D02*
X0236116Y0181338D01*
X0236116Y0182536D02*
X0260416Y0182536D01*
X0260416Y0183735D02*
X0236116Y0183735D01*
X0236116Y0184933D02*
X0260416Y0184933D01*
X0260416Y0186132D02*
X0236116Y0186132D01*
X0236116Y0187330D02*
X0260416Y0187330D01*
X0260416Y0188529D02*
X0236116Y0188529D01*
X0236116Y0189727D02*
X0260416Y0189727D01*
X0270351Y0218492D02*
X0084575Y0218492D01*
X0084575Y0207705D02*
X0133050Y0207705D01*
X0131852Y0206507D02*
X0084575Y0206507D01*
X0084575Y0205308D02*
X0104310Y0205308D01*
X0091359Y0187330D02*
X0090723Y0187330D01*
X0085399Y0175345D02*
X0102916Y0175345D01*
X0102916Y0174147D02*
X0086598Y0174147D01*
X0087796Y0172948D02*
X0102916Y0172948D01*
X0102916Y0171750D02*
X0088995Y0171750D01*
X0090193Y0170551D02*
X0102916Y0170551D01*
X0102916Y0169353D02*
X0091392Y0169353D01*
X0092590Y0168154D02*
X0102916Y0168154D01*
X0102916Y0166956D02*
X0093789Y0166956D01*
X0094987Y0165757D02*
X0102916Y0165757D01*
X0102916Y0164559D02*
X0096186Y0164559D01*
X0097384Y0163360D02*
X0102916Y0163360D01*
X0102916Y0162162D02*
X0098583Y0162162D01*
X0099781Y0160963D02*
X0102916Y0160963D01*
X0102916Y0159765D02*
X0100980Y0159765D01*
X0102178Y0158566D02*
X0102916Y0158566D01*
X0097921Y0153772D02*
X0074166Y0153772D01*
X0074166Y0152574D02*
X0099120Y0152574D01*
X0100318Y0151375D02*
X0074166Y0151375D01*
X0074166Y0150177D02*
X0101664Y0150177D01*
X0100466Y0148978D02*
X0074166Y0148978D01*
X0074166Y0154971D02*
X0096723Y0154971D01*
X0095524Y0156169D02*
X0074166Y0156169D01*
X0074166Y0157368D02*
X0094326Y0157368D01*
X0093127Y0158566D02*
X0074166Y0158566D01*
X0074166Y0159765D02*
X0091929Y0159765D01*
X0090730Y0160963D02*
X0074166Y0160963D01*
X0074166Y0162162D02*
X0089532Y0162162D01*
X0088333Y0163360D02*
X0074166Y0163360D01*
X0074166Y0164559D02*
X0087135Y0164559D01*
X0085936Y0165757D02*
X0074166Y0165757D01*
X0074166Y0166956D02*
X0084738Y0166956D01*
X0083539Y0168154D02*
X0074166Y0168154D01*
X0074166Y0169353D02*
X0082341Y0169353D01*
X0068797Y0174147D02*
X0057591Y0174147D01*
X0057591Y0175345D02*
X0067598Y0175345D01*
X0066400Y0176544D02*
X0057591Y0176544D01*
X0057591Y0177742D02*
X0065201Y0177742D01*
X0064446Y0178941D02*
X0057591Y0178941D01*
X0057591Y0180139D02*
X0064273Y0180139D01*
X0064164Y0181338D02*
X0057591Y0181338D01*
X0057591Y0182536D02*
X0063511Y0182536D01*
X0063511Y0183735D02*
X0057591Y0183735D01*
X0057591Y0184933D02*
X0063511Y0184933D01*
X0063511Y0186132D02*
X0057591Y0186132D01*
X0057591Y0187330D02*
X0063511Y0187330D01*
X0063511Y0188529D02*
X0057591Y0188529D01*
X0057591Y0189727D02*
X0063623Y0189727D01*
X0071435Y0182536D02*
X0072788Y0182536D01*
X0071966Y0181338D02*
X0070782Y0181338D01*
X0071855Y0180139D02*
X0071966Y0180139D01*
X0111094Y0166956D02*
X0115966Y0166956D01*
X0115966Y0168154D02*
X0112050Y0168154D01*
X0112366Y0169353D02*
X0115966Y0169353D01*
X0116075Y0170551D02*
X0112366Y0170551D01*
X0113388Y0171750D02*
X0116739Y0171750D01*
X0120402Y0172603D02*
X0123552Y0172603D01*
X0124729Y0173090D01*
X0132916Y0181278D01*
X0132916Y0157927D01*
X0122366Y0168477D01*
X0122366Y0170288D01*
X0121879Y0171464D01*
X0120979Y0172364D01*
X0120402Y0172603D01*
X0121593Y0171750D02*
X0132916Y0171750D01*
X0132916Y0172948D02*
X0124386Y0172948D01*
X0125785Y0174147D02*
X0132916Y0174147D01*
X0132916Y0175345D02*
X0126984Y0175345D01*
X0128182Y0176544D02*
X0132916Y0176544D01*
X0132916Y0177742D02*
X0129381Y0177742D01*
X0130579Y0178941D02*
X0132916Y0178941D01*
X0132916Y0180139D02*
X0131778Y0180139D01*
X0137441Y0185803D02*
X0142229Y0190590D01*
X0143129Y0191490D01*
X0143616Y0192667D01*
X0143616Y0197766D01*
X0145454Y0197766D01*
X0147489Y0198609D01*
X0149047Y0200167D01*
X0149890Y0202202D01*
X0149890Y0203303D01*
X0175416Y0203303D01*
X0175416Y0185803D01*
X0137441Y0185803D01*
X0137770Y0186132D02*
X0175416Y0186132D01*
X0175416Y0187330D02*
X0138969Y0187330D01*
X0140167Y0188529D02*
X0175416Y0188529D01*
X0175416Y0189727D02*
X0141366Y0189727D01*
X0142564Y0190926D02*
X0175416Y0190926D01*
X0175416Y0192125D02*
X0143391Y0192125D01*
X0143616Y0193323D02*
X0175416Y0193323D01*
X0175416Y0194522D02*
X0143616Y0194522D01*
X0143616Y0195720D02*
X0175416Y0195720D01*
X0175416Y0196919D02*
X0143616Y0196919D01*
X0146301Y0198117D02*
X0175416Y0198117D01*
X0175416Y0199316D02*
X0148196Y0199316D01*
X0149191Y0200514D02*
X0175416Y0200514D01*
X0175416Y0201713D02*
X0149687Y0201713D01*
X0149890Y0202911D02*
X0175416Y0202911D01*
X0132916Y0170551D02*
X0122257Y0170551D01*
X0122366Y0169353D02*
X0132916Y0169353D01*
X0132916Y0168154D02*
X0122689Y0168154D01*
X0123887Y0166956D02*
X0132916Y0166956D01*
X0132916Y0165757D02*
X0125086Y0165757D01*
X0126284Y0164559D02*
X0132916Y0164559D01*
X0132916Y0163360D02*
X0127483Y0163360D01*
X0128681Y0162162D02*
X0132916Y0162162D01*
X0132916Y0160963D02*
X0129880Y0160963D01*
X0131078Y0159765D02*
X0132916Y0159765D01*
X0132916Y0158566D02*
X0132277Y0158566D01*
X0139468Y0151375D02*
X0167279Y0151375D01*
X0166081Y0150177D02*
X0140666Y0150177D01*
X0141865Y0148978D02*
X0164882Y0148978D01*
X0163684Y0147780D02*
X0142877Y0147780D01*
X0143232Y0146581D02*
X0162485Y0146581D01*
X0161287Y0145383D02*
X0143122Y0145383D01*
X0142456Y0144184D02*
X0160088Y0144184D01*
X0132916Y0144184D02*
X0097916Y0144184D01*
X0097916Y0142986D02*
X0132916Y0142986D01*
X0132916Y0141787D02*
X0097916Y0141787D01*
X0097616Y0104633D02*
X0105049Y0104633D01*
X0103232Y0103435D02*
X0097616Y0103435D01*
X0097616Y0102236D02*
X0102074Y0102236D01*
X0101577Y0101038D02*
X0097616Y0101038D01*
X0097616Y0099839D02*
X0101081Y0099839D01*
X0101080Y0098641D02*
X0097616Y0098641D01*
X0097616Y0097442D02*
X0101080Y0097442D01*
X0101461Y0096244D02*
X0097616Y0096244D01*
X0096519Y0095045D02*
X0101957Y0095045D01*
X0102950Y0093847D02*
X0057591Y0093847D01*
X0057591Y0092648D02*
X0104370Y0092648D01*
X0110546Y0104633D02*
X0214892Y0104633D01*
X0213074Y0103435D02*
X0185390Y0103435D01*
X0185871Y0105832D02*
X0220744Y0105832D01*
X0220389Y0104633D02*
X0221942Y0104633D01*
X0222206Y0103435D02*
X0222841Y0103435D01*
X0215609Y0107030D02*
X0187758Y0107030D01*
X0188944Y0108229D02*
X0213371Y0108229D01*
X0212173Y0109427D02*
X0189441Y0109427D01*
X0189937Y0110626D02*
X0211543Y0110626D01*
X0211046Y0111824D02*
X0189959Y0111824D01*
X0189959Y0113023D02*
X0210922Y0113023D01*
X0210922Y0114221D02*
X0189598Y0114221D01*
X0189101Y0115420D02*
X0211180Y0115420D01*
X0211677Y0116618D02*
X0188137Y0116618D01*
X0186786Y0117817D02*
X0212496Y0117817D01*
X0211916Y0102236D02*
X0187559Y0102236D01*
X0188757Y0101038D02*
X0211420Y0101038D01*
X0210923Y0099839D02*
X0189358Y0099839D01*
X0189855Y0098641D02*
X0210922Y0098641D01*
X0210922Y0097442D02*
X0189959Y0097442D01*
X0189959Y0096244D02*
X0211303Y0096244D01*
X0211800Y0095045D02*
X0189681Y0095045D01*
X0189184Y0093847D02*
X0212793Y0093847D01*
X0214213Y0092648D02*
X0188336Y0092648D01*
X0187138Y0091450D02*
X0222841Y0091450D01*
X0222841Y0092648D02*
X0221068Y0092648D01*
X0222488Y0093847D02*
X0222841Y0093847D01*
X0222841Y0090251D02*
X0166116Y0090251D01*
X0166116Y0089053D02*
X0222841Y0089053D01*
X0222841Y0087854D02*
X0166116Y0087854D01*
X0166116Y0086656D02*
X0222841Y0086656D01*
X0222841Y0085457D02*
X0166116Y0085457D01*
X0166116Y0084258D02*
X0222841Y0084258D01*
X0222841Y0083060D02*
X0166116Y0083060D01*
X0166116Y0081861D02*
X0222841Y0081861D01*
X0222841Y0080663D02*
X0188832Y0080663D01*
X0190030Y0079464D02*
X0222841Y0079464D01*
X0222841Y0078266D02*
X0191229Y0078266D01*
X0192427Y0077067D02*
X0222841Y0077067D01*
X0222841Y0075869D02*
X0193626Y0075869D01*
X0194824Y0074670D02*
X0222841Y0074670D01*
X0223284Y0073472D02*
X0196023Y0073472D01*
X0197221Y0072273D02*
X0224420Y0072273D01*
X0225619Y0071075D02*
X0198420Y0071075D01*
X0205712Y0069876D02*
X0226817Y0069876D01*
X0228016Y0068678D02*
X0207067Y0068678D01*
X0208265Y0067479D02*
X0229214Y0067479D01*
X0230413Y0066281D02*
X0209464Y0066281D01*
X0210662Y0065082D02*
X0231611Y0065082D01*
X0232810Y0063884D02*
X0211861Y0063884D01*
X0213059Y0062685D02*
X0234008Y0062685D01*
X0235207Y0061487D02*
X0214258Y0061487D01*
X0217140Y0060288D02*
X0236405Y0060288D01*
X0237958Y0059090D02*
X0217941Y0059090D01*
X0218178Y0057891D02*
X0260557Y0057891D01*
X0270116Y0066281D02*
X0270351Y0066281D01*
X0259802Y0075869D02*
X0245659Y0075869D01*
X0243768Y0086656D02*
X0232916Y0086656D01*
X0232916Y0087854D02*
X0244967Y0087854D01*
X0246165Y0089053D02*
X0232916Y0089053D01*
X0232916Y0090251D02*
X0247364Y0090251D01*
X0248562Y0091450D02*
X0232916Y0091450D01*
X0232916Y0092648D02*
X0249761Y0092648D01*
X0232916Y0093847D02*
X0277916Y0093847D01*
X0277916Y0095045D02*
X0232916Y0095045D01*
X0232916Y0096244D02*
X0277916Y0096244D01*
X0277916Y0097442D02*
X0232916Y0097442D01*
X0232916Y0098641D02*
X0277916Y0098641D01*
X0277916Y0099839D02*
X0232916Y0099839D01*
X0232916Y0101038D02*
X0277916Y0101038D01*
X0277916Y0102236D02*
X0232916Y0102236D01*
X0232916Y0103435D02*
X0277916Y0103435D01*
X0277916Y0104633D02*
X0232916Y0104633D01*
X0232916Y0105832D02*
X0277916Y0105832D01*
X0277916Y0107030D02*
X0232916Y0107030D01*
X0232916Y0108229D02*
X0277916Y0108229D01*
X0277916Y0109427D02*
X0232916Y0109427D01*
X0232916Y0110626D02*
X0277916Y0110626D01*
X0277916Y0111824D02*
X0232916Y0111824D01*
X0232916Y0113023D02*
X0277916Y0113023D01*
X0277916Y0114221D02*
X0232916Y0114221D01*
X0262916Y0115420D02*
X0277916Y0115420D01*
X0277916Y0116618D02*
X0262916Y0116618D01*
X0262916Y0117817D02*
X0277916Y0117817D01*
X0277916Y0119015D02*
X0262916Y0119015D01*
X0190567Y0069876D02*
X0171006Y0069876D01*
X0172713Y0071075D02*
X0189369Y0071075D01*
X0188170Y0072273D02*
X0173912Y0072273D01*
X0175110Y0073472D02*
X0186972Y0073472D01*
X0185773Y0074670D02*
X0176309Y0074670D01*
X0172052Y0079464D02*
X0166116Y0079464D01*
X0166116Y0078266D02*
X0170853Y0078266D01*
X0169655Y0077067D02*
X0166116Y0077067D01*
X0166116Y0080663D02*
X0173250Y0080663D01*
X0179343Y0091450D02*
X0165653Y0091450D01*
X0164151Y0092648D02*
X0178145Y0092648D01*
X0177297Y0093847D02*
X0135641Y0093847D01*
X0136137Y0095045D02*
X0147628Y0095045D01*
X0146429Y0096244D02*
X0136415Y0096244D01*
X0136415Y0097442D02*
X0145581Y0097442D01*
X0145341Y0098641D02*
X0136311Y0098641D01*
X0135815Y0099839D02*
X0145567Y0099839D01*
X0146396Y0101038D02*
X0135214Y0101038D01*
X0134015Y0102236D02*
X0178923Y0102236D01*
X0177724Y0101038D02*
X0150686Y0101038D01*
X0160179Y0091450D02*
X0133595Y0091450D01*
X0134793Y0092648D02*
X0161681Y0092648D01*
M02*
