G75*
%MOIN*%
%OFA0B0*%
%FSLAX25Y25*%
%IPPOS*%
%LPD*%
%AMOC8*
5,1,8,0,0,1.08239X$1,22.5*
%
%ADD10C,0.14173*%
%ADD11C,0.10236*%
%ADD12C,0.10000*%
%ADD13OC8,0.10000*%
%ADD14C,0.05937*%
%ADD15C,0.07874*%
%ADD16R,0.03543X0.02559*%
%ADD17OC8,0.12400*%
%ADD18C,0.12400*%
%ADD19R,0.03150X0.03150*%
%ADD20R,0.04724X0.06299*%
%ADD21C,0.15000*%
%ADD22C,0.05000*%
%ADD23C,0.03200*%
%ADD24C,0.02756*%
%ADD25C,0.10000*%
%ADD26C,0.04724*%
%ADD27C,0.01200*%
D10*
X0188866Y0067132D03*
X0232640Y0068579D03*
X0232640Y0128421D03*
X0188866Y0126974D03*
D11*
X0188866Y0112014D03*
X0188866Y0097053D03*
X0232640Y0098500D03*
X0232640Y0113461D03*
X0135322Y0126974D03*
X0122798Y0128421D03*
X0122798Y0098500D03*
X0135322Y0097053D03*
X0135322Y0067132D03*
X0122798Y0068579D03*
D12*
X0242916Y0187053D03*
X0165416Y0190803D03*
D13*
X0185416Y0190803D03*
X0222916Y0187053D03*
X0178541Y0153928D03*
X0177562Y0137398D03*
X0208270Y0149209D03*
X0142916Y0175803D03*
X0138541Y0153928D03*
X0092916Y0175803D03*
D14*
X0098697Y0198382D02*
X0104634Y0198382D01*
X0104634Y0208224D02*
X0098697Y0208224D01*
X0284947Y0183928D02*
X0290884Y0183928D01*
X0290884Y0173928D02*
X0284947Y0173928D01*
D15*
X0144353Y0203303D02*
X0136479Y0203303D01*
X0136479Y0213303D02*
X0144353Y0213303D01*
D16*
X0086041Y0207407D03*
X0086041Y0201699D03*
D17*
X0222916Y0187053D03*
D18*
X0252916Y0187053D03*
D19*
X0207119Y0214553D03*
X0201213Y0214553D03*
X0093994Y0184553D03*
X0088088Y0184553D03*
D20*
X0080859Y0185803D03*
X0067473Y0185803D03*
D21*
X0077291Y0141758D02*
X0092291Y0141758D01*
X0092291Y0117348D02*
X0077291Y0117348D01*
X0264791Y0115803D02*
X0279791Y0115803D01*
X0279791Y0140213D02*
X0264791Y0140213D01*
X0264791Y0091394D02*
X0279791Y0091394D01*
D22*
X0286666Y0090803D02*
X0272881Y0090803D01*
X0272291Y0091394D01*
X0286666Y0090803D02*
X0292916Y0097053D01*
X0292916Y0151428D01*
X0231193Y0112014D02*
X0188866Y0112014D01*
D23*
X0188866Y0097053D02*
X0231193Y0097053D01*
X0232640Y0098500D01*
X0231193Y0112014D02*
X0232640Y0113461D01*
X0188866Y0097053D02*
X0163895Y0097053D01*
X0157291Y0103657D01*
X0157291Y0077949D02*
X0212916Y0077949D01*
X0149791Y0067757D02*
X0149791Y0129553D01*
X0165416Y0145178D01*
X0184791Y0145178D01*
X0187291Y0147678D01*
X0187291Y0168928D01*
X0185416Y0170803D01*
X0185416Y0190803D01*
X0201213Y0187453D02*
X0201213Y0214553D01*
X0207119Y0214553D02*
X0214619Y0214553D01*
X0222916Y0187053D02*
X0201734Y0187053D01*
X0201213Y0187453D01*
X0140416Y0194553D02*
X0140416Y0203303D01*
X0140416Y0213303D02*
X0137916Y0215803D01*
X0140416Y0194553D02*
X0121666Y0175803D01*
X0112916Y0175803D01*
X0109166Y0172053D01*
X0109166Y0169553D01*
X0101041Y0184553D02*
X0093994Y0184553D01*
X0088088Y0184553D02*
X0082109Y0184553D01*
X0080859Y0185803D01*
X0067473Y0185803D02*
X0066666Y0184996D01*
X0066666Y0132053D01*
X0068541Y0130178D01*
X0121041Y0130178D01*
X0122798Y0128421D01*
X0106666Y0122053D02*
X0106666Y0114632D01*
X0122798Y0098500D01*
X0149791Y0067757D02*
X0149166Y0067132D01*
X0101041Y0184553D02*
X0109166Y0192678D01*
X0101666Y0198382D02*
X0089358Y0198382D01*
X0086041Y0201699D01*
X0086041Y0207407D02*
X0086858Y0208224D01*
X0101666Y0208224D01*
D24*
X0109166Y0192678D03*
X0109166Y0169553D03*
X0106666Y0122053D03*
X0157291Y0103657D03*
X0157291Y0077949D03*
X0212916Y0077949D03*
X0214619Y0214553D03*
D25*
X0222916Y0200803D02*
X0229166Y0207053D01*
X0250494Y0207053D01*
X0270416Y0187131D01*
X0270416Y0173928D01*
X0292916Y0151428D01*
X0272291Y0140213D02*
X0263295Y0149209D01*
X0208270Y0149209D01*
X0178541Y0153928D02*
X0164791Y0153928D01*
X0142916Y0175803D01*
X0185416Y0187053D02*
X0185416Y0190803D01*
X0185416Y0207053D01*
X0179166Y0213303D01*
X0140416Y0213303D01*
X0185416Y0187053D02*
X0222916Y0187053D01*
X0222916Y0200803D01*
X0242916Y0187053D02*
X0252916Y0187053D01*
X0251321Y0187053D01*
X0250731Y0187053D02*
X0252916Y0187053D01*
X0255455Y0091394D02*
X0272291Y0091394D01*
X0255455Y0091394D02*
X0232640Y0068579D01*
X0231193Y0067132D01*
X0188866Y0067132D01*
X0149166Y0067132D01*
X0135322Y0067132D01*
X0124245Y0067132D01*
X0122798Y0068579D01*
X0102640Y0068579D01*
X0084791Y0086428D01*
X0084791Y0117348D01*
D26*
X0072916Y0100803D03*
X0062916Y0100803D03*
X0062916Y0090803D03*
X0072916Y0090803D03*
X0082916Y0090803D03*
X0092916Y0090803D03*
X0102916Y0090803D03*
X0112916Y0090803D03*
X0112916Y0080803D03*
X0107916Y0073303D03*
X0102916Y0080803D03*
X0097916Y0073303D03*
X0092916Y0080803D03*
X0087916Y0073303D03*
X0082916Y0080803D03*
X0072916Y0080803D03*
X0062916Y0080803D03*
X0087916Y0063303D03*
X0097916Y0063303D03*
X0107916Y0063303D03*
X0117916Y0055803D03*
X0127916Y0055803D03*
X0137916Y0055803D03*
X0147916Y0055803D03*
X0157916Y0055803D03*
X0167916Y0055803D03*
X0177916Y0055803D03*
X0187916Y0055803D03*
X0177916Y0065803D03*
X0167916Y0065803D03*
X0157916Y0064553D03*
X0147916Y0065803D03*
X0137916Y0075803D03*
X0137916Y0085803D03*
X0137916Y0105803D03*
X0137916Y0113303D03*
X0142916Y0120803D03*
X0150416Y0123303D03*
X0157916Y0123303D03*
X0157916Y0113303D03*
X0167916Y0113303D03*
X0167916Y0123303D03*
X0177916Y0125803D03*
X0167916Y0135803D03*
X0160416Y0135803D03*
X0155416Y0140803D03*
X0150416Y0135803D03*
X0142916Y0133303D03*
X0142916Y0140803D03*
X0132916Y0140803D03*
X0132916Y0148303D03*
X0122916Y0148303D03*
X0117916Y0138303D03*
X0117916Y0120803D03*
X0112916Y0100803D03*
X0102916Y0100803D03*
X0062916Y0110803D03*
X0062916Y0120803D03*
X0060416Y0128303D03*
X0060416Y0138303D03*
X0060416Y0148303D03*
X0072916Y0155803D03*
X0072916Y0165803D03*
X0082916Y0165803D03*
X0092916Y0165803D03*
X0100416Y0160803D03*
X0092916Y0155803D03*
X0100416Y0170803D03*
X0101666Y0179553D03*
X0099166Y0192053D03*
X0092916Y0192053D03*
X0082916Y0175803D03*
X0072916Y0175803D03*
X0060416Y0178303D03*
X0060416Y0168303D03*
X0060416Y0188303D03*
X0095416Y0215803D03*
X0105416Y0215803D03*
X0127916Y0215803D03*
X0127916Y0200803D03*
X0130416Y0195803D03*
X0142916Y0188303D03*
X0145416Y0194553D03*
X0152916Y0194553D03*
X0152916Y0188303D03*
X0152916Y0180803D03*
X0152916Y0173303D03*
X0160416Y0173303D03*
X0165416Y0165803D03*
X0162916Y0158303D03*
X0170416Y0158303D03*
X0170416Y0150803D03*
X0162916Y0150803D03*
X0152916Y0158303D03*
X0155416Y0165803D03*
X0145416Y0165803D03*
X0132916Y0160803D03*
X0124166Y0160803D03*
X0124166Y0170803D03*
X0132916Y0170803D03*
X0132916Y0179553D03*
X0152916Y0200803D03*
X0162916Y0200803D03*
X0172916Y0215803D03*
X0182916Y0215803D03*
X0192916Y0215803D03*
X0192916Y0205803D03*
X0192916Y0195803D03*
X0182916Y0205803D03*
X0205416Y0203303D03*
X0210416Y0195803D03*
X0227916Y0215803D03*
X0237916Y0215803D03*
X0247916Y0215803D03*
X0257916Y0215803D03*
X0267916Y0215803D03*
X0267916Y0205803D03*
X0267916Y0195803D03*
X0257916Y0205803D03*
X0247916Y0205803D03*
X0267916Y0185803D03*
X0266666Y0175803D03*
X0257916Y0175803D03*
X0262916Y0165803D03*
X0252916Y0165803D03*
X0245416Y0170803D03*
X0235416Y0170803D03*
X0235416Y0163303D03*
X0225416Y0163303D03*
X0225416Y0170803D03*
X0215416Y0170803D03*
X0215416Y0163303D03*
X0205416Y0163303D03*
X0205416Y0170803D03*
X0195416Y0170803D03*
X0187916Y0170803D03*
X0182916Y0175803D03*
X0177916Y0168303D03*
X0196666Y0163303D03*
X0196666Y0155803D03*
X0196666Y0145803D03*
X0192916Y0138303D03*
X0200416Y0135803D03*
X0200416Y0128303D03*
X0210416Y0128303D03*
X0210416Y0135803D03*
X0220416Y0135803D03*
X0220416Y0128303D03*
X0217916Y0148303D03*
X0225416Y0148303D03*
X0232916Y0148303D03*
X0240416Y0148303D03*
X0247916Y0148303D03*
X0257916Y0150803D03*
X0247916Y0138303D03*
X0247916Y0128303D03*
X0257916Y0128303D03*
X0247916Y0109553D03*
X0247916Y0102053D03*
X0247916Y0093303D03*
X0247916Y0083303D03*
X0247916Y0073303D03*
X0257916Y0073303D03*
X0257916Y0065803D03*
X0267916Y0065803D03*
X0267916Y0055803D03*
X0257916Y0055803D03*
X0247916Y0054553D03*
X0232916Y0055803D03*
X0222916Y0055803D03*
X0212916Y0055803D03*
X0202916Y0055803D03*
X0212916Y0065803D03*
X0227916Y0080803D03*
X0227916Y0088303D03*
X0215416Y0104553D03*
X0202916Y0104553D03*
X0182916Y0090803D03*
X0187916Y0085803D03*
X0172916Y0090803D03*
X0147916Y0113303D03*
X0107916Y0053303D03*
X0097916Y0053303D03*
X0087916Y0053303D03*
X0257916Y0103303D03*
X0292916Y0105803D03*
X0292916Y0115803D03*
X0292916Y0125803D03*
X0292916Y0093303D03*
X0292916Y0080803D03*
X0284166Y0157053D03*
X0277916Y0160803D03*
D27*
X0084575Y0076525D02*
X0084575Y0050478D01*
X0270351Y0050478D01*
X0270351Y0076525D01*
X0271289Y0077462D01*
X0297336Y0077462D01*
X0297336Y0192372D01*
X0271289Y0192372D01*
X0270351Y0193310D01*
X0270351Y0219357D01*
X0084575Y0219357D01*
X0084575Y0204578D01*
X0084631Y0204578D01*
X0085404Y0204899D01*
X0086677Y0204899D01*
X0087451Y0204578D01*
X0088475Y0204578D01*
X0089413Y0203641D01*
X0089413Y0202853D01*
X0090683Y0201582D01*
X0095437Y0201582D01*
X0096110Y0202255D01*
X0097789Y0202950D01*
X0103216Y0202950D01*
X0103216Y0204214D01*
X0104505Y0205503D01*
X0131397Y0205503D01*
X0131785Y0206440D01*
X0133342Y0207997D01*
X0135377Y0208840D01*
X0145454Y0208840D01*
X0147489Y0207997D01*
X0149047Y0206440D01*
X0149435Y0205503D01*
X0176327Y0205503D01*
X0177616Y0204214D01*
X0177616Y0184892D01*
X0176327Y0183603D01*
X0174505Y0183603D01*
X0158227Y0183603D01*
X0176327Y0165503D01*
X0184452Y0165503D01*
X0185741Y0164214D01*
X0185741Y0146142D01*
X0184452Y0144853D01*
X0159505Y0144853D01*
X0158216Y0146142D01*
X0147616Y0156742D01*
X0147616Y0117392D01*
X0146327Y0116103D01*
X0109866Y0116103D01*
X0109866Y0115957D01*
X0120856Y0104967D01*
X0121461Y0105218D01*
X0124134Y0105218D01*
X0126603Y0104195D01*
X0128493Y0102305D01*
X0129360Y0100213D01*
X0129627Y0100859D01*
X0131517Y0102748D01*
X0133986Y0103771D01*
X0136659Y0103771D01*
X0139128Y0102748D01*
X0141018Y0100859D01*
X0142040Y0098389D01*
X0142040Y0095717D01*
X0141018Y0093248D01*
X0139128Y0091358D01*
X0136659Y0090335D01*
X0133986Y0090335D01*
X0131517Y0091358D01*
X0129627Y0093248D01*
X0128760Y0095340D01*
X0128493Y0094694D01*
X0126603Y0092805D01*
X0124134Y0091782D01*
X0121461Y0091782D01*
X0118992Y0092805D01*
X0117102Y0094694D01*
X0116080Y0097164D01*
X0116080Y0099836D01*
X0116330Y0100442D01*
X0103953Y0112819D01*
X0103466Y0113995D01*
X0103466Y0117142D01*
X0103216Y0117392D01*
X0103216Y0126978D01*
X0067904Y0126978D01*
X0066728Y0127465D01*
X0066215Y0127978D01*
X0064505Y0127978D01*
X0063216Y0129267D01*
X0063216Y0181714D01*
X0063466Y0181964D01*
X0063466Y0185633D01*
X0063511Y0185741D01*
X0063511Y0189615D01*
X0064448Y0190553D01*
X0070498Y0190553D01*
X0071435Y0189615D01*
X0071435Y0183003D01*
X0076897Y0183003D01*
X0076897Y0189615D01*
X0077834Y0190553D01*
X0083884Y0190553D01*
X0084821Y0189615D01*
X0084821Y0187753D01*
X0088725Y0187753D01*
X0088785Y0187728D01*
X0090326Y0187728D01*
X0091041Y0187013D01*
X0091756Y0187728D01*
X0093296Y0187728D01*
X0093357Y0187753D01*
X0099715Y0187753D01*
X0103216Y0191254D01*
X0103216Y0193813D01*
X0097789Y0193813D01*
X0096110Y0194509D01*
X0095437Y0195182D01*
X0088721Y0195182D01*
X0087545Y0195669D01*
X0084575Y0198639D01*
X0084575Y0193310D01*
X0083638Y0192372D01*
X0057591Y0192372D01*
X0057591Y0077462D01*
X0083638Y0077462D01*
X0084575Y0076525D01*
X0084575Y0075869D02*
X0154845Y0075869D01*
X0154578Y0076136D02*
X0155478Y0075236D01*
X0156654Y0074749D01*
X0213552Y0074749D01*
X0214729Y0075236D01*
X0215629Y0076136D01*
X0216116Y0077312D01*
X0216116Y0078585D01*
X0215629Y0079761D01*
X0214729Y0080662D01*
X0213552Y0081149D01*
X0156654Y0081149D01*
X0155478Y0080662D01*
X0154578Y0079761D01*
X0154091Y0078585D01*
X0154091Y0077312D01*
X0154578Y0076136D01*
X0154192Y0077067D02*
X0084032Y0077067D01*
X0084575Y0074670D02*
X0270351Y0074670D01*
X0270351Y0073472D02*
X0084575Y0073472D01*
X0084575Y0072273D02*
X0270351Y0072273D01*
X0270351Y0071075D02*
X0084575Y0071075D01*
X0084575Y0069876D02*
X0270351Y0069876D01*
X0270351Y0068678D02*
X0084575Y0068678D01*
X0084575Y0067479D02*
X0270351Y0067479D01*
X0270351Y0066281D02*
X0084575Y0066281D01*
X0084575Y0065082D02*
X0270351Y0065082D01*
X0270351Y0063884D02*
X0084575Y0063884D01*
X0084575Y0062685D02*
X0270351Y0062685D01*
X0270351Y0061487D02*
X0084575Y0061487D01*
X0084575Y0060288D02*
X0270351Y0060288D01*
X0270351Y0059090D02*
X0084575Y0059090D01*
X0084575Y0057891D02*
X0270351Y0057891D01*
X0270351Y0056693D02*
X0084575Y0056693D01*
X0084575Y0055494D02*
X0270351Y0055494D01*
X0270351Y0054296D02*
X0084575Y0054296D01*
X0084575Y0053097D02*
X0270351Y0053097D01*
X0270351Y0051899D02*
X0084575Y0051899D01*
X0084575Y0050700D02*
X0270351Y0050700D01*
X0270351Y0075869D02*
X0215361Y0075869D01*
X0216014Y0077067D02*
X0270894Y0077067D01*
X0297336Y0078266D02*
X0216116Y0078266D01*
X0215752Y0079464D02*
X0297336Y0079464D01*
X0297336Y0080663D02*
X0214725Y0080663D01*
X0227793Y0093847D02*
X0194809Y0093847D01*
X0194812Y0093853D02*
X0227786Y0093853D01*
X0228835Y0092805D01*
X0231304Y0091782D01*
X0233977Y0091782D01*
X0236446Y0092805D01*
X0238336Y0094694D01*
X0239358Y0097164D01*
X0239358Y0099836D01*
X0238336Y0102305D01*
X0236446Y0104195D01*
X0233977Y0105218D01*
X0231304Y0105218D01*
X0228835Y0104195D01*
X0226945Y0102305D01*
X0226095Y0100253D01*
X0194812Y0100253D01*
X0194561Y0100859D01*
X0192671Y0102748D01*
X0190202Y0103771D01*
X0187529Y0103771D01*
X0185060Y0102748D01*
X0183170Y0100859D01*
X0182920Y0100253D01*
X0165221Y0100253D01*
X0159104Y0106370D01*
X0157927Y0106857D01*
X0156654Y0106857D01*
X0155478Y0106370D01*
X0154578Y0105470D01*
X0154091Y0104294D01*
X0154091Y0103021D01*
X0154578Y0101845D01*
X0162083Y0094340D01*
X0163259Y0093853D01*
X0182920Y0093853D01*
X0183170Y0093248D01*
X0185060Y0091358D01*
X0187529Y0090335D01*
X0190202Y0090335D01*
X0192671Y0091358D01*
X0194561Y0093248D01*
X0194812Y0093853D01*
X0193961Y0092648D02*
X0229213Y0092648D01*
X0236068Y0092648D02*
X0297336Y0092648D01*
X0297336Y0091450D02*
X0192763Y0091450D01*
X0184968Y0091450D02*
X0139220Y0091450D01*
X0140418Y0092648D02*
X0183770Y0092648D01*
X0182922Y0093847D02*
X0141266Y0093847D01*
X0141762Y0095045D02*
X0161378Y0095045D01*
X0160179Y0096244D02*
X0142040Y0096244D01*
X0142040Y0097442D02*
X0158981Y0097442D01*
X0157782Y0098641D02*
X0141936Y0098641D01*
X0141440Y0099839D02*
X0156584Y0099839D01*
X0155385Y0101038D02*
X0140839Y0101038D01*
X0139640Y0102236D02*
X0154416Y0102236D01*
X0154091Y0103435D02*
X0137471Y0103435D01*
X0133173Y0103435D02*
X0127364Y0103435D01*
X0128522Y0102236D02*
X0131005Y0102236D01*
X0129806Y0101038D02*
X0129018Y0101038D01*
X0125546Y0104633D02*
X0154231Y0104633D01*
X0154940Y0105832D02*
X0119992Y0105832D01*
X0118793Y0107030D02*
X0184348Y0107030D01*
X0185060Y0106318D02*
X0187529Y0105296D01*
X0190202Y0105296D01*
X0192671Y0106318D01*
X0194267Y0107914D01*
X0228686Y0107914D01*
X0228835Y0107765D01*
X0231304Y0106743D01*
X0233977Y0106743D01*
X0236446Y0107765D01*
X0238336Y0109655D01*
X0239358Y0112124D01*
X0239358Y0114797D01*
X0238336Y0117266D01*
X0236999Y0118603D01*
X0243827Y0118603D01*
X0245116Y0119892D01*
X0245116Y0123603D01*
X0259842Y0123603D01*
X0259636Y0123518D01*
X0257076Y0120958D01*
X0255691Y0117613D01*
X0255691Y0113993D01*
X0257076Y0110648D01*
X0259636Y0108089D01*
X0262981Y0106703D01*
X0281601Y0106703D01*
X0284946Y0108089D01*
X0287505Y0110648D01*
X0288891Y0113993D01*
X0288891Y0117613D01*
X0287505Y0120958D01*
X0284946Y0123518D01*
X0284739Y0123603D01*
X0288202Y0123603D01*
X0289491Y0124892D01*
X0289491Y0144214D01*
X0274491Y0159214D01*
X0274491Y0159214D01*
X0273202Y0160503D01*
X0243227Y0160503D01*
X0254452Y0171728D01*
X0255741Y0173017D01*
X0255741Y0179781D01*
X0257334Y0180441D01*
X0259528Y0182635D01*
X0260716Y0185502D01*
X0260716Y0188605D01*
X0259528Y0191471D01*
X0257334Y0193666D01*
X0255551Y0194404D01*
X0254452Y0195503D01*
X0232005Y0195503D01*
X0230716Y0194214D01*
X0230716Y0175503D01*
X0192005Y0175503D01*
X0190716Y0174214D01*
X0190716Y0144253D01*
X0171380Y0144253D01*
X0170091Y0142964D01*
X0170091Y0119892D01*
X0171380Y0118603D01*
X0186376Y0118603D01*
X0186798Y0118429D01*
X0185060Y0117709D01*
X0183170Y0115819D01*
X0182148Y0113350D01*
X0182148Y0110677D01*
X0183170Y0108208D01*
X0185060Y0106318D01*
X0186235Y0105832D02*
X0159642Y0105832D01*
X0160841Y0104633D02*
X0229892Y0104633D01*
X0228074Y0103435D02*
X0191015Y0103435D01*
X0191496Y0105832D02*
X0297336Y0105832D01*
X0297336Y0107030D02*
X0282391Y0107030D01*
X0285086Y0108229D02*
X0297336Y0108229D01*
X0297336Y0109427D02*
X0286284Y0109427D01*
X0287483Y0110626D02*
X0297336Y0110626D01*
X0297336Y0111824D02*
X0287993Y0111824D01*
X0288489Y0113023D02*
X0297336Y0113023D01*
X0297336Y0114221D02*
X0288891Y0114221D01*
X0288891Y0115420D02*
X0297336Y0115420D01*
X0297336Y0116618D02*
X0288891Y0116618D01*
X0288807Y0117817D02*
X0297336Y0117817D01*
X0297336Y0119015D02*
X0288310Y0119015D01*
X0287814Y0120214D02*
X0297336Y0120214D01*
X0297336Y0121412D02*
X0287051Y0121412D01*
X0285852Y0122611D02*
X0297336Y0122611D01*
X0297336Y0123809D02*
X0288408Y0123809D01*
X0289491Y0125008D02*
X0297336Y0125008D01*
X0297336Y0126206D02*
X0289491Y0126206D01*
X0289491Y0127405D02*
X0297336Y0127405D01*
X0297336Y0128603D02*
X0289491Y0128603D01*
X0289491Y0129802D02*
X0297336Y0129802D01*
X0297336Y0131000D02*
X0289491Y0131000D01*
X0289491Y0132199D02*
X0297336Y0132199D01*
X0297336Y0133397D02*
X0289491Y0133397D01*
X0289491Y0134596D02*
X0297336Y0134596D01*
X0297336Y0135794D02*
X0289491Y0135794D01*
X0289491Y0136993D02*
X0297336Y0136993D01*
X0297336Y0138191D02*
X0289491Y0138191D01*
X0289491Y0139390D02*
X0297336Y0139390D01*
X0297336Y0140589D02*
X0289491Y0140589D01*
X0289491Y0141787D02*
X0297336Y0141787D01*
X0297336Y0142986D02*
X0289491Y0142986D01*
X0289491Y0144184D02*
X0297336Y0144184D01*
X0297336Y0145383D02*
X0288323Y0145383D01*
X0287124Y0146581D02*
X0297336Y0146581D01*
X0297336Y0147780D02*
X0285926Y0147780D01*
X0284727Y0148978D02*
X0297336Y0148978D01*
X0297336Y0150177D02*
X0283529Y0150177D01*
X0282330Y0151375D02*
X0297336Y0151375D01*
X0297336Y0152574D02*
X0281132Y0152574D01*
X0279933Y0153772D02*
X0297336Y0153772D01*
X0297336Y0154971D02*
X0278735Y0154971D01*
X0277536Y0156169D02*
X0297336Y0156169D01*
X0297336Y0157368D02*
X0276338Y0157368D01*
X0275139Y0158566D02*
X0297336Y0158566D01*
X0297336Y0159765D02*
X0273941Y0159765D01*
X0272291Y0158303D02*
X0287291Y0143303D01*
X0287291Y0125803D01*
X0245416Y0125803D01*
X0245416Y0141428D01*
X0203541Y0141428D01*
X0203541Y0153928D01*
X0207916Y0158303D01*
X0272291Y0158303D01*
X0273226Y0157368D02*
X0206980Y0157368D01*
X0205782Y0156169D02*
X0274425Y0156169D01*
X0275623Y0154971D02*
X0204583Y0154971D01*
X0203541Y0153772D02*
X0276822Y0153772D01*
X0278020Y0152574D02*
X0203541Y0152574D01*
X0203541Y0151375D02*
X0279219Y0151375D01*
X0280417Y0150177D02*
X0203541Y0150177D01*
X0203541Y0148978D02*
X0281616Y0148978D01*
X0282814Y0147780D02*
X0203541Y0147780D01*
X0203541Y0146581D02*
X0284013Y0146581D01*
X0285211Y0145383D02*
X0203541Y0145383D01*
X0203541Y0144184D02*
X0286410Y0144184D01*
X0287291Y0142986D02*
X0203541Y0142986D01*
X0203541Y0141787D02*
X0287291Y0141787D01*
X0287291Y0140589D02*
X0245416Y0140589D01*
X0245416Y0139390D02*
X0287291Y0139390D01*
X0287291Y0138191D02*
X0245416Y0138191D01*
X0245416Y0136993D02*
X0287291Y0136993D01*
X0287291Y0135794D02*
X0245416Y0135794D01*
X0245416Y0134596D02*
X0287291Y0134596D01*
X0287291Y0133397D02*
X0245416Y0133397D01*
X0245416Y0132199D02*
X0287291Y0132199D01*
X0287291Y0131000D02*
X0245416Y0131000D01*
X0245416Y0129802D02*
X0287291Y0129802D01*
X0287291Y0128603D02*
X0245416Y0128603D01*
X0245416Y0127405D02*
X0287291Y0127405D01*
X0287291Y0126206D02*
X0245416Y0126206D01*
X0242916Y0126206D02*
X0172291Y0126206D01*
X0172291Y0125008D02*
X0242916Y0125008D01*
X0242916Y0123809D02*
X0172291Y0123809D01*
X0172291Y0122611D02*
X0242916Y0122611D01*
X0242916Y0121412D02*
X0172291Y0121412D01*
X0172291Y0120803D02*
X0242916Y0120803D01*
X0242916Y0138303D01*
X0200416Y0138303D01*
X0200416Y0155803D01*
X0205416Y0160803D01*
X0240416Y0160803D01*
X0253541Y0173928D01*
X0253541Y0193303D01*
X0232916Y0193303D01*
X0232916Y0173303D01*
X0192916Y0173303D01*
X0192916Y0142053D01*
X0185608Y0142053D01*
X0185427Y0141978D01*
X0172291Y0141978D01*
X0172291Y0120803D01*
X0170967Y0119015D02*
X0147616Y0119015D01*
X0147616Y0117817D02*
X0185320Y0117817D01*
X0183969Y0116618D02*
X0146842Y0116618D01*
X0145416Y0118303D02*
X0109866Y0118303D01*
X0109866Y0122690D01*
X0109379Y0123866D01*
X0108479Y0124766D01*
X0107302Y0125253D01*
X0106029Y0125253D01*
X0105416Y0124999D01*
X0105416Y0178253D01*
X0105628Y0178765D01*
X0105628Y0180341D01*
X0105416Y0180854D01*
X0105416Y0184403D01*
X0111879Y0190865D01*
X0112366Y0192042D01*
X0112366Y0193315D01*
X0111879Y0194491D01*
X0110979Y0195391D01*
X0109802Y0195878D01*
X0108542Y0195878D01*
X0109203Y0197473D01*
X0109203Y0199291D01*
X0108507Y0200970D01*
X0107222Y0202255D01*
X0105543Y0202950D01*
X0105416Y0202950D01*
X0105416Y0203303D01*
X0130942Y0203303D01*
X0130942Y0202202D01*
X0131785Y0200167D01*
X0133342Y0198609D01*
X0135377Y0197766D01*
X0137216Y0197766D01*
X0137216Y0195879D01*
X0120340Y0179003D01*
X0112279Y0179003D01*
X0111103Y0178516D01*
X0110203Y0177616D01*
X0110203Y0177616D01*
X0107353Y0174766D01*
X0106453Y0173866D01*
X0105966Y0172690D01*
X0105966Y0168917D01*
X0106453Y0167740D01*
X0107353Y0166840D01*
X0108529Y0166353D01*
X0109802Y0166353D01*
X0110979Y0166840D01*
X0111879Y0167740D01*
X0112366Y0168917D01*
X0112366Y0170728D01*
X0114241Y0172603D01*
X0122302Y0172603D01*
X0123479Y0173090D01*
X0135416Y0185028D01*
X0135416Y0167735D01*
X0145416Y0157735D01*
X0145416Y0118303D01*
X0145416Y0119015D02*
X0109866Y0119015D01*
X0109866Y0120214D02*
X0145416Y0120214D01*
X0145416Y0121412D02*
X0109866Y0121412D01*
X0109866Y0122611D02*
X0145416Y0122611D01*
X0145416Y0123809D02*
X0109402Y0123809D01*
X0107895Y0125008D02*
X0145416Y0125008D01*
X0145416Y0126206D02*
X0105416Y0126206D01*
X0105416Y0125008D02*
X0105437Y0125008D01*
X0103216Y0125008D02*
X0057591Y0125008D01*
X0057591Y0126206D02*
X0103216Y0126206D01*
X0103216Y0123809D02*
X0057591Y0123809D01*
X0057591Y0122611D02*
X0103216Y0122611D01*
X0103216Y0121412D02*
X0057591Y0121412D01*
X0057591Y0120214D02*
X0103216Y0120214D01*
X0103216Y0119015D02*
X0057591Y0119015D01*
X0057591Y0117817D02*
X0103216Y0117817D01*
X0103466Y0116618D02*
X0057591Y0116618D01*
X0057591Y0115420D02*
X0103466Y0115420D01*
X0103466Y0114221D02*
X0057591Y0114221D01*
X0057591Y0113023D02*
X0103869Y0113023D01*
X0104948Y0111824D02*
X0057591Y0111824D01*
X0057591Y0110626D02*
X0106147Y0110626D01*
X0107345Y0109427D02*
X0057591Y0109427D01*
X0057591Y0108229D02*
X0108544Y0108229D01*
X0109742Y0107030D02*
X0057591Y0107030D01*
X0057591Y0105832D02*
X0110941Y0105832D01*
X0112139Y0104633D02*
X0057591Y0104633D01*
X0057591Y0103435D02*
X0113338Y0103435D01*
X0114536Y0102236D02*
X0057591Y0102236D01*
X0057591Y0101038D02*
X0115735Y0101038D01*
X0116081Y0099839D02*
X0057591Y0099839D01*
X0057591Y0098641D02*
X0116080Y0098641D01*
X0116080Y0097442D02*
X0057591Y0097442D01*
X0057591Y0096244D02*
X0116461Y0096244D01*
X0116957Y0095045D02*
X0057591Y0095045D01*
X0057591Y0093847D02*
X0117950Y0093847D01*
X0119370Y0092648D02*
X0057591Y0092648D01*
X0057591Y0091450D02*
X0131425Y0091450D01*
X0130227Y0092648D02*
X0126225Y0092648D01*
X0127645Y0093847D02*
X0129379Y0093847D01*
X0128883Y0095045D02*
X0128638Y0095045D01*
X0117595Y0108229D02*
X0183162Y0108229D01*
X0182665Y0109427D02*
X0116396Y0109427D01*
X0115198Y0110626D02*
X0182169Y0110626D01*
X0182148Y0111824D02*
X0113999Y0111824D01*
X0112800Y0113023D02*
X0182148Y0113023D01*
X0182508Y0114221D02*
X0111602Y0114221D01*
X0110403Y0115420D02*
X0183005Y0115420D01*
X0193383Y0107030D02*
X0230609Y0107030D01*
X0234671Y0107030D02*
X0262191Y0107030D01*
X0259496Y0108229D02*
X0236909Y0108229D01*
X0238108Y0109427D02*
X0258297Y0109427D01*
X0257099Y0110626D02*
X0238738Y0110626D01*
X0239234Y0111824D02*
X0256589Y0111824D01*
X0256093Y0113023D02*
X0239358Y0113023D01*
X0239358Y0114221D02*
X0255691Y0114221D01*
X0255691Y0115420D02*
X0239100Y0115420D01*
X0238604Y0116618D02*
X0255691Y0116618D01*
X0255775Y0117817D02*
X0237785Y0117817D01*
X0244239Y0119015D02*
X0256272Y0119015D01*
X0256768Y0120214D02*
X0245116Y0120214D01*
X0245116Y0121412D02*
X0257531Y0121412D01*
X0258729Y0122611D02*
X0245116Y0122611D01*
X0242916Y0127405D02*
X0172291Y0127405D01*
X0172291Y0128603D02*
X0242916Y0128603D01*
X0242916Y0129802D02*
X0172291Y0129802D01*
X0172291Y0131000D02*
X0242916Y0131000D01*
X0242916Y0132199D02*
X0172291Y0132199D01*
X0172291Y0133397D02*
X0242916Y0133397D01*
X0242916Y0134596D02*
X0172291Y0134596D01*
X0172291Y0135794D02*
X0242916Y0135794D01*
X0242916Y0136993D02*
X0172291Y0136993D01*
X0172291Y0138191D02*
X0242916Y0138191D01*
X0243687Y0160963D02*
X0297336Y0160963D01*
X0297336Y0162162D02*
X0244886Y0162162D01*
X0246084Y0163360D02*
X0297336Y0163360D01*
X0297336Y0164559D02*
X0247283Y0164559D01*
X0248481Y0165757D02*
X0297336Y0165757D01*
X0297336Y0166956D02*
X0249680Y0166956D01*
X0250878Y0168154D02*
X0297336Y0168154D01*
X0297336Y0169353D02*
X0252077Y0169353D01*
X0253275Y0170551D02*
X0281863Y0170551D01*
X0282360Y0170055D02*
X0281074Y0171340D01*
X0280379Y0173019D01*
X0280379Y0174837D01*
X0281074Y0176516D01*
X0282360Y0177801D01*
X0284039Y0178497D01*
X0291793Y0178497D01*
X0293472Y0177801D01*
X0294757Y0176516D01*
X0295453Y0174837D01*
X0295453Y0173019D01*
X0294757Y0171340D01*
X0293472Y0170055D01*
X0291793Y0169360D01*
X0284039Y0169360D01*
X0282360Y0170055D01*
X0280905Y0171750D02*
X0254474Y0171750D01*
X0255672Y0172948D02*
X0280408Y0172948D01*
X0280379Y0174147D02*
X0255741Y0174147D01*
X0255741Y0175345D02*
X0280589Y0175345D01*
X0281102Y0176544D02*
X0255741Y0176544D01*
X0255741Y0177742D02*
X0282301Y0177742D01*
X0282360Y0180055D02*
X0284039Y0179360D01*
X0291793Y0179360D01*
X0293472Y0180055D01*
X0294757Y0181340D01*
X0295453Y0183019D01*
X0295453Y0184837D01*
X0294757Y0186516D01*
X0293472Y0187801D01*
X0291793Y0188497D01*
X0284039Y0188497D01*
X0282360Y0187801D01*
X0281074Y0186516D01*
X0280379Y0184837D01*
X0280379Y0183019D01*
X0281074Y0181340D01*
X0282360Y0180055D01*
X0282275Y0180139D02*
X0256607Y0180139D01*
X0255741Y0178941D02*
X0297336Y0178941D01*
X0297336Y0180139D02*
X0293556Y0180139D01*
X0294755Y0181338D02*
X0297336Y0181338D01*
X0297336Y0182536D02*
X0295253Y0182536D01*
X0295453Y0183735D02*
X0297336Y0183735D01*
X0297336Y0184933D02*
X0295413Y0184933D01*
X0294916Y0186132D02*
X0297336Y0186132D01*
X0297336Y0187330D02*
X0293943Y0187330D01*
X0297336Y0188529D02*
X0260716Y0188529D01*
X0260716Y0187330D02*
X0281889Y0187330D01*
X0280915Y0186132D02*
X0260716Y0186132D01*
X0260481Y0184933D02*
X0280419Y0184933D01*
X0280379Y0183735D02*
X0259984Y0183735D01*
X0259430Y0182536D02*
X0280579Y0182536D01*
X0281077Y0181338D02*
X0258232Y0181338D01*
X0253541Y0181338D02*
X0232916Y0181338D01*
X0232916Y0182536D02*
X0253541Y0182536D01*
X0253541Y0183735D02*
X0232916Y0183735D01*
X0232916Y0184933D02*
X0253541Y0184933D01*
X0253541Y0186132D02*
X0232916Y0186132D01*
X0232916Y0187330D02*
X0253541Y0187330D01*
X0253541Y0188529D02*
X0232916Y0188529D01*
X0232916Y0189727D02*
X0253541Y0189727D01*
X0253541Y0190926D02*
X0232916Y0190926D01*
X0232916Y0192125D02*
X0253541Y0192125D01*
X0255434Y0194522D02*
X0270351Y0194522D01*
X0270351Y0195720D02*
X0177616Y0195720D01*
X0177616Y0194522D02*
X0231023Y0194522D01*
X0230716Y0193323D02*
X0177616Y0193323D01*
X0177616Y0192125D02*
X0230716Y0192125D01*
X0230716Y0190926D02*
X0177616Y0190926D01*
X0177616Y0189727D02*
X0230716Y0189727D01*
X0230716Y0188529D02*
X0177616Y0188529D01*
X0177616Y0187330D02*
X0230716Y0187330D01*
X0230716Y0186132D02*
X0177616Y0186132D01*
X0177616Y0184933D02*
X0230716Y0184933D01*
X0230716Y0183735D02*
X0176459Y0183735D01*
X0175416Y0185803D02*
X0136191Y0185803D01*
X0142229Y0191840D01*
X0143129Y0192740D01*
X0143616Y0193917D01*
X0143616Y0197766D01*
X0145454Y0197766D01*
X0147489Y0198609D01*
X0149047Y0200167D01*
X0149890Y0202202D01*
X0149890Y0203303D01*
X0175416Y0203303D01*
X0175416Y0185803D01*
X0175416Y0186132D02*
X0136520Y0186132D01*
X0135416Y0184933D02*
X0135322Y0184933D01*
X0135416Y0183735D02*
X0134123Y0183735D01*
X0132925Y0182536D02*
X0135416Y0182536D01*
X0135416Y0181338D02*
X0131726Y0181338D01*
X0130528Y0180139D02*
X0135416Y0180139D01*
X0135416Y0178941D02*
X0129329Y0178941D01*
X0128131Y0177742D02*
X0135416Y0177742D01*
X0135416Y0176544D02*
X0126932Y0176544D01*
X0125734Y0175345D02*
X0135416Y0175345D01*
X0135416Y0174147D02*
X0124535Y0174147D01*
X0123136Y0172948D02*
X0135416Y0172948D01*
X0135416Y0171750D02*
X0113388Y0171750D01*
X0112366Y0170551D02*
X0135416Y0170551D01*
X0135416Y0169353D02*
X0112366Y0169353D01*
X0112050Y0168154D02*
X0135416Y0168154D01*
X0136195Y0166956D02*
X0111094Y0166956D01*
X0107238Y0166956D02*
X0105416Y0166956D01*
X0105416Y0168154D02*
X0106282Y0168154D01*
X0105966Y0169353D02*
X0105416Y0169353D01*
X0105416Y0170551D02*
X0105966Y0170551D01*
X0105966Y0171750D02*
X0105416Y0171750D01*
X0105416Y0172948D02*
X0106073Y0172948D01*
X0105416Y0174147D02*
X0106734Y0174147D01*
X0107933Y0175345D02*
X0105416Y0175345D01*
X0105416Y0176544D02*
X0109131Y0176544D01*
X0110330Y0177742D02*
X0105416Y0177742D01*
X0105628Y0178941D02*
X0112129Y0178941D01*
X0105628Y0180139D02*
X0121477Y0180139D01*
X0122675Y0181338D02*
X0105416Y0181338D01*
X0105416Y0182536D02*
X0123874Y0182536D01*
X0125072Y0183735D02*
X0105416Y0183735D01*
X0105947Y0184933D02*
X0126271Y0184933D01*
X0127469Y0186132D02*
X0107145Y0186132D01*
X0108344Y0187330D02*
X0128668Y0187330D01*
X0129866Y0188529D02*
X0109542Y0188529D01*
X0110741Y0189727D02*
X0131065Y0189727D01*
X0132263Y0190926D02*
X0111904Y0190926D01*
X0112366Y0192125D02*
X0133462Y0192125D01*
X0134660Y0193323D02*
X0112362Y0193323D01*
X0111848Y0194522D02*
X0135859Y0194522D01*
X0137057Y0195720D02*
X0110184Y0195720D01*
X0108973Y0196919D02*
X0137216Y0196919D01*
X0134530Y0198117D02*
X0109203Y0198117D01*
X0109193Y0199316D02*
X0132636Y0199316D01*
X0131641Y0200514D02*
X0108696Y0200514D01*
X0107765Y0201713D02*
X0131144Y0201713D01*
X0130942Y0202911D02*
X0105638Y0202911D01*
X0103216Y0204110D02*
X0088944Y0204110D01*
X0089413Y0202911D02*
X0097694Y0202911D01*
X0095567Y0201713D02*
X0090553Y0201713D01*
X0086296Y0196919D02*
X0084575Y0196919D01*
X0084575Y0198117D02*
X0085097Y0198117D01*
X0084575Y0195720D02*
X0087494Y0195720D01*
X0084575Y0194522D02*
X0096097Y0194522D01*
X0103216Y0193323D02*
X0084575Y0193323D01*
X0084709Y0189727D02*
X0101690Y0189727D01*
X0100491Y0188529D02*
X0084821Y0188529D01*
X0090723Y0187330D02*
X0091359Y0187330D01*
X0102888Y0190926D02*
X0057591Y0190926D01*
X0057591Y0192125D02*
X0103216Y0192125D01*
X0102916Y0180803D02*
X0069866Y0180803D01*
X0069866Y0133379D01*
X0069866Y0133378D01*
X0102916Y0133378D01*
X0102916Y0180803D01*
X0102916Y0180139D02*
X0069866Y0180139D01*
X0069866Y0178941D02*
X0102916Y0178941D01*
X0102916Y0177742D02*
X0069866Y0177742D01*
X0069866Y0176544D02*
X0102916Y0176544D01*
X0102916Y0175345D02*
X0069866Y0175345D01*
X0069866Y0174147D02*
X0102916Y0174147D01*
X0102916Y0172948D02*
X0069866Y0172948D01*
X0069866Y0171750D02*
X0102916Y0171750D01*
X0102916Y0170551D02*
X0069866Y0170551D01*
X0069866Y0169353D02*
X0102916Y0169353D01*
X0102916Y0168154D02*
X0069866Y0168154D01*
X0069866Y0166956D02*
X0102916Y0166956D01*
X0102916Y0165757D02*
X0069866Y0165757D01*
X0069866Y0164559D02*
X0102916Y0164559D01*
X0102916Y0163360D02*
X0069866Y0163360D01*
X0069866Y0162162D02*
X0102916Y0162162D01*
X0102916Y0160963D02*
X0069866Y0160963D01*
X0069866Y0159765D02*
X0102916Y0159765D01*
X0102916Y0158566D02*
X0069866Y0158566D01*
X0069866Y0157368D02*
X0102916Y0157368D01*
X0102916Y0156169D02*
X0069866Y0156169D01*
X0069866Y0154971D02*
X0102916Y0154971D01*
X0102916Y0153772D02*
X0069866Y0153772D01*
X0069866Y0152574D02*
X0102916Y0152574D01*
X0102916Y0151375D02*
X0069866Y0151375D01*
X0069866Y0150177D02*
X0102916Y0150177D01*
X0102916Y0148978D02*
X0069866Y0148978D01*
X0069866Y0147780D02*
X0102916Y0147780D01*
X0102916Y0146581D02*
X0069866Y0146581D01*
X0069866Y0145383D02*
X0102916Y0145383D01*
X0102916Y0144184D02*
X0069866Y0144184D01*
X0069866Y0142986D02*
X0102916Y0142986D01*
X0102916Y0141787D02*
X0069866Y0141787D01*
X0069866Y0140589D02*
X0102916Y0140589D01*
X0102916Y0139390D02*
X0069866Y0139390D01*
X0069866Y0138191D02*
X0102916Y0138191D01*
X0102916Y0136993D02*
X0069866Y0136993D01*
X0069866Y0135794D02*
X0102916Y0135794D01*
X0102916Y0134596D02*
X0069866Y0134596D01*
X0069866Y0133397D02*
X0102916Y0133397D01*
X0105416Y0133397D02*
X0145416Y0133397D01*
X0145416Y0132199D02*
X0105416Y0132199D01*
X0105416Y0131000D02*
X0145416Y0131000D01*
X0145416Y0129802D02*
X0105416Y0129802D01*
X0105416Y0128603D02*
X0145416Y0128603D01*
X0145416Y0127405D02*
X0105416Y0127405D01*
X0105416Y0134596D02*
X0145416Y0134596D01*
X0145416Y0135794D02*
X0105416Y0135794D01*
X0105416Y0136993D02*
X0145416Y0136993D01*
X0145416Y0138191D02*
X0105416Y0138191D01*
X0105416Y0139390D02*
X0145416Y0139390D01*
X0145416Y0140589D02*
X0105416Y0140589D01*
X0105416Y0141787D02*
X0145416Y0141787D01*
X0145416Y0142986D02*
X0105416Y0142986D01*
X0105416Y0144184D02*
X0145416Y0144184D01*
X0145416Y0145383D02*
X0105416Y0145383D01*
X0105416Y0146581D02*
X0145416Y0146581D01*
X0145416Y0147780D02*
X0105416Y0147780D01*
X0105416Y0148978D02*
X0145416Y0148978D01*
X0145416Y0150177D02*
X0105416Y0150177D01*
X0105416Y0151375D02*
X0145416Y0151375D01*
X0145416Y0152574D02*
X0105416Y0152574D01*
X0105416Y0153772D02*
X0145416Y0153772D01*
X0145416Y0154971D02*
X0105416Y0154971D01*
X0105416Y0156169D02*
X0145416Y0156169D01*
X0145416Y0157368D02*
X0105416Y0157368D01*
X0105416Y0158566D02*
X0144585Y0158566D01*
X0143386Y0159765D02*
X0105416Y0159765D01*
X0105416Y0160963D02*
X0142188Y0160963D01*
X0140989Y0162162D02*
X0105416Y0162162D01*
X0105416Y0163360D02*
X0139791Y0163360D01*
X0138592Y0164559D02*
X0105416Y0164559D01*
X0105416Y0165757D02*
X0137394Y0165757D01*
X0139315Y0168154D02*
X0170565Y0168154D01*
X0171763Y0166956D02*
X0140513Y0166956D01*
X0141712Y0165757D02*
X0172962Y0165757D01*
X0174160Y0164559D02*
X0142910Y0164559D01*
X0144109Y0163360D02*
X0175359Y0163360D01*
X0175416Y0163303D02*
X0183541Y0163303D01*
X0183541Y0148454D01*
X0183465Y0148378D01*
X0164779Y0148378D01*
X0163603Y0147891D01*
X0162765Y0147053D01*
X0160416Y0147053D01*
X0137916Y0169553D01*
X0137916Y0183303D01*
X0155416Y0183303D01*
X0175416Y0163303D01*
X0176073Y0165757D02*
X0190716Y0165757D01*
X0190716Y0164559D02*
X0185397Y0164559D01*
X0185741Y0163360D02*
X0190716Y0163360D01*
X0190716Y0162162D02*
X0185741Y0162162D01*
X0185741Y0160963D02*
X0190716Y0160963D01*
X0190716Y0159765D02*
X0185741Y0159765D01*
X0185741Y0158566D02*
X0190716Y0158566D01*
X0190716Y0157368D02*
X0185741Y0157368D01*
X0185741Y0156169D02*
X0190716Y0156169D01*
X0190716Y0154971D02*
X0185741Y0154971D01*
X0185741Y0153772D02*
X0190716Y0153772D01*
X0190716Y0152574D02*
X0185741Y0152574D01*
X0185741Y0151375D02*
X0190716Y0151375D01*
X0190716Y0150177D02*
X0185741Y0150177D01*
X0185741Y0148978D02*
X0190716Y0148978D01*
X0190716Y0147780D02*
X0185741Y0147780D01*
X0185741Y0146581D02*
X0190716Y0146581D01*
X0190716Y0145383D02*
X0184982Y0145383D01*
X0183541Y0148978D02*
X0158491Y0148978D01*
X0159689Y0147780D02*
X0163492Y0147780D01*
X0158975Y0145383D02*
X0147616Y0145383D01*
X0147616Y0146581D02*
X0157777Y0146581D01*
X0156578Y0147780D02*
X0147616Y0147780D01*
X0147616Y0148978D02*
X0155380Y0148978D01*
X0154181Y0150177D02*
X0147616Y0150177D01*
X0147616Y0151375D02*
X0152983Y0151375D01*
X0151784Y0152574D02*
X0147616Y0152574D01*
X0147616Y0153772D02*
X0150586Y0153772D01*
X0149387Y0154971D02*
X0147616Y0154971D01*
X0147616Y0156169D02*
X0148189Y0156169D01*
X0150101Y0157368D02*
X0183541Y0157368D01*
X0183541Y0158566D02*
X0148903Y0158566D01*
X0147704Y0159765D02*
X0183541Y0159765D01*
X0183541Y0160963D02*
X0146506Y0160963D01*
X0145307Y0162162D02*
X0183541Y0162162D01*
X0190716Y0166956D02*
X0174875Y0166956D01*
X0173676Y0168154D02*
X0190716Y0168154D01*
X0190716Y0169353D02*
X0172477Y0169353D01*
X0171279Y0170551D02*
X0190716Y0170551D01*
X0190716Y0171750D02*
X0170080Y0171750D01*
X0168882Y0172948D02*
X0190716Y0172948D01*
X0190716Y0174147D02*
X0167683Y0174147D01*
X0166485Y0175345D02*
X0191847Y0175345D01*
X0192916Y0172948D02*
X0252561Y0172948D01*
X0253541Y0174147D02*
X0232916Y0174147D01*
X0232916Y0175345D02*
X0253541Y0175345D01*
X0253541Y0176544D02*
X0232916Y0176544D01*
X0232916Y0177742D02*
X0253541Y0177742D01*
X0253541Y0178941D02*
X0232916Y0178941D01*
X0232916Y0180139D02*
X0253541Y0180139D01*
X0260251Y0189727D02*
X0297336Y0189727D01*
X0297336Y0190926D02*
X0259754Y0190926D01*
X0258875Y0192125D02*
X0297336Y0192125D01*
X0297336Y0177742D02*
X0293531Y0177742D01*
X0294730Y0176544D02*
X0297336Y0176544D01*
X0297336Y0175345D02*
X0295242Y0175345D01*
X0295453Y0174147D02*
X0297336Y0174147D01*
X0297336Y0172948D02*
X0295423Y0172948D01*
X0294927Y0171750D02*
X0297336Y0171750D01*
X0297336Y0170551D02*
X0293968Y0170551D01*
X0270351Y0193323D02*
X0257677Y0193323D01*
X0270351Y0196919D02*
X0177616Y0196919D01*
X0177616Y0198117D02*
X0270351Y0198117D01*
X0270351Y0199316D02*
X0177616Y0199316D01*
X0177616Y0200514D02*
X0270351Y0200514D01*
X0270351Y0201713D02*
X0177616Y0201713D01*
X0177616Y0202911D02*
X0270351Y0202911D01*
X0270351Y0204110D02*
X0177616Y0204110D01*
X0176522Y0205308D02*
X0270351Y0205308D01*
X0270351Y0206507D02*
X0148980Y0206507D01*
X0147781Y0207705D02*
X0270351Y0207705D01*
X0270351Y0208904D02*
X0084575Y0208904D01*
X0084575Y0210102D02*
X0270351Y0210102D01*
X0270351Y0211301D02*
X0084575Y0211301D01*
X0084575Y0212499D02*
X0203944Y0212499D01*
X0203944Y0212316D02*
X0204881Y0211378D01*
X0206421Y0211378D01*
X0206482Y0211353D01*
X0215255Y0211353D01*
X0216431Y0211840D01*
X0217331Y0212740D01*
X0217819Y0213917D01*
X0217819Y0215190D01*
X0217331Y0216366D01*
X0216431Y0217266D01*
X0215255Y0217753D01*
X0206482Y0217753D01*
X0206421Y0217728D01*
X0204881Y0217728D01*
X0203944Y0216791D01*
X0203944Y0215250D01*
X0203919Y0215190D01*
X0203919Y0213917D01*
X0203944Y0213856D01*
X0203944Y0212316D01*
X0203944Y0213698D02*
X0084575Y0213698D01*
X0084575Y0214896D02*
X0203919Y0214896D01*
X0203944Y0216095D02*
X0084575Y0216095D01*
X0084575Y0217293D02*
X0204446Y0217293D01*
X0216365Y0217293D02*
X0270351Y0217293D01*
X0270351Y0216095D02*
X0217444Y0216095D01*
X0217819Y0214896D02*
X0270351Y0214896D01*
X0270351Y0213698D02*
X0217728Y0213698D01*
X0217090Y0212499D02*
X0270351Y0212499D01*
X0270351Y0218492D02*
X0084575Y0218492D01*
X0084575Y0207705D02*
X0133050Y0207705D01*
X0131852Y0206507D02*
X0084575Y0206507D01*
X0084575Y0205308D02*
X0104310Y0205308D01*
X0077009Y0189727D02*
X0071323Y0189727D01*
X0071435Y0188529D02*
X0076897Y0188529D01*
X0076897Y0187330D02*
X0071435Y0187330D01*
X0071435Y0186132D02*
X0076897Y0186132D01*
X0076897Y0184933D02*
X0071435Y0184933D01*
X0071435Y0183735D02*
X0076897Y0183735D01*
X0063466Y0183735D02*
X0057591Y0183735D01*
X0057591Y0184933D02*
X0063466Y0184933D01*
X0063511Y0186132D02*
X0057591Y0186132D01*
X0057591Y0187330D02*
X0063511Y0187330D01*
X0063511Y0188529D02*
X0057591Y0188529D01*
X0057591Y0189727D02*
X0063623Y0189727D01*
X0063466Y0182536D02*
X0057591Y0182536D01*
X0057591Y0181338D02*
X0063216Y0181338D01*
X0063216Y0180139D02*
X0057591Y0180139D01*
X0057591Y0178941D02*
X0063216Y0178941D01*
X0063216Y0177742D02*
X0057591Y0177742D01*
X0057591Y0176544D02*
X0063216Y0176544D01*
X0063216Y0175345D02*
X0057591Y0175345D01*
X0057591Y0174147D02*
X0063216Y0174147D01*
X0063216Y0172948D02*
X0057591Y0172948D01*
X0057591Y0171750D02*
X0063216Y0171750D01*
X0063216Y0170551D02*
X0057591Y0170551D01*
X0057591Y0169353D02*
X0063216Y0169353D01*
X0063216Y0168154D02*
X0057591Y0168154D01*
X0057591Y0166956D02*
X0063216Y0166956D01*
X0063216Y0165757D02*
X0057591Y0165757D01*
X0057591Y0164559D02*
X0063216Y0164559D01*
X0063216Y0163360D02*
X0057591Y0163360D01*
X0057591Y0162162D02*
X0063216Y0162162D01*
X0063216Y0160963D02*
X0057591Y0160963D01*
X0057591Y0159765D02*
X0063216Y0159765D01*
X0063216Y0158566D02*
X0057591Y0158566D01*
X0057591Y0157368D02*
X0063216Y0157368D01*
X0063216Y0156169D02*
X0057591Y0156169D01*
X0057591Y0154971D02*
X0063216Y0154971D01*
X0063216Y0153772D02*
X0057591Y0153772D01*
X0057591Y0152574D02*
X0063216Y0152574D01*
X0063216Y0151375D02*
X0057591Y0151375D01*
X0057591Y0150177D02*
X0063216Y0150177D01*
X0063216Y0148978D02*
X0057591Y0148978D01*
X0057591Y0147780D02*
X0063216Y0147780D01*
X0063216Y0146581D02*
X0057591Y0146581D01*
X0057591Y0145383D02*
X0063216Y0145383D01*
X0063216Y0144184D02*
X0057591Y0144184D01*
X0057591Y0142986D02*
X0063216Y0142986D01*
X0063216Y0141787D02*
X0057591Y0141787D01*
X0057591Y0140589D02*
X0063216Y0140589D01*
X0063216Y0139390D02*
X0057591Y0139390D01*
X0057591Y0138191D02*
X0063216Y0138191D01*
X0063216Y0136993D02*
X0057591Y0136993D01*
X0057591Y0135794D02*
X0063216Y0135794D01*
X0063216Y0134596D02*
X0057591Y0134596D01*
X0057591Y0133397D02*
X0063216Y0133397D01*
X0063216Y0132199D02*
X0057591Y0132199D01*
X0057591Y0131000D02*
X0063216Y0131000D01*
X0063216Y0129802D02*
X0057591Y0129802D01*
X0057591Y0128603D02*
X0063879Y0128603D01*
X0066874Y0127405D02*
X0057591Y0127405D01*
X0057591Y0090251D02*
X0297336Y0090251D01*
X0297336Y0089053D02*
X0057591Y0089053D01*
X0057591Y0087854D02*
X0297336Y0087854D01*
X0297336Y0086656D02*
X0057591Y0086656D01*
X0057591Y0085457D02*
X0297336Y0085457D01*
X0297336Y0084258D02*
X0057591Y0084258D01*
X0057591Y0083060D02*
X0297336Y0083060D01*
X0297336Y0081861D02*
X0057591Y0081861D01*
X0057591Y0080663D02*
X0155481Y0080663D01*
X0154455Y0079464D02*
X0057591Y0079464D01*
X0057591Y0078266D02*
X0154091Y0078266D01*
X0164436Y0101038D02*
X0183349Y0101038D01*
X0184548Y0102236D02*
X0163238Y0102236D01*
X0162039Y0103435D02*
X0186717Y0103435D01*
X0193184Y0102236D02*
X0226916Y0102236D01*
X0226420Y0101038D02*
X0194382Y0101038D01*
X0170091Y0120214D02*
X0147616Y0120214D01*
X0147616Y0121412D02*
X0170091Y0121412D01*
X0170091Y0122611D02*
X0147616Y0122611D01*
X0147616Y0123809D02*
X0170091Y0123809D01*
X0170091Y0125008D02*
X0147616Y0125008D01*
X0147616Y0126206D02*
X0170091Y0126206D01*
X0170091Y0127405D02*
X0147616Y0127405D01*
X0147616Y0128603D02*
X0170091Y0128603D01*
X0170091Y0129802D02*
X0147616Y0129802D01*
X0147616Y0131000D02*
X0170091Y0131000D01*
X0170091Y0132199D02*
X0147616Y0132199D01*
X0147616Y0133397D02*
X0170091Y0133397D01*
X0170091Y0134596D02*
X0147616Y0134596D01*
X0147616Y0135794D02*
X0170091Y0135794D01*
X0170091Y0136993D02*
X0147616Y0136993D01*
X0147616Y0138191D02*
X0170091Y0138191D01*
X0170091Y0139390D02*
X0147616Y0139390D01*
X0147616Y0140589D02*
X0170091Y0140589D01*
X0170091Y0141787D02*
X0147616Y0141787D01*
X0147616Y0142986D02*
X0170112Y0142986D01*
X0171311Y0144184D02*
X0147616Y0144184D01*
X0154895Y0152574D02*
X0183541Y0152574D01*
X0183541Y0153772D02*
X0153697Y0153772D01*
X0152498Y0154971D02*
X0183541Y0154971D01*
X0183541Y0156169D02*
X0151300Y0156169D01*
X0156094Y0151375D02*
X0183541Y0151375D01*
X0183541Y0150177D02*
X0157292Y0150177D01*
X0172291Y0141787D02*
X0200416Y0141787D01*
X0200416Y0140589D02*
X0172291Y0140589D01*
X0172291Y0139390D02*
X0200416Y0139390D01*
X0200416Y0142986D02*
X0192916Y0142986D01*
X0192916Y0144184D02*
X0200416Y0144184D01*
X0200416Y0145383D02*
X0192916Y0145383D01*
X0192916Y0146581D02*
X0200416Y0146581D01*
X0200416Y0147780D02*
X0192916Y0147780D01*
X0192916Y0148978D02*
X0200416Y0148978D01*
X0200416Y0150177D02*
X0192916Y0150177D01*
X0192916Y0151375D02*
X0200416Y0151375D01*
X0200416Y0152574D02*
X0192916Y0152574D01*
X0192916Y0153772D02*
X0200416Y0153772D01*
X0200416Y0154971D02*
X0192916Y0154971D01*
X0192916Y0156169D02*
X0200782Y0156169D01*
X0201980Y0157368D02*
X0192916Y0157368D01*
X0192916Y0158566D02*
X0203179Y0158566D01*
X0204377Y0159765D02*
X0192916Y0159765D01*
X0192916Y0160963D02*
X0240576Y0160963D01*
X0241774Y0162162D02*
X0192916Y0162162D01*
X0192916Y0163360D02*
X0242973Y0163360D01*
X0244171Y0164559D02*
X0192916Y0164559D01*
X0192916Y0165757D02*
X0245370Y0165757D01*
X0246569Y0166956D02*
X0192916Y0166956D01*
X0192916Y0168154D02*
X0247767Y0168154D01*
X0248966Y0169353D02*
X0192916Y0169353D01*
X0192916Y0170551D02*
X0250164Y0170551D01*
X0251363Y0171750D02*
X0192916Y0171750D01*
X0175416Y0187330D02*
X0137719Y0187330D01*
X0138917Y0188529D02*
X0175416Y0188529D01*
X0175416Y0189727D02*
X0140116Y0189727D01*
X0141314Y0190926D02*
X0175416Y0190926D01*
X0175416Y0192125D02*
X0142513Y0192125D01*
X0143370Y0193323D02*
X0175416Y0193323D01*
X0175416Y0194522D02*
X0143616Y0194522D01*
X0143616Y0195720D02*
X0175416Y0195720D01*
X0175416Y0196919D02*
X0143616Y0196919D01*
X0146301Y0198117D02*
X0175416Y0198117D01*
X0175416Y0199316D02*
X0148196Y0199316D01*
X0149191Y0200514D02*
X0175416Y0200514D01*
X0175416Y0201713D02*
X0149687Y0201713D01*
X0149890Y0202911D02*
X0175416Y0202911D01*
X0159294Y0182536D02*
X0230716Y0182536D01*
X0230716Y0181338D02*
X0160492Y0181338D01*
X0161691Y0180139D02*
X0230716Y0180139D01*
X0230716Y0178941D02*
X0162889Y0178941D01*
X0164088Y0177742D02*
X0230716Y0177742D01*
X0230716Y0176544D02*
X0165286Y0176544D01*
X0163374Y0175345D02*
X0137916Y0175345D01*
X0137916Y0174147D02*
X0164572Y0174147D01*
X0165771Y0172948D02*
X0137916Y0172948D01*
X0137916Y0171750D02*
X0166969Y0171750D01*
X0168168Y0170551D02*
X0137916Y0170551D01*
X0138116Y0169353D02*
X0169366Y0169353D01*
X0162175Y0176544D02*
X0137916Y0176544D01*
X0137916Y0177742D02*
X0160977Y0177742D01*
X0159778Y0178941D02*
X0137916Y0178941D01*
X0137916Y0180139D02*
X0158580Y0180139D01*
X0157381Y0181338D02*
X0137916Y0181338D01*
X0137916Y0182536D02*
X0156183Y0182536D01*
X0235389Y0104633D02*
X0297336Y0104633D01*
X0297336Y0103435D02*
X0237206Y0103435D01*
X0238364Y0102236D02*
X0297336Y0102236D01*
X0297336Y0101038D02*
X0238861Y0101038D01*
X0239357Y0099839D02*
X0297336Y0099839D01*
X0297336Y0098641D02*
X0239358Y0098641D01*
X0239358Y0097442D02*
X0297336Y0097442D01*
X0297336Y0096244D02*
X0238977Y0096244D01*
X0238481Y0095045D02*
X0297336Y0095045D01*
X0297336Y0093847D02*
X0237488Y0093847D01*
M02*
