G75*
%MOIN*%
%OFA0B0*%
%FSLAX25Y25*%
%IPPOS*%
%LPD*%
%AMOC8*
5,1,8,0,0,1.08239X$1,22.5*
%
%ADD10C,0.00900*%
%ADD11C,0.01100*%
%ADD12C,0.01200*%
%ADD13C,0.01000*%
%ADD14C,0.00500*%
%ADD15C,0.00800*%
%ADD16C,0.02953*%
%ADD17R,0.01969X0.03937*%
%ADD18R,0.02362X0.03937*%
%ADD19C,0.00400*%
%ADD20C,0.00600*%
%ADD21R,0.01800X0.02300*%
%ADD22C,0.02000*%
%ADD23R,0.01000X0.02000*%
%ADD24R,0.01181X0.06299*%
%ADD25R,0.02362X0.03543*%
D10*
X0099616Y0084753D02*
X0099616Y0087853D01*
X0101338Y0087853D02*
X0099616Y0084753D01*
X0101338Y0084753D02*
X0101338Y0087853D01*
X0103336Y0086992D02*
X0103336Y0085614D01*
X0103338Y0085556D01*
X0103344Y0085499D01*
X0103353Y0085443D01*
X0103367Y0085387D01*
X0103384Y0085332D01*
X0103404Y0085278D01*
X0103429Y0085226D01*
X0103456Y0085175D01*
X0103487Y0085127D01*
X0103521Y0085080D01*
X0103558Y0085036D01*
X0103598Y0084995D01*
X0103641Y0084956D01*
X0103686Y0084921D01*
X0103734Y0084888D01*
X0103783Y0084859D01*
X0103835Y0084833D01*
X0103888Y0084811D01*
X0103942Y0084792D01*
X0103997Y0084776D01*
X0104054Y0084765D01*
X0104111Y0084757D01*
X0104168Y0084753D01*
X0104226Y0084753D01*
X0104283Y0084757D01*
X0104340Y0084765D01*
X0104397Y0084776D01*
X0104452Y0084792D01*
X0104506Y0084811D01*
X0104559Y0084833D01*
X0104611Y0084859D01*
X0104660Y0084888D01*
X0104708Y0084921D01*
X0104753Y0084956D01*
X0104796Y0084995D01*
X0104836Y0085036D01*
X0104873Y0085080D01*
X0104907Y0085127D01*
X0104938Y0085175D01*
X0104965Y0085226D01*
X0104990Y0085278D01*
X0105010Y0085332D01*
X0105027Y0085387D01*
X0105041Y0085443D01*
X0105050Y0085499D01*
X0105056Y0085556D01*
X0105058Y0085614D01*
X0105058Y0086992D01*
X0105056Y0087050D01*
X0105050Y0087107D01*
X0105041Y0087163D01*
X0105027Y0087219D01*
X0105010Y0087274D01*
X0104990Y0087328D01*
X0104965Y0087380D01*
X0104938Y0087431D01*
X0104907Y0087479D01*
X0104873Y0087526D01*
X0104836Y0087570D01*
X0104796Y0087611D01*
X0104753Y0087650D01*
X0104708Y0087685D01*
X0104660Y0087718D01*
X0104611Y0087747D01*
X0104559Y0087773D01*
X0104506Y0087795D01*
X0104452Y0087814D01*
X0104397Y0087830D01*
X0104340Y0087841D01*
X0104283Y0087849D01*
X0104226Y0087853D01*
X0104168Y0087853D01*
X0104111Y0087849D01*
X0104054Y0087841D01*
X0103997Y0087830D01*
X0103942Y0087814D01*
X0103888Y0087795D01*
X0103835Y0087773D01*
X0103783Y0087747D01*
X0103734Y0087718D01*
X0103686Y0087685D01*
X0103641Y0087650D01*
X0103598Y0087611D01*
X0103558Y0087570D01*
X0103521Y0087526D01*
X0103487Y0087479D01*
X0103456Y0087431D01*
X0103429Y0087380D01*
X0103404Y0087328D01*
X0103384Y0087274D01*
X0103367Y0087219D01*
X0103353Y0087163D01*
X0103344Y0087107D01*
X0103338Y0087050D01*
X0103336Y0086992D01*
X0107004Y0086475D02*
X0109070Y0086475D01*
X0109070Y0085442D02*
X0107004Y0085442D01*
X0110816Y0084753D02*
X0110988Y0084753D01*
X0111031Y0084755D01*
X0111073Y0084760D01*
X0111115Y0084769D01*
X0111156Y0084781D01*
X0111196Y0084797D01*
X0111234Y0084815D01*
X0111271Y0084837D01*
X0111306Y0084862D01*
X0111338Y0084890D01*
X0111368Y0084920D01*
X0111396Y0084952D01*
X0111421Y0084987D01*
X0111443Y0085024D01*
X0111461Y0085062D01*
X0111477Y0085102D01*
X0111489Y0085143D01*
X0111498Y0085185D01*
X0111503Y0085227D01*
X0111505Y0085270D01*
X0111505Y0087853D01*
X0111849Y0086820D02*
X0110816Y0086820D01*
X0112813Y0086820D02*
X0112813Y0086475D01*
X0112813Y0086820D02*
X0113846Y0086820D01*
X0113846Y0084753D01*
X0115748Y0085442D02*
X0115748Y0086131D01*
X0115750Y0086182D01*
X0115756Y0086234D01*
X0115765Y0086284D01*
X0115779Y0086334D01*
X0115796Y0086383D01*
X0115816Y0086430D01*
X0115840Y0086476D01*
X0115868Y0086519D01*
X0115898Y0086561D01*
X0115932Y0086600D01*
X0115968Y0086636D01*
X0116007Y0086670D01*
X0116049Y0086700D01*
X0116093Y0086728D01*
X0116138Y0086752D01*
X0116185Y0086772D01*
X0116234Y0086789D01*
X0116284Y0086803D01*
X0116334Y0086812D01*
X0116386Y0086818D01*
X0116437Y0086820D01*
X0116488Y0086818D01*
X0116540Y0086812D01*
X0116590Y0086803D01*
X0116640Y0086789D01*
X0116689Y0086772D01*
X0116736Y0086752D01*
X0116782Y0086728D01*
X0116825Y0086700D01*
X0116867Y0086670D01*
X0116906Y0086636D01*
X0116942Y0086600D01*
X0116976Y0086561D01*
X0117006Y0086519D01*
X0117034Y0086476D01*
X0117058Y0086430D01*
X0117078Y0086383D01*
X0117095Y0086334D01*
X0117109Y0086284D01*
X0117118Y0086234D01*
X0117124Y0086182D01*
X0117126Y0086131D01*
X0117126Y0085442D01*
X0117124Y0085391D01*
X0117118Y0085339D01*
X0117109Y0085289D01*
X0117095Y0085239D01*
X0117078Y0085190D01*
X0117058Y0085143D01*
X0117034Y0085098D01*
X0117006Y0085054D01*
X0116976Y0085012D01*
X0116942Y0084973D01*
X0116906Y0084937D01*
X0116867Y0084903D01*
X0116825Y0084873D01*
X0116782Y0084845D01*
X0116736Y0084821D01*
X0116689Y0084801D01*
X0116640Y0084784D01*
X0116590Y0084770D01*
X0116540Y0084761D01*
X0116488Y0084755D01*
X0116437Y0084753D01*
X0116386Y0084755D01*
X0116334Y0084761D01*
X0116284Y0084770D01*
X0116234Y0084784D01*
X0116185Y0084801D01*
X0116138Y0084821D01*
X0116093Y0084845D01*
X0116049Y0084873D01*
X0116007Y0084903D01*
X0115968Y0084937D01*
X0115932Y0084973D01*
X0115898Y0085012D01*
X0115868Y0085054D01*
X0115840Y0085098D01*
X0115816Y0085143D01*
X0115796Y0085190D01*
X0115779Y0085239D01*
X0115765Y0085289D01*
X0115756Y0085339D01*
X0115750Y0085391D01*
X0115748Y0085442D01*
X0118988Y0084753D02*
X0118988Y0086303D01*
X0118990Y0086346D01*
X0118995Y0086388D01*
X0119004Y0086430D01*
X0119016Y0086471D01*
X0119032Y0086511D01*
X0119050Y0086549D01*
X0119072Y0086586D01*
X0119097Y0086621D01*
X0119125Y0086653D01*
X0119155Y0086683D01*
X0119187Y0086711D01*
X0119222Y0086736D01*
X0119259Y0086758D01*
X0119297Y0086776D01*
X0119337Y0086792D01*
X0119378Y0086804D01*
X0119420Y0086813D01*
X0119462Y0086818D01*
X0119505Y0086820D01*
X0120366Y0086820D01*
X0120366Y0087853D02*
X0120366Y0084753D01*
X0122520Y0086045D02*
X0123467Y0086561D01*
X0123123Y0087854D02*
X0123054Y0087852D01*
X0122985Y0087847D01*
X0122916Y0087837D01*
X0122848Y0087824D01*
X0122781Y0087808D01*
X0122714Y0087788D01*
X0122649Y0087764D01*
X0122586Y0087737D01*
X0122523Y0087706D01*
X0122463Y0087673D01*
X0122404Y0087636D01*
X0122348Y0087596D01*
X0123467Y0086561D02*
X0123511Y0086589D01*
X0123553Y0086620D01*
X0123592Y0086654D01*
X0123628Y0086691D01*
X0123662Y0086731D01*
X0123692Y0086773D01*
X0123720Y0086817D01*
X0123744Y0086863D01*
X0123764Y0086910D01*
X0123781Y0086959D01*
X0123795Y0087010D01*
X0123804Y0087061D01*
X0123810Y0087112D01*
X0123812Y0087164D01*
X0123810Y0087215D01*
X0123804Y0087267D01*
X0123795Y0087317D01*
X0123781Y0087367D01*
X0123764Y0087416D01*
X0123744Y0087463D01*
X0123720Y0087509D01*
X0123692Y0087552D01*
X0123662Y0087594D01*
X0123628Y0087633D01*
X0123592Y0087669D01*
X0123553Y0087703D01*
X0123511Y0087733D01*
X0123468Y0087761D01*
X0123422Y0087785D01*
X0123375Y0087805D01*
X0123326Y0087822D01*
X0123276Y0087836D01*
X0123226Y0087845D01*
X0123174Y0087851D01*
X0123123Y0087853D01*
X0123898Y0085183D02*
X0123846Y0085134D01*
X0123792Y0085087D01*
X0123736Y0085042D01*
X0123677Y0085001D01*
X0123617Y0084962D01*
X0123554Y0084927D01*
X0123490Y0084894D01*
X0123425Y0084865D01*
X0123358Y0084839D01*
X0123290Y0084816D01*
X0123220Y0084797D01*
X0123150Y0084781D01*
X0123080Y0084769D01*
X0123008Y0084760D01*
X0122937Y0084755D01*
X0122865Y0084753D01*
X0122814Y0084755D01*
X0122762Y0084761D01*
X0122712Y0084770D01*
X0122662Y0084784D01*
X0122613Y0084801D01*
X0122566Y0084821D01*
X0122521Y0084845D01*
X0122477Y0084873D01*
X0122435Y0084903D01*
X0122396Y0084937D01*
X0122360Y0084973D01*
X0122326Y0085012D01*
X0122296Y0085054D01*
X0122268Y0085097D01*
X0122244Y0085143D01*
X0122224Y0085190D01*
X0122207Y0085239D01*
X0122193Y0085289D01*
X0122184Y0085339D01*
X0122178Y0085391D01*
X0122176Y0085442D01*
X0122175Y0085442D02*
X0122177Y0085494D01*
X0122183Y0085545D01*
X0122192Y0085596D01*
X0122206Y0085647D01*
X0122223Y0085696D01*
X0122243Y0085743D01*
X0122267Y0085789D01*
X0122295Y0085833D01*
X0122325Y0085875D01*
X0122359Y0085915D01*
X0122395Y0085952D01*
X0122434Y0085986D01*
X0122476Y0086017D01*
X0122520Y0086045D01*
X0131491Y0085356D02*
X0131491Y0087079D01*
X0131491Y0085356D02*
X0133213Y0086820D01*
X0134591Y0086304D02*
X0134589Y0086244D01*
X0134584Y0086185D01*
X0134575Y0086126D01*
X0134563Y0086068D01*
X0134547Y0086010D01*
X0134527Y0085954D01*
X0134505Y0085899D01*
X0134479Y0085845D01*
X0134450Y0085793D01*
X0134418Y0085743D01*
X0134383Y0085694D01*
X0134345Y0085648D01*
X0134304Y0085605D01*
X0134261Y0085563D01*
X0134215Y0085525D01*
X0134168Y0085489D01*
X0134118Y0085456D01*
X0134066Y0085427D01*
X0134013Y0085400D01*
X0133958Y0085377D01*
X0133902Y0085356D01*
X0133214Y0086820D02*
X0133254Y0086859D01*
X0133296Y0086896D01*
X0133341Y0086929D01*
X0133388Y0086960D01*
X0133437Y0086987D01*
X0133488Y0087011D01*
X0133541Y0087031D01*
X0133594Y0087048D01*
X0133649Y0087061D01*
X0133704Y0087070D01*
X0133760Y0087076D01*
X0133816Y0087078D01*
X0133816Y0087079D02*
X0133871Y0087077D01*
X0133926Y0087071D01*
X0133981Y0087061D01*
X0134034Y0087048D01*
X0134087Y0087030D01*
X0134138Y0087009D01*
X0134187Y0086984D01*
X0134235Y0086956D01*
X0134280Y0086924D01*
X0134324Y0086890D01*
X0134364Y0086852D01*
X0134402Y0086812D01*
X0134436Y0086768D01*
X0134468Y0086723D01*
X0134496Y0086675D01*
X0134521Y0086626D01*
X0134542Y0086575D01*
X0134560Y0086522D01*
X0134573Y0086469D01*
X0134583Y0086414D01*
X0134589Y0086359D01*
X0134591Y0086304D01*
X0134591Y0082839D02*
X0134591Y0081978D01*
X0131491Y0081978D01*
X0132869Y0081978D02*
X0132869Y0082839D01*
X0132871Y0082897D01*
X0132877Y0082954D01*
X0132886Y0083010D01*
X0132900Y0083066D01*
X0132917Y0083121D01*
X0132937Y0083175D01*
X0132962Y0083227D01*
X0132989Y0083278D01*
X0133020Y0083326D01*
X0133054Y0083373D01*
X0133091Y0083417D01*
X0133131Y0083458D01*
X0133174Y0083497D01*
X0133219Y0083532D01*
X0133267Y0083565D01*
X0133316Y0083594D01*
X0133368Y0083620D01*
X0133421Y0083642D01*
X0133475Y0083661D01*
X0133530Y0083677D01*
X0133587Y0083688D01*
X0133644Y0083696D01*
X0133701Y0083700D01*
X0133759Y0083700D01*
X0133816Y0083696D01*
X0133873Y0083688D01*
X0133930Y0083677D01*
X0133985Y0083661D01*
X0134039Y0083642D01*
X0134092Y0083620D01*
X0134144Y0083594D01*
X0134193Y0083565D01*
X0134241Y0083532D01*
X0134286Y0083497D01*
X0134329Y0083458D01*
X0134369Y0083417D01*
X0134406Y0083373D01*
X0134440Y0083326D01*
X0134471Y0083278D01*
X0134498Y0083227D01*
X0134523Y0083175D01*
X0134543Y0083121D01*
X0134560Y0083066D01*
X0134574Y0083010D01*
X0134583Y0082954D01*
X0134589Y0082897D01*
X0134591Y0082839D01*
X0134591Y0079786D02*
X0132180Y0079786D01*
X0132180Y0079787D02*
X0132129Y0079785D01*
X0132077Y0079779D01*
X0132027Y0079770D01*
X0131977Y0079756D01*
X0131928Y0079739D01*
X0131881Y0079719D01*
X0131836Y0079695D01*
X0131792Y0079667D01*
X0131750Y0079637D01*
X0131711Y0079603D01*
X0131675Y0079567D01*
X0131641Y0079528D01*
X0131611Y0079486D01*
X0131583Y0079443D01*
X0131559Y0079397D01*
X0131539Y0079350D01*
X0131522Y0079301D01*
X0131508Y0079251D01*
X0131499Y0079201D01*
X0131493Y0079149D01*
X0131491Y0079098D01*
X0131491Y0078753D01*
X0122416Y0107976D02*
X0122319Y0107974D01*
X0122223Y0107969D01*
X0122127Y0107960D01*
X0122031Y0107947D01*
X0121936Y0107931D01*
X0121841Y0107911D01*
X0121748Y0107887D01*
X0121655Y0107860D01*
X0121563Y0107830D01*
X0121473Y0107796D01*
X0121384Y0107758D01*
X0121296Y0107718D01*
X0121296Y0107717D02*
X0121250Y0107699D01*
X0121206Y0107677D01*
X0121163Y0107653D01*
X0121122Y0107625D01*
X0121084Y0107594D01*
X0121048Y0107560D01*
X0121015Y0107523D01*
X0120985Y0107484D01*
X0120958Y0107443D01*
X0120934Y0107400D01*
X0120913Y0107355D01*
X0120896Y0107308D01*
X0120883Y0107261D01*
X0120874Y0107212D01*
X0120868Y0107163D01*
X0120866Y0107114D01*
X0120868Y0107065D01*
X0120874Y0107016D01*
X0120883Y0106967D01*
X0120896Y0106920D01*
X0120913Y0106873D01*
X0120934Y0106828D01*
X0120958Y0106785D01*
X0120985Y0106744D01*
X0121015Y0106705D01*
X0121048Y0106668D01*
X0121084Y0106634D01*
X0121122Y0106603D01*
X0121163Y0106575D01*
X0121206Y0106551D01*
X0121250Y0106529D01*
X0121296Y0106511D01*
X0121555Y0106425D02*
X0123277Y0107803D01*
X0123536Y0107717D02*
X0123582Y0107699D01*
X0123626Y0107677D01*
X0123669Y0107653D01*
X0123710Y0107625D01*
X0123748Y0107594D01*
X0123784Y0107560D01*
X0123817Y0107523D01*
X0123847Y0107484D01*
X0123874Y0107443D01*
X0123898Y0107400D01*
X0123919Y0107355D01*
X0123936Y0107308D01*
X0123949Y0107261D01*
X0123958Y0107212D01*
X0123964Y0107163D01*
X0123966Y0107114D01*
X0123964Y0107065D01*
X0123958Y0107016D01*
X0123949Y0106967D01*
X0123936Y0106920D01*
X0123919Y0106873D01*
X0123898Y0106828D01*
X0123874Y0106785D01*
X0123847Y0106744D01*
X0123817Y0106705D01*
X0123784Y0106668D01*
X0123748Y0106634D01*
X0123710Y0106603D01*
X0123669Y0106575D01*
X0123626Y0106551D01*
X0123582Y0106529D01*
X0123536Y0106511D01*
X0123536Y0107718D02*
X0123448Y0107758D01*
X0123359Y0107796D01*
X0123269Y0107830D01*
X0123177Y0107860D01*
X0123084Y0107887D01*
X0122991Y0107911D01*
X0122896Y0107930D01*
X0122801Y0107947D01*
X0122705Y0107960D01*
X0122609Y0107969D01*
X0122513Y0107974D01*
X0122416Y0107976D01*
X0122416Y0106253D02*
X0122513Y0106255D01*
X0122609Y0106260D01*
X0122705Y0106269D01*
X0122801Y0106282D01*
X0122896Y0106298D01*
X0122991Y0106318D01*
X0123084Y0106342D01*
X0123177Y0106369D01*
X0123269Y0106399D01*
X0123359Y0106433D01*
X0123448Y0106471D01*
X0123536Y0106511D01*
X0122416Y0106253D02*
X0122319Y0106255D01*
X0122223Y0106260D01*
X0122127Y0106269D01*
X0122031Y0106282D01*
X0121936Y0106298D01*
X0121841Y0106318D01*
X0121748Y0106342D01*
X0121655Y0106369D01*
X0121563Y0106399D01*
X0121473Y0106433D01*
X0121384Y0106471D01*
X0121296Y0106511D01*
X0121038Y0109548D02*
X0121038Y0109720D01*
X0120866Y0109720D01*
X0120866Y0109548D01*
X0121038Y0109548D01*
X0120866Y0111293D02*
X0120866Y0113015D01*
X0120866Y0112154D02*
X0123966Y0112154D01*
X0123277Y0111293D01*
X0126491Y0110995D02*
X0126491Y0109273D01*
X0126491Y0110134D02*
X0129591Y0110134D01*
X0128902Y0109273D01*
X0129591Y0107631D02*
X0129591Y0106942D01*
X0129589Y0106891D01*
X0129583Y0106839D01*
X0129574Y0106789D01*
X0129560Y0106739D01*
X0129543Y0106690D01*
X0129523Y0106643D01*
X0129499Y0106598D01*
X0129471Y0106554D01*
X0129441Y0106512D01*
X0129407Y0106473D01*
X0129371Y0106437D01*
X0129332Y0106403D01*
X0129290Y0106373D01*
X0129247Y0106345D01*
X0129201Y0106321D01*
X0129154Y0106301D01*
X0129105Y0106284D01*
X0129055Y0106270D01*
X0129005Y0106261D01*
X0128953Y0106255D01*
X0128902Y0106253D01*
X0127180Y0106253D01*
X0127129Y0106255D01*
X0127077Y0106261D01*
X0127027Y0106270D01*
X0126977Y0106284D01*
X0126928Y0106301D01*
X0126881Y0106321D01*
X0126836Y0106345D01*
X0126792Y0106373D01*
X0126750Y0106403D01*
X0126711Y0106437D01*
X0126675Y0106473D01*
X0126641Y0106512D01*
X0126611Y0106554D01*
X0126583Y0106598D01*
X0126559Y0106643D01*
X0126539Y0106690D01*
X0126522Y0106739D01*
X0126508Y0106789D01*
X0126499Y0106839D01*
X0126493Y0106891D01*
X0126491Y0106942D01*
X0126491Y0107631D01*
X0122933Y0114945D02*
X0121383Y0114945D01*
X0121340Y0114947D01*
X0121298Y0114952D01*
X0121256Y0114961D01*
X0121215Y0114973D01*
X0121175Y0114989D01*
X0121137Y0115007D01*
X0121100Y0115029D01*
X0121065Y0115054D01*
X0121033Y0115082D01*
X0121003Y0115112D01*
X0120975Y0115144D01*
X0120950Y0115179D01*
X0120928Y0115216D01*
X0120910Y0115254D01*
X0120894Y0115294D01*
X0120882Y0115335D01*
X0120873Y0115377D01*
X0120868Y0115419D01*
X0120866Y0115462D01*
X0120866Y0116323D01*
X0122933Y0116323D01*
X0122588Y0118387D02*
X0122588Y0119764D01*
X0123966Y0119764D02*
X0123966Y0118387D01*
X0120866Y0118387D01*
X0171210Y0084103D02*
X0171282Y0084101D01*
X0171354Y0084095D01*
X0171426Y0084086D01*
X0171497Y0084073D01*
X0171567Y0084056D01*
X0171636Y0084036D01*
X0171704Y0084011D01*
X0171770Y0083984D01*
X0171836Y0083953D01*
X0171899Y0083918D01*
X0171961Y0083881D01*
X0172020Y0083840D01*
X0172077Y0083796D01*
X0172132Y0083749D01*
X0172184Y0083699D01*
X0172234Y0083647D01*
X0172281Y0083592D01*
X0172325Y0083535D01*
X0172366Y0083476D01*
X0172403Y0083414D01*
X0172438Y0083351D01*
X0172469Y0083285D01*
X0172496Y0083219D01*
X0172521Y0083151D01*
X0172541Y0083082D01*
X0172558Y0083011D01*
X0172571Y0082941D01*
X0172580Y0082869D01*
X0172586Y0082797D01*
X0172588Y0082725D01*
X0172588Y0081864D01*
X0172586Y0081806D01*
X0172580Y0081749D01*
X0172571Y0081693D01*
X0172557Y0081637D01*
X0172540Y0081582D01*
X0172520Y0081528D01*
X0172495Y0081476D01*
X0172468Y0081425D01*
X0172437Y0081377D01*
X0172403Y0081330D01*
X0172366Y0081286D01*
X0172326Y0081245D01*
X0172283Y0081206D01*
X0172238Y0081171D01*
X0172190Y0081138D01*
X0172141Y0081109D01*
X0172089Y0081083D01*
X0172036Y0081061D01*
X0171982Y0081042D01*
X0171927Y0081026D01*
X0171870Y0081015D01*
X0171813Y0081007D01*
X0171756Y0081003D01*
X0171698Y0081003D01*
X0171641Y0081007D01*
X0171584Y0081015D01*
X0171527Y0081026D01*
X0171472Y0081042D01*
X0171418Y0081061D01*
X0171365Y0081083D01*
X0171313Y0081109D01*
X0171264Y0081138D01*
X0171216Y0081171D01*
X0171171Y0081206D01*
X0171128Y0081245D01*
X0171088Y0081286D01*
X0171051Y0081330D01*
X0171017Y0081377D01*
X0170986Y0081425D01*
X0170959Y0081476D01*
X0170934Y0081528D01*
X0170914Y0081582D01*
X0170897Y0081637D01*
X0170883Y0081693D01*
X0170874Y0081749D01*
X0170868Y0081806D01*
X0170866Y0081864D01*
X0170866Y0082036D01*
X0170868Y0082088D01*
X0170874Y0082139D01*
X0170883Y0082189D01*
X0170897Y0082239D01*
X0170914Y0082288D01*
X0170934Y0082335D01*
X0170958Y0082381D01*
X0170986Y0082424D01*
X0171016Y0082466D01*
X0171050Y0082505D01*
X0171086Y0082541D01*
X0171125Y0082575D01*
X0171167Y0082605D01*
X0171211Y0082633D01*
X0171256Y0082657D01*
X0171303Y0082677D01*
X0171352Y0082694D01*
X0171402Y0082708D01*
X0171452Y0082717D01*
X0171504Y0082723D01*
X0171555Y0082725D01*
X0172588Y0082725D01*
X0175105Y0082381D02*
X0175966Y0082381D01*
X0175105Y0082381D02*
X0175047Y0082383D01*
X0174990Y0082389D01*
X0174934Y0082398D01*
X0174878Y0082412D01*
X0174823Y0082429D01*
X0174769Y0082449D01*
X0174717Y0082474D01*
X0174666Y0082501D01*
X0174618Y0082532D01*
X0174571Y0082566D01*
X0174527Y0082603D01*
X0174486Y0082643D01*
X0174447Y0082686D01*
X0174412Y0082731D01*
X0174379Y0082779D01*
X0174350Y0082828D01*
X0174324Y0082880D01*
X0174302Y0082933D01*
X0174283Y0082987D01*
X0174267Y0083042D01*
X0174256Y0083099D01*
X0174248Y0083156D01*
X0174244Y0083213D01*
X0174244Y0083271D01*
X0174248Y0083328D01*
X0174256Y0083385D01*
X0174267Y0083442D01*
X0174283Y0083497D01*
X0174302Y0083551D01*
X0174324Y0083604D01*
X0174350Y0083656D01*
X0174379Y0083705D01*
X0174412Y0083753D01*
X0174447Y0083798D01*
X0174486Y0083841D01*
X0174527Y0083881D01*
X0174571Y0083918D01*
X0174618Y0083952D01*
X0174666Y0083983D01*
X0174717Y0084010D01*
X0174769Y0084035D01*
X0174823Y0084055D01*
X0174878Y0084072D01*
X0174934Y0084086D01*
X0174990Y0084095D01*
X0175047Y0084101D01*
X0175105Y0084103D01*
X0175966Y0084103D01*
X0175966Y0081003D01*
X0178158Y0081692D02*
X0178158Y0084103D01*
X0178158Y0081692D02*
X0178160Y0081641D01*
X0178166Y0081589D01*
X0178175Y0081539D01*
X0178189Y0081489D01*
X0178206Y0081440D01*
X0178226Y0081393D01*
X0178250Y0081347D01*
X0178278Y0081304D01*
X0178308Y0081262D01*
X0178342Y0081223D01*
X0178378Y0081187D01*
X0178417Y0081153D01*
X0178459Y0081123D01*
X0178503Y0081095D01*
X0178548Y0081071D01*
X0178595Y0081051D01*
X0178644Y0081034D01*
X0178694Y0081020D01*
X0178744Y0081011D01*
X0178796Y0081005D01*
X0178847Y0081003D01*
X0179191Y0081003D01*
X0191748Y0080090D02*
X0194848Y0081124D01*
X0194848Y0082993D02*
X0191748Y0082993D01*
X0193126Y0082993D02*
X0193126Y0083855D01*
X0193126Y0084027D02*
X0191748Y0084716D01*
X0191748Y0086549D02*
X0191748Y0088271D01*
X0191748Y0087410D02*
X0194848Y0087410D01*
X0194159Y0086549D01*
X0194848Y0083855D02*
X0194846Y0083913D01*
X0194840Y0083970D01*
X0194831Y0084026D01*
X0194817Y0084082D01*
X0194800Y0084137D01*
X0194780Y0084191D01*
X0194755Y0084243D01*
X0194728Y0084294D01*
X0194697Y0084342D01*
X0194663Y0084389D01*
X0194626Y0084433D01*
X0194586Y0084474D01*
X0194543Y0084513D01*
X0194498Y0084548D01*
X0194450Y0084581D01*
X0194401Y0084610D01*
X0194349Y0084636D01*
X0194296Y0084658D01*
X0194242Y0084677D01*
X0194187Y0084693D01*
X0194130Y0084704D01*
X0194073Y0084712D01*
X0194016Y0084716D01*
X0193958Y0084716D01*
X0193901Y0084712D01*
X0193844Y0084704D01*
X0193787Y0084693D01*
X0193732Y0084677D01*
X0193678Y0084658D01*
X0193625Y0084636D01*
X0193573Y0084610D01*
X0193524Y0084581D01*
X0193476Y0084548D01*
X0193431Y0084513D01*
X0193388Y0084474D01*
X0193348Y0084433D01*
X0193311Y0084389D01*
X0193277Y0084342D01*
X0193246Y0084294D01*
X0193219Y0084243D01*
X0193194Y0084191D01*
X0193174Y0084137D01*
X0193157Y0084082D01*
X0193143Y0084026D01*
X0193134Y0083970D01*
X0193128Y0083913D01*
X0193126Y0083855D01*
X0194848Y0083855D02*
X0194848Y0082993D01*
X0194848Y0079057D02*
X0191748Y0080090D01*
X0210849Y0110003D02*
X0212571Y0110003D01*
X0211107Y0111725D01*
X0211624Y0113103D02*
X0211684Y0113101D01*
X0211743Y0113096D01*
X0211802Y0113087D01*
X0211860Y0113075D01*
X0211918Y0113059D01*
X0211974Y0113039D01*
X0212029Y0113017D01*
X0212083Y0112991D01*
X0212135Y0112962D01*
X0212185Y0112930D01*
X0212234Y0112895D01*
X0212280Y0112857D01*
X0212323Y0112816D01*
X0212365Y0112773D01*
X0212403Y0112727D01*
X0212439Y0112680D01*
X0212472Y0112630D01*
X0212501Y0112578D01*
X0212528Y0112525D01*
X0212551Y0112470D01*
X0212572Y0112414D01*
X0211107Y0111726D02*
X0211068Y0111766D01*
X0211031Y0111808D01*
X0210998Y0111853D01*
X0210967Y0111900D01*
X0210940Y0111949D01*
X0210916Y0112000D01*
X0210896Y0112053D01*
X0210879Y0112106D01*
X0210866Y0112161D01*
X0210857Y0112216D01*
X0210851Y0112272D01*
X0210849Y0112328D01*
X0210851Y0112383D01*
X0210857Y0112438D01*
X0210867Y0112493D01*
X0210880Y0112546D01*
X0210898Y0112599D01*
X0210919Y0112650D01*
X0210944Y0112699D01*
X0210972Y0112747D01*
X0211004Y0112792D01*
X0211038Y0112836D01*
X0211076Y0112876D01*
X0211116Y0112914D01*
X0211160Y0112948D01*
X0211205Y0112980D01*
X0211253Y0113008D01*
X0211302Y0113033D01*
X0211353Y0113054D01*
X0211406Y0113072D01*
X0211459Y0113085D01*
X0211514Y0113095D01*
X0211569Y0113101D01*
X0211624Y0113103D01*
X0214213Y0113103D02*
X0214902Y0113103D01*
X0214953Y0113101D01*
X0215005Y0113095D01*
X0215055Y0113086D01*
X0215105Y0113072D01*
X0215154Y0113055D01*
X0215201Y0113035D01*
X0215247Y0113011D01*
X0215290Y0112983D01*
X0215332Y0112953D01*
X0215371Y0112919D01*
X0215407Y0112883D01*
X0215441Y0112844D01*
X0215471Y0112802D01*
X0215499Y0112759D01*
X0215523Y0112713D01*
X0215543Y0112666D01*
X0215560Y0112617D01*
X0215574Y0112567D01*
X0215583Y0112517D01*
X0215589Y0112465D01*
X0215591Y0112414D01*
X0215591Y0110692D01*
X0215589Y0110641D01*
X0215583Y0110589D01*
X0215574Y0110539D01*
X0215560Y0110489D01*
X0215543Y0110440D01*
X0215523Y0110393D01*
X0215499Y0110348D01*
X0215471Y0110304D01*
X0215441Y0110262D01*
X0215407Y0110223D01*
X0215371Y0110187D01*
X0215332Y0110153D01*
X0215290Y0110123D01*
X0215247Y0110095D01*
X0215201Y0110071D01*
X0215154Y0110051D01*
X0215105Y0110034D01*
X0215055Y0110020D01*
X0215005Y0110011D01*
X0214953Y0110005D01*
X0214902Y0110003D01*
X0214213Y0110003D01*
X0219835Y0110003D02*
X0220696Y0110003D01*
X0219835Y0110003D02*
X0219777Y0110005D01*
X0219720Y0110011D01*
X0219664Y0110020D01*
X0219608Y0110034D01*
X0219553Y0110051D01*
X0219499Y0110071D01*
X0219447Y0110096D01*
X0219396Y0110123D01*
X0219348Y0110154D01*
X0219301Y0110188D01*
X0219257Y0110225D01*
X0219216Y0110265D01*
X0219177Y0110308D01*
X0219142Y0110353D01*
X0219109Y0110401D01*
X0219080Y0110450D01*
X0219054Y0110502D01*
X0219032Y0110555D01*
X0219013Y0110609D01*
X0218997Y0110664D01*
X0218986Y0110721D01*
X0218978Y0110778D01*
X0218974Y0110835D01*
X0218974Y0110893D01*
X0218978Y0110950D01*
X0218986Y0111007D01*
X0218997Y0111064D01*
X0219013Y0111119D01*
X0219032Y0111173D01*
X0219054Y0111226D01*
X0219080Y0111278D01*
X0219109Y0111327D01*
X0219142Y0111375D01*
X0219177Y0111420D01*
X0219216Y0111463D01*
X0219257Y0111503D01*
X0219301Y0111540D01*
X0219348Y0111574D01*
X0219396Y0111605D01*
X0219447Y0111632D01*
X0219499Y0111657D01*
X0219553Y0111677D01*
X0219608Y0111694D01*
X0219664Y0111708D01*
X0219720Y0111717D01*
X0219777Y0111723D01*
X0219835Y0111725D01*
X0219663Y0111725D02*
X0220352Y0111725D01*
X0219663Y0111725D02*
X0219612Y0111727D01*
X0219560Y0111733D01*
X0219510Y0111742D01*
X0219460Y0111756D01*
X0219411Y0111773D01*
X0219364Y0111793D01*
X0219319Y0111817D01*
X0219275Y0111845D01*
X0219233Y0111875D01*
X0219194Y0111909D01*
X0219158Y0111945D01*
X0219124Y0111984D01*
X0219094Y0112026D01*
X0219066Y0112070D01*
X0219042Y0112115D01*
X0219022Y0112162D01*
X0219005Y0112211D01*
X0218991Y0112261D01*
X0218982Y0112311D01*
X0218976Y0112363D01*
X0218974Y0112414D01*
X0218976Y0112465D01*
X0218982Y0112517D01*
X0218991Y0112567D01*
X0219005Y0112617D01*
X0219022Y0112666D01*
X0219042Y0112713D01*
X0219066Y0112759D01*
X0219094Y0112802D01*
X0219124Y0112844D01*
X0219158Y0112883D01*
X0219194Y0112919D01*
X0219233Y0112953D01*
X0219275Y0112983D01*
X0219319Y0113011D01*
X0219364Y0113035D01*
X0219411Y0113055D01*
X0219460Y0113072D01*
X0219510Y0113086D01*
X0219560Y0113095D01*
X0219612Y0113101D01*
X0219663Y0113103D01*
X0220696Y0113103D01*
X0222338Y0113103D02*
X0223027Y0113103D01*
X0223078Y0113101D01*
X0223130Y0113095D01*
X0223180Y0113086D01*
X0223230Y0113072D01*
X0223279Y0113055D01*
X0223326Y0113035D01*
X0223372Y0113011D01*
X0223415Y0112983D01*
X0223457Y0112953D01*
X0223496Y0112919D01*
X0223532Y0112883D01*
X0223566Y0112844D01*
X0223596Y0112802D01*
X0223624Y0112759D01*
X0223648Y0112713D01*
X0223668Y0112666D01*
X0223685Y0112617D01*
X0223699Y0112567D01*
X0223708Y0112517D01*
X0223714Y0112465D01*
X0223716Y0112414D01*
X0223716Y0110692D01*
X0223714Y0110641D01*
X0223708Y0110589D01*
X0223699Y0110539D01*
X0223685Y0110489D01*
X0223668Y0110440D01*
X0223648Y0110393D01*
X0223624Y0110348D01*
X0223596Y0110304D01*
X0223566Y0110262D01*
X0223532Y0110223D01*
X0223496Y0110187D01*
X0223457Y0110153D01*
X0223415Y0110123D01*
X0223372Y0110095D01*
X0223326Y0110071D01*
X0223279Y0110051D01*
X0223230Y0110034D01*
X0223180Y0110020D01*
X0223130Y0110011D01*
X0223078Y0110005D01*
X0223027Y0110003D01*
X0222338Y0110003D01*
X0238583Y0098866D02*
X0241683Y0098866D01*
X0241683Y0099727D01*
X0241681Y0099770D01*
X0241676Y0099812D01*
X0241667Y0099854D01*
X0241655Y0099895D01*
X0241639Y0099935D01*
X0241621Y0099973D01*
X0241599Y0100010D01*
X0241574Y0100045D01*
X0241546Y0100077D01*
X0241516Y0100107D01*
X0241484Y0100135D01*
X0241449Y0100160D01*
X0241412Y0100182D01*
X0241374Y0100200D01*
X0241334Y0100216D01*
X0241293Y0100228D01*
X0241251Y0100237D01*
X0241209Y0100242D01*
X0241166Y0100244D01*
X0241166Y0100243D02*
X0240133Y0100243D01*
X0240133Y0100244D02*
X0240090Y0100242D01*
X0240048Y0100237D01*
X0240006Y0100228D01*
X0239965Y0100216D01*
X0239925Y0100200D01*
X0239887Y0100182D01*
X0239850Y0100160D01*
X0239815Y0100135D01*
X0239783Y0100107D01*
X0239753Y0100077D01*
X0239725Y0100045D01*
X0239700Y0100010D01*
X0239678Y0099973D01*
X0239660Y0099935D01*
X0239644Y0099895D01*
X0239632Y0099854D01*
X0239623Y0099812D01*
X0239618Y0099770D01*
X0239616Y0099727D01*
X0239616Y0098866D01*
X0240046Y0095436D02*
X0240134Y0095396D01*
X0240223Y0095358D01*
X0240313Y0095324D01*
X0240405Y0095294D01*
X0240498Y0095267D01*
X0240591Y0095243D01*
X0240686Y0095223D01*
X0240781Y0095207D01*
X0240877Y0095194D01*
X0240973Y0095185D01*
X0241069Y0095180D01*
X0241166Y0095178D01*
X0241166Y0096901D02*
X0241263Y0096899D01*
X0241359Y0096894D01*
X0241455Y0096885D01*
X0241551Y0096872D01*
X0241646Y0096855D01*
X0241741Y0096836D01*
X0241834Y0096812D01*
X0241927Y0096785D01*
X0242019Y0096755D01*
X0242109Y0096721D01*
X0242198Y0096683D01*
X0242286Y0096643D01*
X0242027Y0096728D02*
X0240305Y0095350D01*
X0239616Y0096039D02*
X0239618Y0096088D01*
X0239624Y0096137D01*
X0239633Y0096186D01*
X0239646Y0096233D01*
X0239663Y0096280D01*
X0239684Y0096325D01*
X0239708Y0096368D01*
X0239735Y0096409D01*
X0239765Y0096448D01*
X0239798Y0096485D01*
X0239834Y0096519D01*
X0239872Y0096550D01*
X0239913Y0096578D01*
X0239956Y0096602D01*
X0240000Y0096624D01*
X0240046Y0096642D01*
X0239616Y0096039D02*
X0239618Y0095990D01*
X0239624Y0095941D01*
X0239633Y0095892D01*
X0239646Y0095845D01*
X0239663Y0095798D01*
X0239684Y0095753D01*
X0239708Y0095710D01*
X0239735Y0095669D01*
X0239765Y0095630D01*
X0239798Y0095593D01*
X0239834Y0095559D01*
X0239872Y0095528D01*
X0239913Y0095500D01*
X0239956Y0095476D01*
X0240000Y0095454D01*
X0240046Y0095436D01*
X0240046Y0096643D02*
X0240134Y0096683D01*
X0240223Y0096721D01*
X0240313Y0096755D01*
X0240405Y0096785D01*
X0240498Y0096812D01*
X0240591Y0096836D01*
X0240686Y0096856D01*
X0240781Y0096872D01*
X0240877Y0096885D01*
X0240973Y0096894D01*
X0241069Y0096899D01*
X0241166Y0096901D01*
X0241166Y0095178D02*
X0241263Y0095180D01*
X0241359Y0095185D01*
X0241455Y0095194D01*
X0241551Y0095207D01*
X0241646Y0095223D01*
X0241741Y0095243D01*
X0241834Y0095267D01*
X0241927Y0095294D01*
X0242019Y0095324D01*
X0242109Y0095358D01*
X0242198Y0095396D01*
X0242286Y0095436D01*
X0242716Y0096039D02*
X0242714Y0096088D01*
X0242708Y0096137D01*
X0242699Y0096186D01*
X0242686Y0096233D01*
X0242669Y0096280D01*
X0242648Y0096325D01*
X0242624Y0096368D01*
X0242597Y0096409D01*
X0242567Y0096448D01*
X0242534Y0096485D01*
X0242498Y0096519D01*
X0242460Y0096550D01*
X0242419Y0096578D01*
X0242376Y0096602D01*
X0242332Y0096624D01*
X0242286Y0096642D01*
X0242716Y0096039D02*
X0242714Y0095990D01*
X0242708Y0095941D01*
X0242699Y0095892D01*
X0242686Y0095845D01*
X0242669Y0095798D01*
X0242648Y0095753D01*
X0242624Y0095710D01*
X0242597Y0095669D01*
X0242567Y0095630D01*
X0242534Y0095593D01*
X0242498Y0095559D01*
X0242460Y0095528D01*
X0242419Y0095500D01*
X0242376Y0095476D01*
X0242332Y0095454D01*
X0242286Y0095436D01*
X0241166Y0091578D02*
X0241069Y0091580D01*
X0240973Y0091585D01*
X0240877Y0091594D01*
X0240781Y0091607D01*
X0240686Y0091623D01*
X0240591Y0091643D01*
X0240498Y0091667D01*
X0240405Y0091694D01*
X0240313Y0091724D01*
X0240223Y0091758D01*
X0240134Y0091796D01*
X0240046Y0091836D01*
X0240305Y0091750D02*
X0242027Y0093128D01*
X0242286Y0093042D02*
X0242332Y0093024D01*
X0242376Y0093002D01*
X0242419Y0092978D01*
X0242460Y0092950D01*
X0242498Y0092919D01*
X0242534Y0092885D01*
X0242567Y0092848D01*
X0242597Y0092809D01*
X0242624Y0092768D01*
X0242648Y0092725D01*
X0242669Y0092680D01*
X0242686Y0092633D01*
X0242699Y0092586D01*
X0242708Y0092537D01*
X0242714Y0092488D01*
X0242716Y0092439D01*
X0242714Y0092390D01*
X0242708Y0092341D01*
X0242699Y0092292D01*
X0242686Y0092245D01*
X0242669Y0092198D01*
X0242648Y0092153D01*
X0242624Y0092110D01*
X0242597Y0092069D01*
X0242567Y0092030D01*
X0242534Y0091993D01*
X0242498Y0091959D01*
X0242460Y0091928D01*
X0242419Y0091900D01*
X0242376Y0091876D01*
X0242332Y0091854D01*
X0242286Y0091836D01*
X0242286Y0093043D02*
X0242198Y0093083D01*
X0242109Y0093121D01*
X0242019Y0093155D01*
X0241927Y0093185D01*
X0241834Y0093212D01*
X0241741Y0093236D01*
X0241646Y0093255D01*
X0241551Y0093272D01*
X0241455Y0093285D01*
X0241359Y0093294D01*
X0241263Y0093299D01*
X0241166Y0093301D01*
X0241166Y0091578D02*
X0241263Y0091580D01*
X0241359Y0091585D01*
X0241455Y0091594D01*
X0241551Y0091607D01*
X0241646Y0091623D01*
X0241741Y0091643D01*
X0241834Y0091667D01*
X0241927Y0091694D01*
X0242019Y0091724D01*
X0242109Y0091758D01*
X0242198Y0091796D01*
X0242286Y0091836D01*
X0241166Y0093301D02*
X0241069Y0093299D01*
X0240973Y0093294D01*
X0240877Y0093285D01*
X0240781Y0093272D01*
X0240686Y0093256D01*
X0240591Y0093236D01*
X0240498Y0093212D01*
X0240405Y0093185D01*
X0240313Y0093155D01*
X0240223Y0093121D01*
X0240134Y0093083D01*
X0240046Y0093043D01*
X0240046Y0093042D02*
X0240000Y0093024D01*
X0239956Y0093002D01*
X0239913Y0092978D01*
X0239872Y0092950D01*
X0239834Y0092919D01*
X0239798Y0092885D01*
X0239765Y0092848D01*
X0239735Y0092809D01*
X0239708Y0092768D01*
X0239684Y0092725D01*
X0239663Y0092680D01*
X0239646Y0092633D01*
X0239633Y0092586D01*
X0239624Y0092537D01*
X0239618Y0092488D01*
X0239616Y0092439D01*
X0239618Y0092390D01*
X0239624Y0092341D01*
X0239633Y0092292D01*
X0239646Y0092245D01*
X0239663Y0092198D01*
X0239684Y0092153D01*
X0239708Y0092110D01*
X0239735Y0092069D01*
X0239765Y0092030D01*
X0239798Y0091993D01*
X0239834Y0091959D01*
X0239872Y0091928D01*
X0239913Y0091900D01*
X0239956Y0091876D01*
X0240000Y0091854D01*
X0240046Y0091836D01*
X0240046Y0088236D02*
X0240134Y0088196D01*
X0240223Y0088158D01*
X0240313Y0088124D01*
X0240405Y0088094D01*
X0240498Y0088067D01*
X0240591Y0088043D01*
X0240686Y0088023D01*
X0240781Y0088007D01*
X0240877Y0087994D01*
X0240973Y0087985D01*
X0241069Y0087980D01*
X0241166Y0087978D01*
X0241166Y0089701D02*
X0241263Y0089699D01*
X0241359Y0089694D01*
X0241455Y0089685D01*
X0241551Y0089672D01*
X0241646Y0089655D01*
X0241741Y0089636D01*
X0241834Y0089612D01*
X0241927Y0089585D01*
X0242019Y0089555D01*
X0242109Y0089521D01*
X0242198Y0089483D01*
X0242286Y0089443D01*
X0242027Y0089528D02*
X0240305Y0088150D01*
X0239616Y0088839D02*
X0239618Y0088888D01*
X0239624Y0088937D01*
X0239633Y0088986D01*
X0239646Y0089033D01*
X0239663Y0089080D01*
X0239684Y0089125D01*
X0239708Y0089168D01*
X0239735Y0089209D01*
X0239765Y0089248D01*
X0239798Y0089285D01*
X0239834Y0089319D01*
X0239872Y0089350D01*
X0239913Y0089378D01*
X0239956Y0089402D01*
X0240000Y0089424D01*
X0240046Y0089442D01*
X0239616Y0088839D02*
X0239618Y0088790D01*
X0239624Y0088741D01*
X0239633Y0088692D01*
X0239646Y0088645D01*
X0239663Y0088598D01*
X0239684Y0088553D01*
X0239708Y0088510D01*
X0239735Y0088469D01*
X0239765Y0088430D01*
X0239798Y0088393D01*
X0239834Y0088359D01*
X0239872Y0088328D01*
X0239913Y0088300D01*
X0239956Y0088276D01*
X0240000Y0088254D01*
X0240046Y0088236D01*
X0240046Y0089443D02*
X0240134Y0089483D01*
X0240223Y0089521D01*
X0240313Y0089555D01*
X0240405Y0089585D01*
X0240498Y0089612D01*
X0240591Y0089636D01*
X0240686Y0089656D01*
X0240781Y0089672D01*
X0240877Y0089685D01*
X0240973Y0089694D01*
X0241069Y0089699D01*
X0241166Y0089701D01*
X0241166Y0087978D02*
X0241263Y0087980D01*
X0241359Y0087985D01*
X0241455Y0087994D01*
X0241551Y0088007D01*
X0241646Y0088023D01*
X0241741Y0088043D01*
X0241834Y0088067D01*
X0241927Y0088094D01*
X0242019Y0088124D01*
X0242109Y0088158D01*
X0242198Y0088196D01*
X0242286Y0088236D01*
X0242716Y0088839D02*
X0242714Y0088888D01*
X0242708Y0088937D01*
X0242699Y0088986D01*
X0242686Y0089033D01*
X0242669Y0089080D01*
X0242648Y0089125D01*
X0242624Y0089168D01*
X0242597Y0089209D01*
X0242567Y0089248D01*
X0242534Y0089285D01*
X0242498Y0089319D01*
X0242460Y0089350D01*
X0242419Y0089378D01*
X0242376Y0089402D01*
X0242332Y0089424D01*
X0242286Y0089442D01*
X0242716Y0088839D02*
X0242714Y0088790D01*
X0242708Y0088741D01*
X0242699Y0088692D01*
X0242686Y0088645D01*
X0242669Y0088598D01*
X0242648Y0088553D01*
X0242624Y0088510D01*
X0242597Y0088469D01*
X0242567Y0088430D01*
X0242534Y0088393D01*
X0242498Y0088359D01*
X0242460Y0088328D01*
X0242419Y0088300D01*
X0242376Y0088276D01*
X0242332Y0088254D01*
X0242286Y0088236D01*
X0242716Y0085239D02*
X0239616Y0085239D01*
X0239616Y0084378D02*
X0239616Y0086100D01*
X0242027Y0084378D02*
X0242716Y0085239D01*
X0235216Y0084029D02*
X0232116Y0084029D01*
X0232116Y0083168D02*
X0232116Y0084890D01*
X0232633Y0086820D02*
X0234183Y0086820D01*
X0234183Y0088198D02*
X0232116Y0088198D01*
X0232116Y0087337D01*
X0232118Y0087294D01*
X0232123Y0087252D01*
X0232132Y0087210D01*
X0232144Y0087169D01*
X0232160Y0087129D01*
X0232178Y0087091D01*
X0232200Y0087054D01*
X0232225Y0087019D01*
X0232253Y0086987D01*
X0232283Y0086957D01*
X0232315Y0086929D01*
X0232350Y0086904D01*
X0232387Y0086882D01*
X0232425Y0086864D01*
X0232465Y0086848D01*
X0232506Y0086836D01*
X0232548Y0086827D01*
X0232590Y0086822D01*
X0232633Y0086820D01*
X0235216Y0084029D02*
X0234527Y0083168D01*
X0233666Y0078128D02*
X0233569Y0078130D01*
X0233473Y0078135D01*
X0233377Y0078144D01*
X0233281Y0078157D01*
X0233186Y0078173D01*
X0233091Y0078193D01*
X0232998Y0078217D01*
X0232905Y0078244D01*
X0232813Y0078274D01*
X0232723Y0078308D01*
X0232634Y0078346D01*
X0232546Y0078386D01*
X0232805Y0078300D02*
X0234527Y0079678D01*
X0234786Y0079592D02*
X0234832Y0079574D01*
X0234876Y0079552D01*
X0234919Y0079528D01*
X0234960Y0079500D01*
X0234998Y0079469D01*
X0235034Y0079435D01*
X0235067Y0079398D01*
X0235097Y0079359D01*
X0235124Y0079318D01*
X0235148Y0079275D01*
X0235169Y0079230D01*
X0235186Y0079183D01*
X0235199Y0079136D01*
X0235208Y0079087D01*
X0235214Y0079038D01*
X0235216Y0078989D01*
X0235214Y0078940D01*
X0235208Y0078891D01*
X0235199Y0078842D01*
X0235186Y0078795D01*
X0235169Y0078748D01*
X0235148Y0078703D01*
X0235124Y0078660D01*
X0235097Y0078619D01*
X0235067Y0078580D01*
X0235034Y0078543D01*
X0234998Y0078509D01*
X0234960Y0078478D01*
X0234919Y0078450D01*
X0234876Y0078426D01*
X0234832Y0078404D01*
X0234786Y0078386D01*
X0234786Y0079593D02*
X0234698Y0079633D01*
X0234609Y0079671D01*
X0234519Y0079705D01*
X0234427Y0079735D01*
X0234334Y0079762D01*
X0234241Y0079786D01*
X0234146Y0079805D01*
X0234051Y0079822D01*
X0233955Y0079835D01*
X0233859Y0079844D01*
X0233763Y0079849D01*
X0233666Y0079851D01*
X0233666Y0078128D02*
X0233763Y0078130D01*
X0233859Y0078135D01*
X0233955Y0078144D01*
X0234051Y0078157D01*
X0234146Y0078173D01*
X0234241Y0078193D01*
X0234334Y0078217D01*
X0234427Y0078244D01*
X0234519Y0078274D01*
X0234609Y0078308D01*
X0234698Y0078346D01*
X0234786Y0078386D01*
X0233666Y0079851D02*
X0233569Y0079849D01*
X0233473Y0079844D01*
X0233377Y0079835D01*
X0233281Y0079822D01*
X0233186Y0079806D01*
X0233091Y0079786D01*
X0232998Y0079762D01*
X0232905Y0079735D01*
X0232813Y0079705D01*
X0232723Y0079671D01*
X0232634Y0079633D01*
X0232546Y0079593D01*
X0232546Y0079592D02*
X0232500Y0079574D01*
X0232456Y0079552D01*
X0232413Y0079528D01*
X0232372Y0079500D01*
X0232334Y0079469D01*
X0232298Y0079435D01*
X0232265Y0079398D01*
X0232235Y0079359D01*
X0232208Y0079318D01*
X0232184Y0079275D01*
X0232163Y0079230D01*
X0232146Y0079183D01*
X0232133Y0079136D01*
X0232124Y0079087D01*
X0232118Y0079038D01*
X0232116Y0078989D01*
X0232118Y0078940D01*
X0232124Y0078891D01*
X0232133Y0078842D01*
X0232146Y0078795D01*
X0232163Y0078748D01*
X0232184Y0078703D01*
X0232208Y0078660D01*
X0232235Y0078619D01*
X0232265Y0078580D01*
X0232298Y0078543D01*
X0232334Y0078509D01*
X0232372Y0078478D01*
X0232413Y0078450D01*
X0232456Y0078426D01*
X0232500Y0078404D01*
X0232546Y0078386D01*
X0232288Y0081423D02*
X0232288Y0081595D01*
X0232116Y0081595D01*
X0232116Y0081423D01*
X0232288Y0081423D01*
X0232116Y0090262D02*
X0235216Y0090262D01*
X0235216Y0091639D01*
X0233838Y0091639D02*
X0233838Y0090262D01*
X0239616Y0102152D02*
X0242716Y0102152D01*
X0242716Y0103529D01*
X0241338Y0103529D02*
X0241338Y0102152D01*
X0198966Y0116036D02*
X0196555Y0116036D01*
X0196555Y0116037D02*
X0196504Y0116035D01*
X0196452Y0116029D01*
X0196402Y0116020D01*
X0196352Y0116006D01*
X0196303Y0115989D01*
X0196256Y0115969D01*
X0196211Y0115945D01*
X0196167Y0115917D01*
X0196125Y0115887D01*
X0196086Y0115853D01*
X0196050Y0115817D01*
X0196016Y0115778D01*
X0195986Y0115736D01*
X0195958Y0115693D01*
X0195934Y0115647D01*
X0195914Y0115600D01*
X0195897Y0115551D01*
X0195883Y0115501D01*
X0195874Y0115451D01*
X0195868Y0115399D01*
X0195866Y0115348D01*
X0195866Y0115003D01*
X0195866Y0118228D02*
X0198966Y0118228D01*
X0198966Y0119089D01*
X0198964Y0119147D01*
X0198958Y0119204D01*
X0198949Y0119260D01*
X0198935Y0119316D01*
X0198918Y0119371D01*
X0198898Y0119425D01*
X0198873Y0119477D01*
X0198846Y0119528D01*
X0198815Y0119576D01*
X0198781Y0119623D01*
X0198744Y0119667D01*
X0198704Y0119708D01*
X0198661Y0119747D01*
X0198616Y0119782D01*
X0198568Y0119815D01*
X0198519Y0119844D01*
X0198467Y0119870D01*
X0198414Y0119892D01*
X0198360Y0119911D01*
X0198305Y0119927D01*
X0198248Y0119938D01*
X0198191Y0119946D01*
X0198134Y0119950D01*
X0198076Y0119950D01*
X0198019Y0119946D01*
X0197962Y0119938D01*
X0197905Y0119927D01*
X0197850Y0119911D01*
X0197796Y0119892D01*
X0197743Y0119870D01*
X0197691Y0119844D01*
X0197642Y0119815D01*
X0197594Y0119782D01*
X0197549Y0119747D01*
X0197506Y0119708D01*
X0197466Y0119667D01*
X0197429Y0119623D01*
X0197395Y0119576D01*
X0197364Y0119528D01*
X0197337Y0119477D01*
X0197312Y0119425D01*
X0197292Y0119371D01*
X0197275Y0119316D01*
X0197261Y0119260D01*
X0197252Y0119204D01*
X0197246Y0119147D01*
X0197244Y0119089D01*
X0197244Y0118228D01*
X0195866Y0121606D02*
X0195866Y0122467D01*
X0195868Y0122525D01*
X0195874Y0122582D01*
X0195883Y0122638D01*
X0195897Y0122694D01*
X0195914Y0122749D01*
X0195934Y0122803D01*
X0195959Y0122855D01*
X0195986Y0122906D01*
X0196017Y0122954D01*
X0196051Y0123001D01*
X0196088Y0123045D01*
X0196128Y0123086D01*
X0196171Y0123125D01*
X0196216Y0123160D01*
X0196264Y0123193D01*
X0196313Y0123222D01*
X0196365Y0123248D01*
X0196418Y0123270D01*
X0196472Y0123289D01*
X0196527Y0123305D01*
X0196584Y0123316D01*
X0196641Y0123324D01*
X0196698Y0123328D01*
X0196756Y0123328D01*
X0196813Y0123324D01*
X0196870Y0123316D01*
X0196927Y0123305D01*
X0196982Y0123289D01*
X0197036Y0123270D01*
X0197089Y0123248D01*
X0197141Y0123222D01*
X0197190Y0123193D01*
X0197238Y0123160D01*
X0197283Y0123125D01*
X0197326Y0123086D01*
X0197366Y0123045D01*
X0197403Y0123001D01*
X0197437Y0122954D01*
X0197468Y0122906D01*
X0197495Y0122855D01*
X0197520Y0122803D01*
X0197540Y0122749D01*
X0197557Y0122694D01*
X0197571Y0122638D01*
X0197580Y0122582D01*
X0197586Y0122525D01*
X0197588Y0122467D01*
X0197588Y0122640D02*
X0197588Y0121951D01*
X0197588Y0122640D02*
X0197590Y0122691D01*
X0197596Y0122743D01*
X0197605Y0122793D01*
X0197619Y0122843D01*
X0197636Y0122892D01*
X0197656Y0122939D01*
X0197680Y0122985D01*
X0197708Y0123028D01*
X0197738Y0123070D01*
X0197772Y0123109D01*
X0197808Y0123145D01*
X0197847Y0123179D01*
X0197889Y0123209D01*
X0197933Y0123237D01*
X0197978Y0123261D01*
X0198025Y0123281D01*
X0198074Y0123298D01*
X0198124Y0123312D01*
X0198174Y0123321D01*
X0198226Y0123327D01*
X0198277Y0123329D01*
X0198328Y0123327D01*
X0198380Y0123321D01*
X0198430Y0123312D01*
X0198480Y0123298D01*
X0198529Y0123281D01*
X0198576Y0123261D01*
X0198622Y0123237D01*
X0198665Y0123209D01*
X0198707Y0123179D01*
X0198746Y0123145D01*
X0198782Y0123109D01*
X0198816Y0123070D01*
X0198846Y0123028D01*
X0198874Y0122985D01*
X0198898Y0122939D01*
X0198918Y0122892D01*
X0198935Y0122843D01*
X0198949Y0122793D01*
X0198958Y0122743D01*
X0198964Y0122691D01*
X0198966Y0122640D01*
X0198966Y0121606D01*
X0214991Y0144416D02*
X0218091Y0144416D01*
X0214991Y0146138D01*
X0218091Y0146138D01*
X0218091Y0147896D02*
X0218091Y0149618D01*
X0218091Y0148757D02*
X0214991Y0148757D01*
X0215680Y0151236D02*
X0217402Y0151236D01*
X0217453Y0151238D01*
X0217505Y0151244D01*
X0217555Y0151253D01*
X0217605Y0151267D01*
X0217654Y0151284D01*
X0217701Y0151304D01*
X0217747Y0151328D01*
X0217790Y0151356D01*
X0217832Y0151386D01*
X0217871Y0151420D01*
X0217907Y0151456D01*
X0217941Y0151495D01*
X0217971Y0151537D01*
X0217999Y0151581D01*
X0218023Y0151626D01*
X0218043Y0151673D01*
X0218060Y0151722D01*
X0218074Y0151772D01*
X0218083Y0151822D01*
X0218089Y0151874D01*
X0218091Y0151925D01*
X0218091Y0152614D01*
X0217402Y0154256D02*
X0218091Y0155117D01*
X0214991Y0155117D01*
X0214991Y0154256D02*
X0214991Y0155978D01*
X0214991Y0152614D02*
X0214991Y0151925D01*
X0214993Y0151874D01*
X0214999Y0151822D01*
X0215008Y0151772D01*
X0215022Y0151722D01*
X0215039Y0151673D01*
X0215059Y0151626D01*
X0215083Y0151581D01*
X0215111Y0151537D01*
X0215141Y0151495D01*
X0215175Y0151456D01*
X0215211Y0151420D01*
X0215250Y0151386D01*
X0215292Y0151356D01*
X0215336Y0151328D01*
X0215381Y0151304D01*
X0215428Y0151284D01*
X0215477Y0151267D01*
X0215527Y0151253D01*
X0215577Y0151244D01*
X0215629Y0151238D01*
X0215680Y0151236D01*
X0208183Y0182253D02*
X0207322Y0182253D01*
X0208183Y0182253D02*
X0208183Y0185353D01*
X0207322Y0185353D01*
X0207266Y0185351D01*
X0207210Y0185346D01*
X0207154Y0185336D01*
X0207099Y0185324D01*
X0207045Y0185307D01*
X0206993Y0185287D01*
X0206941Y0185264D01*
X0206892Y0185238D01*
X0206844Y0185208D01*
X0206798Y0185175D01*
X0206754Y0185139D01*
X0206713Y0185101D01*
X0206675Y0185060D01*
X0206639Y0185016D01*
X0206606Y0184970D01*
X0206576Y0184923D01*
X0206550Y0184873D01*
X0206527Y0184821D01*
X0206507Y0184769D01*
X0206490Y0184715D01*
X0206478Y0184660D01*
X0206468Y0184604D01*
X0206463Y0184548D01*
X0206461Y0184492D01*
X0206461Y0183114D01*
X0206463Y0183058D01*
X0206468Y0183002D01*
X0206478Y0182946D01*
X0206490Y0182891D01*
X0206507Y0182837D01*
X0206527Y0182785D01*
X0206550Y0182733D01*
X0206576Y0182684D01*
X0206606Y0182636D01*
X0206639Y0182590D01*
X0206675Y0182546D01*
X0206713Y0182505D01*
X0206754Y0182467D01*
X0206798Y0182431D01*
X0206844Y0182398D01*
X0206892Y0182368D01*
X0206941Y0182342D01*
X0206993Y0182319D01*
X0207045Y0182299D01*
X0207099Y0182282D01*
X0207154Y0182270D01*
X0207210Y0182260D01*
X0207266Y0182255D01*
X0207322Y0182253D01*
X0204463Y0182253D02*
X0202741Y0182253D01*
X0204463Y0182253D02*
X0202999Y0183975D01*
X0203516Y0185353D02*
X0203576Y0185351D01*
X0203635Y0185346D01*
X0203694Y0185337D01*
X0203752Y0185325D01*
X0203810Y0185309D01*
X0203866Y0185289D01*
X0203921Y0185267D01*
X0203975Y0185241D01*
X0204027Y0185212D01*
X0204077Y0185180D01*
X0204126Y0185145D01*
X0204172Y0185107D01*
X0204215Y0185066D01*
X0204257Y0185023D01*
X0204295Y0184977D01*
X0204331Y0184930D01*
X0204364Y0184880D01*
X0204393Y0184828D01*
X0204420Y0184775D01*
X0204443Y0184720D01*
X0204464Y0184664D01*
X0202999Y0183976D02*
X0202960Y0184016D01*
X0202923Y0184058D01*
X0202890Y0184103D01*
X0202859Y0184150D01*
X0202832Y0184199D01*
X0202808Y0184250D01*
X0202788Y0184303D01*
X0202771Y0184356D01*
X0202758Y0184411D01*
X0202749Y0184466D01*
X0202743Y0184522D01*
X0202741Y0184578D01*
X0202743Y0184633D01*
X0202749Y0184688D01*
X0202759Y0184743D01*
X0202772Y0184796D01*
X0202790Y0184849D01*
X0202811Y0184900D01*
X0202836Y0184949D01*
X0202864Y0184997D01*
X0202896Y0185042D01*
X0202930Y0185086D01*
X0202968Y0185126D01*
X0203008Y0185164D01*
X0203052Y0185198D01*
X0203097Y0185230D01*
X0203145Y0185258D01*
X0203194Y0185283D01*
X0203245Y0185304D01*
X0203298Y0185322D01*
X0203351Y0185335D01*
X0203406Y0185345D01*
X0203461Y0185351D01*
X0203516Y0185353D01*
X0174092Y0209061D02*
X0173145Y0208545D01*
X0173490Y0207253D02*
X0173562Y0207255D01*
X0173633Y0207260D01*
X0173705Y0207269D01*
X0173775Y0207281D01*
X0173845Y0207297D01*
X0173915Y0207316D01*
X0173983Y0207339D01*
X0174050Y0207365D01*
X0174115Y0207394D01*
X0174179Y0207427D01*
X0174242Y0207462D01*
X0174302Y0207501D01*
X0174361Y0207542D01*
X0174417Y0207587D01*
X0174471Y0207634D01*
X0174523Y0207683D01*
X0173145Y0208545D02*
X0173101Y0208517D01*
X0173059Y0208486D01*
X0173020Y0208452D01*
X0172984Y0208415D01*
X0172950Y0208375D01*
X0172920Y0208333D01*
X0172892Y0208289D01*
X0172868Y0208243D01*
X0172848Y0208196D01*
X0172831Y0208147D01*
X0172817Y0208096D01*
X0172808Y0208045D01*
X0172802Y0207994D01*
X0172800Y0207942D01*
X0172801Y0207942D02*
X0172803Y0207891D01*
X0172809Y0207839D01*
X0172818Y0207789D01*
X0172832Y0207739D01*
X0172849Y0207690D01*
X0172869Y0207643D01*
X0172893Y0207597D01*
X0172921Y0207554D01*
X0172951Y0207512D01*
X0172985Y0207473D01*
X0173021Y0207437D01*
X0173060Y0207403D01*
X0173102Y0207373D01*
X0173146Y0207345D01*
X0173191Y0207321D01*
X0173238Y0207301D01*
X0173287Y0207284D01*
X0173337Y0207270D01*
X0173387Y0207261D01*
X0173439Y0207255D01*
X0173490Y0207253D01*
X0172973Y0210096D02*
X0173029Y0210136D01*
X0173088Y0210173D01*
X0173148Y0210206D01*
X0173211Y0210237D01*
X0173274Y0210264D01*
X0173339Y0210288D01*
X0173406Y0210308D01*
X0173473Y0210324D01*
X0173541Y0210337D01*
X0173610Y0210347D01*
X0173679Y0210352D01*
X0173748Y0210354D01*
X0173748Y0210353D02*
X0173799Y0210351D01*
X0173851Y0210345D01*
X0173901Y0210336D01*
X0173951Y0210322D01*
X0174000Y0210305D01*
X0174047Y0210285D01*
X0174093Y0210261D01*
X0174136Y0210233D01*
X0174178Y0210203D01*
X0174217Y0210169D01*
X0174253Y0210133D01*
X0174287Y0210094D01*
X0174317Y0210052D01*
X0174345Y0210009D01*
X0174369Y0209963D01*
X0174389Y0209916D01*
X0174406Y0209867D01*
X0174420Y0209817D01*
X0174429Y0209767D01*
X0174435Y0209715D01*
X0174437Y0209664D01*
X0174435Y0209612D01*
X0174429Y0209561D01*
X0174420Y0209510D01*
X0174406Y0209459D01*
X0174389Y0209410D01*
X0174369Y0209363D01*
X0174345Y0209317D01*
X0174317Y0209273D01*
X0174287Y0209231D01*
X0174253Y0209191D01*
X0174217Y0209154D01*
X0174178Y0209120D01*
X0174136Y0209089D01*
X0174092Y0209061D01*
X0170991Y0209320D02*
X0170130Y0209320D01*
X0170087Y0209318D01*
X0170045Y0209313D01*
X0170003Y0209304D01*
X0169962Y0209292D01*
X0169922Y0209276D01*
X0169884Y0209258D01*
X0169847Y0209236D01*
X0169812Y0209211D01*
X0169780Y0209183D01*
X0169750Y0209153D01*
X0169722Y0209121D01*
X0169697Y0209086D01*
X0169675Y0209049D01*
X0169657Y0209011D01*
X0169641Y0208971D01*
X0169629Y0208930D01*
X0169620Y0208888D01*
X0169615Y0208846D01*
X0169613Y0208803D01*
X0169613Y0207253D01*
X0170991Y0207253D02*
X0170991Y0210353D01*
X0167751Y0208631D02*
X0167751Y0207942D01*
X0167749Y0207891D01*
X0167743Y0207839D01*
X0167734Y0207789D01*
X0167720Y0207739D01*
X0167703Y0207690D01*
X0167683Y0207643D01*
X0167659Y0207598D01*
X0167631Y0207554D01*
X0167601Y0207512D01*
X0167567Y0207473D01*
X0167531Y0207437D01*
X0167492Y0207403D01*
X0167450Y0207373D01*
X0167407Y0207345D01*
X0167361Y0207321D01*
X0167314Y0207301D01*
X0167265Y0207284D01*
X0167215Y0207270D01*
X0167165Y0207261D01*
X0167113Y0207255D01*
X0167062Y0207253D01*
X0167011Y0207255D01*
X0166959Y0207261D01*
X0166909Y0207270D01*
X0166859Y0207284D01*
X0166810Y0207301D01*
X0166763Y0207321D01*
X0166718Y0207345D01*
X0166674Y0207373D01*
X0166632Y0207403D01*
X0166593Y0207437D01*
X0166557Y0207473D01*
X0166523Y0207512D01*
X0166493Y0207554D01*
X0166465Y0207598D01*
X0166441Y0207643D01*
X0166421Y0207690D01*
X0166404Y0207739D01*
X0166390Y0207789D01*
X0166381Y0207839D01*
X0166375Y0207891D01*
X0166373Y0207942D01*
X0166373Y0208631D01*
X0166375Y0208682D01*
X0166381Y0208734D01*
X0166390Y0208784D01*
X0166404Y0208834D01*
X0166421Y0208883D01*
X0166441Y0208930D01*
X0166465Y0208976D01*
X0166493Y0209019D01*
X0166523Y0209061D01*
X0166557Y0209100D01*
X0166593Y0209136D01*
X0166632Y0209170D01*
X0166674Y0209200D01*
X0166718Y0209228D01*
X0166763Y0209252D01*
X0166810Y0209272D01*
X0166859Y0209289D01*
X0166909Y0209303D01*
X0166959Y0209312D01*
X0167011Y0209318D01*
X0167062Y0209320D01*
X0167113Y0209318D01*
X0167165Y0209312D01*
X0167215Y0209303D01*
X0167265Y0209289D01*
X0167314Y0209272D01*
X0167361Y0209252D01*
X0167407Y0209228D01*
X0167450Y0209200D01*
X0167492Y0209170D01*
X0167531Y0209136D01*
X0167567Y0209100D01*
X0167601Y0209061D01*
X0167631Y0209019D01*
X0167659Y0208976D01*
X0167683Y0208930D01*
X0167703Y0208883D01*
X0167720Y0208834D01*
X0167734Y0208784D01*
X0167743Y0208734D01*
X0167749Y0208682D01*
X0167751Y0208631D01*
X0164471Y0209320D02*
X0164471Y0207253D01*
X0163438Y0208975D02*
X0163438Y0209320D01*
X0164471Y0209320D01*
X0162474Y0209320D02*
X0161441Y0209320D01*
X0162130Y0210353D02*
X0162130Y0207770D01*
X0162128Y0207727D01*
X0162123Y0207685D01*
X0162114Y0207643D01*
X0162102Y0207602D01*
X0162086Y0207562D01*
X0162068Y0207524D01*
X0162046Y0207487D01*
X0162021Y0207452D01*
X0161993Y0207420D01*
X0161963Y0207390D01*
X0161931Y0207362D01*
X0161896Y0207337D01*
X0161859Y0207315D01*
X0161821Y0207297D01*
X0161781Y0207281D01*
X0161740Y0207269D01*
X0161698Y0207260D01*
X0161656Y0207255D01*
X0161613Y0207253D01*
X0161441Y0207253D01*
X0159695Y0207942D02*
X0157629Y0207942D01*
X0157629Y0208975D02*
X0159695Y0208975D01*
X0155683Y0209492D02*
X0155683Y0208114D01*
X0155681Y0208056D01*
X0155675Y0207999D01*
X0155666Y0207943D01*
X0155652Y0207887D01*
X0155635Y0207832D01*
X0155615Y0207778D01*
X0155590Y0207726D01*
X0155563Y0207675D01*
X0155532Y0207627D01*
X0155498Y0207580D01*
X0155461Y0207536D01*
X0155421Y0207495D01*
X0155378Y0207456D01*
X0155333Y0207421D01*
X0155285Y0207388D01*
X0155236Y0207359D01*
X0155184Y0207333D01*
X0155131Y0207311D01*
X0155077Y0207292D01*
X0155022Y0207276D01*
X0154965Y0207265D01*
X0154908Y0207257D01*
X0154851Y0207253D01*
X0154793Y0207253D01*
X0154736Y0207257D01*
X0154679Y0207265D01*
X0154622Y0207276D01*
X0154567Y0207292D01*
X0154513Y0207311D01*
X0154460Y0207333D01*
X0154408Y0207359D01*
X0154359Y0207388D01*
X0154311Y0207421D01*
X0154266Y0207456D01*
X0154223Y0207495D01*
X0154183Y0207536D01*
X0154146Y0207580D01*
X0154112Y0207627D01*
X0154081Y0207675D01*
X0154054Y0207726D01*
X0154029Y0207778D01*
X0154009Y0207832D01*
X0153992Y0207887D01*
X0153978Y0207943D01*
X0153969Y0207999D01*
X0153963Y0208056D01*
X0153961Y0208114D01*
X0153961Y0209492D01*
X0153963Y0209550D01*
X0153969Y0209607D01*
X0153978Y0209663D01*
X0153992Y0209719D01*
X0154009Y0209774D01*
X0154029Y0209828D01*
X0154054Y0209880D01*
X0154081Y0209931D01*
X0154112Y0209979D01*
X0154146Y0210026D01*
X0154183Y0210070D01*
X0154223Y0210111D01*
X0154266Y0210150D01*
X0154311Y0210185D01*
X0154359Y0210218D01*
X0154408Y0210247D01*
X0154460Y0210273D01*
X0154513Y0210295D01*
X0154567Y0210314D01*
X0154622Y0210330D01*
X0154679Y0210341D01*
X0154736Y0210349D01*
X0154793Y0210353D01*
X0154851Y0210353D01*
X0154908Y0210349D01*
X0154965Y0210341D01*
X0155022Y0210330D01*
X0155077Y0210314D01*
X0155131Y0210295D01*
X0155184Y0210273D01*
X0155236Y0210247D01*
X0155285Y0210218D01*
X0155333Y0210185D01*
X0155378Y0210150D01*
X0155421Y0210111D01*
X0155461Y0210070D01*
X0155498Y0210026D01*
X0155532Y0209979D01*
X0155563Y0209931D01*
X0155590Y0209880D01*
X0155615Y0209828D01*
X0155635Y0209774D01*
X0155652Y0209719D01*
X0155666Y0209663D01*
X0155675Y0209607D01*
X0155681Y0209550D01*
X0155683Y0209492D01*
X0151963Y0210353D02*
X0151963Y0207253D01*
X0150241Y0207253D02*
X0150241Y0210353D01*
X0151963Y0210353D02*
X0150241Y0207253D01*
X0126533Y0196367D02*
X0126533Y0194989D01*
X0126532Y0194989D02*
X0126530Y0194931D01*
X0126524Y0194874D01*
X0126515Y0194818D01*
X0126501Y0194762D01*
X0126484Y0194707D01*
X0126464Y0194653D01*
X0126439Y0194601D01*
X0126412Y0194550D01*
X0126381Y0194502D01*
X0126347Y0194455D01*
X0126310Y0194411D01*
X0126270Y0194370D01*
X0126227Y0194331D01*
X0126182Y0194296D01*
X0126134Y0194263D01*
X0126085Y0194234D01*
X0126033Y0194208D01*
X0125980Y0194186D01*
X0125926Y0194167D01*
X0125871Y0194151D01*
X0125814Y0194140D01*
X0125757Y0194132D01*
X0125700Y0194128D01*
X0125642Y0194128D01*
X0125585Y0194132D01*
X0125528Y0194140D01*
X0125471Y0194151D01*
X0125416Y0194167D01*
X0125362Y0194186D01*
X0125309Y0194208D01*
X0125257Y0194234D01*
X0125208Y0194263D01*
X0125160Y0194296D01*
X0125115Y0194331D01*
X0125072Y0194370D01*
X0125032Y0194411D01*
X0124995Y0194455D01*
X0124961Y0194502D01*
X0124930Y0194550D01*
X0124903Y0194601D01*
X0124878Y0194653D01*
X0124858Y0194707D01*
X0124841Y0194762D01*
X0124827Y0194818D01*
X0124818Y0194874D01*
X0124812Y0194931D01*
X0124810Y0194989D01*
X0124810Y0196367D01*
X0124812Y0196425D01*
X0124818Y0196482D01*
X0124827Y0196538D01*
X0124841Y0196594D01*
X0124858Y0196649D01*
X0124878Y0196703D01*
X0124903Y0196755D01*
X0124930Y0196806D01*
X0124961Y0196854D01*
X0124995Y0196901D01*
X0125032Y0196945D01*
X0125072Y0196986D01*
X0125115Y0197025D01*
X0125160Y0197060D01*
X0125208Y0197093D01*
X0125257Y0197122D01*
X0125309Y0197148D01*
X0125362Y0197170D01*
X0125416Y0197189D01*
X0125471Y0197205D01*
X0125528Y0197216D01*
X0125585Y0197224D01*
X0125642Y0197228D01*
X0125700Y0197228D01*
X0125757Y0197224D01*
X0125814Y0197216D01*
X0125871Y0197205D01*
X0125926Y0197189D01*
X0125980Y0197170D01*
X0126033Y0197148D01*
X0126085Y0197122D01*
X0126134Y0197093D01*
X0126182Y0197060D01*
X0126227Y0197025D01*
X0126270Y0196986D01*
X0126310Y0196945D01*
X0126347Y0196901D01*
X0126381Y0196854D01*
X0126412Y0196806D01*
X0126439Y0196755D01*
X0126464Y0196703D01*
X0126484Y0196649D01*
X0126501Y0196594D01*
X0126515Y0196538D01*
X0126524Y0196482D01*
X0126530Y0196425D01*
X0126532Y0196367D01*
X0125155Y0194817D02*
X0124466Y0194128D01*
X0123213Y0194128D02*
X0121491Y0194128D01*
X0122352Y0194128D02*
X0122352Y0197228D01*
X0123213Y0196539D01*
X0125088Y0183900D02*
X0125088Y0183211D01*
X0125088Y0183900D02*
X0125090Y0183951D01*
X0125096Y0184003D01*
X0125105Y0184053D01*
X0125119Y0184103D01*
X0125136Y0184152D01*
X0125156Y0184199D01*
X0125180Y0184245D01*
X0125208Y0184288D01*
X0125238Y0184330D01*
X0125272Y0184369D01*
X0125308Y0184405D01*
X0125347Y0184439D01*
X0125389Y0184469D01*
X0125433Y0184497D01*
X0125478Y0184521D01*
X0125525Y0184541D01*
X0125574Y0184558D01*
X0125624Y0184572D01*
X0125674Y0184581D01*
X0125726Y0184587D01*
X0125777Y0184589D01*
X0125828Y0184587D01*
X0125880Y0184581D01*
X0125930Y0184572D01*
X0125980Y0184558D01*
X0126029Y0184541D01*
X0126076Y0184521D01*
X0126122Y0184497D01*
X0126165Y0184469D01*
X0126207Y0184439D01*
X0126246Y0184405D01*
X0126282Y0184369D01*
X0126316Y0184330D01*
X0126346Y0184288D01*
X0126374Y0184245D01*
X0126398Y0184199D01*
X0126418Y0184152D01*
X0126435Y0184103D01*
X0126449Y0184053D01*
X0126458Y0184003D01*
X0126464Y0183951D01*
X0126466Y0183900D01*
X0126466Y0182866D01*
X0126466Y0181224D02*
X0126466Y0180535D01*
X0126464Y0180484D01*
X0126458Y0180432D01*
X0126449Y0180382D01*
X0126435Y0180332D01*
X0126418Y0180283D01*
X0126398Y0180236D01*
X0126374Y0180191D01*
X0126346Y0180147D01*
X0126316Y0180105D01*
X0126282Y0180066D01*
X0126246Y0180030D01*
X0126207Y0179996D01*
X0126165Y0179966D01*
X0126122Y0179938D01*
X0126076Y0179914D01*
X0126029Y0179894D01*
X0125980Y0179877D01*
X0125930Y0179863D01*
X0125880Y0179854D01*
X0125828Y0179848D01*
X0125777Y0179846D01*
X0125777Y0179847D02*
X0124055Y0179847D01*
X0124055Y0179846D02*
X0124004Y0179848D01*
X0123952Y0179854D01*
X0123902Y0179863D01*
X0123852Y0179877D01*
X0123803Y0179894D01*
X0123756Y0179914D01*
X0123711Y0179938D01*
X0123667Y0179966D01*
X0123625Y0179996D01*
X0123586Y0180030D01*
X0123550Y0180066D01*
X0123516Y0180105D01*
X0123486Y0180147D01*
X0123458Y0180191D01*
X0123434Y0180236D01*
X0123414Y0180283D01*
X0123397Y0180332D01*
X0123383Y0180382D01*
X0123374Y0180432D01*
X0123368Y0180484D01*
X0123366Y0180535D01*
X0123366Y0181224D01*
X0123366Y0182866D02*
X0123366Y0183728D01*
X0123368Y0183786D01*
X0123374Y0183843D01*
X0123383Y0183899D01*
X0123397Y0183955D01*
X0123414Y0184010D01*
X0123434Y0184064D01*
X0123459Y0184116D01*
X0123486Y0184167D01*
X0123517Y0184215D01*
X0123551Y0184262D01*
X0123588Y0184306D01*
X0123628Y0184347D01*
X0123671Y0184386D01*
X0123716Y0184421D01*
X0123764Y0184454D01*
X0123813Y0184483D01*
X0123865Y0184509D01*
X0123918Y0184531D01*
X0123972Y0184550D01*
X0124027Y0184566D01*
X0124084Y0184577D01*
X0124141Y0184585D01*
X0124198Y0184589D01*
X0124256Y0184589D01*
X0124313Y0184585D01*
X0124370Y0184577D01*
X0124427Y0184566D01*
X0124482Y0184550D01*
X0124536Y0184531D01*
X0124589Y0184509D01*
X0124641Y0184483D01*
X0124690Y0184454D01*
X0124738Y0184421D01*
X0124783Y0184386D01*
X0124826Y0184347D01*
X0124866Y0184306D01*
X0124903Y0184262D01*
X0124937Y0184215D01*
X0124968Y0184167D01*
X0124995Y0184116D01*
X0125020Y0184064D01*
X0125040Y0184010D01*
X0125057Y0183955D01*
X0125071Y0183899D01*
X0125080Y0183843D01*
X0125086Y0183786D01*
X0125088Y0183728D01*
X0126466Y0178192D02*
X0126466Y0177503D01*
X0126466Y0177848D02*
X0123366Y0177848D01*
X0123366Y0178192D02*
X0123366Y0177503D01*
X0088341Y0200628D02*
X0088341Y0201489D01*
X0088341Y0200628D02*
X0085241Y0200628D01*
X0086619Y0200628D02*
X0086619Y0201489D01*
X0086619Y0201661D02*
X0085241Y0202350D01*
X0086619Y0201489D02*
X0086621Y0201547D01*
X0086627Y0201604D01*
X0086636Y0201660D01*
X0086650Y0201716D01*
X0086667Y0201771D01*
X0086687Y0201825D01*
X0086712Y0201877D01*
X0086739Y0201928D01*
X0086770Y0201976D01*
X0086804Y0202023D01*
X0086841Y0202067D01*
X0086881Y0202108D01*
X0086924Y0202147D01*
X0086969Y0202182D01*
X0087017Y0202215D01*
X0087066Y0202244D01*
X0087118Y0202270D01*
X0087171Y0202292D01*
X0087225Y0202311D01*
X0087280Y0202327D01*
X0087337Y0202338D01*
X0087394Y0202346D01*
X0087451Y0202350D01*
X0087509Y0202350D01*
X0087566Y0202346D01*
X0087623Y0202338D01*
X0087680Y0202327D01*
X0087735Y0202311D01*
X0087789Y0202292D01*
X0087842Y0202270D01*
X0087894Y0202244D01*
X0087943Y0202215D01*
X0087991Y0202182D01*
X0088036Y0202147D01*
X0088079Y0202108D01*
X0088119Y0202067D01*
X0088156Y0202023D01*
X0088190Y0201976D01*
X0088221Y0201928D01*
X0088248Y0201877D01*
X0088273Y0201825D01*
X0088293Y0201771D01*
X0088310Y0201716D01*
X0088324Y0201660D01*
X0088333Y0201604D01*
X0088339Y0201547D01*
X0088341Y0201489D01*
X0088341Y0204184D02*
X0088341Y0205906D01*
X0085241Y0205045D01*
X0087996Y0204184D02*
X0088341Y0204184D01*
D11*
X0171566Y0129060D02*
X0174816Y0129060D01*
X0174816Y0127976D01*
X0174814Y0127927D01*
X0174809Y0127879D01*
X0174800Y0127831D01*
X0174787Y0127784D01*
X0174771Y0127739D01*
X0174752Y0127694D01*
X0174729Y0127651D01*
X0174703Y0127610D01*
X0174674Y0127571D01*
X0174642Y0127534D01*
X0174608Y0127500D01*
X0174571Y0127468D01*
X0174532Y0127439D01*
X0174491Y0127413D01*
X0174448Y0127390D01*
X0174403Y0127371D01*
X0174358Y0127355D01*
X0174311Y0127342D01*
X0174263Y0127333D01*
X0174215Y0127328D01*
X0174166Y0127326D01*
X0172866Y0127326D01*
X0172817Y0127328D01*
X0172769Y0127333D01*
X0172721Y0127342D01*
X0172674Y0127355D01*
X0172629Y0127371D01*
X0172584Y0127390D01*
X0172541Y0127413D01*
X0172500Y0127439D01*
X0172461Y0127468D01*
X0172424Y0127500D01*
X0172390Y0127534D01*
X0172358Y0127571D01*
X0172329Y0127610D01*
X0172303Y0127651D01*
X0172280Y0127694D01*
X0172261Y0127739D01*
X0172245Y0127784D01*
X0172232Y0127831D01*
X0172223Y0127879D01*
X0172218Y0127927D01*
X0172216Y0127976D01*
X0172216Y0129060D01*
X0171566Y0129060D02*
X0171517Y0129058D01*
X0171469Y0129053D01*
X0171421Y0129044D01*
X0171374Y0129031D01*
X0171329Y0129015D01*
X0171284Y0128996D01*
X0171241Y0128973D01*
X0171200Y0128947D01*
X0171161Y0128918D01*
X0171124Y0128886D01*
X0171090Y0128852D01*
X0171058Y0128815D01*
X0171029Y0128776D01*
X0171003Y0128735D01*
X0170980Y0128692D01*
X0170961Y0128647D01*
X0170945Y0128602D01*
X0170932Y0128555D01*
X0170923Y0128507D01*
X0170918Y0128459D01*
X0170916Y0128410D01*
X0170916Y0127543D01*
X0172216Y0125053D02*
X0174166Y0125053D01*
X0174215Y0125051D01*
X0174263Y0125046D01*
X0174311Y0125037D01*
X0174358Y0125024D01*
X0174403Y0125008D01*
X0174448Y0124989D01*
X0174491Y0124966D01*
X0174532Y0124940D01*
X0174571Y0124911D01*
X0174608Y0124879D01*
X0174642Y0124845D01*
X0174674Y0124808D01*
X0174703Y0124769D01*
X0174729Y0124728D01*
X0174752Y0124685D01*
X0174771Y0124640D01*
X0174787Y0124595D01*
X0174800Y0124548D01*
X0174809Y0124500D01*
X0174814Y0124452D01*
X0174816Y0124403D01*
X0174816Y0123320D01*
X0172216Y0123320D01*
X0172216Y0121186D02*
X0174816Y0121186D01*
X0175899Y0121295D02*
X0175899Y0121078D01*
X0176116Y0121078D01*
X0176116Y0121295D01*
X0175899Y0121295D01*
X0177841Y0121252D02*
X0177841Y0121468D01*
X0177841Y0121252D02*
X0177843Y0121203D01*
X0177848Y0121155D01*
X0177857Y0121107D01*
X0177870Y0121060D01*
X0177886Y0121015D01*
X0177905Y0120970D01*
X0177928Y0120927D01*
X0177954Y0120886D01*
X0177983Y0120847D01*
X0178015Y0120810D01*
X0178049Y0120776D01*
X0178086Y0120744D01*
X0178125Y0120715D01*
X0178166Y0120689D01*
X0178209Y0120666D01*
X0178254Y0120647D01*
X0178299Y0120631D01*
X0178346Y0120618D01*
X0178394Y0120609D01*
X0178442Y0120604D01*
X0178491Y0120602D01*
X0181741Y0120602D01*
X0180441Y0120168D02*
X0180441Y0121468D01*
X0180441Y0118969D02*
X0180008Y0118969D01*
X0180441Y0118969D02*
X0180441Y0117669D01*
X0177841Y0117669D01*
X0172432Y0117470D02*
X0172396Y0117574D01*
X0172363Y0117680D01*
X0172334Y0117787D01*
X0172308Y0117894D01*
X0172285Y0118002D01*
X0172265Y0118111D01*
X0172248Y0118221D01*
X0172235Y0118330D01*
X0172225Y0118441D01*
X0172219Y0118551D01*
X0172215Y0118662D01*
X0172216Y0118661D02*
X0172217Y0118707D01*
X0172222Y0118752D01*
X0172231Y0118797D01*
X0172243Y0118842D01*
X0172259Y0118885D01*
X0172278Y0118926D01*
X0172301Y0118966D01*
X0172327Y0119004D01*
X0172356Y0119040D01*
X0172387Y0119073D01*
X0172421Y0119103D01*
X0172458Y0119131D01*
X0172497Y0119156D01*
X0172537Y0119177D01*
X0172580Y0119195D01*
X0172623Y0119209D01*
X0172668Y0119220D01*
X0172713Y0119227D01*
X0172759Y0119231D01*
X0172805Y0119230D01*
X0172850Y0119226D01*
X0172896Y0119219D01*
X0172940Y0119207D01*
X0172983Y0119192D01*
X0173025Y0119174D01*
X0173066Y0119152D01*
X0173104Y0119127D01*
X0173140Y0119099D01*
X0173174Y0119068D01*
X0173205Y0119034D01*
X0173234Y0118998D01*
X0173259Y0118960D01*
X0173281Y0118920D01*
X0173300Y0118878D01*
X0173299Y0118878D02*
X0173733Y0117795D01*
X0173732Y0117794D02*
X0173751Y0117752D01*
X0173773Y0117712D01*
X0173798Y0117674D01*
X0173827Y0117638D01*
X0173858Y0117604D01*
X0173892Y0117573D01*
X0173928Y0117545D01*
X0173966Y0117520D01*
X0174007Y0117498D01*
X0174049Y0117480D01*
X0174092Y0117465D01*
X0174136Y0117453D01*
X0174182Y0117446D01*
X0174227Y0117442D01*
X0174273Y0117441D01*
X0174319Y0117445D01*
X0174364Y0117452D01*
X0174409Y0117463D01*
X0174452Y0117477D01*
X0174495Y0117495D01*
X0174535Y0117516D01*
X0174574Y0117541D01*
X0174611Y0117569D01*
X0174645Y0117599D01*
X0174676Y0117632D01*
X0174705Y0117668D01*
X0174731Y0117706D01*
X0174754Y0117746D01*
X0174773Y0117787D01*
X0174789Y0117830D01*
X0174801Y0117875D01*
X0174810Y0117920D01*
X0174815Y0117965D01*
X0174816Y0118011D01*
X0174813Y0118103D01*
X0174806Y0118194D01*
X0174797Y0118285D01*
X0174783Y0118375D01*
X0174767Y0118465D01*
X0174747Y0118554D01*
X0174724Y0118643D01*
X0174698Y0118730D01*
X0174668Y0118817D01*
X0174635Y0118902D01*
X0174599Y0118986D01*
X0174166Y0115153D02*
X0172216Y0115153D01*
X0172216Y0113420D02*
X0174816Y0113420D01*
X0174816Y0114503D01*
X0174814Y0114552D01*
X0174809Y0114600D01*
X0174800Y0114648D01*
X0174787Y0114695D01*
X0174771Y0114740D01*
X0174752Y0114785D01*
X0174729Y0114828D01*
X0174703Y0114869D01*
X0174674Y0114908D01*
X0174642Y0114945D01*
X0174608Y0114979D01*
X0174571Y0115011D01*
X0174532Y0115040D01*
X0174491Y0115066D01*
X0174448Y0115089D01*
X0174403Y0115108D01*
X0174358Y0115124D01*
X0174311Y0115137D01*
X0174263Y0115146D01*
X0174215Y0115151D01*
X0174166Y0115153D01*
X0173949Y0111103D02*
X0173516Y0111103D01*
X0173516Y0109370D01*
X0173949Y0109370D02*
X0172866Y0109370D01*
X0172817Y0109372D01*
X0172769Y0109377D01*
X0172721Y0109386D01*
X0172674Y0109399D01*
X0172629Y0109415D01*
X0172584Y0109434D01*
X0172541Y0109457D01*
X0172500Y0109483D01*
X0172461Y0109512D01*
X0172424Y0109544D01*
X0172390Y0109578D01*
X0172358Y0109615D01*
X0172329Y0109654D01*
X0172303Y0109695D01*
X0172280Y0109738D01*
X0172261Y0109783D01*
X0172245Y0109828D01*
X0172232Y0109875D01*
X0172223Y0109923D01*
X0172218Y0109971D01*
X0172216Y0110020D01*
X0172216Y0111103D01*
X0173949Y0111103D02*
X0174007Y0111101D01*
X0174065Y0111095D01*
X0174122Y0111086D01*
X0174178Y0111072D01*
X0174233Y0111055D01*
X0174287Y0111034D01*
X0174340Y0111010D01*
X0174391Y0110982D01*
X0174440Y0110951D01*
X0174486Y0110916D01*
X0174531Y0110879D01*
X0174572Y0110839D01*
X0174611Y0110796D01*
X0174647Y0110750D01*
X0174680Y0110703D01*
X0174709Y0110653D01*
X0174735Y0110601D01*
X0174758Y0110548D01*
X0174777Y0110493D01*
X0174792Y0110437D01*
X0174804Y0110380D01*
X0174812Y0110323D01*
X0174816Y0110265D01*
X0174816Y0110207D01*
X0174812Y0110149D01*
X0174804Y0110092D01*
X0174792Y0110035D01*
X0174777Y0109979D01*
X0174758Y0109924D01*
X0174735Y0109871D01*
X0174709Y0109819D01*
X0174680Y0109769D01*
X0174647Y0109722D01*
X0174611Y0109676D01*
X0174572Y0109633D01*
X0174531Y0109593D01*
X0174486Y0109556D01*
X0174440Y0109521D01*
X0174391Y0109490D01*
X0174340Y0109462D01*
X0174287Y0109438D01*
X0174233Y0109417D01*
X0174178Y0109400D01*
X0174122Y0109386D01*
X0174065Y0109377D01*
X0174007Y0109371D01*
X0173949Y0109369D01*
X0173841Y0106836D02*
X0174491Y0105645D01*
X0176116Y0106078D02*
X0176114Y0106153D01*
X0176109Y0106227D01*
X0176101Y0106301D01*
X0176089Y0106375D01*
X0176073Y0106448D01*
X0176055Y0106520D01*
X0176033Y0106592D01*
X0176007Y0106662D01*
X0175979Y0106731D01*
X0175947Y0106799D01*
X0175913Y0106865D01*
X0175875Y0106930D01*
X0175834Y0106992D01*
X0175791Y0107053D01*
X0174491Y0105645D02*
X0174521Y0105597D01*
X0174555Y0105551D01*
X0174592Y0105507D01*
X0174631Y0105466D01*
X0174673Y0105427D01*
X0174717Y0105391D01*
X0174764Y0105358D01*
X0174812Y0105328D01*
X0174863Y0105301D01*
X0174915Y0105278D01*
X0174968Y0105258D01*
X0175023Y0105241D01*
X0175079Y0105229D01*
X0175135Y0105219D01*
X0175192Y0105214D01*
X0175249Y0105212D01*
X0175249Y0105211D02*
X0175306Y0105213D01*
X0175362Y0105218D01*
X0175418Y0105228D01*
X0175473Y0105241D01*
X0175528Y0105257D01*
X0175581Y0105277D01*
X0175632Y0105300D01*
X0175683Y0105327D01*
X0175731Y0105357D01*
X0175777Y0105390D01*
X0175821Y0105426D01*
X0175862Y0105465D01*
X0175901Y0105506D01*
X0175937Y0105550D01*
X0175970Y0105596D01*
X0176000Y0105645D01*
X0176027Y0105695D01*
X0176050Y0105746D01*
X0176070Y0105799D01*
X0176086Y0105854D01*
X0176099Y0105909D01*
X0176109Y0105965D01*
X0176114Y0106021D01*
X0176116Y0106078D01*
X0172758Y0105103D02*
X0172699Y0105164D01*
X0172643Y0105228D01*
X0172590Y0105295D01*
X0172540Y0105363D01*
X0172493Y0105435D01*
X0172450Y0105508D01*
X0172410Y0105583D01*
X0172374Y0105660D01*
X0172341Y0105738D01*
X0172312Y0105818D01*
X0172287Y0105899D01*
X0172265Y0105982D01*
X0172248Y0106065D01*
X0172234Y0106149D01*
X0172224Y0106233D01*
X0172218Y0106318D01*
X0172216Y0106403D01*
X0172218Y0106460D01*
X0172223Y0106516D01*
X0172233Y0106572D01*
X0172246Y0106627D01*
X0172262Y0106682D01*
X0172282Y0106735D01*
X0172305Y0106786D01*
X0172332Y0106837D01*
X0172362Y0106885D01*
X0172395Y0106931D01*
X0172431Y0106975D01*
X0172470Y0107016D01*
X0172511Y0107055D01*
X0172555Y0107091D01*
X0172601Y0107124D01*
X0172650Y0107154D01*
X0172700Y0107181D01*
X0172751Y0107204D01*
X0172804Y0107224D01*
X0172859Y0107240D01*
X0172914Y0107253D01*
X0172970Y0107263D01*
X0173026Y0107268D01*
X0173083Y0107270D01*
X0173140Y0107268D01*
X0173197Y0107263D01*
X0173253Y0107253D01*
X0173309Y0107241D01*
X0173364Y0107224D01*
X0173417Y0107204D01*
X0173469Y0107181D01*
X0173520Y0107154D01*
X0173568Y0107124D01*
X0173615Y0107091D01*
X0173659Y0107055D01*
X0173701Y0107016D01*
X0173740Y0106975D01*
X0173777Y0106931D01*
X0173811Y0106885D01*
X0173841Y0106837D01*
X0177841Y0109520D02*
X0181741Y0109520D01*
X0180441Y0109520D02*
X0180441Y0110603D01*
X0180439Y0110652D01*
X0180434Y0110700D01*
X0180425Y0110748D01*
X0180412Y0110795D01*
X0180396Y0110840D01*
X0180377Y0110885D01*
X0180354Y0110928D01*
X0180328Y0110969D01*
X0180299Y0111008D01*
X0180267Y0111045D01*
X0180233Y0111079D01*
X0180196Y0111111D01*
X0180157Y0111140D01*
X0180116Y0111166D01*
X0180073Y0111189D01*
X0180028Y0111208D01*
X0179983Y0111224D01*
X0179936Y0111237D01*
X0179888Y0111246D01*
X0179840Y0111251D01*
X0179791Y0111253D01*
X0177841Y0111253D01*
X0178708Y0113570D02*
X0179574Y0113570D01*
X0179574Y0113569D02*
X0179632Y0113571D01*
X0179690Y0113577D01*
X0179747Y0113586D01*
X0179803Y0113600D01*
X0179858Y0113617D01*
X0179912Y0113638D01*
X0179965Y0113662D01*
X0180016Y0113690D01*
X0180065Y0113721D01*
X0180111Y0113756D01*
X0180156Y0113793D01*
X0180197Y0113833D01*
X0180236Y0113876D01*
X0180272Y0113922D01*
X0180305Y0113969D01*
X0180334Y0114019D01*
X0180360Y0114071D01*
X0180383Y0114124D01*
X0180402Y0114179D01*
X0180417Y0114235D01*
X0180429Y0114292D01*
X0180437Y0114349D01*
X0180441Y0114407D01*
X0180441Y0114465D01*
X0180437Y0114523D01*
X0180429Y0114580D01*
X0180417Y0114637D01*
X0180402Y0114693D01*
X0180383Y0114748D01*
X0180360Y0114801D01*
X0180334Y0114853D01*
X0180305Y0114903D01*
X0180272Y0114950D01*
X0180236Y0114996D01*
X0180197Y0115039D01*
X0180156Y0115079D01*
X0180111Y0115116D01*
X0180065Y0115151D01*
X0180016Y0115182D01*
X0179965Y0115210D01*
X0179912Y0115234D01*
X0179858Y0115255D01*
X0179803Y0115272D01*
X0179747Y0115286D01*
X0179690Y0115295D01*
X0179632Y0115301D01*
X0179574Y0115303D01*
X0178708Y0115303D01*
X0178650Y0115301D01*
X0178592Y0115295D01*
X0178535Y0115286D01*
X0178479Y0115272D01*
X0178424Y0115255D01*
X0178370Y0115234D01*
X0178317Y0115210D01*
X0178266Y0115182D01*
X0178217Y0115151D01*
X0178171Y0115116D01*
X0178126Y0115079D01*
X0178085Y0115039D01*
X0178046Y0114996D01*
X0178010Y0114950D01*
X0177977Y0114903D01*
X0177948Y0114853D01*
X0177922Y0114801D01*
X0177899Y0114748D01*
X0177880Y0114693D01*
X0177865Y0114637D01*
X0177853Y0114580D01*
X0177845Y0114523D01*
X0177841Y0114465D01*
X0177841Y0114407D01*
X0177845Y0114349D01*
X0177853Y0114292D01*
X0177865Y0114235D01*
X0177880Y0114179D01*
X0177899Y0114124D01*
X0177922Y0114071D01*
X0177948Y0114019D01*
X0177977Y0113969D01*
X0178010Y0113922D01*
X0178046Y0113876D01*
X0178085Y0113833D01*
X0178126Y0113793D01*
X0178171Y0113756D01*
X0178217Y0113721D01*
X0178266Y0113690D01*
X0178317Y0113662D01*
X0178370Y0113638D01*
X0178424Y0113617D01*
X0178479Y0113600D01*
X0178535Y0113586D01*
X0178592Y0113577D01*
X0178650Y0113571D01*
X0178708Y0113569D01*
X0179466Y0106836D02*
X0180116Y0105645D01*
X0181741Y0106078D02*
X0181739Y0106153D01*
X0181734Y0106227D01*
X0181726Y0106301D01*
X0181714Y0106375D01*
X0181698Y0106448D01*
X0181680Y0106520D01*
X0181658Y0106592D01*
X0181632Y0106662D01*
X0181604Y0106731D01*
X0181572Y0106799D01*
X0181538Y0106865D01*
X0181500Y0106930D01*
X0181459Y0106992D01*
X0181416Y0107053D01*
X0180116Y0105645D02*
X0180146Y0105597D01*
X0180180Y0105551D01*
X0180217Y0105507D01*
X0180256Y0105466D01*
X0180298Y0105427D01*
X0180342Y0105391D01*
X0180389Y0105358D01*
X0180437Y0105328D01*
X0180488Y0105301D01*
X0180540Y0105278D01*
X0180593Y0105258D01*
X0180648Y0105241D01*
X0180704Y0105229D01*
X0180760Y0105219D01*
X0180817Y0105214D01*
X0180874Y0105212D01*
X0180874Y0105211D02*
X0180931Y0105213D01*
X0180987Y0105218D01*
X0181043Y0105228D01*
X0181098Y0105241D01*
X0181153Y0105257D01*
X0181206Y0105277D01*
X0181257Y0105300D01*
X0181308Y0105327D01*
X0181356Y0105357D01*
X0181402Y0105390D01*
X0181446Y0105426D01*
X0181487Y0105465D01*
X0181526Y0105506D01*
X0181562Y0105550D01*
X0181595Y0105596D01*
X0181625Y0105645D01*
X0181652Y0105695D01*
X0181675Y0105746D01*
X0181695Y0105799D01*
X0181711Y0105854D01*
X0181724Y0105909D01*
X0181734Y0105965D01*
X0181739Y0106021D01*
X0181741Y0106078D01*
X0178383Y0105103D02*
X0178324Y0105164D01*
X0178268Y0105228D01*
X0178215Y0105295D01*
X0178165Y0105363D01*
X0178118Y0105435D01*
X0178075Y0105508D01*
X0178035Y0105583D01*
X0177999Y0105660D01*
X0177966Y0105738D01*
X0177937Y0105818D01*
X0177912Y0105899D01*
X0177890Y0105982D01*
X0177873Y0106065D01*
X0177859Y0106149D01*
X0177849Y0106233D01*
X0177843Y0106318D01*
X0177841Y0106403D01*
X0177843Y0106460D01*
X0177848Y0106516D01*
X0177858Y0106572D01*
X0177871Y0106627D01*
X0177887Y0106682D01*
X0177907Y0106735D01*
X0177930Y0106786D01*
X0177957Y0106837D01*
X0177987Y0106885D01*
X0178020Y0106931D01*
X0178056Y0106975D01*
X0178095Y0107016D01*
X0178136Y0107055D01*
X0178180Y0107091D01*
X0178226Y0107124D01*
X0178275Y0107154D01*
X0178325Y0107181D01*
X0178376Y0107204D01*
X0178429Y0107224D01*
X0178484Y0107240D01*
X0178539Y0107253D01*
X0178595Y0107263D01*
X0178651Y0107268D01*
X0178708Y0107270D01*
X0178765Y0107268D01*
X0178822Y0107263D01*
X0178878Y0107253D01*
X0178934Y0107241D01*
X0178989Y0107224D01*
X0179042Y0107204D01*
X0179094Y0107181D01*
X0179145Y0107154D01*
X0179193Y0107124D01*
X0179240Y0107091D01*
X0179284Y0107055D01*
X0179326Y0107016D01*
X0179365Y0106975D01*
X0179402Y0106931D01*
X0179436Y0106885D01*
X0179466Y0106837D01*
X0164241Y0072753D02*
X0163158Y0072753D01*
X0164241Y0072753D02*
X0164241Y0068853D01*
X0164241Y0070586D02*
X0163158Y0070586D01*
X0162941Y0070586D02*
X0162074Y0068853D01*
X0159164Y0068853D02*
X0158189Y0068853D01*
X0158189Y0070803D01*
X0158189Y0070370D02*
X0159164Y0070370D01*
X0158189Y0070803D02*
X0158191Y0070852D01*
X0158196Y0070900D01*
X0158205Y0070948D01*
X0158218Y0070995D01*
X0158234Y0071040D01*
X0158253Y0071085D01*
X0158276Y0071128D01*
X0158302Y0071169D01*
X0158331Y0071208D01*
X0158363Y0071245D01*
X0158397Y0071279D01*
X0158434Y0071311D01*
X0158473Y0071340D01*
X0158514Y0071366D01*
X0158557Y0071389D01*
X0158602Y0071408D01*
X0158647Y0071424D01*
X0158694Y0071437D01*
X0158742Y0071446D01*
X0158790Y0071451D01*
X0158839Y0071453D01*
X0159705Y0071453D01*
X0159164Y0070369D02*
X0159218Y0070367D01*
X0159272Y0070361D01*
X0159325Y0070352D01*
X0159378Y0070338D01*
X0159429Y0070321D01*
X0159479Y0070301D01*
X0159527Y0070276D01*
X0159574Y0070249D01*
X0159618Y0070218D01*
X0159660Y0070184D01*
X0159700Y0070147D01*
X0159737Y0070107D01*
X0159771Y0070065D01*
X0159802Y0070021D01*
X0159829Y0069974D01*
X0159854Y0069926D01*
X0159874Y0069876D01*
X0159891Y0069825D01*
X0159905Y0069772D01*
X0159914Y0069719D01*
X0159920Y0069665D01*
X0159922Y0069611D01*
X0159920Y0069557D01*
X0159914Y0069503D01*
X0159905Y0069450D01*
X0159891Y0069397D01*
X0159874Y0069346D01*
X0159854Y0069296D01*
X0159829Y0069248D01*
X0159802Y0069201D01*
X0159771Y0069157D01*
X0159737Y0069115D01*
X0159700Y0069075D01*
X0159660Y0069038D01*
X0159618Y0069004D01*
X0159574Y0068973D01*
X0159527Y0068946D01*
X0159479Y0068921D01*
X0159429Y0068901D01*
X0159378Y0068884D01*
X0159325Y0068870D01*
X0159272Y0068861D01*
X0159218Y0068855D01*
X0159164Y0068853D01*
X0155872Y0069503D02*
X0155872Y0070803D01*
X0155870Y0070852D01*
X0155865Y0070900D01*
X0155856Y0070948D01*
X0155843Y0070995D01*
X0155827Y0071040D01*
X0155808Y0071085D01*
X0155785Y0071128D01*
X0155759Y0071169D01*
X0155730Y0071208D01*
X0155698Y0071245D01*
X0155664Y0071279D01*
X0155627Y0071311D01*
X0155588Y0071340D01*
X0155547Y0071366D01*
X0155504Y0071389D01*
X0155459Y0071408D01*
X0155414Y0071424D01*
X0155367Y0071437D01*
X0155319Y0071446D01*
X0155271Y0071451D01*
X0155222Y0071453D01*
X0154139Y0071453D01*
X0154139Y0072753D02*
X0154139Y0068853D01*
X0155222Y0068853D01*
X0155271Y0068855D01*
X0155319Y0068860D01*
X0155367Y0068869D01*
X0155414Y0068882D01*
X0155459Y0068898D01*
X0155504Y0068917D01*
X0155547Y0068940D01*
X0155588Y0068966D01*
X0155627Y0068995D01*
X0155664Y0069027D01*
X0155698Y0069061D01*
X0155730Y0069098D01*
X0155759Y0069137D01*
X0155785Y0069178D01*
X0155808Y0069221D01*
X0155827Y0069266D01*
X0155843Y0069311D01*
X0155856Y0069358D01*
X0155865Y0069406D01*
X0155870Y0069454D01*
X0155872Y0069503D01*
X0152758Y0067553D02*
X0152709Y0067555D01*
X0152661Y0067560D01*
X0152613Y0067569D01*
X0152566Y0067582D01*
X0152521Y0067598D01*
X0152476Y0067617D01*
X0152433Y0067640D01*
X0152392Y0067666D01*
X0152353Y0067695D01*
X0152316Y0067727D01*
X0152282Y0067761D01*
X0152250Y0067798D01*
X0152221Y0067837D01*
X0152195Y0067878D01*
X0152172Y0067921D01*
X0152153Y0067966D01*
X0152137Y0068011D01*
X0152124Y0068058D01*
X0152115Y0068106D01*
X0152110Y0068154D01*
X0152108Y0068203D01*
X0152108Y0071453D01*
X0151999Y0072536D02*
X0152216Y0072536D01*
X0152216Y0072753D01*
X0151999Y0072753D01*
X0151999Y0072536D01*
X0152758Y0067553D02*
X0152974Y0067553D01*
X0163158Y0070587D02*
X0163094Y0070589D01*
X0163030Y0070595D01*
X0162966Y0070604D01*
X0162904Y0070617D01*
X0162842Y0070634D01*
X0162781Y0070655D01*
X0162721Y0070679D01*
X0162663Y0070707D01*
X0162607Y0070737D01*
X0162553Y0070772D01*
X0162501Y0070809D01*
X0162451Y0070850D01*
X0162404Y0070893D01*
X0162359Y0070939D01*
X0162317Y0070988D01*
X0162278Y0071039D01*
X0162242Y0071092D01*
X0162210Y0071147D01*
X0162180Y0071204D01*
X0162154Y0071263D01*
X0162132Y0071323D01*
X0162113Y0071385D01*
X0162098Y0071447D01*
X0162087Y0071510D01*
X0162079Y0071574D01*
X0162075Y0071638D01*
X0162075Y0071702D01*
X0162079Y0071766D01*
X0162087Y0071830D01*
X0162098Y0071893D01*
X0162113Y0071955D01*
X0162132Y0072017D01*
X0162154Y0072077D01*
X0162180Y0072136D01*
X0162210Y0072193D01*
X0162242Y0072248D01*
X0162278Y0072301D01*
X0162317Y0072352D01*
X0162359Y0072401D01*
X0162404Y0072447D01*
X0162451Y0072490D01*
X0162501Y0072531D01*
X0162553Y0072568D01*
X0162607Y0072603D01*
X0162663Y0072633D01*
X0162721Y0072661D01*
X0162781Y0072685D01*
X0162842Y0072706D01*
X0162904Y0072723D01*
X0162966Y0072736D01*
X0163030Y0072745D01*
X0163094Y0072751D01*
X0163158Y0072753D01*
D12*
X0163666Y0074553D02*
X0168541Y0074553D01*
X0168541Y0079725D01*
X0168541Y0083662D02*
X0168541Y0088835D01*
X0168541Y0092772D02*
X0168541Y0097944D01*
X0168541Y0101881D02*
X0168541Y0107053D01*
X0163666Y0107053D01*
X0159729Y0107053D02*
X0154853Y0107053D01*
X0150916Y0107053D02*
X0146041Y0107053D01*
X0146041Y0101881D01*
X0146041Y0097944D02*
X0146041Y0092772D01*
X0146041Y0088835D02*
X0146041Y0083662D01*
X0146041Y0079725D02*
X0146041Y0074553D01*
X0150916Y0074553D01*
X0154853Y0074553D02*
X0159729Y0074553D01*
X0183541Y0105178D02*
X0194791Y0105178D01*
X0202916Y0113303D01*
X0216041Y0108928D02*
X0230416Y0091428D01*
X0239166Y0103928D02*
X0224166Y0108928D01*
X0214166Y0090178D02*
X0214168Y0090228D01*
X0214174Y0090277D01*
X0214184Y0090326D01*
X0214197Y0090373D01*
X0214215Y0090420D01*
X0214236Y0090465D01*
X0214260Y0090508D01*
X0214288Y0090549D01*
X0214319Y0090588D01*
X0214353Y0090624D01*
X0214390Y0090658D01*
X0214430Y0090688D01*
X0214471Y0090715D01*
X0214515Y0090739D01*
X0214560Y0090759D01*
X0214607Y0090775D01*
X0214655Y0090788D01*
X0214704Y0090797D01*
X0214754Y0090802D01*
X0214803Y0090803D01*
X0214853Y0090800D01*
X0214902Y0090793D01*
X0214951Y0090782D01*
X0214998Y0090768D01*
X0215044Y0090749D01*
X0215089Y0090727D01*
X0215132Y0090702D01*
X0215172Y0090673D01*
X0215210Y0090641D01*
X0215246Y0090607D01*
X0215279Y0090569D01*
X0215308Y0090529D01*
X0215334Y0090487D01*
X0215357Y0090443D01*
X0215376Y0090397D01*
X0215392Y0090350D01*
X0215404Y0090301D01*
X0215412Y0090252D01*
X0215416Y0090203D01*
X0215416Y0090153D01*
X0215412Y0090104D01*
X0215404Y0090055D01*
X0215392Y0090006D01*
X0215376Y0089959D01*
X0215357Y0089913D01*
X0215334Y0089869D01*
X0215308Y0089827D01*
X0215279Y0089787D01*
X0215246Y0089749D01*
X0215210Y0089715D01*
X0215172Y0089683D01*
X0215132Y0089654D01*
X0215089Y0089629D01*
X0215044Y0089607D01*
X0214998Y0089588D01*
X0214951Y0089574D01*
X0214902Y0089563D01*
X0214853Y0089556D01*
X0214803Y0089553D01*
X0214754Y0089554D01*
X0214704Y0089559D01*
X0214655Y0089568D01*
X0214607Y0089581D01*
X0214560Y0089597D01*
X0214515Y0089617D01*
X0214471Y0089641D01*
X0214430Y0089668D01*
X0214390Y0089698D01*
X0214353Y0089732D01*
X0214319Y0089768D01*
X0214288Y0089807D01*
X0214260Y0089848D01*
X0214236Y0089891D01*
X0214215Y0089936D01*
X0214197Y0089983D01*
X0214184Y0090030D01*
X0214174Y0090079D01*
X0214168Y0090128D01*
X0214166Y0090178D01*
D13*
X0212744Y0099036D02*
X0223000Y0099036D01*
X0223000Y0071320D01*
X0196582Y0071320D01*
X0196582Y0099036D01*
X0206838Y0099036D01*
X0196582Y0099036D02*
X0223000Y0099036D01*
X0223000Y0071320D01*
X0216681Y0071320D02*
X0202901Y0071320D01*
X0196582Y0071320D02*
X0196582Y0099036D01*
X0212522Y0119553D02*
X0212524Y0119592D01*
X0212530Y0119631D01*
X0212540Y0119669D01*
X0212553Y0119706D01*
X0212570Y0119741D01*
X0212590Y0119775D01*
X0212614Y0119806D01*
X0212641Y0119835D01*
X0212670Y0119861D01*
X0212702Y0119884D01*
X0212736Y0119904D01*
X0212772Y0119920D01*
X0212809Y0119932D01*
X0212848Y0119941D01*
X0212887Y0119946D01*
X0212926Y0119947D01*
X0212965Y0119944D01*
X0213004Y0119937D01*
X0213041Y0119926D01*
X0213078Y0119912D01*
X0213113Y0119894D01*
X0213146Y0119873D01*
X0213177Y0119848D01*
X0213205Y0119821D01*
X0213230Y0119791D01*
X0213252Y0119758D01*
X0213271Y0119724D01*
X0213286Y0119688D01*
X0213298Y0119650D01*
X0213306Y0119612D01*
X0213310Y0119573D01*
X0213310Y0119533D01*
X0213306Y0119494D01*
X0213298Y0119456D01*
X0213286Y0119418D01*
X0213271Y0119382D01*
X0213252Y0119348D01*
X0213230Y0119315D01*
X0213205Y0119285D01*
X0213177Y0119258D01*
X0213146Y0119233D01*
X0213113Y0119212D01*
X0213078Y0119194D01*
X0213041Y0119180D01*
X0213004Y0119169D01*
X0212965Y0119162D01*
X0212926Y0119159D01*
X0212887Y0119160D01*
X0212848Y0119165D01*
X0212809Y0119174D01*
X0212772Y0119186D01*
X0212736Y0119202D01*
X0212702Y0119222D01*
X0212670Y0119245D01*
X0212641Y0119271D01*
X0212614Y0119300D01*
X0212590Y0119331D01*
X0212570Y0119365D01*
X0212553Y0119400D01*
X0212540Y0119437D01*
X0212530Y0119475D01*
X0212524Y0119514D01*
X0212522Y0119553D01*
X0220022Y0119553D02*
X0220024Y0119592D01*
X0220030Y0119631D01*
X0220040Y0119669D01*
X0220053Y0119706D01*
X0220070Y0119741D01*
X0220090Y0119775D01*
X0220114Y0119806D01*
X0220141Y0119835D01*
X0220170Y0119861D01*
X0220202Y0119884D01*
X0220236Y0119904D01*
X0220272Y0119920D01*
X0220309Y0119932D01*
X0220348Y0119941D01*
X0220387Y0119946D01*
X0220426Y0119947D01*
X0220465Y0119944D01*
X0220504Y0119937D01*
X0220541Y0119926D01*
X0220578Y0119912D01*
X0220613Y0119894D01*
X0220646Y0119873D01*
X0220677Y0119848D01*
X0220705Y0119821D01*
X0220730Y0119791D01*
X0220752Y0119758D01*
X0220771Y0119724D01*
X0220786Y0119688D01*
X0220798Y0119650D01*
X0220806Y0119612D01*
X0220810Y0119573D01*
X0220810Y0119533D01*
X0220806Y0119494D01*
X0220798Y0119456D01*
X0220786Y0119418D01*
X0220771Y0119382D01*
X0220752Y0119348D01*
X0220730Y0119315D01*
X0220705Y0119285D01*
X0220677Y0119258D01*
X0220646Y0119233D01*
X0220613Y0119212D01*
X0220578Y0119194D01*
X0220541Y0119180D01*
X0220504Y0119169D01*
X0220465Y0119162D01*
X0220426Y0119159D01*
X0220387Y0119160D01*
X0220348Y0119165D01*
X0220309Y0119174D01*
X0220272Y0119186D01*
X0220236Y0119202D01*
X0220202Y0119222D01*
X0220170Y0119245D01*
X0220141Y0119271D01*
X0220114Y0119300D01*
X0220090Y0119331D01*
X0220070Y0119365D01*
X0220053Y0119400D01*
X0220040Y0119437D01*
X0220030Y0119475D01*
X0220024Y0119514D01*
X0220022Y0119553D01*
X0127522Y0117053D02*
X0127524Y0117092D01*
X0127530Y0117131D01*
X0127540Y0117169D01*
X0127553Y0117206D01*
X0127570Y0117241D01*
X0127590Y0117275D01*
X0127614Y0117306D01*
X0127641Y0117335D01*
X0127670Y0117361D01*
X0127702Y0117384D01*
X0127736Y0117404D01*
X0127772Y0117420D01*
X0127809Y0117432D01*
X0127848Y0117441D01*
X0127887Y0117446D01*
X0127926Y0117447D01*
X0127965Y0117444D01*
X0128004Y0117437D01*
X0128041Y0117426D01*
X0128078Y0117412D01*
X0128113Y0117394D01*
X0128146Y0117373D01*
X0128177Y0117348D01*
X0128205Y0117321D01*
X0128230Y0117291D01*
X0128252Y0117258D01*
X0128271Y0117224D01*
X0128286Y0117188D01*
X0128298Y0117150D01*
X0128306Y0117112D01*
X0128310Y0117073D01*
X0128310Y0117033D01*
X0128306Y0116994D01*
X0128298Y0116956D01*
X0128286Y0116918D01*
X0128271Y0116882D01*
X0128252Y0116848D01*
X0128230Y0116815D01*
X0128205Y0116785D01*
X0128177Y0116758D01*
X0128146Y0116733D01*
X0128113Y0116712D01*
X0128078Y0116694D01*
X0128041Y0116680D01*
X0128004Y0116669D01*
X0127965Y0116662D01*
X0127926Y0116659D01*
X0127887Y0116660D01*
X0127848Y0116665D01*
X0127809Y0116674D01*
X0127772Y0116686D01*
X0127736Y0116702D01*
X0127702Y0116722D01*
X0127670Y0116745D01*
X0127641Y0116771D01*
X0127614Y0116800D01*
X0127590Y0116831D01*
X0127570Y0116865D01*
X0127553Y0116900D01*
X0127540Y0116937D01*
X0127530Y0116975D01*
X0127524Y0117014D01*
X0127522Y0117053D01*
D14*
X0125947Y0112526D02*
X0129884Y0112526D01*
X0129884Y0121581D01*
X0125947Y0121581D01*
X0125947Y0112526D01*
X0147822Y0105134D02*
X0147822Y0096472D01*
X0151759Y0096472D01*
X0151759Y0105134D01*
X0147822Y0105134D01*
X0152960Y0097772D02*
X0152960Y0093835D01*
X0161622Y0093835D01*
X0161622Y0097772D01*
X0152960Y0097772D01*
X0151759Y0095134D02*
X0147822Y0095134D01*
X0147822Y0086472D01*
X0151759Y0086472D01*
X0151759Y0095134D01*
X0152960Y0087772D02*
X0152960Y0083835D01*
X0161622Y0083835D01*
X0161622Y0087772D01*
X0152960Y0087772D01*
X0151759Y0085134D02*
X0147822Y0085134D01*
X0147822Y0076472D01*
X0151759Y0076472D01*
X0151759Y0085134D01*
X0162822Y0085134D02*
X0162822Y0076472D01*
X0166759Y0076472D01*
X0166759Y0085134D01*
X0162822Y0085134D01*
X0162822Y0086472D02*
X0166759Y0086472D01*
X0166759Y0095134D01*
X0162822Y0095134D01*
X0162822Y0086472D01*
X0170460Y0079647D02*
X0170460Y0075710D01*
X0179122Y0075710D01*
X0179122Y0079647D01*
X0170460Y0079647D01*
X0166759Y0096472D02*
X0162822Y0096472D01*
X0162822Y0105134D01*
X0166759Y0105134D01*
X0166759Y0096472D01*
X0129884Y0087634D02*
X0129884Y0078972D01*
X0125947Y0078972D01*
X0125947Y0087634D01*
X0129884Y0087634D01*
X0200947Y0115222D02*
X0204884Y0115222D01*
X0204884Y0123884D01*
X0200947Y0123884D01*
X0200947Y0115222D01*
X0210947Y0115026D02*
X0214884Y0115026D01*
X0214884Y0124081D01*
X0210947Y0124081D01*
X0210947Y0115026D01*
X0218447Y0115026D02*
X0222384Y0115026D01*
X0222384Y0124081D01*
X0218447Y0124081D01*
X0218447Y0115026D01*
X0199791Y0085178D02*
X0199794Y0085423D01*
X0199803Y0085669D01*
X0199818Y0085914D01*
X0199839Y0086158D01*
X0199866Y0086402D01*
X0199899Y0086645D01*
X0199938Y0086888D01*
X0199983Y0087129D01*
X0200034Y0087369D01*
X0200091Y0087608D01*
X0200153Y0087845D01*
X0200222Y0088081D01*
X0200296Y0088315D01*
X0200376Y0088547D01*
X0200461Y0088777D01*
X0200552Y0089005D01*
X0200649Y0089230D01*
X0200751Y0089454D01*
X0200859Y0089674D01*
X0200972Y0089892D01*
X0201090Y0090107D01*
X0201214Y0090319D01*
X0201342Y0090528D01*
X0201476Y0090734D01*
X0201615Y0090936D01*
X0201759Y0091135D01*
X0201908Y0091330D01*
X0202061Y0091522D01*
X0202219Y0091710D01*
X0202381Y0091894D01*
X0202549Y0092073D01*
X0202720Y0092249D01*
X0202896Y0092420D01*
X0203075Y0092588D01*
X0203259Y0092750D01*
X0203447Y0092908D01*
X0203639Y0093061D01*
X0203834Y0093210D01*
X0204033Y0093354D01*
X0204235Y0093493D01*
X0204441Y0093627D01*
X0204650Y0093755D01*
X0204862Y0093879D01*
X0205077Y0093997D01*
X0205295Y0094110D01*
X0205515Y0094218D01*
X0205739Y0094320D01*
X0205964Y0094417D01*
X0206192Y0094508D01*
X0206422Y0094593D01*
X0206654Y0094673D01*
X0206888Y0094747D01*
X0207124Y0094816D01*
X0207361Y0094878D01*
X0207600Y0094935D01*
X0207840Y0094986D01*
X0208081Y0095031D01*
X0208324Y0095070D01*
X0208567Y0095103D01*
X0208811Y0095130D01*
X0209055Y0095151D01*
X0209300Y0095166D01*
X0209546Y0095175D01*
X0209791Y0095178D01*
X0210036Y0095175D01*
X0210282Y0095166D01*
X0210527Y0095151D01*
X0210771Y0095130D01*
X0211015Y0095103D01*
X0211258Y0095070D01*
X0211501Y0095031D01*
X0211742Y0094986D01*
X0211982Y0094935D01*
X0212221Y0094878D01*
X0212458Y0094816D01*
X0212694Y0094747D01*
X0212928Y0094673D01*
X0213160Y0094593D01*
X0213390Y0094508D01*
X0213618Y0094417D01*
X0213843Y0094320D01*
X0214067Y0094218D01*
X0214287Y0094110D01*
X0214505Y0093997D01*
X0214720Y0093879D01*
X0214932Y0093755D01*
X0215141Y0093627D01*
X0215347Y0093493D01*
X0215549Y0093354D01*
X0215748Y0093210D01*
X0215943Y0093061D01*
X0216135Y0092908D01*
X0216323Y0092750D01*
X0216507Y0092588D01*
X0216686Y0092420D01*
X0216862Y0092249D01*
X0217033Y0092073D01*
X0217201Y0091894D01*
X0217363Y0091710D01*
X0217521Y0091522D01*
X0217674Y0091330D01*
X0217823Y0091135D01*
X0217967Y0090936D01*
X0218106Y0090734D01*
X0218240Y0090528D01*
X0218368Y0090319D01*
X0218492Y0090107D01*
X0218610Y0089892D01*
X0218723Y0089674D01*
X0218831Y0089454D01*
X0218933Y0089230D01*
X0219030Y0089005D01*
X0219121Y0088777D01*
X0219206Y0088547D01*
X0219286Y0088315D01*
X0219360Y0088081D01*
X0219429Y0087845D01*
X0219491Y0087608D01*
X0219548Y0087369D01*
X0219599Y0087129D01*
X0219644Y0086888D01*
X0219683Y0086645D01*
X0219716Y0086402D01*
X0219743Y0086158D01*
X0219764Y0085914D01*
X0219779Y0085669D01*
X0219788Y0085423D01*
X0219791Y0085178D01*
X0219788Y0084933D01*
X0219779Y0084687D01*
X0219764Y0084442D01*
X0219743Y0084198D01*
X0219716Y0083954D01*
X0219683Y0083711D01*
X0219644Y0083468D01*
X0219599Y0083227D01*
X0219548Y0082987D01*
X0219491Y0082748D01*
X0219429Y0082511D01*
X0219360Y0082275D01*
X0219286Y0082041D01*
X0219206Y0081809D01*
X0219121Y0081579D01*
X0219030Y0081351D01*
X0218933Y0081126D01*
X0218831Y0080902D01*
X0218723Y0080682D01*
X0218610Y0080464D01*
X0218492Y0080249D01*
X0218368Y0080037D01*
X0218240Y0079828D01*
X0218106Y0079622D01*
X0217967Y0079420D01*
X0217823Y0079221D01*
X0217674Y0079026D01*
X0217521Y0078834D01*
X0217363Y0078646D01*
X0217201Y0078462D01*
X0217033Y0078283D01*
X0216862Y0078107D01*
X0216686Y0077936D01*
X0216507Y0077768D01*
X0216323Y0077606D01*
X0216135Y0077448D01*
X0215943Y0077295D01*
X0215748Y0077146D01*
X0215549Y0077002D01*
X0215347Y0076863D01*
X0215141Y0076729D01*
X0214932Y0076601D01*
X0214720Y0076477D01*
X0214505Y0076359D01*
X0214287Y0076246D01*
X0214067Y0076138D01*
X0213843Y0076036D01*
X0213618Y0075939D01*
X0213390Y0075848D01*
X0213160Y0075763D01*
X0212928Y0075683D01*
X0212694Y0075609D01*
X0212458Y0075540D01*
X0212221Y0075478D01*
X0211982Y0075421D01*
X0211742Y0075370D01*
X0211501Y0075325D01*
X0211258Y0075286D01*
X0211015Y0075253D01*
X0210771Y0075226D01*
X0210527Y0075205D01*
X0210282Y0075190D01*
X0210036Y0075181D01*
X0209791Y0075178D01*
X0209546Y0075181D01*
X0209300Y0075190D01*
X0209055Y0075205D01*
X0208811Y0075226D01*
X0208567Y0075253D01*
X0208324Y0075286D01*
X0208081Y0075325D01*
X0207840Y0075370D01*
X0207600Y0075421D01*
X0207361Y0075478D01*
X0207124Y0075540D01*
X0206888Y0075609D01*
X0206654Y0075683D01*
X0206422Y0075763D01*
X0206192Y0075848D01*
X0205964Y0075939D01*
X0205739Y0076036D01*
X0205515Y0076138D01*
X0205295Y0076246D01*
X0205077Y0076359D01*
X0204862Y0076477D01*
X0204650Y0076601D01*
X0204441Y0076729D01*
X0204235Y0076863D01*
X0204033Y0077002D01*
X0203834Y0077146D01*
X0203639Y0077295D01*
X0203447Y0077448D01*
X0203259Y0077606D01*
X0203075Y0077768D01*
X0202896Y0077936D01*
X0202720Y0078107D01*
X0202549Y0078283D01*
X0202381Y0078462D01*
X0202219Y0078646D01*
X0202061Y0078834D01*
X0201908Y0079026D01*
X0201759Y0079221D01*
X0201615Y0079420D01*
X0201476Y0079622D01*
X0201342Y0079828D01*
X0201214Y0080037D01*
X0201090Y0080249D01*
X0200972Y0080464D01*
X0200859Y0080682D01*
X0200751Y0080902D01*
X0200649Y0081126D01*
X0200552Y0081351D01*
X0200461Y0081579D01*
X0200376Y0081809D01*
X0200296Y0082041D01*
X0200222Y0082275D01*
X0200153Y0082511D01*
X0200091Y0082748D01*
X0200034Y0082987D01*
X0199983Y0083227D01*
X0199938Y0083468D01*
X0199899Y0083711D01*
X0199866Y0083954D01*
X0199839Y0084198D01*
X0199818Y0084442D01*
X0199803Y0084687D01*
X0199794Y0084933D01*
X0199791Y0085178D01*
X0200298Y0174529D02*
X0200298Y0180828D01*
X0210534Y0180828D01*
X0210534Y0174529D01*
X0200298Y0174529D01*
X0203541Y0174553D02*
X0206666Y0177678D01*
X0203541Y0180803D01*
X0203541Y0174553D01*
X0203541Y0174925D02*
X0203913Y0174925D01*
X0203541Y0175424D02*
X0204411Y0175424D01*
X0204910Y0175922D02*
X0203541Y0175922D01*
X0203541Y0176421D02*
X0205408Y0176421D01*
X0205907Y0176919D02*
X0203541Y0176919D01*
X0203541Y0177418D02*
X0206405Y0177418D01*
X0206428Y0177916D02*
X0203541Y0177916D01*
X0203541Y0178415D02*
X0205929Y0178415D01*
X0205431Y0178913D02*
X0203541Y0178913D01*
X0203541Y0179412D02*
X0204932Y0179412D01*
X0204434Y0179910D02*
X0203541Y0179910D01*
X0203541Y0180409D02*
X0203935Y0180409D01*
X0093634Y0198972D02*
X0093634Y0207634D01*
X0089697Y0207634D01*
X0089697Y0198972D01*
X0093634Y0198972D01*
D15*
X0105997Y0184858D02*
X0105997Y0166748D01*
X0122335Y0166748D01*
X0122335Y0184858D01*
X0105997Y0184858D01*
D16*
X0109481Y0181807D03*
D17*
X0109166Y0186827D03*
X0119166Y0186827D03*
X0119166Y0164780D03*
X0109166Y0164780D03*
D18*
X0209791Y0100532D03*
X0219791Y0069824D03*
X0199791Y0069824D03*
D19*
X0207291Y0077678D02*
X0212291Y0077678D01*
X0212291Y0082678D01*
X0217291Y0082678D01*
X0217291Y0087678D01*
X0212291Y0087678D01*
X0212291Y0092678D01*
X0207291Y0092678D01*
X0207291Y0087678D01*
X0202291Y0087678D01*
X0202291Y0082678D01*
X0207291Y0082678D01*
X0207291Y0077678D01*
D20*
X0166843Y0133367D02*
X0251489Y0133367D01*
X0251551Y0133369D01*
X0251612Y0133375D01*
X0251673Y0133384D01*
X0251734Y0133398D01*
X0251793Y0133415D01*
X0251851Y0133436D01*
X0251908Y0133461D01*
X0251963Y0133489D01*
X0252016Y0133520D01*
X0252067Y0133555D01*
X0252116Y0133593D01*
X0252163Y0133634D01*
X0252206Y0133677D01*
X0252247Y0133724D01*
X0252285Y0133773D01*
X0252320Y0133824D01*
X0252351Y0133877D01*
X0252379Y0133932D01*
X0252404Y0133989D01*
X0252425Y0134047D01*
X0252442Y0134106D01*
X0252456Y0134167D01*
X0252465Y0134228D01*
X0252471Y0134289D01*
X0252473Y0134351D01*
X0252473Y0156005D01*
X0252471Y0156067D01*
X0252465Y0156128D01*
X0252456Y0156189D01*
X0252442Y0156250D01*
X0252425Y0156309D01*
X0252404Y0156367D01*
X0252379Y0156424D01*
X0252351Y0156479D01*
X0252320Y0156532D01*
X0252285Y0156583D01*
X0252247Y0156632D01*
X0252206Y0156679D01*
X0252163Y0156722D01*
X0252116Y0156763D01*
X0252067Y0156801D01*
X0252016Y0156836D01*
X0251963Y0156867D01*
X0251908Y0156895D01*
X0251851Y0156920D01*
X0251793Y0156941D01*
X0251734Y0156958D01*
X0251673Y0156972D01*
X0251612Y0156981D01*
X0251551Y0156987D01*
X0251489Y0156989D01*
X0166843Y0156989D01*
X0166781Y0156987D01*
X0166720Y0156981D01*
X0166659Y0156972D01*
X0166598Y0156958D01*
X0166539Y0156941D01*
X0166481Y0156920D01*
X0166424Y0156895D01*
X0166369Y0156867D01*
X0166316Y0156836D01*
X0166265Y0156801D01*
X0166216Y0156763D01*
X0166169Y0156722D01*
X0166126Y0156679D01*
X0166085Y0156632D01*
X0166047Y0156583D01*
X0166012Y0156532D01*
X0165981Y0156479D01*
X0165953Y0156424D01*
X0165928Y0156367D01*
X0165907Y0156309D01*
X0165890Y0156250D01*
X0165876Y0156189D01*
X0165867Y0156128D01*
X0165861Y0156067D01*
X0165859Y0156005D01*
X0165859Y0134351D01*
X0165861Y0134289D01*
X0165867Y0134228D01*
X0165876Y0134167D01*
X0165890Y0134106D01*
X0165907Y0134047D01*
X0165928Y0133989D01*
X0165953Y0133932D01*
X0165981Y0133877D01*
X0166012Y0133824D01*
X0166047Y0133773D01*
X0166085Y0133724D01*
X0166126Y0133677D01*
X0166169Y0133634D01*
X0166216Y0133593D01*
X0166265Y0133555D01*
X0166316Y0133520D01*
X0166369Y0133489D01*
X0166424Y0133461D01*
X0166481Y0133436D01*
X0166539Y0133415D01*
X0166598Y0133398D01*
X0166659Y0133384D01*
X0166720Y0133375D01*
X0166781Y0133369D01*
X0166843Y0133367D01*
X0119914Y0193205D02*
X0108418Y0193205D01*
X0108418Y0198402D01*
X0119914Y0198402D01*
X0119914Y0193205D01*
D21*
X0114166Y0191853D03*
X0117866Y0199753D03*
X0110466Y0199753D03*
D22*
X0166563Y0139553D02*
X0193541Y0139553D01*
X0224791Y0150803D02*
X0251769Y0150803D01*
D23*
X0252253Y0150803D03*
X0166078Y0139553D03*
D24*
X0207384Y0177678D03*
D25*
X0211125Y0177678D03*
X0199707Y0177678D03*
M02*
