%
M48
M72
T01C0.01378
T02C0.02362
T03C0.03937
T04C0.04000
T05C0.05118
T06C0.07087
T07C0.08268
T08C0.12598
%
T01
X106666Y109553
X157291Y103657
X157291Y77949
X207916Y116428
X212916Y77949
X109166Y158303
X109166Y192678
X214619Y214553
T02
X215416Y205178
X205416Y203303
X210416Y194553
X198541Y194553
X192916Y205803
X182916Y205803
X180416Y213928
X167916Y213928
X162916Y200803
X153541Y200803
X152291Y194553
X151666Y188303
X145416Y194553
X142916Y188303
X152916Y180803
X159791Y173303
X166666Y168303
X157916Y159553
X150416Y158928
X142916Y152053
X135416Y152053
X139166Y159553
X131666Y159553
X132916Y170803
X124791Y170803
X132916Y179553
X144791Y166428
X152916Y168303
X150416Y150803
X150416Y139553
X142916Y139553
X142916Y132053
X150416Y125803
X142916Y120803
X147916Y113303
X157916Y113303
X167916Y113303
X167916Y125803
X159166Y125803
X160416Y139553
X170416Y139553
X179166Y139553
X177916Y148303
X186666Y148303
X195416Y153303
X195416Y164553
X187916Y170803
X182916Y176428
X177916Y167678
X177916Y160178
X205416Y170803
X211041Y162678
X215416Y170803
X221041Y163303
X229166Y163303
X225416Y170803
X235416Y170803
X238541Y163303
X237916Y155178
X237916Y147053
X231666Y144553
X220416Y135803
X220416Y128303
X211666Y128303
X211666Y135803
X202916Y135803
X202916Y128303
X209791Y147053
X209791Y153303
X243541Y174553
X251666Y171428
X257916Y166428
X248541Y163303
X254166Y155803
X258541Y150803
X249166Y147053
X249166Y138303
X249166Y128303
X257916Y128303
X249166Y109553
X249166Y102053
X249166Y93303
X249166Y83303
X247916Y73303
X257916Y73303
X257916Y65803
X267916Y65803
X267916Y55803
X257916Y55803
X247916Y54553
X232916Y56428
X222916Y56428
X212916Y56428
X203541Y56428
X212916Y65803
X227916Y80803
X227916Y88303
X215416Y104553
X202916Y104553
X182916Y90803
X187916Y85803
X172916Y90803
X177916Y65803
X167916Y65803
X157916Y64553
X147916Y65803
X147916Y56428
X157916Y56428
X167916Y56428
X177916Y56428
X187916Y56428
X137916Y56428
X127916Y56428
X117916Y56428
X107916Y53303
X97916Y53303
X87916Y53303
X87916Y63303
X97916Y63303
X107916Y63303
X107916Y73303
X102916Y79553
X97916Y73303
X92916Y79553
X87916Y73303
X82916Y79553
X72916Y79553
X67916Y84553
X61666Y79553
X61666Y97053
X61666Y107053
X61666Y117053
X61666Y127053
X61666Y137053
X74166Y145803
X74166Y155803
X84166Y155803
X94166Y155803
X94166Y145803
X94166Y165803
X101041Y170803
X107916Y175803
X114166Y175803
X101041Y179553
X95416Y192053
X82916Y178303
X73541Y178303
X60416Y188303
X70416Y190803
X95416Y215803
X105416Y215803
X127916Y215803
X127916Y200803
X130416Y195803
X84166Y165803
X74166Y165803
X60416Y163303
X60416Y152678
X117916Y120803
X118541Y138303
X118541Y147053
X132916Y139553
X137916Y113303
X137916Y105803
X116666Y91428
X102916Y92678
X105416Y100803
X116666Y79553
X137916Y75803
X137916Y85803
X257916Y103303
X292916Y105803
X292916Y115803
X292916Y125803
X292916Y93303
X292916Y80803
X284166Y157053
X277916Y160803
X257916Y177053
X265416Y178303
X266666Y185803
X266041Y193303
X267916Y205803
X257916Y205803
X247916Y205803
X247916Y215803
X257916Y215803
X267916Y215803
X237916Y215803
X227916Y213303
X194166Y215803
T03
X164791Y153303
X193812Y139273
X224520Y151084
X287916Y173928
X287916Y183928
X124791Y153303
X101666Y198382
X101666Y208224
T04
X165416Y190803
X185416Y190803
X222916Y187053
X222916Y187053
X242916Y187053
X252916Y187053
T05
X232640Y113461
X232640Y98500
X188866Y97053
X188866Y112014
X135322Y126974
X122798Y128421
X122798Y98500
X135322Y97053
X135322Y67132
X122798Y68579
X142916Y175803
X140416Y203303
X140416Y213303
X92916Y175803
T06
X188866Y126974
X232640Y128421
X232640Y68579
X188866Y67132
T07
X272291Y91394
X272291Y115803
X272291Y140213
X84791Y127383
X84791Y102973
T08
X67227Y60114
X67227Y209720
X287699Y209720
X287699Y60114
M30
