%
M48
M72
T01C0.01378
T02C0.02362
T03C0.03937
T04C0.04000
T05C0.05118
T06C0.07087
T07C0.08268
T08C0.12598
%
T01
X106666Y122053
X157291Y103657
X157291Y77949
X212916Y77949
X109166Y169553
X109166Y192678
X214619Y214553
T02
X227916Y215803
X237916Y215803
X247916Y215803
X257916Y215803
X267916Y215803
X267916Y205803
X267916Y195803
X257916Y205803
X247916Y205803
X267916Y185803
X266666Y175803
X257916Y175803
X262916Y165803
X252916Y165803
X245416Y170803
X235416Y170803
X235416Y163303
X225416Y163303
X225416Y170803
X215416Y170803
X215416Y163303
X205416Y163303
X205416Y170803
X195416Y170803
X187916Y170803
X182916Y175803
X177916Y168303
X170416Y158303
X162916Y158303
X162916Y150803
X170416Y150803
X155416Y140803
X160416Y135803
X167916Y135803
X177916Y125803
X167916Y123303
X167916Y113303
X157916Y113303
X147916Y113303
X142916Y120803
X150416Y123303
X157916Y123303
X150416Y135803
X142916Y133303
X142916Y140803
X132916Y140803
X132916Y148303
X122916Y148303
X117916Y138303
X117916Y120803
X112916Y100803
X102916Y100803
X102916Y90803
X112916Y90803
X112916Y80803
X107916Y73303
X102916Y80803
X97916Y73303
X92916Y80803
X87916Y73303
X82916Y80803
X72916Y80803
X62916Y80803
X62916Y90803
X72916Y90803
X82916Y90803
X92916Y90803
X72916Y100803
X62916Y100803
X62916Y110803
X62916Y120803
X60416Y128303
X60416Y138303
X60416Y148303
X72916Y155803
X72916Y165803
X82916Y165803
X92916Y165803
X100416Y160803
X92916Y155803
X100416Y170803
X101666Y179553
X99166Y192053
X92916Y192053
X82916Y175803
X72916Y175803
X60416Y178303
X60416Y168303
X60416Y188303
X95416Y215803
X105416Y215803
X127916Y215803
X127916Y200803
X130416Y195803
X142916Y188303
X145416Y194553
X152916Y194553
X152916Y188303
X152916Y180803
X152916Y173303
X160416Y173303
X165416Y165803
X155416Y165803
X152916Y158303
X145416Y165803
X132916Y160803
X124166Y160803
X124166Y170803
X132916Y170803
X132916Y179553
X152916Y200803
X162916Y200803
X172916Y215803
X182916Y215803
X192916Y215803
X192916Y205803
X192916Y195803
X182916Y205803
X205416Y203303
X210416Y195803
X196666Y163303
X196666Y155803
X196666Y145803
X192916Y138303
X200416Y135803
X200416Y128303
X210416Y128303
X210416Y135803
X220416Y135803
X220416Y128303
X217916Y148303
X225416Y148303
X232916Y148303
X240416Y148303
X247916Y148303
X257916Y150803
X247916Y138303
X247916Y128303
X257916Y128303
X247916Y109553
X247916Y102053
X247916Y93303
X247916Y83303
X247916Y73303
X257916Y73303
X257916Y65803
X267916Y65803
X267916Y55803
X257916Y55803
X247916Y54553
X232916Y55803
X222916Y55803
X212916Y55803
X202916Y55803
X212916Y65803
X227916Y80803
X227916Y88303
X215416Y104553
X202916Y104553
X182916Y90803
X187916Y85803
X172916Y90803
X177916Y65803
X167916Y65803
X157916Y64553
X147916Y65803
X147916Y55803
X157916Y55803
X167916Y55803
X177916Y55803
X187916Y55803
X137916Y55803
X127916Y55803
X117916Y55803
X107916Y53303
X97916Y53303
X87916Y53303
X87916Y63303
X97916Y63303
X107916Y63303
X137916Y75803
X137916Y85803
X137916Y105803
X137916Y113303
X257916Y103303
X292916Y105803
X292916Y115803
X292916Y125803
X292916Y93303
X292916Y80803
X284166Y157053
X277916Y160803
T03
X287916Y173928
X287916Y183928
X208270Y149209
X178541Y153928
X177562Y137398
X138541Y153928
X101666Y198382
X101666Y208224
T04
X165416Y190803
X185416Y190803
X222916Y187053
X222916Y187053
X242916Y187053
X252916Y187053
T05
X232640Y113461
X232640Y98500
X188866Y97053
X188866Y112014
X135322Y126974
X122798Y128421
X122798Y98500
X135322Y97053
X135322Y67132
X122798Y68579
X142916Y175803
X140416Y203303
X140416Y213303
X92916Y175803
T06
X188866Y126974
X232640Y128421
X232640Y68579
X188866Y67132
T07
X272291Y91394
X272291Y115803
X272291Y140213
X84791Y141758
X84791Y117348
T08
X67227Y60114
X67227Y209720
X287699Y209720
X287699Y60114
M30
