%
M48
M72
T01C0.01181
T02C0.03937
T03C0.04000
T04C0.05118
T05C0.07087
T06C0.08268
T07C0.12598
%
T01
X85416Y52053
X92916Y52053
X100416Y52053
X107916Y52053
X107916Y59553
X100416Y59553
X92916Y59553
X85416Y59553
X85416Y67053
X92916Y67053
X100416Y67053
X107916Y67053
X107916Y74553
X111041Y78303
X115416Y74553
X119166Y78303
X134166Y74553
X141666Y74553
X142916Y70803
X150416Y70803
X150416Y63303
X142916Y63303
X142916Y55803
X135416Y55803
X127916Y55803
X120416Y55803
X116666Y59553
X100416Y74553
X104166Y78303
X96666Y78303
X92916Y74553
X89166Y78303
X85416Y74553
X81666Y78303
X74166Y78303
X66666Y78303
X59166Y78303
X59166Y85803
X66666Y85803
X67916Y92053
X74166Y92053
X74166Y85803
X80416Y92053
X86666Y92053
X92916Y92053
X96666Y85803
X100416Y92053
X106666Y92053
X116666Y92053
X106666Y102053
X106666Y109553
X101666Y119553
X117916Y119553
X132916Y114553
X136666Y114553
X134166Y119553
X144166Y119553
X142916Y114553
X146666Y109553
X143541Y107053
X138541Y107053
X132916Y107053
X149166Y114553
X151666Y109553
X157916Y109553
X155416Y114553
X161666Y114553
X164166Y109553
X167916Y114553
X167916Y122053
X161666Y122053
X155416Y122053
X149166Y122053
X144166Y125803
X149166Y129553
X155416Y129553
X161666Y129553
X167916Y129553
X167916Y134553
X167916Y140178
X167916Y145178
X172916Y145803
X175416Y149553
X180416Y149553
X181666Y145803
X185416Y149553
X189166Y145803
X192916Y149553
X196666Y153303
X201666Y153303
X200416Y149553
X202291Y145178
X207916Y145178
X207916Y149553
X207916Y153303
X207916Y157053
X207916Y162053
X207916Y167053
X206666Y172053
X201666Y172053
X201666Y167053
X201666Y162053
X201666Y157053
X196666Y159553
X192916Y159553
X192916Y165803
X196666Y165803
X196666Y170803
X201666Y177053
X204166Y179553
X204166Y197053
X201666Y205803
X207916Y205803
X214619Y214553
X210416Y218303
X202916Y218303
X195416Y218303
X195416Y213303
X187916Y218303
X161666Y218303
X145416Y195803
X145416Y190803
X140416Y190803
X140416Y195803
X130416Y195803
X127916Y190803
X136666Y187053
X141666Y184553
X146666Y184553
X149166Y178303
X151666Y172053
X154166Y167053
X147916Y167053
X147916Y160803
X149166Y155803
X144166Y157053
X139166Y157053
X140416Y160803
X134166Y160803
X134166Y157053
X134166Y152053
X139166Y152053
X144166Y152053
X149166Y149553
X149166Y145178
X144166Y145803
X139166Y145803
X134166Y145803
X129166Y145803
X124166Y145803
X124166Y140803
X130416Y140803
X130416Y134553
X136666Y134553
X136666Y140803
X142916Y140803
X149166Y137053
X155416Y137053
X161666Y137053
X161666Y145178
X155416Y145178
X156666Y149553
X156666Y155803
X155416Y160803
X159166Y165803
X162916Y160803
X170416Y160803
X175416Y160803
X175416Y157053
X180416Y157053
X180416Y160803
X185416Y160803
X185416Y157053
X196666Y145178
X204166Y139553
X209166Y139553
X209166Y135803
X204166Y135803
X204166Y130803
X204166Y127053
X209166Y127053
X209166Y130803
X214166Y130803
X214166Y127053
X219166Y127053
X219166Y130803
X219166Y135803
X214166Y135803
X214166Y139553
X219166Y142053
X214166Y145178
X214166Y149553
X214166Y153303
X214166Y157053
X219166Y157053
X214166Y162053
X234166Y153303
X241666Y153303
X249166Y153303
X254166Y157053
X259166Y157053
X256666Y152053
X256666Y147053
X264166Y152053
X271666Y152053
X276666Y152053
X285416Y157053
X285416Y162053
X286666Y167053
X295416Y157053
X295416Y150803
X295416Y143303
X295416Y135803
X295416Y128303
X295416Y120803
X295416Y113303
X295416Y105803
X295416Y99553
X295416Y93303
X295416Y85803
X295416Y79553
X287916Y79553
X280416Y79553
X272916Y79553
X265416Y79553
X257916Y79553
X256666Y72053
X256666Y67053
X262916Y67053
X269166Y67053
X269166Y59553
X262916Y59553
X256666Y59553
X251666Y63303
X240416Y55803
X249166Y52053
X256666Y52053
X262916Y52053
X269166Y52053
X249166Y72053
X249166Y79553
X249166Y87053
X249166Y94553
X249166Y102053
X249166Y109553
X257916Y103303
X265416Y103303
X272916Y103303
X280416Y103303
X287916Y103303
X274166Y127053
X266666Y127053
X259166Y127053
X256666Y132053
X249166Y135803
X240416Y137053
X237916Y142053
X241666Y146428
X244166Y142053
X249166Y142053
X249166Y146428
X234166Y146428
X231666Y142053
X225416Y142053
X224166Y135803
X225416Y120803
X240416Y120803
X249166Y127053
X214166Y107053
X214166Y100803
X202916Y100803
X202916Y107053
X206666Y112053
X181666Y92053
X181666Y87053
X187916Y89553
X187916Y82053
X171666Y87053
X171666Y92053
X157291Y103657
X141666Y89553
X141666Y82053
X134166Y89553
X157291Y77949
X172916Y70803
X172916Y63303
X180416Y63303
X180416Y55803
X172916Y55803
X165416Y55803
X157916Y55803
X151041Y55803
X157916Y63303
X165416Y63303
X187916Y55803
X195416Y55803
X202916Y55803
X210416Y55803
X217916Y55803
X225416Y55803
X232916Y55803
X210416Y63303
X210416Y69553
X214166Y77949
X227916Y80803
X227916Y88303
X177291Y129553
X176666Y134553
X176041Y140178
X183541Y140178
X170416Y149553
X142916Y133303
X117916Y134553
X117916Y140803
X117916Y145803
X117916Y150803
X109166Y158303
X101666Y155803
X95416Y153303
X95416Y159553
X101666Y160803
X101666Y167053
X95416Y165803
X87916Y165803
X87916Y159553
X80416Y159553
X80416Y165803
X72916Y165803
X72916Y159553
X72916Y153303
X80416Y153303
X87916Y153303
X95416Y145803
X101666Y145803
X101666Y138303
X94166Y138303
X87916Y138303
X80416Y138303
X72916Y138303
X72916Y145803
X59166Y149553
X59166Y157053
X59166Y164553
X59166Y172053
X59166Y182053
X59166Y190803
X65416Y190803
X71666Y190803
X72916Y180803
X80416Y180803
X87916Y180803
X80416Y173303
X72916Y173303
X91666Y192053
X96666Y192053
X101666Y192053
X109166Y192678
X106666Y182053
X101666Y180803
X106666Y175803
X101666Y173303
X106666Y169553
X114166Y175803
X114166Y182053
X130416Y178303
X134166Y182053
X134166Y173303
X134166Y167053
X125416Y160803
X124166Y167053
X141666Y167053
X130416Y202053
X127916Y207053
X122916Y207053
X122916Y212053
X127916Y212053
X127916Y218303
X122916Y218303
X105416Y215803
X99166Y215803
X92916Y215803
X92916Y212053
X85416Y212053
X85416Y218303
X86666Y195803
X124166Y202053
X60416Y138303
X60416Y130803
X60416Y123303
X60416Y115803
X60416Y108303
X60416Y100803
X60416Y93303
X254166Y218303
X261666Y218303
X269166Y218303
X269166Y209553
X264166Y209553
X269166Y202053
X274166Y190803
X274166Y186428
X274166Y182053
X271666Y179553
X279166Y175803
X286666Y190803
X291666Y190803
T02
X287916Y183928
X287916Y173928
X224520Y149209
X193812Y137398
X164791Y153303
X124791Y153303
X101666Y198382
X101666Y208224
T03
X165416Y190803
X185416Y190803
X222916Y187053
X222916Y187053
X242916Y187053
X252916Y187053
T04
X232640Y113461
X232640Y98500
X188866Y97053
X188866Y112014
X135322Y126974
X122798Y128421
X122798Y98500
X135322Y97053
X135322Y67132
X122798Y68579
X142916Y174553
X140416Y203303
X140416Y213303
X92916Y174553
T05
X188866Y126974
X232640Y128421
X232640Y68579
X188866Y67132
T06
X272291Y91394
X272291Y115803
X272291Y140213
X84791Y127383
X84791Y102973
T07
X67227Y60114
X67227Y209720
X287699Y209720
X287699Y60114
M30
