G75*
%MOIN*%
%OFA0B0*%
%FSLAX25Y25*%
%IPPOS*%
%LPD*%
%AMOC8*
5,1,8,0,0,1.08239X$1,22.5*
%
%ADD10C,0.13398*%
%ADD11C,0.14173*%
%ADD12C,0.14973*%
%ADD13C,0.10236*%
%ADD14C,0.11036*%
%ADD15C,0.10000*%
%ADD16C,0.10800*%
%ADD17OC8,0.10000*%
%ADD18OC8,0.10800*%
%ADD19C,0.05937*%
%ADD20C,0.06737*%
%ADD21C,0.07874*%
%ADD22C,0.08674*%
%ADD23OC8,0.12400*%
%ADD24OC8,0.13200*%
%ADD25C,0.12400*%
%ADD26C,0.13200*%
%ADD27R,0.03950X0.03950*%
%ADD28R,0.07099X0.05524*%
%ADD29C,0.15000*%
%ADD30C,0.15800*%
%ADD31C,0.02181*%
D10*
X0067227Y0060114D03*
X0067227Y0209720D03*
X0287699Y0209720D03*
X0287699Y0060114D03*
D11*
X0232640Y0068579D03*
X0188866Y0067132D03*
X0188866Y0126974D03*
X0232640Y0128421D03*
D12*
X0232640Y0128421D03*
X0188866Y0126974D03*
X0188866Y0067132D03*
X0232640Y0068579D03*
D13*
X0232640Y0098500D03*
X0232640Y0113461D03*
X0188866Y0112014D03*
X0188866Y0097053D03*
X0135322Y0097053D03*
X0122798Y0098500D03*
X0122798Y0128421D03*
X0135322Y0126974D03*
X0122798Y0068579D03*
X0135322Y0067132D03*
D14*
X0135322Y0067132D03*
X0122798Y0068579D03*
X0135322Y0097053D03*
X0122798Y0098500D03*
X0122798Y0128421D03*
X0135322Y0126974D03*
X0188866Y0112014D03*
X0188866Y0097053D03*
X0232640Y0098500D03*
X0232640Y0113461D03*
D15*
X0222916Y0187053D03*
X0165416Y0190803D03*
D16*
X0165416Y0190803D03*
X0222916Y0187053D03*
D17*
X0242916Y0187053D03*
X0224520Y0149209D03*
X0193812Y0137398D03*
X0164791Y0153303D03*
X0142916Y0174553D03*
X0124791Y0153303D03*
X0092916Y0174553D03*
X0185416Y0190803D03*
D18*
X0185416Y0190803D03*
X0142916Y0174553D03*
X0124791Y0153303D03*
X0092916Y0174553D03*
X0164791Y0153303D03*
X0193812Y0137398D03*
X0224520Y0149209D03*
X0242916Y0187053D03*
D19*
X0284947Y0183928D02*
X0290884Y0183928D01*
X0290884Y0173928D02*
X0284947Y0173928D01*
X0104634Y0198382D02*
X0098697Y0198382D01*
X0098697Y0208224D02*
X0104634Y0208224D01*
D20*
X0098697Y0208224D01*
X0098697Y0198382D02*
X0104634Y0198382D01*
X0284947Y0183928D02*
X0290884Y0183928D01*
X0290884Y0173928D02*
X0284947Y0173928D01*
D21*
X0144353Y0203303D02*
X0136479Y0203303D01*
X0136479Y0213303D02*
X0144353Y0213303D01*
D22*
X0136479Y0213303D01*
X0136479Y0203303D02*
X0144353Y0203303D01*
D23*
X0252916Y0187053D03*
D24*
X0252916Y0187053D03*
D25*
X0222916Y0187053D03*
D26*
X0222916Y0187053D03*
D27*
X0207119Y0214553D03*
X0201213Y0214553D03*
X0083369Y0185803D03*
X0077463Y0185803D03*
D28*
X0066666Y0182496D03*
X0066666Y0169110D03*
D29*
X0077291Y0127383D02*
X0092291Y0127383D01*
X0092291Y0102973D02*
X0077291Y0102973D01*
X0264791Y0091394D02*
X0279791Y0091394D01*
X0279791Y0115803D02*
X0264791Y0115803D01*
X0264791Y0140213D02*
X0279791Y0140213D01*
D30*
X0264791Y0140213D01*
X0264791Y0115803D02*
X0279791Y0115803D01*
X0279791Y0091394D02*
X0264791Y0091394D01*
X0092291Y0102973D02*
X0077291Y0102973D01*
X0077291Y0127383D02*
X0092291Y0127383D01*
D31*
X0101666Y0119553D03*
X0106666Y0109553D03*
X0106666Y0102053D03*
X0106666Y0092053D03*
X0100416Y0092053D03*
X0096666Y0085803D03*
X0092916Y0092053D03*
X0086666Y0092053D03*
X0080416Y0092053D03*
X0074166Y0092053D03*
X0074166Y0085803D03*
X0066666Y0085803D03*
X0067916Y0092053D03*
X0060416Y0093303D03*
X0060416Y0100803D03*
X0060416Y0108303D03*
X0060416Y0115803D03*
X0060416Y0123303D03*
X0060416Y0130803D03*
X0060416Y0138303D03*
X0072916Y0138303D03*
X0080416Y0138303D03*
X0087916Y0138303D03*
X0094166Y0138303D03*
X0101666Y0138303D03*
X0101666Y0145803D03*
X0095416Y0145803D03*
X0095416Y0153303D03*
X0101666Y0155803D03*
X0101666Y0160803D03*
X0095416Y0159553D03*
X0095416Y0165803D03*
X0101666Y0167053D03*
X0106666Y0169553D03*
X0101666Y0173303D03*
X0106666Y0175803D03*
X0106666Y0182053D03*
X0101666Y0180803D03*
X0101666Y0192053D03*
X0096666Y0192053D03*
X0091666Y0192053D03*
X0086666Y0195803D03*
X0071666Y0190803D03*
X0065416Y0190803D03*
X0059166Y0190803D03*
X0059166Y0182053D03*
X0059166Y0172053D03*
X0059166Y0164553D03*
X0059166Y0157053D03*
X0059166Y0149553D03*
X0072916Y0145803D03*
X0072916Y0153303D03*
X0080416Y0153303D03*
X0087916Y0153303D03*
X0087916Y0159553D03*
X0087916Y0165803D03*
X0080416Y0165803D03*
X0080416Y0159553D03*
X0072916Y0159553D03*
X0072916Y0165803D03*
X0072916Y0173303D03*
X0080416Y0173303D03*
X0080416Y0180803D03*
X0087916Y0180803D03*
X0072916Y0180803D03*
X0109166Y0192678D03*
X0114166Y0182053D03*
X0114166Y0175803D03*
X0124166Y0167053D03*
X0125416Y0160803D03*
X0134166Y0160803D03*
X0134166Y0157053D03*
X0134166Y0152053D03*
X0139166Y0152053D03*
X0144166Y0152053D03*
X0144166Y0157053D03*
X0139166Y0157053D03*
X0140416Y0160803D03*
X0141666Y0167053D03*
X0147916Y0167053D03*
X0154166Y0167053D03*
X0159166Y0165803D03*
X0162916Y0160803D03*
X0170416Y0160803D03*
X0175416Y0160803D03*
X0175416Y0157053D03*
X0180416Y0157053D03*
X0180416Y0160803D03*
X0185416Y0160803D03*
X0185416Y0157053D03*
X0192916Y0159553D03*
X0196666Y0159553D03*
X0201666Y0157053D03*
X0201666Y0162053D03*
X0201666Y0167053D03*
X0201666Y0172053D03*
X0206666Y0172053D03*
X0207916Y0167053D03*
X0207916Y0162053D03*
X0207916Y0157053D03*
X0207916Y0153303D03*
X0207916Y0149553D03*
X0207916Y0145178D03*
X0202291Y0145178D03*
X0200416Y0149553D03*
X0201666Y0153303D03*
X0196666Y0153303D03*
X0192916Y0149553D03*
X0189166Y0145803D03*
X0185416Y0149553D03*
X0180416Y0149553D03*
X0175416Y0149553D03*
X0172916Y0145803D03*
X0167916Y0145178D03*
X0167916Y0140178D03*
X0167916Y0134553D03*
X0167916Y0129553D03*
X0161666Y0129553D03*
X0155416Y0129553D03*
X0149166Y0129553D03*
X0144166Y0125803D03*
X0149166Y0122053D03*
X0144166Y0119553D03*
X0142916Y0114553D03*
X0146666Y0109553D03*
X0143541Y0107053D03*
X0138541Y0107053D03*
X0132916Y0107053D03*
X0132916Y0114553D03*
X0136666Y0114553D03*
X0134166Y0119553D03*
X0149166Y0114553D03*
X0151666Y0109553D03*
X0157916Y0109553D03*
X0155416Y0114553D03*
X0161666Y0114553D03*
X0164166Y0109553D03*
X0167916Y0114553D03*
X0167916Y0122053D03*
X0161666Y0122053D03*
X0155416Y0122053D03*
X0142916Y0133303D03*
X0136666Y0134553D03*
X0130416Y0134553D03*
X0130416Y0140803D03*
X0129166Y0145803D03*
X0134166Y0145803D03*
X0139166Y0145803D03*
X0144166Y0145803D03*
X0149166Y0145178D03*
X0149166Y0149553D03*
X0149166Y0155803D03*
X0147916Y0160803D03*
X0155416Y0160803D03*
X0156666Y0155803D03*
X0156666Y0149553D03*
X0155416Y0145178D03*
X0161666Y0145178D03*
X0170416Y0149553D03*
X0176041Y0140178D03*
X0176666Y0134553D03*
X0177291Y0129553D03*
X0183541Y0140178D03*
X0181666Y0145803D03*
X0196666Y0145178D03*
X0204166Y0139553D03*
X0209166Y0139553D03*
X0209166Y0135803D03*
X0204166Y0135803D03*
X0204166Y0130803D03*
X0204166Y0127053D03*
X0209166Y0127053D03*
X0209166Y0130803D03*
X0214166Y0130803D03*
X0214166Y0127053D03*
X0219166Y0127053D03*
X0219166Y0130803D03*
X0219166Y0135803D03*
X0214166Y0135803D03*
X0214166Y0139553D03*
X0219166Y0142053D03*
X0214166Y0145178D03*
X0214166Y0149553D03*
X0214166Y0153303D03*
X0214166Y0157053D03*
X0219166Y0157053D03*
X0214166Y0162053D03*
X0196666Y0165803D03*
X0192916Y0165803D03*
X0196666Y0170803D03*
X0201666Y0177053D03*
X0204166Y0179553D03*
X0204166Y0197053D03*
X0201666Y0205803D03*
X0207916Y0205803D03*
X0214619Y0214553D03*
X0210416Y0218303D03*
X0202916Y0218303D03*
X0195416Y0218303D03*
X0195416Y0213303D03*
X0187916Y0218303D03*
X0161666Y0218303D03*
X0145416Y0195803D03*
X0145416Y0190803D03*
X0140416Y0190803D03*
X0140416Y0195803D03*
X0130416Y0195803D03*
X0127916Y0190803D03*
X0136666Y0187053D03*
X0141666Y0184553D03*
X0146666Y0184553D03*
X0149166Y0178303D03*
X0151666Y0172053D03*
X0134166Y0173303D03*
X0130416Y0178303D03*
X0134166Y0182053D03*
X0134166Y0167053D03*
X0117916Y0150803D03*
X0117916Y0145803D03*
X0117916Y0140803D03*
X0117916Y0134553D03*
X0124166Y0140803D03*
X0124166Y0145803D03*
X0136666Y0140803D03*
X0142916Y0140803D03*
X0149166Y0137053D03*
X0155416Y0137053D03*
X0161666Y0137053D03*
X0202916Y0107053D03*
X0202916Y0100803D03*
X0214166Y0100803D03*
X0214166Y0107053D03*
X0206666Y0112053D03*
X0225416Y0120803D03*
X0240416Y0120803D03*
X0249166Y0127053D03*
X0249166Y0135803D03*
X0240416Y0137053D03*
X0237916Y0142053D03*
X0241666Y0146428D03*
X0244166Y0142053D03*
X0249166Y0142053D03*
X0249166Y0146428D03*
X0249166Y0153303D03*
X0254166Y0157053D03*
X0259166Y0157053D03*
X0256666Y0152053D03*
X0256666Y0147053D03*
X0264166Y0152053D03*
X0271666Y0152053D03*
X0276666Y0152053D03*
X0285416Y0157053D03*
X0285416Y0162053D03*
X0286666Y0167053D03*
X0295416Y0157053D03*
X0295416Y0150803D03*
X0295416Y0143303D03*
X0295416Y0135803D03*
X0295416Y0128303D03*
X0295416Y0120803D03*
X0295416Y0113303D03*
X0295416Y0105803D03*
X0295416Y0099553D03*
X0295416Y0093303D03*
X0295416Y0085803D03*
X0295416Y0079553D03*
X0287916Y0079553D03*
X0280416Y0079553D03*
X0272916Y0079553D03*
X0265416Y0079553D03*
X0257916Y0079553D03*
X0256666Y0072053D03*
X0256666Y0067053D03*
X0262916Y0067053D03*
X0269166Y0067053D03*
X0269166Y0059553D03*
X0262916Y0059553D03*
X0256666Y0059553D03*
X0251666Y0063303D03*
X0240416Y0055803D03*
X0249166Y0052053D03*
X0256666Y0052053D03*
X0262916Y0052053D03*
X0269166Y0052053D03*
X0249166Y0072053D03*
X0249166Y0079553D03*
X0249166Y0087053D03*
X0249166Y0094553D03*
X0249166Y0102053D03*
X0249166Y0109553D03*
X0257916Y0103303D03*
X0265416Y0103303D03*
X0272916Y0103303D03*
X0280416Y0103303D03*
X0287916Y0103303D03*
X0274166Y0127053D03*
X0266666Y0127053D03*
X0259166Y0127053D03*
X0256666Y0132053D03*
X0234166Y0146428D03*
X0231666Y0142053D03*
X0225416Y0142053D03*
X0224166Y0135803D03*
X0234166Y0153303D03*
X0241666Y0153303D03*
X0271666Y0179553D03*
X0274166Y0182053D03*
X0274166Y0186428D03*
X0274166Y0190803D03*
X0269166Y0202053D03*
X0269166Y0209553D03*
X0264166Y0209553D03*
X0261666Y0218303D03*
X0254166Y0218303D03*
X0269166Y0218303D03*
X0286666Y0190803D03*
X0291666Y0190803D03*
X0279166Y0175803D03*
X0181666Y0092053D03*
X0181666Y0087053D03*
X0187916Y0089553D03*
X0187916Y0082053D03*
X0171666Y0087053D03*
X0171666Y0092053D03*
X0157291Y0103657D03*
X0141666Y0089553D03*
X0141666Y0082053D03*
X0141666Y0074553D03*
X0142916Y0070803D03*
X0150416Y0070803D03*
X0150416Y0063303D03*
X0142916Y0063303D03*
X0142916Y0055803D03*
X0135416Y0055803D03*
X0127916Y0055803D03*
X0120416Y0055803D03*
X0116666Y0059553D03*
X0107916Y0059553D03*
X0100416Y0059553D03*
X0092916Y0059553D03*
X0085416Y0059553D03*
X0085416Y0052053D03*
X0092916Y0052053D03*
X0100416Y0052053D03*
X0107916Y0052053D03*
X0107916Y0067053D03*
X0100416Y0067053D03*
X0092916Y0067053D03*
X0085416Y0067053D03*
X0085416Y0074553D03*
X0089166Y0078303D03*
X0092916Y0074553D03*
X0096666Y0078303D03*
X0100416Y0074553D03*
X0104166Y0078303D03*
X0107916Y0074553D03*
X0111041Y0078303D03*
X0115416Y0074553D03*
X0119166Y0078303D03*
X0134166Y0074553D03*
X0134166Y0089553D03*
X0116666Y0092053D03*
X0117916Y0119553D03*
X0109166Y0158303D03*
X0124166Y0202053D03*
X0122916Y0207053D03*
X0127916Y0207053D03*
X0127916Y0212053D03*
X0122916Y0212053D03*
X0122916Y0218303D03*
X0127916Y0218303D03*
X0130416Y0202053D03*
X0105416Y0215803D03*
X0099166Y0215803D03*
X0092916Y0215803D03*
X0092916Y0212053D03*
X0085416Y0212053D03*
X0085416Y0218303D03*
X0227916Y0088303D03*
X0227916Y0080803D03*
X0214166Y0077949D03*
X0210416Y0069553D03*
X0210416Y0063303D03*
X0210416Y0055803D03*
X0217916Y0055803D03*
X0225416Y0055803D03*
X0232916Y0055803D03*
X0202916Y0055803D03*
X0195416Y0055803D03*
X0187916Y0055803D03*
X0180416Y0055803D03*
X0172916Y0055803D03*
X0165416Y0055803D03*
X0157916Y0055803D03*
X0151041Y0055803D03*
X0157916Y0063303D03*
X0165416Y0063303D03*
X0172916Y0063303D03*
X0180416Y0063303D03*
X0172916Y0070803D03*
X0157291Y0077949D03*
X0081666Y0078303D03*
X0074166Y0078303D03*
X0066666Y0078303D03*
X0059166Y0078303D03*
X0059166Y0085803D03*
M02*
