G75*
%MOIN*%
%OFA0B0*%
%FSLAX25Y25*%
%IPPOS*%
%LPD*%
%AMOC8*
5,1,8,0,0,1.08239X$1,22.5*
%
%ADD10C,0.00900*%
%ADD11C,0.01100*%
%ADD12C,0.00600*%
%ADD13C,0.01200*%
%ADD14R,0.02500X0.09000*%
%ADD15C,0.01000*%
%ADD16C,0.00500*%
%ADD17C,0.02000*%
%ADD18R,0.01000X0.02000*%
%ADD19R,0.02500X0.15000*%
%ADD20R,0.01197X0.02000*%
%ADD21R,0.05000X0.20000*%
%ADD22C,0.00400*%
%ADD23C,0.00200*%
%ADD24R,0.00591X0.00787*%
%ADD25R,0.00197X0.00197*%
%ADD26R,0.01476X0.00197*%
%ADD27R,0.01181X0.00787*%
%ADD28R,0.00886X0.03543*%
%ADD29R,0.01969X0.00787*%
%ADD30R,0.00886X0.02165*%
%ADD31R,0.00394X0.00394*%
%ADD32R,0.06299X0.01181*%
%ADD33R,0.03543X0.02362*%
D10*
X0059366Y0173753D02*
X0059366Y0174614D01*
X0059366Y0173753D02*
X0062466Y0173753D01*
X0062466Y0174614D01*
X0062464Y0174670D01*
X0062459Y0174726D01*
X0062449Y0174782D01*
X0062437Y0174837D01*
X0062420Y0174891D01*
X0062400Y0174943D01*
X0062377Y0174995D01*
X0062351Y0175045D01*
X0062321Y0175092D01*
X0062288Y0175138D01*
X0062252Y0175182D01*
X0062214Y0175223D01*
X0062173Y0175261D01*
X0062129Y0175297D01*
X0062083Y0175330D01*
X0062036Y0175360D01*
X0061986Y0175386D01*
X0061934Y0175409D01*
X0061882Y0175429D01*
X0061828Y0175446D01*
X0061773Y0175458D01*
X0061717Y0175468D01*
X0061661Y0175473D01*
X0061605Y0175475D01*
X0060227Y0175475D01*
X0060171Y0175473D01*
X0060115Y0175468D01*
X0060059Y0175458D01*
X0060004Y0175446D01*
X0059950Y0175429D01*
X0059898Y0175409D01*
X0059846Y0175386D01*
X0059797Y0175360D01*
X0059749Y0175330D01*
X0059703Y0175297D01*
X0059659Y0175261D01*
X0059618Y0175223D01*
X0059580Y0175182D01*
X0059544Y0175138D01*
X0059511Y0175092D01*
X0059481Y0175045D01*
X0059455Y0174995D01*
X0059432Y0174943D01*
X0059412Y0174891D01*
X0059395Y0174837D01*
X0059383Y0174782D01*
X0059373Y0174726D01*
X0059368Y0174670D01*
X0059366Y0174614D01*
X0059366Y0177473D02*
X0059366Y0178506D01*
X0059368Y0178557D01*
X0059374Y0178609D01*
X0059383Y0178659D01*
X0059397Y0178709D01*
X0059414Y0178758D01*
X0059434Y0178805D01*
X0059458Y0178851D01*
X0059486Y0178894D01*
X0059516Y0178936D01*
X0059550Y0178975D01*
X0059586Y0179011D01*
X0059625Y0179045D01*
X0059667Y0179075D01*
X0059711Y0179103D01*
X0059756Y0179127D01*
X0059803Y0179147D01*
X0059852Y0179164D01*
X0059902Y0179178D01*
X0059952Y0179187D01*
X0060004Y0179193D01*
X0060055Y0179195D01*
X0060106Y0179193D01*
X0060158Y0179187D01*
X0060208Y0179178D01*
X0060258Y0179164D01*
X0060307Y0179147D01*
X0060354Y0179127D01*
X0060400Y0179103D01*
X0060443Y0179075D01*
X0060485Y0179045D01*
X0060524Y0179011D01*
X0060560Y0178975D01*
X0060594Y0178936D01*
X0060624Y0178894D01*
X0060652Y0178851D01*
X0060676Y0178805D01*
X0060696Y0178758D01*
X0060713Y0178709D01*
X0060727Y0178659D01*
X0060736Y0178609D01*
X0060742Y0178557D01*
X0060744Y0178506D01*
X0060744Y0177818D01*
X0060744Y0178334D02*
X0060746Y0178392D01*
X0060752Y0178449D01*
X0060761Y0178505D01*
X0060775Y0178561D01*
X0060792Y0178616D01*
X0060812Y0178670D01*
X0060837Y0178722D01*
X0060864Y0178773D01*
X0060895Y0178821D01*
X0060929Y0178868D01*
X0060966Y0178912D01*
X0061006Y0178953D01*
X0061049Y0178992D01*
X0061094Y0179027D01*
X0061142Y0179060D01*
X0061191Y0179089D01*
X0061243Y0179115D01*
X0061296Y0179137D01*
X0061350Y0179156D01*
X0061405Y0179172D01*
X0061462Y0179183D01*
X0061519Y0179191D01*
X0061576Y0179195D01*
X0061634Y0179195D01*
X0061691Y0179191D01*
X0061748Y0179183D01*
X0061805Y0179172D01*
X0061860Y0179156D01*
X0061914Y0179137D01*
X0061967Y0179115D01*
X0062019Y0179089D01*
X0062068Y0179060D01*
X0062116Y0179027D01*
X0062161Y0178992D01*
X0062204Y0178953D01*
X0062244Y0178912D01*
X0062281Y0178868D01*
X0062315Y0178821D01*
X0062346Y0178773D01*
X0062373Y0178722D01*
X0062398Y0178670D01*
X0062418Y0178616D01*
X0062435Y0178561D01*
X0062449Y0178505D01*
X0062458Y0178449D01*
X0062464Y0178392D01*
X0062466Y0178334D01*
X0062466Y0177473D01*
X0075241Y0189378D02*
X0076619Y0189378D01*
X0075241Y0189378D02*
X0075241Y0192478D01*
X0078361Y0192478D02*
X0078361Y0189378D01*
X0079739Y0189378D01*
X0081467Y0189378D02*
X0082328Y0189378D01*
X0081467Y0189378D02*
X0081467Y0192478D01*
X0082328Y0192478D01*
X0082384Y0192476D01*
X0082440Y0192471D01*
X0082496Y0192461D01*
X0082551Y0192449D01*
X0082605Y0192432D01*
X0082657Y0192412D01*
X0082709Y0192389D01*
X0082759Y0192363D01*
X0082806Y0192333D01*
X0082852Y0192300D01*
X0082896Y0192264D01*
X0082937Y0192226D01*
X0082975Y0192185D01*
X0083011Y0192141D01*
X0083044Y0192095D01*
X0083074Y0192047D01*
X0083100Y0191998D01*
X0083123Y0191946D01*
X0083143Y0191894D01*
X0083160Y0191840D01*
X0083172Y0191785D01*
X0083182Y0191729D01*
X0083187Y0191673D01*
X0083189Y0191617D01*
X0083190Y0191617D02*
X0083190Y0190239D01*
X0083189Y0190239D02*
X0083187Y0190183D01*
X0083182Y0190127D01*
X0083172Y0190071D01*
X0083160Y0190016D01*
X0083143Y0189962D01*
X0083123Y0189910D01*
X0083100Y0189858D01*
X0083074Y0189809D01*
X0083044Y0189761D01*
X0083011Y0189715D01*
X0082975Y0189671D01*
X0082937Y0189630D01*
X0082896Y0189592D01*
X0082852Y0189556D01*
X0082806Y0189523D01*
X0082759Y0189493D01*
X0082709Y0189467D01*
X0082657Y0189444D01*
X0082605Y0189424D01*
X0082551Y0189407D01*
X0082496Y0189395D01*
X0082440Y0189385D01*
X0082384Y0189380D01*
X0082328Y0189378D01*
X0085187Y0189378D02*
X0086909Y0189378D01*
X0086048Y0189378D02*
X0086048Y0192478D01*
X0085187Y0191789D01*
X0079739Y0192478D02*
X0078361Y0192478D01*
X0078361Y0191100D02*
X0079394Y0191100D01*
X0116110Y0193114D02*
X0116110Y0194492D01*
X0116112Y0194550D01*
X0116118Y0194607D01*
X0116127Y0194663D01*
X0116141Y0194719D01*
X0116158Y0194774D01*
X0116178Y0194828D01*
X0116203Y0194880D01*
X0116230Y0194931D01*
X0116261Y0194979D01*
X0116295Y0195026D01*
X0116332Y0195070D01*
X0116372Y0195111D01*
X0116415Y0195150D01*
X0116460Y0195185D01*
X0116508Y0195218D01*
X0116557Y0195247D01*
X0116609Y0195273D01*
X0116662Y0195295D01*
X0116716Y0195314D01*
X0116771Y0195330D01*
X0116828Y0195341D01*
X0116885Y0195349D01*
X0116942Y0195353D01*
X0117000Y0195353D01*
X0117057Y0195349D01*
X0117114Y0195341D01*
X0117171Y0195330D01*
X0117226Y0195314D01*
X0117280Y0195295D01*
X0117333Y0195273D01*
X0117385Y0195247D01*
X0117434Y0195218D01*
X0117482Y0195185D01*
X0117527Y0195150D01*
X0117570Y0195111D01*
X0117610Y0195070D01*
X0117647Y0195026D01*
X0117681Y0194979D01*
X0117712Y0194931D01*
X0117739Y0194880D01*
X0117764Y0194828D01*
X0117784Y0194774D01*
X0117801Y0194719D01*
X0117815Y0194663D01*
X0117824Y0194607D01*
X0117830Y0194550D01*
X0117832Y0194492D01*
X0117832Y0193114D01*
X0117830Y0193056D01*
X0117824Y0192999D01*
X0117815Y0192943D01*
X0117801Y0192887D01*
X0117784Y0192832D01*
X0117764Y0192778D01*
X0117739Y0192726D01*
X0117712Y0192675D01*
X0117681Y0192627D01*
X0117647Y0192580D01*
X0117610Y0192536D01*
X0117570Y0192495D01*
X0117527Y0192456D01*
X0117482Y0192421D01*
X0117434Y0192388D01*
X0117385Y0192359D01*
X0117333Y0192333D01*
X0117280Y0192311D01*
X0117226Y0192292D01*
X0117171Y0192276D01*
X0117114Y0192265D01*
X0117057Y0192257D01*
X0117000Y0192253D01*
X0116942Y0192253D01*
X0116885Y0192257D01*
X0116828Y0192265D01*
X0116771Y0192276D01*
X0116716Y0192292D01*
X0116662Y0192311D01*
X0116609Y0192333D01*
X0116557Y0192359D01*
X0116508Y0192388D01*
X0116460Y0192421D01*
X0116415Y0192456D01*
X0116372Y0192495D01*
X0116332Y0192536D01*
X0116295Y0192580D01*
X0116261Y0192627D01*
X0116230Y0192675D01*
X0116203Y0192726D01*
X0116178Y0192778D01*
X0116158Y0192832D01*
X0116141Y0192887D01*
X0116127Y0192943D01*
X0116118Y0192999D01*
X0116112Y0193056D01*
X0116110Y0193114D01*
X0115866Y0196878D02*
X0116727Y0196878D01*
X0116785Y0196880D01*
X0116842Y0196886D01*
X0116898Y0196895D01*
X0116954Y0196909D01*
X0117009Y0196926D01*
X0117063Y0196946D01*
X0117115Y0196971D01*
X0117166Y0196998D01*
X0117214Y0197029D01*
X0117261Y0197063D01*
X0117305Y0197100D01*
X0117346Y0197140D01*
X0117385Y0197183D01*
X0117420Y0197228D01*
X0117453Y0197276D01*
X0117482Y0197325D01*
X0117508Y0197377D01*
X0117530Y0197430D01*
X0117549Y0197484D01*
X0117565Y0197539D01*
X0117576Y0197596D01*
X0117584Y0197653D01*
X0117588Y0197710D01*
X0117588Y0197768D01*
X0117584Y0197825D01*
X0117576Y0197882D01*
X0117565Y0197939D01*
X0117549Y0197994D01*
X0117530Y0198048D01*
X0117508Y0198101D01*
X0117482Y0198153D01*
X0117453Y0198202D01*
X0117420Y0198250D01*
X0117385Y0198295D01*
X0117346Y0198338D01*
X0117305Y0198378D01*
X0117261Y0198415D01*
X0117214Y0198449D01*
X0117166Y0198480D01*
X0117115Y0198507D01*
X0117063Y0198532D01*
X0117009Y0198552D01*
X0116954Y0198569D01*
X0116898Y0198583D01*
X0116842Y0198592D01*
X0116785Y0198598D01*
X0116727Y0198600D01*
X0116899Y0198600D02*
X0116210Y0198600D01*
X0116899Y0198600D02*
X0116950Y0198602D01*
X0117002Y0198608D01*
X0117052Y0198617D01*
X0117102Y0198631D01*
X0117151Y0198648D01*
X0117198Y0198668D01*
X0117244Y0198692D01*
X0117287Y0198720D01*
X0117329Y0198750D01*
X0117368Y0198784D01*
X0117404Y0198820D01*
X0117438Y0198859D01*
X0117468Y0198901D01*
X0117496Y0198945D01*
X0117520Y0198990D01*
X0117540Y0199037D01*
X0117557Y0199086D01*
X0117571Y0199136D01*
X0117580Y0199186D01*
X0117586Y0199238D01*
X0117588Y0199289D01*
X0117586Y0199340D01*
X0117580Y0199392D01*
X0117571Y0199442D01*
X0117557Y0199492D01*
X0117540Y0199541D01*
X0117520Y0199588D01*
X0117496Y0199634D01*
X0117468Y0199677D01*
X0117438Y0199719D01*
X0117404Y0199758D01*
X0117368Y0199794D01*
X0117329Y0199828D01*
X0117287Y0199858D01*
X0117244Y0199886D01*
X0117198Y0199910D01*
X0117151Y0199930D01*
X0117102Y0199947D01*
X0117052Y0199961D01*
X0117002Y0199970D01*
X0116950Y0199976D01*
X0116899Y0199978D01*
X0115866Y0199978D01*
X0119294Y0199978D02*
X0120327Y0196878D01*
X0121360Y0199978D01*
X0123134Y0198600D02*
X0125200Y0198600D01*
X0125200Y0197567D02*
X0123134Y0197567D01*
X0122963Y0195353D02*
X0124341Y0195353D01*
X0124341Y0193975D02*
X0122963Y0193975D01*
X0122963Y0195353D02*
X0122963Y0192253D01*
X0121221Y0193975D02*
X0119843Y0193975D01*
X0119843Y0195353D02*
X0121221Y0195353D01*
X0119843Y0195353D02*
X0119843Y0192253D01*
X0125241Y0190603D02*
X0125241Y0187503D01*
X0126102Y0187503D01*
X0126158Y0187505D01*
X0126214Y0187510D01*
X0126270Y0187520D01*
X0126325Y0187532D01*
X0126379Y0187549D01*
X0126431Y0187569D01*
X0126483Y0187592D01*
X0126533Y0187618D01*
X0126580Y0187648D01*
X0126626Y0187681D01*
X0126670Y0187717D01*
X0126711Y0187755D01*
X0126749Y0187796D01*
X0126785Y0187840D01*
X0126818Y0187886D01*
X0126848Y0187934D01*
X0126874Y0187983D01*
X0126897Y0188035D01*
X0126917Y0188087D01*
X0126934Y0188141D01*
X0126946Y0188196D01*
X0126956Y0188252D01*
X0126961Y0188308D01*
X0126963Y0188364D01*
X0126963Y0189742D01*
X0126961Y0189798D01*
X0126956Y0189854D01*
X0126946Y0189910D01*
X0126934Y0189965D01*
X0126917Y0190019D01*
X0126897Y0190071D01*
X0126874Y0190123D01*
X0126848Y0190172D01*
X0126818Y0190220D01*
X0126785Y0190266D01*
X0126749Y0190310D01*
X0126711Y0190351D01*
X0126670Y0190389D01*
X0126626Y0190425D01*
X0126580Y0190458D01*
X0126533Y0190488D01*
X0126483Y0190514D01*
X0126431Y0190537D01*
X0126379Y0190557D01*
X0126325Y0190574D01*
X0126270Y0190586D01*
X0126214Y0190596D01*
X0126158Y0190601D01*
X0126102Y0190603D01*
X0125241Y0190603D01*
X0128961Y0189914D02*
X0129822Y0190603D01*
X0129822Y0187503D01*
X0128961Y0187503D02*
X0130683Y0187503D01*
X0136116Y0189686D02*
X0138527Y0189686D01*
X0138578Y0189684D01*
X0138630Y0189678D01*
X0138680Y0189669D01*
X0138730Y0189655D01*
X0138779Y0189638D01*
X0138826Y0189618D01*
X0138872Y0189594D01*
X0138915Y0189566D01*
X0138957Y0189536D01*
X0138996Y0189502D01*
X0139032Y0189466D01*
X0139066Y0189427D01*
X0139096Y0189385D01*
X0139124Y0189342D01*
X0139148Y0189296D01*
X0139168Y0189249D01*
X0139185Y0189200D01*
X0139199Y0189150D01*
X0139208Y0189100D01*
X0139214Y0189048D01*
X0139216Y0188997D01*
X0139216Y0188653D01*
X0139216Y0191878D02*
X0136116Y0191878D01*
X0136116Y0192739D01*
X0136118Y0192797D01*
X0136124Y0192854D01*
X0136133Y0192910D01*
X0136147Y0192966D01*
X0136164Y0193021D01*
X0136184Y0193075D01*
X0136209Y0193127D01*
X0136236Y0193178D01*
X0136267Y0193226D01*
X0136301Y0193273D01*
X0136338Y0193317D01*
X0136378Y0193358D01*
X0136421Y0193397D01*
X0136466Y0193432D01*
X0136514Y0193465D01*
X0136563Y0193494D01*
X0136615Y0193520D01*
X0136668Y0193542D01*
X0136722Y0193561D01*
X0136777Y0193577D01*
X0136834Y0193588D01*
X0136891Y0193596D01*
X0136948Y0193600D01*
X0137006Y0193600D01*
X0137063Y0193596D01*
X0137120Y0193588D01*
X0137177Y0193577D01*
X0137232Y0193561D01*
X0137286Y0193542D01*
X0137339Y0193520D01*
X0137391Y0193494D01*
X0137440Y0193465D01*
X0137488Y0193432D01*
X0137533Y0193397D01*
X0137576Y0193358D01*
X0137616Y0193317D01*
X0137653Y0193273D01*
X0137687Y0193226D01*
X0137718Y0193178D01*
X0137745Y0193127D01*
X0137770Y0193075D01*
X0137790Y0193021D01*
X0137807Y0192966D01*
X0137821Y0192910D01*
X0137830Y0192854D01*
X0137836Y0192797D01*
X0137838Y0192739D01*
X0137838Y0191878D01*
X0136805Y0195256D02*
X0136116Y0196117D01*
X0139216Y0196117D01*
X0139216Y0195256D02*
X0139216Y0196978D01*
X0150305Y0213128D02*
X0150994Y0213128D01*
X0150305Y0213128D02*
X0150254Y0213130D01*
X0150202Y0213136D01*
X0150152Y0213145D01*
X0150102Y0213159D01*
X0150053Y0213176D01*
X0150006Y0213196D01*
X0149961Y0213220D01*
X0149917Y0213248D01*
X0149875Y0213278D01*
X0149836Y0213312D01*
X0149800Y0213348D01*
X0149766Y0213387D01*
X0149736Y0213429D01*
X0149708Y0213473D01*
X0149684Y0213518D01*
X0149664Y0213565D01*
X0149647Y0213614D01*
X0149633Y0213664D01*
X0149624Y0213714D01*
X0149618Y0213766D01*
X0149616Y0213817D01*
X0149616Y0215539D01*
X0149618Y0215590D01*
X0149624Y0215642D01*
X0149633Y0215692D01*
X0149647Y0215742D01*
X0149664Y0215791D01*
X0149684Y0215838D01*
X0149708Y0215883D01*
X0149736Y0215927D01*
X0149766Y0215969D01*
X0149800Y0216008D01*
X0149836Y0216044D01*
X0149875Y0216078D01*
X0149917Y0216108D01*
X0149960Y0216136D01*
X0150006Y0216160D01*
X0150053Y0216180D01*
X0150102Y0216197D01*
X0150152Y0216211D01*
X0150202Y0216220D01*
X0150253Y0216226D01*
X0150305Y0216228D01*
X0150994Y0216228D01*
X0152616Y0215539D02*
X0152616Y0213817D01*
X0152618Y0213766D01*
X0152624Y0213714D01*
X0152633Y0213664D01*
X0152647Y0213614D01*
X0152664Y0213565D01*
X0152684Y0213518D01*
X0152708Y0213473D01*
X0152736Y0213429D01*
X0152766Y0213387D01*
X0152800Y0213348D01*
X0152836Y0213312D01*
X0152875Y0213278D01*
X0152917Y0213248D01*
X0152961Y0213220D01*
X0153006Y0213196D01*
X0153053Y0213176D01*
X0153102Y0213159D01*
X0153152Y0213145D01*
X0153202Y0213136D01*
X0153254Y0213130D01*
X0153305Y0213128D01*
X0153994Y0213128D01*
X0155636Y0213128D02*
X0157358Y0213128D01*
X0156497Y0213128D02*
X0156497Y0216228D01*
X0155636Y0215539D01*
X0153994Y0216228D02*
X0153305Y0216228D01*
X0153253Y0216226D01*
X0153202Y0216220D01*
X0153152Y0216211D01*
X0153102Y0216197D01*
X0153053Y0216180D01*
X0153006Y0216160D01*
X0152960Y0216136D01*
X0152917Y0216108D01*
X0152875Y0216078D01*
X0152836Y0216044D01*
X0152800Y0216008D01*
X0152766Y0215969D01*
X0152736Y0215927D01*
X0152708Y0215883D01*
X0152684Y0215838D01*
X0152664Y0215791D01*
X0152647Y0215742D01*
X0152633Y0215692D01*
X0152624Y0215642D01*
X0152618Y0215590D01*
X0152616Y0215539D01*
X0123759Y0216100D02*
X0123070Y0216100D01*
X0123759Y0216100D02*
X0123810Y0216102D01*
X0123862Y0216108D01*
X0123912Y0216117D01*
X0123962Y0216131D01*
X0124011Y0216148D01*
X0124058Y0216168D01*
X0124104Y0216192D01*
X0124147Y0216220D01*
X0124189Y0216250D01*
X0124228Y0216284D01*
X0124264Y0216320D01*
X0124298Y0216359D01*
X0124328Y0216401D01*
X0124356Y0216445D01*
X0124380Y0216490D01*
X0124400Y0216537D01*
X0124417Y0216586D01*
X0124431Y0216636D01*
X0124440Y0216686D01*
X0124446Y0216738D01*
X0124448Y0216789D01*
X0124446Y0216840D01*
X0124440Y0216892D01*
X0124431Y0216942D01*
X0124417Y0216992D01*
X0124400Y0217041D01*
X0124380Y0217088D01*
X0124356Y0217134D01*
X0124328Y0217177D01*
X0124298Y0217219D01*
X0124264Y0217258D01*
X0124228Y0217294D01*
X0124189Y0217328D01*
X0124147Y0217358D01*
X0124104Y0217386D01*
X0124058Y0217410D01*
X0124011Y0217430D01*
X0123962Y0217447D01*
X0123912Y0217461D01*
X0123862Y0217470D01*
X0123810Y0217476D01*
X0123759Y0217478D01*
X0122726Y0217478D01*
X0120728Y0217478D02*
X0120728Y0214378D01*
X0119006Y0217478D01*
X0119006Y0214378D01*
X0117244Y0214378D02*
X0116555Y0214378D01*
X0116504Y0214380D01*
X0116452Y0214386D01*
X0116402Y0214395D01*
X0116352Y0214409D01*
X0116303Y0214426D01*
X0116256Y0214446D01*
X0116211Y0214470D01*
X0116167Y0214498D01*
X0116125Y0214528D01*
X0116086Y0214562D01*
X0116050Y0214598D01*
X0116016Y0214637D01*
X0115986Y0214679D01*
X0115958Y0214723D01*
X0115934Y0214768D01*
X0115914Y0214815D01*
X0115897Y0214864D01*
X0115883Y0214914D01*
X0115874Y0214964D01*
X0115868Y0215016D01*
X0115866Y0215067D01*
X0115866Y0216789D01*
X0115868Y0216840D01*
X0115874Y0216892D01*
X0115883Y0216942D01*
X0115897Y0216992D01*
X0115914Y0217041D01*
X0115934Y0217088D01*
X0115958Y0217133D01*
X0115986Y0217177D01*
X0116016Y0217219D01*
X0116050Y0217258D01*
X0116086Y0217294D01*
X0116125Y0217328D01*
X0116167Y0217358D01*
X0116210Y0217386D01*
X0116256Y0217410D01*
X0116303Y0217430D01*
X0116352Y0217447D01*
X0116402Y0217461D01*
X0116452Y0217470D01*
X0116503Y0217476D01*
X0116555Y0217478D01*
X0117244Y0217478D01*
X0122726Y0214378D02*
X0123587Y0214378D01*
X0123645Y0214380D01*
X0123702Y0214386D01*
X0123758Y0214395D01*
X0123814Y0214409D01*
X0123869Y0214426D01*
X0123923Y0214446D01*
X0123975Y0214471D01*
X0124026Y0214498D01*
X0124074Y0214529D01*
X0124121Y0214563D01*
X0124165Y0214600D01*
X0124206Y0214640D01*
X0124245Y0214683D01*
X0124280Y0214728D01*
X0124313Y0214776D01*
X0124342Y0214825D01*
X0124368Y0214877D01*
X0124390Y0214930D01*
X0124409Y0214984D01*
X0124425Y0215039D01*
X0124436Y0215096D01*
X0124444Y0215153D01*
X0124448Y0215210D01*
X0124448Y0215268D01*
X0124444Y0215325D01*
X0124436Y0215382D01*
X0124425Y0215439D01*
X0124409Y0215494D01*
X0124390Y0215548D01*
X0124368Y0215601D01*
X0124342Y0215653D01*
X0124313Y0215702D01*
X0124280Y0215750D01*
X0124245Y0215795D01*
X0124206Y0215838D01*
X0124165Y0215878D01*
X0124121Y0215915D01*
X0124074Y0215949D01*
X0124026Y0215980D01*
X0123975Y0216007D01*
X0123923Y0216032D01*
X0123869Y0216052D01*
X0123814Y0216069D01*
X0123758Y0216083D01*
X0123702Y0216092D01*
X0123645Y0216098D01*
X0123587Y0216100D01*
X0163991Y0183242D02*
X0163991Y0181864D01*
X0163993Y0181806D01*
X0163999Y0181749D01*
X0164008Y0181693D01*
X0164022Y0181637D01*
X0164039Y0181582D01*
X0164059Y0181528D01*
X0164084Y0181476D01*
X0164111Y0181425D01*
X0164142Y0181377D01*
X0164176Y0181330D01*
X0164213Y0181286D01*
X0164253Y0181245D01*
X0164296Y0181206D01*
X0164341Y0181171D01*
X0164389Y0181138D01*
X0164438Y0181109D01*
X0164490Y0181083D01*
X0164543Y0181061D01*
X0164597Y0181042D01*
X0164652Y0181026D01*
X0164709Y0181015D01*
X0164766Y0181007D01*
X0164823Y0181003D01*
X0164881Y0181003D01*
X0164938Y0181007D01*
X0164995Y0181015D01*
X0165052Y0181026D01*
X0165107Y0181042D01*
X0165161Y0181061D01*
X0165214Y0181083D01*
X0165266Y0181109D01*
X0165315Y0181138D01*
X0165363Y0181171D01*
X0165408Y0181206D01*
X0165451Y0181245D01*
X0165491Y0181286D01*
X0165528Y0181330D01*
X0165562Y0181377D01*
X0165593Y0181425D01*
X0165620Y0181476D01*
X0165645Y0181528D01*
X0165665Y0181582D01*
X0165682Y0181637D01*
X0165696Y0181693D01*
X0165705Y0181749D01*
X0165711Y0181806D01*
X0165713Y0181864D01*
X0165713Y0183242D01*
X0165711Y0183300D01*
X0165705Y0183357D01*
X0165696Y0183413D01*
X0165682Y0183469D01*
X0165665Y0183524D01*
X0165645Y0183578D01*
X0165620Y0183630D01*
X0165593Y0183681D01*
X0165562Y0183729D01*
X0165528Y0183776D01*
X0165491Y0183820D01*
X0165451Y0183861D01*
X0165408Y0183900D01*
X0165363Y0183935D01*
X0165315Y0183968D01*
X0165266Y0183997D01*
X0165214Y0184023D01*
X0165161Y0184045D01*
X0165107Y0184064D01*
X0165052Y0184080D01*
X0164995Y0184091D01*
X0164938Y0184099D01*
X0164881Y0184103D01*
X0164823Y0184103D01*
X0164766Y0184099D01*
X0164709Y0184091D01*
X0164652Y0184080D01*
X0164597Y0184064D01*
X0164543Y0184045D01*
X0164490Y0184023D01*
X0164438Y0183997D01*
X0164389Y0183968D01*
X0164341Y0183935D01*
X0164296Y0183900D01*
X0164253Y0183861D01*
X0164213Y0183820D01*
X0164176Y0183776D01*
X0164142Y0183729D01*
X0164111Y0183681D01*
X0164084Y0183630D01*
X0164059Y0183578D01*
X0164039Y0183524D01*
X0164022Y0183469D01*
X0164008Y0183413D01*
X0163999Y0183357D01*
X0163993Y0183300D01*
X0163991Y0183242D01*
X0167403Y0183070D02*
X0168092Y0181003D01*
X0168781Y0183070D01*
X0170403Y0182381D02*
X0170403Y0181520D01*
X0170403Y0182036D02*
X0171781Y0182036D01*
X0171781Y0182381D01*
X0171779Y0182432D01*
X0171773Y0182484D01*
X0171764Y0182534D01*
X0171750Y0182584D01*
X0171733Y0182633D01*
X0171713Y0182680D01*
X0171689Y0182726D01*
X0171661Y0182769D01*
X0171631Y0182811D01*
X0171597Y0182850D01*
X0171561Y0182886D01*
X0171522Y0182920D01*
X0171480Y0182950D01*
X0171437Y0182978D01*
X0171391Y0183002D01*
X0171344Y0183022D01*
X0171295Y0183039D01*
X0171245Y0183053D01*
X0171195Y0183062D01*
X0171143Y0183068D01*
X0171092Y0183070D01*
X0171041Y0183068D01*
X0170989Y0183062D01*
X0170939Y0183053D01*
X0170889Y0183039D01*
X0170840Y0183022D01*
X0170793Y0183002D01*
X0170748Y0182978D01*
X0170704Y0182950D01*
X0170662Y0182920D01*
X0170623Y0182886D01*
X0170587Y0182850D01*
X0170553Y0182811D01*
X0170523Y0182769D01*
X0170495Y0182726D01*
X0170471Y0182680D01*
X0170451Y0182633D01*
X0170434Y0182584D01*
X0170420Y0182534D01*
X0170411Y0182484D01*
X0170405Y0182432D01*
X0170403Y0182381D01*
X0170403Y0181520D02*
X0170405Y0181477D01*
X0170410Y0181435D01*
X0170419Y0181393D01*
X0170431Y0181352D01*
X0170447Y0181312D01*
X0170465Y0181274D01*
X0170487Y0181237D01*
X0170512Y0181202D01*
X0170540Y0181170D01*
X0170570Y0181140D01*
X0170602Y0181112D01*
X0170637Y0181087D01*
X0170674Y0181065D01*
X0170712Y0181047D01*
X0170752Y0181031D01*
X0170793Y0181019D01*
X0170835Y0181010D01*
X0170877Y0181005D01*
X0170920Y0181003D01*
X0171781Y0181003D01*
X0173683Y0181003D02*
X0173683Y0183070D01*
X0174716Y0183070D01*
X0174716Y0182725D01*
X0176111Y0183414D02*
X0176972Y0184103D01*
X0176972Y0181003D01*
X0176111Y0181003D02*
X0177833Y0181003D01*
X0181175Y0181433D02*
X0181215Y0181521D01*
X0181253Y0181610D01*
X0181287Y0181700D01*
X0181317Y0181792D01*
X0181344Y0181885D01*
X0181368Y0181978D01*
X0181388Y0182073D01*
X0181404Y0182168D01*
X0181417Y0182264D01*
X0181426Y0182360D01*
X0181431Y0182456D01*
X0181433Y0182553D01*
X0179710Y0182553D02*
X0179712Y0182650D01*
X0179717Y0182746D01*
X0179726Y0182842D01*
X0179739Y0182938D01*
X0179755Y0183033D01*
X0179775Y0183128D01*
X0179799Y0183221D01*
X0179826Y0183314D01*
X0179856Y0183406D01*
X0179890Y0183496D01*
X0179928Y0183585D01*
X0179968Y0183673D01*
X0180572Y0184103D02*
X0180621Y0184101D01*
X0180670Y0184095D01*
X0180719Y0184086D01*
X0180766Y0184073D01*
X0180813Y0184056D01*
X0180858Y0184035D01*
X0180901Y0184011D01*
X0180942Y0183984D01*
X0180981Y0183954D01*
X0181018Y0183921D01*
X0181052Y0183885D01*
X0181083Y0183847D01*
X0181111Y0183806D01*
X0181135Y0183763D01*
X0181157Y0183719D01*
X0181175Y0183673D01*
X0181261Y0183414D02*
X0179883Y0181692D01*
X0179969Y0181433D02*
X0179987Y0181387D01*
X0180009Y0181343D01*
X0180033Y0181300D01*
X0180061Y0181259D01*
X0180092Y0181221D01*
X0180126Y0181185D01*
X0180163Y0181152D01*
X0180202Y0181122D01*
X0180243Y0181095D01*
X0180286Y0181071D01*
X0180331Y0181050D01*
X0180378Y0181033D01*
X0180425Y0181020D01*
X0180474Y0181011D01*
X0180523Y0181005D01*
X0180572Y0181003D01*
X0180621Y0181005D01*
X0180670Y0181011D01*
X0180719Y0181020D01*
X0180766Y0181033D01*
X0180813Y0181050D01*
X0180858Y0181071D01*
X0180901Y0181095D01*
X0180942Y0181122D01*
X0180981Y0181152D01*
X0181018Y0181185D01*
X0181052Y0181221D01*
X0181083Y0181259D01*
X0181111Y0181300D01*
X0181135Y0181343D01*
X0181157Y0181387D01*
X0181175Y0181433D01*
X0179969Y0181433D02*
X0179929Y0181521D01*
X0179891Y0181610D01*
X0179857Y0181700D01*
X0179827Y0181792D01*
X0179800Y0181885D01*
X0179776Y0181978D01*
X0179756Y0182073D01*
X0179740Y0182168D01*
X0179727Y0182264D01*
X0179718Y0182360D01*
X0179713Y0182456D01*
X0179711Y0182553D01*
X0181434Y0182553D02*
X0181432Y0182650D01*
X0181427Y0182746D01*
X0181418Y0182842D01*
X0181405Y0182938D01*
X0181388Y0183033D01*
X0181369Y0183128D01*
X0181345Y0183221D01*
X0181318Y0183314D01*
X0181288Y0183406D01*
X0181254Y0183496D01*
X0181216Y0183585D01*
X0181176Y0183673D01*
X0180572Y0184103D02*
X0180523Y0184101D01*
X0180474Y0184095D01*
X0180425Y0184086D01*
X0180378Y0184073D01*
X0180331Y0184056D01*
X0180286Y0184035D01*
X0180243Y0184011D01*
X0180202Y0183984D01*
X0180163Y0183954D01*
X0180126Y0183921D01*
X0180092Y0183885D01*
X0180061Y0183847D01*
X0180033Y0183806D01*
X0180009Y0183763D01*
X0179987Y0183719D01*
X0179969Y0183673D01*
X0185033Y0182553D02*
X0185031Y0182456D01*
X0185026Y0182360D01*
X0185017Y0182264D01*
X0185004Y0182168D01*
X0184988Y0182073D01*
X0184968Y0181978D01*
X0184944Y0181885D01*
X0184917Y0181792D01*
X0184887Y0181700D01*
X0184853Y0181610D01*
X0184815Y0181521D01*
X0184775Y0181433D01*
X0184757Y0181387D01*
X0184735Y0181343D01*
X0184711Y0181300D01*
X0184683Y0181259D01*
X0184652Y0181221D01*
X0184618Y0181185D01*
X0184581Y0181152D01*
X0184542Y0181122D01*
X0184501Y0181095D01*
X0184458Y0181071D01*
X0184413Y0181050D01*
X0184366Y0181033D01*
X0184319Y0181020D01*
X0184270Y0181011D01*
X0184221Y0181005D01*
X0184172Y0181003D01*
X0184123Y0181005D01*
X0184074Y0181011D01*
X0184025Y0181020D01*
X0183978Y0181033D01*
X0183931Y0181050D01*
X0183886Y0181071D01*
X0183843Y0181095D01*
X0183802Y0181122D01*
X0183763Y0181152D01*
X0183726Y0181185D01*
X0183692Y0181221D01*
X0183661Y0181259D01*
X0183633Y0181300D01*
X0183609Y0181343D01*
X0183587Y0181387D01*
X0183569Y0181433D01*
X0183483Y0181692D02*
X0184861Y0183414D01*
X0184775Y0183673D02*
X0184757Y0183719D01*
X0184735Y0183763D01*
X0184711Y0183806D01*
X0184683Y0183847D01*
X0184652Y0183885D01*
X0184618Y0183921D01*
X0184581Y0183954D01*
X0184542Y0183984D01*
X0184501Y0184011D01*
X0184458Y0184035D01*
X0184413Y0184056D01*
X0184366Y0184073D01*
X0184319Y0184086D01*
X0184270Y0184095D01*
X0184221Y0184101D01*
X0184172Y0184103D01*
X0184123Y0184101D01*
X0184074Y0184095D01*
X0184025Y0184086D01*
X0183978Y0184073D01*
X0183931Y0184056D01*
X0183886Y0184035D01*
X0183843Y0184011D01*
X0183802Y0183984D01*
X0183763Y0183954D01*
X0183726Y0183921D01*
X0183692Y0183885D01*
X0183661Y0183847D01*
X0183633Y0183806D01*
X0183609Y0183763D01*
X0183587Y0183719D01*
X0183569Y0183673D01*
X0184776Y0183673D02*
X0184816Y0183585D01*
X0184854Y0183496D01*
X0184888Y0183406D01*
X0184918Y0183314D01*
X0184945Y0183221D01*
X0184969Y0183128D01*
X0184988Y0183033D01*
X0185005Y0182938D01*
X0185018Y0182842D01*
X0185027Y0182746D01*
X0185032Y0182650D01*
X0185034Y0182553D01*
X0183310Y0182553D02*
X0183312Y0182650D01*
X0183317Y0182746D01*
X0183326Y0182842D01*
X0183339Y0182938D01*
X0183355Y0183033D01*
X0183375Y0183128D01*
X0183399Y0183221D01*
X0183426Y0183314D01*
X0183456Y0183406D01*
X0183490Y0183496D01*
X0183528Y0183585D01*
X0183568Y0183673D01*
X0183311Y0182553D02*
X0183313Y0182456D01*
X0183318Y0182360D01*
X0183327Y0182264D01*
X0183340Y0182168D01*
X0183356Y0182073D01*
X0183376Y0181978D01*
X0183400Y0181885D01*
X0183427Y0181792D01*
X0183457Y0181700D01*
X0183491Y0181610D01*
X0183529Y0181521D01*
X0183569Y0181433D01*
X0186963Y0181520D02*
X0186963Y0183070D01*
X0188341Y0183070D02*
X0188341Y0181003D01*
X0187480Y0181003D01*
X0187437Y0181005D01*
X0187395Y0181010D01*
X0187353Y0181019D01*
X0187312Y0181031D01*
X0187272Y0181047D01*
X0187234Y0181065D01*
X0187197Y0181087D01*
X0187162Y0181112D01*
X0187130Y0181140D01*
X0187100Y0181170D01*
X0187072Y0181202D01*
X0187047Y0181237D01*
X0187025Y0181274D01*
X0187007Y0181312D01*
X0186991Y0181352D01*
X0186979Y0181393D01*
X0186970Y0181435D01*
X0186965Y0181477D01*
X0186963Y0181520D01*
X0190404Y0181003D02*
X0190404Y0184103D01*
X0191782Y0184103D01*
X0191782Y0182725D02*
X0190404Y0182725D01*
X0176685Y0178103D02*
X0175652Y0175003D01*
X0174619Y0178103D01*
X0171191Y0176553D02*
X0171193Y0176456D01*
X0171198Y0176360D01*
X0171207Y0176264D01*
X0171220Y0176168D01*
X0171236Y0176073D01*
X0171256Y0175978D01*
X0171280Y0175885D01*
X0171307Y0175792D01*
X0171337Y0175700D01*
X0171371Y0175610D01*
X0171409Y0175521D01*
X0171449Y0175433D01*
X0171363Y0175692D02*
X0172741Y0177414D01*
X0172655Y0177673D02*
X0172637Y0177719D01*
X0172615Y0177763D01*
X0172591Y0177806D01*
X0172563Y0177847D01*
X0172532Y0177885D01*
X0172498Y0177921D01*
X0172461Y0177954D01*
X0172422Y0177984D01*
X0172381Y0178011D01*
X0172338Y0178035D01*
X0172293Y0178056D01*
X0172246Y0178073D01*
X0172199Y0178086D01*
X0172150Y0178095D01*
X0172101Y0178101D01*
X0172052Y0178103D01*
X0172003Y0178101D01*
X0171954Y0178095D01*
X0171905Y0178086D01*
X0171858Y0178073D01*
X0171811Y0178056D01*
X0171766Y0178035D01*
X0171723Y0178011D01*
X0171682Y0177984D01*
X0171643Y0177954D01*
X0171606Y0177921D01*
X0171572Y0177885D01*
X0171541Y0177847D01*
X0171513Y0177806D01*
X0171489Y0177763D01*
X0171467Y0177719D01*
X0171449Y0177673D01*
X0172656Y0177673D02*
X0172696Y0177585D01*
X0172734Y0177496D01*
X0172768Y0177406D01*
X0172798Y0177314D01*
X0172825Y0177221D01*
X0172849Y0177128D01*
X0172868Y0177033D01*
X0172885Y0176938D01*
X0172898Y0176842D01*
X0172907Y0176746D01*
X0172912Y0176650D01*
X0172914Y0176553D01*
X0171191Y0176553D02*
X0171193Y0176650D01*
X0171198Y0176746D01*
X0171207Y0176842D01*
X0171220Y0176938D01*
X0171236Y0177033D01*
X0171256Y0177128D01*
X0171280Y0177221D01*
X0171307Y0177314D01*
X0171337Y0177406D01*
X0171371Y0177496D01*
X0171409Y0177585D01*
X0171449Y0177673D01*
X0172913Y0176553D02*
X0172911Y0176456D01*
X0172906Y0176360D01*
X0172897Y0176264D01*
X0172884Y0176168D01*
X0172868Y0176073D01*
X0172848Y0175978D01*
X0172824Y0175885D01*
X0172797Y0175792D01*
X0172767Y0175700D01*
X0172733Y0175610D01*
X0172695Y0175521D01*
X0172655Y0175433D01*
X0172637Y0175387D01*
X0172615Y0175343D01*
X0172591Y0175300D01*
X0172563Y0175259D01*
X0172532Y0175221D01*
X0172498Y0175185D01*
X0172461Y0175152D01*
X0172422Y0175122D01*
X0172381Y0175095D01*
X0172338Y0175071D01*
X0172293Y0175050D01*
X0172246Y0175033D01*
X0172199Y0175020D01*
X0172150Y0175011D01*
X0172101Y0175005D01*
X0172052Y0175003D01*
X0172003Y0175005D01*
X0171954Y0175011D01*
X0171905Y0175020D01*
X0171858Y0175033D01*
X0171811Y0175050D01*
X0171766Y0175071D01*
X0171723Y0175095D01*
X0171682Y0175122D01*
X0171643Y0175152D01*
X0171606Y0175185D01*
X0171572Y0175221D01*
X0171541Y0175259D01*
X0171513Y0175300D01*
X0171489Y0175343D01*
X0171467Y0175387D01*
X0171449Y0175433D01*
X0167849Y0175433D02*
X0167809Y0175521D01*
X0167771Y0175610D01*
X0167737Y0175700D01*
X0167707Y0175792D01*
X0167680Y0175885D01*
X0167656Y0175978D01*
X0167636Y0176073D01*
X0167620Y0176168D01*
X0167607Y0176264D01*
X0167598Y0176360D01*
X0167593Y0176456D01*
X0167591Y0176553D01*
X0169314Y0176553D02*
X0169312Y0176650D01*
X0169307Y0176746D01*
X0169298Y0176842D01*
X0169285Y0176938D01*
X0169268Y0177033D01*
X0169249Y0177128D01*
X0169225Y0177221D01*
X0169198Y0177314D01*
X0169168Y0177406D01*
X0169134Y0177496D01*
X0169096Y0177585D01*
X0169056Y0177673D01*
X0169141Y0177414D02*
X0167763Y0175692D01*
X0167849Y0175433D02*
X0167867Y0175387D01*
X0167889Y0175343D01*
X0167913Y0175300D01*
X0167941Y0175259D01*
X0167972Y0175221D01*
X0168006Y0175185D01*
X0168043Y0175152D01*
X0168082Y0175122D01*
X0168123Y0175095D01*
X0168166Y0175071D01*
X0168211Y0175050D01*
X0168258Y0175033D01*
X0168305Y0175020D01*
X0168354Y0175011D01*
X0168403Y0175005D01*
X0168452Y0175003D01*
X0168501Y0175005D01*
X0168550Y0175011D01*
X0168599Y0175020D01*
X0168646Y0175033D01*
X0168693Y0175050D01*
X0168738Y0175071D01*
X0168781Y0175095D01*
X0168822Y0175122D01*
X0168861Y0175152D01*
X0168898Y0175185D01*
X0168932Y0175221D01*
X0168963Y0175259D01*
X0168991Y0175300D01*
X0169015Y0175343D01*
X0169037Y0175387D01*
X0169055Y0175433D01*
X0167591Y0176553D02*
X0167593Y0176650D01*
X0167598Y0176746D01*
X0167607Y0176842D01*
X0167620Y0176938D01*
X0167636Y0177033D01*
X0167656Y0177128D01*
X0167680Y0177221D01*
X0167707Y0177314D01*
X0167737Y0177406D01*
X0167771Y0177496D01*
X0167809Y0177585D01*
X0167849Y0177673D01*
X0168452Y0178103D02*
X0168501Y0178101D01*
X0168550Y0178095D01*
X0168599Y0178086D01*
X0168646Y0178073D01*
X0168693Y0178056D01*
X0168738Y0178035D01*
X0168781Y0178011D01*
X0168822Y0177984D01*
X0168861Y0177954D01*
X0168898Y0177921D01*
X0168932Y0177885D01*
X0168963Y0177847D01*
X0168991Y0177806D01*
X0169015Y0177763D01*
X0169037Y0177719D01*
X0169055Y0177673D01*
X0168452Y0178103D02*
X0168403Y0178101D01*
X0168354Y0178095D01*
X0168305Y0178086D01*
X0168258Y0178073D01*
X0168211Y0178056D01*
X0168166Y0178035D01*
X0168123Y0178011D01*
X0168082Y0177984D01*
X0168043Y0177954D01*
X0168006Y0177921D01*
X0167972Y0177885D01*
X0167941Y0177847D01*
X0167913Y0177806D01*
X0167889Y0177763D01*
X0167867Y0177719D01*
X0167849Y0177673D01*
X0169313Y0176553D02*
X0169311Y0176456D01*
X0169306Y0176360D01*
X0169297Y0176264D01*
X0169284Y0176168D01*
X0169268Y0176073D01*
X0169248Y0175978D01*
X0169224Y0175885D01*
X0169197Y0175792D01*
X0169167Y0175700D01*
X0169133Y0175610D01*
X0169095Y0175521D01*
X0169055Y0175433D01*
X0165713Y0175003D02*
X0163991Y0175003D01*
X0164852Y0175003D02*
X0164852Y0178103D01*
X0163991Y0177414D01*
X0199616Y0208128D02*
X0200994Y0208128D01*
X0199616Y0208128D02*
X0199616Y0211228D01*
X0202736Y0211228D02*
X0204114Y0211228D01*
X0202736Y0211228D02*
X0202736Y0208128D01*
X0204114Y0208128D01*
X0205842Y0208128D02*
X0206703Y0208128D01*
X0205842Y0208128D02*
X0205842Y0211228D01*
X0206703Y0211228D01*
X0206759Y0211226D01*
X0206815Y0211221D01*
X0206871Y0211211D01*
X0206926Y0211199D01*
X0206980Y0211182D01*
X0207032Y0211162D01*
X0207084Y0211139D01*
X0207134Y0211113D01*
X0207181Y0211083D01*
X0207227Y0211050D01*
X0207271Y0211014D01*
X0207312Y0210976D01*
X0207350Y0210935D01*
X0207386Y0210891D01*
X0207419Y0210845D01*
X0207449Y0210797D01*
X0207475Y0210748D01*
X0207498Y0210696D01*
X0207518Y0210644D01*
X0207535Y0210590D01*
X0207547Y0210535D01*
X0207557Y0210479D01*
X0207562Y0210423D01*
X0207564Y0210367D01*
X0207565Y0210367D02*
X0207565Y0208989D01*
X0207564Y0208989D02*
X0207562Y0208933D01*
X0207557Y0208877D01*
X0207547Y0208821D01*
X0207535Y0208766D01*
X0207518Y0208712D01*
X0207498Y0208660D01*
X0207475Y0208608D01*
X0207449Y0208559D01*
X0207419Y0208511D01*
X0207386Y0208465D01*
X0207350Y0208421D01*
X0207312Y0208380D01*
X0207271Y0208342D01*
X0207227Y0208306D01*
X0207181Y0208273D01*
X0207134Y0208243D01*
X0207084Y0208217D01*
X0207032Y0208194D01*
X0206980Y0208174D01*
X0206926Y0208157D01*
X0206871Y0208145D01*
X0206815Y0208135D01*
X0206759Y0208130D01*
X0206703Y0208128D01*
X0209562Y0208128D02*
X0211284Y0208128D01*
X0209562Y0208128D02*
X0211026Y0209850D01*
X0210509Y0211228D02*
X0210449Y0211226D01*
X0210390Y0211221D01*
X0210331Y0211212D01*
X0210273Y0211200D01*
X0210215Y0211184D01*
X0210159Y0211164D01*
X0210104Y0211142D01*
X0210050Y0211116D01*
X0209998Y0211087D01*
X0209948Y0211055D01*
X0209899Y0211020D01*
X0209853Y0210982D01*
X0209810Y0210941D01*
X0209768Y0210898D01*
X0209730Y0210852D01*
X0209694Y0210805D01*
X0209661Y0210755D01*
X0209632Y0210703D01*
X0209605Y0210650D01*
X0209582Y0210595D01*
X0209561Y0210539D01*
X0211026Y0209851D02*
X0211065Y0209891D01*
X0211102Y0209933D01*
X0211135Y0209978D01*
X0211166Y0210025D01*
X0211193Y0210074D01*
X0211217Y0210125D01*
X0211237Y0210178D01*
X0211254Y0210231D01*
X0211267Y0210286D01*
X0211276Y0210341D01*
X0211282Y0210397D01*
X0211284Y0210453D01*
X0211282Y0210508D01*
X0211276Y0210563D01*
X0211266Y0210618D01*
X0211253Y0210671D01*
X0211235Y0210724D01*
X0211214Y0210775D01*
X0211189Y0210824D01*
X0211161Y0210872D01*
X0211129Y0210917D01*
X0211095Y0210961D01*
X0211057Y0211001D01*
X0211017Y0211039D01*
X0210973Y0211073D01*
X0210928Y0211105D01*
X0210880Y0211133D01*
X0210831Y0211158D01*
X0210780Y0211179D01*
X0210727Y0211197D01*
X0210674Y0211210D01*
X0210619Y0211220D01*
X0210564Y0211226D01*
X0210509Y0211228D01*
X0203769Y0209850D02*
X0202736Y0209850D01*
X0209616Y0200992D02*
X0209616Y0199614D01*
X0209618Y0199556D01*
X0209624Y0199499D01*
X0209633Y0199443D01*
X0209647Y0199387D01*
X0209664Y0199332D01*
X0209684Y0199278D01*
X0209709Y0199226D01*
X0209736Y0199175D01*
X0209767Y0199127D01*
X0209801Y0199080D01*
X0209838Y0199036D01*
X0209878Y0198995D01*
X0209921Y0198956D01*
X0209966Y0198921D01*
X0210014Y0198888D01*
X0210063Y0198859D01*
X0210115Y0198833D01*
X0210168Y0198811D01*
X0210222Y0198792D01*
X0210277Y0198776D01*
X0210334Y0198765D01*
X0210391Y0198757D01*
X0210448Y0198753D01*
X0210506Y0198753D01*
X0210563Y0198757D01*
X0210620Y0198765D01*
X0210677Y0198776D01*
X0210732Y0198792D01*
X0210786Y0198811D01*
X0210839Y0198833D01*
X0210891Y0198859D01*
X0210940Y0198888D01*
X0210988Y0198921D01*
X0211033Y0198956D01*
X0211076Y0198995D01*
X0211116Y0199036D01*
X0211153Y0199080D01*
X0211187Y0199127D01*
X0211218Y0199175D01*
X0211245Y0199226D01*
X0211270Y0199278D01*
X0211290Y0199332D01*
X0211307Y0199387D01*
X0211321Y0199443D01*
X0211330Y0199499D01*
X0211336Y0199556D01*
X0211338Y0199614D01*
X0211338Y0200992D01*
X0211336Y0201050D01*
X0211330Y0201107D01*
X0211321Y0201163D01*
X0211307Y0201219D01*
X0211290Y0201274D01*
X0211270Y0201328D01*
X0211245Y0201380D01*
X0211218Y0201431D01*
X0211187Y0201479D01*
X0211153Y0201526D01*
X0211116Y0201570D01*
X0211076Y0201611D01*
X0211033Y0201650D01*
X0210988Y0201685D01*
X0210940Y0201718D01*
X0210891Y0201747D01*
X0210839Y0201773D01*
X0210786Y0201795D01*
X0210732Y0201814D01*
X0210677Y0201830D01*
X0210620Y0201841D01*
X0210563Y0201849D01*
X0210506Y0201853D01*
X0210448Y0201853D01*
X0210391Y0201849D01*
X0210334Y0201841D01*
X0210277Y0201830D01*
X0210222Y0201814D01*
X0210168Y0201795D01*
X0210115Y0201773D01*
X0210063Y0201747D01*
X0210014Y0201718D01*
X0209966Y0201685D01*
X0209921Y0201650D01*
X0209878Y0201611D01*
X0209838Y0201570D01*
X0209801Y0201526D01*
X0209767Y0201479D01*
X0209736Y0201431D01*
X0209709Y0201380D01*
X0209684Y0201328D01*
X0209664Y0201274D01*
X0209647Y0201219D01*
X0209633Y0201163D01*
X0209624Y0201107D01*
X0209618Y0201050D01*
X0209616Y0200992D01*
X0213028Y0200820D02*
X0213717Y0198753D01*
X0214406Y0200820D01*
X0216028Y0200131D02*
X0216028Y0199270D01*
X0216028Y0199786D02*
X0217406Y0199786D01*
X0217406Y0200131D01*
X0217404Y0200182D01*
X0217398Y0200234D01*
X0217389Y0200284D01*
X0217375Y0200334D01*
X0217358Y0200383D01*
X0217338Y0200430D01*
X0217314Y0200476D01*
X0217286Y0200519D01*
X0217256Y0200561D01*
X0217222Y0200600D01*
X0217186Y0200636D01*
X0217147Y0200670D01*
X0217105Y0200700D01*
X0217062Y0200728D01*
X0217016Y0200752D01*
X0216969Y0200772D01*
X0216920Y0200789D01*
X0216870Y0200803D01*
X0216820Y0200812D01*
X0216768Y0200818D01*
X0216717Y0200820D01*
X0216666Y0200818D01*
X0216614Y0200812D01*
X0216564Y0200803D01*
X0216514Y0200789D01*
X0216465Y0200772D01*
X0216418Y0200752D01*
X0216373Y0200728D01*
X0216329Y0200700D01*
X0216287Y0200670D01*
X0216248Y0200636D01*
X0216212Y0200600D01*
X0216178Y0200561D01*
X0216148Y0200519D01*
X0216120Y0200476D01*
X0216096Y0200430D01*
X0216076Y0200383D01*
X0216059Y0200334D01*
X0216045Y0200284D01*
X0216036Y0200234D01*
X0216030Y0200182D01*
X0216028Y0200131D01*
X0216028Y0199270D02*
X0216030Y0199227D01*
X0216035Y0199185D01*
X0216044Y0199143D01*
X0216056Y0199102D01*
X0216072Y0199062D01*
X0216090Y0199024D01*
X0216112Y0198987D01*
X0216137Y0198952D01*
X0216165Y0198920D01*
X0216195Y0198890D01*
X0216227Y0198862D01*
X0216262Y0198837D01*
X0216299Y0198815D01*
X0216337Y0198797D01*
X0216377Y0198781D01*
X0216418Y0198769D01*
X0216460Y0198760D01*
X0216502Y0198755D01*
X0216545Y0198753D01*
X0217406Y0198753D01*
X0219308Y0198753D02*
X0219308Y0200820D01*
X0220341Y0200820D01*
X0220341Y0200475D01*
X0221736Y0198753D02*
X0223458Y0198753D01*
X0221736Y0198753D02*
X0223200Y0200475D01*
X0222683Y0201853D02*
X0222623Y0201851D01*
X0222564Y0201846D01*
X0222505Y0201837D01*
X0222447Y0201825D01*
X0222389Y0201809D01*
X0222333Y0201789D01*
X0222278Y0201767D01*
X0222224Y0201741D01*
X0222172Y0201712D01*
X0222122Y0201680D01*
X0222073Y0201645D01*
X0222027Y0201607D01*
X0221984Y0201566D01*
X0221942Y0201523D01*
X0221904Y0201477D01*
X0221868Y0201430D01*
X0221835Y0201380D01*
X0221806Y0201328D01*
X0221779Y0201275D01*
X0221756Y0201220D01*
X0221735Y0201164D01*
X0223200Y0200476D02*
X0223239Y0200516D01*
X0223276Y0200558D01*
X0223309Y0200603D01*
X0223340Y0200650D01*
X0223367Y0200699D01*
X0223391Y0200750D01*
X0223411Y0200803D01*
X0223428Y0200856D01*
X0223441Y0200911D01*
X0223450Y0200966D01*
X0223456Y0201022D01*
X0223458Y0201078D01*
X0223456Y0201133D01*
X0223450Y0201188D01*
X0223440Y0201243D01*
X0223427Y0201296D01*
X0223409Y0201349D01*
X0223388Y0201400D01*
X0223363Y0201449D01*
X0223335Y0201497D01*
X0223303Y0201542D01*
X0223269Y0201586D01*
X0223231Y0201626D01*
X0223191Y0201664D01*
X0223147Y0201698D01*
X0223102Y0201730D01*
X0223054Y0201758D01*
X0223005Y0201783D01*
X0222954Y0201804D01*
X0222901Y0201822D01*
X0222848Y0201835D01*
X0222793Y0201845D01*
X0222738Y0201851D01*
X0222683Y0201853D01*
X0226800Y0200476D02*
X0226839Y0200516D01*
X0226876Y0200558D01*
X0226909Y0200603D01*
X0226940Y0200650D01*
X0226967Y0200699D01*
X0226991Y0200750D01*
X0227011Y0200803D01*
X0227028Y0200856D01*
X0227041Y0200911D01*
X0227050Y0200966D01*
X0227056Y0201022D01*
X0227058Y0201078D01*
X0226800Y0200475D02*
X0225336Y0198753D01*
X0227058Y0198753D01*
X0225335Y0201164D02*
X0225356Y0201220D01*
X0225379Y0201275D01*
X0225406Y0201328D01*
X0225435Y0201380D01*
X0225468Y0201430D01*
X0225504Y0201477D01*
X0225542Y0201523D01*
X0225584Y0201566D01*
X0225627Y0201607D01*
X0225673Y0201645D01*
X0225722Y0201680D01*
X0225772Y0201712D01*
X0225824Y0201741D01*
X0225878Y0201767D01*
X0225933Y0201789D01*
X0225989Y0201809D01*
X0226047Y0201825D01*
X0226105Y0201837D01*
X0226164Y0201846D01*
X0226223Y0201851D01*
X0226283Y0201853D01*
X0226338Y0201851D01*
X0226393Y0201845D01*
X0226448Y0201835D01*
X0226501Y0201822D01*
X0226554Y0201804D01*
X0226605Y0201783D01*
X0226654Y0201758D01*
X0226702Y0201730D01*
X0226747Y0201698D01*
X0226791Y0201664D01*
X0226831Y0201626D01*
X0226869Y0201586D01*
X0226903Y0201542D01*
X0226935Y0201497D01*
X0226963Y0201449D01*
X0226988Y0201400D01*
X0227009Y0201349D01*
X0227027Y0201296D01*
X0227040Y0201243D01*
X0227050Y0201188D01*
X0227056Y0201133D01*
X0227058Y0201078D01*
X0229004Y0199959D02*
X0231070Y0199959D01*
X0233016Y0201164D02*
X0233877Y0201853D01*
X0233877Y0198753D01*
X0233016Y0198753D02*
X0234738Y0198753D01*
X0236616Y0198753D02*
X0237649Y0198753D01*
X0237700Y0198755D01*
X0237752Y0198761D01*
X0237802Y0198770D01*
X0237852Y0198784D01*
X0237901Y0198801D01*
X0237948Y0198821D01*
X0237994Y0198845D01*
X0238037Y0198873D01*
X0238079Y0198903D01*
X0238118Y0198937D01*
X0238154Y0198973D01*
X0238188Y0199012D01*
X0238218Y0199054D01*
X0238246Y0199098D01*
X0238270Y0199143D01*
X0238290Y0199190D01*
X0238307Y0199239D01*
X0238321Y0199289D01*
X0238330Y0199339D01*
X0238336Y0199391D01*
X0238338Y0199442D01*
X0238338Y0199786D01*
X0238336Y0199837D01*
X0238330Y0199889D01*
X0238321Y0199939D01*
X0238307Y0199989D01*
X0238290Y0200038D01*
X0238270Y0200085D01*
X0238246Y0200131D01*
X0238218Y0200174D01*
X0238188Y0200216D01*
X0238154Y0200255D01*
X0238118Y0200291D01*
X0238079Y0200325D01*
X0238037Y0200355D01*
X0237994Y0200383D01*
X0237948Y0200407D01*
X0237901Y0200427D01*
X0237852Y0200444D01*
X0237802Y0200458D01*
X0237752Y0200467D01*
X0237700Y0200473D01*
X0237649Y0200475D01*
X0236616Y0200475D01*
X0236616Y0201853D01*
X0238338Y0201853D01*
X0241938Y0200303D02*
X0241936Y0200206D01*
X0241931Y0200110D01*
X0241922Y0200014D01*
X0241909Y0199918D01*
X0241893Y0199823D01*
X0241873Y0199728D01*
X0241849Y0199635D01*
X0241822Y0199542D01*
X0241792Y0199450D01*
X0241758Y0199360D01*
X0241720Y0199271D01*
X0241680Y0199183D01*
X0241662Y0199137D01*
X0241640Y0199093D01*
X0241616Y0199050D01*
X0241588Y0199009D01*
X0241557Y0198971D01*
X0241523Y0198935D01*
X0241486Y0198902D01*
X0241447Y0198872D01*
X0241406Y0198845D01*
X0241363Y0198821D01*
X0241318Y0198800D01*
X0241271Y0198783D01*
X0241224Y0198770D01*
X0241175Y0198761D01*
X0241126Y0198755D01*
X0241077Y0198753D01*
X0241028Y0198755D01*
X0240979Y0198761D01*
X0240930Y0198770D01*
X0240883Y0198783D01*
X0240836Y0198800D01*
X0240791Y0198821D01*
X0240748Y0198845D01*
X0240707Y0198872D01*
X0240668Y0198902D01*
X0240631Y0198935D01*
X0240597Y0198971D01*
X0240566Y0199009D01*
X0240538Y0199050D01*
X0240514Y0199093D01*
X0240492Y0199137D01*
X0240474Y0199183D01*
X0240388Y0199442D02*
X0241766Y0201164D01*
X0241680Y0201423D02*
X0241662Y0201469D01*
X0241640Y0201513D01*
X0241616Y0201556D01*
X0241588Y0201597D01*
X0241557Y0201635D01*
X0241523Y0201671D01*
X0241486Y0201704D01*
X0241447Y0201734D01*
X0241406Y0201761D01*
X0241363Y0201785D01*
X0241318Y0201806D01*
X0241271Y0201823D01*
X0241224Y0201836D01*
X0241175Y0201845D01*
X0241126Y0201851D01*
X0241077Y0201853D01*
X0241028Y0201851D01*
X0240979Y0201845D01*
X0240930Y0201836D01*
X0240883Y0201823D01*
X0240836Y0201806D01*
X0240791Y0201785D01*
X0240748Y0201761D01*
X0240707Y0201734D01*
X0240668Y0201704D01*
X0240631Y0201671D01*
X0240597Y0201635D01*
X0240566Y0201597D01*
X0240538Y0201556D01*
X0240514Y0201513D01*
X0240492Y0201469D01*
X0240474Y0201423D01*
X0241681Y0201423D02*
X0241721Y0201335D01*
X0241759Y0201246D01*
X0241793Y0201156D01*
X0241823Y0201064D01*
X0241850Y0200971D01*
X0241874Y0200878D01*
X0241893Y0200783D01*
X0241910Y0200688D01*
X0241923Y0200592D01*
X0241932Y0200496D01*
X0241937Y0200400D01*
X0241939Y0200303D01*
X0240215Y0200303D02*
X0240217Y0200400D01*
X0240222Y0200496D01*
X0240231Y0200592D01*
X0240244Y0200688D01*
X0240260Y0200783D01*
X0240280Y0200878D01*
X0240304Y0200971D01*
X0240331Y0201064D01*
X0240361Y0201156D01*
X0240395Y0201246D01*
X0240433Y0201335D01*
X0240473Y0201423D01*
X0240216Y0200303D02*
X0240218Y0200206D01*
X0240223Y0200110D01*
X0240232Y0200014D01*
X0240245Y0199918D01*
X0240261Y0199823D01*
X0240281Y0199728D01*
X0240305Y0199635D01*
X0240332Y0199542D01*
X0240362Y0199450D01*
X0240396Y0199360D01*
X0240434Y0199271D01*
X0240474Y0199183D01*
X0245280Y0199183D02*
X0245320Y0199271D01*
X0245358Y0199360D01*
X0245392Y0199450D01*
X0245422Y0199542D01*
X0245449Y0199635D01*
X0245473Y0199728D01*
X0245493Y0199823D01*
X0245509Y0199918D01*
X0245522Y0200014D01*
X0245531Y0200110D01*
X0245536Y0200206D01*
X0245538Y0200303D01*
X0243815Y0200303D02*
X0243817Y0200400D01*
X0243822Y0200496D01*
X0243831Y0200592D01*
X0243844Y0200688D01*
X0243860Y0200783D01*
X0243880Y0200878D01*
X0243904Y0200971D01*
X0243931Y0201064D01*
X0243961Y0201156D01*
X0243995Y0201246D01*
X0244033Y0201335D01*
X0244073Y0201423D01*
X0244677Y0201853D02*
X0244726Y0201851D01*
X0244775Y0201845D01*
X0244824Y0201836D01*
X0244871Y0201823D01*
X0244918Y0201806D01*
X0244963Y0201785D01*
X0245006Y0201761D01*
X0245047Y0201734D01*
X0245086Y0201704D01*
X0245123Y0201671D01*
X0245157Y0201635D01*
X0245188Y0201597D01*
X0245216Y0201556D01*
X0245240Y0201513D01*
X0245262Y0201469D01*
X0245280Y0201423D01*
X0245366Y0201164D02*
X0243988Y0199442D01*
X0244074Y0199183D02*
X0244092Y0199137D01*
X0244114Y0199093D01*
X0244138Y0199050D01*
X0244166Y0199009D01*
X0244197Y0198971D01*
X0244231Y0198935D01*
X0244268Y0198902D01*
X0244307Y0198872D01*
X0244348Y0198845D01*
X0244391Y0198821D01*
X0244436Y0198800D01*
X0244483Y0198783D01*
X0244530Y0198770D01*
X0244579Y0198761D01*
X0244628Y0198755D01*
X0244677Y0198753D01*
X0244726Y0198755D01*
X0244775Y0198761D01*
X0244824Y0198770D01*
X0244871Y0198783D01*
X0244918Y0198800D01*
X0244963Y0198821D01*
X0245006Y0198845D01*
X0245047Y0198872D01*
X0245086Y0198902D01*
X0245123Y0198935D01*
X0245157Y0198971D01*
X0245188Y0199009D01*
X0245216Y0199050D01*
X0245240Y0199093D01*
X0245262Y0199137D01*
X0245280Y0199183D01*
X0244074Y0199183D02*
X0244034Y0199271D01*
X0243996Y0199360D01*
X0243962Y0199450D01*
X0243932Y0199542D01*
X0243905Y0199635D01*
X0243881Y0199728D01*
X0243861Y0199823D01*
X0243845Y0199918D01*
X0243832Y0200014D01*
X0243823Y0200110D01*
X0243818Y0200206D01*
X0243816Y0200303D01*
X0245539Y0200303D02*
X0245537Y0200400D01*
X0245532Y0200496D01*
X0245523Y0200592D01*
X0245510Y0200688D01*
X0245493Y0200783D01*
X0245474Y0200878D01*
X0245450Y0200971D01*
X0245423Y0201064D01*
X0245393Y0201156D01*
X0245359Y0201246D01*
X0245321Y0201335D01*
X0245281Y0201423D01*
X0244677Y0201853D02*
X0244628Y0201851D01*
X0244579Y0201845D01*
X0244530Y0201836D01*
X0244483Y0201823D01*
X0244436Y0201806D01*
X0244391Y0201785D01*
X0244348Y0201761D01*
X0244307Y0201734D01*
X0244268Y0201704D01*
X0244231Y0201671D01*
X0244197Y0201635D01*
X0244166Y0201597D01*
X0244138Y0201556D01*
X0244114Y0201513D01*
X0244092Y0201469D01*
X0244074Y0201423D01*
X0247468Y0200820D02*
X0247468Y0199270D01*
X0247470Y0199227D01*
X0247475Y0199185D01*
X0247484Y0199143D01*
X0247496Y0199102D01*
X0247512Y0199062D01*
X0247530Y0199024D01*
X0247552Y0198987D01*
X0247577Y0198952D01*
X0247605Y0198920D01*
X0247635Y0198890D01*
X0247667Y0198862D01*
X0247702Y0198837D01*
X0247739Y0198815D01*
X0247777Y0198797D01*
X0247817Y0198781D01*
X0247858Y0198769D01*
X0247900Y0198760D01*
X0247942Y0198755D01*
X0247985Y0198753D01*
X0248846Y0198753D01*
X0248846Y0200820D01*
X0250909Y0200475D02*
X0252287Y0200475D01*
X0252287Y0201853D02*
X0250909Y0201853D01*
X0250909Y0198753D01*
X0253708Y0198409D02*
X0255086Y0198409D01*
X0256776Y0199614D02*
X0256776Y0200475D01*
X0257809Y0200475D01*
X0256776Y0200475D02*
X0256778Y0200547D01*
X0256784Y0200619D01*
X0256793Y0200691D01*
X0256806Y0200762D01*
X0256823Y0200832D01*
X0256843Y0200901D01*
X0256868Y0200969D01*
X0256895Y0201035D01*
X0256926Y0201101D01*
X0256961Y0201164D01*
X0256998Y0201226D01*
X0257039Y0201285D01*
X0257083Y0201342D01*
X0257130Y0201397D01*
X0257180Y0201449D01*
X0257232Y0201499D01*
X0257287Y0201546D01*
X0257344Y0201590D01*
X0257403Y0201631D01*
X0257465Y0201668D01*
X0257528Y0201703D01*
X0257594Y0201734D01*
X0257660Y0201761D01*
X0257728Y0201786D01*
X0257797Y0201806D01*
X0257867Y0201823D01*
X0257938Y0201836D01*
X0258010Y0201845D01*
X0258082Y0201851D01*
X0258154Y0201853D01*
X0258498Y0199786D02*
X0258498Y0199614D01*
X0258498Y0199786D02*
X0258496Y0199837D01*
X0258490Y0199889D01*
X0258481Y0199939D01*
X0258467Y0199989D01*
X0258450Y0200038D01*
X0258430Y0200085D01*
X0258406Y0200131D01*
X0258378Y0200174D01*
X0258348Y0200216D01*
X0258314Y0200255D01*
X0258278Y0200291D01*
X0258239Y0200325D01*
X0258197Y0200355D01*
X0258154Y0200383D01*
X0258108Y0200407D01*
X0258061Y0200427D01*
X0258012Y0200444D01*
X0257962Y0200458D01*
X0257912Y0200467D01*
X0257860Y0200473D01*
X0257809Y0200475D01*
X0258498Y0199614D02*
X0258496Y0199556D01*
X0258490Y0199499D01*
X0258481Y0199443D01*
X0258467Y0199387D01*
X0258450Y0199332D01*
X0258430Y0199278D01*
X0258405Y0199226D01*
X0258378Y0199175D01*
X0258347Y0199127D01*
X0258313Y0199080D01*
X0258276Y0199036D01*
X0258236Y0198995D01*
X0258193Y0198956D01*
X0258148Y0198921D01*
X0258100Y0198888D01*
X0258051Y0198859D01*
X0257999Y0198833D01*
X0257946Y0198811D01*
X0257892Y0198792D01*
X0257837Y0198776D01*
X0257780Y0198765D01*
X0257723Y0198757D01*
X0257666Y0198753D01*
X0257608Y0198753D01*
X0257551Y0198757D01*
X0257494Y0198765D01*
X0257437Y0198776D01*
X0257382Y0198792D01*
X0257328Y0198811D01*
X0257275Y0198833D01*
X0257223Y0198859D01*
X0257174Y0198888D01*
X0257126Y0198921D01*
X0257081Y0198956D01*
X0257038Y0198995D01*
X0256998Y0199036D01*
X0256961Y0199080D01*
X0256927Y0199127D01*
X0256896Y0199175D01*
X0256869Y0199226D01*
X0256844Y0199278D01*
X0256824Y0199332D01*
X0256807Y0199387D01*
X0256793Y0199443D01*
X0256784Y0199499D01*
X0256778Y0199556D01*
X0256776Y0199614D01*
X0260376Y0198753D02*
X0261237Y0198753D01*
X0261295Y0198755D01*
X0261352Y0198761D01*
X0261408Y0198770D01*
X0261464Y0198784D01*
X0261519Y0198801D01*
X0261573Y0198821D01*
X0261625Y0198846D01*
X0261676Y0198873D01*
X0261724Y0198904D01*
X0261771Y0198938D01*
X0261815Y0198975D01*
X0261856Y0199015D01*
X0261895Y0199058D01*
X0261930Y0199103D01*
X0261963Y0199151D01*
X0261992Y0199200D01*
X0262018Y0199252D01*
X0262040Y0199305D01*
X0262059Y0199359D01*
X0262075Y0199414D01*
X0262086Y0199471D01*
X0262094Y0199528D01*
X0262098Y0199585D01*
X0262098Y0199643D01*
X0262094Y0199700D01*
X0262086Y0199757D01*
X0262075Y0199814D01*
X0262059Y0199869D01*
X0262040Y0199923D01*
X0262018Y0199976D01*
X0261992Y0200028D01*
X0261963Y0200077D01*
X0261930Y0200125D01*
X0261895Y0200170D01*
X0261856Y0200213D01*
X0261815Y0200253D01*
X0261771Y0200290D01*
X0261724Y0200324D01*
X0261676Y0200355D01*
X0261625Y0200382D01*
X0261573Y0200407D01*
X0261519Y0200427D01*
X0261464Y0200444D01*
X0261408Y0200458D01*
X0261352Y0200467D01*
X0261295Y0200473D01*
X0261237Y0200475D01*
X0261409Y0200475D02*
X0260720Y0200475D01*
X0261409Y0200475D02*
X0261460Y0200477D01*
X0261512Y0200483D01*
X0261562Y0200492D01*
X0261612Y0200506D01*
X0261661Y0200523D01*
X0261708Y0200543D01*
X0261754Y0200567D01*
X0261797Y0200595D01*
X0261839Y0200625D01*
X0261878Y0200659D01*
X0261914Y0200695D01*
X0261948Y0200734D01*
X0261978Y0200776D01*
X0262006Y0200820D01*
X0262030Y0200865D01*
X0262050Y0200912D01*
X0262067Y0200961D01*
X0262081Y0201011D01*
X0262090Y0201061D01*
X0262096Y0201113D01*
X0262098Y0201164D01*
X0262096Y0201215D01*
X0262090Y0201267D01*
X0262081Y0201317D01*
X0262067Y0201367D01*
X0262050Y0201416D01*
X0262030Y0201463D01*
X0262006Y0201509D01*
X0261978Y0201552D01*
X0261948Y0201594D01*
X0261914Y0201633D01*
X0261878Y0201669D01*
X0261839Y0201703D01*
X0261797Y0201733D01*
X0261754Y0201761D01*
X0261708Y0201785D01*
X0261661Y0201805D01*
X0261612Y0201822D01*
X0261562Y0201836D01*
X0261512Y0201845D01*
X0261460Y0201851D01*
X0261409Y0201853D01*
X0260376Y0201853D01*
X0263804Y0201853D02*
X0264837Y0198753D01*
X0265870Y0201853D01*
X0264744Y0208753D02*
X0264055Y0208753D01*
X0264004Y0208755D01*
X0263952Y0208761D01*
X0263902Y0208770D01*
X0263852Y0208784D01*
X0263803Y0208801D01*
X0263756Y0208821D01*
X0263711Y0208845D01*
X0263667Y0208873D01*
X0263625Y0208903D01*
X0263586Y0208937D01*
X0263550Y0208973D01*
X0263516Y0209012D01*
X0263486Y0209054D01*
X0263458Y0209098D01*
X0263434Y0209143D01*
X0263414Y0209190D01*
X0263397Y0209239D01*
X0263383Y0209289D01*
X0263374Y0209339D01*
X0263368Y0209391D01*
X0263366Y0209442D01*
X0263366Y0211164D01*
X0263368Y0211215D01*
X0263374Y0211267D01*
X0263383Y0211317D01*
X0263397Y0211367D01*
X0263414Y0211416D01*
X0263434Y0211463D01*
X0263458Y0211508D01*
X0263486Y0211552D01*
X0263516Y0211594D01*
X0263550Y0211633D01*
X0263586Y0211669D01*
X0263625Y0211703D01*
X0263667Y0211733D01*
X0263710Y0211761D01*
X0263756Y0211785D01*
X0263803Y0211805D01*
X0263852Y0211822D01*
X0263902Y0211836D01*
X0263952Y0211845D01*
X0264003Y0211851D01*
X0264055Y0211853D01*
X0264744Y0211853D01*
X0266366Y0211164D02*
X0266366Y0209442D01*
X0266368Y0209391D01*
X0266374Y0209339D01*
X0266383Y0209289D01*
X0266397Y0209239D01*
X0266414Y0209190D01*
X0266434Y0209143D01*
X0266458Y0209098D01*
X0266486Y0209054D01*
X0266516Y0209012D01*
X0266550Y0208973D01*
X0266586Y0208937D01*
X0266625Y0208903D01*
X0266667Y0208873D01*
X0266711Y0208845D01*
X0266756Y0208821D01*
X0266803Y0208801D01*
X0266852Y0208784D01*
X0266902Y0208770D01*
X0266952Y0208761D01*
X0267004Y0208755D01*
X0267055Y0208753D01*
X0267744Y0208753D01*
X0269386Y0208753D02*
X0271108Y0208753D01*
X0269386Y0208753D02*
X0270850Y0210475D01*
X0270333Y0211853D02*
X0270273Y0211851D01*
X0270214Y0211846D01*
X0270155Y0211837D01*
X0270097Y0211825D01*
X0270039Y0211809D01*
X0269983Y0211789D01*
X0269928Y0211767D01*
X0269874Y0211741D01*
X0269822Y0211712D01*
X0269772Y0211680D01*
X0269723Y0211645D01*
X0269677Y0211607D01*
X0269634Y0211566D01*
X0269592Y0211523D01*
X0269554Y0211477D01*
X0269518Y0211430D01*
X0269485Y0211380D01*
X0269456Y0211328D01*
X0269429Y0211275D01*
X0269406Y0211220D01*
X0269385Y0211164D01*
X0270850Y0210476D02*
X0270889Y0210516D01*
X0270926Y0210558D01*
X0270959Y0210603D01*
X0270990Y0210650D01*
X0271017Y0210699D01*
X0271041Y0210750D01*
X0271061Y0210803D01*
X0271078Y0210856D01*
X0271091Y0210911D01*
X0271100Y0210966D01*
X0271106Y0211022D01*
X0271108Y0211078D01*
X0271106Y0211133D01*
X0271100Y0211188D01*
X0271090Y0211243D01*
X0271077Y0211296D01*
X0271059Y0211349D01*
X0271038Y0211400D01*
X0271013Y0211449D01*
X0270985Y0211497D01*
X0270953Y0211542D01*
X0270919Y0211586D01*
X0270881Y0211626D01*
X0270841Y0211664D01*
X0270797Y0211698D01*
X0270752Y0211730D01*
X0270704Y0211758D01*
X0270655Y0211783D01*
X0270604Y0211804D01*
X0270551Y0211822D01*
X0270498Y0211835D01*
X0270443Y0211845D01*
X0270388Y0211851D01*
X0270333Y0211853D01*
X0267744Y0211853D02*
X0267055Y0211853D01*
X0267003Y0211851D01*
X0266952Y0211845D01*
X0266902Y0211836D01*
X0266852Y0211822D01*
X0266803Y0211805D01*
X0266756Y0211785D01*
X0266710Y0211761D01*
X0266667Y0211733D01*
X0266625Y0211703D01*
X0266586Y0211669D01*
X0266550Y0211633D01*
X0266516Y0211594D01*
X0266486Y0211552D01*
X0266458Y0211508D01*
X0266434Y0211463D01*
X0266414Y0211416D01*
X0266397Y0211367D01*
X0266383Y0211317D01*
X0266374Y0211267D01*
X0266368Y0211215D01*
X0266366Y0211164D01*
X0277899Y0192733D02*
X0277899Y0191699D01*
X0276866Y0192044D02*
X0279449Y0192044D01*
X0279449Y0192043D02*
X0279492Y0192045D01*
X0279534Y0192050D01*
X0279576Y0192059D01*
X0279617Y0192071D01*
X0279657Y0192087D01*
X0279695Y0192105D01*
X0279732Y0192127D01*
X0279767Y0192152D01*
X0279799Y0192180D01*
X0279829Y0192210D01*
X0279857Y0192242D01*
X0279882Y0192277D01*
X0279904Y0192314D01*
X0279922Y0192352D01*
X0279938Y0192392D01*
X0279950Y0192433D01*
X0279959Y0192475D01*
X0279964Y0192517D01*
X0279966Y0192560D01*
X0279966Y0192733D01*
X0279966Y0190200D02*
X0277899Y0190200D01*
X0277899Y0188823D02*
X0279449Y0188823D01*
X0279449Y0188822D02*
X0279492Y0188824D01*
X0279534Y0188829D01*
X0279576Y0188838D01*
X0279617Y0188850D01*
X0279657Y0188866D01*
X0279695Y0188884D01*
X0279732Y0188906D01*
X0279767Y0188931D01*
X0279799Y0188959D01*
X0279829Y0188989D01*
X0279857Y0189021D01*
X0279882Y0189056D01*
X0279904Y0189093D01*
X0279922Y0189131D01*
X0279938Y0189171D01*
X0279950Y0189212D01*
X0279959Y0189254D01*
X0279964Y0189296D01*
X0279966Y0189339D01*
X0279966Y0190200D01*
X0279277Y0186960D02*
X0278588Y0186960D01*
X0278537Y0186958D01*
X0278485Y0186952D01*
X0278435Y0186943D01*
X0278385Y0186929D01*
X0278336Y0186912D01*
X0278289Y0186892D01*
X0278244Y0186868D01*
X0278200Y0186840D01*
X0278158Y0186810D01*
X0278119Y0186776D01*
X0278083Y0186740D01*
X0278049Y0186701D01*
X0278019Y0186659D01*
X0277991Y0186616D01*
X0277967Y0186570D01*
X0277947Y0186523D01*
X0277930Y0186474D01*
X0277916Y0186424D01*
X0277907Y0186374D01*
X0277901Y0186322D01*
X0277899Y0186271D01*
X0277901Y0186220D01*
X0277907Y0186168D01*
X0277916Y0186118D01*
X0277930Y0186068D01*
X0277947Y0186019D01*
X0277967Y0185972D01*
X0277991Y0185927D01*
X0278019Y0185883D01*
X0278049Y0185841D01*
X0278083Y0185802D01*
X0278119Y0185766D01*
X0278158Y0185732D01*
X0278200Y0185702D01*
X0278244Y0185674D01*
X0278289Y0185650D01*
X0278336Y0185630D01*
X0278385Y0185613D01*
X0278435Y0185599D01*
X0278485Y0185590D01*
X0278537Y0185584D01*
X0278588Y0185582D01*
X0278588Y0185583D02*
X0279277Y0185583D01*
X0279277Y0185582D02*
X0279328Y0185584D01*
X0279380Y0185590D01*
X0279430Y0185599D01*
X0279480Y0185613D01*
X0279529Y0185630D01*
X0279576Y0185650D01*
X0279622Y0185674D01*
X0279665Y0185702D01*
X0279707Y0185732D01*
X0279746Y0185766D01*
X0279782Y0185802D01*
X0279816Y0185841D01*
X0279846Y0185883D01*
X0279874Y0185927D01*
X0279898Y0185972D01*
X0279918Y0186019D01*
X0279935Y0186068D01*
X0279949Y0186118D01*
X0279958Y0186168D01*
X0279964Y0186220D01*
X0279966Y0186271D01*
X0279964Y0186322D01*
X0279958Y0186374D01*
X0279949Y0186424D01*
X0279935Y0186474D01*
X0279918Y0186523D01*
X0279898Y0186570D01*
X0279874Y0186616D01*
X0279846Y0186659D01*
X0279816Y0186701D01*
X0279782Y0186740D01*
X0279746Y0186776D01*
X0279707Y0186810D01*
X0279665Y0186840D01*
X0279622Y0186868D01*
X0279576Y0186892D01*
X0279529Y0186912D01*
X0279480Y0186929D01*
X0279430Y0186943D01*
X0279380Y0186952D01*
X0279328Y0186958D01*
X0279277Y0186960D01*
X0276866Y0183945D02*
X0279966Y0182911D01*
X0276866Y0181878D01*
X0275758Y0165800D02*
X0275860Y0165765D01*
X0275963Y0165734D01*
X0276067Y0165707D01*
X0276172Y0165684D01*
X0276277Y0165665D01*
X0276384Y0165650D01*
X0276491Y0165638D01*
X0276598Y0165631D01*
X0276705Y0165627D01*
X0276706Y0165628D02*
X0276747Y0165629D01*
X0276788Y0165635D01*
X0276828Y0165643D01*
X0276868Y0165656D01*
X0276906Y0165672D01*
X0276942Y0165692D01*
X0276977Y0165715D01*
X0277009Y0165741D01*
X0277038Y0165770D01*
X0277065Y0165801D01*
X0277089Y0165835D01*
X0277110Y0165871D01*
X0277127Y0165908D01*
X0277140Y0165947D01*
X0277150Y0165987D01*
X0277157Y0166028D01*
X0277159Y0166069D01*
X0277158Y0166111D01*
X0277152Y0166152D01*
X0277143Y0166192D01*
X0277131Y0166231D01*
X0277114Y0166270D01*
X0277095Y0166306D01*
X0277072Y0166340D01*
X0277046Y0166372D01*
X0277017Y0166402D01*
X0276985Y0166429D01*
X0276952Y0166452D01*
X0276916Y0166473D01*
X0276878Y0166490D01*
X0276877Y0166489D02*
X0276016Y0166834D01*
X0276016Y0166833D02*
X0275978Y0166850D01*
X0275942Y0166871D01*
X0275909Y0166894D01*
X0275877Y0166921D01*
X0275848Y0166951D01*
X0275822Y0166983D01*
X0275799Y0167017D01*
X0275780Y0167053D01*
X0275763Y0167092D01*
X0275751Y0167131D01*
X0275742Y0167171D01*
X0275736Y0167212D01*
X0275735Y0167254D01*
X0275737Y0167295D01*
X0275744Y0167336D01*
X0275754Y0167376D01*
X0275767Y0167415D01*
X0275784Y0167452D01*
X0275805Y0167488D01*
X0275829Y0167522D01*
X0275856Y0167554D01*
X0275885Y0167582D01*
X0275917Y0167608D01*
X0275952Y0167631D01*
X0275988Y0167651D01*
X0276026Y0167667D01*
X0276066Y0167680D01*
X0276106Y0167689D01*
X0276147Y0167694D01*
X0276188Y0167695D01*
X0276189Y0167695D02*
X0276269Y0167692D01*
X0276349Y0167686D01*
X0276428Y0167677D01*
X0276507Y0167664D01*
X0276585Y0167648D01*
X0276663Y0167629D01*
X0276740Y0167607D01*
X0276816Y0167582D01*
X0276890Y0167554D01*
X0276964Y0167523D01*
X0278878Y0167006D02*
X0278878Y0166145D01*
X0278878Y0166661D02*
X0280256Y0166661D01*
X0280256Y0167006D01*
X0280254Y0167057D01*
X0280248Y0167109D01*
X0280239Y0167159D01*
X0280225Y0167209D01*
X0280208Y0167258D01*
X0280188Y0167305D01*
X0280164Y0167351D01*
X0280136Y0167394D01*
X0280106Y0167436D01*
X0280072Y0167475D01*
X0280036Y0167511D01*
X0279997Y0167545D01*
X0279955Y0167575D01*
X0279912Y0167603D01*
X0279866Y0167627D01*
X0279819Y0167647D01*
X0279770Y0167664D01*
X0279720Y0167678D01*
X0279670Y0167687D01*
X0279618Y0167693D01*
X0279567Y0167695D01*
X0279516Y0167693D01*
X0279464Y0167687D01*
X0279414Y0167678D01*
X0279364Y0167664D01*
X0279315Y0167647D01*
X0279268Y0167627D01*
X0279223Y0167603D01*
X0279179Y0167575D01*
X0279137Y0167545D01*
X0279098Y0167511D01*
X0279062Y0167475D01*
X0279028Y0167436D01*
X0278998Y0167394D01*
X0278970Y0167351D01*
X0278946Y0167305D01*
X0278926Y0167258D01*
X0278909Y0167209D01*
X0278895Y0167159D01*
X0278886Y0167109D01*
X0278880Y0167057D01*
X0278878Y0167006D01*
X0278878Y0166145D02*
X0278880Y0166102D01*
X0278885Y0166060D01*
X0278894Y0166018D01*
X0278906Y0165977D01*
X0278922Y0165937D01*
X0278940Y0165899D01*
X0278962Y0165862D01*
X0278987Y0165827D01*
X0279015Y0165795D01*
X0279045Y0165765D01*
X0279077Y0165737D01*
X0279112Y0165712D01*
X0279149Y0165690D01*
X0279187Y0165672D01*
X0279227Y0165656D01*
X0279268Y0165644D01*
X0279310Y0165635D01*
X0279352Y0165630D01*
X0279395Y0165628D01*
X0280256Y0165628D01*
X0273896Y0165628D02*
X0273896Y0167178D01*
X0273894Y0167221D01*
X0273889Y0167263D01*
X0273880Y0167305D01*
X0273868Y0167346D01*
X0273852Y0167386D01*
X0273834Y0167424D01*
X0273812Y0167461D01*
X0273787Y0167496D01*
X0273759Y0167528D01*
X0273729Y0167558D01*
X0273697Y0167586D01*
X0273662Y0167611D01*
X0273625Y0167633D01*
X0273587Y0167651D01*
X0273547Y0167667D01*
X0273506Y0167679D01*
X0273464Y0167688D01*
X0273422Y0167693D01*
X0273379Y0167695D01*
X0272518Y0167695D01*
X0272518Y0165628D01*
X0270656Y0165628D02*
X0269795Y0165628D01*
X0269752Y0165630D01*
X0269710Y0165635D01*
X0269668Y0165644D01*
X0269627Y0165656D01*
X0269587Y0165672D01*
X0269549Y0165690D01*
X0269512Y0165712D01*
X0269477Y0165737D01*
X0269445Y0165765D01*
X0269415Y0165795D01*
X0269387Y0165827D01*
X0269362Y0165862D01*
X0269340Y0165899D01*
X0269322Y0165937D01*
X0269306Y0165977D01*
X0269294Y0166018D01*
X0269285Y0166060D01*
X0269280Y0166102D01*
X0269278Y0166145D01*
X0269278Y0167006D01*
X0269278Y0166661D02*
X0270656Y0166661D01*
X0270656Y0167006D01*
X0270654Y0167057D01*
X0270648Y0167109D01*
X0270639Y0167159D01*
X0270625Y0167209D01*
X0270608Y0167258D01*
X0270588Y0167305D01*
X0270564Y0167351D01*
X0270536Y0167394D01*
X0270506Y0167436D01*
X0270472Y0167475D01*
X0270436Y0167511D01*
X0270397Y0167545D01*
X0270355Y0167575D01*
X0270312Y0167603D01*
X0270266Y0167627D01*
X0270219Y0167647D01*
X0270170Y0167664D01*
X0270120Y0167678D01*
X0270070Y0167687D01*
X0270018Y0167693D01*
X0269967Y0167695D01*
X0269916Y0167693D01*
X0269864Y0167687D01*
X0269814Y0167678D01*
X0269764Y0167664D01*
X0269715Y0167647D01*
X0269668Y0167627D01*
X0269623Y0167603D01*
X0269579Y0167575D01*
X0269537Y0167545D01*
X0269498Y0167511D01*
X0269462Y0167475D01*
X0269428Y0167436D01*
X0269398Y0167394D01*
X0269370Y0167351D01*
X0269346Y0167305D01*
X0269326Y0167258D01*
X0269309Y0167209D01*
X0269295Y0167159D01*
X0269286Y0167109D01*
X0269280Y0167057D01*
X0269278Y0167006D01*
X0267244Y0166920D02*
X0266296Y0167436D01*
X0266641Y0168728D02*
X0266710Y0168726D01*
X0266779Y0168721D01*
X0266848Y0168711D01*
X0266916Y0168698D01*
X0266983Y0168682D01*
X0267050Y0168662D01*
X0267115Y0168638D01*
X0267178Y0168611D01*
X0267241Y0168580D01*
X0267301Y0168547D01*
X0267360Y0168510D01*
X0267416Y0168470D01*
X0266297Y0167436D02*
X0266253Y0167464D01*
X0266211Y0167495D01*
X0266172Y0167529D01*
X0266136Y0167566D01*
X0266102Y0167606D01*
X0266072Y0167648D01*
X0266044Y0167692D01*
X0266020Y0167738D01*
X0266000Y0167785D01*
X0265983Y0167834D01*
X0265969Y0167885D01*
X0265960Y0167936D01*
X0265954Y0167987D01*
X0265952Y0168039D01*
X0265954Y0168090D01*
X0265960Y0168142D01*
X0265969Y0168192D01*
X0265983Y0168242D01*
X0266000Y0168291D01*
X0266020Y0168338D01*
X0266044Y0168384D01*
X0266072Y0168427D01*
X0266102Y0168469D01*
X0266136Y0168508D01*
X0266172Y0168544D01*
X0266211Y0168578D01*
X0266253Y0168608D01*
X0266297Y0168636D01*
X0266342Y0168660D01*
X0266389Y0168680D01*
X0266438Y0168697D01*
X0266488Y0168711D01*
X0266538Y0168720D01*
X0266590Y0168726D01*
X0266641Y0168728D01*
X0265866Y0166058D02*
X0265918Y0166009D01*
X0265972Y0165962D01*
X0266028Y0165917D01*
X0266087Y0165876D01*
X0266147Y0165837D01*
X0266210Y0165802D01*
X0266274Y0165769D01*
X0266339Y0165740D01*
X0266406Y0165714D01*
X0266474Y0165691D01*
X0266544Y0165672D01*
X0266614Y0165656D01*
X0266684Y0165644D01*
X0266756Y0165635D01*
X0266827Y0165630D01*
X0266899Y0165628D01*
X0266950Y0165630D01*
X0267002Y0165636D01*
X0267052Y0165645D01*
X0267102Y0165659D01*
X0267151Y0165676D01*
X0267198Y0165696D01*
X0267244Y0165720D01*
X0267287Y0165748D01*
X0267329Y0165778D01*
X0267368Y0165812D01*
X0267404Y0165848D01*
X0267438Y0165887D01*
X0267468Y0165929D01*
X0267496Y0165973D01*
X0267520Y0166018D01*
X0267540Y0166065D01*
X0267557Y0166114D01*
X0267571Y0166164D01*
X0267580Y0166214D01*
X0267586Y0166266D01*
X0267588Y0166317D01*
X0267586Y0166369D01*
X0267580Y0166420D01*
X0267571Y0166471D01*
X0267557Y0166522D01*
X0267540Y0166571D01*
X0267520Y0166618D01*
X0267496Y0166664D01*
X0267468Y0166708D01*
X0267438Y0166750D01*
X0267404Y0166790D01*
X0267368Y0166827D01*
X0267329Y0166861D01*
X0267287Y0166892D01*
X0267243Y0166920D01*
X0286384Y0162164D02*
X0286384Y0160442D01*
X0286386Y0160391D01*
X0286392Y0160339D01*
X0286401Y0160289D01*
X0286415Y0160239D01*
X0286432Y0160190D01*
X0286452Y0160143D01*
X0286476Y0160098D01*
X0286504Y0160054D01*
X0286534Y0160012D01*
X0286568Y0159973D01*
X0286604Y0159937D01*
X0286643Y0159903D01*
X0286685Y0159873D01*
X0286729Y0159845D01*
X0286774Y0159821D01*
X0286821Y0159801D01*
X0286870Y0159784D01*
X0286920Y0159770D01*
X0286970Y0159761D01*
X0287022Y0159755D01*
X0287073Y0159753D01*
X0287762Y0159753D01*
X0289524Y0159753D02*
X0289524Y0162853D01*
X0291246Y0159753D01*
X0291246Y0162853D01*
X0293933Y0162853D02*
X0293244Y0160442D01*
X0294966Y0160442D01*
X0294449Y0161131D02*
X0294449Y0159753D01*
X0287762Y0162853D02*
X0287073Y0162853D01*
X0287021Y0162851D01*
X0286970Y0162845D01*
X0286920Y0162836D01*
X0286870Y0162822D01*
X0286821Y0162805D01*
X0286774Y0162785D01*
X0286728Y0162761D01*
X0286685Y0162733D01*
X0286643Y0162703D01*
X0286604Y0162669D01*
X0286568Y0162633D01*
X0286534Y0162594D01*
X0286504Y0162552D01*
X0286476Y0162508D01*
X0286452Y0162463D01*
X0286432Y0162416D01*
X0286415Y0162367D01*
X0286401Y0162317D01*
X0286392Y0162267D01*
X0286386Y0162215D01*
X0286384Y0162164D01*
D11*
X0080633Y0083228D02*
X0079333Y0083228D01*
X0079276Y0083230D01*
X0079220Y0083235D01*
X0079164Y0083245D01*
X0079109Y0083258D01*
X0079054Y0083274D01*
X0079001Y0083294D01*
X0078950Y0083317D01*
X0078900Y0083344D01*
X0078851Y0083374D01*
X0078805Y0083407D01*
X0078761Y0083443D01*
X0078720Y0083482D01*
X0078681Y0083523D01*
X0078645Y0083567D01*
X0078612Y0083613D01*
X0078582Y0083662D01*
X0078555Y0083712D01*
X0078532Y0083763D01*
X0078512Y0083816D01*
X0078496Y0083871D01*
X0078483Y0083926D01*
X0078473Y0083982D01*
X0078468Y0084038D01*
X0078466Y0084095D01*
X0078466Y0086261D01*
X0078468Y0086318D01*
X0078473Y0086374D01*
X0078483Y0086430D01*
X0078496Y0086485D01*
X0078512Y0086540D01*
X0078532Y0086593D01*
X0078555Y0086644D01*
X0078582Y0086694D01*
X0078612Y0086743D01*
X0078645Y0086789D01*
X0078681Y0086833D01*
X0078720Y0086874D01*
X0078761Y0086913D01*
X0078805Y0086949D01*
X0078851Y0086982D01*
X0078899Y0087012D01*
X0078950Y0087039D01*
X0079001Y0087062D01*
X0079054Y0087082D01*
X0079109Y0087098D01*
X0079164Y0087111D01*
X0079220Y0087121D01*
X0079276Y0087126D01*
X0079333Y0087128D01*
X0080633Y0087128D01*
X0080633Y0085395D02*
X0080633Y0083228D01*
X0080633Y0085395D02*
X0079983Y0085395D01*
X0083266Y0087128D02*
X0083266Y0083228D01*
X0085433Y0083228D02*
X0083266Y0087128D01*
X0085433Y0087128D02*
X0085433Y0083228D01*
X0088066Y0083228D02*
X0089149Y0083228D01*
X0088066Y0083228D02*
X0088066Y0087128D01*
X0089149Y0087128D01*
X0089212Y0087126D01*
X0089275Y0087121D01*
X0089337Y0087112D01*
X0089399Y0087099D01*
X0089460Y0087083D01*
X0089519Y0087063D01*
X0089578Y0087039D01*
X0089635Y0087013D01*
X0089691Y0086983D01*
X0089744Y0086950D01*
X0089796Y0086914D01*
X0089845Y0086875D01*
X0089892Y0086833D01*
X0089937Y0086788D01*
X0089979Y0086741D01*
X0090018Y0086692D01*
X0090054Y0086640D01*
X0090087Y0086586D01*
X0090117Y0086531D01*
X0090143Y0086474D01*
X0090167Y0086415D01*
X0090187Y0086356D01*
X0090203Y0086295D01*
X0090216Y0086233D01*
X0090225Y0086171D01*
X0090230Y0086108D01*
X0090232Y0086045D01*
X0090233Y0086045D02*
X0090233Y0084311D01*
X0090232Y0084311D02*
X0090230Y0084246D01*
X0090224Y0084180D01*
X0090214Y0084116D01*
X0090201Y0084052D01*
X0090183Y0083989D01*
X0090162Y0083927D01*
X0090137Y0083867D01*
X0090108Y0083808D01*
X0090076Y0083751D01*
X0090040Y0083696D01*
X0090002Y0083643D01*
X0089960Y0083593D01*
X0089915Y0083545D01*
X0089867Y0083500D01*
X0089817Y0083458D01*
X0089764Y0083420D01*
X0089709Y0083384D01*
X0089652Y0083352D01*
X0089593Y0083323D01*
X0089533Y0083298D01*
X0089471Y0083277D01*
X0089408Y0083259D01*
X0089344Y0083246D01*
X0089280Y0083236D01*
X0089214Y0083230D01*
X0089149Y0083228D01*
X0089449Y0143228D02*
X0089449Y0147128D01*
X0087283Y0147128D02*
X0089449Y0143228D01*
X0087283Y0143228D02*
X0087283Y0147128D01*
X0085049Y0147128D02*
X0084183Y0147128D01*
X0084616Y0147128D02*
X0084616Y0143228D01*
X0084183Y0143228D02*
X0085049Y0143228D01*
X0081016Y0143228D02*
X0082316Y0147128D01*
X0079716Y0147128D02*
X0081016Y0143228D01*
X0069832Y0143228D02*
X0067665Y0143228D01*
X0068749Y0143228D02*
X0068749Y0147128D01*
X0067665Y0146261D01*
X0065182Y0147128D02*
X0065182Y0143228D01*
X0063015Y0147128D01*
X0063015Y0143228D01*
X0060824Y0143228D02*
X0059958Y0143228D01*
X0059901Y0143230D01*
X0059845Y0143235D01*
X0059789Y0143245D01*
X0059734Y0143258D01*
X0059679Y0143274D01*
X0059626Y0143294D01*
X0059575Y0143317D01*
X0059525Y0143344D01*
X0059476Y0143374D01*
X0059430Y0143407D01*
X0059386Y0143443D01*
X0059345Y0143482D01*
X0059306Y0143523D01*
X0059270Y0143567D01*
X0059237Y0143613D01*
X0059207Y0143662D01*
X0059180Y0143712D01*
X0059157Y0143763D01*
X0059137Y0143816D01*
X0059121Y0143871D01*
X0059108Y0143926D01*
X0059098Y0143982D01*
X0059093Y0144038D01*
X0059091Y0144095D01*
X0059091Y0146261D01*
X0059093Y0146318D01*
X0059098Y0146374D01*
X0059108Y0146430D01*
X0059121Y0146485D01*
X0059137Y0146540D01*
X0059157Y0146593D01*
X0059180Y0146644D01*
X0059207Y0146694D01*
X0059237Y0146743D01*
X0059270Y0146789D01*
X0059306Y0146833D01*
X0059345Y0146874D01*
X0059386Y0146913D01*
X0059430Y0146949D01*
X0059476Y0146982D01*
X0059524Y0147012D01*
X0059575Y0147039D01*
X0059626Y0147062D01*
X0059679Y0147082D01*
X0059734Y0147098D01*
X0059789Y0147111D01*
X0059845Y0147121D01*
X0059901Y0147126D01*
X0059958Y0147128D01*
X0060824Y0147128D01*
X0129091Y0146211D02*
X0130174Y0146211D01*
X0130174Y0146212D02*
X0130238Y0146214D01*
X0130302Y0146220D01*
X0130366Y0146229D01*
X0130428Y0146242D01*
X0130490Y0146259D01*
X0130551Y0146280D01*
X0130611Y0146304D01*
X0130669Y0146332D01*
X0130725Y0146362D01*
X0130779Y0146397D01*
X0130831Y0146434D01*
X0130881Y0146475D01*
X0130928Y0146518D01*
X0130973Y0146564D01*
X0131015Y0146613D01*
X0131054Y0146664D01*
X0131090Y0146717D01*
X0131122Y0146772D01*
X0131152Y0146829D01*
X0131178Y0146888D01*
X0131200Y0146948D01*
X0131219Y0147010D01*
X0131234Y0147072D01*
X0131245Y0147135D01*
X0131253Y0147199D01*
X0131257Y0147263D01*
X0131257Y0147327D01*
X0131253Y0147391D01*
X0131245Y0147455D01*
X0131234Y0147518D01*
X0131219Y0147580D01*
X0131200Y0147642D01*
X0131178Y0147702D01*
X0131152Y0147761D01*
X0131122Y0147818D01*
X0131090Y0147873D01*
X0131054Y0147926D01*
X0131015Y0147977D01*
X0130973Y0148026D01*
X0130928Y0148072D01*
X0130881Y0148115D01*
X0130831Y0148156D01*
X0130779Y0148193D01*
X0130725Y0148228D01*
X0130669Y0148258D01*
X0130611Y0148286D01*
X0130551Y0148310D01*
X0130490Y0148331D01*
X0130428Y0148348D01*
X0130366Y0148361D01*
X0130302Y0148370D01*
X0130238Y0148376D01*
X0130174Y0148378D01*
X0129091Y0148378D01*
X0129091Y0144478D01*
X0133708Y0146753D02*
X0134899Y0146103D01*
X0134466Y0144478D02*
X0134381Y0144480D01*
X0134296Y0144486D01*
X0134212Y0144496D01*
X0134128Y0144510D01*
X0134045Y0144527D01*
X0133962Y0144549D01*
X0133881Y0144574D01*
X0133801Y0144603D01*
X0133723Y0144636D01*
X0133646Y0144672D01*
X0133571Y0144712D01*
X0133498Y0144755D01*
X0133426Y0144802D01*
X0133358Y0144852D01*
X0133291Y0144905D01*
X0133227Y0144961D01*
X0133166Y0145020D01*
X0134899Y0146103D02*
X0134947Y0146073D01*
X0134993Y0146039D01*
X0135037Y0146002D01*
X0135078Y0145963D01*
X0135117Y0145921D01*
X0135153Y0145877D01*
X0135186Y0145830D01*
X0135216Y0145782D01*
X0135243Y0145731D01*
X0135266Y0145679D01*
X0135286Y0145626D01*
X0135303Y0145571D01*
X0135315Y0145515D01*
X0135325Y0145459D01*
X0135330Y0145402D01*
X0135332Y0145345D01*
X0135333Y0145345D02*
X0135331Y0145288D01*
X0135326Y0145232D01*
X0135316Y0145176D01*
X0135303Y0145121D01*
X0135287Y0145066D01*
X0135267Y0145013D01*
X0135244Y0144962D01*
X0135217Y0144912D01*
X0135187Y0144863D01*
X0135154Y0144817D01*
X0135118Y0144773D01*
X0135079Y0144732D01*
X0135038Y0144693D01*
X0134994Y0144657D01*
X0134948Y0144624D01*
X0134900Y0144594D01*
X0134849Y0144567D01*
X0134798Y0144544D01*
X0134745Y0144524D01*
X0134690Y0144508D01*
X0134635Y0144495D01*
X0134579Y0144485D01*
X0134523Y0144480D01*
X0134466Y0144478D01*
X0135116Y0148053D02*
X0135055Y0148096D01*
X0134993Y0148137D01*
X0134928Y0148175D01*
X0134862Y0148209D01*
X0134794Y0148241D01*
X0134725Y0148269D01*
X0134655Y0148295D01*
X0134583Y0148317D01*
X0134511Y0148335D01*
X0134438Y0148351D01*
X0134364Y0148363D01*
X0134290Y0148371D01*
X0134216Y0148376D01*
X0134141Y0148378D01*
X0134084Y0148376D01*
X0134028Y0148371D01*
X0133972Y0148361D01*
X0133917Y0148348D01*
X0133862Y0148332D01*
X0133809Y0148312D01*
X0133758Y0148289D01*
X0133708Y0148262D01*
X0133659Y0148232D01*
X0133613Y0148199D01*
X0133569Y0148163D01*
X0133528Y0148124D01*
X0133489Y0148083D01*
X0133453Y0148039D01*
X0133420Y0147993D01*
X0133390Y0147945D01*
X0133363Y0147894D01*
X0133340Y0147843D01*
X0133320Y0147790D01*
X0133304Y0147735D01*
X0133291Y0147680D01*
X0133281Y0147624D01*
X0133276Y0147568D01*
X0133274Y0147511D01*
X0133276Y0147454D01*
X0133281Y0147397D01*
X0133291Y0147341D01*
X0133303Y0147285D01*
X0133320Y0147230D01*
X0133340Y0147177D01*
X0133363Y0147125D01*
X0133390Y0147074D01*
X0133420Y0147026D01*
X0133453Y0146979D01*
X0133489Y0146935D01*
X0133528Y0146893D01*
X0133569Y0146854D01*
X0133613Y0146817D01*
X0133659Y0146783D01*
X0133707Y0146753D01*
X0137466Y0148378D02*
X0138333Y0144478D01*
X0139199Y0147078D01*
X0140066Y0144478D01*
X0140933Y0148378D01*
X0143216Y0147511D02*
X0144299Y0148378D01*
X0144299Y0144478D01*
X0143216Y0144478D02*
X0145383Y0144478D01*
X0126908Y0206353D02*
X0125824Y0206353D01*
X0125824Y0210253D01*
X0126908Y0210253D01*
X0126971Y0210251D01*
X0127034Y0210246D01*
X0127096Y0210237D01*
X0127158Y0210224D01*
X0127219Y0210208D01*
X0127278Y0210188D01*
X0127337Y0210164D01*
X0127394Y0210138D01*
X0127450Y0210108D01*
X0127503Y0210075D01*
X0127555Y0210039D01*
X0127604Y0210000D01*
X0127651Y0209958D01*
X0127696Y0209913D01*
X0127738Y0209866D01*
X0127777Y0209817D01*
X0127813Y0209765D01*
X0127846Y0209711D01*
X0127876Y0209656D01*
X0127902Y0209599D01*
X0127926Y0209540D01*
X0127946Y0209481D01*
X0127962Y0209420D01*
X0127975Y0209358D01*
X0127984Y0209296D01*
X0127989Y0209233D01*
X0127991Y0209170D01*
X0127991Y0207436D01*
X0127989Y0207371D01*
X0127983Y0207305D01*
X0127973Y0207241D01*
X0127960Y0207177D01*
X0127942Y0207114D01*
X0127921Y0207052D01*
X0127896Y0206992D01*
X0127867Y0206933D01*
X0127835Y0206876D01*
X0127799Y0206821D01*
X0127761Y0206768D01*
X0127719Y0206718D01*
X0127674Y0206670D01*
X0127626Y0206625D01*
X0127576Y0206583D01*
X0127523Y0206545D01*
X0127468Y0206509D01*
X0127411Y0206477D01*
X0127352Y0206448D01*
X0127292Y0206423D01*
X0127230Y0206402D01*
X0127167Y0206384D01*
X0127103Y0206371D01*
X0127039Y0206361D01*
X0126973Y0206355D01*
X0126908Y0206353D01*
X0123191Y0206353D02*
X0123191Y0210253D01*
X0121024Y0210253D02*
X0121024Y0206353D01*
X0123191Y0206353D02*
X0121024Y0210253D01*
X0118391Y0210253D02*
X0117091Y0210253D01*
X0117034Y0210251D01*
X0116978Y0210246D01*
X0116922Y0210236D01*
X0116867Y0210223D01*
X0116812Y0210207D01*
X0116759Y0210187D01*
X0116708Y0210164D01*
X0116657Y0210137D01*
X0116609Y0210107D01*
X0116563Y0210074D01*
X0116519Y0210038D01*
X0116478Y0209999D01*
X0116439Y0209958D01*
X0116403Y0209914D01*
X0116370Y0209868D01*
X0116340Y0209819D01*
X0116313Y0209769D01*
X0116290Y0209718D01*
X0116270Y0209665D01*
X0116254Y0209610D01*
X0116241Y0209555D01*
X0116231Y0209499D01*
X0116226Y0209443D01*
X0116224Y0209386D01*
X0116224Y0207220D01*
X0116226Y0207163D01*
X0116231Y0207107D01*
X0116241Y0207051D01*
X0116254Y0206996D01*
X0116270Y0206941D01*
X0116290Y0206888D01*
X0116313Y0206837D01*
X0116340Y0206787D01*
X0116370Y0206738D01*
X0116403Y0206692D01*
X0116439Y0206648D01*
X0116478Y0206607D01*
X0116519Y0206568D01*
X0116563Y0206532D01*
X0116609Y0206499D01*
X0116658Y0206469D01*
X0116708Y0206442D01*
X0116759Y0206419D01*
X0116812Y0206399D01*
X0116867Y0206383D01*
X0116922Y0206370D01*
X0116978Y0206360D01*
X0117034Y0206355D01*
X0117091Y0206353D01*
X0118391Y0206353D01*
X0118391Y0208520D01*
X0117741Y0208520D01*
X0258466Y0160253D02*
X0259766Y0156353D01*
X0261066Y0160253D01*
X0263183Y0159170D02*
X0263183Y0157436D01*
X0263185Y0157372D01*
X0263191Y0157308D01*
X0263200Y0157244D01*
X0263213Y0157182D01*
X0263230Y0157120D01*
X0263251Y0157059D01*
X0263275Y0156999D01*
X0263303Y0156941D01*
X0263333Y0156885D01*
X0263368Y0156831D01*
X0263405Y0156779D01*
X0263446Y0156729D01*
X0263489Y0156682D01*
X0263535Y0156637D01*
X0263584Y0156595D01*
X0263635Y0156556D01*
X0263688Y0156520D01*
X0263743Y0156488D01*
X0263800Y0156458D01*
X0263859Y0156432D01*
X0263919Y0156410D01*
X0263981Y0156391D01*
X0264043Y0156376D01*
X0264106Y0156365D01*
X0264170Y0156357D01*
X0264234Y0156353D01*
X0264298Y0156353D01*
X0264362Y0156357D01*
X0264426Y0156365D01*
X0264489Y0156376D01*
X0264551Y0156391D01*
X0264613Y0156410D01*
X0264673Y0156432D01*
X0264732Y0156458D01*
X0264789Y0156488D01*
X0264844Y0156520D01*
X0264897Y0156556D01*
X0264948Y0156595D01*
X0264997Y0156637D01*
X0265043Y0156682D01*
X0265086Y0156729D01*
X0265127Y0156779D01*
X0265164Y0156831D01*
X0265199Y0156885D01*
X0265229Y0156941D01*
X0265257Y0156999D01*
X0265281Y0157059D01*
X0265302Y0157120D01*
X0265319Y0157182D01*
X0265332Y0157244D01*
X0265341Y0157308D01*
X0265347Y0157372D01*
X0265349Y0157436D01*
X0265349Y0159170D01*
X0265347Y0159234D01*
X0265341Y0159298D01*
X0265332Y0159362D01*
X0265319Y0159424D01*
X0265302Y0159486D01*
X0265281Y0159547D01*
X0265257Y0159607D01*
X0265229Y0159665D01*
X0265199Y0159721D01*
X0265164Y0159775D01*
X0265127Y0159827D01*
X0265086Y0159877D01*
X0265043Y0159924D01*
X0264997Y0159969D01*
X0264948Y0160011D01*
X0264897Y0160050D01*
X0264844Y0160086D01*
X0264789Y0160118D01*
X0264732Y0160148D01*
X0264673Y0160174D01*
X0264613Y0160196D01*
X0264551Y0160215D01*
X0264489Y0160230D01*
X0264426Y0160241D01*
X0264362Y0160249D01*
X0264298Y0160253D01*
X0264234Y0160253D01*
X0264170Y0160249D01*
X0264106Y0160241D01*
X0264043Y0160230D01*
X0263981Y0160215D01*
X0263919Y0160196D01*
X0263859Y0160174D01*
X0263800Y0160148D01*
X0263743Y0160118D01*
X0263688Y0160086D01*
X0263635Y0160050D01*
X0263584Y0160011D01*
X0263535Y0159969D01*
X0263489Y0159924D01*
X0263446Y0159877D01*
X0263405Y0159827D01*
X0263368Y0159775D01*
X0263333Y0159721D01*
X0263303Y0159665D01*
X0263275Y0159607D01*
X0263251Y0159547D01*
X0263230Y0159486D01*
X0263213Y0159424D01*
X0263200Y0159362D01*
X0263191Y0159298D01*
X0263185Y0159234D01*
X0263183Y0159170D01*
X0267833Y0160253D02*
X0267833Y0157436D01*
X0267835Y0157372D01*
X0267841Y0157308D01*
X0267850Y0157244D01*
X0267863Y0157182D01*
X0267880Y0157120D01*
X0267901Y0157059D01*
X0267925Y0156999D01*
X0267953Y0156941D01*
X0267983Y0156885D01*
X0268018Y0156831D01*
X0268055Y0156779D01*
X0268096Y0156729D01*
X0268139Y0156682D01*
X0268185Y0156637D01*
X0268234Y0156595D01*
X0268285Y0156556D01*
X0268338Y0156520D01*
X0268393Y0156488D01*
X0268450Y0156458D01*
X0268509Y0156432D01*
X0268569Y0156410D01*
X0268631Y0156391D01*
X0268693Y0156376D01*
X0268756Y0156365D01*
X0268820Y0156357D01*
X0268884Y0156353D01*
X0268948Y0156353D01*
X0269012Y0156357D01*
X0269076Y0156365D01*
X0269139Y0156376D01*
X0269201Y0156391D01*
X0269263Y0156410D01*
X0269323Y0156432D01*
X0269382Y0156458D01*
X0269439Y0156488D01*
X0269494Y0156520D01*
X0269547Y0156556D01*
X0269598Y0156595D01*
X0269647Y0156637D01*
X0269693Y0156682D01*
X0269736Y0156729D01*
X0269777Y0156779D01*
X0269814Y0156831D01*
X0269849Y0156885D01*
X0269879Y0156941D01*
X0269907Y0156999D01*
X0269931Y0157059D01*
X0269952Y0157120D01*
X0269969Y0157182D01*
X0269982Y0157244D01*
X0269991Y0157308D01*
X0269997Y0157372D01*
X0269999Y0157436D01*
X0269999Y0160253D01*
X0272183Y0160253D02*
X0274349Y0160253D01*
X0273266Y0160253D02*
X0273266Y0156353D01*
X0272933Y0075878D02*
X0272933Y0071978D01*
X0270766Y0075878D01*
X0270766Y0071978D01*
X0268133Y0071978D02*
X0268133Y0074145D01*
X0267483Y0074145D01*
X0265966Y0075011D02*
X0265968Y0075068D01*
X0265973Y0075124D01*
X0265983Y0075180D01*
X0265996Y0075235D01*
X0266012Y0075290D01*
X0266032Y0075343D01*
X0266055Y0075394D01*
X0266082Y0075444D01*
X0266112Y0075493D01*
X0266145Y0075539D01*
X0266181Y0075583D01*
X0266220Y0075624D01*
X0266261Y0075663D01*
X0266305Y0075699D01*
X0266351Y0075732D01*
X0266399Y0075762D01*
X0266450Y0075789D01*
X0266501Y0075812D01*
X0266554Y0075832D01*
X0266609Y0075848D01*
X0266664Y0075861D01*
X0266720Y0075871D01*
X0266776Y0075876D01*
X0266833Y0075878D01*
X0268133Y0075878D01*
X0265966Y0075011D02*
X0265966Y0072845D01*
X0265968Y0072788D01*
X0265973Y0072732D01*
X0265983Y0072676D01*
X0265996Y0072621D01*
X0266012Y0072566D01*
X0266032Y0072513D01*
X0266055Y0072462D01*
X0266082Y0072412D01*
X0266112Y0072363D01*
X0266145Y0072317D01*
X0266181Y0072273D01*
X0266220Y0072232D01*
X0266261Y0072193D01*
X0266305Y0072157D01*
X0266351Y0072124D01*
X0266400Y0072094D01*
X0266450Y0072067D01*
X0266501Y0072044D01*
X0266554Y0072024D01*
X0266609Y0072008D01*
X0266664Y0071995D01*
X0266720Y0071985D01*
X0266776Y0071980D01*
X0266833Y0071978D01*
X0268133Y0071978D01*
X0275566Y0071978D02*
X0275566Y0075878D01*
X0276649Y0075878D01*
X0276712Y0075876D01*
X0276775Y0075871D01*
X0276837Y0075862D01*
X0276899Y0075849D01*
X0276960Y0075833D01*
X0277019Y0075813D01*
X0277078Y0075789D01*
X0277135Y0075763D01*
X0277191Y0075733D01*
X0277244Y0075700D01*
X0277296Y0075664D01*
X0277345Y0075625D01*
X0277392Y0075583D01*
X0277437Y0075538D01*
X0277479Y0075491D01*
X0277518Y0075442D01*
X0277554Y0075390D01*
X0277587Y0075336D01*
X0277617Y0075281D01*
X0277643Y0075224D01*
X0277667Y0075165D01*
X0277687Y0075106D01*
X0277703Y0075045D01*
X0277716Y0074983D01*
X0277725Y0074921D01*
X0277730Y0074858D01*
X0277732Y0074795D01*
X0277733Y0074795D02*
X0277733Y0073061D01*
X0277732Y0073061D02*
X0277730Y0072996D01*
X0277724Y0072930D01*
X0277714Y0072866D01*
X0277701Y0072802D01*
X0277683Y0072739D01*
X0277662Y0072677D01*
X0277637Y0072617D01*
X0277608Y0072558D01*
X0277576Y0072501D01*
X0277540Y0072446D01*
X0277502Y0072393D01*
X0277460Y0072343D01*
X0277415Y0072295D01*
X0277367Y0072250D01*
X0277317Y0072208D01*
X0277264Y0072170D01*
X0277209Y0072134D01*
X0277152Y0072102D01*
X0277093Y0072073D01*
X0277033Y0072048D01*
X0276971Y0072027D01*
X0276908Y0072009D01*
X0276844Y0071996D01*
X0276780Y0071986D01*
X0276714Y0071980D01*
X0276649Y0071978D01*
X0275566Y0071978D01*
X0285341Y0072220D02*
X0285341Y0074386D01*
X0285343Y0074443D01*
X0285348Y0074499D01*
X0285358Y0074555D01*
X0285371Y0074610D01*
X0285387Y0074665D01*
X0285407Y0074718D01*
X0285430Y0074769D01*
X0285457Y0074819D01*
X0285487Y0074868D01*
X0285520Y0074914D01*
X0285556Y0074958D01*
X0285595Y0074999D01*
X0285636Y0075038D01*
X0285680Y0075074D01*
X0285726Y0075107D01*
X0285774Y0075137D01*
X0285825Y0075164D01*
X0285876Y0075187D01*
X0285929Y0075207D01*
X0285984Y0075223D01*
X0286039Y0075236D01*
X0286095Y0075246D01*
X0286151Y0075251D01*
X0286208Y0075253D01*
X0287074Y0075253D01*
X0289265Y0075253D02*
X0291432Y0071353D01*
X0291432Y0075253D01*
X0289265Y0075253D02*
X0289265Y0071353D01*
X0287074Y0071353D02*
X0286208Y0071353D01*
X0286151Y0071355D01*
X0286095Y0071360D01*
X0286039Y0071370D01*
X0285984Y0071383D01*
X0285929Y0071399D01*
X0285876Y0071419D01*
X0285825Y0071442D01*
X0285775Y0071469D01*
X0285726Y0071499D01*
X0285680Y0071532D01*
X0285636Y0071568D01*
X0285595Y0071607D01*
X0285556Y0071648D01*
X0285520Y0071692D01*
X0285487Y0071738D01*
X0285457Y0071787D01*
X0285430Y0071837D01*
X0285407Y0071888D01*
X0285387Y0071941D01*
X0285371Y0071996D01*
X0285358Y0072051D01*
X0285348Y0072107D01*
X0285343Y0072163D01*
X0285341Y0072220D01*
X0293915Y0071353D02*
X0296082Y0071353D01*
X0293915Y0071353D02*
X0295757Y0073520D01*
X0295107Y0075254D02*
X0295039Y0075252D01*
X0294970Y0075247D01*
X0294902Y0075237D01*
X0294835Y0075224D01*
X0294769Y0075207D01*
X0294703Y0075187D01*
X0294639Y0075163D01*
X0294576Y0075136D01*
X0294515Y0075105D01*
X0294456Y0075071D01*
X0294398Y0075034D01*
X0294343Y0074994D01*
X0294289Y0074951D01*
X0294239Y0074904D01*
X0294191Y0074856D01*
X0294145Y0074804D01*
X0294103Y0074751D01*
X0294063Y0074695D01*
X0294027Y0074636D01*
X0293994Y0074577D01*
X0293964Y0074515D01*
X0293938Y0074452D01*
X0293915Y0074387D01*
X0295757Y0073520D02*
X0295800Y0073563D01*
X0295840Y0073608D01*
X0295877Y0073656D01*
X0295912Y0073706D01*
X0295943Y0073757D01*
X0295972Y0073811D01*
X0295997Y0073866D01*
X0296020Y0073922D01*
X0296039Y0073979D01*
X0296054Y0074038D01*
X0296066Y0074097D01*
X0296075Y0074157D01*
X0296080Y0074217D01*
X0296082Y0074278D01*
X0296080Y0074339D01*
X0296074Y0074400D01*
X0296065Y0074461D01*
X0296051Y0074520D01*
X0296034Y0074579D01*
X0296014Y0074637D01*
X0295989Y0074693D01*
X0295961Y0074748D01*
X0295930Y0074800D01*
X0295896Y0074851D01*
X0295858Y0074899D01*
X0295818Y0074945D01*
X0295774Y0074989D01*
X0295728Y0075029D01*
X0295680Y0075067D01*
X0295629Y0075101D01*
X0295577Y0075132D01*
X0295522Y0075160D01*
X0295466Y0075185D01*
X0295408Y0075205D01*
X0295349Y0075222D01*
X0295290Y0075236D01*
X0295229Y0075245D01*
X0295168Y0075251D01*
X0295107Y0075253D01*
D12*
X0242877Y0053224D02*
X0112955Y0053224D01*
X0112955Y0138382D01*
X0117955Y0143382D01*
X0242877Y0143382D01*
X0242877Y0053224D01*
X0199889Y0050990D02*
X0124692Y0050990D01*
X0124692Y0138116D01*
X0129692Y0143116D01*
X0199889Y0143116D01*
X0199889Y0050990D01*
X0189944Y0143553D02*
X0099637Y0143553D01*
X0099577Y0143555D01*
X0099516Y0143560D01*
X0099457Y0143569D01*
X0099398Y0143582D01*
X0099339Y0143598D01*
X0099282Y0143618D01*
X0099227Y0143641D01*
X0099172Y0143668D01*
X0099120Y0143697D01*
X0099069Y0143730D01*
X0099020Y0143766D01*
X0098974Y0143804D01*
X0098930Y0143846D01*
X0098888Y0143890D01*
X0098850Y0143936D01*
X0098814Y0143985D01*
X0098781Y0144036D01*
X0098752Y0144088D01*
X0098725Y0144143D01*
X0098702Y0144198D01*
X0098682Y0144255D01*
X0098666Y0144314D01*
X0098653Y0144373D01*
X0098644Y0144432D01*
X0098639Y0144493D01*
X0098637Y0144553D01*
X0098637Y0162053D01*
X0098639Y0162113D01*
X0098644Y0162174D01*
X0098653Y0162233D01*
X0098666Y0162292D01*
X0098682Y0162351D01*
X0098702Y0162408D01*
X0098725Y0162463D01*
X0098752Y0162518D01*
X0098781Y0162570D01*
X0098814Y0162621D01*
X0098850Y0162670D01*
X0098888Y0162716D01*
X0098930Y0162760D01*
X0098974Y0162802D01*
X0099020Y0162840D01*
X0099069Y0162876D01*
X0099120Y0162909D01*
X0099172Y0162938D01*
X0099227Y0162965D01*
X0099282Y0162988D01*
X0099339Y0163008D01*
X0099398Y0163024D01*
X0099457Y0163037D01*
X0099516Y0163046D01*
X0099577Y0163051D01*
X0099637Y0163053D01*
X0189944Y0163053D01*
X0190004Y0163051D01*
X0190065Y0163046D01*
X0190124Y0163037D01*
X0190183Y0163024D01*
X0190242Y0163008D01*
X0190299Y0162988D01*
X0190354Y0162965D01*
X0190409Y0162938D01*
X0190461Y0162909D01*
X0190512Y0162876D01*
X0190561Y0162840D01*
X0190607Y0162802D01*
X0190651Y0162760D01*
X0190693Y0162716D01*
X0190731Y0162670D01*
X0190767Y0162621D01*
X0190800Y0162570D01*
X0190829Y0162518D01*
X0190856Y0162463D01*
X0190879Y0162408D01*
X0190899Y0162351D01*
X0190915Y0162292D01*
X0190928Y0162233D01*
X0190937Y0162174D01*
X0190942Y0162113D01*
X0190944Y0162053D01*
X0190944Y0144553D01*
X0190942Y0144493D01*
X0190937Y0144432D01*
X0190928Y0144373D01*
X0190915Y0144314D01*
X0190899Y0144255D01*
X0190879Y0144198D01*
X0190856Y0144143D01*
X0190829Y0144088D01*
X0190800Y0144036D01*
X0190767Y0143985D01*
X0190731Y0143936D01*
X0190693Y0143890D01*
X0190651Y0143846D01*
X0190607Y0143804D01*
X0190561Y0143766D01*
X0190512Y0143730D01*
X0190461Y0143697D01*
X0190409Y0143668D01*
X0190354Y0143641D01*
X0190299Y0143618D01*
X0190242Y0143598D01*
X0190183Y0143582D01*
X0190124Y0143569D01*
X0190065Y0143560D01*
X0190004Y0143555D01*
X0189944Y0143553D01*
X0233916Y0182553D02*
X0236416Y0182553D01*
X0236416Y0187053D01*
X0236416Y0191553D01*
X0233916Y0191553D01*
X0233916Y0182553D01*
X0238916Y0179553D02*
X0241416Y0179553D01*
X0241416Y0187053D01*
X0241416Y0194553D01*
X0238916Y0194553D01*
X0238916Y0179553D01*
X0239416Y0187053D02*
X0237416Y0187053D01*
X0236416Y0187053D01*
X0235416Y0187053D02*
X0229916Y0187053D01*
X0230416Y0187053D02*
X0228416Y0187053D01*
X0226416Y0187053D01*
X0212916Y0187053D02*
X0212922Y0187544D01*
X0212940Y0188034D01*
X0212970Y0188524D01*
X0213012Y0189013D01*
X0213066Y0189501D01*
X0213132Y0189988D01*
X0213210Y0190472D01*
X0213300Y0190955D01*
X0213402Y0191435D01*
X0213515Y0191913D01*
X0213640Y0192387D01*
X0213777Y0192859D01*
X0213925Y0193327D01*
X0214085Y0193791D01*
X0214256Y0194251D01*
X0214438Y0194707D01*
X0214632Y0195158D01*
X0214836Y0195604D01*
X0215052Y0196045D01*
X0215278Y0196481D01*
X0215514Y0196911D01*
X0215761Y0197335D01*
X0216019Y0197753D01*
X0216287Y0198164D01*
X0216564Y0198569D01*
X0216852Y0198967D01*
X0217149Y0199358D01*
X0217456Y0199741D01*
X0217772Y0200116D01*
X0218097Y0200484D01*
X0218431Y0200844D01*
X0218774Y0201195D01*
X0219125Y0201538D01*
X0219485Y0201872D01*
X0219853Y0202197D01*
X0220228Y0202513D01*
X0220611Y0202820D01*
X0221002Y0203117D01*
X0221400Y0203405D01*
X0221805Y0203682D01*
X0222216Y0203950D01*
X0222634Y0204208D01*
X0223058Y0204455D01*
X0223488Y0204691D01*
X0223924Y0204917D01*
X0224365Y0205133D01*
X0224811Y0205337D01*
X0225262Y0205531D01*
X0225718Y0205713D01*
X0226178Y0205884D01*
X0226642Y0206044D01*
X0227110Y0206192D01*
X0227582Y0206329D01*
X0228056Y0206454D01*
X0228534Y0206567D01*
X0229014Y0206669D01*
X0229497Y0206759D01*
X0229981Y0206837D01*
X0230468Y0206903D01*
X0230956Y0206957D01*
X0231445Y0206999D01*
X0231935Y0207029D01*
X0232425Y0207047D01*
X0232916Y0207053D01*
X0233407Y0207047D01*
X0233897Y0207029D01*
X0234387Y0206999D01*
X0234876Y0206957D01*
X0235364Y0206903D01*
X0235851Y0206837D01*
X0236335Y0206759D01*
X0236818Y0206669D01*
X0237298Y0206567D01*
X0237776Y0206454D01*
X0238250Y0206329D01*
X0238722Y0206192D01*
X0239190Y0206044D01*
X0239654Y0205884D01*
X0240114Y0205713D01*
X0240570Y0205531D01*
X0241021Y0205337D01*
X0241467Y0205133D01*
X0241908Y0204917D01*
X0242344Y0204691D01*
X0242774Y0204455D01*
X0243198Y0204208D01*
X0243616Y0203950D01*
X0244027Y0203682D01*
X0244432Y0203405D01*
X0244830Y0203117D01*
X0245221Y0202820D01*
X0245604Y0202513D01*
X0245979Y0202197D01*
X0246347Y0201872D01*
X0246707Y0201538D01*
X0247058Y0201195D01*
X0247401Y0200844D01*
X0247735Y0200484D01*
X0248060Y0200116D01*
X0248376Y0199741D01*
X0248683Y0199358D01*
X0248980Y0198967D01*
X0249268Y0198569D01*
X0249545Y0198164D01*
X0249813Y0197753D01*
X0250071Y0197335D01*
X0250318Y0196911D01*
X0250554Y0196481D01*
X0250780Y0196045D01*
X0250996Y0195604D01*
X0251200Y0195158D01*
X0251394Y0194707D01*
X0251576Y0194251D01*
X0251747Y0193791D01*
X0251907Y0193327D01*
X0252055Y0192859D01*
X0252192Y0192387D01*
X0252317Y0191913D01*
X0252430Y0191435D01*
X0252532Y0190955D01*
X0252622Y0190472D01*
X0252700Y0189988D01*
X0252766Y0189501D01*
X0252820Y0189013D01*
X0252862Y0188524D01*
X0252892Y0188034D01*
X0252910Y0187544D01*
X0252916Y0187053D01*
X0252910Y0186562D01*
X0252892Y0186072D01*
X0252862Y0185582D01*
X0252820Y0185093D01*
X0252766Y0184605D01*
X0252700Y0184118D01*
X0252622Y0183634D01*
X0252532Y0183151D01*
X0252430Y0182671D01*
X0252317Y0182193D01*
X0252192Y0181719D01*
X0252055Y0181247D01*
X0251907Y0180779D01*
X0251747Y0180315D01*
X0251576Y0179855D01*
X0251394Y0179399D01*
X0251200Y0178948D01*
X0250996Y0178502D01*
X0250780Y0178061D01*
X0250554Y0177625D01*
X0250318Y0177195D01*
X0250071Y0176771D01*
X0249813Y0176353D01*
X0249545Y0175942D01*
X0249268Y0175537D01*
X0248980Y0175139D01*
X0248683Y0174748D01*
X0248376Y0174365D01*
X0248060Y0173990D01*
X0247735Y0173622D01*
X0247401Y0173262D01*
X0247058Y0172911D01*
X0246707Y0172568D01*
X0246347Y0172234D01*
X0245979Y0171909D01*
X0245604Y0171593D01*
X0245221Y0171286D01*
X0244830Y0170989D01*
X0244432Y0170701D01*
X0244027Y0170424D01*
X0243616Y0170156D01*
X0243198Y0169898D01*
X0242774Y0169651D01*
X0242344Y0169415D01*
X0241908Y0169189D01*
X0241467Y0168973D01*
X0241021Y0168769D01*
X0240570Y0168575D01*
X0240114Y0168393D01*
X0239654Y0168222D01*
X0239190Y0168062D01*
X0238722Y0167914D01*
X0238250Y0167777D01*
X0237776Y0167652D01*
X0237298Y0167539D01*
X0236818Y0167437D01*
X0236335Y0167347D01*
X0235851Y0167269D01*
X0235364Y0167203D01*
X0234876Y0167149D01*
X0234387Y0167107D01*
X0233897Y0167077D01*
X0233407Y0167059D01*
X0232916Y0167053D01*
X0232425Y0167059D01*
X0231935Y0167077D01*
X0231445Y0167107D01*
X0230956Y0167149D01*
X0230468Y0167203D01*
X0229981Y0167269D01*
X0229497Y0167347D01*
X0229014Y0167437D01*
X0228534Y0167539D01*
X0228056Y0167652D01*
X0227582Y0167777D01*
X0227110Y0167914D01*
X0226642Y0168062D01*
X0226178Y0168222D01*
X0225718Y0168393D01*
X0225262Y0168575D01*
X0224811Y0168769D01*
X0224365Y0168973D01*
X0223924Y0169189D01*
X0223488Y0169415D01*
X0223058Y0169651D01*
X0222634Y0169898D01*
X0222216Y0170156D01*
X0221805Y0170424D01*
X0221400Y0170701D01*
X0221002Y0170989D01*
X0220611Y0171286D01*
X0220228Y0171593D01*
X0219853Y0171909D01*
X0219485Y0172234D01*
X0219125Y0172568D01*
X0218774Y0172911D01*
X0218431Y0173262D01*
X0218097Y0173622D01*
X0217772Y0173990D01*
X0217456Y0174365D01*
X0217149Y0174748D01*
X0216852Y0175139D01*
X0216564Y0175537D01*
X0216287Y0175942D01*
X0216019Y0176353D01*
X0215761Y0176771D01*
X0215514Y0177195D01*
X0215278Y0177625D01*
X0215052Y0178061D01*
X0214836Y0178502D01*
X0214632Y0178948D01*
X0214438Y0179399D01*
X0214256Y0179855D01*
X0214085Y0180315D01*
X0213925Y0180779D01*
X0213777Y0181247D01*
X0213640Y0181719D01*
X0213515Y0182193D01*
X0213402Y0182671D01*
X0213300Y0183151D01*
X0213210Y0183634D01*
X0213132Y0184118D01*
X0213066Y0184605D01*
X0213012Y0185093D01*
X0212970Y0185582D01*
X0212940Y0186072D01*
X0212922Y0186562D01*
X0212916Y0187053D01*
X0205416Y0187053D02*
X0205426Y0187851D01*
X0205455Y0188648D01*
X0205504Y0189444D01*
X0205572Y0190239D01*
X0205660Y0191031D01*
X0205768Y0191822D01*
X0205894Y0192609D01*
X0206040Y0193393D01*
X0206206Y0194174D01*
X0206390Y0194950D01*
X0206593Y0195721D01*
X0206815Y0196487D01*
X0207056Y0197248D01*
X0207316Y0198002D01*
X0207594Y0198750D01*
X0207890Y0199490D01*
X0208204Y0200223D01*
X0208536Y0200949D01*
X0208886Y0201665D01*
X0209254Y0202373D01*
X0209638Y0203072D01*
X0210040Y0203761D01*
X0210458Y0204440D01*
X0210893Y0205109D01*
X0211344Y0205767D01*
X0211812Y0206413D01*
X0212295Y0207048D01*
X0212793Y0207671D01*
X0213307Y0208281D01*
X0213835Y0208879D01*
X0214378Y0209463D01*
X0214935Y0210034D01*
X0215506Y0210591D01*
X0216090Y0211134D01*
X0216688Y0211662D01*
X0217298Y0212176D01*
X0217921Y0212674D01*
X0218556Y0213157D01*
X0219202Y0213625D01*
X0219860Y0214076D01*
X0220529Y0214511D01*
X0221208Y0214929D01*
X0221897Y0215331D01*
X0222596Y0215715D01*
X0223304Y0216083D01*
X0224020Y0216433D01*
X0224746Y0216765D01*
X0225479Y0217079D01*
X0226219Y0217375D01*
X0226967Y0217653D01*
X0227721Y0217913D01*
X0228482Y0218154D01*
X0229248Y0218376D01*
X0230019Y0218579D01*
X0230795Y0218763D01*
X0231576Y0218929D01*
X0232360Y0219075D01*
X0233147Y0219201D01*
X0233938Y0219309D01*
X0234730Y0219397D01*
X0235525Y0219465D01*
X0236321Y0219514D01*
X0237118Y0219543D01*
X0237916Y0219553D01*
X0238714Y0219543D01*
X0239511Y0219514D01*
X0240307Y0219465D01*
X0241102Y0219397D01*
X0241894Y0219309D01*
X0242685Y0219201D01*
X0243472Y0219075D01*
X0244256Y0218929D01*
X0245037Y0218763D01*
X0245813Y0218579D01*
X0246584Y0218376D01*
X0247350Y0218154D01*
X0248111Y0217913D01*
X0248865Y0217653D01*
X0249613Y0217375D01*
X0250353Y0217079D01*
X0251086Y0216765D01*
X0251812Y0216433D01*
X0252528Y0216083D01*
X0253236Y0215715D01*
X0253935Y0215331D01*
X0254624Y0214929D01*
X0255303Y0214511D01*
X0255972Y0214076D01*
X0256630Y0213625D01*
X0257276Y0213157D01*
X0257911Y0212674D01*
X0258534Y0212176D01*
X0259144Y0211662D01*
X0259742Y0211134D01*
X0260326Y0210591D01*
X0260897Y0210034D01*
X0261454Y0209463D01*
X0261997Y0208879D01*
X0262525Y0208281D01*
X0263039Y0207671D01*
X0263537Y0207048D01*
X0264020Y0206413D01*
X0264488Y0205767D01*
X0264939Y0205109D01*
X0265374Y0204440D01*
X0265792Y0203761D01*
X0266194Y0203072D01*
X0266578Y0202373D01*
X0266946Y0201665D01*
X0267296Y0200949D01*
X0267628Y0200223D01*
X0267942Y0199490D01*
X0268238Y0198750D01*
X0268516Y0198002D01*
X0268776Y0197248D01*
X0269017Y0196487D01*
X0269239Y0195721D01*
X0269442Y0194950D01*
X0269626Y0194174D01*
X0269792Y0193393D01*
X0269938Y0192609D01*
X0270064Y0191822D01*
X0270172Y0191031D01*
X0270260Y0190239D01*
X0270328Y0189444D01*
X0270377Y0188648D01*
X0270406Y0187851D01*
X0270416Y0187053D01*
X0270406Y0186255D01*
X0270377Y0185458D01*
X0270328Y0184662D01*
X0270260Y0183867D01*
X0270172Y0183075D01*
X0270064Y0182284D01*
X0269938Y0181497D01*
X0269792Y0180713D01*
X0269626Y0179932D01*
X0269442Y0179156D01*
X0269239Y0178385D01*
X0269017Y0177619D01*
X0268776Y0176858D01*
X0268516Y0176104D01*
X0268238Y0175356D01*
X0267942Y0174616D01*
X0267628Y0173883D01*
X0267296Y0173157D01*
X0266946Y0172441D01*
X0266578Y0171733D01*
X0266194Y0171034D01*
X0265792Y0170345D01*
X0265374Y0169666D01*
X0264939Y0168997D01*
X0264488Y0168339D01*
X0264020Y0167693D01*
X0263537Y0167058D01*
X0263039Y0166435D01*
X0262525Y0165825D01*
X0261997Y0165227D01*
X0261454Y0164643D01*
X0260897Y0164072D01*
X0260326Y0163515D01*
X0259742Y0162972D01*
X0259144Y0162444D01*
X0258534Y0161930D01*
X0257911Y0161432D01*
X0257276Y0160949D01*
X0256630Y0160481D01*
X0255972Y0160030D01*
X0255303Y0159595D01*
X0254624Y0159177D01*
X0253935Y0158775D01*
X0253236Y0158391D01*
X0252528Y0158023D01*
X0251812Y0157673D01*
X0251086Y0157341D01*
X0250353Y0157027D01*
X0249613Y0156731D01*
X0248865Y0156453D01*
X0248111Y0156193D01*
X0247350Y0155952D01*
X0246584Y0155730D01*
X0245813Y0155527D01*
X0245037Y0155343D01*
X0244256Y0155177D01*
X0243472Y0155031D01*
X0242685Y0154905D01*
X0241894Y0154797D01*
X0241102Y0154709D01*
X0240307Y0154641D01*
X0239511Y0154592D01*
X0238714Y0154563D01*
X0237916Y0154553D01*
X0237118Y0154563D01*
X0236321Y0154592D01*
X0235525Y0154641D01*
X0234730Y0154709D01*
X0233938Y0154797D01*
X0233147Y0154905D01*
X0232360Y0155031D01*
X0231576Y0155177D01*
X0230795Y0155343D01*
X0230019Y0155527D01*
X0229248Y0155730D01*
X0228482Y0155952D01*
X0227721Y0156193D01*
X0226967Y0156453D01*
X0226219Y0156731D01*
X0225479Y0157027D01*
X0224746Y0157341D01*
X0224020Y0157673D01*
X0223304Y0158023D01*
X0222596Y0158391D01*
X0221897Y0158775D01*
X0221208Y0159177D01*
X0220529Y0159595D01*
X0219860Y0160030D01*
X0219202Y0160481D01*
X0218556Y0160949D01*
X0217921Y0161432D01*
X0217298Y0161930D01*
X0216688Y0162444D01*
X0216090Y0162972D01*
X0215506Y0163515D01*
X0214935Y0164072D01*
X0214378Y0164643D01*
X0213835Y0165227D01*
X0213307Y0165825D01*
X0212793Y0166435D01*
X0212295Y0167058D01*
X0211812Y0167693D01*
X0211344Y0168339D01*
X0210893Y0168997D01*
X0210458Y0169666D01*
X0210040Y0170345D01*
X0209638Y0171034D01*
X0209254Y0171733D01*
X0208886Y0172441D01*
X0208536Y0173157D01*
X0208204Y0173883D01*
X0207890Y0174616D01*
X0207594Y0175356D01*
X0207316Y0176104D01*
X0207056Y0176858D01*
X0206815Y0177619D01*
X0206593Y0178385D01*
X0206390Y0179156D01*
X0206206Y0179932D01*
X0206040Y0180713D01*
X0205894Y0181497D01*
X0205768Y0182284D01*
X0205660Y0183075D01*
X0205572Y0183867D01*
X0205504Y0184662D01*
X0205455Y0185458D01*
X0205426Y0186255D01*
X0205416Y0187053D01*
X0181916Y0190803D02*
X0179916Y0190803D01*
X0177916Y0190803D01*
X0155416Y0190803D02*
X0155422Y0191294D01*
X0155440Y0191784D01*
X0155470Y0192274D01*
X0155512Y0192763D01*
X0155566Y0193251D01*
X0155632Y0193738D01*
X0155710Y0194222D01*
X0155800Y0194705D01*
X0155902Y0195185D01*
X0156015Y0195663D01*
X0156140Y0196137D01*
X0156277Y0196609D01*
X0156425Y0197077D01*
X0156585Y0197541D01*
X0156756Y0198001D01*
X0156938Y0198457D01*
X0157132Y0198908D01*
X0157336Y0199354D01*
X0157552Y0199795D01*
X0157778Y0200231D01*
X0158014Y0200661D01*
X0158261Y0201085D01*
X0158519Y0201503D01*
X0158787Y0201914D01*
X0159064Y0202319D01*
X0159352Y0202717D01*
X0159649Y0203108D01*
X0159956Y0203491D01*
X0160272Y0203866D01*
X0160597Y0204234D01*
X0160931Y0204594D01*
X0161274Y0204945D01*
X0161625Y0205288D01*
X0161985Y0205622D01*
X0162353Y0205947D01*
X0162728Y0206263D01*
X0163111Y0206570D01*
X0163502Y0206867D01*
X0163900Y0207155D01*
X0164305Y0207432D01*
X0164716Y0207700D01*
X0165134Y0207958D01*
X0165558Y0208205D01*
X0165988Y0208441D01*
X0166424Y0208667D01*
X0166865Y0208883D01*
X0167311Y0209087D01*
X0167762Y0209281D01*
X0168218Y0209463D01*
X0168678Y0209634D01*
X0169142Y0209794D01*
X0169610Y0209942D01*
X0170082Y0210079D01*
X0170556Y0210204D01*
X0171034Y0210317D01*
X0171514Y0210419D01*
X0171997Y0210509D01*
X0172481Y0210587D01*
X0172968Y0210653D01*
X0173456Y0210707D01*
X0173945Y0210749D01*
X0174435Y0210779D01*
X0174925Y0210797D01*
X0175416Y0210803D01*
X0175907Y0210797D01*
X0176397Y0210779D01*
X0176887Y0210749D01*
X0177376Y0210707D01*
X0177864Y0210653D01*
X0178351Y0210587D01*
X0178835Y0210509D01*
X0179318Y0210419D01*
X0179798Y0210317D01*
X0180276Y0210204D01*
X0180750Y0210079D01*
X0181222Y0209942D01*
X0181690Y0209794D01*
X0182154Y0209634D01*
X0182614Y0209463D01*
X0183070Y0209281D01*
X0183521Y0209087D01*
X0183967Y0208883D01*
X0184408Y0208667D01*
X0184844Y0208441D01*
X0185274Y0208205D01*
X0185698Y0207958D01*
X0186116Y0207700D01*
X0186527Y0207432D01*
X0186932Y0207155D01*
X0187330Y0206867D01*
X0187721Y0206570D01*
X0188104Y0206263D01*
X0188479Y0205947D01*
X0188847Y0205622D01*
X0189207Y0205288D01*
X0189558Y0204945D01*
X0189901Y0204594D01*
X0190235Y0204234D01*
X0190560Y0203866D01*
X0190876Y0203491D01*
X0191183Y0203108D01*
X0191480Y0202717D01*
X0191768Y0202319D01*
X0192045Y0201914D01*
X0192313Y0201503D01*
X0192571Y0201085D01*
X0192818Y0200661D01*
X0193054Y0200231D01*
X0193280Y0199795D01*
X0193496Y0199354D01*
X0193700Y0198908D01*
X0193894Y0198457D01*
X0194076Y0198001D01*
X0194247Y0197541D01*
X0194407Y0197077D01*
X0194555Y0196609D01*
X0194692Y0196137D01*
X0194817Y0195663D01*
X0194930Y0195185D01*
X0195032Y0194705D01*
X0195122Y0194222D01*
X0195200Y0193738D01*
X0195266Y0193251D01*
X0195320Y0192763D01*
X0195362Y0192274D01*
X0195392Y0191784D01*
X0195410Y0191294D01*
X0195416Y0190803D01*
X0195410Y0190312D01*
X0195392Y0189822D01*
X0195362Y0189332D01*
X0195320Y0188843D01*
X0195266Y0188355D01*
X0195200Y0187868D01*
X0195122Y0187384D01*
X0195032Y0186901D01*
X0194930Y0186421D01*
X0194817Y0185943D01*
X0194692Y0185469D01*
X0194555Y0184997D01*
X0194407Y0184529D01*
X0194247Y0184065D01*
X0194076Y0183605D01*
X0193894Y0183149D01*
X0193700Y0182698D01*
X0193496Y0182252D01*
X0193280Y0181811D01*
X0193054Y0181375D01*
X0192818Y0180945D01*
X0192571Y0180521D01*
X0192313Y0180103D01*
X0192045Y0179692D01*
X0191768Y0179287D01*
X0191480Y0178889D01*
X0191183Y0178498D01*
X0190876Y0178115D01*
X0190560Y0177740D01*
X0190235Y0177372D01*
X0189901Y0177012D01*
X0189558Y0176661D01*
X0189207Y0176318D01*
X0188847Y0175984D01*
X0188479Y0175659D01*
X0188104Y0175343D01*
X0187721Y0175036D01*
X0187330Y0174739D01*
X0186932Y0174451D01*
X0186527Y0174174D01*
X0186116Y0173906D01*
X0185698Y0173648D01*
X0185274Y0173401D01*
X0184844Y0173165D01*
X0184408Y0172939D01*
X0183967Y0172723D01*
X0183521Y0172519D01*
X0183070Y0172325D01*
X0182614Y0172143D01*
X0182154Y0171972D01*
X0181690Y0171812D01*
X0181222Y0171664D01*
X0180750Y0171527D01*
X0180276Y0171402D01*
X0179798Y0171289D01*
X0179318Y0171187D01*
X0178835Y0171097D01*
X0178351Y0171019D01*
X0177864Y0170953D01*
X0177376Y0170899D01*
X0176887Y0170857D01*
X0176397Y0170827D01*
X0175907Y0170809D01*
X0175416Y0170803D01*
X0174925Y0170809D01*
X0174435Y0170827D01*
X0173945Y0170857D01*
X0173456Y0170899D01*
X0172968Y0170953D01*
X0172481Y0171019D01*
X0171997Y0171097D01*
X0171514Y0171187D01*
X0171034Y0171289D01*
X0170556Y0171402D01*
X0170082Y0171527D01*
X0169610Y0171664D01*
X0169142Y0171812D01*
X0168678Y0171972D01*
X0168218Y0172143D01*
X0167762Y0172325D01*
X0167311Y0172519D01*
X0166865Y0172723D01*
X0166424Y0172939D01*
X0165988Y0173165D01*
X0165558Y0173401D01*
X0165134Y0173648D01*
X0164716Y0173906D01*
X0164305Y0174174D01*
X0163900Y0174451D01*
X0163502Y0174739D01*
X0163111Y0175036D01*
X0162728Y0175343D01*
X0162353Y0175659D01*
X0161985Y0175984D01*
X0161625Y0176318D01*
X0161274Y0176661D01*
X0160931Y0177012D01*
X0160597Y0177372D01*
X0160272Y0177740D01*
X0159956Y0178115D01*
X0159649Y0178498D01*
X0159352Y0178889D01*
X0159064Y0179287D01*
X0158787Y0179692D01*
X0158519Y0180103D01*
X0158261Y0180521D01*
X0158014Y0180945D01*
X0157778Y0181375D01*
X0157552Y0181811D01*
X0157336Y0182252D01*
X0157132Y0182698D01*
X0156938Y0183149D01*
X0156756Y0183605D01*
X0156585Y0184065D01*
X0156425Y0184529D01*
X0156277Y0184997D01*
X0156140Y0185469D01*
X0156015Y0185943D01*
X0155902Y0186421D01*
X0155800Y0186901D01*
X0155710Y0187384D01*
X0155632Y0187868D01*
X0155566Y0188355D01*
X0155512Y0188843D01*
X0155470Y0189332D01*
X0155440Y0189822D01*
X0155422Y0190312D01*
X0155416Y0190803D01*
X0160416Y0194303D02*
X0160416Y0197303D01*
X0161916Y0195803D02*
X0158916Y0195803D01*
X0168916Y0190803D02*
X0170916Y0190803D01*
X0171916Y0190803D01*
X0171916Y0195303D01*
X0174416Y0195303D01*
X0174416Y0186303D01*
X0171916Y0186303D01*
X0171916Y0190803D01*
X0147803Y0190803D02*
X0147811Y0191481D01*
X0147836Y0192158D01*
X0147878Y0192834D01*
X0147936Y0193510D01*
X0148011Y0194183D01*
X0148102Y0194855D01*
X0148210Y0195524D01*
X0148334Y0196190D01*
X0148474Y0196853D01*
X0148631Y0197512D01*
X0148803Y0198168D01*
X0148992Y0198819D01*
X0149197Y0199465D01*
X0149417Y0200106D01*
X0149653Y0200741D01*
X0149905Y0201370D01*
X0150172Y0201993D01*
X0150454Y0202609D01*
X0150751Y0203218D01*
X0151064Y0203820D01*
X0151390Y0204413D01*
X0151732Y0204999D01*
X0152087Y0205576D01*
X0152457Y0206144D01*
X0152840Y0206703D01*
X0153237Y0207252D01*
X0153647Y0207791D01*
X0154071Y0208321D01*
X0154507Y0208839D01*
X0154956Y0209347D01*
X0155417Y0209843D01*
X0155891Y0210328D01*
X0156376Y0210802D01*
X0156872Y0211263D01*
X0157380Y0211712D01*
X0157898Y0212148D01*
X0158428Y0212572D01*
X0158967Y0212982D01*
X0159516Y0213379D01*
X0160075Y0213762D01*
X0160643Y0214132D01*
X0161220Y0214487D01*
X0161806Y0214829D01*
X0162399Y0215155D01*
X0163001Y0215468D01*
X0163610Y0215765D01*
X0164226Y0216047D01*
X0164849Y0216314D01*
X0165478Y0216566D01*
X0166113Y0216802D01*
X0166754Y0217022D01*
X0167400Y0217227D01*
X0168051Y0217416D01*
X0168707Y0217588D01*
X0169366Y0217745D01*
X0170029Y0217885D01*
X0170695Y0218009D01*
X0171364Y0218117D01*
X0172036Y0218208D01*
X0172709Y0218283D01*
X0173385Y0218341D01*
X0174061Y0218383D01*
X0174738Y0218408D01*
X0175416Y0218416D01*
X0176094Y0218408D01*
X0176771Y0218383D01*
X0177447Y0218341D01*
X0178123Y0218283D01*
X0178796Y0218208D01*
X0179468Y0218117D01*
X0180137Y0218009D01*
X0180803Y0217885D01*
X0181466Y0217745D01*
X0182125Y0217588D01*
X0182781Y0217416D01*
X0183432Y0217227D01*
X0184078Y0217022D01*
X0184719Y0216802D01*
X0185354Y0216566D01*
X0185983Y0216314D01*
X0186606Y0216047D01*
X0187222Y0215765D01*
X0187831Y0215468D01*
X0188433Y0215155D01*
X0189026Y0214829D01*
X0189612Y0214487D01*
X0190189Y0214132D01*
X0190757Y0213762D01*
X0191316Y0213379D01*
X0191865Y0212982D01*
X0192404Y0212572D01*
X0192934Y0212148D01*
X0193452Y0211712D01*
X0193960Y0211263D01*
X0194456Y0210802D01*
X0194941Y0210328D01*
X0195415Y0209843D01*
X0195876Y0209347D01*
X0196325Y0208839D01*
X0196761Y0208321D01*
X0197185Y0207791D01*
X0197595Y0207252D01*
X0197992Y0206703D01*
X0198375Y0206144D01*
X0198745Y0205576D01*
X0199100Y0204999D01*
X0199442Y0204413D01*
X0199768Y0203820D01*
X0200081Y0203218D01*
X0200378Y0202609D01*
X0200660Y0201993D01*
X0200927Y0201370D01*
X0201179Y0200741D01*
X0201415Y0200106D01*
X0201635Y0199465D01*
X0201840Y0198819D01*
X0202029Y0198168D01*
X0202201Y0197512D01*
X0202358Y0196853D01*
X0202498Y0196190D01*
X0202622Y0195524D01*
X0202730Y0194855D01*
X0202821Y0194183D01*
X0202896Y0193510D01*
X0202954Y0192834D01*
X0202996Y0192158D01*
X0203021Y0191481D01*
X0203029Y0190803D01*
X0203021Y0190125D01*
X0202996Y0189448D01*
X0202954Y0188772D01*
X0202896Y0188096D01*
X0202821Y0187423D01*
X0202730Y0186751D01*
X0202622Y0186082D01*
X0202498Y0185416D01*
X0202358Y0184753D01*
X0202201Y0184094D01*
X0202029Y0183438D01*
X0201840Y0182787D01*
X0201635Y0182141D01*
X0201415Y0181500D01*
X0201179Y0180865D01*
X0200927Y0180236D01*
X0200660Y0179613D01*
X0200378Y0178997D01*
X0200081Y0178388D01*
X0199768Y0177786D01*
X0199442Y0177193D01*
X0199100Y0176607D01*
X0198745Y0176030D01*
X0198375Y0175462D01*
X0197992Y0174903D01*
X0197595Y0174354D01*
X0197185Y0173815D01*
X0196761Y0173285D01*
X0196325Y0172767D01*
X0195876Y0172259D01*
X0195415Y0171763D01*
X0194941Y0171278D01*
X0194456Y0170804D01*
X0193960Y0170343D01*
X0193452Y0169894D01*
X0192934Y0169458D01*
X0192404Y0169034D01*
X0191865Y0168624D01*
X0191316Y0168227D01*
X0190757Y0167844D01*
X0190189Y0167474D01*
X0189612Y0167119D01*
X0189026Y0166777D01*
X0188433Y0166451D01*
X0187831Y0166138D01*
X0187222Y0165841D01*
X0186606Y0165559D01*
X0185983Y0165292D01*
X0185354Y0165040D01*
X0184719Y0164804D01*
X0184078Y0164584D01*
X0183432Y0164379D01*
X0182781Y0164190D01*
X0182125Y0164018D01*
X0181466Y0163861D01*
X0180803Y0163721D01*
X0180137Y0163597D01*
X0179468Y0163489D01*
X0178796Y0163398D01*
X0178123Y0163323D01*
X0177447Y0163265D01*
X0176771Y0163223D01*
X0176094Y0163198D01*
X0175416Y0163190D01*
X0174738Y0163198D01*
X0174061Y0163223D01*
X0173385Y0163265D01*
X0172709Y0163323D01*
X0172036Y0163398D01*
X0171364Y0163489D01*
X0170695Y0163597D01*
X0170029Y0163721D01*
X0169366Y0163861D01*
X0168707Y0164018D01*
X0168051Y0164190D01*
X0167400Y0164379D01*
X0166754Y0164584D01*
X0166113Y0164804D01*
X0165478Y0165040D01*
X0164849Y0165292D01*
X0164226Y0165559D01*
X0163610Y0165841D01*
X0163001Y0166138D01*
X0162399Y0166451D01*
X0161806Y0166777D01*
X0161220Y0167119D01*
X0160643Y0167474D01*
X0160075Y0167844D01*
X0159516Y0168227D01*
X0158967Y0168624D01*
X0158428Y0169034D01*
X0157898Y0169458D01*
X0157380Y0169894D01*
X0156872Y0170343D01*
X0156376Y0170804D01*
X0155891Y0171278D01*
X0155417Y0171763D01*
X0154956Y0172259D01*
X0154507Y0172767D01*
X0154071Y0173285D01*
X0153647Y0173815D01*
X0153237Y0174354D01*
X0152840Y0174903D01*
X0152457Y0175462D01*
X0152087Y0176030D01*
X0151732Y0176607D01*
X0151390Y0177193D01*
X0151064Y0177786D01*
X0150751Y0178388D01*
X0150454Y0178997D01*
X0150172Y0179613D01*
X0149905Y0180236D01*
X0149653Y0180865D01*
X0149417Y0181500D01*
X0149197Y0182141D01*
X0148992Y0182787D01*
X0148803Y0183438D01*
X0148631Y0184094D01*
X0148474Y0184753D01*
X0148334Y0185416D01*
X0148210Y0186082D01*
X0148102Y0186751D01*
X0148011Y0187423D01*
X0147936Y0188096D01*
X0147878Y0188772D01*
X0147836Y0189448D01*
X0147811Y0190125D01*
X0147803Y0190803D01*
X0144416Y0198303D02*
X0136416Y0198303D01*
X0136356Y0198305D01*
X0136295Y0198310D01*
X0136236Y0198319D01*
X0136177Y0198332D01*
X0136118Y0198348D01*
X0136061Y0198368D01*
X0136006Y0198391D01*
X0135951Y0198418D01*
X0135899Y0198447D01*
X0135848Y0198480D01*
X0135799Y0198516D01*
X0135753Y0198554D01*
X0135709Y0198596D01*
X0135667Y0198640D01*
X0135629Y0198686D01*
X0135593Y0198735D01*
X0135560Y0198786D01*
X0135531Y0198838D01*
X0135504Y0198893D01*
X0135481Y0198948D01*
X0135461Y0199005D01*
X0135445Y0199064D01*
X0135432Y0199123D01*
X0135423Y0199182D01*
X0135418Y0199243D01*
X0135416Y0199303D01*
X0135416Y0217303D01*
X0135418Y0217363D01*
X0135423Y0217424D01*
X0135432Y0217483D01*
X0135445Y0217542D01*
X0135461Y0217601D01*
X0135481Y0217658D01*
X0135504Y0217713D01*
X0135531Y0217768D01*
X0135560Y0217820D01*
X0135593Y0217871D01*
X0135629Y0217920D01*
X0135667Y0217966D01*
X0135709Y0218010D01*
X0135753Y0218052D01*
X0135799Y0218090D01*
X0135848Y0218126D01*
X0135899Y0218159D01*
X0135951Y0218188D01*
X0136006Y0218215D01*
X0136061Y0218238D01*
X0136118Y0218258D01*
X0136177Y0218274D01*
X0136236Y0218287D01*
X0136295Y0218296D01*
X0136356Y0218301D01*
X0136416Y0218303D01*
X0144416Y0218303D01*
X0144476Y0218301D01*
X0144537Y0218296D01*
X0144596Y0218287D01*
X0144655Y0218274D01*
X0144714Y0218258D01*
X0144771Y0218238D01*
X0144826Y0218215D01*
X0144881Y0218188D01*
X0144933Y0218159D01*
X0144984Y0218126D01*
X0145033Y0218090D01*
X0145079Y0218052D01*
X0145123Y0218010D01*
X0145165Y0217966D01*
X0145203Y0217920D01*
X0145239Y0217871D01*
X0145272Y0217820D01*
X0145301Y0217768D01*
X0145328Y0217713D01*
X0145351Y0217658D01*
X0145371Y0217601D01*
X0145387Y0217542D01*
X0145400Y0217483D01*
X0145409Y0217424D01*
X0145414Y0217363D01*
X0145416Y0217303D01*
X0145416Y0199303D01*
X0145414Y0199243D01*
X0145409Y0199182D01*
X0145400Y0199123D01*
X0145387Y0199064D01*
X0145371Y0199005D01*
X0145351Y0198948D01*
X0145328Y0198893D01*
X0145301Y0198838D01*
X0145272Y0198786D01*
X0145239Y0198735D01*
X0145203Y0198686D01*
X0145165Y0198640D01*
X0145123Y0198596D01*
X0145079Y0198554D01*
X0145033Y0198516D01*
X0144984Y0198480D01*
X0144933Y0198447D01*
X0144881Y0198418D01*
X0144826Y0198391D01*
X0144771Y0198368D01*
X0144714Y0198348D01*
X0144655Y0198332D01*
X0144596Y0198319D01*
X0144537Y0198310D01*
X0144476Y0198305D01*
X0144416Y0198303D01*
X0134451Y0186433D02*
X0101380Y0186433D01*
X0101381Y0186434D02*
X0101268Y0186435D01*
X0101156Y0186432D01*
X0101044Y0186425D01*
X0100932Y0186414D01*
X0100821Y0186400D01*
X0100710Y0186381D01*
X0100600Y0186359D01*
X0100491Y0186333D01*
X0100383Y0186303D01*
X0100276Y0186269D01*
X0100170Y0186232D01*
X0100066Y0186190D01*
X0099963Y0186146D01*
X0099861Y0186097D01*
X0099762Y0186045D01*
X0099664Y0185990D01*
X0099568Y0185932D01*
X0099475Y0185870D01*
X0099383Y0185804D01*
X0099294Y0185736D01*
X0099208Y0185665D01*
X0099124Y0185590D01*
X0099042Y0185513D01*
X0098964Y0185433D01*
X0098888Y0185350D01*
X0098815Y0185265D01*
X0098745Y0185177D01*
X0098678Y0185087D01*
X0098614Y0184994D01*
X0098554Y0184900D01*
X0098497Y0184803D01*
X0098444Y0184704D01*
X0098393Y0184604D01*
X0098347Y0184502D01*
X0098304Y0184398D01*
X0098265Y0184293D01*
X0098229Y0184187D01*
X0098197Y0184079D01*
X0098169Y0183970D01*
X0098145Y0183861D01*
X0098124Y0183750D01*
X0098108Y0183639D01*
X0098095Y0183528D01*
X0098086Y0183416D01*
X0098081Y0183304D01*
X0098081Y0183303D02*
X0098081Y0168303D01*
X0098086Y0168191D01*
X0098095Y0168079D01*
X0098108Y0167968D01*
X0098124Y0167857D01*
X0098145Y0167746D01*
X0098169Y0167637D01*
X0098197Y0167528D01*
X0098229Y0167420D01*
X0098265Y0167314D01*
X0098304Y0167209D01*
X0098347Y0167105D01*
X0098393Y0167003D01*
X0098444Y0166903D01*
X0098497Y0166804D01*
X0098554Y0166707D01*
X0098614Y0166613D01*
X0098678Y0166520D01*
X0098745Y0166430D01*
X0098815Y0166342D01*
X0098888Y0166257D01*
X0098964Y0166174D01*
X0099042Y0166094D01*
X0099124Y0166017D01*
X0099208Y0165942D01*
X0099294Y0165871D01*
X0099383Y0165803D01*
X0099475Y0165737D01*
X0099568Y0165675D01*
X0099664Y0165617D01*
X0099762Y0165562D01*
X0099861Y0165510D01*
X0099963Y0165461D01*
X0100066Y0165417D01*
X0100170Y0165375D01*
X0100276Y0165338D01*
X0100383Y0165304D01*
X0100491Y0165274D01*
X0100600Y0165248D01*
X0100710Y0165226D01*
X0100821Y0165207D01*
X0100932Y0165193D01*
X0101044Y0165182D01*
X0101156Y0165175D01*
X0101268Y0165172D01*
X0101381Y0165173D01*
X0101380Y0165173D02*
X0134451Y0165173D01*
X0134564Y0165172D01*
X0134676Y0165175D01*
X0134788Y0165182D01*
X0134900Y0165193D01*
X0135011Y0165207D01*
X0135122Y0165226D01*
X0135232Y0165248D01*
X0135341Y0165274D01*
X0135449Y0165304D01*
X0135556Y0165338D01*
X0135662Y0165375D01*
X0135766Y0165417D01*
X0135869Y0165461D01*
X0135971Y0165510D01*
X0136070Y0165562D01*
X0136168Y0165617D01*
X0136264Y0165675D01*
X0136357Y0165737D01*
X0136449Y0165803D01*
X0136538Y0165871D01*
X0136624Y0165942D01*
X0136708Y0166017D01*
X0136790Y0166094D01*
X0136868Y0166174D01*
X0136944Y0166257D01*
X0137017Y0166342D01*
X0137087Y0166430D01*
X0137154Y0166520D01*
X0137218Y0166613D01*
X0137278Y0166707D01*
X0137335Y0166804D01*
X0137388Y0166903D01*
X0137439Y0167003D01*
X0137485Y0167105D01*
X0137528Y0167209D01*
X0137567Y0167314D01*
X0137603Y0167420D01*
X0137635Y0167528D01*
X0137663Y0167637D01*
X0137687Y0167746D01*
X0137708Y0167857D01*
X0137724Y0167968D01*
X0137737Y0168079D01*
X0137746Y0168191D01*
X0137751Y0168303D01*
X0137751Y0183303D01*
X0137751Y0183304D02*
X0137746Y0183416D01*
X0137737Y0183528D01*
X0137724Y0183639D01*
X0137708Y0183750D01*
X0137687Y0183861D01*
X0137663Y0183970D01*
X0137635Y0184079D01*
X0137603Y0184187D01*
X0137567Y0184293D01*
X0137528Y0184398D01*
X0137485Y0184502D01*
X0137439Y0184604D01*
X0137388Y0184704D01*
X0137335Y0184803D01*
X0137278Y0184900D01*
X0137218Y0184994D01*
X0137154Y0185087D01*
X0137087Y0185177D01*
X0137017Y0185265D01*
X0136944Y0185350D01*
X0136868Y0185433D01*
X0136790Y0185513D01*
X0136708Y0185590D01*
X0136624Y0185665D01*
X0136538Y0185736D01*
X0136449Y0185804D01*
X0136357Y0185870D01*
X0136264Y0185932D01*
X0136168Y0185990D01*
X0136070Y0186045D01*
X0135971Y0186097D01*
X0135869Y0186146D01*
X0135766Y0186190D01*
X0135662Y0186232D01*
X0135556Y0186269D01*
X0135449Y0186303D01*
X0135341Y0186333D01*
X0135232Y0186359D01*
X0135122Y0186381D01*
X0135011Y0186400D01*
X0134900Y0186414D01*
X0134788Y0186425D01*
X0134676Y0186432D01*
X0134564Y0186435D01*
X0134451Y0186434D01*
X0241416Y0187053D02*
X0245916Y0187053D01*
X0247916Y0183553D02*
X0247916Y0180553D01*
X0246416Y0182053D02*
X0249416Y0182053D01*
X0261416Y0187053D02*
X0267416Y0187053D01*
X0264416Y0190053D02*
X0264416Y0184053D01*
D13*
X0273541Y0168928D02*
X0281041Y0173303D01*
X0248566Y0068846D02*
X0248566Y0066402D01*
X0246121Y0068480D01*
X0244166Y0067746D02*
X0244168Y0067672D01*
X0244174Y0067598D01*
X0244183Y0067525D01*
X0244197Y0067452D01*
X0244214Y0067380D01*
X0244235Y0067309D01*
X0244260Y0067239D01*
X0244288Y0067171D01*
X0244320Y0067104D01*
X0244356Y0067039D01*
X0244394Y0066976D01*
X0244436Y0066915D01*
X0244481Y0066856D01*
X0244529Y0066800D01*
X0244580Y0066746D01*
X0244634Y0066695D01*
X0244691Y0066647D01*
X0244749Y0066602D01*
X0244810Y0066560D01*
X0244873Y0066522D01*
X0244939Y0066486D01*
X0245005Y0066455D01*
X0245074Y0066426D01*
X0245144Y0066402D01*
X0246121Y0068479D02*
X0246073Y0068528D01*
X0246021Y0068573D01*
X0245968Y0068615D01*
X0245912Y0068654D01*
X0245853Y0068690D01*
X0245793Y0068722D01*
X0245731Y0068751D01*
X0245668Y0068776D01*
X0245603Y0068797D01*
X0245537Y0068815D01*
X0245470Y0068828D01*
X0245402Y0068838D01*
X0245334Y0068844D01*
X0245266Y0068846D01*
X0245202Y0068844D01*
X0245138Y0068839D01*
X0245075Y0068829D01*
X0245012Y0068816D01*
X0244951Y0068800D01*
X0244890Y0068780D01*
X0244830Y0068756D01*
X0244772Y0068729D01*
X0244716Y0068699D01*
X0244662Y0068665D01*
X0244609Y0068628D01*
X0244559Y0068589D01*
X0244511Y0068546D01*
X0244466Y0068501D01*
X0244423Y0068453D01*
X0244384Y0068403D01*
X0244347Y0068350D01*
X0244313Y0068296D01*
X0244283Y0068240D01*
X0244256Y0068182D01*
X0244232Y0068122D01*
X0244212Y0068061D01*
X0244196Y0068000D01*
X0244183Y0067937D01*
X0244173Y0067874D01*
X0244168Y0067810D01*
X0244166Y0067746D01*
X0244166Y0064130D02*
X0244166Y0063153D01*
X0244168Y0063092D01*
X0244174Y0063030D01*
X0244183Y0062970D01*
X0244197Y0062910D01*
X0244214Y0062851D01*
X0244235Y0062793D01*
X0244259Y0062737D01*
X0244287Y0062682D01*
X0244318Y0062629D01*
X0244353Y0062578D01*
X0244390Y0062530D01*
X0244431Y0062484D01*
X0244475Y0062440D01*
X0244521Y0062399D01*
X0244569Y0062362D01*
X0244620Y0062327D01*
X0244673Y0062296D01*
X0244728Y0062268D01*
X0244784Y0062244D01*
X0244842Y0062223D01*
X0244901Y0062206D01*
X0244961Y0062192D01*
X0245021Y0062183D01*
X0245083Y0062177D01*
X0245144Y0062175D01*
X0247588Y0062175D01*
X0247649Y0062177D01*
X0247711Y0062183D01*
X0247771Y0062192D01*
X0247831Y0062206D01*
X0247890Y0062223D01*
X0247948Y0062244D01*
X0248004Y0062268D01*
X0248059Y0062296D01*
X0248112Y0062327D01*
X0248163Y0062362D01*
X0248211Y0062399D01*
X0248257Y0062440D01*
X0248301Y0062484D01*
X0248342Y0062530D01*
X0248379Y0062578D01*
X0248414Y0062629D01*
X0248445Y0062682D01*
X0248473Y0062737D01*
X0248497Y0062793D01*
X0248518Y0062851D01*
X0248535Y0062910D01*
X0248549Y0062970D01*
X0248558Y0063030D01*
X0248564Y0063092D01*
X0248566Y0063153D01*
X0248566Y0064130D01*
X0248566Y0059881D02*
X0248566Y0058903D01*
X0248566Y0059392D02*
X0244166Y0059392D01*
X0244166Y0058903D02*
X0244166Y0059881D01*
X0122941Y0106403D02*
X0122941Y0107381D01*
X0122941Y0106892D02*
X0118541Y0106892D01*
X0118541Y0106403D02*
X0118541Y0107381D01*
X0119519Y0109675D02*
X0121963Y0109675D01*
X0122024Y0109677D01*
X0122086Y0109683D01*
X0122146Y0109692D01*
X0122206Y0109706D01*
X0122265Y0109723D01*
X0122323Y0109744D01*
X0122379Y0109768D01*
X0122434Y0109796D01*
X0122487Y0109827D01*
X0122538Y0109862D01*
X0122586Y0109899D01*
X0122632Y0109940D01*
X0122676Y0109984D01*
X0122717Y0110030D01*
X0122754Y0110078D01*
X0122789Y0110129D01*
X0122820Y0110182D01*
X0122848Y0110237D01*
X0122872Y0110293D01*
X0122893Y0110351D01*
X0122910Y0110410D01*
X0122924Y0110470D01*
X0122933Y0110530D01*
X0122939Y0110592D01*
X0122941Y0110653D01*
X0122941Y0111630D01*
X0122941Y0113902D02*
X0122941Y0116346D01*
X0122941Y0115124D02*
X0118541Y0115124D01*
X0119519Y0113902D01*
X0118541Y0111630D02*
X0118541Y0110653D01*
X0118543Y0110592D01*
X0118549Y0110530D01*
X0118558Y0110470D01*
X0118572Y0110410D01*
X0118589Y0110351D01*
X0118610Y0110293D01*
X0118634Y0110237D01*
X0118662Y0110182D01*
X0118693Y0110129D01*
X0118728Y0110078D01*
X0118765Y0110030D01*
X0118806Y0109984D01*
X0118850Y0109940D01*
X0118896Y0109899D01*
X0118944Y0109862D01*
X0118995Y0109827D01*
X0119048Y0109796D01*
X0119103Y0109768D01*
X0119159Y0109744D01*
X0119217Y0109723D01*
X0119276Y0109706D01*
X0119336Y0109692D01*
X0119396Y0109683D01*
X0119458Y0109677D01*
X0119519Y0109675D01*
D14*
X0177666Y0190803D03*
X0230666Y0187053D03*
D15*
X0245362Y0154386D02*
X0253236Y0154386D01*
X0253236Y0077220D01*
X0245362Y0077220D01*
X0245362Y0154386D01*
X0253236Y0154386D02*
X0285519Y0154386D01*
X0285519Y0134110D01*
X0297330Y0134110D01*
X0297330Y0097496D01*
X0285519Y0097496D01*
X0285519Y0077220D01*
X0253236Y0077220D01*
X0285519Y0077220D02*
X0297330Y0077220D01*
X0297330Y0097496D01*
X0285519Y0097496D02*
X0285519Y0134110D01*
X0297330Y0134110D02*
X0297330Y0154386D01*
X0285519Y0154386D01*
X0282995Y0164164D02*
X0281617Y0164164D01*
X0281617Y0193692D01*
X0282995Y0193692D01*
X0282995Y0164164D01*
X0296577Y0164164D01*
X0296577Y0193692D01*
X0282995Y0193692D01*
X0114264Y0188539D02*
X0111508Y0188539D01*
X0111508Y0218067D01*
X0114264Y0218067D01*
X0114264Y0188539D01*
X0111508Y0188539D02*
X0089067Y0188539D01*
X0089067Y0218067D01*
X0111508Y0218067D01*
X0109830Y0141556D02*
X0098019Y0141556D01*
X0098019Y0133485D01*
X0109830Y0133485D01*
X0109830Y0096871D01*
X0098019Y0096871D01*
X0098019Y0088800D01*
X0065736Y0088800D01*
X0065736Y0141556D01*
X0098019Y0141556D01*
X0098019Y0133485D02*
X0098019Y0096871D01*
X0098019Y0088800D02*
X0109830Y0088800D01*
X0109830Y0096871D01*
X0065736Y0088800D02*
X0057862Y0088800D01*
X0057862Y0141556D01*
X0065736Y0141556D01*
X0109830Y0141556D02*
X0109830Y0133485D01*
D16*
X0097478Y0137673D02*
X0097478Y0140429D01*
X0095509Y0139051D01*
X0097478Y0137673D01*
X0097478Y0138035D02*
X0096961Y0138035D01*
X0097478Y0138534D02*
X0096249Y0138534D01*
X0095536Y0139032D02*
X0097478Y0139032D01*
X0097478Y0139531D02*
X0096194Y0139531D01*
X0096907Y0140029D02*
X0097478Y0140029D01*
X0107916Y0165803D02*
X0122916Y0175803D01*
X0107916Y0185803D01*
X0107916Y0165803D01*
X0107916Y0165952D02*
X0108139Y0165952D01*
X0107916Y0166450D02*
X0108887Y0166450D01*
X0109634Y0166949D02*
X0107916Y0166949D01*
X0107916Y0167447D02*
X0110382Y0167447D01*
X0111130Y0167946D02*
X0107916Y0167946D01*
X0107916Y0168444D02*
X0111878Y0168444D01*
X0112625Y0168943D02*
X0107916Y0168943D01*
X0107916Y0169441D02*
X0113373Y0169441D01*
X0114121Y0169940D02*
X0107916Y0169940D01*
X0107916Y0170438D02*
X0114869Y0170438D01*
X0115617Y0170937D02*
X0107916Y0170937D01*
X0107916Y0171435D02*
X0116364Y0171435D01*
X0117112Y0171934D02*
X0107916Y0171934D01*
X0107916Y0172432D02*
X0117860Y0172432D01*
X0118608Y0172931D02*
X0107916Y0172931D01*
X0107916Y0173429D02*
X0119355Y0173429D01*
X0120103Y0173928D02*
X0107916Y0173928D01*
X0107916Y0174427D02*
X0120851Y0174427D01*
X0121599Y0174925D02*
X0107916Y0174925D01*
X0107916Y0175424D02*
X0122346Y0175424D01*
X0122738Y0175922D02*
X0107916Y0175922D01*
X0107916Y0176421D02*
X0121990Y0176421D01*
X0121242Y0176919D02*
X0107916Y0176919D01*
X0107916Y0177418D02*
X0120494Y0177418D01*
X0119746Y0177916D02*
X0107916Y0177916D01*
X0107916Y0178415D02*
X0118999Y0178415D01*
X0118251Y0178913D02*
X0107916Y0178913D01*
X0107916Y0179412D02*
X0117503Y0179412D01*
X0116755Y0179910D02*
X0107916Y0179910D01*
X0107916Y0180409D02*
X0116008Y0180409D01*
X0115260Y0180907D02*
X0107916Y0180907D01*
X0107916Y0181406D02*
X0114512Y0181406D01*
X0113764Y0181904D02*
X0107916Y0181904D01*
X0107916Y0182403D02*
X0113017Y0182403D01*
X0112269Y0182901D02*
X0107916Y0182901D01*
X0107916Y0183400D02*
X0111521Y0183400D01*
X0110773Y0183898D02*
X0107916Y0183898D01*
X0107916Y0184397D02*
X0110026Y0184397D01*
X0109278Y0184895D02*
X0107916Y0184895D01*
X0107916Y0185394D02*
X0108530Y0185394D01*
X0111228Y0197048D02*
X0111228Y0199804D01*
X0109259Y0198426D01*
X0111228Y0197048D01*
X0111228Y0197358D02*
X0110785Y0197358D01*
X0111228Y0197857D02*
X0110073Y0197857D01*
X0109361Y0198355D02*
X0111228Y0198355D01*
X0111228Y0198854D02*
X0109870Y0198854D01*
X0110582Y0199352D02*
X0111228Y0199352D01*
X0135492Y0202435D02*
X0135717Y0201593D01*
X0136086Y0200803D01*
X0136586Y0200089D01*
X0137202Y0199473D01*
X0137916Y0198973D01*
X0138706Y0198605D01*
X0139548Y0198379D01*
X0140416Y0198303D01*
X0141284Y0198379D01*
X0142126Y0198605D01*
X0142916Y0198973D01*
X0143630Y0199473D01*
X0144246Y0200089D01*
X0144746Y0200803D01*
X0145114Y0201593D01*
X0145340Y0202435D01*
X0145416Y0203303D01*
X0135416Y0203303D01*
X0135492Y0202435D01*
X0135516Y0202343D02*
X0145315Y0202343D01*
X0145376Y0202842D02*
X0135456Y0202842D01*
X0135650Y0201845D02*
X0145182Y0201845D01*
X0144999Y0201346D02*
X0135833Y0201346D01*
X0136065Y0200848D02*
X0144767Y0200848D01*
X0144428Y0200349D02*
X0136404Y0200349D01*
X0136824Y0199851D02*
X0144007Y0199851D01*
X0143457Y0199352D02*
X0137375Y0199352D01*
X0138172Y0198854D02*
X0142660Y0198854D01*
X0141009Y0198355D02*
X0139823Y0198355D01*
X0135416Y0213303D02*
X0145416Y0213303D01*
X0145340Y0214171D01*
X0145114Y0215013D01*
X0144746Y0215803D01*
X0136086Y0215803D01*
X0135717Y0215013D01*
X0135492Y0214171D01*
X0135416Y0213303D01*
X0135417Y0213310D02*
X0145415Y0213310D01*
X0145372Y0213809D02*
X0135460Y0213809D01*
X0135528Y0214307D02*
X0145303Y0214307D01*
X0145170Y0214806D02*
X0135662Y0214806D01*
X0135853Y0215304D02*
X0144979Y0215304D01*
X0144746Y0215803D02*
X0144246Y0216517D01*
X0143630Y0217133D01*
X0142916Y0217633D01*
X0142126Y0218002D01*
X0141284Y0218227D01*
X0140416Y0218303D01*
X0139548Y0218227D01*
X0138706Y0218002D01*
X0137916Y0217633D01*
X0137202Y0217133D01*
X0136586Y0216517D01*
X0136086Y0215803D01*
X0136435Y0216301D02*
X0144397Y0216301D01*
X0143963Y0216800D02*
X0136869Y0216800D01*
X0137438Y0217298D02*
X0143394Y0217298D01*
X0142565Y0217797D02*
X0138267Y0217797D01*
X0140329Y0218296D02*
X0140503Y0218296D01*
X0082291Y0185803D02*
X0078541Y0185803D01*
X0079791Y0185892D02*
X0080952Y0185892D01*
X0081041Y0185803D02*
X0079791Y0187053D01*
X0079791Y0184553D01*
X0081041Y0185803D01*
X0080631Y0185394D02*
X0079791Y0185394D01*
X0079791Y0184895D02*
X0080133Y0184895D01*
X0081041Y0184553D02*
X0081041Y0187053D01*
X0080453Y0186391D02*
X0079791Y0186391D01*
X0079791Y0186889D02*
X0079955Y0186889D01*
X0069815Y0180921D02*
X0063516Y0180921D01*
X0063516Y0170685D01*
X0069815Y0170685D01*
X0069815Y0180921D01*
X0066666Y0177053D02*
X0063541Y0173928D01*
X0069791Y0173928D01*
X0066666Y0177053D01*
X0066532Y0176919D02*
X0066800Y0176919D01*
X0067298Y0176421D02*
X0066033Y0176421D01*
X0065535Y0175922D02*
X0067797Y0175922D01*
X0068295Y0175424D02*
X0065036Y0175424D01*
X0064538Y0174925D02*
X0068794Y0174925D01*
X0069293Y0174427D02*
X0064039Y0174427D01*
X0202291Y0214553D02*
X0206041Y0214553D01*
X0204791Y0214307D02*
X0203787Y0214307D01*
X0203541Y0214553D02*
X0204791Y0213303D01*
X0204791Y0215803D01*
X0204791Y0215803D01*
X0203541Y0214553D01*
X0203794Y0214806D02*
X0204791Y0214806D01*
X0204791Y0215304D02*
X0204292Y0215304D01*
X0203541Y0215803D02*
X0203541Y0213303D01*
X0204285Y0213809D02*
X0204791Y0213809D01*
X0204784Y0213310D02*
X0204791Y0213310D01*
X0282729Y0168308D02*
X0282729Y0165552D01*
X0284697Y0166930D01*
X0282729Y0168308D01*
X0282729Y0167946D02*
X0283246Y0167946D01*
X0282729Y0167447D02*
X0283958Y0167447D01*
X0284671Y0166949D02*
X0282729Y0166949D01*
X0282729Y0166450D02*
X0284012Y0166450D01*
X0283300Y0165952D02*
X0282729Y0165952D01*
X0284978Y0153554D02*
X0284978Y0150798D01*
X0283009Y0152176D01*
X0284978Y0153554D01*
X0284978Y0153489D02*
X0284885Y0153489D01*
X0284978Y0152991D02*
X0284173Y0152991D01*
X0283461Y0152492D02*
X0284978Y0152492D01*
X0284978Y0151994D02*
X0283270Y0151994D01*
X0283983Y0151495D02*
X0284978Y0151495D01*
X0284978Y0150996D02*
X0284695Y0150996D01*
D17*
X0189444Y0153303D02*
X0164791Y0153303D01*
X0142916Y0175803D02*
X0138416Y0175803D01*
X0137916Y0175803D02*
X0127916Y0175803D01*
X0107916Y0175803D02*
X0097916Y0175803D01*
X0097416Y0175803D02*
X0092916Y0175803D01*
X0100137Y0153303D02*
X0124791Y0153303D01*
D18*
X0099387Y0153303D03*
X0190194Y0153303D03*
D19*
X0235666Y0187053D03*
D20*
X0138349Y0175803D03*
X0097483Y0175803D03*
D21*
X0125416Y0175803D03*
D22*
X0083565Y0184621D02*
X0083498Y0184629D01*
X0083431Y0184641D01*
X0083365Y0184656D01*
X0083300Y0184675D01*
X0083237Y0184698D01*
X0083174Y0184725D01*
X0083114Y0184755D01*
X0083055Y0184788D01*
X0082998Y0184824D01*
X0082943Y0184864D01*
X0082891Y0184907D01*
X0082841Y0184953D01*
X0082794Y0185002D01*
X0082749Y0185053D01*
X0082708Y0185106D01*
X0082670Y0185162D01*
X0082635Y0185220D01*
X0082604Y0185280D01*
X0082575Y0185342D01*
X0082551Y0185405D01*
X0082530Y0185469D01*
X0082513Y0185535D01*
X0082499Y0185601D01*
X0082490Y0185668D01*
X0082484Y0185735D01*
X0082482Y0185803D01*
X0082484Y0185871D01*
X0082490Y0185938D01*
X0082499Y0186005D01*
X0082513Y0186071D01*
X0082530Y0186137D01*
X0082551Y0186201D01*
X0082575Y0186264D01*
X0082604Y0186326D01*
X0082635Y0186386D01*
X0082670Y0186444D01*
X0082708Y0186500D01*
X0082749Y0186553D01*
X0082794Y0186604D01*
X0082841Y0186653D01*
X0082891Y0186699D01*
X0082943Y0186742D01*
X0082998Y0186782D01*
X0083055Y0186818D01*
X0083114Y0186851D01*
X0083174Y0186881D01*
X0083237Y0186908D01*
X0083300Y0186931D01*
X0083365Y0186950D01*
X0083431Y0186965D01*
X0083498Y0186977D01*
X0083565Y0186985D01*
X0081892Y0187378D02*
X0079038Y0187378D01*
X0079038Y0184228D02*
X0081794Y0184228D01*
X0201017Y0213371D02*
X0201084Y0213379D01*
X0201151Y0213391D01*
X0201217Y0213406D01*
X0201282Y0213425D01*
X0201345Y0213448D01*
X0201408Y0213475D01*
X0201468Y0213505D01*
X0201527Y0213538D01*
X0201584Y0213574D01*
X0201639Y0213614D01*
X0201691Y0213657D01*
X0201741Y0213703D01*
X0201788Y0213752D01*
X0201833Y0213803D01*
X0201874Y0213856D01*
X0201912Y0213912D01*
X0201947Y0213970D01*
X0201978Y0214030D01*
X0202007Y0214092D01*
X0202031Y0214155D01*
X0202052Y0214219D01*
X0202069Y0214285D01*
X0202083Y0214351D01*
X0202092Y0214418D01*
X0202098Y0214485D01*
X0202100Y0214553D01*
X0202098Y0214621D01*
X0202092Y0214688D01*
X0202083Y0214755D01*
X0202069Y0214821D01*
X0202052Y0214887D01*
X0202031Y0214951D01*
X0202007Y0215014D01*
X0201978Y0215076D01*
X0201947Y0215136D01*
X0201912Y0215194D01*
X0201874Y0215250D01*
X0201833Y0215303D01*
X0201788Y0215354D01*
X0201741Y0215403D01*
X0201691Y0215449D01*
X0201639Y0215492D01*
X0201584Y0215532D01*
X0201527Y0215568D01*
X0201468Y0215601D01*
X0201408Y0215631D01*
X0201345Y0215658D01*
X0201282Y0215681D01*
X0201217Y0215700D01*
X0201151Y0215715D01*
X0201084Y0215727D01*
X0201017Y0215735D01*
X0202788Y0216128D02*
X0205544Y0216128D01*
X0205544Y0212978D02*
X0202690Y0212978D01*
D23*
X0201410Y0213175D02*
X0201412Y0213209D01*
X0201418Y0213243D01*
X0201428Y0213276D01*
X0201441Y0213307D01*
X0201459Y0213337D01*
X0201479Y0213365D01*
X0201503Y0213390D01*
X0201529Y0213412D01*
X0201557Y0213430D01*
X0201588Y0213446D01*
X0201620Y0213458D01*
X0201654Y0213466D01*
X0201688Y0213470D01*
X0201722Y0213470D01*
X0201756Y0213466D01*
X0201790Y0213458D01*
X0201822Y0213446D01*
X0201852Y0213430D01*
X0201881Y0213412D01*
X0201907Y0213390D01*
X0201931Y0213365D01*
X0201951Y0213337D01*
X0201969Y0213307D01*
X0201982Y0213276D01*
X0201992Y0213243D01*
X0201998Y0213209D01*
X0202000Y0213175D01*
X0201998Y0213141D01*
X0201992Y0213107D01*
X0201982Y0213074D01*
X0201969Y0213043D01*
X0201951Y0213013D01*
X0201931Y0212985D01*
X0201907Y0212960D01*
X0201881Y0212938D01*
X0201853Y0212920D01*
X0201822Y0212904D01*
X0201790Y0212892D01*
X0201756Y0212884D01*
X0201722Y0212880D01*
X0201688Y0212880D01*
X0201654Y0212884D01*
X0201620Y0212892D01*
X0201588Y0212904D01*
X0201557Y0212920D01*
X0201529Y0212938D01*
X0201503Y0212960D01*
X0201479Y0212985D01*
X0201459Y0213013D01*
X0201441Y0213043D01*
X0201428Y0213074D01*
X0201418Y0213107D01*
X0201412Y0213141D01*
X0201410Y0213175D01*
X0207414Y0213470D02*
X0207350Y0213472D01*
X0207286Y0213478D01*
X0207222Y0213487D01*
X0207160Y0213500D01*
X0207098Y0213517D01*
X0207037Y0213538D01*
X0206977Y0213562D01*
X0206919Y0213590D01*
X0206863Y0213620D01*
X0206809Y0213655D01*
X0206757Y0213692D01*
X0206707Y0213733D01*
X0206660Y0213776D01*
X0206615Y0213822D01*
X0206573Y0213871D01*
X0206534Y0213922D01*
X0206498Y0213975D01*
X0206466Y0214030D01*
X0206436Y0214087D01*
X0206410Y0214146D01*
X0206388Y0214206D01*
X0206369Y0214268D01*
X0206354Y0214330D01*
X0206343Y0214393D01*
X0206335Y0214457D01*
X0206331Y0214521D01*
X0206331Y0214585D01*
X0206335Y0214649D01*
X0206343Y0214713D01*
X0206354Y0214776D01*
X0206369Y0214838D01*
X0206388Y0214900D01*
X0206410Y0214960D01*
X0206436Y0215019D01*
X0206466Y0215076D01*
X0206498Y0215131D01*
X0206534Y0215184D01*
X0206573Y0215235D01*
X0206615Y0215284D01*
X0206660Y0215330D01*
X0206707Y0215373D01*
X0206757Y0215414D01*
X0206809Y0215451D01*
X0206863Y0215486D01*
X0206919Y0215516D01*
X0206977Y0215544D01*
X0207037Y0215568D01*
X0207098Y0215589D01*
X0207160Y0215606D01*
X0207222Y0215619D01*
X0207286Y0215628D01*
X0207350Y0215634D01*
X0207414Y0215636D01*
X0082582Y0187181D02*
X0082584Y0187215D01*
X0082590Y0187249D01*
X0082600Y0187282D01*
X0082613Y0187313D01*
X0082631Y0187343D01*
X0082651Y0187371D01*
X0082675Y0187396D01*
X0082701Y0187418D01*
X0082729Y0187436D01*
X0082760Y0187452D01*
X0082792Y0187464D01*
X0082826Y0187472D01*
X0082860Y0187476D01*
X0082894Y0187476D01*
X0082928Y0187472D01*
X0082962Y0187464D01*
X0082994Y0187452D01*
X0083024Y0187436D01*
X0083053Y0187418D01*
X0083079Y0187396D01*
X0083103Y0187371D01*
X0083123Y0187343D01*
X0083141Y0187313D01*
X0083154Y0187282D01*
X0083164Y0187249D01*
X0083170Y0187215D01*
X0083172Y0187181D01*
X0083170Y0187147D01*
X0083164Y0187113D01*
X0083154Y0187080D01*
X0083141Y0187049D01*
X0083123Y0187019D01*
X0083103Y0186991D01*
X0083079Y0186966D01*
X0083053Y0186944D01*
X0083025Y0186926D01*
X0082994Y0186910D01*
X0082962Y0186898D01*
X0082928Y0186890D01*
X0082894Y0186886D01*
X0082860Y0186886D01*
X0082826Y0186890D01*
X0082792Y0186898D01*
X0082760Y0186910D01*
X0082729Y0186926D01*
X0082701Y0186944D01*
X0082675Y0186966D01*
X0082651Y0186991D01*
X0082631Y0187019D01*
X0082613Y0187049D01*
X0082600Y0187080D01*
X0082590Y0187113D01*
X0082584Y0187147D01*
X0082582Y0187181D01*
X0077168Y0186886D02*
X0077232Y0186884D01*
X0077296Y0186878D01*
X0077360Y0186869D01*
X0077422Y0186856D01*
X0077484Y0186839D01*
X0077545Y0186818D01*
X0077605Y0186794D01*
X0077663Y0186766D01*
X0077719Y0186736D01*
X0077773Y0186701D01*
X0077825Y0186664D01*
X0077875Y0186623D01*
X0077922Y0186580D01*
X0077967Y0186534D01*
X0078009Y0186485D01*
X0078048Y0186434D01*
X0078084Y0186381D01*
X0078116Y0186326D01*
X0078146Y0186269D01*
X0078172Y0186210D01*
X0078194Y0186150D01*
X0078213Y0186088D01*
X0078228Y0186026D01*
X0078239Y0185963D01*
X0078247Y0185899D01*
X0078251Y0185835D01*
X0078251Y0185771D01*
X0078247Y0185707D01*
X0078239Y0185643D01*
X0078228Y0185580D01*
X0078213Y0185518D01*
X0078194Y0185456D01*
X0078172Y0185396D01*
X0078146Y0185337D01*
X0078116Y0185280D01*
X0078084Y0185225D01*
X0078048Y0185172D01*
X0078009Y0185121D01*
X0077967Y0185072D01*
X0077922Y0185026D01*
X0077875Y0184983D01*
X0077825Y0184942D01*
X0077773Y0184905D01*
X0077719Y0184870D01*
X0077663Y0184840D01*
X0077605Y0184812D01*
X0077545Y0184788D01*
X0077484Y0184767D01*
X0077422Y0184750D01*
X0077360Y0184737D01*
X0077296Y0184728D01*
X0077232Y0184722D01*
X0077168Y0184720D01*
D24*
X0083467Y0187181D03*
X0201115Y0213175D03*
D25*
X0201902Y0213569D03*
X0082680Y0186787D03*
D26*
X0082532Y0187476D03*
X0202050Y0212880D03*
D27*
X0201410Y0215931D03*
X0083172Y0184425D03*
D28*
X0082237Y0185803D03*
X0202345Y0214553D03*
D29*
X0206528Y0213175D03*
X0206528Y0215931D03*
X0078054Y0187181D03*
X0078054Y0184425D03*
D30*
X0078595Y0185803D03*
X0205987Y0214553D03*
D31*
X0206528Y0213667D03*
X0206528Y0215439D03*
X0078054Y0186689D03*
X0078054Y0184917D03*
D32*
X0066666Y0177772D03*
D33*
X0066666Y0181512D03*
X0066666Y0170094D03*
M02*
