G75*
%MOIN*%
%OFA0B0*%
%FSLAX25Y25*%
%IPPOS*%
%LPD*%
%AMOC8*
5,1,8,0,0,1.08239X$1,22.5*
%
%ADD10C,0.14173*%
%ADD11C,0.10236*%
%ADD12C,0.10000*%
%ADD13OC8,0.10000*%
%ADD14C,0.05937*%
%ADD15C,0.07874*%
%ADD16OC8,0.12400*%
%ADD17C,0.12400*%
%ADD18R,0.03150X0.03150*%
%ADD19R,0.06299X0.04724*%
%ADD20C,0.15000*%
%ADD21C,0.05000*%
%ADD22C,0.03200*%
%ADD23C,0.02181*%
%ADD24C,0.10000*%
%ADD25C,0.01200*%
%ADD26C,0.02400*%
D10*
X0188866Y0067132D03*
X0232640Y0068579D03*
X0232640Y0128421D03*
X0188866Y0126974D03*
D11*
X0188866Y0112014D03*
X0188866Y0097053D03*
X0232640Y0098500D03*
X0232640Y0113461D03*
X0135322Y0126974D03*
X0122798Y0128421D03*
X0122798Y0098500D03*
X0135322Y0097053D03*
X0135322Y0067132D03*
X0122798Y0068579D03*
D12*
X0222916Y0187053D03*
X0165416Y0190803D03*
D13*
X0185416Y0190803D03*
X0142916Y0174553D03*
X0124791Y0153303D03*
X0092916Y0174553D03*
X0164791Y0153303D03*
X0193812Y0137398D03*
X0224520Y0149209D03*
X0242916Y0187053D03*
D14*
X0284947Y0183928D02*
X0290884Y0183928D01*
X0290884Y0173928D02*
X0284947Y0173928D01*
X0104634Y0198382D02*
X0098697Y0198382D01*
X0098697Y0208224D02*
X0104634Y0208224D01*
D15*
X0136479Y0203303D02*
X0144353Y0203303D01*
X0144353Y0213303D02*
X0136479Y0213303D01*
D16*
X0252916Y0187053D03*
D17*
X0222916Y0187053D03*
D18*
X0207119Y0214553D03*
X0201213Y0214553D03*
X0083369Y0185803D03*
X0077463Y0185803D03*
D19*
X0066666Y0182496D03*
X0066666Y0169110D03*
D20*
X0077291Y0127383D02*
X0092291Y0127383D01*
X0092291Y0102973D02*
X0077291Y0102973D01*
X0264791Y0091394D02*
X0279791Y0091394D01*
X0279791Y0115803D02*
X0264791Y0115803D01*
X0264791Y0140213D02*
X0279791Y0140213D01*
D21*
X0292916Y0151428D02*
X0292916Y0097053D01*
X0286666Y0090803D01*
X0272881Y0090803D01*
X0272291Y0091394D01*
X0231193Y0112014D02*
X0207916Y0112014D01*
X0188866Y0112014D01*
D22*
X0188866Y0097053D02*
X0231193Y0097053D01*
X0232640Y0098500D01*
X0231193Y0112014D02*
X0232640Y0113461D01*
X0207916Y0112014D02*
X0207916Y0116428D01*
X0188866Y0097053D02*
X0163895Y0097053D01*
X0157291Y0103657D01*
X0157291Y0077949D02*
X0214166Y0077949D01*
X0149791Y0067757D02*
X0149791Y0129553D01*
X0165416Y0145178D01*
X0184791Y0145178D01*
X0187291Y0147678D01*
X0187291Y0168928D01*
X0185416Y0170803D01*
X0185416Y0190803D01*
X0179166Y0213303D02*
X0180416Y0214553D01*
X0201213Y0214553D01*
X0207119Y0214553D02*
X0214619Y0214553D01*
X0140416Y0213303D02*
X0137916Y0215803D01*
X0140416Y0203303D02*
X0134791Y0203303D01*
X0134791Y0191428D01*
X0109166Y0165803D01*
X0109166Y0158303D01*
X0102291Y0185803D02*
X0083369Y0185803D01*
X0077463Y0185803D02*
X0069973Y0185803D01*
X0066666Y0182496D01*
X0066666Y0169110D02*
X0066666Y0120803D01*
X0072291Y0115178D01*
X0109555Y0115178D01*
X0122798Y0128421D01*
X0106745Y0109553D02*
X0117798Y0098500D01*
X0122798Y0098500D01*
X0106745Y0109553D02*
X0106666Y0109553D01*
X0149166Y0067132D02*
X0149791Y0067757D01*
X0102291Y0185803D02*
X0109166Y0192678D01*
D23*
X0109166Y0192678D03*
X0101666Y0192053D03*
X0096666Y0192053D03*
X0091666Y0192053D03*
X0086666Y0195803D03*
X0071666Y0190803D03*
X0065416Y0190803D03*
X0059166Y0190803D03*
X0059166Y0182053D03*
X0059166Y0172053D03*
X0059166Y0164553D03*
X0059166Y0157053D03*
X0059166Y0149553D03*
X0072916Y0145803D03*
X0072916Y0138303D03*
X0080416Y0138303D03*
X0087916Y0138303D03*
X0094166Y0138303D03*
X0101666Y0138303D03*
X0101666Y0145803D03*
X0095416Y0145803D03*
X0095416Y0153303D03*
X0101666Y0155803D03*
X0101666Y0160803D03*
X0095416Y0159553D03*
X0095416Y0165803D03*
X0101666Y0167053D03*
X0106666Y0169553D03*
X0101666Y0173303D03*
X0106666Y0175803D03*
X0106666Y0182053D03*
X0101666Y0180803D03*
X0114166Y0182053D03*
X0114166Y0175803D03*
X0124166Y0167053D03*
X0125416Y0160803D03*
X0134166Y0160803D03*
X0134166Y0157053D03*
X0134166Y0152053D03*
X0139166Y0152053D03*
X0144166Y0152053D03*
X0144166Y0157053D03*
X0139166Y0157053D03*
X0140416Y0160803D03*
X0141666Y0167053D03*
X0147916Y0167053D03*
X0154166Y0167053D03*
X0159166Y0165803D03*
X0162916Y0160803D03*
X0170416Y0160803D03*
X0175416Y0160803D03*
X0175416Y0157053D03*
X0180416Y0157053D03*
X0180416Y0160803D03*
X0185416Y0160803D03*
X0185416Y0157053D03*
X0192916Y0159553D03*
X0196666Y0159553D03*
X0201666Y0157053D03*
X0201666Y0162053D03*
X0201666Y0167053D03*
X0201666Y0172053D03*
X0206666Y0172053D03*
X0207916Y0167053D03*
X0207916Y0162053D03*
X0207916Y0157053D03*
X0207916Y0153303D03*
X0207916Y0149553D03*
X0207916Y0145178D03*
X0202291Y0145178D03*
X0200416Y0149553D03*
X0201666Y0153303D03*
X0196666Y0153303D03*
X0192916Y0149553D03*
X0189166Y0145803D03*
X0185416Y0149553D03*
X0180416Y0149553D03*
X0175416Y0149553D03*
X0172916Y0145803D03*
X0167916Y0145178D03*
X0167916Y0140178D03*
X0167916Y0134553D03*
X0167916Y0129553D03*
X0161666Y0129553D03*
X0155416Y0129553D03*
X0149166Y0129553D03*
X0144166Y0125803D03*
X0149166Y0122053D03*
X0144166Y0119553D03*
X0142916Y0114553D03*
X0146666Y0109553D03*
X0143541Y0107053D03*
X0138541Y0107053D03*
X0132916Y0107053D03*
X0132916Y0114553D03*
X0136666Y0114553D03*
X0134166Y0119553D03*
X0149166Y0114553D03*
X0151666Y0109553D03*
X0157916Y0109553D03*
X0155416Y0114553D03*
X0161666Y0114553D03*
X0164166Y0109553D03*
X0167916Y0114553D03*
X0167916Y0122053D03*
X0161666Y0122053D03*
X0155416Y0122053D03*
X0142916Y0133303D03*
X0136666Y0134553D03*
X0130416Y0134553D03*
X0130416Y0140803D03*
X0129166Y0145803D03*
X0134166Y0145803D03*
X0139166Y0145803D03*
X0144166Y0145803D03*
X0149166Y0145178D03*
X0149166Y0149553D03*
X0149166Y0155803D03*
X0147916Y0160803D03*
X0155416Y0160803D03*
X0156666Y0155803D03*
X0156666Y0149553D03*
X0155416Y0145178D03*
X0161666Y0145178D03*
X0170416Y0149553D03*
X0176041Y0140178D03*
X0176666Y0134553D03*
X0177291Y0129553D03*
X0183541Y0140178D03*
X0181666Y0145803D03*
X0196666Y0145178D03*
X0204166Y0139553D03*
X0209166Y0139553D03*
X0209166Y0135803D03*
X0204166Y0135803D03*
X0204166Y0130803D03*
X0204166Y0127053D03*
X0209166Y0127053D03*
X0209166Y0130803D03*
X0214166Y0130803D03*
X0214166Y0127053D03*
X0219166Y0127053D03*
X0219166Y0130803D03*
X0219166Y0135803D03*
X0214166Y0135803D03*
X0214166Y0139553D03*
X0219166Y0142053D03*
X0214166Y0145178D03*
X0214166Y0149553D03*
X0214166Y0153303D03*
X0214166Y0157053D03*
X0219166Y0157053D03*
X0214166Y0162053D03*
X0196666Y0165803D03*
X0192916Y0165803D03*
X0196666Y0170803D03*
X0201666Y0177053D03*
X0204166Y0179553D03*
X0204166Y0197053D03*
X0201666Y0205803D03*
X0207916Y0205803D03*
X0214619Y0214553D03*
X0210416Y0218303D03*
X0202916Y0218303D03*
X0195416Y0218303D03*
X0195416Y0213303D03*
X0187916Y0218303D03*
X0161666Y0218303D03*
X0145416Y0195803D03*
X0145416Y0190803D03*
X0140416Y0190803D03*
X0140416Y0195803D03*
X0130416Y0195803D03*
X0127916Y0190803D03*
X0136666Y0187053D03*
X0141666Y0184553D03*
X0146666Y0184553D03*
X0149166Y0178303D03*
X0151666Y0172053D03*
X0134166Y0173303D03*
X0130416Y0178303D03*
X0134166Y0182053D03*
X0134166Y0167053D03*
X0117916Y0150803D03*
X0117916Y0145803D03*
X0117916Y0140803D03*
X0117916Y0134553D03*
X0124166Y0140803D03*
X0124166Y0145803D03*
X0136666Y0140803D03*
X0142916Y0140803D03*
X0149166Y0137053D03*
X0155416Y0137053D03*
X0161666Y0137053D03*
X0202916Y0107053D03*
X0202916Y0100803D03*
X0214166Y0100803D03*
X0214166Y0107053D03*
X0207916Y0116428D03*
X0225416Y0120803D03*
X0240416Y0120803D03*
X0249166Y0127053D03*
X0249166Y0135803D03*
X0240416Y0137053D03*
X0237916Y0142053D03*
X0241666Y0146428D03*
X0244166Y0142053D03*
X0249166Y0142053D03*
X0249166Y0146428D03*
X0249166Y0153303D03*
X0254166Y0157053D03*
X0259166Y0157053D03*
X0256666Y0152053D03*
X0256666Y0147053D03*
X0264166Y0152053D03*
X0271666Y0152053D03*
X0276666Y0152053D03*
X0285416Y0157053D03*
X0285416Y0162053D03*
X0286666Y0167053D03*
X0295416Y0157053D03*
X0295416Y0150803D03*
X0295416Y0143303D03*
X0295416Y0135803D03*
X0295416Y0128303D03*
X0295416Y0120803D03*
X0295416Y0113303D03*
X0295416Y0105803D03*
X0295416Y0099553D03*
X0295416Y0093303D03*
X0295416Y0085803D03*
X0295416Y0079553D03*
X0287916Y0079553D03*
X0280416Y0079553D03*
X0272916Y0079553D03*
X0265416Y0079553D03*
X0257916Y0079553D03*
X0256666Y0072053D03*
X0256666Y0067053D03*
X0262916Y0067053D03*
X0269166Y0067053D03*
X0269166Y0059553D03*
X0262916Y0059553D03*
X0256666Y0059553D03*
X0251666Y0063303D03*
X0240416Y0055803D03*
X0249166Y0052053D03*
X0256666Y0052053D03*
X0262916Y0052053D03*
X0269166Y0052053D03*
X0249166Y0072053D03*
X0249166Y0079553D03*
X0249166Y0087053D03*
X0249166Y0094553D03*
X0249166Y0102053D03*
X0249166Y0109553D03*
X0257916Y0103303D03*
X0265416Y0103303D03*
X0272916Y0103303D03*
X0280416Y0103303D03*
X0287916Y0103303D03*
X0274166Y0127053D03*
X0266666Y0127053D03*
X0259166Y0127053D03*
X0256666Y0132053D03*
X0234166Y0146428D03*
X0231666Y0142053D03*
X0225416Y0142053D03*
X0224166Y0135803D03*
X0234166Y0153303D03*
X0241666Y0153303D03*
X0271666Y0179553D03*
X0274166Y0182053D03*
X0274166Y0186428D03*
X0274166Y0190803D03*
X0269166Y0202053D03*
X0269166Y0209553D03*
X0264166Y0209553D03*
X0261666Y0218303D03*
X0254166Y0218303D03*
X0269166Y0218303D03*
X0286666Y0190803D03*
X0291666Y0190803D03*
X0279166Y0175803D03*
X0181666Y0092053D03*
X0181666Y0087053D03*
X0187916Y0089553D03*
X0187916Y0082053D03*
X0171666Y0087053D03*
X0171666Y0092053D03*
X0157291Y0103657D03*
X0141666Y0089553D03*
X0141666Y0082053D03*
X0141666Y0074553D03*
X0142916Y0070803D03*
X0150416Y0070803D03*
X0150416Y0063303D03*
X0142916Y0063303D03*
X0142916Y0055803D03*
X0135416Y0055803D03*
X0127916Y0055803D03*
X0120416Y0055803D03*
X0116666Y0059553D03*
X0107916Y0059553D03*
X0100416Y0059553D03*
X0092916Y0059553D03*
X0085416Y0059553D03*
X0085416Y0052053D03*
X0092916Y0052053D03*
X0100416Y0052053D03*
X0107916Y0052053D03*
X0107916Y0067053D03*
X0100416Y0067053D03*
X0092916Y0067053D03*
X0085416Y0067053D03*
X0085416Y0074553D03*
X0089166Y0078303D03*
X0092916Y0074553D03*
X0096666Y0078303D03*
X0100416Y0074553D03*
X0104166Y0078303D03*
X0107916Y0074553D03*
X0111041Y0078303D03*
X0115416Y0074553D03*
X0119166Y0078303D03*
X0134166Y0074553D03*
X0134166Y0089553D03*
X0116666Y0092053D03*
X0106666Y0092053D03*
X0100416Y0092053D03*
X0096666Y0085803D03*
X0092916Y0092053D03*
X0086666Y0092053D03*
X0080416Y0092053D03*
X0074166Y0092053D03*
X0074166Y0085803D03*
X0066666Y0085803D03*
X0067916Y0092053D03*
X0060416Y0093303D03*
X0060416Y0100803D03*
X0060416Y0108303D03*
X0060416Y0115803D03*
X0060416Y0123303D03*
X0060416Y0130803D03*
X0060416Y0138303D03*
X0072916Y0153303D03*
X0080416Y0153303D03*
X0087916Y0153303D03*
X0087916Y0159553D03*
X0087916Y0165803D03*
X0080416Y0165803D03*
X0080416Y0159553D03*
X0072916Y0159553D03*
X0072916Y0165803D03*
X0072916Y0173303D03*
X0080416Y0173303D03*
X0080416Y0180803D03*
X0087916Y0180803D03*
X0072916Y0180803D03*
X0109166Y0158303D03*
X0101666Y0119553D03*
X0106666Y0109553D03*
X0106666Y0102053D03*
X0117916Y0119553D03*
X0081666Y0078303D03*
X0074166Y0078303D03*
X0066666Y0078303D03*
X0059166Y0078303D03*
X0059166Y0085803D03*
X0151041Y0055803D03*
X0157916Y0055803D03*
X0165416Y0055803D03*
X0172916Y0055803D03*
X0180416Y0055803D03*
X0187916Y0055803D03*
X0195416Y0055803D03*
X0202916Y0055803D03*
X0210416Y0055803D03*
X0217916Y0055803D03*
X0225416Y0055803D03*
X0232916Y0055803D03*
X0210416Y0063303D03*
X0210416Y0069553D03*
X0214166Y0077949D03*
X0227916Y0080803D03*
X0227916Y0088303D03*
X0180416Y0063303D03*
X0172916Y0063303D03*
X0165416Y0063303D03*
X0157916Y0063303D03*
X0172916Y0070803D03*
X0157291Y0077949D03*
X0130416Y0202053D03*
X0127916Y0207053D03*
X0122916Y0207053D03*
X0122916Y0212053D03*
X0127916Y0212053D03*
X0127916Y0218303D03*
X0122916Y0218303D03*
X0105416Y0215803D03*
X0099166Y0215803D03*
X0092916Y0215803D03*
X0092916Y0212053D03*
X0085416Y0212053D03*
X0085416Y0218303D03*
X0124166Y0202053D03*
D24*
X0140416Y0213303D02*
X0179166Y0213303D01*
X0185416Y0207053D01*
X0185416Y0190803D01*
X0185416Y0187053D01*
X0207916Y0177053D02*
X0217916Y0187053D01*
X0222916Y0187053D01*
X0207916Y0177053D02*
X0207916Y0151502D01*
X0193812Y0137398D01*
X0224520Y0149209D02*
X0263295Y0149209D01*
X0272291Y0140213D01*
X0292916Y0151428D02*
X0257291Y0187053D01*
X0252916Y0187053D01*
X0242916Y0187053D01*
X0164791Y0153303D02*
X0143541Y0174553D01*
X0142916Y0174553D01*
X0084791Y0102973D02*
X0084791Y0086428D01*
X0102640Y0068579D01*
X0122798Y0068579D01*
X0124245Y0067132D01*
X0135322Y0067132D01*
X0149166Y0067132D01*
X0188866Y0067132D01*
X0231193Y0067132D01*
X0232640Y0068579D01*
X0255455Y0091394D01*
X0272291Y0091394D01*
D25*
X0270351Y0050478D02*
X0084575Y0050478D01*
X0084575Y0076525D01*
X0083638Y0077462D01*
X0057591Y0077462D01*
X0057591Y0192372D01*
X0083638Y0192372D01*
X0084575Y0193310D01*
X0084575Y0219357D01*
X0270351Y0219357D01*
X0270351Y0193310D01*
X0271289Y0192372D01*
X0297336Y0192372D01*
X0297336Y0077462D01*
X0271289Y0077462D01*
X0270351Y0076525D01*
X0270351Y0050478D01*
X0270351Y0050700D02*
X0084575Y0050700D01*
X0084575Y0051899D02*
X0270351Y0051899D01*
X0270351Y0053097D02*
X0084575Y0053097D01*
X0084575Y0054296D02*
X0270351Y0054296D01*
X0270351Y0055494D02*
X0084575Y0055494D01*
X0084575Y0056693D02*
X0270351Y0056693D01*
X0270351Y0057891D02*
X0084575Y0057891D01*
X0084575Y0059090D02*
X0270351Y0059090D01*
X0270351Y0060288D02*
X0084575Y0060288D01*
X0084575Y0061487D02*
X0270351Y0061487D01*
X0270351Y0062685D02*
X0084575Y0062685D01*
X0084575Y0063884D02*
X0270351Y0063884D01*
X0270351Y0065082D02*
X0084575Y0065082D01*
X0084575Y0066281D02*
X0270351Y0066281D01*
X0270351Y0067479D02*
X0084575Y0067479D01*
X0084575Y0068678D02*
X0270351Y0068678D01*
X0270351Y0069876D02*
X0084575Y0069876D01*
X0084575Y0071075D02*
X0270351Y0071075D01*
X0270351Y0072273D02*
X0084575Y0072273D01*
X0084575Y0073472D02*
X0270351Y0073472D01*
X0270351Y0074670D02*
X0084575Y0074670D01*
X0084575Y0075869D02*
X0154845Y0075869D01*
X0154578Y0076136D02*
X0155478Y0075236D01*
X0156654Y0074749D01*
X0214802Y0074749D01*
X0215979Y0075236D01*
X0216879Y0076136D01*
X0217366Y0077312D01*
X0217366Y0078585D01*
X0216879Y0079761D01*
X0215979Y0080662D01*
X0214802Y0081149D01*
X0156654Y0081149D01*
X0155478Y0080662D01*
X0154578Y0079761D01*
X0154091Y0078585D01*
X0154091Y0077312D01*
X0154578Y0076136D01*
X0154192Y0077067D02*
X0084032Y0077067D01*
X0057591Y0078266D02*
X0154091Y0078266D01*
X0154455Y0079464D02*
X0057591Y0079464D01*
X0057591Y0080663D02*
X0155481Y0080663D01*
X0162083Y0094340D02*
X0163259Y0093853D01*
X0182920Y0093853D01*
X0183170Y0093248D01*
X0185060Y0091358D01*
X0187529Y0090335D01*
X0190202Y0090335D01*
X0192671Y0091358D01*
X0194561Y0093248D01*
X0194812Y0093853D01*
X0227786Y0093853D01*
X0228835Y0092805D01*
X0231304Y0091782D01*
X0233977Y0091782D01*
X0236446Y0092805D01*
X0238336Y0094694D01*
X0239358Y0097164D01*
X0239358Y0099836D01*
X0238336Y0102305D01*
X0236446Y0104195D01*
X0233977Y0105218D01*
X0231304Y0105218D01*
X0228835Y0104195D01*
X0226945Y0102305D01*
X0226095Y0100253D01*
X0194812Y0100253D01*
X0194561Y0100859D01*
X0192671Y0102748D01*
X0190202Y0103771D01*
X0187529Y0103771D01*
X0185060Y0102748D01*
X0183170Y0100859D01*
X0182920Y0100253D01*
X0165221Y0100253D01*
X0159104Y0106370D01*
X0157927Y0106857D01*
X0156654Y0106857D01*
X0155478Y0106370D01*
X0154578Y0105470D01*
X0154091Y0104294D01*
X0154091Y0103021D01*
X0154578Y0101845D01*
X0162083Y0094340D01*
X0161378Y0095045D02*
X0141762Y0095045D01*
X0142040Y0095717D02*
X0141018Y0093248D01*
X0139128Y0091358D01*
X0136659Y0090335D01*
X0133986Y0090335D01*
X0131517Y0091358D01*
X0129627Y0093248D01*
X0128760Y0095340D01*
X0128493Y0094694D01*
X0126603Y0092805D01*
X0124134Y0091782D01*
X0121461Y0091782D01*
X0118992Y0092805D01*
X0117102Y0094694D01*
X0116787Y0095455D01*
X0115985Y0095787D01*
X0115085Y0096687D01*
X0115085Y0096687D01*
X0104988Y0106785D01*
X0104853Y0106840D01*
X0103953Y0107740D01*
X0103466Y0108917D01*
X0103466Y0110190D01*
X0103953Y0111366D01*
X0104565Y0111978D01*
X0071654Y0111978D01*
X0070478Y0112465D01*
X0069965Y0112978D01*
X0065755Y0112978D01*
X0064466Y0114267D01*
X0064466Y0118478D01*
X0063953Y0118990D01*
X0063466Y0120167D01*
X0063466Y0165148D01*
X0062854Y0165148D01*
X0061916Y0166085D01*
X0061916Y0172135D01*
X0062854Y0173072D01*
X0064466Y0173072D01*
X0064466Y0178534D01*
X0062854Y0178534D01*
X0061916Y0179471D01*
X0061916Y0185521D01*
X0062854Y0186458D01*
X0066103Y0186458D01*
X0068160Y0188516D01*
X0069336Y0189003D01*
X0078100Y0189003D01*
X0078160Y0188978D01*
X0079701Y0188978D01*
X0080416Y0188263D01*
X0081131Y0188978D01*
X0082671Y0188978D01*
X0082732Y0189003D01*
X0100965Y0189003D01*
X0103216Y0191254D01*
X0103216Y0193813D01*
X0097789Y0193813D01*
X0096110Y0194509D01*
X0094824Y0195794D01*
X0094129Y0197473D01*
X0094129Y0199291D01*
X0094824Y0200970D01*
X0096110Y0202255D01*
X0097789Y0202950D01*
X0103216Y0202950D01*
X0103216Y0204214D01*
X0104505Y0205503D01*
X0131397Y0205503D01*
X0131785Y0206440D01*
X0133342Y0207997D01*
X0135377Y0208840D01*
X0145454Y0208840D01*
X0147489Y0207997D01*
X0149047Y0206440D01*
X0149435Y0205503D01*
X0176327Y0205503D01*
X0177616Y0204214D01*
X0177616Y0182392D01*
X0176327Y0181103D01*
X0173866Y0181103D01*
X0173866Y0147392D01*
X0172577Y0146103D01*
X0147616Y0146103D01*
X0147616Y0117392D01*
X0146327Y0116103D01*
X0115005Y0116103D01*
X0112267Y0113365D01*
X0111367Y0112465D01*
X0110191Y0111978D01*
X0108845Y0111978D01*
X0117810Y0103013D01*
X0118992Y0104195D01*
X0121461Y0105218D01*
X0124134Y0105218D01*
X0126603Y0104195D01*
X0128493Y0102305D01*
X0129360Y0100213D01*
X0129627Y0100859D01*
X0131517Y0102748D01*
X0133986Y0103771D01*
X0136659Y0103771D01*
X0139128Y0102748D01*
X0141018Y0100859D01*
X0142040Y0098389D01*
X0142040Y0095717D01*
X0142040Y0096244D02*
X0160179Y0096244D01*
X0158981Y0097442D02*
X0142040Y0097442D01*
X0141936Y0098641D02*
X0157782Y0098641D01*
X0156584Y0099839D02*
X0141440Y0099839D01*
X0140839Y0101038D02*
X0155385Y0101038D01*
X0154416Y0102236D02*
X0139640Y0102236D01*
X0137471Y0103435D02*
X0154091Y0103435D01*
X0154231Y0104633D02*
X0125546Y0104633D01*
X0127364Y0103435D02*
X0133173Y0103435D01*
X0131005Y0102236D02*
X0128522Y0102236D01*
X0129018Y0101038D02*
X0129806Y0101038D01*
X0128883Y0095045D02*
X0128638Y0095045D01*
X0129379Y0093847D02*
X0127645Y0093847D01*
X0126225Y0092648D02*
X0130227Y0092648D01*
X0131425Y0091450D02*
X0057591Y0091450D01*
X0057591Y0092648D02*
X0119370Y0092648D01*
X0117950Y0093847D02*
X0057591Y0093847D01*
X0057591Y0095045D02*
X0116957Y0095045D01*
X0115529Y0096244D02*
X0057591Y0096244D01*
X0057591Y0097442D02*
X0114330Y0097442D01*
X0113132Y0098641D02*
X0057591Y0098641D01*
X0057591Y0099839D02*
X0111933Y0099839D01*
X0110735Y0101038D02*
X0057591Y0101038D01*
X0057591Y0102236D02*
X0109536Y0102236D01*
X0108338Y0103435D02*
X0057591Y0103435D01*
X0057591Y0104633D02*
X0107139Y0104633D01*
X0105941Y0105832D02*
X0057591Y0105832D01*
X0057591Y0107030D02*
X0104663Y0107030D01*
X0103751Y0108229D02*
X0057591Y0108229D01*
X0057591Y0109427D02*
X0103466Y0109427D01*
X0103647Y0110626D02*
X0057591Y0110626D01*
X0057591Y0111824D02*
X0104412Y0111824D01*
X0108999Y0111824D02*
X0182148Y0111824D01*
X0182148Y0110677D02*
X0183170Y0108208D01*
X0185060Y0106318D01*
X0187529Y0105296D01*
X0190202Y0105296D01*
X0192671Y0106318D01*
X0194267Y0107914D01*
X0228686Y0107914D01*
X0228835Y0107765D01*
X0231304Y0106743D01*
X0233977Y0106743D01*
X0236446Y0107765D01*
X0238336Y0109655D01*
X0239358Y0112124D01*
X0239358Y0114797D01*
X0238336Y0117266D01*
X0238249Y0117353D01*
X0243827Y0117353D01*
X0245116Y0118642D01*
X0245116Y0123603D01*
X0259842Y0123603D01*
X0259636Y0123518D01*
X0257076Y0120958D01*
X0255691Y0117613D01*
X0255691Y0113993D01*
X0257076Y0110648D01*
X0259636Y0108089D01*
X0262981Y0106703D01*
X0281601Y0106703D01*
X0284946Y0108089D01*
X0287505Y0110648D01*
X0288891Y0113993D01*
X0288891Y0117613D01*
X0287505Y0120958D01*
X0284946Y0123518D01*
X0284739Y0123603D01*
X0288202Y0123603D01*
X0289491Y0124892D01*
X0289491Y0144214D01*
X0274491Y0159214D01*
X0274491Y0159214D01*
X0273202Y0160503D01*
X0238866Y0160503D01*
X0238866Y0194214D01*
X0237577Y0195503D01*
X0199505Y0195503D01*
X0198216Y0194214D01*
X0198216Y0151158D01*
X0198135Y0151077D01*
X0198119Y0151039D01*
X0191333Y0144253D01*
X0188880Y0144253D01*
X0179505Y0134878D01*
X0178216Y0133589D01*
X0178216Y0118642D01*
X0179505Y0117353D01*
X0184704Y0117353D01*
X0183170Y0115819D01*
X0182148Y0113350D01*
X0182148Y0110677D01*
X0182169Y0110626D02*
X0110197Y0110626D01*
X0111396Y0109427D02*
X0182665Y0109427D01*
X0183162Y0108229D02*
X0112595Y0108229D01*
X0113793Y0107030D02*
X0184348Y0107030D01*
X0186235Y0105832D02*
X0159642Y0105832D01*
X0160841Y0104633D02*
X0229892Y0104633D01*
X0228074Y0103435D02*
X0191015Y0103435D01*
X0191496Y0105832D02*
X0297336Y0105832D01*
X0297336Y0107030D02*
X0282391Y0107030D01*
X0285086Y0108229D02*
X0297336Y0108229D01*
X0297336Y0109427D02*
X0286284Y0109427D01*
X0287483Y0110626D02*
X0297336Y0110626D01*
X0297336Y0111824D02*
X0287993Y0111824D01*
X0288489Y0113023D02*
X0297336Y0113023D01*
X0297336Y0114221D02*
X0288891Y0114221D01*
X0288891Y0115420D02*
X0297336Y0115420D01*
X0297336Y0116618D02*
X0288891Y0116618D01*
X0288807Y0117817D02*
X0297336Y0117817D01*
X0297336Y0119015D02*
X0288310Y0119015D01*
X0287814Y0120214D02*
X0297336Y0120214D01*
X0297336Y0121412D02*
X0287051Y0121412D01*
X0285852Y0122611D02*
X0297336Y0122611D01*
X0297336Y0123809D02*
X0288408Y0123809D01*
X0289491Y0125008D02*
X0297336Y0125008D01*
X0297336Y0126206D02*
X0289491Y0126206D01*
X0289491Y0127405D02*
X0297336Y0127405D01*
X0297336Y0128603D02*
X0289491Y0128603D01*
X0289491Y0129802D02*
X0297336Y0129802D01*
X0297336Y0131000D02*
X0289491Y0131000D01*
X0289491Y0132199D02*
X0297336Y0132199D01*
X0297336Y0133397D02*
X0289491Y0133397D01*
X0289491Y0134596D02*
X0297336Y0134596D01*
X0297336Y0135794D02*
X0289491Y0135794D01*
X0289491Y0136993D02*
X0297336Y0136993D01*
X0297336Y0138191D02*
X0289491Y0138191D01*
X0289491Y0139390D02*
X0297336Y0139390D01*
X0297336Y0140589D02*
X0289491Y0140589D01*
X0289491Y0141787D02*
X0297336Y0141787D01*
X0297336Y0142986D02*
X0289491Y0142986D01*
X0289491Y0144184D02*
X0297336Y0144184D01*
X0297336Y0145383D02*
X0288323Y0145383D01*
X0287124Y0146581D02*
X0297336Y0146581D01*
X0297336Y0147780D02*
X0285926Y0147780D01*
X0284727Y0148978D02*
X0297336Y0148978D01*
X0297336Y0150177D02*
X0283529Y0150177D01*
X0282330Y0151375D02*
X0297336Y0151375D01*
X0297336Y0152574D02*
X0281132Y0152574D01*
X0279933Y0153772D02*
X0297336Y0153772D01*
X0297336Y0154971D02*
X0278735Y0154971D01*
X0277536Y0156169D02*
X0297336Y0156169D01*
X0297336Y0157368D02*
X0276338Y0157368D01*
X0275139Y0158566D02*
X0297336Y0158566D01*
X0297336Y0159765D02*
X0273941Y0159765D01*
X0272291Y0158303D02*
X0287291Y0143303D01*
X0287291Y0125803D01*
X0245416Y0125803D01*
X0245416Y0141428D01*
X0217916Y0141428D01*
X0217916Y0158303D01*
X0272291Y0158303D01*
X0273226Y0157368D02*
X0217916Y0157368D01*
X0217916Y0156169D02*
X0274425Y0156169D01*
X0275623Y0154971D02*
X0217916Y0154971D01*
X0217916Y0153772D02*
X0276822Y0153772D01*
X0278020Y0152574D02*
X0217916Y0152574D01*
X0217916Y0151375D02*
X0279219Y0151375D01*
X0280417Y0150177D02*
X0217916Y0150177D01*
X0217916Y0148978D02*
X0281616Y0148978D01*
X0282814Y0147780D02*
X0217916Y0147780D01*
X0217916Y0146581D02*
X0284013Y0146581D01*
X0285211Y0145383D02*
X0217916Y0145383D01*
X0217916Y0144184D02*
X0286410Y0144184D01*
X0287291Y0142986D02*
X0217916Y0142986D01*
X0217916Y0141787D02*
X0287291Y0141787D01*
X0287291Y0140589D02*
X0245416Y0140589D01*
X0245416Y0139390D02*
X0287291Y0139390D01*
X0287291Y0138191D02*
X0245416Y0138191D01*
X0245416Y0136993D02*
X0287291Y0136993D01*
X0287291Y0135794D02*
X0245416Y0135794D01*
X0245416Y0134596D02*
X0287291Y0134596D01*
X0287291Y0133397D02*
X0245416Y0133397D01*
X0245416Y0132199D02*
X0287291Y0132199D01*
X0287291Y0131000D02*
X0245416Y0131000D01*
X0245416Y0129802D02*
X0287291Y0129802D01*
X0287291Y0128603D02*
X0245416Y0128603D01*
X0245416Y0127405D02*
X0287291Y0127405D01*
X0287291Y0126206D02*
X0245416Y0126206D01*
X0242916Y0126206D02*
X0180416Y0126206D01*
X0180416Y0125008D02*
X0242916Y0125008D01*
X0242916Y0123809D02*
X0180416Y0123809D01*
X0180416Y0122611D02*
X0242916Y0122611D01*
X0242916Y0121412D02*
X0180416Y0121412D01*
X0180416Y0120214D02*
X0242916Y0120214D01*
X0242916Y0119553D02*
X0235487Y0119553D01*
X0233977Y0120179D01*
X0231304Y0120179D01*
X0229794Y0119553D01*
X0208733Y0119553D01*
X0208552Y0119628D01*
X0207279Y0119628D01*
X0207098Y0119553D01*
X0180416Y0119553D01*
X0180416Y0132678D01*
X0189791Y0142053D01*
X0200416Y0142053D01*
X0200416Y0193303D01*
X0236666Y0193303D01*
X0236666Y0190137D01*
X0236316Y0189787D01*
X0236316Y0184319D01*
X0236666Y0183969D01*
X0236666Y0160803D01*
X0215416Y0160803D01*
X0215416Y0138303D01*
X0242916Y0138303D01*
X0242916Y0119553D01*
X0244291Y0117817D02*
X0255775Y0117817D01*
X0255691Y0116618D02*
X0238604Y0116618D01*
X0239100Y0115420D02*
X0255691Y0115420D01*
X0255691Y0114221D02*
X0239358Y0114221D01*
X0239358Y0113023D02*
X0256093Y0113023D01*
X0256589Y0111824D02*
X0239234Y0111824D01*
X0238738Y0110626D02*
X0257099Y0110626D01*
X0258297Y0109427D02*
X0238108Y0109427D01*
X0236909Y0108229D02*
X0259496Y0108229D01*
X0262191Y0107030D02*
X0234671Y0107030D01*
X0235389Y0104633D02*
X0297336Y0104633D01*
X0297336Y0103435D02*
X0237206Y0103435D01*
X0238364Y0102236D02*
X0297336Y0102236D01*
X0297336Y0101038D02*
X0238861Y0101038D01*
X0239357Y0099839D02*
X0297336Y0099839D01*
X0297336Y0098641D02*
X0239358Y0098641D01*
X0239358Y0097442D02*
X0297336Y0097442D01*
X0297336Y0096244D02*
X0238977Y0096244D01*
X0238481Y0095045D02*
X0297336Y0095045D01*
X0297336Y0093847D02*
X0237488Y0093847D01*
X0236068Y0092648D02*
X0297336Y0092648D01*
X0297336Y0091450D02*
X0192763Y0091450D01*
X0193961Y0092648D02*
X0229213Y0092648D01*
X0227793Y0093847D02*
X0194809Y0093847D01*
X0194382Y0101038D02*
X0226420Y0101038D01*
X0226916Y0102236D02*
X0193184Y0102236D01*
X0193383Y0107030D02*
X0230609Y0107030D01*
X0245116Y0119015D02*
X0256272Y0119015D01*
X0256768Y0120214D02*
X0245116Y0120214D01*
X0245116Y0121412D02*
X0257531Y0121412D01*
X0258729Y0122611D02*
X0245116Y0122611D01*
X0242916Y0127405D02*
X0180416Y0127405D01*
X0180416Y0128603D02*
X0242916Y0128603D01*
X0242916Y0129802D02*
X0180416Y0129802D01*
X0180416Y0131000D02*
X0242916Y0131000D01*
X0242916Y0132199D02*
X0180416Y0132199D01*
X0181135Y0133397D02*
X0242916Y0133397D01*
X0242916Y0134596D02*
X0182334Y0134596D01*
X0183532Y0135794D02*
X0242916Y0135794D01*
X0242916Y0136993D02*
X0184731Y0136993D01*
X0185929Y0138191D02*
X0242916Y0138191D01*
X0238866Y0160963D02*
X0297336Y0160963D01*
X0297336Y0162162D02*
X0238866Y0162162D01*
X0238866Y0163360D02*
X0297336Y0163360D01*
X0297336Y0164559D02*
X0238866Y0164559D01*
X0238866Y0165757D02*
X0297336Y0165757D01*
X0297336Y0166956D02*
X0238866Y0166956D01*
X0238866Y0168154D02*
X0297336Y0168154D01*
X0297336Y0169353D02*
X0238866Y0169353D01*
X0238866Y0170551D02*
X0281863Y0170551D01*
X0282360Y0170055D02*
X0281074Y0171340D01*
X0280379Y0173019D01*
X0280379Y0174837D01*
X0281074Y0176516D01*
X0282360Y0177801D01*
X0284039Y0178497D01*
X0291793Y0178497D01*
X0293472Y0177801D01*
X0294757Y0176516D01*
X0295453Y0174837D01*
X0295453Y0173019D01*
X0294757Y0171340D01*
X0293472Y0170055D01*
X0291793Y0169360D01*
X0284039Y0169360D01*
X0282360Y0170055D01*
X0280905Y0171750D02*
X0238866Y0171750D01*
X0238866Y0172948D02*
X0280408Y0172948D01*
X0280379Y0174147D02*
X0238866Y0174147D01*
X0238866Y0175345D02*
X0280589Y0175345D01*
X0281102Y0176544D02*
X0238866Y0176544D01*
X0238866Y0177742D02*
X0282301Y0177742D01*
X0282360Y0180055D02*
X0284039Y0179360D01*
X0291793Y0179360D01*
X0293472Y0180055D01*
X0294757Y0181340D01*
X0295453Y0183019D01*
X0295453Y0184837D01*
X0294757Y0186516D01*
X0293472Y0187801D01*
X0291793Y0188497D01*
X0284039Y0188497D01*
X0282360Y0187801D01*
X0281074Y0186516D01*
X0280379Y0184837D01*
X0280379Y0183019D01*
X0281074Y0181340D01*
X0282360Y0180055D01*
X0282275Y0180139D02*
X0238866Y0180139D01*
X0238866Y0178941D02*
X0297336Y0178941D01*
X0297336Y0180139D02*
X0293556Y0180139D01*
X0294755Y0181338D02*
X0297336Y0181338D01*
X0297336Y0182536D02*
X0295253Y0182536D01*
X0295453Y0183735D02*
X0297336Y0183735D01*
X0297336Y0184933D02*
X0295413Y0184933D01*
X0294916Y0186132D02*
X0297336Y0186132D01*
X0297336Y0187330D02*
X0293943Y0187330D01*
X0297336Y0188529D02*
X0238866Y0188529D01*
X0238866Y0189727D02*
X0297336Y0189727D01*
X0297336Y0190926D02*
X0238866Y0190926D01*
X0238866Y0192125D02*
X0297336Y0192125D01*
X0297336Y0177742D02*
X0293531Y0177742D01*
X0294730Y0176544D02*
X0297336Y0176544D01*
X0297336Y0175345D02*
X0295242Y0175345D01*
X0295453Y0174147D02*
X0297336Y0174147D01*
X0297336Y0172948D02*
X0295423Y0172948D01*
X0294927Y0171750D02*
X0297336Y0171750D01*
X0297336Y0170551D02*
X0293968Y0170551D01*
X0281077Y0181338D02*
X0238866Y0181338D01*
X0238866Y0182536D02*
X0280579Y0182536D01*
X0280379Y0183735D02*
X0238866Y0183735D01*
X0238866Y0184933D02*
X0280419Y0184933D01*
X0280915Y0186132D02*
X0238866Y0186132D01*
X0238866Y0187330D02*
X0281889Y0187330D01*
X0270351Y0193323D02*
X0238866Y0193323D01*
X0238559Y0194522D02*
X0270351Y0194522D01*
X0270351Y0195720D02*
X0177616Y0195720D01*
X0177616Y0194522D02*
X0198523Y0194522D01*
X0198216Y0193323D02*
X0177616Y0193323D01*
X0177616Y0192125D02*
X0198216Y0192125D01*
X0198216Y0190926D02*
X0177616Y0190926D01*
X0177616Y0189727D02*
X0198216Y0189727D01*
X0198216Y0188529D02*
X0177616Y0188529D01*
X0177616Y0187330D02*
X0198216Y0187330D01*
X0198216Y0186132D02*
X0177616Y0186132D01*
X0177616Y0184933D02*
X0198216Y0184933D01*
X0198216Y0183735D02*
X0177616Y0183735D01*
X0177616Y0182536D02*
X0198216Y0182536D01*
X0198216Y0181338D02*
X0176562Y0181338D01*
X0175416Y0183303D02*
X0135416Y0183303D01*
X0135416Y0167735D01*
X0145416Y0157735D01*
X0145416Y0118303D01*
X0105416Y0118303D01*
X0105416Y0184403D01*
X0111879Y0190865D01*
X0112366Y0192042D01*
X0112366Y0193315D01*
X0111879Y0194491D01*
X0110979Y0195391D01*
X0109802Y0195878D01*
X0108542Y0195878D01*
X0109203Y0197473D01*
X0109203Y0199291D01*
X0108507Y0200970D01*
X0107222Y0202255D01*
X0105543Y0202950D01*
X0105416Y0202950D01*
X0105416Y0203303D01*
X0130942Y0203303D01*
X0130942Y0202202D01*
X0131591Y0200635D01*
X0131591Y0192754D01*
X0107353Y0168516D01*
X0106453Y0167616D01*
X0105966Y0166440D01*
X0105966Y0157667D01*
X0106453Y0156490D01*
X0107353Y0155590D01*
X0108529Y0155103D01*
X0109802Y0155103D01*
X0110979Y0155590D01*
X0111879Y0156490D01*
X0112366Y0157667D01*
X0112366Y0164478D01*
X0136604Y0188715D01*
X0137504Y0189615D01*
X0137991Y0190792D01*
X0137991Y0197766D01*
X0145454Y0197766D01*
X0147489Y0198609D01*
X0149047Y0200167D01*
X0149890Y0202202D01*
X0149890Y0203303D01*
X0175416Y0203303D01*
X0175416Y0183303D01*
X0175416Y0183735D02*
X0131623Y0183735D01*
X0130425Y0182536D02*
X0135416Y0182536D01*
X0135416Y0181338D02*
X0129226Y0181338D01*
X0128028Y0180139D02*
X0135416Y0180139D01*
X0135416Y0178941D02*
X0126829Y0178941D01*
X0125631Y0177742D02*
X0135416Y0177742D01*
X0135416Y0176544D02*
X0124432Y0176544D01*
X0123234Y0175345D02*
X0135416Y0175345D01*
X0135416Y0174147D02*
X0122035Y0174147D01*
X0120837Y0172948D02*
X0135416Y0172948D01*
X0135416Y0171750D02*
X0119638Y0171750D01*
X0118440Y0170551D02*
X0135416Y0170551D01*
X0135416Y0169353D02*
X0117241Y0169353D01*
X0116042Y0168154D02*
X0135416Y0168154D01*
X0136195Y0166956D02*
X0114844Y0166956D01*
X0113645Y0165757D02*
X0137394Y0165757D01*
X0138592Y0164559D02*
X0112447Y0164559D01*
X0112366Y0163360D02*
X0139791Y0163360D01*
X0140989Y0162162D02*
X0112366Y0162162D01*
X0112366Y0160963D02*
X0142188Y0160963D01*
X0143386Y0159765D02*
X0112366Y0159765D01*
X0112366Y0158566D02*
X0144585Y0158566D01*
X0145416Y0157368D02*
X0112242Y0157368D01*
X0111557Y0156169D02*
X0145416Y0156169D01*
X0145416Y0154971D02*
X0105416Y0154971D01*
X0105416Y0156169D02*
X0106774Y0156169D01*
X0106090Y0157368D02*
X0105416Y0157368D01*
X0105416Y0158566D02*
X0105966Y0158566D01*
X0105966Y0159765D02*
X0105416Y0159765D01*
X0105416Y0160963D02*
X0105966Y0160963D01*
X0105966Y0162162D02*
X0105416Y0162162D01*
X0105416Y0163360D02*
X0105966Y0163360D01*
X0105966Y0164559D02*
X0105416Y0164559D01*
X0105416Y0165757D02*
X0105966Y0165757D01*
X0106180Y0166956D02*
X0105416Y0166956D01*
X0105416Y0168154D02*
X0106992Y0168154D01*
X0108190Y0169353D02*
X0105416Y0169353D01*
X0105416Y0170551D02*
X0109389Y0170551D01*
X0110587Y0171750D02*
X0105416Y0171750D01*
X0105416Y0172948D02*
X0111786Y0172948D01*
X0112984Y0174147D02*
X0105416Y0174147D01*
X0105416Y0175345D02*
X0114183Y0175345D01*
X0115381Y0176544D02*
X0105416Y0176544D01*
X0105416Y0177742D02*
X0116580Y0177742D01*
X0117778Y0178941D02*
X0105416Y0178941D01*
X0105416Y0180139D02*
X0118977Y0180139D01*
X0120175Y0181338D02*
X0105416Y0181338D01*
X0105416Y0182536D02*
X0121374Y0182536D01*
X0122572Y0183735D02*
X0105416Y0183735D01*
X0105947Y0184933D02*
X0123771Y0184933D01*
X0124969Y0186132D02*
X0107145Y0186132D01*
X0108344Y0187330D02*
X0126168Y0187330D01*
X0127366Y0188529D02*
X0109542Y0188529D01*
X0110741Y0189727D02*
X0128565Y0189727D01*
X0129763Y0190926D02*
X0111904Y0190926D01*
X0112366Y0192125D02*
X0130962Y0192125D01*
X0131591Y0193323D02*
X0112362Y0193323D01*
X0111848Y0194522D02*
X0131591Y0194522D01*
X0131591Y0195720D02*
X0110184Y0195720D01*
X0108973Y0196919D02*
X0131591Y0196919D01*
X0131591Y0198117D02*
X0109203Y0198117D01*
X0109193Y0199316D02*
X0131591Y0199316D01*
X0131591Y0200514D02*
X0108696Y0200514D01*
X0107765Y0201713D02*
X0131144Y0201713D01*
X0130942Y0202911D02*
X0105638Y0202911D01*
X0103216Y0204110D02*
X0084575Y0204110D01*
X0084575Y0205308D02*
X0104310Y0205308D01*
X0097694Y0202911D02*
X0084575Y0202911D01*
X0084575Y0201713D02*
X0095567Y0201713D01*
X0094636Y0200514D02*
X0084575Y0200514D01*
X0084575Y0199316D02*
X0094139Y0199316D01*
X0094129Y0198117D02*
X0084575Y0198117D01*
X0084575Y0196919D02*
X0094359Y0196919D01*
X0094898Y0195720D02*
X0084575Y0195720D01*
X0084575Y0194522D02*
X0096097Y0194522D01*
X0103216Y0193323D02*
X0084575Y0193323D01*
X0080682Y0188529D02*
X0080150Y0188529D01*
X0071415Y0182053D02*
X0102916Y0182053D01*
X0102916Y0118378D01*
X0073616Y0118378D01*
X0069866Y0122129D01*
X0069866Y0165148D01*
X0070478Y0165148D01*
X0071415Y0166085D01*
X0071415Y0172135D01*
X0070478Y0173072D01*
X0066666Y0173072D01*
X0066666Y0178534D01*
X0070478Y0178534D01*
X0071415Y0179471D01*
X0071415Y0182053D01*
X0071415Y0181338D02*
X0102916Y0181338D01*
X0102916Y0180139D02*
X0071415Y0180139D01*
X0070885Y0178941D02*
X0102916Y0178941D01*
X0102916Y0177742D02*
X0066666Y0177742D01*
X0066666Y0176544D02*
X0102916Y0176544D01*
X0102916Y0175345D02*
X0066666Y0175345D01*
X0066666Y0174147D02*
X0102916Y0174147D01*
X0102916Y0172948D02*
X0070602Y0172948D01*
X0071415Y0171750D02*
X0102916Y0171750D01*
X0102916Y0170551D02*
X0071415Y0170551D01*
X0071415Y0169353D02*
X0102916Y0169353D01*
X0102916Y0168154D02*
X0071415Y0168154D01*
X0071415Y0166956D02*
X0102916Y0166956D01*
X0102916Y0165757D02*
X0071087Y0165757D01*
X0069866Y0164559D02*
X0102916Y0164559D01*
X0102916Y0163360D02*
X0069866Y0163360D01*
X0069866Y0162162D02*
X0102916Y0162162D01*
X0102916Y0160963D02*
X0069866Y0160963D01*
X0069866Y0159765D02*
X0102916Y0159765D01*
X0102916Y0158566D02*
X0069866Y0158566D01*
X0069866Y0157368D02*
X0102916Y0157368D01*
X0102916Y0156169D02*
X0069866Y0156169D01*
X0069866Y0154971D02*
X0102916Y0154971D01*
X0102916Y0153772D02*
X0069866Y0153772D01*
X0069866Y0152574D02*
X0102916Y0152574D01*
X0102916Y0151375D02*
X0069866Y0151375D01*
X0069866Y0150177D02*
X0102916Y0150177D01*
X0102916Y0148978D02*
X0069866Y0148978D01*
X0069866Y0147780D02*
X0102916Y0147780D01*
X0102916Y0146581D02*
X0069866Y0146581D01*
X0069866Y0145383D02*
X0102916Y0145383D01*
X0102916Y0144184D02*
X0069866Y0144184D01*
X0069866Y0142986D02*
X0102916Y0142986D01*
X0102916Y0141787D02*
X0069866Y0141787D01*
X0069866Y0140589D02*
X0102916Y0140589D01*
X0102916Y0139390D02*
X0069866Y0139390D01*
X0069866Y0138191D02*
X0102916Y0138191D01*
X0102916Y0136993D02*
X0069866Y0136993D01*
X0069866Y0135794D02*
X0102916Y0135794D01*
X0102916Y0134596D02*
X0069866Y0134596D01*
X0069866Y0133397D02*
X0102916Y0133397D01*
X0102916Y0132199D02*
X0069866Y0132199D01*
X0069866Y0131000D02*
X0102916Y0131000D01*
X0102916Y0129802D02*
X0069866Y0129802D01*
X0069866Y0128603D02*
X0102916Y0128603D01*
X0102916Y0127405D02*
X0069866Y0127405D01*
X0069866Y0126206D02*
X0102916Y0126206D01*
X0102916Y0125008D02*
X0069866Y0125008D01*
X0069866Y0123809D02*
X0102916Y0123809D01*
X0102916Y0122611D02*
X0069866Y0122611D01*
X0070582Y0121412D02*
X0102916Y0121412D01*
X0102916Y0120214D02*
X0071781Y0120214D01*
X0072979Y0119015D02*
X0102916Y0119015D01*
X0105416Y0119015D02*
X0145416Y0119015D01*
X0145416Y0120214D02*
X0105416Y0120214D01*
X0105416Y0121412D02*
X0145416Y0121412D01*
X0145416Y0122611D02*
X0105416Y0122611D01*
X0105416Y0123809D02*
X0145416Y0123809D01*
X0145416Y0125008D02*
X0105416Y0125008D01*
X0105416Y0126206D02*
X0145416Y0126206D01*
X0145416Y0127405D02*
X0105416Y0127405D01*
X0105416Y0128603D02*
X0145416Y0128603D01*
X0145416Y0129802D02*
X0105416Y0129802D01*
X0105416Y0131000D02*
X0145416Y0131000D01*
X0145416Y0132199D02*
X0105416Y0132199D01*
X0105416Y0133397D02*
X0145416Y0133397D01*
X0145416Y0134596D02*
X0105416Y0134596D01*
X0105416Y0135794D02*
X0145416Y0135794D01*
X0145416Y0136993D02*
X0105416Y0136993D01*
X0105416Y0138191D02*
X0145416Y0138191D01*
X0145416Y0139390D02*
X0105416Y0139390D01*
X0105416Y0140589D02*
X0145416Y0140589D01*
X0145416Y0141787D02*
X0105416Y0141787D01*
X0105416Y0142986D02*
X0145416Y0142986D01*
X0145416Y0144184D02*
X0105416Y0144184D01*
X0105416Y0145383D02*
X0145416Y0145383D01*
X0145416Y0146581D02*
X0105416Y0146581D01*
X0105416Y0147780D02*
X0145416Y0147780D01*
X0145416Y0148978D02*
X0105416Y0148978D01*
X0105416Y0150177D02*
X0145416Y0150177D01*
X0145416Y0151375D02*
X0105416Y0151375D01*
X0105416Y0152574D02*
X0145416Y0152574D01*
X0145416Y0153772D02*
X0105416Y0153772D01*
X0137916Y0169553D02*
X0147916Y0159553D01*
X0147916Y0148303D01*
X0164598Y0148303D01*
X0164779Y0148378D01*
X0171666Y0148378D01*
X0171666Y0180803D01*
X0137916Y0180803D01*
X0137916Y0169553D01*
X0138116Y0169353D02*
X0171666Y0169353D01*
X0171666Y0170551D02*
X0137916Y0170551D01*
X0137916Y0171750D02*
X0171666Y0171750D01*
X0171666Y0172948D02*
X0137916Y0172948D01*
X0137916Y0174147D02*
X0171666Y0174147D01*
X0171666Y0175345D02*
X0137916Y0175345D01*
X0137916Y0176544D02*
X0171666Y0176544D01*
X0171666Y0177742D02*
X0137916Y0177742D01*
X0137916Y0178941D02*
X0171666Y0178941D01*
X0171666Y0180139D02*
X0137916Y0180139D01*
X0132822Y0184933D02*
X0175416Y0184933D01*
X0175416Y0186132D02*
X0134020Y0186132D01*
X0135219Y0187330D02*
X0175416Y0187330D01*
X0175416Y0188529D02*
X0136417Y0188529D01*
X0137550Y0189727D02*
X0175416Y0189727D01*
X0175416Y0190926D02*
X0137991Y0190926D01*
X0137991Y0192125D02*
X0175416Y0192125D01*
X0175416Y0193323D02*
X0137991Y0193323D01*
X0137991Y0194522D02*
X0175416Y0194522D01*
X0175416Y0195720D02*
X0137991Y0195720D01*
X0137991Y0196919D02*
X0175416Y0196919D01*
X0175416Y0198117D02*
X0146301Y0198117D01*
X0148196Y0199316D02*
X0175416Y0199316D01*
X0175416Y0200514D02*
X0149191Y0200514D01*
X0149687Y0201713D02*
X0175416Y0201713D01*
X0175416Y0202911D02*
X0149890Y0202911D01*
X0148980Y0206507D02*
X0270351Y0206507D01*
X0270351Y0207705D02*
X0147781Y0207705D01*
X0133050Y0207705D02*
X0084575Y0207705D01*
X0084575Y0206507D02*
X0131852Y0206507D01*
X0103216Y0192125D02*
X0057591Y0192125D01*
X0057591Y0190926D02*
X0102888Y0190926D01*
X0101690Y0189727D02*
X0057591Y0189727D01*
X0057591Y0188529D02*
X0068192Y0188529D01*
X0066975Y0187330D02*
X0057591Y0187330D01*
X0057591Y0186132D02*
X0062527Y0186132D01*
X0061916Y0184933D02*
X0057591Y0184933D01*
X0057591Y0183735D02*
X0061916Y0183735D01*
X0061916Y0182536D02*
X0057591Y0182536D01*
X0057591Y0181338D02*
X0061916Y0181338D01*
X0061916Y0180139D02*
X0057591Y0180139D01*
X0057591Y0178941D02*
X0062447Y0178941D01*
X0064466Y0177742D02*
X0057591Y0177742D01*
X0057591Y0176544D02*
X0064466Y0176544D01*
X0064466Y0175345D02*
X0057591Y0175345D01*
X0057591Y0174147D02*
X0064466Y0174147D01*
X0062729Y0172948D02*
X0057591Y0172948D01*
X0057591Y0171750D02*
X0061916Y0171750D01*
X0061916Y0170551D02*
X0057591Y0170551D01*
X0057591Y0169353D02*
X0061916Y0169353D01*
X0061916Y0168154D02*
X0057591Y0168154D01*
X0057591Y0166956D02*
X0061916Y0166956D01*
X0062244Y0165757D02*
X0057591Y0165757D01*
X0057591Y0164559D02*
X0063466Y0164559D01*
X0063466Y0163360D02*
X0057591Y0163360D01*
X0057591Y0162162D02*
X0063466Y0162162D01*
X0063466Y0160963D02*
X0057591Y0160963D01*
X0057591Y0159765D02*
X0063466Y0159765D01*
X0063466Y0158566D02*
X0057591Y0158566D01*
X0057591Y0157368D02*
X0063466Y0157368D01*
X0063466Y0156169D02*
X0057591Y0156169D01*
X0057591Y0154971D02*
X0063466Y0154971D01*
X0063466Y0153772D02*
X0057591Y0153772D01*
X0057591Y0152574D02*
X0063466Y0152574D01*
X0063466Y0151375D02*
X0057591Y0151375D01*
X0057591Y0150177D02*
X0063466Y0150177D01*
X0063466Y0148978D02*
X0057591Y0148978D01*
X0057591Y0147780D02*
X0063466Y0147780D01*
X0063466Y0146581D02*
X0057591Y0146581D01*
X0057591Y0145383D02*
X0063466Y0145383D01*
X0063466Y0144184D02*
X0057591Y0144184D01*
X0057591Y0142986D02*
X0063466Y0142986D01*
X0063466Y0141787D02*
X0057591Y0141787D01*
X0057591Y0140589D02*
X0063466Y0140589D01*
X0063466Y0139390D02*
X0057591Y0139390D01*
X0057591Y0138191D02*
X0063466Y0138191D01*
X0063466Y0136993D02*
X0057591Y0136993D01*
X0057591Y0135794D02*
X0063466Y0135794D01*
X0063466Y0134596D02*
X0057591Y0134596D01*
X0057591Y0133397D02*
X0063466Y0133397D01*
X0063466Y0132199D02*
X0057591Y0132199D01*
X0057591Y0131000D02*
X0063466Y0131000D01*
X0063466Y0129802D02*
X0057591Y0129802D01*
X0057591Y0128603D02*
X0063466Y0128603D01*
X0063466Y0127405D02*
X0057591Y0127405D01*
X0057591Y0126206D02*
X0063466Y0126206D01*
X0063466Y0125008D02*
X0057591Y0125008D01*
X0057591Y0123809D02*
X0063466Y0123809D01*
X0063466Y0122611D02*
X0057591Y0122611D01*
X0057591Y0121412D02*
X0063466Y0121412D01*
X0063466Y0120214D02*
X0057591Y0120214D01*
X0057591Y0119015D02*
X0063943Y0119015D01*
X0064466Y0117817D02*
X0057591Y0117817D01*
X0057591Y0116618D02*
X0064466Y0116618D01*
X0064466Y0115420D02*
X0057591Y0115420D01*
X0057591Y0114221D02*
X0064511Y0114221D01*
X0065710Y0113023D02*
X0057591Y0113023D01*
X0057591Y0090251D02*
X0297336Y0090251D01*
X0297336Y0089053D02*
X0057591Y0089053D01*
X0057591Y0087854D02*
X0297336Y0087854D01*
X0297336Y0086656D02*
X0057591Y0086656D01*
X0057591Y0085457D02*
X0297336Y0085457D01*
X0297336Y0084258D02*
X0057591Y0084258D01*
X0057591Y0083060D02*
X0297336Y0083060D01*
X0297336Y0081861D02*
X0057591Y0081861D01*
X0111925Y0113023D02*
X0182148Y0113023D01*
X0182508Y0114221D02*
X0113123Y0114221D01*
X0114322Y0115420D02*
X0183005Y0115420D01*
X0183969Y0116618D02*
X0146842Y0116618D01*
X0147616Y0117817D02*
X0179041Y0117817D01*
X0178216Y0119015D02*
X0147616Y0119015D01*
X0147616Y0120214D02*
X0178216Y0120214D01*
X0178216Y0121412D02*
X0147616Y0121412D01*
X0147616Y0122611D02*
X0178216Y0122611D01*
X0178216Y0123809D02*
X0147616Y0123809D01*
X0147616Y0125008D02*
X0178216Y0125008D01*
X0178216Y0126206D02*
X0147616Y0126206D01*
X0147616Y0127405D02*
X0178216Y0127405D01*
X0178216Y0128603D02*
X0147616Y0128603D01*
X0147616Y0129802D02*
X0178216Y0129802D01*
X0178216Y0131000D02*
X0147616Y0131000D01*
X0147616Y0132199D02*
X0178216Y0132199D01*
X0178216Y0133397D02*
X0147616Y0133397D01*
X0147616Y0134596D02*
X0179222Y0134596D01*
X0180421Y0135794D02*
X0147616Y0135794D01*
X0147616Y0136993D02*
X0181619Y0136993D01*
X0182818Y0138191D02*
X0147616Y0138191D01*
X0147616Y0139390D02*
X0184016Y0139390D01*
X0185215Y0140589D02*
X0147616Y0140589D01*
X0147616Y0141787D02*
X0186413Y0141787D01*
X0187612Y0142986D02*
X0147616Y0142986D01*
X0147616Y0144184D02*
X0188811Y0144184D01*
X0189525Y0141787D02*
X0215416Y0141787D01*
X0215416Y0140589D02*
X0188326Y0140589D01*
X0187128Y0139390D02*
X0215416Y0139390D01*
X0215416Y0142986D02*
X0200416Y0142986D01*
X0200416Y0144184D02*
X0215416Y0144184D01*
X0215416Y0145383D02*
X0200416Y0145383D01*
X0200416Y0146581D02*
X0215416Y0146581D01*
X0215416Y0147780D02*
X0200416Y0147780D01*
X0200416Y0148978D02*
X0215416Y0148978D01*
X0215416Y0150177D02*
X0200416Y0150177D01*
X0200416Y0151375D02*
X0215416Y0151375D01*
X0215416Y0152574D02*
X0200416Y0152574D01*
X0200416Y0153772D02*
X0215416Y0153772D01*
X0215416Y0154971D02*
X0200416Y0154971D01*
X0200416Y0156169D02*
X0215416Y0156169D01*
X0215416Y0157368D02*
X0200416Y0157368D01*
X0200416Y0158566D02*
X0215416Y0158566D01*
X0215416Y0159765D02*
X0200416Y0159765D01*
X0200416Y0160963D02*
X0236666Y0160963D01*
X0236666Y0162162D02*
X0200416Y0162162D01*
X0200416Y0163360D02*
X0236666Y0163360D01*
X0236666Y0164559D02*
X0200416Y0164559D01*
X0200416Y0165757D02*
X0236666Y0165757D01*
X0236666Y0166956D02*
X0200416Y0166956D01*
X0200416Y0168154D02*
X0236666Y0168154D01*
X0236666Y0169353D02*
X0200416Y0169353D01*
X0200416Y0170551D02*
X0236666Y0170551D01*
X0236666Y0171750D02*
X0200416Y0171750D01*
X0200416Y0172948D02*
X0236666Y0172948D01*
X0236666Y0174147D02*
X0200416Y0174147D01*
X0200416Y0175345D02*
X0236666Y0175345D01*
X0236666Y0176544D02*
X0200416Y0176544D01*
X0200416Y0177742D02*
X0236666Y0177742D01*
X0236666Y0178941D02*
X0200416Y0178941D01*
X0200416Y0180139D02*
X0236666Y0180139D01*
X0236666Y0181338D02*
X0200416Y0181338D01*
X0200416Y0182536D02*
X0236666Y0182536D01*
X0236666Y0183735D02*
X0200416Y0183735D01*
X0200416Y0184933D02*
X0236316Y0184933D01*
X0236316Y0186132D02*
X0200416Y0186132D01*
X0200416Y0187330D02*
X0236316Y0187330D01*
X0236316Y0188529D02*
X0200416Y0188529D01*
X0200416Y0189727D02*
X0236316Y0189727D01*
X0236666Y0190926D02*
X0200416Y0190926D01*
X0200416Y0192125D02*
X0236666Y0192125D01*
X0216431Y0211840D02*
X0217331Y0212740D01*
X0217819Y0213917D01*
X0217819Y0215190D01*
X0217331Y0216366D01*
X0216431Y0217266D01*
X0215255Y0217753D01*
X0206482Y0217753D01*
X0206421Y0217728D01*
X0204881Y0217728D01*
X0203944Y0216791D01*
X0203944Y0215250D01*
X0203919Y0215190D01*
X0203919Y0213917D01*
X0203944Y0213856D01*
X0203944Y0212316D01*
X0204881Y0211378D01*
X0206421Y0211378D01*
X0206482Y0211353D01*
X0215255Y0211353D01*
X0216431Y0211840D01*
X0217090Y0212499D02*
X0270351Y0212499D01*
X0270351Y0211301D02*
X0084575Y0211301D01*
X0084575Y0212499D02*
X0203944Y0212499D01*
X0203944Y0213698D02*
X0084575Y0213698D01*
X0084575Y0214896D02*
X0203919Y0214896D01*
X0203944Y0216095D02*
X0084575Y0216095D01*
X0084575Y0217293D02*
X0204446Y0217293D01*
X0216365Y0217293D02*
X0270351Y0217293D01*
X0270351Y0216095D02*
X0217444Y0216095D01*
X0217819Y0214896D02*
X0270351Y0214896D01*
X0270351Y0213698D02*
X0217728Y0213698D01*
X0177616Y0204110D02*
X0270351Y0204110D01*
X0270351Y0205308D02*
X0176522Y0205308D01*
X0177616Y0202911D02*
X0270351Y0202911D01*
X0270351Y0201713D02*
X0177616Y0201713D01*
X0177616Y0200514D02*
X0270351Y0200514D01*
X0270351Y0199316D02*
X0177616Y0199316D01*
X0177616Y0198117D02*
X0270351Y0198117D01*
X0270351Y0196919D02*
X0177616Y0196919D01*
X0173866Y0180139D02*
X0198216Y0180139D01*
X0198216Y0178941D02*
X0173866Y0178941D01*
X0173866Y0177742D02*
X0198216Y0177742D01*
X0198216Y0176544D02*
X0173866Y0176544D01*
X0173866Y0175345D02*
X0198216Y0175345D01*
X0198216Y0174147D02*
X0173866Y0174147D01*
X0173866Y0172948D02*
X0198216Y0172948D01*
X0198216Y0171750D02*
X0173866Y0171750D01*
X0173866Y0170551D02*
X0198216Y0170551D01*
X0198216Y0169353D02*
X0173866Y0169353D01*
X0173866Y0168154D02*
X0198216Y0168154D01*
X0198216Y0166956D02*
X0173866Y0166956D01*
X0173866Y0165757D02*
X0198216Y0165757D01*
X0198216Y0164559D02*
X0173866Y0164559D01*
X0173866Y0163360D02*
X0198216Y0163360D01*
X0198216Y0162162D02*
X0173866Y0162162D01*
X0173866Y0160963D02*
X0198216Y0160963D01*
X0198216Y0159765D02*
X0173866Y0159765D01*
X0173866Y0158566D02*
X0198216Y0158566D01*
X0198216Y0157368D02*
X0173866Y0157368D01*
X0173866Y0156169D02*
X0198216Y0156169D01*
X0198216Y0154971D02*
X0173866Y0154971D01*
X0173866Y0153772D02*
X0198216Y0153772D01*
X0198216Y0152574D02*
X0173866Y0152574D01*
X0173866Y0151375D02*
X0198216Y0151375D01*
X0197257Y0150177D02*
X0173866Y0150177D01*
X0173866Y0148978D02*
X0196058Y0148978D01*
X0194860Y0147780D02*
X0173866Y0147780D01*
X0173055Y0146581D02*
X0193661Y0146581D01*
X0192463Y0145383D02*
X0147616Y0145383D01*
X0147916Y0148978D02*
X0171666Y0148978D01*
X0171666Y0150177D02*
X0147916Y0150177D01*
X0147916Y0151375D02*
X0171666Y0151375D01*
X0171666Y0152574D02*
X0147916Y0152574D01*
X0147916Y0153772D02*
X0171666Y0153772D01*
X0171666Y0154971D02*
X0147916Y0154971D01*
X0147916Y0156169D02*
X0171666Y0156169D01*
X0171666Y0157368D02*
X0147916Y0157368D01*
X0147916Y0158566D02*
X0171666Y0158566D01*
X0171666Y0159765D02*
X0147704Y0159765D01*
X0146506Y0160963D02*
X0171666Y0160963D01*
X0171666Y0162162D02*
X0145307Y0162162D01*
X0144109Y0163360D02*
X0171666Y0163360D01*
X0171666Y0164559D02*
X0142910Y0164559D01*
X0141712Y0165757D02*
X0171666Y0165757D01*
X0171666Y0166956D02*
X0140513Y0166956D01*
X0139315Y0168154D02*
X0171666Y0168154D01*
X0154940Y0105832D02*
X0114992Y0105832D01*
X0116190Y0104633D02*
X0120049Y0104633D01*
X0118232Y0103435D02*
X0117389Y0103435D01*
X0139220Y0091450D02*
X0184968Y0091450D01*
X0183770Y0092648D02*
X0140418Y0092648D01*
X0141266Y0093847D02*
X0182922Y0093847D01*
X0183349Y0101038D02*
X0164436Y0101038D01*
X0163238Y0102236D02*
X0184548Y0102236D01*
X0186717Y0103435D02*
X0162039Y0103435D01*
X0215975Y0080663D02*
X0297336Y0080663D01*
X0297336Y0079464D02*
X0217002Y0079464D01*
X0217366Y0078266D02*
X0297336Y0078266D01*
X0270894Y0077067D02*
X0217264Y0077067D01*
X0216611Y0075869D02*
X0270351Y0075869D01*
X0270351Y0208904D02*
X0084575Y0208904D01*
X0084575Y0210102D02*
X0270351Y0210102D01*
X0270351Y0218492D02*
X0084575Y0218492D01*
D26*
X0196666Y0145178D02*
X0199791Y0148303D01*
X0204166Y0148303D01*
M02*
