%
M48
M72
T01C0.02362
T02C0.03200
T03C0.03937
T04C0.04000
T05C0.05118
T06C0.07087
T07C0.08268
T08C0.12598
%
T01
X92916Y53303
X100416Y53303
X107916Y53303
X117916Y53303
X127916Y53303
X137916Y53303
X147916Y53303
X100416Y60803
X92916Y60803
X92916Y70803
X100416Y70803
X97916Y80803
X105416Y98303
X72916Y88303
X62916Y88303
X60416Y95803
X60416Y105803
X184166Y110803
X202916Y153303
X210416Y153303
X220416Y153303
X227916Y153303
X235416Y153303
X242916Y153303
X250416Y153303
X257916Y155803
X267916Y155803
X277916Y155803
X287916Y155803
X292916Y150803
X292916Y140803
X292916Y130803
X282916Y130803
X272916Y130803
X262916Y130803
X257916Y135803
X250416Y143303
X262916Y170803
X272916Y170803
X282916Y170803
X292916Y173303
X292916Y165803
X292916Y180803
X282916Y180803
X272916Y180803
X265416Y180803
X262916Y200803
X262916Y208303
X262916Y215803
X252916Y215803
X207916Y215803
X197916Y215803
X187916Y215803
X177916Y215803
X167916Y215803
X205416Y170803
X257916Y105803
X250416Y100803
X250416Y93303
X250416Y85803
X262916Y83303
X272916Y83303
X282916Y83303
X292916Y85803
X292916Y95803
X292916Y105803
X272916Y105803
X245416Y73303
X252916Y68303
X252916Y60803
X252916Y53303
X262916Y53303
X262916Y60803
X262916Y68303
X245416Y63303
X242916Y53303
X232916Y53303
X222916Y53303
X212916Y53303
X202916Y53303
T02
X157916Y159553
X117916Y159553
X100416Y160803
X90416Y160803
X90416Y170803
X100416Y170803
T03
X71666Y168382
X71666Y178224
X84166Y145803
X124166Y145803
T04
X134166Y188303
X154166Y188303
X221666Y188303
X241666Y188303
T05
X232640Y119711
X232640Y104750
X204491Y104553
X204491Y119514
X150947Y134474
X122798Y134671
X122798Y104750
X150947Y104553
X150947Y74632
X122798Y74829
X95416Y203303
X95416Y213303
T06
X204491Y134474
X232640Y134671
X232640Y74829
X204491Y74632
T07
X272916Y95144
X272916Y119553
X272916Y143963
X85416Y120508
X85416Y96098
T08
X67227Y60114
X67227Y209720
X287699Y209720
X287699Y60114
M30
