G75*
%MOIN*%
%OFA0B0*%
%FSLAX25Y25*%
%IPPOS*%
%LPD*%
%AMOC8*
5,1,8,0,0,1.08239X$1,22.5*
%
%ADD10C,0.00000*%
%ADD11C,0.00600*%
%ADD12C,0.00800*%
%ADD13C,0.01100*%
%ADD14R,0.02500X0.09000*%
%ADD15C,0.01000*%
%ADD16C,0.00500*%
%ADD17R,0.02362X0.03937*%
%ADD18C,0.00400*%
%ADD19C,0.01200*%
%ADD20C,0.02000*%
%ADD21C,0.00200*%
%ADD22C,0.02400*%
D10*
X0055416Y0048303D02*
X0055416Y0221531D01*
X0299510Y0221531D01*
X0299510Y0048303D01*
X0055416Y0048303D01*
X0060928Y0060114D02*
X0060930Y0060272D01*
X0060936Y0060430D01*
X0060946Y0060588D01*
X0060960Y0060746D01*
X0060978Y0060903D01*
X0060999Y0061060D01*
X0061025Y0061216D01*
X0061055Y0061372D01*
X0061088Y0061527D01*
X0061126Y0061680D01*
X0061167Y0061833D01*
X0061212Y0061985D01*
X0061261Y0062136D01*
X0061314Y0062285D01*
X0061370Y0062433D01*
X0061430Y0062579D01*
X0061494Y0062724D01*
X0061562Y0062867D01*
X0061633Y0063009D01*
X0061707Y0063149D01*
X0061785Y0063286D01*
X0061867Y0063422D01*
X0061951Y0063556D01*
X0062040Y0063687D01*
X0062131Y0063816D01*
X0062226Y0063943D01*
X0062323Y0064068D01*
X0062424Y0064190D01*
X0062528Y0064309D01*
X0062635Y0064426D01*
X0062745Y0064540D01*
X0062858Y0064651D01*
X0062973Y0064760D01*
X0063091Y0064865D01*
X0063212Y0064967D01*
X0063335Y0065067D01*
X0063461Y0065163D01*
X0063589Y0065256D01*
X0063719Y0065346D01*
X0063852Y0065432D01*
X0063987Y0065516D01*
X0064123Y0065595D01*
X0064262Y0065672D01*
X0064403Y0065744D01*
X0064545Y0065814D01*
X0064689Y0065879D01*
X0064835Y0065941D01*
X0064982Y0065999D01*
X0065131Y0066054D01*
X0065281Y0066105D01*
X0065432Y0066152D01*
X0065584Y0066195D01*
X0065737Y0066234D01*
X0065892Y0066270D01*
X0066047Y0066301D01*
X0066203Y0066329D01*
X0066359Y0066353D01*
X0066516Y0066373D01*
X0066674Y0066389D01*
X0066831Y0066401D01*
X0066990Y0066409D01*
X0067148Y0066413D01*
X0067306Y0066413D01*
X0067464Y0066409D01*
X0067623Y0066401D01*
X0067780Y0066389D01*
X0067938Y0066373D01*
X0068095Y0066353D01*
X0068251Y0066329D01*
X0068407Y0066301D01*
X0068562Y0066270D01*
X0068717Y0066234D01*
X0068870Y0066195D01*
X0069022Y0066152D01*
X0069173Y0066105D01*
X0069323Y0066054D01*
X0069472Y0065999D01*
X0069619Y0065941D01*
X0069765Y0065879D01*
X0069909Y0065814D01*
X0070051Y0065744D01*
X0070192Y0065672D01*
X0070331Y0065595D01*
X0070467Y0065516D01*
X0070602Y0065432D01*
X0070735Y0065346D01*
X0070865Y0065256D01*
X0070993Y0065163D01*
X0071119Y0065067D01*
X0071242Y0064967D01*
X0071363Y0064865D01*
X0071481Y0064760D01*
X0071596Y0064651D01*
X0071709Y0064540D01*
X0071819Y0064426D01*
X0071926Y0064309D01*
X0072030Y0064190D01*
X0072131Y0064068D01*
X0072228Y0063943D01*
X0072323Y0063816D01*
X0072414Y0063687D01*
X0072503Y0063556D01*
X0072587Y0063422D01*
X0072669Y0063286D01*
X0072747Y0063149D01*
X0072821Y0063009D01*
X0072892Y0062867D01*
X0072960Y0062724D01*
X0073024Y0062579D01*
X0073084Y0062433D01*
X0073140Y0062285D01*
X0073193Y0062136D01*
X0073242Y0061985D01*
X0073287Y0061833D01*
X0073328Y0061680D01*
X0073366Y0061527D01*
X0073399Y0061372D01*
X0073429Y0061216D01*
X0073455Y0061060D01*
X0073476Y0060903D01*
X0073494Y0060746D01*
X0073508Y0060588D01*
X0073518Y0060430D01*
X0073524Y0060272D01*
X0073526Y0060114D01*
X0073524Y0059956D01*
X0073518Y0059798D01*
X0073508Y0059640D01*
X0073494Y0059482D01*
X0073476Y0059325D01*
X0073455Y0059168D01*
X0073429Y0059012D01*
X0073399Y0058856D01*
X0073366Y0058701D01*
X0073328Y0058548D01*
X0073287Y0058395D01*
X0073242Y0058243D01*
X0073193Y0058092D01*
X0073140Y0057943D01*
X0073084Y0057795D01*
X0073024Y0057649D01*
X0072960Y0057504D01*
X0072892Y0057361D01*
X0072821Y0057219D01*
X0072747Y0057079D01*
X0072669Y0056942D01*
X0072587Y0056806D01*
X0072503Y0056672D01*
X0072414Y0056541D01*
X0072323Y0056412D01*
X0072228Y0056285D01*
X0072131Y0056160D01*
X0072030Y0056038D01*
X0071926Y0055919D01*
X0071819Y0055802D01*
X0071709Y0055688D01*
X0071596Y0055577D01*
X0071481Y0055468D01*
X0071363Y0055363D01*
X0071242Y0055261D01*
X0071119Y0055161D01*
X0070993Y0055065D01*
X0070865Y0054972D01*
X0070735Y0054882D01*
X0070602Y0054796D01*
X0070467Y0054712D01*
X0070331Y0054633D01*
X0070192Y0054556D01*
X0070051Y0054484D01*
X0069909Y0054414D01*
X0069765Y0054349D01*
X0069619Y0054287D01*
X0069472Y0054229D01*
X0069323Y0054174D01*
X0069173Y0054123D01*
X0069022Y0054076D01*
X0068870Y0054033D01*
X0068717Y0053994D01*
X0068562Y0053958D01*
X0068407Y0053927D01*
X0068251Y0053899D01*
X0068095Y0053875D01*
X0067938Y0053855D01*
X0067780Y0053839D01*
X0067623Y0053827D01*
X0067464Y0053819D01*
X0067306Y0053815D01*
X0067148Y0053815D01*
X0066990Y0053819D01*
X0066831Y0053827D01*
X0066674Y0053839D01*
X0066516Y0053855D01*
X0066359Y0053875D01*
X0066203Y0053899D01*
X0066047Y0053927D01*
X0065892Y0053958D01*
X0065737Y0053994D01*
X0065584Y0054033D01*
X0065432Y0054076D01*
X0065281Y0054123D01*
X0065131Y0054174D01*
X0064982Y0054229D01*
X0064835Y0054287D01*
X0064689Y0054349D01*
X0064545Y0054414D01*
X0064403Y0054484D01*
X0064262Y0054556D01*
X0064123Y0054633D01*
X0063987Y0054712D01*
X0063852Y0054796D01*
X0063719Y0054882D01*
X0063589Y0054972D01*
X0063461Y0055065D01*
X0063335Y0055161D01*
X0063212Y0055261D01*
X0063091Y0055363D01*
X0062973Y0055468D01*
X0062858Y0055577D01*
X0062745Y0055688D01*
X0062635Y0055802D01*
X0062528Y0055919D01*
X0062424Y0056038D01*
X0062323Y0056160D01*
X0062226Y0056285D01*
X0062131Y0056412D01*
X0062040Y0056541D01*
X0061951Y0056672D01*
X0061867Y0056806D01*
X0061785Y0056942D01*
X0061707Y0057079D01*
X0061633Y0057219D01*
X0061562Y0057361D01*
X0061494Y0057504D01*
X0061430Y0057649D01*
X0061370Y0057795D01*
X0061314Y0057943D01*
X0061261Y0058092D01*
X0061212Y0058243D01*
X0061167Y0058395D01*
X0061126Y0058548D01*
X0061088Y0058701D01*
X0061055Y0058856D01*
X0061025Y0059012D01*
X0060999Y0059168D01*
X0060978Y0059325D01*
X0060960Y0059482D01*
X0060946Y0059640D01*
X0060936Y0059798D01*
X0060930Y0059956D01*
X0060928Y0060114D01*
X0060928Y0209720D02*
X0060930Y0209878D01*
X0060936Y0210036D01*
X0060946Y0210194D01*
X0060960Y0210352D01*
X0060978Y0210509D01*
X0060999Y0210666D01*
X0061025Y0210822D01*
X0061055Y0210978D01*
X0061088Y0211133D01*
X0061126Y0211286D01*
X0061167Y0211439D01*
X0061212Y0211591D01*
X0061261Y0211742D01*
X0061314Y0211891D01*
X0061370Y0212039D01*
X0061430Y0212185D01*
X0061494Y0212330D01*
X0061562Y0212473D01*
X0061633Y0212615D01*
X0061707Y0212755D01*
X0061785Y0212892D01*
X0061867Y0213028D01*
X0061951Y0213162D01*
X0062040Y0213293D01*
X0062131Y0213422D01*
X0062226Y0213549D01*
X0062323Y0213674D01*
X0062424Y0213796D01*
X0062528Y0213915D01*
X0062635Y0214032D01*
X0062745Y0214146D01*
X0062858Y0214257D01*
X0062973Y0214366D01*
X0063091Y0214471D01*
X0063212Y0214573D01*
X0063335Y0214673D01*
X0063461Y0214769D01*
X0063589Y0214862D01*
X0063719Y0214952D01*
X0063852Y0215038D01*
X0063987Y0215122D01*
X0064123Y0215201D01*
X0064262Y0215278D01*
X0064403Y0215350D01*
X0064545Y0215420D01*
X0064689Y0215485D01*
X0064835Y0215547D01*
X0064982Y0215605D01*
X0065131Y0215660D01*
X0065281Y0215711D01*
X0065432Y0215758D01*
X0065584Y0215801D01*
X0065737Y0215840D01*
X0065892Y0215876D01*
X0066047Y0215907D01*
X0066203Y0215935D01*
X0066359Y0215959D01*
X0066516Y0215979D01*
X0066674Y0215995D01*
X0066831Y0216007D01*
X0066990Y0216015D01*
X0067148Y0216019D01*
X0067306Y0216019D01*
X0067464Y0216015D01*
X0067623Y0216007D01*
X0067780Y0215995D01*
X0067938Y0215979D01*
X0068095Y0215959D01*
X0068251Y0215935D01*
X0068407Y0215907D01*
X0068562Y0215876D01*
X0068717Y0215840D01*
X0068870Y0215801D01*
X0069022Y0215758D01*
X0069173Y0215711D01*
X0069323Y0215660D01*
X0069472Y0215605D01*
X0069619Y0215547D01*
X0069765Y0215485D01*
X0069909Y0215420D01*
X0070051Y0215350D01*
X0070192Y0215278D01*
X0070331Y0215201D01*
X0070467Y0215122D01*
X0070602Y0215038D01*
X0070735Y0214952D01*
X0070865Y0214862D01*
X0070993Y0214769D01*
X0071119Y0214673D01*
X0071242Y0214573D01*
X0071363Y0214471D01*
X0071481Y0214366D01*
X0071596Y0214257D01*
X0071709Y0214146D01*
X0071819Y0214032D01*
X0071926Y0213915D01*
X0072030Y0213796D01*
X0072131Y0213674D01*
X0072228Y0213549D01*
X0072323Y0213422D01*
X0072414Y0213293D01*
X0072503Y0213162D01*
X0072587Y0213028D01*
X0072669Y0212892D01*
X0072747Y0212755D01*
X0072821Y0212615D01*
X0072892Y0212473D01*
X0072960Y0212330D01*
X0073024Y0212185D01*
X0073084Y0212039D01*
X0073140Y0211891D01*
X0073193Y0211742D01*
X0073242Y0211591D01*
X0073287Y0211439D01*
X0073328Y0211286D01*
X0073366Y0211133D01*
X0073399Y0210978D01*
X0073429Y0210822D01*
X0073455Y0210666D01*
X0073476Y0210509D01*
X0073494Y0210352D01*
X0073508Y0210194D01*
X0073518Y0210036D01*
X0073524Y0209878D01*
X0073526Y0209720D01*
X0073524Y0209562D01*
X0073518Y0209404D01*
X0073508Y0209246D01*
X0073494Y0209088D01*
X0073476Y0208931D01*
X0073455Y0208774D01*
X0073429Y0208618D01*
X0073399Y0208462D01*
X0073366Y0208307D01*
X0073328Y0208154D01*
X0073287Y0208001D01*
X0073242Y0207849D01*
X0073193Y0207698D01*
X0073140Y0207549D01*
X0073084Y0207401D01*
X0073024Y0207255D01*
X0072960Y0207110D01*
X0072892Y0206967D01*
X0072821Y0206825D01*
X0072747Y0206685D01*
X0072669Y0206548D01*
X0072587Y0206412D01*
X0072503Y0206278D01*
X0072414Y0206147D01*
X0072323Y0206018D01*
X0072228Y0205891D01*
X0072131Y0205766D01*
X0072030Y0205644D01*
X0071926Y0205525D01*
X0071819Y0205408D01*
X0071709Y0205294D01*
X0071596Y0205183D01*
X0071481Y0205074D01*
X0071363Y0204969D01*
X0071242Y0204867D01*
X0071119Y0204767D01*
X0070993Y0204671D01*
X0070865Y0204578D01*
X0070735Y0204488D01*
X0070602Y0204402D01*
X0070467Y0204318D01*
X0070331Y0204239D01*
X0070192Y0204162D01*
X0070051Y0204090D01*
X0069909Y0204020D01*
X0069765Y0203955D01*
X0069619Y0203893D01*
X0069472Y0203835D01*
X0069323Y0203780D01*
X0069173Y0203729D01*
X0069022Y0203682D01*
X0068870Y0203639D01*
X0068717Y0203600D01*
X0068562Y0203564D01*
X0068407Y0203533D01*
X0068251Y0203505D01*
X0068095Y0203481D01*
X0067938Y0203461D01*
X0067780Y0203445D01*
X0067623Y0203433D01*
X0067464Y0203425D01*
X0067306Y0203421D01*
X0067148Y0203421D01*
X0066990Y0203425D01*
X0066831Y0203433D01*
X0066674Y0203445D01*
X0066516Y0203461D01*
X0066359Y0203481D01*
X0066203Y0203505D01*
X0066047Y0203533D01*
X0065892Y0203564D01*
X0065737Y0203600D01*
X0065584Y0203639D01*
X0065432Y0203682D01*
X0065281Y0203729D01*
X0065131Y0203780D01*
X0064982Y0203835D01*
X0064835Y0203893D01*
X0064689Y0203955D01*
X0064545Y0204020D01*
X0064403Y0204090D01*
X0064262Y0204162D01*
X0064123Y0204239D01*
X0063987Y0204318D01*
X0063852Y0204402D01*
X0063719Y0204488D01*
X0063589Y0204578D01*
X0063461Y0204671D01*
X0063335Y0204767D01*
X0063212Y0204867D01*
X0063091Y0204969D01*
X0062973Y0205074D01*
X0062858Y0205183D01*
X0062745Y0205294D01*
X0062635Y0205408D01*
X0062528Y0205525D01*
X0062424Y0205644D01*
X0062323Y0205766D01*
X0062226Y0205891D01*
X0062131Y0206018D01*
X0062040Y0206147D01*
X0061951Y0206278D01*
X0061867Y0206412D01*
X0061785Y0206548D01*
X0061707Y0206685D01*
X0061633Y0206825D01*
X0061562Y0206967D01*
X0061494Y0207110D01*
X0061430Y0207255D01*
X0061370Y0207401D01*
X0061314Y0207549D01*
X0061261Y0207698D01*
X0061212Y0207849D01*
X0061167Y0208001D01*
X0061126Y0208154D01*
X0061088Y0208307D01*
X0061055Y0208462D01*
X0061025Y0208618D01*
X0060999Y0208774D01*
X0060978Y0208931D01*
X0060960Y0209088D01*
X0060946Y0209246D01*
X0060936Y0209404D01*
X0060930Y0209562D01*
X0060928Y0209720D01*
X0281400Y0209720D02*
X0281402Y0209878D01*
X0281408Y0210036D01*
X0281418Y0210194D01*
X0281432Y0210352D01*
X0281450Y0210509D01*
X0281471Y0210666D01*
X0281497Y0210822D01*
X0281527Y0210978D01*
X0281560Y0211133D01*
X0281598Y0211286D01*
X0281639Y0211439D01*
X0281684Y0211591D01*
X0281733Y0211742D01*
X0281786Y0211891D01*
X0281842Y0212039D01*
X0281902Y0212185D01*
X0281966Y0212330D01*
X0282034Y0212473D01*
X0282105Y0212615D01*
X0282179Y0212755D01*
X0282257Y0212892D01*
X0282339Y0213028D01*
X0282423Y0213162D01*
X0282512Y0213293D01*
X0282603Y0213422D01*
X0282698Y0213549D01*
X0282795Y0213674D01*
X0282896Y0213796D01*
X0283000Y0213915D01*
X0283107Y0214032D01*
X0283217Y0214146D01*
X0283330Y0214257D01*
X0283445Y0214366D01*
X0283563Y0214471D01*
X0283684Y0214573D01*
X0283807Y0214673D01*
X0283933Y0214769D01*
X0284061Y0214862D01*
X0284191Y0214952D01*
X0284324Y0215038D01*
X0284459Y0215122D01*
X0284595Y0215201D01*
X0284734Y0215278D01*
X0284875Y0215350D01*
X0285017Y0215420D01*
X0285161Y0215485D01*
X0285307Y0215547D01*
X0285454Y0215605D01*
X0285603Y0215660D01*
X0285753Y0215711D01*
X0285904Y0215758D01*
X0286056Y0215801D01*
X0286209Y0215840D01*
X0286364Y0215876D01*
X0286519Y0215907D01*
X0286675Y0215935D01*
X0286831Y0215959D01*
X0286988Y0215979D01*
X0287146Y0215995D01*
X0287303Y0216007D01*
X0287462Y0216015D01*
X0287620Y0216019D01*
X0287778Y0216019D01*
X0287936Y0216015D01*
X0288095Y0216007D01*
X0288252Y0215995D01*
X0288410Y0215979D01*
X0288567Y0215959D01*
X0288723Y0215935D01*
X0288879Y0215907D01*
X0289034Y0215876D01*
X0289189Y0215840D01*
X0289342Y0215801D01*
X0289494Y0215758D01*
X0289645Y0215711D01*
X0289795Y0215660D01*
X0289944Y0215605D01*
X0290091Y0215547D01*
X0290237Y0215485D01*
X0290381Y0215420D01*
X0290523Y0215350D01*
X0290664Y0215278D01*
X0290803Y0215201D01*
X0290939Y0215122D01*
X0291074Y0215038D01*
X0291207Y0214952D01*
X0291337Y0214862D01*
X0291465Y0214769D01*
X0291591Y0214673D01*
X0291714Y0214573D01*
X0291835Y0214471D01*
X0291953Y0214366D01*
X0292068Y0214257D01*
X0292181Y0214146D01*
X0292291Y0214032D01*
X0292398Y0213915D01*
X0292502Y0213796D01*
X0292603Y0213674D01*
X0292700Y0213549D01*
X0292795Y0213422D01*
X0292886Y0213293D01*
X0292975Y0213162D01*
X0293059Y0213028D01*
X0293141Y0212892D01*
X0293219Y0212755D01*
X0293293Y0212615D01*
X0293364Y0212473D01*
X0293432Y0212330D01*
X0293496Y0212185D01*
X0293556Y0212039D01*
X0293612Y0211891D01*
X0293665Y0211742D01*
X0293714Y0211591D01*
X0293759Y0211439D01*
X0293800Y0211286D01*
X0293838Y0211133D01*
X0293871Y0210978D01*
X0293901Y0210822D01*
X0293927Y0210666D01*
X0293948Y0210509D01*
X0293966Y0210352D01*
X0293980Y0210194D01*
X0293990Y0210036D01*
X0293996Y0209878D01*
X0293998Y0209720D01*
X0293996Y0209562D01*
X0293990Y0209404D01*
X0293980Y0209246D01*
X0293966Y0209088D01*
X0293948Y0208931D01*
X0293927Y0208774D01*
X0293901Y0208618D01*
X0293871Y0208462D01*
X0293838Y0208307D01*
X0293800Y0208154D01*
X0293759Y0208001D01*
X0293714Y0207849D01*
X0293665Y0207698D01*
X0293612Y0207549D01*
X0293556Y0207401D01*
X0293496Y0207255D01*
X0293432Y0207110D01*
X0293364Y0206967D01*
X0293293Y0206825D01*
X0293219Y0206685D01*
X0293141Y0206548D01*
X0293059Y0206412D01*
X0292975Y0206278D01*
X0292886Y0206147D01*
X0292795Y0206018D01*
X0292700Y0205891D01*
X0292603Y0205766D01*
X0292502Y0205644D01*
X0292398Y0205525D01*
X0292291Y0205408D01*
X0292181Y0205294D01*
X0292068Y0205183D01*
X0291953Y0205074D01*
X0291835Y0204969D01*
X0291714Y0204867D01*
X0291591Y0204767D01*
X0291465Y0204671D01*
X0291337Y0204578D01*
X0291207Y0204488D01*
X0291074Y0204402D01*
X0290939Y0204318D01*
X0290803Y0204239D01*
X0290664Y0204162D01*
X0290523Y0204090D01*
X0290381Y0204020D01*
X0290237Y0203955D01*
X0290091Y0203893D01*
X0289944Y0203835D01*
X0289795Y0203780D01*
X0289645Y0203729D01*
X0289494Y0203682D01*
X0289342Y0203639D01*
X0289189Y0203600D01*
X0289034Y0203564D01*
X0288879Y0203533D01*
X0288723Y0203505D01*
X0288567Y0203481D01*
X0288410Y0203461D01*
X0288252Y0203445D01*
X0288095Y0203433D01*
X0287936Y0203425D01*
X0287778Y0203421D01*
X0287620Y0203421D01*
X0287462Y0203425D01*
X0287303Y0203433D01*
X0287146Y0203445D01*
X0286988Y0203461D01*
X0286831Y0203481D01*
X0286675Y0203505D01*
X0286519Y0203533D01*
X0286364Y0203564D01*
X0286209Y0203600D01*
X0286056Y0203639D01*
X0285904Y0203682D01*
X0285753Y0203729D01*
X0285603Y0203780D01*
X0285454Y0203835D01*
X0285307Y0203893D01*
X0285161Y0203955D01*
X0285017Y0204020D01*
X0284875Y0204090D01*
X0284734Y0204162D01*
X0284595Y0204239D01*
X0284459Y0204318D01*
X0284324Y0204402D01*
X0284191Y0204488D01*
X0284061Y0204578D01*
X0283933Y0204671D01*
X0283807Y0204767D01*
X0283684Y0204867D01*
X0283563Y0204969D01*
X0283445Y0205074D01*
X0283330Y0205183D01*
X0283217Y0205294D01*
X0283107Y0205408D01*
X0283000Y0205525D01*
X0282896Y0205644D01*
X0282795Y0205766D01*
X0282698Y0205891D01*
X0282603Y0206018D01*
X0282512Y0206147D01*
X0282423Y0206278D01*
X0282339Y0206412D01*
X0282257Y0206548D01*
X0282179Y0206685D01*
X0282105Y0206825D01*
X0282034Y0206967D01*
X0281966Y0207110D01*
X0281902Y0207255D01*
X0281842Y0207401D01*
X0281786Y0207549D01*
X0281733Y0207698D01*
X0281684Y0207849D01*
X0281639Y0208001D01*
X0281598Y0208154D01*
X0281560Y0208307D01*
X0281527Y0208462D01*
X0281497Y0208618D01*
X0281471Y0208774D01*
X0281450Y0208931D01*
X0281432Y0209088D01*
X0281418Y0209246D01*
X0281408Y0209404D01*
X0281402Y0209562D01*
X0281400Y0209720D01*
X0281400Y0060114D02*
X0281402Y0060272D01*
X0281408Y0060430D01*
X0281418Y0060588D01*
X0281432Y0060746D01*
X0281450Y0060903D01*
X0281471Y0061060D01*
X0281497Y0061216D01*
X0281527Y0061372D01*
X0281560Y0061527D01*
X0281598Y0061680D01*
X0281639Y0061833D01*
X0281684Y0061985D01*
X0281733Y0062136D01*
X0281786Y0062285D01*
X0281842Y0062433D01*
X0281902Y0062579D01*
X0281966Y0062724D01*
X0282034Y0062867D01*
X0282105Y0063009D01*
X0282179Y0063149D01*
X0282257Y0063286D01*
X0282339Y0063422D01*
X0282423Y0063556D01*
X0282512Y0063687D01*
X0282603Y0063816D01*
X0282698Y0063943D01*
X0282795Y0064068D01*
X0282896Y0064190D01*
X0283000Y0064309D01*
X0283107Y0064426D01*
X0283217Y0064540D01*
X0283330Y0064651D01*
X0283445Y0064760D01*
X0283563Y0064865D01*
X0283684Y0064967D01*
X0283807Y0065067D01*
X0283933Y0065163D01*
X0284061Y0065256D01*
X0284191Y0065346D01*
X0284324Y0065432D01*
X0284459Y0065516D01*
X0284595Y0065595D01*
X0284734Y0065672D01*
X0284875Y0065744D01*
X0285017Y0065814D01*
X0285161Y0065879D01*
X0285307Y0065941D01*
X0285454Y0065999D01*
X0285603Y0066054D01*
X0285753Y0066105D01*
X0285904Y0066152D01*
X0286056Y0066195D01*
X0286209Y0066234D01*
X0286364Y0066270D01*
X0286519Y0066301D01*
X0286675Y0066329D01*
X0286831Y0066353D01*
X0286988Y0066373D01*
X0287146Y0066389D01*
X0287303Y0066401D01*
X0287462Y0066409D01*
X0287620Y0066413D01*
X0287778Y0066413D01*
X0287936Y0066409D01*
X0288095Y0066401D01*
X0288252Y0066389D01*
X0288410Y0066373D01*
X0288567Y0066353D01*
X0288723Y0066329D01*
X0288879Y0066301D01*
X0289034Y0066270D01*
X0289189Y0066234D01*
X0289342Y0066195D01*
X0289494Y0066152D01*
X0289645Y0066105D01*
X0289795Y0066054D01*
X0289944Y0065999D01*
X0290091Y0065941D01*
X0290237Y0065879D01*
X0290381Y0065814D01*
X0290523Y0065744D01*
X0290664Y0065672D01*
X0290803Y0065595D01*
X0290939Y0065516D01*
X0291074Y0065432D01*
X0291207Y0065346D01*
X0291337Y0065256D01*
X0291465Y0065163D01*
X0291591Y0065067D01*
X0291714Y0064967D01*
X0291835Y0064865D01*
X0291953Y0064760D01*
X0292068Y0064651D01*
X0292181Y0064540D01*
X0292291Y0064426D01*
X0292398Y0064309D01*
X0292502Y0064190D01*
X0292603Y0064068D01*
X0292700Y0063943D01*
X0292795Y0063816D01*
X0292886Y0063687D01*
X0292975Y0063556D01*
X0293059Y0063422D01*
X0293141Y0063286D01*
X0293219Y0063149D01*
X0293293Y0063009D01*
X0293364Y0062867D01*
X0293432Y0062724D01*
X0293496Y0062579D01*
X0293556Y0062433D01*
X0293612Y0062285D01*
X0293665Y0062136D01*
X0293714Y0061985D01*
X0293759Y0061833D01*
X0293800Y0061680D01*
X0293838Y0061527D01*
X0293871Y0061372D01*
X0293901Y0061216D01*
X0293927Y0061060D01*
X0293948Y0060903D01*
X0293966Y0060746D01*
X0293980Y0060588D01*
X0293990Y0060430D01*
X0293996Y0060272D01*
X0293998Y0060114D01*
X0293996Y0059956D01*
X0293990Y0059798D01*
X0293980Y0059640D01*
X0293966Y0059482D01*
X0293948Y0059325D01*
X0293927Y0059168D01*
X0293901Y0059012D01*
X0293871Y0058856D01*
X0293838Y0058701D01*
X0293800Y0058548D01*
X0293759Y0058395D01*
X0293714Y0058243D01*
X0293665Y0058092D01*
X0293612Y0057943D01*
X0293556Y0057795D01*
X0293496Y0057649D01*
X0293432Y0057504D01*
X0293364Y0057361D01*
X0293293Y0057219D01*
X0293219Y0057079D01*
X0293141Y0056942D01*
X0293059Y0056806D01*
X0292975Y0056672D01*
X0292886Y0056541D01*
X0292795Y0056412D01*
X0292700Y0056285D01*
X0292603Y0056160D01*
X0292502Y0056038D01*
X0292398Y0055919D01*
X0292291Y0055802D01*
X0292181Y0055688D01*
X0292068Y0055577D01*
X0291953Y0055468D01*
X0291835Y0055363D01*
X0291714Y0055261D01*
X0291591Y0055161D01*
X0291465Y0055065D01*
X0291337Y0054972D01*
X0291207Y0054882D01*
X0291074Y0054796D01*
X0290939Y0054712D01*
X0290803Y0054633D01*
X0290664Y0054556D01*
X0290523Y0054484D01*
X0290381Y0054414D01*
X0290237Y0054349D01*
X0290091Y0054287D01*
X0289944Y0054229D01*
X0289795Y0054174D01*
X0289645Y0054123D01*
X0289494Y0054076D01*
X0289342Y0054033D01*
X0289189Y0053994D01*
X0289034Y0053958D01*
X0288879Y0053927D01*
X0288723Y0053899D01*
X0288567Y0053875D01*
X0288410Y0053855D01*
X0288252Y0053839D01*
X0288095Y0053827D01*
X0287936Y0053819D01*
X0287778Y0053815D01*
X0287620Y0053815D01*
X0287462Y0053819D01*
X0287303Y0053827D01*
X0287146Y0053839D01*
X0286988Y0053855D01*
X0286831Y0053875D01*
X0286675Y0053899D01*
X0286519Y0053927D01*
X0286364Y0053958D01*
X0286209Y0053994D01*
X0286056Y0054033D01*
X0285904Y0054076D01*
X0285753Y0054123D01*
X0285603Y0054174D01*
X0285454Y0054229D01*
X0285307Y0054287D01*
X0285161Y0054349D01*
X0285017Y0054414D01*
X0284875Y0054484D01*
X0284734Y0054556D01*
X0284595Y0054633D01*
X0284459Y0054712D01*
X0284324Y0054796D01*
X0284191Y0054882D01*
X0284061Y0054972D01*
X0283933Y0055065D01*
X0283807Y0055161D01*
X0283684Y0055261D01*
X0283563Y0055363D01*
X0283445Y0055468D01*
X0283330Y0055577D01*
X0283217Y0055688D01*
X0283107Y0055802D01*
X0283000Y0055919D01*
X0282896Y0056038D01*
X0282795Y0056160D01*
X0282698Y0056285D01*
X0282603Y0056412D01*
X0282512Y0056541D01*
X0282423Y0056672D01*
X0282339Y0056806D01*
X0282257Y0056942D01*
X0282179Y0057079D01*
X0282105Y0057219D01*
X0282034Y0057361D01*
X0281966Y0057504D01*
X0281902Y0057649D01*
X0281842Y0057795D01*
X0281786Y0057943D01*
X0281733Y0058092D01*
X0281684Y0058243D01*
X0281639Y0058395D01*
X0281598Y0058548D01*
X0281560Y0058701D01*
X0281527Y0058856D01*
X0281497Y0059012D01*
X0281471Y0059168D01*
X0281450Y0059325D01*
X0281432Y0059482D01*
X0281418Y0059640D01*
X0281408Y0059798D01*
X0281402Y0059956D01*
X0281400Y0060114D01*
D11*
X0242877Y0059474D02*
X0112955Y0059474D01*
X0112955Y0144632D01*
X0117955Y0149632D01*
X0242877Y0149632D01*
X0242877Y0059474D01*
X0215514Y0058490D02*
X0140317Y0058490D01*
X0140317Y0145616D01*
X0145317Y0150616D01*
X0215514Y0150616D01*
X0215514Y0058490D01*
X0214756Y0156103D02*
X0216645Y0156103D01*
X0218356Y0156103D02*
X0220245Y0156103D01*
X0222025Y0156670D02*
X0222025Y0158370D01*
X0223536Y0158370D02*
X0223536Y0156103D01*
X0222591Y0156103D01*
X0222544Y0156105D01*
X0222498Y0156111D01*
X0222452Y0156120D01*
X0222407Y0156134D01*
X0222363Y0156151D01*
X0222321Y0156171D01*
X0222281Y0156195D01*
X0222243Y0156223D01*
X0222207Y0156253D01*
X0222174Y0156286D01*
X0222144Y0156322D01*
X0222116Y0156360D01*
X0222092Y0156400D01*
X0222072Y0156442D01*
X0222055Y0156486D01*
X0222041Y0156531D01*
X0222032Y0156577D01*
X0222026Y0156623D01*
X0222024Y0156670D01*
X0219961Y0157992D02*
X0218356Y0156103D01*
X0218356Y0158747D02*
X0218378Y0158809D01*
X0218404Y0158869D01*
X0218433Y0158928D01*
X0218466Y0158984D01*
X0218502Y0159039D01*
X0218541Y0159091D01*
X0218583Y0159141D01*
X0218628Y0159188D01*
X0218676Y0159233D01*
X0218727Y0159275D01*
X0218779Y0159313D01*
X0218835Y0159348D01*
X0218892Y0159380D01*
X0218951Y0159408D01*
X0219011Y0159433D01*
X0219073Y0159454D01*
X0219136Y0159472D01*
X0219200Y0159485D01*
X0219265Y0159495D01*
X0219330Y0159501D01*
X0219395Y0159503D01*
X0219451Y0159501D01*
X0219506Y0159496D01*
X0219561Y0159487D01*
X0219615Y0159474D01*
X0219668Y0159458D01*
X0219720Y0159438D01*
X0219771Y0159415D01*
X0219820Y0159389D01*
X0219867Y0159360D01*
X0219912Y0159327D01*
X0219955Y0159292D01*
X0219996Y0159254D01*
X0220034Y0159213D01*
X0220069Y0159170D01*
X0220102Y0159125D01*
X0220131Y0159078D01*
X0220157Y0159029D01*
X0220180Y0158978D01*
X0220200Y0158926D01*
X0220216Y0158873D01*
X0220229Y0158819D01*
X0220238Y0158764D01*
X0220243Y0158709D01*
X0220245Y0158653D01*
X0220243Y0158596D01*
X0220238Y0158540D01*
X0220229Y0158483D01*
X0220217Y0158428D01*
X0220201Y0158373D01*
X0220182Y0158320D01*
X0220160Y0158267D01*
X0220134Y0158217D01*
X0220105Y0158168D01*
X0220074Y0158120D01*
X0220039Y0158075D01*
X0220002Y0158032D01*
X0219962Y0157992D01*
X0225446Y0157992D02*
X0226957Y0157992D01*
X0226957Y0159503D02*
X0225446Y0159503D01*
X0225446Y0156103D01*
X0228265Y0155725D02*
X0229776Y0155725D01*
X0231316Y0156103D02*
X0233205Y0156103D01*
X0232260Y0156103D02*
X0232260Y0159503D01*
X0231316Y0158748D01*
X0236805Y0157803D02*
X0236803Y0157705D01*
X0236798Y0157608D01*
X0236790Y0157510D01*
X0236778Y0157413D01*
X0236762Y0157317D01*
X0236744Y0157221D01*
X0236722Y0157125D01*
X0236697Y0157031D01*
X0236668Y0156937D01*
X0236636Y0156845D01*
X0236601Y0156754D01*
X0236563Y0156664D01*
X0236522Y0156575D01*
X0236521Y0156575D02*
X0236503Y0156528D01*
X0236481Y0156482D01*
X0236456Y0156437D01*
X0236428Y0156395D01*
X0236397Y0156354D01*
X0236363Y0156316D01*
X0236326Y0156281D01*
X0236287Y0156248D01*
X0236245Y0156219D01*
X0236202Y0156192D01*
X0236156Y0156169D01*
X0236109Y0156149D01*
X0236061Y0156133D01*
X0236012Y0156120D01*
X0235962Y0156110D01*
X0235911Y0156105D01*
X0235860Y0156103D01*
X0235809Y0156105D01*
X0235758Y0156110D01*
X0235708Y0156120D01*
X0235659Y0156133D01*
X0235611Y0156149D01*
X0235564Y0156169D01*
X0235518Y0156192D01*
X0235475Y0156219D01*
X0235433Y0156248D01*
X0235394Y0156281D01*
X0235357Y0156316D01*
X0235323Y0156354D01*
X0235292Y0156395D01*
X0235264Y0156437D01*
X0235239Y0156482D01*
X0235217Y0156528D01*
X0235199Y0156575D01*
X0235105Y0156859D02*
X0236616Y0158748D01*
X0235860Y0159503D02*
X0235809Y0159501D01*
X0235758Y0159496D01*
X0235708Y0159486D01*
X0235659Y0159473D01*
X0235611Y0159457D01*
X0235564Y0159437D01*
X0235518Y0159414D01*
X0235475Y0159387D01*
X0235433Y0159358D01*
X0235394Y0159325D01*
X0235357Y0159290D01*
X0235323Y0159252D01*
X0235292Y0159211D01*
X0235264Y0159169D01*
X0235239Y0159124D01*
X0235217Y0159078D01*
X0235199Y0159031D01*
X0235860Y0159503D02*
X0235911Y0159501D01*
X0235962Y0159496D01*
X0236012Y0159486D01*
X0236061Y0159473D01*
X0236109Y0159457D01*
X0236156Y0159437D01*
X0236202Y0159414D01*
X0236245Y0159387D01*
X0236287Y0159358D01*
X0236326Y0159325D01*
X0236363Y0159290D01*
X0236397Y0159252D01*
X0236428Y0159211D01*
X0236456Y0159169D01*
X0236481Y0159124D01*
X0236503Y0159078D01*
X0236521Y0159031D01*
X0240405Y0157803D02*
X0240403Y0157705D01*
X0240398Y0157608D01*
X0240390Y0157510D01*
X0240378Y0157413D01*
X0240362Y0157317D01*
X0240344Y0157221D01*
X0240322Y0157125D01*
X0240297Y0157031D01*
X0240268Y0156937D01*
X0240236Y0156845D01*
X0240201Y0156754D01*
X0240163Y0156664D01*
X0240122Y0156575D01*
X0240121Y0156575D02*
X0240103Y0156528D01*
X0240081Y0156482D01*
X0240056Y0156437D01*
X0240028Y0156395D01*
X0239997Y0156354D01*
X0239963Y0156316D01*
X0239926Y0156281D01*
X0239887Y0156248D01*
X0239845Y0156219D01*
X0239802Y0156192D01*
X0239756Y0156169D01*
X0239709Y0156149D01*
X0239661Y0156133D01*
X0239612Y0156120D01*
X0239562Y0156110D01*
X0239511Y0156105D01*
X0239460Y0156103D01*
X0239409Y0156105D01*
X0239358Y0156110D01*
X0239308Y0156120D01*
X0239259Y0156133D01*
X0239211Y0156149D01*
X0239164Y0156169D01*
X0239118Y0156192D01*
X0239075Y0156219D01*
X0239033Y0156248D01*
X0238994Y0156281D01*
X0238957Y0156316D01*
X0238923Y0156354D01*
X0238892Y0156395D01*
X0238864Y0156437D01*
X0238839Y0156482D01*
X0238817Y0156528D01*
X0238799Y0156575D01*
X0238705Y0156859D02*
X0240216Y0158748D01*
X0239460Y0159503D02*
X0239409Y0159501D01*
X0239358Y0159496D01*
X0239308Y0159486D01*
X0239259Y0159473D01*
X0239211Y0159457D01*
X0239164Y0159437D01*
X0239118Y0159414D01*
X0239075Y0159387D01*
X0239033Y0159358D01*
X0238994Y0159325D01*
X0238957Y0159290D01*
X0238923Y0159252D01*
X0238892Y0159211D01*
X0238864Y0159169D01*
X0238839Y0159124D01*
X0238817Y0159078D01*
X0238799Y0159031D01*
X0239460Y0159503D02*
X0239511Y0159501D01*
X0239562Y0159496D01*
X0239612Y0159486D01*
X0239661Y0159473D01*
X0239709Y0159457D01*
X0239756Y0159437D01*
X0239802Y0159414D01*
X0239845Y0159387D01*
X0239887Y0159358D01*
X0239926Y0159325D01*
X0239963Y0159290D01*
X0239997Y0159252D01*
X0240028Y0159211D01*
X0240056Y0159169D01*
X0240081Y0159124D01*
X0240103Y0159078D01*
X0240121Y0159031D01*
X0238799Y0159031D02*
X0238758Y0158942D01*
X0238720Y0158852D01*
X0238685Y0158761D01*
X0238653Y0158669D01*
X0238624Y0158575D01*
X0238599Y0158481D01*
X0238577Y0158385D01*
X0238559Y0158289D01*
X0238543Y0158193D01*
X0238531Y0158096D01*
X0238523Y0157998D01*
X0238518Y0157901D01*
X0238516Y0157803D01*
X0235199Y0156575D02*
X0235158Y0156664D01*
X0235120Y0156754D01*
X0235085Y0156845D01*
X0235053Y0156937D01*
X0235024Y0157031D01*
X0234999Y0157125D01*
X0234977Y0157221D01*
X0234959Y0157317D01*
X0234943Y0157413D01*
X0234931Y0157510D01*
X0234923Y0157608D01*
X0234918Y0157705D01*
X0234916Y0157803D01*
X0236805Y0157803D02*
X0236803Y0157901D01*
X0236798Y0157998D01*
X0236790Y0158096D01*
X0236778Y0158193D01*
X0236762Y0158289D01*
X0236744Y0158385D01*
X0236722Y0158481D01*
X0236697Y0158575D01*
X0236668Y0158669D01*
X0236636Y0158761D01*
X0236601Y0158852D01*
X0236563Y0158942D01*
X0236522Y0159031D01*
X0240122Y0159031D02*
X0240163Y0158942D01*
X0240201Y0158852D01*
X0240236Y0158761D01*
X0240268Y0158669D01*
X0240297Y0158575D01*
X0240322Y0158481D01*
X0240344Y0158385D01*
X0240362Y0158289D01*
X0240378Y0158193D01*
X0240390Y0158096D01*
X0240398Y0157998D01*
X0240403Y0157901D01*
X0240405Y0157803D01*
X0238516Y0157803D02*
X0238518Y0157705D01*
X0238523Y0157608D01*
X0238531Y0157510D01*
X0238543Y0157413D01*
X0238559Y0157317D01*
X0238577Y0157221D01*
X0238599Y0157125D01*
X0238624Y0157031D01*
X0238653Y0156937D01*
X0238685Y0156845D01*
X0238720Y0156754D01*
X0238758Y0156664D01*
X0238799Y0156575D01*
X0234916Y0157803D02*
X0234918Y0157901D01*
X0234923Y0157998D01*
X0234931Y0158096D01*
X0234943Y0158193D01*
X0234959Y0158289D01*
X0234977Y0158385D01*
X0234999Y0158481D01*
X0235024Y0158575D01*
X0235053Y0158669D01*
X0235085Y0158761D01*
X0235120Y0158852D01*
X0235158Y0158942D01*
X0235199Y0159031D01*
X0241927Y0159503D02*
X0243060Y0156103D01*
X0244194Y0159503D01*
X0246666Y0181803D02*
X0246666Y0184803D01*
X0245166Y0183303D02*
X0248166Y0183303D01*
X0238166Y0188303D02*
X0236166Y0188303D01*
X0235166Y0188303D01*
X0235166Y0183803D01*
X0232666Y0183803D01*
X0232666Y0192803D01*
X0235166Y0192803D01*
X0235166Y0188303D01*
X0205303Y0188303D02*
X0205311Y0188981D01*
X0205336Y0189658D01*
X0205378Y0190334D01*
X0205436Y0191010D01*
X0205511Y0191683D01*
X0205602Y0192355D01*
X0205710Y0193024D01*
X0205834Y0193690D01*
X0205974Y0194353D01*
X0206131Y0195012D01*
X0206303Y0195668D01*
X0206492Y0196319D01*
X0206697Y0196965D01*
X0206917Y0197606D01*
X0207153Y0198241D01*
X0207405Y0198870D01*
X0207672Y0199493D01*
X0207954Y0200109D01*
X0208251Y0200718D01*
X0208564Y0201320D01*
X0208890Y0201913D01*
X0209232Y0202499D01*
X0209587Y0203076D01*
X0209957Y0203644D01*
X0210340Y0204203D01*
X0210737Y0204752D01*
X0211147Y0205291D01*
X0211571Y0205821D01*
X0212007Y0206339D01*
X0212456Y0206847D01*
X0212917Y0207343D01*
X0213391Y0207828D01*
X0213876Y0208302D01*
X0214372Y0208763D01*
X0214880Y0209212D01*
X0215398Y0209648D01*
X0215928Y0210072D01*
X0216467Y0210482D01*
X0217016Y0210879D01*
X0217575Y0211262D01*
X0218143Y0211632D01*
X0218720Y0211987D01*
X0219306Y0212329D01*
X0219899Y0212655D01*
X0220501Y0212968D01*
X0221110Y0213265D01*
X0221726Y0213547D01*
X0222349Y0213814D01*
X0222978Y0214066D01*
X0223613Y0214302D01*
X0224254Y0214522D01*
X0224900Y0214727D01*
X0225551Y0214916D01*
X0226207Y0215088D01*
X0226866Y0215245D01*
X0227529Y0215385D01*
X0228195Y0215509D01*
X0228864Y0215617D01*
X0229536Y0215708D01*
X0230209Y0215783D01*
X0230885Y0215841D01*
X0231561Y0215883D01*
X0232238Y0215908D01*
X0232916Y0215916D01*
X0233594Y0215908D01*
X0234271Y0215883D01*
X0234947Y0215841D01*
X0235623Y0215783D01*
X0236296Y0215708D01*
X0236968Y0215617D01*
X0237637Y0215509D01*
X0238303Y0215385D01*
X0238966Y0215245D01*
X0239625Y0215088D01*
X0240281Y0214916D01*
X0240932Y0214727D01*
X0241578Y0214522D01*
X0242219Y0214302D01*
X0242854Y0214066D01*
X0243483Y0213814D01*
X0244106Y0213547D01*
X0244722Y0213265D01*
X0245331Y0212968D01*
X0245933Y0212655D01*
X0246526Y0212329D01*
X0247112Y0211987D01*
X0247689Y0211632D01*
X0248257Y0211262D01*
X0248816Y0210879D01*
X0249365Y0210482D01*
X0249904Y0210072D01*
X0250434Y0209648D01*
X0250952Y0209212D01*
X0251460Y0208763D01*
X0251956Y0208302D01*
X0252441Y0207828D01*
X0252915Y0207343D01*
X0253376Y0206847D01*
X0253825Y0206339D01*
X0254261Y0205821D01*
X0254685Y0205291D01*
X0255095Y0204752D01*
X0255492Y0204203D01*
X0255875Y0203644D01*
X0256245Y0203076D01*
X0256600Y0202499D01*
X0256942Y0201913D01*
X0257268Y0201320D01*
X0257581Y0200718D01*
X0257878Y0200109D01*
X0258160Y0199493D01*
X0258427Y0198870D01*
X0258679Y0198241D01*
X0258915Y0197606D01*
X0259135Y0196965D01*
X0259340Y0196319D01*
X0259529Y0195668D01*
X0259701Y0195012D01*
X0259858Y0194353D01*
X0259998Y0193690D01*
X0260122Y0193024D01*
X0260230Y0192355D01*
X0260321Y0191683D01*
X0260396Y0191010D01*
X0260454Y0190334D01*
X0260496Y0189658D01*
X0260521Y0188981D01*
X0260529Y0188303D01*
X0260521Y0187625D01*
X0260496Y0186948D01*
X0260454Y0186272D01*
X0260396Y0185596D01*
X0260321Y0184923D01*
X0260230Y0184251D01*
X0260122Y0183582D01*
X0259998Y0182916D01*
X0259858Y0182253D01*
X0259701Y0181594D01*
X0259529Y0180938D01*
X0259340Y0180287D01*
X0259135Y0179641D01*
X0258915Y0179000D01*
X0258679Y0178365D01*
X0258427Y0177736D01*
X0258160Y0177113D01*
X0257878Y0176497D01*
X0257581Y0175888D01*
X0257268Y0175286D01*
X0256942Y0174693D01*
X0256600Y0174107D01*
X0256245Y0173530D01*
X0255875Y0172962D01*
X0255492Y0172403D01*
X0255095Y0171854D01*
X0254685Y0171315D01*
X0254261Y0170785D01*
X0253825Y0170267D01*
X0253376Y0169759D01*
X0252915Y0169263D01*
X0252441Y0168778D01*
X0251956Y0168304D01*
X0251460Y0167843D01*
X0250952Y0167394D01*
X0250434Y0166958D01*
X0249904Y0166534D01*
X0249365Y0166124D01*
X0248816Y0165727D01*
X0248257Y0165344D01*
X0247689Y0164974D01*
X0247112Y0164619D01*
X0246526Y0164277D01*
X0245933Y0163951D01*
X0245331Y0163638D01*
X0244722Y0163341D01*
X0244106Y0163059D01*
X0243483Y0162792D01*
X0242854Y0162540D01*
X0242219Y0162304D01*
X0241578Y0162084D01*
X0240932Y0161879D01*
X0240281Y0161690D01*
X0239625Y0161518D01*
X0238966Y0161361D01*
X0238303Y0161221D01*
X0237637Y0161097D01*
X0236968Y0160989D01*
X0236296Y0160898D01*
X0235623Y0160823D01*
X0234947Y0160765D01*
X0234271Y0160723D01*
X0233594Y0160698D01*
X0232916Y0160690D01*
X0232238Y0160698D01*
X0231561Y0160723D01*
X0230885Y0160765D01*
X0230209Y0160823D01*
X0229536Y0160898D01*
X0228864Y0160989D01*
X0228195Y0161097D01*
X0227529Y0161221D01*
X0226866Y0161361D01*
X0226207Y0161518D01*
X0225551Y0161690D01*
X0224900Y0161879D01*
X0224254Y0162084D01*
X0223613Y0162304D01*
X0222978Y0162540D01*
X0222349Y0162792D01*
X0221726Y0163059D01*
X0221110Y0163341D01*
X0220501Y0163638D01*
X0219899Y0163951D01*
X0219306Y0164277D01*
X0218720Y0164619D01*
X0218143Y0164974D01*
X0217575Y0165344D01*
X0217016Y0165727D01*
X0216467Y0166124D01*
X0215928Y0166534D01*
X0215398Y0166958D01*
X0214880Y0167394D01*
X0214372Y0167843D01*
X0213876Y0168304D01*
X0213391Y0168778D01*
X0212917Y0169263D01*
X0212456Y0169759D01*
X0212007Y0170267D01*
X0211571Y0170785D01*
X0211147Y0171315D01*
X0210737Y0171854D01*
X0210340Y0172403D01*
X0209957Y0172962D01*
X0209587Y0173530D01*
X0209232Y0174107D01*
X0208890Y0174693D01*
X0208564Y0175286D01*
X0208251Y0175888D01*
X0207954Y0176497D01*
X0207672Y0177113D01*
X0207405Y0177736D01*
X0207153Y0178365D01*
X0206917Y0179000D01*
X0206697Y0179641D01*
X0206492Y0180287D01*
X0206303Y0180938D01*
X0206131Y0181594D01*
X0205974Y0182253D01*
X0205834Y0182916D01*
X0205710Y0183582D01*
X0205602Y0184251D01*
X0205511Y0184923D01*
X0205436Y0185596D01*
X0205378Y0186272D01*
X0205336Y0186948D01*
X0205311Y0187625D01*
X0205303Y0188303D01*
X0225166Y0188303D02*
X0227166Y0188303D01*
X0229166Y0188303D01*
X0211666Y0188303D02*
X0211672Y0188794D01*
X0211690Y0189284D01*
X0211720Y0189774D01*
X0211762Y0190263D01*
X0211816Y0190751D01*
X0211882Y0191238D01*
X0211960Y0191722D01*
X0212050Y0192205D01*
X0212152Y0192685D01*
X0212265Y0193163D01*
X0212390Y0193637D01*
X0212527Y0194109D01*
X0212675Y0194577D01*
X0212835Y0195041D01*
X0213006Y0195501D01*
X0213188Y0195957D01*
X0213382Y0196408D01*
X0213586Y0196854D01*
X0213802Y0197295D01*
X0214028Y0197731D01*
X0214264Y0198161D01*
X0214511Y0198585D01*
X0214769Y0199003D01*
X0215037Y0199414D01*
X0215314Y0199819D01*
X0215602Y0200217D01*
X0215899Y0200608D01*
X0216206Y0200991D01*
X0216522Y0201366D01*
X0216847Y0201734D01*
X0217181Y0202094D01*
X0217524Y0202445D01*
X0217875Y0202788D01*
X0218235Y0203122D01*
X0218603Y0203447D01*
X0218978Y0203763D01*
X0219361Y0204070D01*
X0219752Y0204367D01*
X0220150Y0204655D01*
X0220555Y0204932D01*
X0220966Y0205200D01*
X0221384Y0205458D01*
X0221808Y0205705D01*
X0222238Y0205941D01*
X0222674Y0206167D01*
X0223115Y0206383D01*
X0223561Y0206587D01*
X0224012Y0206781D01*
X0224468Y0206963D01*
X0224928Y0207134D01*
X0225392Y0207294D01*
X0225860Y0207442D01*
X0226332Y0207579D01*
X0226806Y0207704D01*
X0227284Y0207817D01*
X0227764Y0207919D01*
X0228247Y0208009D01*
X0228731Y0208087D01*
X0229218Y0208153D01*
X0229706Y0208207D01*
X0230195Y0208249D01*
X0230685Y0208279D01*
X0231175Y0208297D01*
X0231666Y0208303D01*
X0232157Y0208297D01*
X0232647Y0208279D01*
X0233137Y0208249D01*
X0233626Y0208207D01*
X0234114Y0208153D01*
X0234601Y0208087D01*
X0235085Y0208009D01*
X0235568Y0207919D01*
X0236048Y0207817D01*
X0236526Y0207704D01*
X0237000Y0207579D01*
X0237472Y0207442D01*
X0237940Y0207294D01*
X0238404Y0207134D01*
X0238864Y0206963D01*
X0239320Y0206781D01*
X0239771Y0206587D01*
X0240217Y0206383D01*
X0240658Y0206167D01*
X0241094Y0205941D01*
X0241524Y0205705D01*
X0241948Y0205458D01*
X0242366Y0205200D01*
X0242777Y0204932D01*
X0243182Y0204655D01*
X0243580Y0204367D01*
X0243971Y0204070D01*
X0244354Y0203763D01*
X0244729Y0203447D01*
X0245097Y0203122D01*
X0245457Y0202788D01*
X0245808Y0202445D01*
X0246151Y0202094D01*
X0246485Y0201734D01*
X0246810Y0201366D01*
X0247126Y0200991D01*
X0247433Y0200608D01*
X0247730Y0200217D01*
X0248018Y0199819D01*
X0248295Y0199414D01*
X0248563Y0199003D01*
X0248821Y0198585D01*
X0249068Y0198161D01*
X0249304Y0197731D01*
X0249530Y0197295D01*
X0249746Y0196854D01*
X0249950Y0196408D01*
X0250144Y0195957D01*
X0250326Y0195501D01*
X0250497Y0195041D01*
X0250657Y0194577D01*
X0250805Y0194109D01*
X0250942Y0193637D01*
X0251067Y0193163D01*
X0251180Y0192685D01*
X0251282Y0192205D01*
X0251372Y0191722D01*
X0251450Y0191238D01*
X0251516Y0190751D01*
X0251570Y0190263D01*
X0251612Y0189774D01*
X0251642Y0189284D01*
X0251660Y0188794D01*
X0251666Y0188303D01*
X0251660Y0187812D01*
X0251642Y0187322D01*
X0251612Y0186832D01*
X0251570Y0186343D01*
X0251516Y0185855D01*
X0251450Y0185368D01*
X0251372Y0184884D01*
X0251282Y0184401D01*
X0251180Y0183921D01*
X0251067Y0183443D01*
X0250942Y0182969D01*
X0250805Y0182497D01*
X0250657Y0182029D01*
X0250497Y0181565D01*
X0250326Y0181105D01*
X0250144Y0180649D01*
X0249950Y0180198D01*
X0249746Y0179752D01*
X0249530Y0179311D01*
X0249304Y0178875D01*
X0249068Y0178445D01*
X0248821Y0178021D01*
X0248563Y0177603D01*
X0248295Y0177192D01*
X0248018Y0176787D01*
X0247730Y0176389D01*
X0247433Y0175998D01*
X0247126Y0175615D01*
X0246810Y0175240D01*
X0246485Y0174872D01*
X0246151Y0174512D01*
X0245808Y0174161D01*
X0245457Y0173818D01*
X0245097Y0173484D01*
X0244729Y0173159D01*
X0244354Y0172843D01*
X0243971Y0172536D01*
X0243580Y0172239D01*
X0243182Y0171951D01*
X0242777Y0171674D01*
X0242366Y0171406D01*
X0241948Y0171148D01*
X0241524Y0170901D01*
X0241094Y0170665D01*
X0240658Y0170439D01*
X0240217Y0170223D01*
X0239771Y0170019D01*
X0239320Y0169825D01*
X0238864Y0169643D01*
X0238404Y0169472D01*
X0237940Y0169312D01*
X0237472Y0169164D01*
X0237000Y0169027D01*
X0236526Y0168902D01*
X0236048Y0168789D01*
X0235568Y0168687D01*
X0235085Y0168597D01*
X0234601Y0168519D01*
X0234114Y0168453D01*
X0233626Y0168399D01*
X0233137Y0168357D01*
X0232647Y0168327D01*
X0232157Y0168309D01*
X0231666Y0168303D01*
X0231175Y0168309D01*
X0230685Y0168327D01*
X0230195Y0168357D01*
X0229706Y0168399D01*
X0229218Y0168453D01*
X0228731Y0168519D01*
X0228247Y0168597D01*
X0227764Y0168687D01*
X0227284Y0168789D01*
X0226806Y0168902D01*
X0226332Y0169027D01*
X0225860Y0169164D01*
X0225392Y0169312D01*
X0224928Y0169472D01*
X0224468Y0169643D01*
X0224012Y0169825D01*
X0223561Y0170019D01*
X0223115Y0170223D01*
X0222674Y0170439D01*
X0222238Y0170665D01*
X0221808Y0170901D01*
X0221384Y0171148D01*
X0220966Y0171406D01*
X0220555Y0171674D01*
X0220150Y0171951D01*
X0219752Y0172239D01*
X0219361Y0172536D01*
X0218978Y0172843D01*
X0218603Y0173159D01*
X0218235Y0173484D01*
X0217875Y0173818D01*
X0217524Y0174161D01*
X0217181Y0174512D01*
X0216847Y0174872D01*
X0216522Y0175240D01*
X0216206Y0175615D01*
X0215899Y0175998D01*
X0215602Y0176389D01*
X0215314Y0176787D01*
X0215037Y0177192D01*
X0214769Y0177603D01*
X0214511Y0178021D01*
X0214264Y0178445D01*
X0214028Y0178875D01*
X0213802Y0179311D01*
X0213586Y0179752D01*
X0213382Y0180198D01*
X0213188Y0180649D01*
X0213006Y0181105D01*
X0212835Y0181565D01*
X0212675Y0182029D01*
X0212527Y0182497D01*
X0212390Y0182969D01*
X0212265Y0183443D01*
X0212152Y0183921D01*
X0212050Y0184401D01*
X0211960Y0184884D01*
X0211882Y0185368D01*
X0211816Y0185855D01*
X0211762Y0186343D01*
X0211720Y0186832D01*
X0211690Y0187322D01*
X0211672Y0187812D01*
X0211666Y0188303D01*
X0216645Y0158653D02*
X0216643Y0158596D01*
X0216638Y0158540D01*
X0216629Y0158483D01*
X0216617Y0158428D01*
X0216601Y0158373D01*
X0216582Y0158320D01*
X0216560Y0158267D01*
X0216534Y0158217D01*
X0216505Y0158168D01*
X0216474Y0158120D01*
X0216439Y0158075D01*
X0216402Y0158032D01*
X0216362Y0157992D01*
X0216361Y0157992D02*
X0214756Y0156103D01*
X0214756Y0158747D02*
X0214778Y0158809D01*
X0214804Y0158869D01*
X0214833Y0158928D01*
X0214866Y0158984D01*
X0214902Y0159039D01*
X0214941Y0159091D01*
X0214983Y0159141D01*
X0215028Y0159188D01*
X0215076Y0159233D01*
X0215127Y0159275D01*
X0215179Y0159313D01*
X0215235Y0159348D01*
X0215292Y0159380D01*
X0215351Y0159408D01*
X0215411Y0159433D01*
X0215473Y0159454D01*
X0215536Y0159472D01*
X0215600Y0159485D01*
X0215665Y0159495D01*
X0215730Y0159501D01*
X0215795Y0159503D01*
X0215851Y0159501D01*
X0215906Y0159496D01*
X0215961Y0159487D01*
X0216015Y0159474D01*
X0216068Y0159458D01*
X0216120Y0159438D01*
X0216171Y0159415D01*
X0216220Y0159389D01*
X0216267Y0159360D01*
X0216312Y0159327D01*
X0216355Y0159292D01*
X0216396Y0159254D01*
X0216434Y0159213D01*
X0216469Y0159170D01*
X0216502Y0159125D01*
X0216531Y0159078D01*
X0216557Y0159029D01*
X0216580Y0158978D01*
X0216600Y0158926D01*
X0216616Y0158873D01*
X0216629Y0158819D01*
X0216638Y0158764D01*
X0216643Y0158709D01*
X0216645Y0158653D01*
X0211548Y0158370D02*
X0211548Y0157992D01*
X0211548Y0158370D02*
X0210415Y0158370D01*
X0210415Y0156103D01*
X0208656Y0156103D02*
X0207711Y0156103D01*
X0207664Y0156105D01*
X0207618Y0156111D01*
X0207572Y0156120D01*
X0207527Y0156134D01*
X0207483Y0156151D01*
X0207441Y0156171D01*
X0207401Y0156195D01*
X0207363Y0156223D01*
X0207327Y0156253D01*
X0207294Y0156286D01*
X0207264Y0156322D01*
X0207236Y0156360D01*
X0207212Y0156400D01*
X0207192Y0156442D01*
X0207175Y0156486D01*
X0207161Y0156531D01*
X0207152Y0156577D01*
X0207146Y0156623D01*
X0207144Y0156670D01*
X0207145Y0156670D02*
X0207145Y0157614D01*
X0207145Y0157236D02*
X0208656Y0157236D01*
X0208656Y0157614D01*
X0208654Y0157668D01*
X0208648Y0157722D01*
X0208639Y0157775D01*
X0208625Y0157827D01*
X0208608Y0157878D01*
X0208588Y0157928D01*
X0208564Y0157976D01*
X0208536Y0158023D01*
X0208505Y0158067D01*
X0208471Y0158109D01*
X0208435Y0158149D01*
X0208395Y0158185D01*
X0208353Y0158219D01*
X0208309Y0158250D01*
X0208262Y0158278D01*
X0208214Y0158302D01*
X0208164Y0158322D01*
X0208113Y0158339D01*
X0208061Y0158353D01*
X0208008Y0158362D01*
X0207954Y0158368D01*
X0207900Y0158370D01*
X0207846Y0158368D01*
X0207792Y0158362D01*
X0207739Y0158353D01*
X0207687Y0158339D01*
X0207636Y0158322D01*
X0207586Y0158302D01*
X0207538Y0158278D01*
X0207491Y0158250D01*
X0207447Y0158219D01*
X0207405Y0158185D01*
X0207365Y0158149D01*
X0207329Y0158109D01*
X0207295Y0158067D01*
X0207264Y0158023D01*
X0207236Y0157976D01*
X0207212Y0157928D01*
X0207192Y0157878D01*
X0207175Y0157827D01*
X0207161Y0157775D01*
X0207152Y0157722D01*
X0207146Y0157668D01*
X0207144Y0157614D01*
X0205656Y0158370D02*
X0204900Y0156103D01*
X0204145Y0158370D01*
X0202605Y0158559D02*
X0202605Y0157048D01*
X0202604Y0157048D02*
X0202602Y0156988D01*
X0202596Y0156927D01*
X0202587Y0156868D01*
X0202573Y0156809D01*
X0202556Y0156751D01*
X0202535Y0156694D01*
X0202511Y0156638D01*
X0202483Y0156585D01*
X0202451Y0156533D01*
X0202417Y0156483D01*
X0202379Y0156436D01*
X0202338Y0156391D01*
X0202295Y0156349D01*
X0202249Y0156310D01*
X0202200Y0156274D01*
X0202149Y0156241D01*
X0202097Y0156211D01*
X0202042Y0156185D01*
X0201986Y0156162D01*
X0201929Y0156143D01*
X0201870Y0156128D01*
X0201811Y0156116D01*
X0201751Y0156108D01*
X0201690Y0156104D01*
X0201630Y0156104D01*
X0201569Y0156108D01*
X0201509Y0156116D01*
X0201450Y0156128D01*
X0201391Y0156143D01*
X0201334Y0156162D01*
X0201278Y0156185D01*
X0201223Y0156211D01*
X0201171Y0156241D01*
X0201120Y0156274D01*
X0201071Y0156310D01*
X0201025Y0156349D01*
X0200982Y0156391D01*
X0200941Y0156436D01*
X0200903Y0156483D01*
X0200869Y0156533D01*
X0200837Y0156585D01*
X0200809Y0156638D01*
X0200785Y0156694D01*
X0200764Y0156751D01*
X0200747Y0156809D01*
X0200733Y0156868D01*
X0200724Y0156927D01*
X0200718Y0156988D01*
X0200716Y0157048D01*
X0200716Y0158559D01*
X0200718Y0158619D01*
X0200724Y0158680D01*
X0200733Y0158739D01*
X0200747Y0158798D01*
X0200764Y0158856D01*
X0200785Y0158913D01*
X0200809Y0158969D01*
X0200837Y0159022D01*
X0200869Y0159074D01*
X0200903Y0159124D01*
X0200941Y0159171D01*
X0200982Y0159216D01*
X0201025Y0159258D01*
X0201071Y0159297D01*
X0201120Y0159333D01*
X0201171Y0159366D01*
X0201223Y0159396D01*
X0201278Y0159422D01*
X0201334Y0159445D01*
X0201391Y0159464D01*
X0201450Y0159479D01*
X0201509Y0159491D01*
X0201569Y0159499D01*
X0201630Y0159503D01*
X0201690Y0159503D01*
X0201751Y0159499D01*
X0201811Y0159491D01*
X0201870Y0159479D01*
X0201929Y0159464D01*
X0201986Y0159445D01*
X0202042Y0159422D01*
X0202097Y0159396D01*
X0202149Y0159366D01*
X0202200Y0159333D01*
X0202249Y0159297D01*
X0202295Y0159258D01*
X0202338Y0159216D01*
X0202379Y0159171D01*
X0202417Y0159124D01*
X0202451Y0159074D01*
X0202483Y0159022D01*
X0202511Y0158969D01*
X0202535Y0158913D01*
X0202556Y0158856D01*
X0202573Y0158798D01*
X0202587Y0158739D01*
X0202596Y0158680D01*
X0202602Y0158619D01*
X0202604Y0158559D01*
X0150666Y0188303D02*
X0148666Y0188303D01*
X0146666Y0188303D01*
X0124166Y0188303D02*
X0124172Y0188794D01*
X0124190Y0189284D01*
X0124220Y0189774D01*
X0124262Y0190263D01*
X0124316Y0190751D01*
X0124382Y0191238D01*
X0124460Y0191722D01*
X0124550Y0192205D01*
X0124652Y0192685D01*
X0124765Y0193163D01*
X0124890Y0193637D01*
X0125027Y0194109D01*
X0125175Y0194577D01*
X0125335Y0195041D01*
X0125506Y0195501D01*
X0125688Y0195957D01*
X0125882Y0196408D01*
X0126086Y0196854D01*
X0126302Y0197295D01*
X0126528Y0197731D01*
X0126764Y0198161D01*
X0127011Y0198585D01*
X0127269Y0199003D01*
X0127537Y0199414D01*
X0127814Y0199819D01*
X0128102Y0200217D01*
X0128399Y0200608D01*
X0128706Y0200991D01*
X0129022Y0201366D01*
X0129347Y0201734D01*
X0129681Y0202094D01*
X0130024Y0202445D01*
X0130375Y0202788D01*
X0130735Y0203122D01*
X0131103Y0203447D01*
X0131478Y0203763D01*
X0131861Y0204070D01*
X0132252Y0204367D01*
X0132650Y0204655D01*
X0133055Y0204932D01*
X0133466Y0205200D01*
X0133884Y0205458D01*
X0134308Y0205705D01*
X0134738Y0205941D01*
X0135174Y0206167D01*
X0135615Y0206383D01*
X0136061Y0206587D01*
X0136512Y0206781D01*
X0136968Y0206963D01*
X0137428Y0207134D01*
X0137892Y0207294D01*
X0138360Y0207442D01*
X0138832Y0207579D01*
X0139306Y0207704D01*
X0139784Y0207817D01*
X0140264Y0207919D01*
X0140747Y0208009D01*
X0141231Y0208087D01*
X0141718Y0208153D01*
X0142206Y0208207D01*
X0142695Y0208249D01*
X0143185Y0208279D01*
X0143675Y0208297D01*
X0144166Y0208303D01*
X0144657Y0208297D01*
X0145147Y0208279D01*
X0145637Y0208249D01*
X0146126Y0208207D01*
X0146614Y0208153D01*
X0147101Y0208087D01*
X0147585Y0208009D01*
X0148068Y0207919D01*
X0148548Y0207817D01*
X0149026Y0207704D01*
X0149500Y0207579D01*
X0149972Y0207442D01*
X0150440Y0207294D01*
X0150904Y0207134D01*
X0151364Y0206963D01*
X0151820Y0206781D01*
X0152271Y0206587D01*
X0152717Y0206383D01*
X0153158Y0206167D01*
X0153594Y0205941D01*
X0154024Y0205705D01*
X0154448Y0205458D01*
X0154866Y0205200D01*
X0155277Y0204932D01*
X0155682Y0204655D01*
X0156080Y0204367D01*
X0156471Y0204070D01*
X0156854Y0203763D01*
X0157229Y0203447D01*
X0157597Y0203122D01*
X0157957Y0202788D01*
X0158308Y0202445D01*
X0158651Y0202094D01*
X0158985Y0201734D01*
X0159310Y0201366D01*
X0159626Y0200991D01*
X0159933Y0200608D01*
X0160230Y0200217D01*
X0160518Y0199819D01*
X0160795Y0199414D01*
X0161063Y0199003D01*
X0161321Y0198585D01*
X0161568Y0198161D01*
X0161804Y0197731D01*
X0162030Y0197295D01*
X0162246Y0196854D01*
X0162450Y0196408D01*
X0162644Y0195957D01*
X0162826Y0195501D01*
X0162997Y0195041D01*
X0163157Y0194577D01*
X0163305Y0194109D01*
X0163442Y0193637D01*
X0163567Y0193163D01*
X0163680Y0192685D01*
X0163782Y0192205D01*
X0163872Y0191722D01*
X0163950Y0191238D01*
X0164016Y0190751D01*
X0164070Y0190263D01*
X0164112Y0189774D01*
X0164142Y0189284D01*
X0164160Y0188794D01*
X0164166Y0188303D01*
X0164160Y0187812D01*
X0164142Y0187322D01*
X0164112Y0186832D01*
X0164070Y0186343D01*
X0164016Y0185855D01*
X0163950Y0185368D01*
X0163872Y0184884D01*
X0163782Y0184401D01*
X0163680Y0183921D01*
X0163567Y0183443D01*
X0163442Y0182969D01*
X0163305Y0182497D01*
X0163157Y0182029D01*
X0162997Y0181565D01*
X0162826Y0181105D01*
X0162644Y0180649D01*
X0162450Y0180198D01*
X0162246Y0179752D01*
X0162030Y0179311D01*
X0161804Y0178875D01*
X0161568Y0178445D01*
X0161321Y0178021D01*
X0161063Y0177603D01*
X0160795Y0177192D01*
X0160518Y0176787D01*
X0160230Y0176389D01*
X0159933Y0175998D01*
X0159626Y0175615D01*
X0159310Y0175240D01*
X0158985Y0174872D01*
X0158651Y0174512D01*
X0158308Y0174161D01*
X0157957Y0173818D01*
X0157597Y0173484D01*
X0157229Y0173159D01*
X0156854Y0172843D01*
X0156471Y0172536D01*
X0156080Y0172239D01*
X0155682Y0171951D01*
X0155277Y0171674D01*
X0154866Y0171406D01*
X0154448Y0171148D01*
X0154024Y0170901D01*
X0153594Y0170665D01*
X0153158Y0170439D01*
X0152717Y0170223D01*
X0152271Y0170019D01*
X0151820Y0169825D01*
X0151364Y0169643D01*
X0150904Y0169472D01*
X0150440Y0169312D01*
X0149972Y0169164D01*
X0149500Y0169027D01*
X0149026Y0168902D01*
X0148548Y0168789D01*
X0148068Y0168687D01*
X0147585Y0168597D01*
X0147101Y0168519D01*
X0146614Y0168453D01*
X0146126Y0168399D01*
X0145637Y0168357D01*
X0145147Y0168327D01*
X0144657Y0168309D01*
X0144166Y0168303D01*
X0143675Y0168309D01*
X0143185Y0168327D01*
X0142695Y0168357D01*
X0142206Y0168399D01*
X0141718Y0168453D01*
X0141231Y0168519D01*
X0140747Y0168597D01*
X0140264Y0168687D01*
X0139784Y0168789D01*
X0139306Y0168902D01*
X0138832Y0169027D01*
X0138360Y0169164D01*
X0137892Y0169312D01*
X0137428Y0169472D01*
X0136968Y0169643D01*
X0136512Y0169825D01*
X0136061Y0170019D01*
X0135615Y0170223D01*
X0135174Y0170439D01*
X0134738Y0170665D01*
X0134308Y0170901D01*
X0133884Y0171148D01*
X0133466Y0171406D01*
X0133055Y0171674D01*
X0132650Y0171951D01*
X0132252Y0172239D01*
X0131861Y0172536D01*
X0131478Y0172843D01*
X0131103Y0173159D01*
X0130735Y0173484D01*
X0130375Y0173818D01*
X0130024Y0174161D01*
X0129681Y0174512D01*
X0129347Y0174872D01*
X0129022Y0175240D01*
X0128706Y0175615D01*
X0128399Y0175998D01*
X0128102Y0176389D01*
X0127814Y0176787D01*
X0127537Y0177192D01*
X0127269Y0177603D01*
X0127011Y0178021D01*
X0126764Y0178445D01*
X0126528Y0178875D01*
X0126302Y0179311D01*
X0126086Y0179752D01*
X0125882Y0180198D01*
X0125688Y0180649D01*
X0125506Y0181105D01*
X0125335Y0181565D01*
X0125175Y0182029D01*
X0125027Y0182497D01*
X0124890Y0182969D01*
X0124765Y0183443D01*
X0124652Y0183921D01*
X0124550Y0184401D01*
X0124460Y0184884D01*
X0124382Y0185368D01*
X0124316Y0185855D01*
X0124262Y0186343D01*
X0124220Y0186832D01*
X0124190Y0187322D01*
X0124172Y0187812D01*
X0124166Y0188303D01*
X0129166Y0191803D02*
X0129166Y0194803D01*
X0130666Y0193303D02*
X0127666Y0193303D01*
X0137666Y0188303D02*
X0139666Y0188303D01*
X0140666Y0188303D01*
X0140666Y0192803D01*
X0143166Y0192803D01*
X0143166Y0183803D01*
X0140666Y0183803D01*
X0140666Y0188303D01*
X0116553Y0188303D02*
X0116561Y0188981D01*
X0116586Y0189658D01*
X0116628Y0190334D01*
X0116686Y0191010D01*
X0116761Y0191683D01*
X0116852Y0192355D01*
X0116960Y0193024D01*
X0117084Y0193690D01*
X0117224Y0194353D01*
X0117381Y0195012D01*
X0117553Y0195668D01*
X0117742Y0196319D01*
X0117947Y0196965D01*
X0118167Y0197606D01*
X0118403Y0198241D01*
X0118655Y0198870D01*
X0118922Y0199493D01*
X0119204Y0200109D01*
X0119501Y0200718D01*
X0119814Y0201320D01*
X0120140Y0201913D01*
X0120482Y0202499D01*
X0120837Y0203076D01*
X0121207Y0203644D01*
X0121590Y0204203D01*
X0121987Y0204752D01*
X0122397Y0205291D01*
X0122821Y0205821D01*
X0123257Y0206339D01*
X0123706Y0206847D01*
X0124167Y0207343D01*
X0124641Y0207828D01*
X0125126Y0208302D01*
X0125622Y0208763D01*
X0126130Y0209212D01*
X0126648Y0209648D01*
X0127178Y0210072D01*
X0127717Y0210482D01*
X0128266Y0210879D01*
X0128825Y0211262D01*
X0129393Y0211632D01*
X0129970Y0211987D01*
X0130556Y0212329D01*
X0131149Y0212655D01*
X0131751Y0212968D01*
X0132360Y0213265D01*
X0132976Y0213547D01*
X0133599Y0213814D01*
X0134228Y0214066D01*
X0134863Y0214302D01*
X0135504Y0214522D01*
X0136150Y0214727D01*
X0136801Y0214916D01*
X0137457Y0215088D01*
X0138116Y0215245D01*
X0138779Y0215385D01*
X0139445Y0215509D01*
X0140114Y0215617D01*
X0140786Y0215708D01*
X0141459Y0215783D01*
X0142135Y0215841D01*
X0142811Y0215883D01*
X0143488Y0215908D01*
X0144166Y0215916D01*
X0144844Y0215908D01*
X0145521Y0215883D01*
X0146197Y0215841D01*
X0146873Y0215783D01*
X0147546Y0215708D01*
X0148218Y0215617D01*
X0148887Y0215509D01*
X0149553Y0215385D01*
X0150216Y0215245D01*
X0150875Y0215088D01*
X0151531Y0214916D01*
X0152182Y0214727D01*
X0152828Y0214522D01*
X0153469Y0214302D01*
X0154104Y0214066D01*
X0154733Y0213814D01*
X0155356Y0213547D01*
X0155972Y0213265D01*
X0156581Y0212968D01*
X0157183Y0212655D01*
X0157776Y0212329D01*
X0158362Y0211987D01*
X0158939Y0211632D01*
X0159507Y0211262D01*
X0160066Y0210879D01*
X0160615Y0210482D01*
X0161154Y0210072D01*
X0161684Y0209648D01*
X0162202Y0209212D01*
X0162710Y0208763D01*
X0163206Y0208302D01*
X0163691Y0207828D01*
X0164165Y0207343D01*
X0164626Y0206847D01*
X0165075Y0206339D01*
X0165511Y0205821D01*
X0165935Y0205291D01*
X0166345Y0204752D01*
X0166742Y0204203D01*
X0167125Y0203644D01*
X0167495Y0203076D01*
X0167850Y0202499D01*
X0168192Y0201913D01*
X0168518Y0201320D01*
X0168831Y0200718D01*
X0169128Y0200109D01*
X0169410Y0199493D01*
X0169677Y0198870D01*
X0169929Y0198241D01*
X0170165Y0197606D01*
X0170385Y0196965D01*
X0170590Y0196319D01*
X0170779Y0195668D01*
X0170951Y0195012D01*
X0171108Y0194353D01*
X0171248Y0193690D01*
X0171372Y0193024D01*
X0171480Y0192355D01*
X0171571Y0191683D01*
X0171646Y0191010D01*
X0171704Y0190334D01*
X0171746Y0189658D01*
X0171771Y0188981D01*
X0171779Y0188303D01*
X0171771Y0187625D01*
X0171746Y0186948D01*
X0171704Y0186272D01*
X0171646Y0185596D01*
X0171571Y0184923D01*
X0171480Y0184251D01*
X0171372Y0183582D01*
X0171248Y0182916D01*
X0171108Y0182253D01*
X0170951Y0181594D01*
X0170779Y0180938D01*
X0170590Y0180287D01*
X0170385Y0179641D01*
X0170165Y0179000D01*
X0169929Y0178365D01*
X0169677Y0177736D01*
X0169410Y0177113D01*
X0169128Y0176497D01*
X0168831Y0175888D01*
X0168518Y0175286D01*
X0168192Y0174693D01*
X0167850Y0174107D01*
X0167495Y0173530D01*
X0167125Y0172962D01*
X0166742Y0172403D01*
X0166345Y0171854D01*
X0165935Y0171315D01*
X0165511Y0170785D01*
X0165075Y0170267D01*
X0164626Y0169759D01*
X0164165Y0169263D01*
X0163691Y0168778D01*
X0163206Y0168304D01*
X0162710Y0167843D01*
X0162202Y0167394D01*
X0161684Y0166958D01*
X0161154Y0166534D01*
X0160615Y0166124D01*
X0160066Y0165727D01*
X0159507Y0165344D01*
X0158939Y0164974D01*
X0158362Y0164619D01*
X0157776Y0164277D01*
X0157183Y0163951D01*
X0156581Y0163638D01*
X0155972Y0163341D01*
X0155356Y0163059D01*
X0154733Y0162792D01*
X0154104Y0162540D01*
X0153469Y0162304D01*
X0152828Y0162084D01*
X0152182Y0161879D01*
X0151531Y0161690D01*
X0150875Y0161518D01*
X0150216Y0161361D01*
X0149553Y0161221D01*
X0148887Y0161097D01*
X0148218Y0160989D01*
X0147546Y0160898D01*
X0146873Y0160823D01*
X0146197Y0160765D01*
X0145521Y0160723D01*
X0144844Y0160698D01*
X0144166Y0160690D01*
X0143488Y0160698D01*
X0142811Y0160723D01*
X0142135Y0160765D01*
X0141459Y0160823D01*
X0140786Y0160898D01*
X0140114Y0160989D01*
X0139445Y0161097D01*
X0138779Y0161221D01*
X0138116Y0161361D01*
X0137457Y0161518D01*
X0136801Y0161690D01*
X0136150Y0161879D01*
X0135504Y0162084D01*
X0134863Y0162304D01*
X0134228Y0162540D01*
X0133599Y0162792D01*
X0132976Y0163059D01*
X0132360Y0163341D01*
X0131751Y0163638D01*
X0131149Y0163951D01*
X0130556Y0164277D01*
X0129970Y0164619D01*
X0129393Y0164974D01*
X0128825Y0165344D01*
X0128266Y0165727D01*
X0127717Y0166124D01*
X0127178Y0166534D01*
X0126648Y0166958D01*
X0126130Y0167394D01*
X0125622Y0167843D01*
X0125126Y0168304D01*
X0124641Y0168778D01*
X0124167Y0169263D01*
X0123706Y0169759D01*
X0123257Y0170267D01*
X0122821Y0170785D01*
X0122397Y0171315D01*
X0121987Y0171854D01*
X0121590Y0172403D01*
X0121207Y0172962D01*
X0120837Y0173530D01*
X0120482Y0174107D01*
X0120140Y0174693D01*
X0119814Y0175286D01*
X0119501Y0175888D01*
X0119204Y0176497D01*
X0118922Y0177113D01*
X0118655Y0177736D01*
X0118403Y0178365D01*
X0118167Y0179000D01*
X0117947Y0179641D01*
X0117742Y0180287D01*
X0117553Y0180938D01*
X0117381Y0181594D01*
X0117224Y0182253D01*
X0117084Y0182916D01*
X0116960Y0183582D01*
X0116852Y0184251D01*
X0116761Y0184923D01*
X0116686Y0185596D01*
X0116628Y0186272D01*
X0116586Y0186948D01*
X0116561Y0187625D01*
X0116553Y0188303D01*
X0115116Y0187188D02*
X0115114Y0187239D01*
X0115109Y0187290D01*
X0115099Y0187340D01*
X0115086Y0187389D01*
X0115070Y0187437D01*
X0115050Y0187484D01*
X0115027Y0187530D01*
X0115000Y0187573D01*
X0114971Y0187615D01*
X0114938Y0187654D01*
X0114903Y0187691D01*
X0114865Y0187725D01*
X0114824Y0187756D01*
X0114782Y0187784D01*
X0114737Y0187809D01*
X0114691Y0187831D01*
X0114644Y0187849D01*
X0115116Y0187188D02*
X0115114Y0187137D01*
X0115109Y0187086D01*
X0115099Y0187036D01*
X0115086Y0186987D01*
X0115070Y0186939D01*
X0115050Y0186892D01*
X0115027Y0186846D01*
X0115000Y0186803D01*
X0114971Y0186761D01*
X0114938Y0186722D01*
X0114903Y0186685D01*
X0114865Y0186651D01*
X0114824Y0186620D01*
X0114782Y0186592D01*
X0114737Y0186567D01*
X0114691Y0186545D01*
X0114644Y0186527D01*
X0114360Y0186432D02*
X0112471Y0187943D01*
X0112188Y0187849D02*
X0112141Y0187831D01*
X0112095Y0187809D01*
X0112050Y0187784D01*
X0112008Y0187756D01*
X0111967Y0187725D01*
X0111929Y0187691D01*
X0111894Y0187654D01*
X0111861Y0187615D01*
X0111832Y0187573D01*
X0111805Y0187530D01*
X0111782Y0187484D01*
X0111762Y0187437D01*
X0111746Y0187389D01*
X0111733Y0187340D01*
X0111723Y0187290D01*
X0111718Y0187239D01*
X0111716Y0187188D01*
X0111718Y0187137D01*
X0111723Y0187086D01*
X0111733Y0187036D01*
X0111746Y0186987D01*
X0111762Y0186939D01*
X0111782Y0186892D01*
X0111805Y0186846D01*
X0111832Y0186803D01*
X0111861Y0186761D01*
X0111894Y0186722D01*
X0111929Y0186685D01*
X0111967Y0186651D01*
X0112008Y0186620D01*
X0112050Y0186592D01*
X0112095Y0186567D01*
X0112141Y0186545D01*
X0112188Y0186527D01*
X0112188Y0187849D02*
X0112277Y0187890D01*
X0112367Y0187928D01*
X0112458Y0187963D01*
X0112550Y0187995D01*
X0112644Y0188024D01*
X0112738Y0188049D01*
X0112834Y0188071D01*
X0112930Y0188089D01*
X0113026Y0188105D01*
X0113123Y0188117D01*
X0113221Y0188125D01*
X0113318Y0188130D01*
X0113416Y0188132D01*
X0114644Y0191449D02*
X0114555Y0191490D01*
X0114465Y0191528D01*
X0114374Y0191563D01*
X0114282Y0191595D01*
X0114188Y0191624D01*
X0114094Y0191649D01*
X0113998Y0191671D01*
X0113902Y0191689D01*
X0113806Y0191705D01*
X0113709Y0191717D01*
X0113611Y0191725D01*
X0113514Y0191730D01*
X0113416Y0191732D01*
X0113416Y0189843D02*
X0113318Y0189845D01*
X0113221Y0189850D01*
X0113123Y0189858D01*
X0113026Y0189870D01*
X0112930Y0189886D01*
X0112834Y0189904D01*
X0112738Y0189926D01*
X0112644Y0189951D01*
X0112550Y0189980D01*
X0112458Y0190012D01*
X0112367Y0190047D01*
X0112277Y0190085D01*
X0112188Y0190126D01*
X0111716Y0190788D02*
X0111718Y0190839D01*
X0111723Y0190890D01*
X0111733Y0190940D01*
X0111746Y0190989D01*
X0111762Y0191037D01*
X0111782Y0191084D01*
X0111805Y0191130D01*
X0111832Y0191173D01*
X0111861Y0191215D01*
X0111894Y0191254D01*
X0111929Y0191291D01*
X0111967Y0191325D01*
X0112008Y0191356D01*
X0112050Y0191384D01*
X0112095Y0191409D01*
X0112141Y0191431D01*
X0112188Y0191449D01*
X0112471Y0191543D02*
X0114360Y0190032D01*
X0115116Y0190788D02*
X0115114Y0190839D01*
X0115109Y0190890D01*
X0115099Y0190940D01*
X0115086Y0190989D01*
X0115070Y0191037D01*
X0115050Y0191084D01*
X0115027Y0191130D01*
X0115000Y0191173D01*
X0114971Y0191215D01*
X0114938Y0191254D01*
X0114903Y0191291D01*
X0114865Y0191325D01*
X0114824Y0191356D01*
X0114782Y0191384D01*
X0114737Y0191409D01*
X0114691Y0191431D01*
X0114644Y0191449D01*
X0115116Y0190788D02*
X0115114Y0190737D01*
X0115109Y0190686D01*
X0115099Y0190636D01*
X0115086Y0190587D01*
X0115070Y0190539D01*
X0115050Y0190492D01*
X0115027Y0190446D01*
X0115000Y0190403D01*
X0114971Y0190361D01*
X0114938Y0190322D01*
X0114903Y0190285D01*
X0114865Y0190251D01*
X0114824Y0190220D01*
X0114782Y0190192D01*
X0114737Y0190167D01*
X0114691Y0190145D01*
X0114644Y0190127D01*
X0114644Y0186526D02*
X0114555Y0186485D01*
X0114465Y0186447D01*
X0114374Y0186412D01*
X0114282Y0186380D01*
X0114188Y0186351D01*
X0114094Y0186326D01*
X0113998Y0186304D01*
X0113902Y0186286D01*
X0113806Y0186270D01*
X0113709Y0186258D01*
X0113611Y0186250D01*
X0113514Y0186245D01*
X0113416Y0186243D01*
X0113416Y0188132D02*
X0113514Y0188130D01*
X0113611Y0188125D01*
X0113709Y0188117D01*
X0113806Y0188105D01*
X0113902Y0188089D01*
X0113998Y0188071D01*
X0114094Y0188049D01*
X0114188Y0188024D01*
X0114282Y0187995D01*
X0114374Y0187963D01*
X0114465Y0187928D01*
X0114555Y0187890D01*
X0114644Y0187849D01*
X0113416Y0191732D02*
X0113318Y0191730D01*
X0113221Y0191725D01*
X0113123Y0191717D01*
X0113026Y0191705D01*
X0112930Y0191689D01*
X0112834Y0191671D01*
X0112738Y0191649D01*
X0112644Y0191624D01*
X0112550Y0191595D01*
X0112458Y0191563D01*
X0112367Y0191528D01*
X0112277Y0191490D01*
X0112188Y0191449D01*
X0111716Y0190788D02*
X0111718Y0190737D01*
X0111723Y0190686D01*
X0111733Y0190636D01*
X0111746Y0190587D01*
X0111762Y0190539D01*
X0111782Y0190492D01*
X0111805Y0190446D01*
X0111832Y0190403D01*
X0111861Y0190361D01*
X0111894Y0190322D01*
X0111929Y0190285D01*
X0111967Y0190251D01*
X0112008Y0190220D01*
X0112050Y0190192D01*
X0112095Y0190167D01*
X0112141Y0190145D01*
X0112188Y0190127D01*
X0112188Y0186526D02*
X0112277Y0186485D01*
X0112367Y0186447D01*
X0112458Y0186412D01*
X0112550Y0186380D01*
X0112644Y0186351D01*
X0112738Y0186326D01*
X0112834Y0186304D01*
X0112930Y0186286D01*
X0113026Y0186270D01*
X0113123Y0186258D01*
X0113221Y0186250D01*
X0113318Y0186245D01*
X0113416Y0186243D01*
X0115116Y0184532D02*
X0115116Y0182643D01*
X0115116Y0183588D02*
X0111716Y0183588D01*
X0112471Y0182643D01*
X0112849Y0179435D02*
X0113227Y0179435D01*
X0112849Y0179435D02*
X0112849Y0178302D01*
X0115116Y0178302D01*
X0115116Y0176543D02*
X0115116Y0175599D01*
X0115114Y0175552D01*
X0115108Y0175506D01*
X0115099Y0175460D01*
X0115085Y0175415D01*
X0115068Y0175371D01*
X0115048Y0175329D01*
X0115024Y0175289D01*
X0114996Y0175251D01*
X0114966Y0175215D01*
X0114933Y0175182D01*
X0114897Y0175152D01*
X0114859Y0175124D01*
X0114819Y0175100D01*
X0114777Y0175080D01*
X0114733Y0175063D01*
X0114688Y0175049D01*
X0114642Y0175040D01*
X0114596Y0175034D01*
X0114549Y0175032D01*
X0113605Y0175032D01*
X0113983Y0175032D02*
X0113983Y0176543D01*
X0113605Y0176543D01*
X0113605Y0176544D02*
X0113551Y0176542D01*
X0113497Y0176536D01*
X0113444Y0176527D01*
X0113392Y0176513D01*
X0113341Y0176496D01*
X0113291Y0176476D01*
X0113243Y0176452D01*
X0113196Y0176424D01*
X0113152Y0176393D01*
X0113110Y0176359D01*
X0113070Y0176323D01*
X0113034Y0176283D01*
X0113000Y0176241D01*
X0112969Y0176197D01*
X0112941Y0176150D01*
X0112917Y0176102D01*
X0112897Y0176052D01*
X0112880Y0176001D01*
X0112866Y0175949D01*
X0112857Y0175896D01*
X0112851Y0175842D01*
X0112849Y0175788D01*
X0112851Y0175734D01*
X0112857Y0175680D01*
X0112866Y0175627D01*
X0112880Y0175575D01*
X0112897Y0175524D01*
X0112917Y0175474D01*
X0112941Y0175426D01*
X0112969Y0175379D01*
X0113000Y0175335D01*
X0113034Y0175293D01*
X0113070Y0175253D01*
X0113110Y0175217D01*
X0113152Y0175183D01*
X0113196Y0175152D01*
X0113243Y0175124D01*
X0113291Y0175100D01*
X0113341Y0175080D01*
X0113392Y0175063D01*
X0113444Y0175049D01*
X0113497Y0175040D01*
X0113551Y0175034D01*
X0113605Y0175032D01*
X0112849Y0173543D02*
X0115116Y0172788D01*
X0112849Y0172032D01*
X0112660Y0170492D02*
X0114171Y0170492D01*
X0114231Y0170490D01*
X0114292Y0170484D01*
X0114351Y0170475D01*
X0114410Y0170461D01*
X0114468Y0170444D01*
X0114525Y0170423D01*
X0114581Y0170399D01*
X0114634Y0170371D01*
X0114686Y0170339D01*
X0114736Y0170305D01*
X0114783Y0170267D01*
X0114828Y0170226D01*
X0114870Y0170183D01*
X0114909Y0170137D01*
X0114945Y0170088D01*
X0114978Y0170037D01*
X0115008Y0169985D01*
X0115034Y0169930D01*
X0115057Y0169874D01*
X0115076Y0169817D01*
X0115091Y0169758D01*
X0115103Y0169699D01*
X0115111Y0169639D01*
X0115115Y0169578D01*
X0115115Y0169518D01*
X0115111Y0169457D01*
X0115103Y0169397D01*
X0115091Y0169338D01*
X0115076Y0169279D01*
X0115057Y0169222D01*
X0115034Y0169166D01*
X0115008Y0169111D01*
X0114978Y0169059D01*
X0114945Y0169008D01*
X0114909Y0168959D01*
X0114870Y0168913D01*
X0114828Y0168870D01*
X0114783Y0168829D01*
X0114736Y0168791D01*
X0114686Y0168757D01*
X0114634Y0168725D01*
X0114581Y0168697D01*
X0114525Y0168673D01*
X0114468Y0168652D01*
X0114410Y0168635D01*
X0114351Y0168621D01*
X0114292Y0168612D01*
X0114231Y0168606D01*
X0114171Y0168604D01*
X0114171Y0168603D02*
X0112660Y0168603D01*
X0112660Y0168604D02*
X0112600Y0168606D01*
X0112539Y0168612D01*
X0112480Y0168621D01*
X0112421Y0168635D01*
X0112363Y0168652D01*
X0112306Y0168673D01*
X0112250Y0168697D01*
X0112197Y0168725D01*
X0112145Y0168757D01*
X0112095Y0168791D01*
X0112048Y0168829D01*
X0112003Y0168870D01*
X0111961Y0168913D01*
X0111922Y0168959D01*
X0111886Y0169008D01*
X0111853Y0169059D01*
X0111823Y0169111D01*
X0111797Y0169166D01*
X0111774Y0169222D01*
X0111755Y0169279D01*
X0111740Y0169338D01*
X0111728Y0169397D01*
X0111720Y0169457D01*
X0111716Y0169518D01*
X0111716Y0169578D01*
X0111720Y0169639D01*
X0111728Y0169699D01*
X0111740Y0169758D01*
X0111755Y0169817D01*
X0111774Y0169874D01*
X0111797Y0169930D01*
X0111823Y0169985D01*
X0111853Y0170037D01*
X0111886Y0170088D01*
X0111922Y0170137D01*
X0111961Y0170183D01*
X0112003Y0170226D01*
X0112048Y0170267D01*
X0112095Y0170305D01*
X0112145Y0170339D01*
X0112197Y0170371D01*
X0112250Y0170399D01*
X0112306Y0170423D01*
X0112363Y0170444D01*
X0112421Y0170461D01*
X0112480Y0170475D01*
X0112539Y0170484D01*
X0112600Y0170490D01*
X0112660Y0170492D01*
X0096916Y0170803D02*
X0096918Y0170921D01*
X0096924Y0171039D01*
X0096934Y0171157D01*
X0096948Y0171274D01*
X0096966Y0171391D01*
X0096988Y0171508D01*
X0097013Y0171623D01*
X0097043Y0171737D01*
X0097077Y0171851D01*
X0097114Y0171963D01*
X0097155Y0172074D01*
X0097200Y0172183D01*
X0097248Y0172291D01*
X0097300Y0172397D01*
X0097356Y0172502D01*
X0097415Y0172604D01*
X0097477Y0172704D01*
X0097543Y0172802D01*
X0097612Y0172898D01*
X0097685Y0172992D01*
X0097760Y0173083D01*
X0097839Y0173171D01*
X0097920Y0173257D01*
X0098005Y0173340D01*
X0098092Y0173420D01*
X0098181Y0173497D01*
X0098274Y0173571D01*
X0098368Y0173641D01*
X0098465Y0173709D01*
X0098565Y0173773D01*
X0098666Y0173834D01*
X0098769Y0173891D01*
X0098875Y0173945D01*
X0098982Y0173996D01*
X0099090Y0174042D01*
X0099200Y0174085D01*
X0099312Y0174124D01*
X0099425Y0174160D01*
X0099539Y0174191D01*
X0099654Y0174219D01*
X0099769Y0174243D01*
X0099886Y0174263D01*
X0100003Y0174279D01*
X0100121Y0174291D01*
X0100239Y0174299D01*
X0100357Y0174303D01*
X0100475Y0174303D01*
X0100593Y0174299D01*
X0100711Y0174291D01*
X0100829Y0174279D01*
X0100946Y0174263D01*
X0101063Y0174243D01*
X0101178Y0174219D01*
X0101293Y0174191D01*
X0101407Y0174160D01*
X0101520Y0174124D01*
X0101632Y0174085D01*
X0101742Y0174042D01*
X0101850Y0173996D01*
X0101957Y0173945D01*
X0102063Y0173891D01*
X0102166Y0173834D01*
X0102267Y0173773D01*
X0102367Y0173709D01*
X0102464Y0173641D01*
X0102558Y0173571D01*
X0102651Y0173497D01*
X0102740Y0173420D01*
X0102827Y0173340D01*
X0102912Y0173257D01*
X0102993Y0173171D01*
X0103072Y0173083D01*
X0103147Y0172992D01*
X0103220Y0172898D01*
X0103289Y0172802D01*
X0103355Y0172704D01*
X0103417Y0172604D01*
X0103476Y0172502D01*
X0103532Y0172397D01*
X0103584Y0172291D01*
X0103632Y0172183D01*
X0103677Y0172074D01*
X0103718Y0171963D01*
X0103755Y0171851D01*
X0103789Y0171737D01*
X0103819Y0171623D01*
X0103844Y0171508D01*
X0103866Y0171391D01*
X0103884Y0171274D01*
X0103898Y0171157D01*
X0103908Y0171039D01*
X0103914Y0170921D01*
X0103916Y0170803D01*
X0103914Y0170685D01*
X0103908Y0170567D01*
X0103898Y0170449D01*
X0103884Y0170332D01*
X0103866Y0170215D01*
X0103844Y0170098D01*
X0103819Y0169983D01*
X0103789Y0169869D01*
X0103755Y0169755D01*
X0103718Y0169643D01*
X0103677Y0169532D01*
X0103632Y0169423D01*
X0103584Y0169315D01*
X0103532Y0169209D01*
X0103476Y0169104D01*
X0103417Y0169002D01*
X0103355Y0168902D01*
X0103289Y0168804D01*
X0103220Y0168708D01*
X0103147Y0168614D01*
X0103072Y0168523D01*
X0102993Y0168435D01*
X0102912Y0168349D01*
X0102827Y0168266D01*
X0102740Y0168186D01*
X0102651Y0168109D01*
X0102558Y0168035D01*
X0102464Y0167965D01*
X0102367Y0167897D01*
X0102267Y0167833D01*
X0102166Y0167772D01*
X0102063Y0167715D01*
X0101957Y0167661D01*
X0101850Y0167610D01*
X0101742Y0167564D01*
X0101632Y0167521D01*
X0101520Y0167482D01*
X0101407Y0167446D01*
X0101293Y0167415D01*
X0101178Y0167387D01*
X0101063Y0167363D01*
X0100946Y0167343D01*
X0100829Y0167327D01*
X0100711Y0167315D01*
X0100593Y0167307D01*
X0100475Y0167303D01*
X0100357Y0167303D01*
X0100239Y0167307D01*
X0100121Y0167315D01*
X0100003Y0167327D01*
X0099886Y0167343D01*
X0099769Y0167363D01*
X0099654Y0167387D01*
X0099539Y0167415D01*
X0099425Y0167446D01*
X0099312Y0167482D01*
X0099200Y0167521D01*
X0099090Y0167564D01*
X0098982Y0167610D01*
X0098875Y0167661D01*
X0098769Y0167715D01*
X0098666Y0167772D01*
X0098565Y0167833D01*
X0098465Y0167897D01*
X0098368Y0167965D01*
X0098274Y0168035D01*
X0098181Y0168109D01*
X0098092Y0168186D01*
X0098005Y0168266D01*
X0097920Y0168349D01*
X0097839Y0168435D01*
X0097760Y0168523D01*
X0097685Y0168614D01*
X0097612Y0168708D01*
X0097543Y0168804D01*
X0097477Y0168902D01*
X0097415Y0169002D01*
X0097356Y0169104D01*
X0097300Y0169209D01*
X0097248Y0169315D01*
X0097200Y0169423D01*
X0097155Y0169532D01*
X0097114Y0169643D01*
X0097077Y0169755D01*
X0097043Y0169869D01*
X0097013Y0169983D01*
X0096988Y0170098D01*
X0096966Y0170215D01*
X0096948Y0170332D01*
X0096934Y0170449D01*
X0096924Y0170567D01*
X0096918Y0170685D01*
X0096916Y0170803D01*
X0086916Y0160803D02*
X0086918Y0160921D01*
X0086924Y0161039D01*
X0086934Y0161157D01*
X0086948Y0161274D01*
X0086966Y0161391D01*
X0086988Y0161508D01*
X0087013Y0161623D01*
X0087043Y0161737D01*
X0087077Y0161851D01*
X0087114Y0161963D01*
X0087155Y0162074D01*
X0087200Y0162183D01*
X0087248Y0162291D01*
X0087300Y0162397D01*
X0087356Y0162502D01*
X0087415Y0162604D01*
X0087477Y0162704D01*
X0087543Y0162802D01*
X0087612Y0162898D01*
X0087685Y0162992D01*
X0087760Y0163083D01*
X0087839Y0163171D01*
X0087920Y0163257D01*
X0088005Y0163340D01*
X0088092Y0163420D01*
X0088181Y0163497D01*
X0088274Y0163571D01*
X0088368Y0163641D01*
X0088465Y0163709D01*
X0088565Y0163773D01*
X0088666Y0163834D01*
X0088769Y0163891D01*
X0088875Y0163945D01*
X0088982Y0163996D01*
X0089090Y0164042D01*
X0089200Y0164085D01*
X0089312Y0164124D01*
X0089425Y0164160D01*
X0089539Y0164191D01*
X0089654Y0164219D01*
X0089769Y0164243D01*
X0089886Y0164263D01*
X0090003Y0164279D01*
X0090121Y0164291D01*
X0090239Y0164299D01*
X0090357Y0164303D01*
X0090475Y0164303D01*
X0090593Y0164299D01*
X0090711Y0164291D01*
X0090829Y0164279D01*
X0090946Y0164263D01*
X0091063Y0164243D01*
X0091178Y0164219D01*
X0091293Y0164191D01*
X0091407Y0164160D01*
X0091520Y0164124D01*
X0091632Y0164085D01*
X0091742Y0164042D01*
X0091850Y0163996D01*
X0091957Y0163945D01*
X0092063Y0163891D01*
X0092166Y0163834D01*
X0092267Y0163773D01*
X0092367Y0163709D01*
X0092464Y0163641D01*
X0092558Y0163571D01*
X0092651Y0163497D01*
X0092740Y0163420D01*
X0092827Y0163340D01*
X0092912Y0163257D01*
X0092993Y0163171D01*
X0093072Y0163083D01*
X0093147Y0162992D01*
X0093220Y0162898D01*
X0093289Y0162802D01*
X0093355Y0162704D01*
X0093417Y0162604D01*
X0093476Y0162502D01*
X0093532Y0162397D01*
X0093584Y0162291D01*
X0093632Y0162183D01*
X0093677Y0162074D01*
X0093718Y0161963D01*
X0093755Y0161851D01*
X0093789Y0161737D01*
X0093819Y0161623D01*
X0093844Y0161508D01*
X0093866Y0161391D01*
X0093884Y0161274D01*
X0093898Y0161157D01*
X0093908Y0161039D01*
X0093914Y0160921D01*
X0093916Y0160803D01*
X0093914Y0160685D01*
X0093908Y0160567D01*
X0093898Y0160449D01*
X0093884Y0160332D01*
X0093866Y0160215D01*
X0093844Y0160098D01*
X0093819Y0159983D01*
X0093789Y0159869D01*
X0093755Y0159755D01*
X0093718Y0159643D01*
X0093677Y0159532D01*
X0093632Y0159423D01*
X0093584Y0159315D01*
X0093532Y0159209D01*
X0093476Y0159104D01*
X0093417Y0159002D01*
X0093355Y0158902D01*
X0093289Y0158804D01*
X0093220Y0158708D01*
X0093147Y0158614D01*
X0093072Y0158523D01*
X0092993Y0158435D01*
X0092912Y0158349D01*
X0092827Y0158266D01*
X0092740Y0158186D01*
X0092651Y0158109D01*
X0092558Y0158035D01*
X0092464Y0157965D01*
X0092367Y0157897D01*
X0092267Y0157833D01*
X0092166Y0157772D01*
X0092063Y0157715D01*
X0091957Y0157661D01*
X0091850Y0157610D01*
X0091742Y0157564D01*
X0091632Y0157521D01*
X0091520Y0157482D01*
X0091407Y0157446D01*
X0091293Y0157415D01*
X0091178Y0157387D01*
X0091063Y0157363D01*
X0090946Y0157343D01*
X0090829Y0157327D01*
X0090711Y0157315D01*
X0090593Y0157307D01*
X0090475Y0157303D01*
X0090357Y0157303D01*
X0090239Y0157307D01*
X0090121Y0157315D01*
X0090003Y0157327D01*
X0089886Y0157343D01*
X0089769Y0157363D01*
X0089654Y0157387D01*
X0089539Y0157415D01*
X0089425Y0157446D01*
X0089312Y0157482D01*
X0089200Y0157521D01*
X0089090Y0157564D01*
X0088982Y0157610D01*
X0088875Y0157661D01*
X0088769Y0157715D01*
X0088666Y0157772D01*
X0088565Y0157833D01*
X0088465Y0157897D01*
X0088368Y0157965D01*
X0088274Y0158035D01*
X0088181Y0158109D01*
X0088092Y0158186D01*
X0088005Y0158266D01*
X0087920Y0158349D01*
X0087839Y0158435D01*
X0087760Y0158523D01*
X0087685Y0158614D01*
X0087612Y0158708D01*
X0087543Y0158804D01*
X0087477Y0158902D01*
X0087415Y0159002D01*
X0087356Y0159104D01*
X0087300Y0159209D01*
X0087248Y0159315D01*
X0087200Y0159423D01*
X0087155Y0159532D01*
X0087114Y0159643D01*
X0087077Y0159755D01*
X0087043Y0159869D01*
X0087013Y0159983D01*
X0086988Y0160098D01*
X0086966Y0160215D01*
X0086948Y0160332D01*
X0086934Y0160449D01*
X0086924Y0160567D01*
X0086918Y0160685D01*
X0086916Y0160803D01*
X0113416Y0189843D02*
X0113514Y0189845D01*
X0113611Y0189850D01*
X0113709Y0189858D01*
X0113806Y0189870D01*
X0113902Y0189886D01*
X0113998Y0189904D01*
X0114094Y0189926D01*
X0114188Y0189951D01*
X0114282Y0189980D01*
X0114374Y0190012D01*
X0114465Y0190047D01*
X0114555Y0190085D01*
X0114644Y0190126D01*
X0114549Y0193512D02*
X0112849Y0193512D01*
X0112849Y0195023D02*
X0115116Y0195023D01*
X0115116Y0194079D01*
X0115114Y0194032D01*
X0115108Y0193986D01*
X0115099Y0193940D01*
X0115085Y0193895D01*
X0115068Y0193851D01*
X0115048Y0193809D01*
X0115024Y0193769D01*
X0114996Y0193731D01*
X0114966Y0193695D01*
X0114933Y0193662D01*
X0114897Y0193632D01*
X0114859Y0193604D01*
X0114819Y0193580D01*
X0114777Y0193560D01*
X0114733Y0193543D01*
X0114688Y0193529D01*
X0114642Y0193520D01*
X0114596Y0193514D01*
X0114549Y0193512D01*
X0115116Y0196933D02*
X0111716Y0196933D01*
X0111716Y0198444D01*
X0113227Y0198444D02*
X0113227Y0196933D01*
X0115494Y0199752D02*
X0115494Y0201263D01*
X0115116Y0202803D02*
X0115116Y0204692D01*
X0115116Y0203747D02*
X0111716Y0203747D01*
X0112471Y0202803D01*
X0113416Y0208292D02*
X0113514Y0208290D01*
X0113611Y0208285D01*
X0113709Y0208277D01*
X0113806Y0208265D01*
X0113902Y0208249D01*
X0113998Y0208231D01*
X0114094Y0208209D01*
X0114188Y0208184D01*
X0114282Y0208155D01*
X0114374Y0208123D01*
X0114465Y0208088D01*
X0114555Y0208050D01*
X0114644Y0208009D01*
X0114644Y0208008D02*
X0114691Y0207990D01*
X0114737Y0207968D01*
X0114782Y0207943D01*
X0114824Y0207915D01*
X0114865Y0207884D01*
X0114903Y0207850D01*
X0114938Y0207813D01*
X0114971Y0207774D01*
X0115000Y0207732D01*
X0115027Y0207689D01*
X0115050Y0207643D01*
X0115070Y0207596D01*
X0115086Y0207548D01*
X0115099Y0207499D01*
X0115109Y0207449D01*
X0115114Y0207398D01*
X0115116Y0207347D01*
X0115114Y0207296D01*
X0115109Y0207245D01*
X0115099Y0207195D01*
X0115086Y0207146D01*
X0115070Y0207098D01*
X0115050Y0207051D01*
X0115027Y0207005D01*
X0115000Y0206962D01*
X0114971Y0206920D01*
X0114938Y0206881D01*
X0114903Y0206844D01*
X0114865Y0206810D01*
X0114824Y0206779D01*
X0114782Y0206751D01*
X0114737Y0206726D01*
X0114691Y0206704D01*
X0114644Y0206686D01*
X0114360Y0206592D02*
X0112471Y0208103D01*
X0112188Y0208008D02*
X0112141Y0207990D01*
X0112095Y0207968D01*
X0112050Y0207943D01*
X0112008Y0207915D01*
X0111967Y0207884D01*
X0111929Y0207850D01*
X0111894Y0207813D01*
X0111861Y0207774D01*
X0111832Y0207732D01*
X0111805Y0207689D01*
X0111782Y0207643D01*
X0111762Y0207596D01*
X0111746Y0207548D01*
X0111733Y0207499D01*
X0111723Y0207449D01*
X0111718Y0207398D01*
X0111716Y0207347D01*
X0111718Y0207296D01*
X0111723Y0207245D01*
X0111733Y0207195D01*
X0111746Y0207146D01*
X0111762Y0207098D01*
X0111782Y0207051D01*
X0111805Y0207005D01*
X0111832Y0206962D01*
X0111861Y0206920D01*
X0111894Y0206881D01*
X0111929Y0206844D01*
X0111967Y0206810D01*
X0112008Y0206779D01*
X0112050Y0206751D01*
X0112095Y0206726D01*
X0112141Y0206704D01*
X0112188Y0206686D01*
X0112188Y0208009D02*
X0112277Y0208050D01*
X0112367Y0208088D01*
X0112458Y0208123D01*
X0112550Y0208155D01*
X0112644Y0208184D01*
X0112738Y0208209D01*
X0112834Y0208231D01*
X0112930Y0208249D01*
X0113026Y0208265D01*
X0113123Y0208277D01*
X0113221Y0208285D01*
X0113318Y0208290D01*
X0113416Y0208292D01*
X0114644Y0211609D02*
X0114555Y0211650D01*
X0114465Y0211688D01*
X0114374Y0211723D01*
X0114282Y0211755D01*
X0114188Y0211784D01*
X0114094Y0211809D01*
X0113998Y0211831D01*
X0113902Y0211849D01*
X0113806Y0211865D01*
X0113709Y0211877D01*
X0113611Y0211885D01*
X0113514Y0211890D01*
X0113416Y0211892D01*
X0113416Y0210003D02*
X0113318Y0210005D01*
X0113221Y0210010D01*
X0113123Y0210018D01*
X0113026Y0210030D01*
X0112930Y0210046D01*
X0112834Y0210064D01*
X0112738Y0210086D01*
X0112644Y0210111D01*
X0112550Y0210140D01*
X0112458Y0210172D01*
X0112367Y0210207D01*
X0112277Y0210245D01*
X0112188Y0210286D01*
X0111716Y0210947D02*
X0111718Y0210998D01*
X0111723Y0211049D01*
X0111733Y0211099D01*
X0111746Y0211148D01*
X0111762Y0211196D01*
X0111782Y0211243D01*
X0111805Y0211289D01*
X0111832Y0211332D01*
X0111861Y0211374D01*
X0111894Y0211413D01*
X0111929Y0211450D01*
X0111967Y0211484D01*
X0112008Y0211515D01*
X0112050Y0211543D01*
X0112095Y0211568D01*
X0112141Y0211590D01*
X0112188Y0211608D01*
X0112471Y0211703D02*
X0114360Y0210192D01*
X0115116Y0210947D02*
X0115114Y0210998D01*
X0115109Y0211049D01*
X0115099Y0211099D01*
X0115086Y0211148D01*
X0115070Y0211196D01*
X0115050Y0211243D01*
X0115027Y0211289D01*
X0115000Y0211332D01*
X0114971Y0211374D01*
X0114938Y0211413D01*
X0114903Y0211450D01*
X0114865Y0211484D01*
X0114824Y0211515D01*
X0114782Y0211543D01*
X0114737Y0211568D01*
X0114691Y0211590D01*
X0114644Y0211608D01*
X0115116Y0210947D02*
X0115114Y0210896D01*
X0115109Y0210845D01*
X0115099Y0210795D01*
X0115086Y0210746D01*
X0115070Y0210698D01*
X0115050Y0210651D01*
X0115027Y0210605D01*
X0115000Y0210562D01*
X0114971Y0210520D01*
X0114938Y0210481D01*
X0114903Y0210444D01*
X0114865Y0210410D01*
X0114824Y0210379D01*
X0114782Y0210351D01*
X0114737Y0210326D01*
X0114691Y0210304D01*
X0114644Y0210286D01*
X0114644Y0206686D02*
X0114555Y0206645D01*
X0114465Y0206607D01*
X0114374Y0206572D01*
X0114282Y0206540D01*
X0114188Y0206511D01*
X0114094Y0206486D01*
X0113998Y0206464D01*
X0113902Y0206446D01*
X0113806Y0206430D01*
X0113709Y0206418D01*
X0113611Y0206410D01*
X0113514Y0206405D01*
X0113416Y0206403D01*
X0112188Y0211609D02*
X0112277Y0211650D01*
X0112367Y0211688D01*
X0112458Y0211723D01*
X0112550Y0211755D01*
X0112644Y0211784D01*
X0112738Y0211809D01*
X0112834Y0211831D01*
X0112930Y0211849D01*
X0113026Y0211865D01*
X0113123Y0211877D01*
X0113221Y0211885D01*
X0113318Y0211890D01*
X0113416Y0211892D01*
X0113416Y0210003D02*
X0113514Y0210005D01*
X0113611Y0210010D01*
X0113709Y0210018D01*
X0113806Y0210030D01*
X0113902Y0210046D01*
X0113998Y0210064D01*
X0114094Y0210086D01*
X0114188Y0210111D01*
X0114282Y0210140D01*
X0114374Y0210172D01*
X0114465Y0210207D01*
X0114555Y0210245D01*
X0114644Y0210286D01*
X0113416Y0206403D02*
X0113318Y0206405D01*
X0113221Y0206410D01*
X0113123Y0206418D01*
X0113026Y0206430D01*
X0112930Y0206446D01*
X0112834Y0206464D01*
X0112738Y0206486D01*
X0112644Y0206511D01*
X0112550Y0206540D01*
X0112458Y0206572D01*
X0112367Y0206607D01*
X0112277Y0206645D01*
X0112188Y0206686D01*
X0112188Y0210286D02*
X0112141Y0210304D01*
X0112095Y0210326D01*
X0112050Y0210351D01*
X0112008Y0210379D01*
X0111967Y0210410D01*
X0111929Y0210444D01*
X0111894Y0210481D01*
X0111861Y0210520D01*
X0111832Y0210562D01*
X0111805Y0210605D01*
X0111782Y0210651D01*
X0111762Y0210698D01*
X0111746Y0210746D01*
X0111733Y0210795D01*
X0111723Y0210845D01*
X0111718Y0210896D01*
X0111716Y0210947D01*
X0111716Y0213414D02*
X0115116Y0214547D01*
X0111716Y0215681D01*
X0100416Y0217303D02*
X0100416Y0199303D01*
X0100414Y0199243D01*
X0100409Y0199182D01*
X0100400Y0199123D01*
X0100387Y0199064D01*
X0100371Y0199005D01*
X0100351Y0198948D01*
X0100328Y0198893D01*
X0100301Y0198838D01*
X0100272Y0198786D01*
X0100239Y0198735D01*
X0100203Y0198686D01*
X0100165Y0198640D01*
X0100123Y0198596D01*
X0100079Y0198554D01*
X0100033Y0198516D01*
X0099984Y0198480D01*
X0099933Y0198447D01*
X0099881Y0198418D01*
X0099826Y0198391D01*
X0099771Y0198368D01*
X0099714Y0198348D01*
X0099655Y0198332D01*
X0099596Y0198319D01*
X0099537Y0198310D01*
X0099476Y0198305D01*
X0099416Y0198303D01*
X0091416Y0198303D01*
X0091356Y0198305D01*
X0091295Y0198310D01*
X0091236Y0198319D01*
X0091177Y0198332D01*
X0091118Y0198348D01*
X0091061Y0198368D01*
X0091006Y0198391D01*
X0090951Y0198418D01*
X0090899Y0198447D01*
X0090848Y0198480D01*
X0090799Y0198516D01*
X0090753Y0198554D01*
X0090709Y0198596D01*
X0090667Y0198640D01*
X0090629Y0198686D01*
X0090593Y0198735D01*
X0090560Y0198786D01*
X0090531Y0198838D01*
X0090504Y0198893D01*
X0090481Y0198948D01*
X0090461Y0199005D01*
X0090445Y0199064D01*
X0090432Y0199123D01*
X0090423Y0199182D01*
X0090418Y0199243D01*
X0090416Y0199303D01*
X0090416Y0217303D01*
X0090418Y0217363D01*
X0090423Y0217424D01*
X0090432Y0217483D01*
X0090445Y0217542D01*
X0090461Y0217601D01*
X0090481Y0217658D01*
X0090504Y0217713D01*
X0090531Y0217768D01*
X0090560Y0217820D01*
X0090593Y0217871D01*
X0090629Y0217920D01*
X0090667Y0217966D01*
X0090709Y0218010D01*
X0090753Y0218052D01*
X0090799Y0218090D01*
X0090848Y0218126D01*
X0090899Y0218159D01*
X0090951Y0218188D01*
X0091006Y0218215D01*
X0091061Y0218238D01*
X0091118Y0218258D01*
X0091177Y0218274D01*
X0091236Y0218287D01*
X0091295Y0218296D01*
X0091356Y0218301D01*
X0091416Y0218303D01*
X0099416Y0218303D01*
X0099476Y0218301D01*
X0099537Y0218296D01*
X0099596Y0218287D01*
X0099655Y0218274D01*
X0099714Y0218258D01*
X0099771Y0218238D01*
X0099826Y0218215D01*
X0099881Y0218188D01*
X0099933Y0218159D01*
X0099984Y0218126D01*
X0100033Y0218090D01*
X0100079Y0218052D01*
X0100123Y0218010D01*
X0100165Y0217966D01*
X0100203Y0217920D01*
X0100239Y0217871D01*
X0100272Y0217820D01*
X0100301Y0217768D01*
X0100328Y0217713D01*
X0100351Y0217658D01*
X0100371Y0217601D01*
X0100387Y0217542D01*
X0100400Y0217483D01*
X0100409Y0217424D01*
X0100414Y0217363D01*
X0100416Y0217303D01*
D12*
X0099849Y0196403D02*
X0099849Y0192203D01*
X0098683Y0192203D02*
X0101016Y0192203D01*
X0098683Y0195470D02*
X0099849Y0196403D01*
X0095599Y0196403D02*
X0094433Y0196403D01*
X0094433Y0192203D01*
X0094433Y0194070D02*
X0095599Y0194070D01*
X0095599Y0194069D02*
X0095666Y0194071D01*
X0095732Y0194077D01*
X0095798Y0194086D01*
X0095863Y0194099D01*
X0095928Y0194116D01*
X0095991Y0194137D01*
X0096053Y0194161D01*
X0096114Y0194189D01*
X0096173Y0194220D01*
X0096230Y0194254D01*
X0096285Y0194292D01*
X0096338Y0194333D01*
X0096388Y0194376D01*
X0096436Y0194423D01*
X0096481Y0194472D01*
X0096523Y0194523D01*
X0096562Y0194577D01*
X0096598Y0194633D01*
X0096631Y0194691D01*
X0096661Y0194751D01*
X0096686Y0194813D01*
X0096709Y0194875D01*
X0096728Y0194939D01*
X0096743Y0195004D01*
X0096754Y0195070D01*
X0096762Y0195136D01*
X0096766Y0195203D01*
X0096766Y0195269D01*
X0096762Y0195336D01*
X0096754Y0195402D01*
X0096743Y0195468D01*
X0096728Y0195533D01*
X0096709Y0195597D01*
X0096686Y0195659D01*
X0096661Y0195721D01*
X0096631Y0195781D01*
X0096598Y0195839D01*
X0096562Y0195895D01*
X0096523Y0195949D01*
X0096481Y0196000D01*
X0096436Y0196049D01*
X0096388Y0196096D01*
X0096338Y0196139D01*
X0096285Y0196180D01*
X0096230Y0196218D01*
X0096173Y0196252D01*
X0096114Y0196283D01*
X0096053Y0196311D01*
X0095991Y0196335D01*
X0095928Y0196356D01*
X0095863Y0196373D01*
X0095798Y0196386D01*
X0095732Y0196395D01*
X0095666Y0196401D01*
X0095599Y0196403D01*
X0091893Y0196403D02*
X0091893Y0193136D01*
X0091891Y0193077D01*
X0091886Y0193019D01*
X0091876Y0192961D01*
X0091864Y0192904D01*
X0091847Y0192848D01*
X0091827Y0192793D01*
X0091804Y0192739D01*
X0091778Y0192687D01*
X0091748Y0192636D01*
X0091715Y0192588D01*
X0091679Y0192541D01*
X0091640Y0192497D01*
X0091599Y0192456D01*
X0091555Y0192417D01*
X0091508Y0192381D01*
X0091460Y0192348D01*
X0091409Y0192318D01*
X0091357Y0192292D01*
X0091303Y0192269D01*
X0091248Y0192249D01*
X0091192Y0192232D01*
X0091135Y0192220D01*
X0091077Y0192210D01*
X0091019Y0192205D01*
X0090960Y0192203D01*
X0090493Y0192203D01*
X0076583Y0192286D02*
X0075649Y0192286D01*
X0076583Y0192287D02*
X0076643Y0192289D01*
X0076702Y0192295D01*
X0076761Y0192304D01*
X0076820Y0192318D01*
X0076877Y0192335D01*
X0076933Y0192355D01*
X0076988Y0192379D01*
X0077041Y0192407D01*
X0077092Y0192438D01*
X0077141Y0192472D01*
X0077188Y0192510D01*
X0077232Y0192550D01*
X0077274Y0192593D01*
X0077312Y0192638D01*
X0077348Y0192686D01*
X0077381Y0192736D01*
X0077410Y0192788D01*
X0077436Y0192842D01*
X0077459Y0192898D01*
X0077477Y0192955D01*
X0077493Y0193012D01*
X0077504Y0193071D01*
X0077512Y0193130D01*
X0077516Y0193190D01*
X0077516Y0193250D01*
X0077512Y0193310D01*
X0077504Y0193369D01*
X0077493Y0193428D01*
X0077477Y0193485D01*
X0077459Y0193542D01*
X0077436Y0193598D01*
X0077410Y0193652D01*
X0077381Y0193704D01*
X0077348Y0193754D01*
X0077312Y0193802D01*
X0077274Y0193847D01*
X0077232Y0193890D01*
X0077188Y0193930D01*
X0077141Y0193968D01*
X0077092Y0194002D01*
X0077041Y0194033D01*
X0076988Y0194061D01*
X0076933Y0194085D01*
X0076877Y0194105D01*
X0076820Y0194122D01*
X0076761Y0194136D01*
X0076702Y0194145D01*
X0076643Y0194151D01*
X0076583Y0194153D01*
X0075183Y0194153D01*
X0072866Y0194153D02*
X0072866Y0189953D01*
X0070533Y0194153D01*
X0070533Y0189953D01*
X0068480Y0189953D02*
X0067546Y0189953D01*
X0067487Y0189955D01*
X0067429Y0189960D01*
X0067371Y0189970D01*
X0067314Y0189982D01*
X0067258Y0189999D01*
X0067203Y0190019D01*
X0067149Y0190042D01*
X0067097Y0190068D01*
X0067046Y0190098D01*
X0066998Y0190131D01*
X0066951Y0190167D01*
X0066907Y0190206D01*
X0066866Y0190247D01*
X0066827Y0190291D01*
X0066791Y0190338D01*
X0066758Y0190386D01*
X0066728Y0190437D01*
X0066702Y0190489D01*
X0066679Y0190543D01*
X0066659Y0190598D01*
X0066642Y0190654D01*
X0066630Y0190711D01*
X0066620Y0190769D01*
X0066615Y0190827D01*
X0066613Y0190886D01*
X0066613Y0193220D01*
X0066615Y0193281D01*
X0066621Y0193342D01*
X0066631Y0193402D01*
X0066645Y0193461D01*
X0066663Y0193520D01*
X0066684Y0193577D01*
X0066709Y0193633D01*
X0066738Y0193686D01*
X0066770Y0193738D01*
X0066806Y0193788D01*
X0066845Y0193835D01*
X0066886Y0193880D01*
X0066931Y0193921D01*
X0066978Y0193960D01*
X0067028Y0193996D01*
X0067079Y0194028D01*
X0067133Y0194057D01*
X0067189Y0194082D01*
X0067246Y0194103D01*
X0067305Y0194121D01*
X0067364Y0194135D01*
X0067424Y0194145D01*
X0067485Y0194151D01*
X0067546Y0194153D01*
X0068480Y0194153D01*
X0075183Y0189953D02*
X0076349Y0189953D01*
X0076416Y0189955D01*
X0076482Y0189961D01*
X0076548Y0189970D01*
X0076613Y0189983D01*
X0076678Y0190000D01*
X0076741Y0190021D01*
X0076803Y0190045D01*
X0076864Y0190073D01*
X0076923Y0190104D01*
X0076980Y0190138D01*
X0077035Y0190176D01*
X0077088Y0190217D01*
X0077138Y0190260D01*
X0077186Y0190307D01*
X0077231Y0190356D01*
X0077273Y0190407D01*
X0077312Y0190461D01*
X0077348Y0190517D01*
X0077381Y0190575D01*
X0077411Y0190635D01*
X0077436Y0190697D01*
X0077459Y0190759D01*
X0077478Y0190823D01*
X0077493Y0190888D01*
X0077504Y0190954D01*
X0077512Y0191020D01*
X0077516Y0191087D01*
X0077516Y0191153D01*
X0077512Y0191220D01*
X0077504Y0191286D01*
X0077493Y0191352D01*
X0077478Y0191417D01*
X0077459Y0191481D01*
X0077436Y0191543D01*
X0077411Y0191605D01*
X0077381Y0191665D01*
X0077348Y0191723D01*
X0077312Y0191779D01*
X0077273Y0191833D01*
X0077231Y0191884D01*
X0077186Y0191933D01*
X0077138Y0191980D01*
X0077088Y0192023D01*
X0077035Y0192064D01*
X0076980Y0192102D01*
X0076923Y0192136D01*
X0076864Y0192167D01*
X0076803Y0192195D01*
X0076741Y0192219D01*
X0076678Y0192240D01*
X0076613Y0192257D01*
X0076548Y0192270D01*
X0076482Y0192279D01*
X0076416Y0192285D01*
X0076349Y0192287D01*
X0087416Y0180003D02*
X0088583Y0180003D01*
X0088650Y0180001D01*
X0088716Y0179995D01*
X0088782Y0179986D01*
X0088847Y0179973D01*
X0088912Y0179956D01*
X0088975Y0179935D01*
X0089037Y0179911D01*
X0089098Y0179883D01*
X0089157Y0179852D01*
X0089214Y0179818D01*
X0089269Y0179780D01*
X0089322Y0179739D01*
X0089372Y0179696D01*
X0089420Y0179649D01*
X0089465Y0179600D01*
X0089507Y0179549D01*
X0089546Y0179495D01*
X0089582Y0179439D01*
X0089615Y0179381D01*
X0089645Y0179321D01*
X0089670Y0179259D01*
X0089693Y0179197D01*
X0089712Y0179133D01*
X0089727Y0179068D01*
X0089738Y0179002D01*
X0089746Y0178936D01*
X0089750Y0178869D01*
X0089750Y0178803D01*
X0089746Y0178736D01*
X0089738Y0178670D01*
X0089727Y0178604D01*
X0089712Y0178539D01*
X0089693Y0178475D01*
X0089670Y0178413D01*
X0089645Y0178351D01*
X0089615Y0178291D01*
X0089582Y0178233D01*
X0089546Y0178177D01*
X0089507Y0178123D01*
X0089465Y0178072D01*
X0089420Y0178023D01*
X0089372Y0177976D01*
X0089322Y0177933D01*
X0089269Y0177892D01*
X0089214Y0177854D01*
X0089157Y0177820D01*
X0089098Y0177789D01*
X0089037Y0177761D01*
X0088975Y0177737D01*
X0088912Y0177716D01*
X0088847Y0177699D01*
X0088782Y0177686D01*
X0088716Y0177677D01*
X0088650Y0177671D01*
X0088583Y0177669D01*
X0088583Y0177670D02*
X0087416Y0177670D01*
X0088816Y0177670D02*
X0089749Y0175803D01*
X0087416Y0175803D02*
X0087416Y0180003D01*
X0092106Y0179070D02*
X0092108Y0179010D01*
X0092114Y0178951D01*
X0092123Y0178892D01*
X0092137Y0178833D01*
X0092154Y0178776D01*
X0092174Y0178720D01*
X0092198Y0178665D01*
X0092226Y0178612D01*
X0092257Y0178561D01*
X0092291Y0178512D01*
X0092329Y0178465D01*
X0092369Y0178421D01*
X0092412Y0178379D01*
X0092457Y0178341D01*
X0092505Y0178305D01*
X0092555Y0178272D01*
X0092607Y0178243D01*
X0092661Y0178217D01*
X0092717Y0178194D01*
X0092774Y0178176D01*
X0092831Y0178160D01*
X0092890Y0178149D01*
X0092949Y0178141D01*
X0093009Y0178137D01*
X0093069Y0178137D01*
X0093129Y0178141D01*
X0093188Y0178149D01*
X0093247Y0178160D01*
X0093304Y0178176D01*
X0093361Y0178194D01*
X0093417Y0178217D01*
X0093471Y0178243D01*
X0093523Y0178272D01*
X0093573Y0178305D01*
X0093621Y0178341D01*
X0093666Y0178379D01*
X0093709Y0178421D01*
X0093749Y0178465D01*
X0093787Y0178512D01*
X0093821Y0178561D01*
X0093852Y0178612D01*
X0093880Y0178665D01*
X0093904Y0178720D01*
X0093924Y0178776D01*
X0093941Y0178833D01*
X0093955Y0178892D01*
X0093964Y0178951D01*
X0093970Y0179010D01*
X0093972Y0179070D01*
X0093970Y0179130D01*
X0093964Y0179189D01*
X0093955Y0179248D01*
X0093941Y0179307D01*
X0093924Y0179364D01*
X0093904Y0179420D01*
X0093880Y0179475D01*
X0093852Y0179528D01*
X0093821Y0179579D01*
X0093787Y0179628D01*
X0093749Y0179675D01*
X0093709Y0179719D01*
X0093666Y0179761D01*
X0093621Y0179799D01*
X0093573Y0179835D01*
X0093523Y0179868D01*
X0093471Y0179897D01*
X0093417Y0179923D01*
X0093361Y0179946D01*
X0093304Y0179964D01*
X0093247Y0179980D01*
X0093188Y0179991D01*
X0093129Y0179999D01*
X0093069Y0180003D01*
X0093009Y0180003D01*
X0092949Y0179999D01*
X0092890Y0179991D01*
X0092831Y0179980D01*
X0092774Y0179964D01*
X0092717Y0179946D01*
X0092661Y0179923D01*
X0092607Y0179897D01*
X0092555Y0179868D01*
X0092505Y0179835D01*
X0092457Y0179799D01*
X0092412Y0179761D01*
X0092369Y0179719D01*
X0092329Y0179675D01*
X0092291Y0179628D01*
X0092257Y0179579D01*
X0092226Y0179528D01*
X0092198Y0179475D01*
X0092174Y0179420D01*
X0092154Y0179364D01*
X0092137Y0179307D01*
X0092123Y0179248D01*
X0092114Y0179189D01*
X0092108Y0179130D01*
X0092106Y0179070D01*
X0091872Y0176970D02*
X0091874Y0176903D01*
X0091880Y0176837D01*
X0091889Y0176771D01*
X0091902Y0176706D01*
X0091919Y0176641D01*
X0091940Y0176578D01*
X0091964Y0176516D01*
X0091992Y0176455D01*
X0092023Y0176396D01*
X0092057Y0176339D01*
X0092095Y0176284D01*
X0092136Y0176231D01*
X0092179Y0176181D01*
X0092226Y0176133D01*
X0092275Y0176088D01*
X0092326Y0176046D01*
X0092380Y0176007D01*
X0092436Y0175971D01*
X0092494Y0175938D01*
X0092554Y0175908D01*
X0092616Y0175883D01*
X0092678Y0175860D01*
X0092742Y0175841D01*
X0092807Y0175826D01*
X0092873Y0175815D01*
X0092939Y0175807D01*
X0093006Y0175803D01*
X0093072Y0175803D01*
X0093139Y0175807D01*
X0093205Y0175815D01*
X0093271Y0175826D01*
X0093336Y0175841D01*
X0093400Y0175860D01*
X0093462Y0175883D01*
X0093524Y0175908D01*
X0093584Y0175938D01*
X0093642Y0175971D01*
X0093698Y0176007D01*
X0093752Y0176046D01*
X0093803Y0176088D01*
X0093852Y0176133D01*
X0093899Y0176181D01*
X0093942Y0176231D01*
X0093983Y0176284D01*
X0094021Y0176339D01*
X0094055Y0176396D01*
X0094086Y0176455D01*
X0094114Y0176516D01*
X0094138Y0176578D01*
X0094159Y0176641D01*
X0094176Y0176706D01*
X0094189Y0176771D01*
X0094198Y0176837D01*
X0094204Y0176903D01*
X0094206Y0176970D01*
X0094204Y0177037D01*
X0094198Y0177103D01*
X0094189Y0177169D01*
X0094176Y0177234D01*
X0094159Y0177299D01*
X0094138Y0177362D01*
X0094114Y0177424D01*
X0094086Y0177485D01*
X0094055Y0177544D01*
X0094021Y0177601D01*
X0093983Y0177656D01*
X0093942Y0177709D01*
X0093899Y0177759D01*
X0093852Y0177807D01*
X0093803Y0177852D01*
X0093752Y0177894D01*
X0093698Y0177933D01*
X0093642Y0177969D01*
X0093584Y0178002D01*
X0093524Y0178032D01*
X0093462Y0178057D01*
X0093400Y0178080D01*
X0093336Y0178099D01*
X0093271Y0178114D01*
X0093205Y0178125D01*
X0093139Y0178133D01*
X0093072Y0178137D01*
X0093006Y0178137D01*
X0092939Y0178133D01*
X0092873Y0178125D01*
X0092807Y0178114D01*
X0092742Y0178099D01*
X0092678Y0178080D01*
X0092616Y0178057D01*
X0092554Y0178032D01*
X0092494Y0178002D01*
X0092436Y0177969D01*
X0092380Y0177933D01*
X0092326Y0177894D01*
X0092275Y0177852D01*
X0092226Y0177807D01*
X0092179Y0177759D01*
X0092136Y0177709D01*
X0092095Y0177656D01*
X0092057Y0177601D01*
X0092023Y0177544D01*
X0091992Y0177485D01*
X0091964Y0177424D01*
X0091940Y0177362D01*
X0091919Y0177299D01*
X0091902Y0177234D01*
X0091889Y0177169D01*
X0091880Y0177103D01*
X0091874Y0177037D01*
X0091872Y0176970D01*
X0099916Y0177670D02*
X0101083Y0177670D01*
X0101316Y0177670D02*
X0102249Y0175803D01*
X0099916Y0175803D02*
X0099916Y0180003D01*
X0101083Y0180003D01*
X0101150Y0180001D01*
X0101216Y0179995D01*
X0101282Y0179986D01*
X0101347Y0179973D01*
X0101412Y0179956D01*
X0101475Y0179935D01*
X0101537Y0179911D01*
X0101598Y0179883D01*
X0101657Y0179852D01*
X0101714Y0179818D01*
X0101769Y0179780D01*
X0101822Y0179739D01*
X0101872Y0179696D01*
X0101920Y0179649D01*
X0101965Y0179600D01*
X0102007Y0179549D01*
X0102046Y0179495D01*
X0102082Y0179439D01*
X0102115Y0179381D01*
X0102145Y0179321D01*
X0102170Y0179259D01*
X0102193Y0179197D01*
X0102212Y0179133D01*
X0102227Y0179068D01*
X0102238Y0179002D01*
X0102246Y0178936D01*
X0102250Y0178869D01*
X0102250Y0178803D01*
X0102246Y0178736D01*
X0102238Y0178670D01*
X0102227Y0178604D01*
X0102212Y0178539D01*
X0102193Y0178475D01*
X0102170Y0178413D01*
X0102145Y0178351D01*
X0102115Y0178291D01*
X0102082Y0178233D01*
X0102046Y0178177D01*
X0102007Y0178123D01*
X0101965Y0178072D01*
X0101920Y0178023D01*
X0101872Y0177976D01*
X0101822Y0177933D01*
X0101769Y0177892D01*
X0101714Y0177854D01*
X0101657Y0177820D01*
X0101598Y0177789D01*
X0101537Y0177761D01*
X0101475Y0177737D01*
X0101412Y0177716D01*
X0101347Y0177699D01*
X0101282Y0177686D01*
X0101216Y0177677D01*
X0101150Y0177671D01*
X0101083Y0177669D01*
X0104372Y0179536D02*
X0104372Y0180003D01*
X0106706Y0180003D01*
X0105539Y0175803D01*
X0106749Y0184953D02*
X0109083Y0184953D01*
X0109144Y0184955D01*
X0109205Y0184961D01*
X0109265Y0184971D01*
X0109324Y0184985D01*
X0109383Y0185003D01*
X0109440Y0185024D01*
X0109496Y0185049D01*
X0109550Y0185078D01*
X0109601Y0185110D01*
X0109651Y0185146D01*
X0109698Y0185185D01*
X0109743Y0185226D01*
X0109784Y0185271D01*
X0109823Y0185318D01*
X0109859Y0185368D01*
X0109891Y0185420D01*
X0109920Y0185473D01*
X0109945Y0185529D01*
X0109966Y0185586D01*
X0109984Y0185645D01*
X0109998Y0185704D01*
X0110008Y0185764D01*
X0110014Y0185825D01*
X0110016Y0185886D01*
X0110016Y0186820D01*
X0109083Y0188703D02*
X0106749Y0188703D01*
X0106688Y0188705D01*
X0106627Y0188711D01*
X0106567Y0188721D01*
X0106508Y0188735D01*
X0106449Y0188753D01*
X0106392Y0188774D01*
X0106336Y0188799D01*
X0106283Y0188828D01*
X0106231Y0188860D01*
X0106181Y0188896D01*
X0106134Y0188935D01*
X0106089Y0188976D01*
X0106048Y0189021D01*
X0106009Y0189068D01*
X0105973Y0189118D01*
X0105941Y0189169D01*
X0105912Y0189223D01*
X0105887Y0189279D01*
X0105866Y0189336D01*
X0105848Y0189395D01*
X0105834Y0189454D01*
X0105824Y0189514D01*
X0105818Y0189575D01*
X0105816Y0189636D01*
X0105816Y0190570D01*
X0106749Y0192473D02*
X0105816Y0193639D01*
X0110016Y0193639D01*
X0110016Y0192473D02*
X0110016Y0194806D01*
X0110016Y0190570D02*
X0110016Y0189636D01*
X0110014Y0189575D01*
X0110008Y0189514D01*
X0109998Y0189454D01*
X0109984Y0189395D01*
X0109966Y0189336D01*
X0109945Y0189279D01*
X0109920Y0189223D01*
X0109891Y0189170D01*
X0109859Y0189118D01*
X0109823Y0189068D01*
X0109784Y0189021D01*
X0109743Y0188976D01*
X0109698Y0188935D01*
X0109651Y0188896D01*
X0109601Y0188860D01*
X0109550Y0188828D01*
X0109496Y0188799D01*
X0109440Y0188774D01*
X0109383Y0188753D01*
X0109324Y0188735D01*
X0109265Y0188721D01*
X0109205Y0188711D01*
X0109144Y0188705D01*
X0109083Y0188703D01*
X0105816Y0185886D02*
X0105818Y0185825D01*
X0105824Y0185764D01*
X0105834Y0185704D01*
X0105848Y0185645D01*
X0105866Y0185586D01*
X0105887Y0185529D01*
X0105912Y0185473D01*
X0105941Y0185419D01*
X0105973Y0185368D01*
X0106009Y0185318D01*
X0106048Y0185271D01*
X0106089Y0185226D01*
X0106134Y0185185D01*
X0106181Y0185146D01*
X0106231Y0185110D01*
X0106283Y0185078D01*
X0106336Y0185049D01*
X0106392Y0185024D01*
X0106449Y0185003D01*
X0106508Y0184985D01*
X0106567Y0184971D01*
X0106627Y0184961D01*
X0106688Y0184955D01*
X0106749Y0184953D01*
X0105816Y0185886D02*
X0105816Y0186820D01*
X0107216Y0161653D02*
X0107216Y0158386D01*
X0107214Y0158327D01*
X0107209Y0158269D01*
X0107199Y0158211D01*
X0107187Y0158154D01*
X0107170Y0158098D01*
X0107150Y0158043D01*
X0107127Y0157989D01*
X0107101Y0157937D01*
X0107071Y0157886D01*
X0107038Y0157838D01*
X0107002Y0157791D01*
X0106963Y0157747D01*
X0106922Y0157706D01*
X0106878Y0157667D01*
X0106831Y0157631D01*
X0106783Y0157598D01*
X0106732Y0157568D01*
X0106680Y0157542D01*
X0106626Y0157519D01*
X0106571Y0157499D01*
X0106515Y0157482D01*
X0106458Y0157470D01*
X0106400Y0157460D01*
X0106342Y0157455D01*
X0106283Y0157453D01*
X0105816Y0157453D01*
X0107216Y0156653D02*
X0107216Y0153386D01*
X0107214Y0153327D01*
X0107209Y0153269D01*
X0107199Y0153211D01*
X0107187Y0153154D01*
X0107170Y0153098D01*
X0107150Y0153043D01*
X0107127Y0152989D01*
X0107101Y0152937D01*
X0107071Y0152886D01*
X0107038Y0152838D01*
X0107002Y0152791D01*
X0106963Y0152747D01*
X0106922Y0152706D01*
X0106878Y0152667D01*
X0106831Y0152631D01*
X0106783Y0152598D01*
X0106732Y0152568D01*
X0106680Y0152542D01*
X0106626Y0152519D01*
X0106571Y0152499D01*
X0106515Y0152482D01*
X0106458Y0152470D01*
X0106400Y0152460D01*
X0106342Y0152455D01*
X0106283Y0152453D01*
X0105816Y0152453D01*
X0109588Y0153153D02*
X0109588Y0155253D01*
X0111455Y0155253D02*
X0111455Y0152453D01*
X0110288Y0152453D01*
X0110238Y0152455D01*
X0110188Y0152460D01*
X0110139Y0152469D01*
X0110091Y0152481D01*
X0110043Y0152497D01*
X0109997Y0152516D01*
X0109953Y0152539D01*
X0109910Y0152564D01*
X0109869Y0152593D01*
X0109830Y0152624D01*
X0109793Y0152658D01*
X0109759Y0152695D01*
X0109728Y0152734D01*
X0109699Y0152775D01*
X0109674Y0152818D01*
X0109651Y0152862D01*
X0109632Y0152908D01*
X0109616Y0152956D01*
X0109604Y0153004D01*
X0109595Y0153053D01*
X0109590Y0153103D01*
X0109588Y0153153D01*
X0113922Y0152453D02*
X0113922Y0155253D01*
X0116022Y0155253D01*
X0116072Y0155251D01*
X0116122Y0155246D01*
X0116171Y0155237D01*
X0116219Y0155225D01*
X0116267Y0155209D01*
X0116313Y0155190D01*
X0116357Y0155167D01*
X0116400Y0155142D01*
X0116441Y0155113D01*
X0116480Y0155082D01*
X0116517Y0155048D01*
X0116551Y0155011D01*
X0116582Y0154972D01*
X0116611Y0154931D01*
X0116636Y0154888D01*
X0116659Y0154844D01*
X0116678Y0154798D01*
X0116694Y0154750D01*
X0116706Y0154702D01*
X0116715Y0154653D01*
X0116720Y0154603D01*
X0116722Y0154553D01*
X0116722Y0152453D01*
X0115322Y0152453D02*
X0115322Y0155253D01*
X0119223Y0155253D02*
X0120390Y0155253D01*
X0120440Y0155251D01*
X0120490Y0155246D01*
X0120539Y0155237D01*
X0120587Y0155225D01*
X0120635Y0155209D01*
X0120681Y0155190D01*
X0120725Y0155167D01*
X0120768Y0155142D01*
X0120809Y0155113D01*
X0120848Y0155082D01*
X0120885Y0155048D01*
X0120919Y0155011D01*
X0120950Y0154972D01*
X0120979Y0154931D01*
X0121004Y0154888D01*
X0121027Y0154844D01*
X0121046Y0154798D01*
X0121062Y0154750D01*
X0121074Y0154702D01*
X0121083Y0154653D01*
X0121088Y0154603D01*
X0121090Y0154553D01*
X0121090Y0153153D01*
X0121088Y0153103D01*
X0121083Y0153053D01*
X0121074Y0153004D01*
X0121062Y0152956D01*
X0121046Y0152908D01*
X0121027Y0152862D01*
X0121004Y0152818D01*
X0120979Y0152775D01*
X0120950Y0152734D01*
X0120919Y0152695D01*
X0120885Y0152658D01*
X0120848Y0152624D01*
X0120809Y0152593D01*
X0120768Y0152564D01*
X0120725Y0152539D01*
X0120681Y0152516D01*
X0120635Y0152497D01*
X0120587Y0152481D01*
X0120539Y0152469D01*
X0120490Y0152460D01*
X0120440Y0152455D01*
X0120390Y0152453D01*
X0119223Y0152453D01*
X0119223Y0151053D02*
X0119223Y0155253D01*
X0123088Y0154320D02*
X0123088Y0153153D01*
X0123088Y0153853D02*
X0124955Y0153853D01*
X0124955Y0154320D01*
X0124953Y0154380D01*
X0124947Y0154439D01*
X0124938Y0154498D01*
X0124924Y0154557D01*
X0124907Y0154614D01*
X0124887Y0154670D01*
X0124863Y0154725D01*
X0124835Y0154778D01*
X0124804Y0154829D01*
X0124770Y0154878D01*
X0124732Y0154925D01*
X0124692Y0154969D01*
X0124649Y0155011D01*
X0124604Y0155049D01*
X0124556Y0155085D01*
X0124506Y0155118D01*
X0124454Y0155147D01*
X0124400Y0155173D01*
X0124344Y0155196D01*
X0124287Y0155214D01*
X0124230Y0155230D01*
X0124171Y0155241D01*
X0124112Y0155249D01*
X0124052Y0155253D01*
X0123992Y0155253D01*
X0123932Y0155249D01*
X0123873Y0155241D01*
X0123814Y0155230D01*
X0123757Y0155214D01*
X0123700Y0155196D01*
X0123644Y0155173D01*
X0123590Y0155147D01*
X0123538Y0155118D01*
X0123488Y0155085D01*
X0123440Y0155049D01*
X0123395Y0155011D01*
X0123352Y0154969D01*
X0123312Y0154925D01*
X0123274Y0154878D01*
X0123240Y0154829D01*
X0123209Y0154778D01*
X0123181Y0154725D01*
X0123157Y0154670D01*
X0123137Y0154614D01*
X0123120Y0154557D01*
X0123106Y0154498D01*
X0123097Y0154439D01*
X0123091Y0154380D01*
X0123089Y0154320D01*
X0123088Y0153153D02*
X0123090Y0153103D01*
X0123095Y0153053D01*
X0123104Y0153004D01*
X0123116Y0152956D01*
X0123132Y0152908D01*
X0123151Y0152862D01*
X0123174Y0152818D01*
X0123199Y0152775D01*
X0123228Y0152734D01*
X0123259Y0152695D01*
X0123293Y0152658D01*
X0123330Y0152624D01*
X0123369Y0152593D01*
X0123410Y0152564D01*
X0123453Y0152539D01*
X0123497Y0152516D01*
X0123543Y0152497D01*
X0123591Y0152481D01*
X0123639Y0152469D01*
X0123688Y0152460D01*
X0123738Y0152455D01*
X0123788Y0152453D01*
X0124955Y0152453D01*
X0127178Y0152453D02*
X0127178Y0155253D01*
X0128578Y0155253D01*
X0128578Y0154786D01*
X0111838Y0157453D02*
X0109505Y0157453D01*
X0110672Y0157453D02*
X0110672Y0161653D01*
X0109505Y0160720D01*
X0172273Y0164271D02*
X0173673Y0160071D01*
X0175073Y0164271D01*
X0177199Y0164271D02*
X0177199Y0160071D01*
X0177199Y0161938D02*
X0178366Y0161938D01*
X0178599Y0161938D02*
X0179533Y0160071D01*
X0181656Y0160071D02*
X0183989Y0160071D01*
X0182823Y0160071D02*
X0182823Y0164271D01*
X0181656Y0163338D01*
X0178366Y0164272D02*
X0178433Y0164270D01*
X0178499Y0164264D01*
X0178565Y0164255D01*
X0178630Y0164242D01*
X0178695Y0164225D01*
X0178758Y0164204D01*
X0178820Y0164180D01*
X0178881Y0164152D01*
X0178940Y0164121D01*
X0178997Y0164087D01*
X0179052Y0164049D01*
X0179105Y0164008D01*
X0179155Y0163965D01*
X0179203Y0163918D01*
X0179248Y0163869D01*
X0179290Y0163818D01*
X0179329Y0163764D01*
X0179365Y0163708D01*
X0179398Y0163650D01*
X0179428Y0163590D01*
X0179453Y0163528D01*
X0179476Y0163466D01*
X0179495Y0163402D01*
X0179510Y0163337D01*
X0179521Y0163271D01*
X0179529Y0163205D01*
X0179533Y0163138D01*
X0179533Y0163072D01*
X0179529Y0163005D01*
X0179521Y0162939D01*
X0179510Y0162873D01*
X0179495Y0162808D01*
X0179476Y0162744D01*
X0179453Y0162682D01*
X0179428Y0162620D01*
X0179398Y0162560D01*
X0179365Y0162502D01*
X0179329Y0162446D01*
X0179290Y0162392D01*
X0179248Y0162341D01*
X0179203Y0162292D01*
X0179155Y0162245D01*
X0179105Y0162202D01*
X0179052Y0162161D01*
X0178997Y0162123D01*
X0178940Y0162089D01*
X0178881Y0162058D01*
X0178820Y0162030D01*
X0178758Y0162006D01*
X0178695Y0161985D01*
X0178630Y0161968D01*
X0178565Y0161955D01*
X0178499Y0161946D01*
X0178433Y0161940D01*
X0178366Y0161938D01*
X0178366Y0164271D02*
X0177199Y0164271D01*
X0205816Y0164470D02*
X0205816Y0162136D01*
X0205818Y0162077D01*
X0205823Y0162019D01*
X0205833Y0161961D01*
X0205845Y0161904D01*
X0205862Y0161848D01*
X0205882Y0161793D01*
X0205905Y0161739D01*
X0205931Y0161687D01*
X0205961Y0161636D01*
X0205994Y0161588D01*
X0206030Y0161541D01*
X0206069Y0161497D01*
X0206110Y0161456D01*
X0206154Y0161417D01*
X0206201Y0161381D01*
X0206249Y0161348D01*
X0206300Y0161318D01*
X0206352Y0161292D01*
X0206406Y0161269D01*
X0206461Y0161249D01*
X0206517Y0161232D01*
X0206574Y0161220D01*
X0206632Y0161210D01*
X0206690Y0161205D01*
X0206749Y0161203D01*
X0207683Y0161203D01*
X0209566Y0162136D02*
X0209566Y0164470D01*
X0209568Y0164531D01*
X0209574Y0164592D01*
X0209584Y0164652D01*
X0209598Y0164711D01*
X0209616Y0164770D01*
X0209637Y0164827D01*
X0209662Y0164883D01*
X0209691Y0164936D01*
X0209723Y0164988D01*
X0209759Y0165038D01*
X0209798Y0165085D01*
X0209839Y0165130D01*
X0209884Y0165171D01*
X0209931Y0165210D01*
X0209981Y0165246D01*
X0210032Y0165278D01*
X0210086Y0165307D01*
X0210142Y0165332D01*
X0210199Y0165353D01*
X0210258Y0165371D01*
X0210317Y0165385D01*
X0210377Y0165395D01*
X0210438Y0165401D01*
X0210499Y0165403D01*
X0211433Y0165403D01*
X0215319Y0163536D02*
X0215365Y0163583D01*
X0215408Y0163631D01*
X0215448Y0163683D01*
X0215486Y0163736D01*
X0215520Y0163792D01*
X0215550Y0163849D01*
X0215578Y0163909D01*
X0215602Y0163969D01*
X0215622Y0164031D01*
X0215639Y0164094D01*
X0215652Y0164158D01*
X0215661Y0164223D01*
X0215667Y0164288D01*
X0215669Y0164353D01*
X0215319Y0163536D02*
X0213335Y0161203D01*
X0215669Y0161203D01*
X0213336Y0164470D02*
X0213359Y0164536D01*
X0213386Y0164602D01*
X0213417Y0164665D01*
X0213450Y0164728D01*
X0213487Y0164788D01*
X0213527Y0164846D01*
X0213570Y0164902D01*
X0213616Y0164956D01*
X0213665Y0165007D01*
X0213716Y0165056D01*
X0213769Y0165102D01*
X0213826Y0165145D01*
X0213884Y0165185D01*
X0213944Y0165222D01*
X0214006Y0165256D01*
X0214070Y0165286D01*
X0214135Y0165313D01*
X0214202Y0165337D01*
X0214270Y0165357D01*
X0214338Y0165373D01*
X0214408Y0165386D01*
X0214478Y0165396D01*
X0214548Y0165401D01*
X0214619Y0165403D01*
X0214682Y0165401D01*
X0214746Y0165395D01*
X0214808Y0165386D01*
X0214870Y0165372D01*
X0214931Y0165355D01*
X0214991Y0165335D01*
X0215050Y0165310D01*
X0215107Y0165283D01*
X0215162Y0165252D01*
X0215215Y0165217D01*
X0215267Y0165180D01*
X0215315Y0165139D01*
X0215361Y0165095D01*
X0215405Y0165049D01*
X0215446Y0165001D01*
X0215483Y0164949D01*
X0215518Y0164896D01*
X0215549Y0164841D01*
X0215576Y0164784D01*
X0215601Y0164725D01*
X0215621Y0164665D01*
X0215638Y0164604D01*
X0215652Y0164542D01*
X0215661Y0164480D01*
X0215667Y0164416D01*
X0215669Y0164353D01*
X0211433Y0161203D02*
X0210499Y0161203D01*
X0210440Y0161205D01*
X0210382Y0161210D01*
X0210324Y0161220D01*
X0210267Y0161232D01*
X0210211Y0161249D01*
X0210156Y0161269D01*
X0210102Y0161292D01*
X0210050Y0161318D01*
X0209999Y0161348D01*
X0209951Y0161381D01*
X0209904Y0161417D01*
X0209860Y0161456D01*
X0209819Y0161497D01*
X0209780Y0161541D01*
X0209744Y0161588D01*
X0209711Y0161636D01*
X0209681Y0161687D01*
X0209655Y0161739D01*
X0209632Y0161793D01*
X0209612Y0161848D01*
X0209595Y0161904D01*
X0209583Y0161961D01*
X0209573Y0162019D01*
X0209568Y0162077D01*
X0209566Y0162136D01*
X0206749Y0165403D02*
X0206688Y0165401D01*
X0206627Y0165395D01*
X0206567Y0165385D01*
X0206508Y0165371D01*
X0206449Y0165353D01*
X0206392Y0165332D01*
X0206336Y0165307D01*
X0206282Y0165278D01*
X0206231Y0165246D01*
X0206181Y0165210D01*
X0206134Y0165171D01*
X0206089Y0165130D01*
X0206048Y0165085D01*
X0206009Y0165038D01*
X0205973Y0164988D01*
X0205941Y0164936D01*
X0205912Y0164883D01*
X0205887Y0164827D01*
X0205866Y0164770D01*
X0205848Y0164711D01*
X0205834Y0164652D01*
X0205824Y0164592D01*
X0205818Y0164531D01*
X0205816Y0164470D01*
X0206749Y0165403D02*
X0207683Y0165403D01*
X0286749Y0079153D02*
X0287683Y0079153D01*
X0286749Y0079153D02*
X0286688Y0079151D01*
X0286627Y0079145D01*
X0286567Y0079135D01*
X0286508Y0079121D01*
X0286449Y0079103D01*
X0286392Y0079082D01*
X0286336Y0079057D01*
X0286282Y0079028D01*
X0286231Y0078996D01*
X0286181Y0078960D01*
X0286134Y0078921D01*
X0286089Y0078880D01*
X0286048Y0078835D01*
X0286009Y0078788D01*
X0285973Y0078738D01*
X0285941Y0078686D01*
X0285912Y0078633D01*
X0285887Y0078577D01*
X0285866Y0078520D01*
X0285848Y0078461D01*
X0285834Y0078402D01*
X0285824Y0078342D01*
X0285818Y0078281D01*
X0285816Y0078220D01*
X0285816Y0075886D01*
X0285818Y0075827D01*
X0285823Y0075769D01*
X0285833Y0075711D01*
X0285845Y0075654D01*
X0285862Y0075598D01*
X0285882Y0075543D01*
X0285905Y0075489D01*
X0285931Y0075437D01*
X0285961Y0075386D01*
X0285994Y0075338D01*
X0286030Y0075291D01*
X0286069Y0075247D01*
X0286110Y0075206D01*
X0286154Y0075167D01*
X0286201Y0075131D01*
X0286249Y0075098D01*
X0286300Y0075068D01*
X0286352Y0075042D01*
X0286406Y0075019D01*
X0286461Y0074999D01*
X0286517Y0074982D01*
X0286574Y0074970D01*
X0286632Y0074960D01*
X0286690Y0074955D01*
X0286749Y0074953D01*
X0287683Y0074953D01*
X0289735Y0074953D02*
X0289735Y0079153D01*
X0292069Y0074953D01*
X0292069Y0079153D01*
X0296369Y0077286D02*
X0296415Y0077333D01*
X0296458Y0077381D01*
X0296498Y0077433D01*
X0296536Y0077486D01*
X0296570Y0077542D01*
X0296600Y0077599D01*
X0296628Y0077659D01*
X0296652Y0077719D01*
X0296672Y0077781D01*
X0296689Y0077844D01*
X0296702Y0077908D01*
X0296711Y0077973D01*
X0296717Y0078038D01*
X0296719Y0078103D01*
X0296369Y0077286D02*
X0294385Y0074953D01*
X0296719Y0074953D01*
X0294386Y0078220D02*
X0294409Y0078286D01*
X0294436Y0078352D01*
X0294467Y0078415D01*
X0294500Y0078478D01*
X0294537Y0078538D01*
X0294577Y0078596D01*
X0294620Y0078652D01*
X0294666Y0078706D01*
X0294715Y0078757D01*
X0294766Y0078806D01*
X0294819Y0078852D01*
X0294876Y0078895D01*
X0294934Y0078935D01*
X0294994Y0078972D01*
X0295056Y0079006D01*
X0295120Y0079036D01*
X0295185Y0079063D01*
X0295252Y0079087D01*
X0295320Y0079107D01*
X0295388Y0079123D01*
X0295458Y0079136D01*
X0295528Y0079146D01*
X0295598Y0079151D01*
X0295669Y0079153D01*
X0295732Y0079151D01*
X0295796Y0079145D01*
X0295858Y0079136D01*
X0295920Y0079122D01*
X0295981Y0079105D01*
X0296041Y0079085D01*
X0296100Y0079060D01*
X0296157Y0079033D01*
X0296212Y0079002D01*
X0296265Y0078967D01*
X0296317Y0078930D01*
X0296365Y0078889D01*
X0296411Y0078845D01*
X0296455Y0078799D01*
X0296496Y0078751D01*
X0296533Y0078699D01*
X0296568Y0078646D01*
X0296599Y0078591D01*
X0296626Y0078534D01*
X0296651Y0078475D01*
X0296671Y0078415D01*
X0296688Y0078354D01*
X0296702Y0078292D01*
X0296711Y0078230D01*
X0296717Y0078166D01*
X0296719Y0078103D01*
X0070469Y0076203D02*
X0068135Y0076203D01*
X0069302Y0076203D02*
X0069302Y0080403D01*
X0068135Y0079470D01*
X0065819Y0080403D02*
X0065819Y0076203D01*
X0063485Y0080403D01*
X0063485Y0076203D01*
X0061433Y0076203D02*
X0060499Y0076203D01*
X0060440Y0076205D01*
X0060382Y0076210D01*
X0060324Y0076220D01*
X0060267Y0076232D01*
X0060211Y0076249D01*
X0060156Y0076269D01*
X0060102Y0076292D01*
X0060050Y0076318D01*
X0059999Y0076348D01*
X0059951Y0076381D01*
X0059904Y0076417D01*
X0059860Y0076456D01*
X0059819Y0076497D01*
X0059780Y0076541D01*
X0059744Y0076588D01*
X0059711Y0076636D01*
X0059681Y0076687D01*
X0059655Y0076739D01*
X0059632Y0076793D01*
X0059612Y0076848D01*
X0059595Y0076904D01*
X0059583Y0076961D01*
X0059573Y0077019D01*
X0059568Y0077077D01*
X0059566Y0077136D01*
X0059566Y0079470D01*
X0059568Y0079531D01*
X0059574Y0079592D01*
X0059584Y0079652D01*
X0059598Y0079711D01*
X0059616Y0079770D01*
X0059637Y0079827D01*
X0059662Y0079883D01*
X0059691Y0079936D01*
X0059723Y0079988D01*
X0059759Y0080038D01*
X0059798Y0080085D01*
X0059839Y0080130D01*
X0059884Y0080171D01*
X0059931Y0080210D01*
X0059981Y0080246D01*
X0060032Y0080278D01*
X0060086Y0080307D01*
X0060142Y0080332D01*
X0060199Y0080353D01*
X0060258Y0080371D01*
X0060317Y0080385D01*
X0060377Y0080395D01*
X0060438Y0080401D01*
X0060499Y0080403D01*
X0061433Y0080403D01*
D13*
X0077216Y0078442D02*
X0077216Y0075164D01*
X0077218Y0075093D01*
X0077224Y0075022D01*
X0077233Y0074952D01*
X0077247Y0074882D01*
X0077264Y0074813D01*
X0077285Y0074745D01*
X0077309Y0074679D01*
X0077337Y0074614D01*
X0077369Y0074550D01*
X0077404Y0074488D01*
X0077442Y0074428D01*
X0077483Y0074371D01*
X0077528Y0074315D01*
X0077575Y0074262D01*
X0077625Y0074212D01*
X0077678Y0074165D01*
X0077734Y0074120D01*
X0077791Y0074079D01*
X0077851Y0074041D01*
X0077913Y0074006D01*
X0077977Y0073974D01*
X0078042Y0073946D01*
X0078108Y0073922D01*
X0078176Y0073901D01*
X0078245Y0073884D01*
X0078315Y0073870D01*
X0078385Y0073861D01*
X0078456Y0073855D01*
X0078527Y0073853D01*
X0080494Y0073853D01*
X0080494Y0077131D01*
X0079510Y0077131D01*
X0077216Y0078442D02*
X0077218Y0078513D01*
X0077224Y0078584D01*
X0077233Y0078654D01*
X0077247Y0078724D01*
X0077264Y0078793D01*
X0077285Y0078861D01*
X0077309Y0078927D01*
X0077337Y0078992D01*
X0077369Y0079056D01*
X0077404Y0079118D01*
X0077442Y0079178D01*
X0077483Y0079235D01*
X0077528Y0079291D01*
X0077575Y0079344D01*
X0077625Y0079394D01*
X0077678Y0079441D01*
X0077734Y0079486D01*
X0077791Y0079527D01*
X0077851Y0079565D01*
X0077913Y0079600D01*
X0077977Y0079632D01*
X0078042Y0079660D01*
X0078108Y0079684D01*
X0078176Y0079705D01*
X0078245Y0079722D01*
X0078315Y0079736D01*
X0078385Y0079745D01*
X0078456Y0079751D01*
X0078527Y0079753D01*
X0080494Y0079753D01*
X0083780Y0079753D02*
X0087058Y0073853D01*
X0087058Y0079753D01*
X0083780Y0079753D02*
X0083780Y0073853D01*
X0090345Y0073853D02*
X0091983Y0073853D01*
X0090345Y0073853D02*
X0090345Y0079753D01*
X0091983Y0079753D01*
X0092061Y0079751D01*
X0092139Y0079746D01*
X0092216Y0079736D01*
X0092293Y0079723D01*
X0092369Y0079707D01*
X0092445Y0079687D01*
X0092519Y0079663D01*
X0092592Y0079636D01*
X0092664Y0079605D01*
X0092734Y0079571D01*
X0092803Y0079533D01*
X0092869Y0079493D01*
X0092934Y0079449D01*
X0092996Y0079402D01*
X0093056Y0079353D01*
X0093114Y0079300D01*
X0093169Y0079245D01*
X0093222Y0079187D01*
X0093271Y0079127D01*
X0093318Y0079065D01*
X0093362Y0079000D01*
X0093402Y0078934D01*
X0093440Y0078865D01*
X0093474Y0078795D01*
X0093505Y0078723D01*
X0093532Y0078650D01*
X0093556Y0078576D01*
X0093576Y0078500D01*
X0093592Y0078424D01*
X0093605Y0078347D01*
X0093615Y0078270D01*
X0093620Y0078192D01*
X0093622Y0078114D01*
X0093622Y0075492D01*
X0093620Y0075414D01*
X0093615Y0075336D01*
X0093605Y0075259D01*
X0093592Y0075182D01*
X0093576Y0075106D01*
X0093556Y0075030D01*
X0093532Y0074956D01*
X0093505Y0074883D01*
X0093474Y0074811D01*
X0093440Y0074741D01*
X0093402Y0074673D01*
X0093362Y0074606D01*
X0093318Y0074541D01*
X0093271Y0074479D01*
X0093222Y0074419D01*
X0093169Y0074361D01*
X0093114Y0074306D01*
X0093056Y0074253D01*
X0092996Y0074204D01*
X0092934Y0074157D01*
X0092869Y0074113D01*
X0092803Y0074073D01*
X0092734Y0074035D01*
X0092664Y0074001D01*
X0092592Y0073970D01*
X0092519Y0073943D01*
X0092445Y0073919D01*
X0092369Y0073899D01*
X0092293Y0073883D01*
X0092216Y0073870D01*
X0092139Y0073860D01*
X0092061Y0073855D01*
X0091983Y0073853D01*
X0153466Y0057253D02*
X0154777Y0057253D01*
X0154121Y0057253D02*
X0154121Y0051353D01*
X0153466Y0051353D02*
X0154777Y0051353D01*
X0157382Y0052664D02*
X0157382Y0055942D01*
X0157384Y0056013D01*
X0157390Y0056084D01*
X0157399Y0056154D01*
X0157413Y0056224D01*
X0157430Y0056293D01*
X0157451Y0056361D01*
X0157475Y0056427D01*
X0157503Y0056492D01*
X0157535Y0056556D01*
X0157570Y0056618D01*
X0157608Y0056678D01*
X0157649Y0056735D01*
X0157694Y0056791D01*
X0157741Y0056844D01*
X0157791Y0056894D01*
X0157844Y0056941D01*
X0157900Y0056986D01*
X0157957Y0057027D01*
X0158017Y0057065D01*
X0158079Y0057100D01*
X0158143Y0057132D01*
X0158208Y0057160D01*
X0158274Y0057184D01*
X0158342Y0057205D01*
X0158411Y0057222D01*
X0158481Y0057236D01*
X0158551Y0057245D01*
X0158622Y0057251D01*
X0158693Y0057253D01*
X0160005Y0057253D01*
X0162534Y0055942D02*
X0164173Y0057253D01*
X0164173Y0051353D01*
X0162534Y0051353D02*
X0165812Y0051353D01*
X0170966Y0052664D02*
X0170966Y0053975D01*
X0170968Y0054046D01*
X0170974Y0054117D01*
X0170983Y0054187D01*
X0170997Y0054257D01*
X0171014Y0054326D01*
X0171035Y0054394D01*
X0171059Y0054460D01*
X0171087Y0054525D01*
X0171119Y0054589D01*
X0171154Y0054651D01*
X0171192Y0054711D01*
X0171233Y0054768D01*
X0171278Y0054824D01*
X0171325Y0054877D01*
X0171375Y0054927D01*
X0171428Y0054974D01*
X0171484Y0055019D01*
X0171541Y0055060D01*
X0171601Y0055098D01*
X0171663Y0055133D01*
X0171727Y0055165D01*
X0171792Y0055193D01*
X0171858Y0055217D01*
X0171926Y0055238D01*
X0171995Y0055255D01*
X0172065Y0055269D01*
X0172135Y0055278D01*
X0172206Y0055284D01*
X0172277Y0055286D01*
X0172348Y0055284D01*
X0172419Y0055278D01*
X0172489Y0055269D01*
X0172559Y0055255D01*
X0172628Y0055238D01*
X0172696Y0055217D01*
X0172762Y0055193D01*
X0172827Y0055165D01*
X0172891Y0055133D01*
X0172953Y0055098D01*
X0173013Y0055060D01*
X0173070Y0055019D01*
X0173126Y0054974D01*
X0173179Y0054927D01*
X0173229Y0054877D01*
X0173276Y0054824D01*
X0173321Y0054768D01*
X0173362Y0054711D01*
X0173400Y0054651D01*
X0173435Y0054589D01*
X0173467Y0054525D01*
X0173495Y0054460D01*
X0173519Y0054394D01*
X0173540Y0054326D01*
X0173557Y0054257D01*
X0173571Y0054187D01*
X0173580Y0054117D01*
X0173586Y0054046D01*
X0173588Y0053975D01*
X0173588Y0052664D01*
X0173586Y0052593D01*
X0173580Y0052522D01*
X0173571Y0052452D01*
X0173557Y0052382D01*
X0173540Y0052313D01*
X0173519Y0052245D01*
X0173495Y0052179D01*
X0173467Y0052114D01*
X0173435Y0052050D01*
X0173400Y0051988D01*
X0173362Y0051928D01*
X0173321Y0051871D01*
X0173276Y0051815D01*
X0173229Y0051762D01*
X0173179Y0051712D01*
X0173126Y0051665D01*
X0173070Y0051620D01*
X0173013Y0051579D01*
X0172953Y0051541D01*
X0172891Y0051506D01*
X0172827Y0051474D01*
X0172762Y0051446D01*
X0172696Y0051422D01*
X0172628Y0051401D01*
X0172559Y0051384D01*
X0172489Y0051370D01*
X0172419Y0051361D01*
X0172348Y0051355D01*
X0172277Y0051353D01*
X0172206Y0051355D01*
X0172135Y0051361D01*
X0172065Y0051370D01*
X0171995Y0051384D01*
X0171926Y0051401D01*
X0171858Y0051422D01*
X0171792Y0051446D01*
X0171727Y0051474D01*
X0171663Y0051506D01*
X0171601Y0051541D01*
X0171541Y0051579D01*
X0171484Y0051620D01*
X0171428Y0051665D01*
X0171375Y0051712D01*
X0171325Y0051762D01*
X0171278Y0051815D01*
X0171233Y0051871D01*
X0171192Y0051928D01*
X0171154Y0051988D01*
X0171119Y0052050D01*
X0171087Y0052114D01*
X0171059Y0052179D01*
X0171035Y0052245D01*
X0171014Y0052313D01*
X0170997Y0052382D01*
X0170983Y0052452D01*
X0170974Y0052522D01*
X0170968Y0052593D01*
X0170966Y0052664D01*
X0176555Y0051353D02*
X0176555Y0055286D01*
X0178522Y0055286D01*
X0178522Y0054631D01*
X0183466Y0057253D02*
X0184777Y0057253D01*
X0184121Y0057253D02*
X0184121Y0051353D01*
X0183466Y0051353D02*
X0184777Y0051353D01*
X0187382Y0052664D02*
X0187382Y0055942D01*
X0187384Y0056013D01*
X0187390Y0056084D01*
X0187399Y0056154D01*
X0187413Y0056224D01*
X0187430Y0056293D01*
X0187451Y0056361D01*
X0187475Y0056427D01*
X0187503Y0056492D01*
X0187535Y0056556D01*
X0187570Y0056618D01*
X0187608Y0056678D01*
X0187649Y0056735D01*
X0187694Y0056791D01*
X0187741Y0056844D01*
X0187791Y0056894D01*
X0187844Y0056941D01*
X0187900Y0056986D01*
X0187957Y0057027D01*
X0188017Y0057065D01*
X0188079Y0057100D01*
X0188143Y0057132D01*
X0188208Y0057160D01*
X0188274Y0057184D01*
X0188342Y0057205D01*
X0188411Y0057222D01*
X0188481Y0057236D01*
X0188551Y0057245D01*
X0188622Y0057251D01*
X0188693Y0057253D01*
X0190005Y0057253D01*
X0195320Y0054631D02*
X0195374Y0054684D01*
X0195425Y0054740D01*
X0195473Y0054798D01*
X0195518Y0054859D01*
X0195560Y0054921D01*
X0195599Y0054986D01*
X0195636Y0055052D01*
X0195669Y0055120D01*
X0195698Y0055189D01*
X0195725Y0055260D01*
X0195748Y0055331D01*
X0195767Y0055404D01*
X0195783Y0055478D01*
X0195796Y0055552D01*
X0195805Y0055627D01*
X0195810Y0055703D01*
X0195812Y0055778D01*
X0195320Y0054631D02*
X0192534Y0051353D01*
X0195812Y0051353D01*
X0192534Y0055942D02*
X0192562Y0056022D01*
X0192594Y0056101D01*
X0192629Y0056179D01*
X0192668Y0056255D01*
X0192709Y0056329D01*
X0192755Y0056401D01*
X0192803Y0056471D01*
X0192855Y0056538D01*
X0192909Y0056604D01*
X0192966Y0056667D01*
X0193027Y0056727D01*
X0193089Y0056784D01*
X0193155Y0056839D01*
X0193222Y0056891D01*
X0193292Y0056939D01*
X0193364Y0056984D01*
X0193438Y0057026D01*
X0193514Y0057065D01*
X0193592Y0057100D01*
X0193671Y0057132D01*
X0193751Y0057160D01*
X0193832Y0057185D01*
X0193915Y0057205D01*
X0193998Y0057222D01*
X0194082Y0057236D01*
X0194167Y0057245D01*
X0194252Y0057251D01*
X0194337Y0057253D01*
X0194412Y0057251D01*
X0194486Y0057245D01*
X0194560Y0057236D01*
X0194634Y0057223D01*
X0194707Y0057206D01*
X0194779Y0057185D01*
X0194849Y0057161D01*
X0194919Y0057133D01*
X0194987Y0057102D01*
X0195053Y0057068D01*
X0195117Y0057030D01*
X0195180Y0056989D01*
X0195240Y0056944D01*
X0195298Y0056897D01*
X0195353Y0056847D01*
X0195406Y0056794D01*
X0195456Y0056739D01*
X0195503Y0056681D01*
X0195548Y0056621D01*
X0195589Y0056558D01*
X0195627Y0056494D01*
X0195661Y0056428D01*
X0195692Y0056360D01*
X0195720Y0056290D01*
X0195744Y0056220D01*
X0195765Y0056148D01*
X0195782Y0056075D01*
X0195795Y0056001D01*
X0195804Y0055927D01*
X0195810Y0055853D01*
X0195812Y0055778D01*
X0190005Y0051353D02*
X0188693Y0051353D01*
X0188622Y0051355D01*
X0188551Y0051361D01*
X0188481Y0051370D01*
X0188411Y0051384D01*
X0188342Y0051401D01*
X0188274Y0051422D01*
X0188208Y0051446D01*
X0188143Y0051474D01*
X0188079Y0051506D01*
X0188017Y0051541D01*
X0187957Y0051579D01*
X0187900Y0051620D01*
X0187844Y0051665D01*
X0187791Y0051712D01*
X0187741Y0051762D01*
X0187694Y0051815D01*
X0187649Y0051871D01*
X0187608Y0051928D01*
X0187570Y0051988D01*
X0187535Y0052050D01*
X0187503Y0052114D01*
X0187475Y0052179D01*
X0187451Y0052245D01*
X0187430Y0052313D01*
X0187413Y0052382D01*
X0187399Y0052452D01*
X0187390Y0052522D01*
X0187384Y0052593D01*
X0187382Y0052664D01*
X0160005Y0051353D02*
X0158693Y0051353D01*
X0158622Y0051355D01*
X0158551Y0051361D01*
X0158481Y0051370D01*
X0158411Y0051384D01*
X0158342Y0051401D01*
X0158274Y0051422D01*
X0158208Y0051446D01*
X0158143Y0051474D01*
X0158079Y0051506D01*
X0158017Y0051541D01*
X0157957Y0051579D01*
X0157900Y0051620D01*
X0157844Y0051665D01*
X0157791Y0051712D01*
X0157741Y0051762D01*
X0157694Y0051815D01*
X0157649Y0051871D01*
X0157608Y0051928D01*
X0157570Y0051988D01*
X0157535Y0052050D01*
X0157503Y0052114D01*
X0157475Y0052179D01*
X0157451Y0052245D01*
X0157430Y0052313D01*
X0157413Y0052382D01*
X0157399Y0052452D01*
X0157390Y0052522D01*
X0157384Y0052593D01*
X0157382Y0052664D01*
X0250966Y0075164D02*
X0250966Y0078442D01*
X0250968Y0078513D01*
X0250974Y0078584D01*
X0250983Y0078654D01*
X0250997Y0078724D01*
X0251014Y0078793D01*
X0251035Y0078861D01*
X0251059Y0078927D01*
X0251087Y0078992D01*
X0251119Y0079056D01*
X0251154Y0079118D01*
X0251192Y0079178D01*
X0251233Y0079235D01*
X0251278Y0079291D01*
X0251325Y0079344D01*
X0251375Y0079394D01*
X0251428Y0079441D01*
X0251484Y0079486D01*
X0251541Y0079527D01*
X0251601Y0079565D01*
X0251663Y0079600D01*
X0251727Y0079632D01*
X0251792Y0079660D01*
X0251858Y0079684D01*
X0251926Y0079705D01*
X0251995Y0079722D01*
X0252065Y0079736D01*
X0252135Y0079745D01*
X0252206Y0079751D01*
X0252277Y0079753D01*
X0254244Y0079753D01*
X0257530Y0079753D02*
X0260808Y0073853D01*
X0260808Y0079753D01*
X0257530Y0079753D02*
X0257530Y0073853D01*
X0254244Y0073853D02*
X0254244Y0077131D01*
X0253260Y0077131D01*
X0250966Y0075164D02*
X0250968Y0075093D01*
X0250974Y0075022D01*
X0250983Y0074952D01*
X0250997Y0074882D01*
X0251014Y0074813D01*
X0251035Y0074745D01*
X0251059Y0074679D01*
X0251087Y0074614D01*
X0251119Y0074550D01*
X0251154Y0074488D01*
X0251192Y0074428D01*
X0251233Y0074371D01*
X0251278Y0074315D01*
X0251325Y0074262D01*
X0251375Y0074212D01*
X0251428Y0074165D01*
X0251484Y0074120D01*
X0251541Y0074079D01*
X0251601Y0074041D01*
X0251663Y0074006D01*
X0251727Y0073974D01*
X0251792Y0073946D01*
X0251858Y0073922D01*
X0251926Y0073901D01*
X0251995Y0073884D01*
X0252065Y0073870D01*
X0252135Y0073861D01*
X0252206Y0073855D01*
X0252277Y0073853D01*
X0254244Y0073853D01*
X0264095Y0073853D02*
X0264095Y0079753D01*
X0265733Y0079753D01*
X0265811Y0079751D01*
X0265889Y0079746D01*
X0265966Y0079736D01*
X0266043Y0079723D01*
X0266119Y0079707D01*
X0266195Y0079687D01*
X0266269Y0079663D01*
X0266342Y0079636D01*
X0266414Y0079605D01*
X0266484Y0079571D01*
X0266553Y0079533D01*
X0266619Y0079493D01*
X0266684Y0079449D01*
X0266746Y0079402D01*
X0266806Y0079353D01*
X0266864Y0079300D01*
X0266919Y0079245D01*
X0266972Y0079187D01*
X0267021Y0079127D01*
X0267068Y0079065D01*
X0267112Y0079000D01*
X0267152Y0078934D01*
X0267190Y0078865D01*
X0267224Y0078795D01*
X0267255Y0078723D01*
X0267282Y0078650D01*
X0267306Y0078576D01*
X0267326Y0078500D01*
X0267342Y0078424D01*
X0267355Y0078347D01*
X0267365Y0078270D01*
X0267370Y0078192D01*
X0267372Y0078114D01*
X0267372Y0075492D01*
X0267370Y0075414D01*
X0267365Y0075336D01*
X0267355Y0075259D01*
X0267342Y0075182D01*
X0267326Y0075106D01*
X0267306Y0075030D01*
X0267282Y0074956D01*
X0267255Y0074883D01*
X0267224Y0074811D01*
X0267190Y0074741D01*
X0267152Y0074673D01*
X0267112Y0074606D01*
X0267068Y0074541D01*
X0267021Y0074479D01*
X0266972Y0074419D01*
X0266919Y0074361D01*
X0266864Y0074306D01*
X0266806Y0074253D01*
X0266746Y0074204D01*
X0266684Y0074157D01*
X0266619Y0074113D01*
X0266553Y0074073D01*
X0266484Y0074035D01*
X0266414Y0074001D01*
X0266342Y0073970D01*
X0266269Y0073943D01*
X0266195Y0073919D01*
X0266119Y0073899D01*
X0266043Y0073883D01*
X0265966Y0073870D01*
X0265889Y0073860D01*
X0265811Y0073855D01*
X0265733Y0073853D01*
X0264095Y0073853D01*
X0267413Y0160103D02*
X0267413Y0166003D01*
X0265774Y0166003D02*
X0269052Y0166003D01*
X0271848Y0166003D02*
X0273487Y0166003D01*
X0273566Y0166001D01*
X0273645Y0165995D01*
X0273724Y0165986D01*
X0273802Y0165972D01*
X0273879Y0165955D01*
X0273956Y0165935D01*
X0274031Y0165910D01*
X0274105Y0165882D01*
X0274178Y0165850D01*
X0274249Y0165815D01*
X0274318Y0165777D01*
X0274385Y0165735D01*
X0274450Y0165690D01*
X0274513Y0165642D01*
X0274574Y0165591D01*
X0274632Y0165537D01*
X0274687Y0165480D01*
X0274740Y0165421D01*
X0274789Y0165359D01*
X0274836Y0165295D01*
X0274879Y0165229D01*
X0274919Y0165161D01*
X0274956Y0165090D01*
X0274990Y0165019D01*
X0275019Y0164945D01*
X0275046Y0164870D01*
X0275068Y0164795D01*
X0275087Y0164718D01*
X0275103Y0164640D01*
X0275114Y0164562D01*
X0275122Y0164483D01*
X0275126Y0164404D01*
X0275126Y0164324D01*
X0275122Y0164245D01*
X0275114Y0164166D01*
X0275103Y0164088D01*
X0275087Y0164010D01*
X0275068Y0163933D01*
X0275046Y0163858D01*
X0275019Y0163783D01*
X0274990Y0163709D01*
X0274956Y0163638D01*
X0274919Y0163567D01*
X0274879Y0163499D01*
X0274836Y0163433D01*
X0274789Y0163369D01*
X0274740Y0163307D01*
X0274687Y0163248D01*
X0274632Y0163191D01*
X0274574Y0163137D01*
X0274513Y0163086D01*
X0274450Y0163038D01*
X0274385Y0162993D01*
X0274318Y0162951D01*
X0274249Y0162913D01*
X0274178Y0162878D01*
X0274105Y0162846D01*
X0274031Y0162818D01*
X0273956Y0162793D01*
X0273879Y0162773D01*
X0273802Y0162756D01*
X0273724Y0162742D01*
X0273645Y0162733D01*
X0273566Y0162727D01*
X0273487Y0162725D01*
X0271848Y0162725D01*
X0271848Y0160103D02*
X0271848Y0166003D01*
X0277877Y0166003D02*
X0277877Y0161742D01*
X0277879Y0161663D01*
X0277885Y0161584D01*
X0277894Y0161505D01*
X0277908Y0161427D01*
X0277925Y0161350D01*
X0277945Y0161273D01*
X0277970Y0161198D01*
X0277998Y0161124D01*
X0278030Y0161051D01*
X0278065Y0160980D01*
X0278103Y0160911D01*
X0278145Y0160844D01*
X0278190Y0160779D01*
X0278238Y0160716D01*
X0278289Y0160655D01*
X0278343Y0160597D01*
X0278400Y0160542D01*
X0278459Y0160489D01*
X0278521Y0160440D01*
X0278585Y0160393D01*
X0278651Y0160350D01*
X0278719Y0160310D01*
X0278790Y0160273D01*
X0278861Y0160239D01*
X0278935Y0160210D01*
X0279010Y0160183D01*
X0279085Y0160161D01*
X0279162Y0160142D01*
X0279240Y0160126D01*
X0279318Y0160115D01*
X0279397Y0160107D01*
X0279476Y0160103D01*
X0279556Y0160103D01*
X0279635Y0160107D01*
X0279714Y0160115D01*
X0279792Y0160126D01*
X0279870Y0160142D01*
X0279947Y0160161D01*
X0280022Y0160183D01*
X0280097Y0160210D01*
X0280171Y0160239D01*
X0280242Y0160273D01*
X0280313Y0160310D01*
X0280381Y0160350D01*
X0280447Y0160393D01*
X0280511Y0160440D01*
X0280573Y0160489D01*
X0280632Y0160542D01*
X0280689Y0160597D01*
X0280743Y0160655D01*
X0280794Y0160716D01*
X0280842Y0160779D01*
X0280887Y0160844D01*
X0280929Y0160911D01*
X0280967Y0160980D01*
X0281002Y0161051D01*
X0281034Y0161124D01*
X0281062Y0161198D01*
X0281087Y0161273D01*
X0281107Y0161350D01*
X0281124Y0161427D01*
X0281138Y0161505D01*
X0281147Y0161584D01*
X0281153Y0161663D01*
X0281155Y0161742D01*
X0281155Y0166003D01*
X0283826Y0166003D02*
X0287104Y0166003D01*
X0285465Y0166003D02*
X0285465Y0160103D01*
X0263103Y0161742D02*
X0263103Y0166003D01*
X0259825Y0166003D02*
X0259825Y0161742D01*
X0259827Y0161663D01*
X0259833Y0161584D01*
X0259842Y0161505D01*
X0259856Y0161427D01*
X0259873Y0161350D01*
X0259893Y0161273D01*
X0259918Y0161198D01*
X0259946Y0161124D01*
X0259978Y0161051D01*
X0260013Y0160980D01*
X0260051Y0160911D01*
X0260093Y0160844D01*
X0260138Y0160779D01*
X0260186Y0160716D01*
X0260237Y0160655D01*
X0260291Y0160597D01*
X0260348Y0160542D01*
X0260407Y0160489D01*
X0260469Y0160440D01*
X0260533Y0160393D01*
X0260599Y0160350D01*
X0260667Y0160310D01*
X0260738Y0160273D01*
X0260809Y0160239D01*
X0260883Y0160210D01*
X0260958Y0160183D01*
X0261033Y0160161D01*
X0261110Y0160142D01*
X0261188Y0160126D01*
X0261266Y0160115D01*
X0261345Y0160107D01*
X0261424Y0160103D01*
X0261504Y0160103D01*
X0261583Y0160107D01*
X0261662Y0160115D01*
X0261740Y0160126D01*
X0261818Y0160142D01*
X0261895Y0160161D01*
X0261970Y0160183D01*
X0262045Y0160210D01*
X0262119Y0160239D01*
X0262190Y0160273D01*
X0262261Y0160310D01*
X0262329Y0160350D01*
X0262395Y0160393D01*
X0262459Y0160440D01*
X0262521Y0160489D01*
X0262580Y0160542D01*
X0262637Y0160597D01*
X0262691Y0160655D01*
X0262742Y0160716D01*
X0262790Y0160779D01*
X0262835Y0160844D01*
X0262877Y0160911D01*
X0262915Y0160980D01*
X0262950Y0161051D01*
X0262982Y0161124D01*
X0263010Y0161198D01*
X0263035Y0161273D01*
X0263055Y0161350D01*
X0263072Y0161427D01*
X0263086Y0161505D01*
X0263095Y0161584D01*
X0263101Y0161663D01*
X0263103Y0161742D01*
X0256744Y0161742D02*
X0256744Y0164364D01*
X0256742Y0164443D01*
X0256736Y0164522D01*
X0256727Y0164601D01*
X0256713Y0164679D01*
X0256696Y0164756D01*
X0256676Y0164833D01*
X0256651Y0164908D01*
X0256623Y0164982D01*
X0256591Y0165055D01*
X0256556Y0165126D01*
X0256518Y0165195D01*
X0256476Y0165262D01*
X0256431Y0165327D01*
X0256383Y0165390D01*
X0256332Y0165451D01*
X0256278Y0165509D01*
X0256221Y0165564D01*
X0256162Y0165617D01*
X0256100Y0165666D01*
X0256036Y0165713D01*
X0255970Y0165756D01*
X0255902Y0165796D01*
X0255831Y0165833D01*
X0255760Y0165867D01*
X0255686Y0165896D01*
X0255611Y0165923D01*
X0255536Y0165945D01*
X0255459Y0165964D01*
X0255381Y0165980D01*
X0255303Y0165991D01*
X0255224Y0165999D01*
X0255145Y0166003D01*
X0255065Y0166003D01*
X0254986Y0165999D01*
X0254907Y0165991D01*
X0254829Y0165980D01*
X0254751Y0165964D01*
X0254674Y0165945D01*
X0254599Y0165923D01*
X0254524Y0165896D01*
X0254450Y0165867D01*
X0254379Y0165833D01*
X0254308Y0165796D01*
X0254240Y0165756D01*
X0254174Y0165713D01*
X0254110Y0165666D01*
X0254048Y0165617D01*
X0253989Y0165564D01*
X0253932Y0165509D01*
X0253878Y0165451D01*
X0253827Y0165390D01*
X0253779Y0165327D01*
X0253734Y0165262D01*
X0253692Y0165195D01*
X0253654Y0165126D01*
X0253619Y0165055D01*
X0253587Y0164982D01*
X0253559Y0164908D01*
X0253534Y0164833D01*
X0253514Y0164756D01*
X0253497Y0164679D01*
X0253483Y0164601D01*
X0253474Y0164522D01*
X0253468Y0164443D01*
X0253466Y0164364D01*
X0253466Y0161742D01*
X0253468Y0161663D01*
X0253474Y0161584D01*
X0253483Y0161505D01*
X0253497Y0161427D01*
X0253514Y0161350D01*
X0253534Y0161273D01*
X0253559Y0161198D01*
X0253587Y0161124D01*
X0253619Y0161051D01*
X0253654Y0160980D01*
X0253692Y0160911D01*
X0253734Y0160844D01*
X0253779Y0160779D01*
X0253827Y0160716D01*
X0253878Y0160655D01*
X0253932Y0160597D01*
X0253989Y0160542D01*
X0254048Y0160489D01*
X0254110Y0160440D01*
X0254174Y0160393D01*
X0254240Y0160350D01*
X0254308Y0160310D01*
X0254379Y0160273D01*
X0254450Y0160239D01*
X0254524Y0160210D01*
X0254599Y0160183D01*
X0254674Y0160161D01*
X0254751Y0160142D01*
X0254829Y0160126D01*
X0254907Y0160115D01*
X0254986Y0160107D01*
X0255065Y0160103D01*
X0255145Y0160103D01*
X0255224Y0160107D01*
X0255303Y0160115D01*
X0255381Y0160126D01*
X0255459Y0160142D01*
X0255536Y0160161D01*
X0255611Y0160183D01*
X0255686Y0160210D01*
X0255760Y0160239D01*
X0255831Y0160273D01*
X0255902Y0160310D01*
X0255970Y0160350D01*
X0256036Y0160393D01*
X0256100Y0160440D01*
X0256162Y0160489D01*
X0256221Y0160542D01*
X0256278Y0160597D01*
X0256332Y0160655D01*
X0256383Y0160716D01*
X0256431Y0160779D01*
X0256476Y0160844D01*
X0256518Y0160911D01*
X0256556Y0160980D01*
X0256591Y0161051D01*
X0256623Y0161124D01*
X0256651Y0161198D01*
X0256676Y0161273D01*
X0256696Y0161350D01*
X0256713Y0161427D01*
X0256727Y0161505D01*
X0256736Y0161584D01*
X0256742Y0161663D01*
X0256744Y0161742D01*
X0100806Y0142253D02*
X0097528Y0142253D01*
X0099167Y0142253D02*
X0099167Y0136353D01*
X0094857Y0137992D02*
X0094857Y0142253D01*
X0091579Y0142253D02*
X0091579Y0137992D01*
X0091581Y0137913D01*
X0091587Y0137834D01*
X0091596Y0137755D01*
X0091610Y0137677D01*
X0091627Y0137600D01*
X0091647Y0137523D01*
X0091672Y0137448D01*
X0091700Y0137374D01*
X0091732Y0137301D01*
X0091767Y0137230D01*
X0091805Y0137161D01*
X0091847Y0137094D01*
X0091892Y0137029D01*
X0091940Y0136966D01*
X0091991Y0136905D01*
X0092045Y0136847D01*
X0092102Y0136792D01*
X0092161Y0136739D01*
X0092223Y0136690D01*
X0092287Y0136643D01*
X0092353Y0136600D01*
X0092421Y0136560D01*
X0092492Y0136523D01*
X0092563Y0136489D01*
X0092637Y0136460D01*
X0092712Y0136433D01*
X0092787Y0136411D01*
X0092864Y0136392D01*
X0092942Y0136376D01*
X0093020Y0136365D01*
X0093099Y0136357D01*
X0093178Y0136353D01*
X0093258Y0136353D01*
X0093337Y0136357D01*
X0093416Y0136365D01*
X0093494Y0136376D01*
X0093572Y0136392D01*
X0093649Y0136411D01*
X0093724Y0136433D01*
X0093799Y0136460D01*
X0093873Y0136489D01*
X0093944Y0136523D01*
X0094015Y0136560D01*
X0094083Y0136600D01*
X0094149Y0136643D01*
X0094213Y0136690D01*
X0094275Y0136739D01*
X0094334Y0136792D01*
X0094391Y0136847D01*
X0094445Y0136905D01*
X0094496Y0136966D01*
X0094544Y0137029D01*
X0094589Y0137094D01*
X0094631Y0137161D01*
X0094669Y0137230D01*
X0094704Y0137301D01*
X0094736Y0137374D01*
X0094764Y0137448D01*
X0094789Y0137523D01*
X0094809Y0137600D01*
X0094826Y0137677D01*
X0094840Y0137755D01*
X0094849Y0137834D01*
X0094855Y0137913D01*
X0094857Y0137992D01*
X0087189Y0138975D02*
X0085550Y0138975D01*
X0087189Y0138975D02*
X0087268Y0138977D01*
X0087347Y0138983D01*
X0087426Y0138992D01*
X0087504Y0139006D01*
X0087581Y0139023D01*
X0087658Y0139043D01*
X0087733Y0139068D01*
X0087807Y0139096D01*
X0087880Y0139128D01*
X0087951Y0139163D01*
X0088020Y0139201D01*
X0088087Y0139243D01*
X0088152Y0139288D01*
X0088215Y0139336D01*
X0088276Y0139387D01*
X0088334Y0139441D01*
X0088389Y0139498D01*
X0088442Y0139557D01*
X0088491Y0139619D01*
X0088538Y0139683D01*
X0088581Y0139749D01*
X0088621Y0139817D01*
X0088658Y0139888D01*
X0088692Y0139959D01*
X0088721Y0140033D01*
X0088748Y0140108D01*
X0088770Y0140183D01*
X0088789Y0140260D01*
X0088805Y0140338D01*
X0088816Y0140416D01*
X0088824Y0140495D01*
X0088828Y0140574D01*
X0088828Y0140654D01*
X0088824Y0140733D01*
X0088816Y0140812D01*
X0088805Y0140890D01*
X0088789Y0140968D01*
X0088770Y0141045D01*
X0088748Y0141120D01*
X0088721Y0141195D01*
X0088692Y0141269D01*
X0088658Y0141340D01*
X0088621Y0141411D01*
X0088581Y0141479D01*
X0088538Y0141545D01*
X0088491Y0141609D01*
X0088442Y0141671D01*
X0088389Y0141730D01*
X0088334Y0141787D01*
X0088276Y0141841D01*
X0088215Y0141892D01*
X0088152Y0141940D01*
X0088087Y0141985D01*
X0088020Y0142027D01*
X0087951Y0142065D01*
X0087880Y0142100D01*
X0087807Y0142132D01*
X0087733Y0142160D01*
X0087658Y0142185D01*
X0087581Y0142205D01*
X0087504Y0142222D01*
X0087426Y0142236D01*
X0087347Y0142245D01*
X0087268Y0142251D01*
X0087189Y0142253D01*
X0085550Y0142253D01*
X0085550Y0136353D01*
X0082139Y0136353D02*
X0082139Y0142253D01*
X0078861Y0142253D02*
X0082139Y0136353D01*
X0078861Y0136353D02*
X0078861Y0142253D01*
X0076027Y0142253D02*
X0074716Y0142253D01*
X0075371Y0142253D02*
X0075371Y0136353D01*
X0074716Y0136353D02*
X0076027Y0136353D01*
D14*
X0146416Y0188303D03*
X0229416Y0188303D03*
D15*
X0202375Y0194661D02*
X0202375Y0166945D01*
X0192119Y0166945D01*
X0186213Y0166945D02*
X0175957Y0166945D01*
X0175957Y0194661D01*
X0175957Y0166945D01*
X0202375Y0166945D01*
X0202375Y0194661D01*
X0175957Y0194661D01*
X0182276Y0194661D02*
X0196056Y0194661D01*
X0245987Y0158136D02*
X0253861Y0158136D01*
X0253861Y0080970D01*
X0245987Y0080970D01*
X0245987Y0158136D01*
X0253861Y0158136D02*
X0286144Y0158136D01*
X0286144Y0137860D01*
X0297955Y0137860D01*
X0297955Y0101246D01*
X0286144Y0101246D01*
X0286144Y0080970D01*
X0253861Y0080970D01*
X0286144Y0080970D02*
X0297955Y0080970D01*
X0297955Y0101246D01*
X0286144Y0101246D02*
X0286144Y0137860D01*
X0297955Y0137860D02*
X0297955Y0158136D01*
X0286144Y0158136D01*
X0110455Y0134681D02*
X0110455Y0126610D01*
X0098644Y0126610D01*
X0098644Y0089996D01*
X0110455Y0089996D01*
X0110455Y0081925D01*
X0098644Y0081925D01*
X0098644Y0089996D01*
X0098644Y0081925D02*
X0066361Y0081925D01*
X0066361Y0134681D01*
X0098644Y0134681D01*
X0098644Y0126610D01*
X0098644Y0134681D02*
X0110455Y0134681D01*
X0110455Y0126610D02*
X0110455Y0089996D01*
X0066361Y0081925D02*
X0058487Y0081925D01*
X0058487Y0134681D01*
X0066361Y0134681D01*
X0061823Y0158539D02*
X0061823Y0188067D01*
X0084264Y0188067D01*
X0084264Y0158539D01*
X0061823Y0158539D01*
X0059067Y0158539D01*
X0059067Y0188067D01*
X0061823Y0188067D01*
D16*
X0090717Y0201593D02*
X0091086Y0200803D01*
X0091586Y0200089D01*
X0092202Y0199473D01*
X0092916Y0198973D01*
X0093706Y0198605D01*
X0094548Y0198379D01*
X0095416Y0198303D01*
X0096284Y0198379D01*
X0097126Y0198605D01*
X0097916Y0198973D01*
X0098630Y0199473D01*
X0099246Y0200089D01*
X0099746Y0200803D01*
X0100114Y0201593D01*
X0100340Y0202435D01*
X0100416Y0203303D01*
X0090416Y0203303D01*
X0090492Y0202435D01*
X0090717Y0201593D01*
X0090650Y0201845D02*
X0100182Y0201845D01*
X0100315Y0202343D02*
X0090516Y0202343D01*
X0090456Y0202842D02*
X0100376Y0202842D01*
X0099999Y0201346D02*
X0090833Y0201346D01*
X0091065Y0200848D02*
X0099767Y0200848D01*
X0099428Y0200349D02*
X0091404Y0200349D01*
X0091824Y0199851D02*
X0099007Y0199851D01*
X0098457Y0199352D02*
X0092375Y0199352D01*
X0093172Y0198854D02*
X0097660Y0198854D01*
X0096009Y0198355D02*
X0094823Y0198355D01*
X0090416Y0213303D02*
X0100416Y0213303D01*
X0100340Y0214171D01*
X0100114Y0215013D01*
X0099746Y0215803D01*
X0091086Y0215803D01*
X0090717Y0215013D01*
X0090492Y0214171D01*
X0090416Y0213303D01*
X0090417Y0213310D02*
X0100415Y0213310D01*
X0100372Y0213809D02*
X0090460Y0213809D01*
X0090528Y0214307D02*
X0100303Y0214307D01*
X0100170Y0214806D02*
X0090662Y0214806D01*
X0090853Y0215304D02*
X0099979Y0215304D01*
X0099746Y0215803D02*
X0099246Y0216517D01*
X0098630Y0217133D01*
X0097916Y0217633D01*
X0097126Y0218002D01*
X0096284Y0218227D01*
X0095416Y0218303D01*
X0094548Y0218227D01*
X0093706Y0218002D01*
X0092916Y0217633D01*
X0092202Y0217133D01*
X0091586Y0216517D01*
X0091086Y0215803D01*
X0091435Y0216301D02*
X0099397Y0216301D01*
X0098963Y0216800D02*
X0091869Y0216800D01*
X0092438Y0217298D02*
X0098394Y0217298D01*
X0097565Y0217797D02*
X0093267Y0217797D01*
X0095329Y0218296D02*
X0095503Y0218296D01*
X0179166Y0180803D02*
X0179169Y0181048D01*
X0179178Y0181294D01*
X0179193Y0181539D01*
X0179214Y0181783D01*
X0179241Y0182027D01*
X0179274Y0182270D01*
X0179313Y0182513D01*
X0179358Y0182754D01*
X0179409Y0182994D01*
X0179466Y0183233D01*
X0179528Y0183470D01*
X0179597Y0183706D01*
X0179671Y0183940D01*
X0179751Y0184172D01*
X0179836Y0184402D01*
X0179927Y0184630D01*
X0180024Y0184855D01*
X0180126Y0185079D01*
X0180234Y0185299D01*
X0180347Y0185517D01*
X0180465Y0185732D01*
X0180589Y0185944D01*
X0180717Y0186153D01*
X0180851Y0186359D01*
X0180990Y0186561D01*
X0181134Y0186760D01*
X0181283Y0186955D01*
X0181436Y0187147D01*
X0181594Y0187335D01*
X0181756Y0187519D01*
X0181924Y0187698D01*
X0182095Y0187874D01*
X0182271Y0188045D01*
X0182450Y0188213D01*
X0182634Y0188375D01*
X0182822Y0188533D01*
X0183014Y0188686D01*
X0183209Y0188835D01*
X0183408Y0188979D01*
X0183610Y0189118D01*
X0183816Y0189252D01*
X0184025Y0189380D01*
X0184237Y0189504D01*
X0184452Y0189622D01*
X0184670Y0189735D01*
X0184890Y0189843D01*
X0185114Y0189945D01*
X0185339Y0190042D01*
X0185567Y0190133D01*
X0185797Y0190218D01*
X0186029Y0190298D01*
X0186263Y0190372D01*
X0186499Y0190441D01*
X0186736Y0190503D01*
X0186975Y0190560D01*
X0187215Y0190611D01*
X0187456Y0190656D01*
X0187699Y0190695D01*
X0187942Y0190728D01*
X0188186Y0190755D01*
X0188430Y0190776D01*
X0188675Y0190791D01*
X0188921Y0190800D01*
X0189166Y0190803D01*
X0189411Y0190800D01*
X0189657Y0190791D01*
X0189902Y0190776D01*
X0190146Y0190755D01*
X0190390Y0190728D01*
X0190633Y0190695D01*
X0190876Y0190656D01*
X0191117Y0190611D01*
X0191357Y0190560D01*
X0191596Y0190503D01*
X0191833Y0190441D01*
X0192069Y0190372D01*
X0192303Y0190298D01*
X0192535Y0190218D01*
X0192765Y0190133D01*
X0192993Y0190042D01*
X0193218Y0189945D01*
X0193442Y0189843D01*
X0193662Y0189735D01*
X0193880Y0189622D01*
X0194095Y0189504D01*
X0194307Y0189380D01*
X0194516Y0189252D01*
X0194722Y0189118D01*
X0194924Y0188979D01*
X0195123Y0188835D01*
X0195318Y0188686D01*
X0195510Y0188533D01*
X0195698Y0188375D01*
X0195882Y0188213D01*
X0196061Y0188045D01*
X0196237Y0187874D01*
X0196408Y0187698D01*
X0196576Y0187519D01*
X0196738Y0187335D01*
X0196896Y0187147D01*
X0197049Y0186955D01*
X0197198Y0186760D01*
X0197342Y0186561D01*
X0197481Y0186359D01*
X0197615Y0186153D01*
X0197743Y0185944D01*
X0197867Y0185732D01*
X0197985Y0185517D01*
X0198098Y0185299D01*
X0198206Y0185079D01*
X0198308Y0184855D01*
X0198405Y0184630D01*
X0198496Y0184402D01*
X0198581Y0184172D01*
X0198661Y0183940D01*
X0198735Y0183706D01*
X0198804Y0183470D01*
X0198866Y0183233D01*
X0198923Y0182994D01*
X0198974Y0182754D01*
X0199019Y0182513D01*
X0199058Y0182270D01*
X0199091Y0182027D01*
X0199118Y0181783D01*
X0199139Y0181539D01*
X0199154Y0181294D01*
X0199163Y0181048D01*
X0199166Y0180803D01*
X0199163Y0180558D01*
X0199154Y0180312D01*
X0199139Y0180067D01*
X0199118Y0179823D01*
X0199091Y0179579D01*
X0199058Y0179336D01*
X0199019Y0179093D01*
X0198974Y0178852D01*
X0198923Y0178612D01*
X0198866Y0178373D01*
X0198804Y0178136D01*
X0198735Y0177900D01*
X0198661Y0177666D01*
X0198581Y0177434D01*
X0198496Y0177204D01*
X0198405Y0176976D01*
X0198308Y0176751D01*
X0198206Y0176527D01*
X0198098Y0176307D01*
X0197985Y0176089D01*
X0197867Y0175874D01*
X0197743Y0175662D01*
X0197615Y0175453D01*
X0197481Y0175247D01*
X0197342Y0175045D01*
X0197198Y0174846D01*
X0197049Y0174651D01*
X0196896Y0174459D01*
X0196738Y0174271D01*
X0196576Y0174087D01*
X0196408Y0173908D01*
X0196237Y0173732D01*
X0196061Y0173561D01*
X0195882Y0173393D01*
X0195698Y0173231D01*
X0195510Y0173073D01*
X0195318Y0172920D01*
X0195123Y0172771D01*
X0194924Y0172627D01*
X0194722Y0172488D01*
X0194516Y0172354D01*
X0194307Y0172226D01*
X0194095Y0172102D01*
X0193880Y0171984D01*
X0193662Y0171871D01*
X0193442Y0171763D01*
X0193218Y0171661D01*
X0192993Y0171564D01*
X0192765Y0171473D01*
X0192535Y0171388D01*
X0192303Y0171308D01*
X0192069Y0171234D01*
X0191833Y0171165D01*
X0191596Y0171103D01*
X0191357Y0171046D01*
X0191117Y0170995D01*
X0190876Y0170950D01*
X0190633Y0170911D01*
X0190390Y0170878D01*
X0190146Y0170851D01*
X0189902Y0170830D01*
X0189657Y0170815D01*
X0189411Y0170806D01*
X0189166Y0170803D01*
X0188921Y0170806D01*
X0188675Y0170815D01*
X0188430Y0170830D01*
X0188186Y0170851D01*
X0187942Y0170878D01*
X0187699Y0170911D01*
X0187456Y0170950D01*
X0187215Y0170995D01*
X0186975Y0171046D01*
X0186736Y0171103D01*
X0186499Y0171165D01*
X0186263Y0171234D01*
X0186029Y0171308D01*
X0185797Y0171388D01*
X0185567Y0171473D01*
X0185339Y0171564D01*
X0185114Y0171661D01*
X0184890Y0171763D01*
X0184670Y0171871D01*
X0184452Y0171984D01*
X0184237Y0172102D01*
X0184025Y0172226D01*
X0183816Y0172354D01*
X0183610Y0172488D01*
X0183408Y0172627D01*
X0183209Y0172771D01*
X0183014Y0172920D01*
X0182822Y0173073D01*
X0182634Y0173231D01*
X0182450Y0173393D01*
X0182271Y0173561D01*
X0182095Y0173732D01*
X0181924Y0173908D01*
X0181756Y0174087D01*
X0181594Y0174271D01*
X0181436Y0174459D01*
X0181283Y0174651D01*
X0181134Y0174846D01*
X0180990Y0175045D01*
X0180851Y0175247D01*
X0180717Y0175453D01*
X0180589Y0175662D01*
X0180465Y0175874D01*
X0180347Y0176089D01*
X0180234Y0176307D01*
X0180126Y0176527D01*
X0180024Y0176751D01*
X0179927Y0176976D01*
X0179836Y0177204D01*
X0179751Y0177434D01*
X0179671Y0177666D01*
X0179597Y0177900D01*
X0179528Y0178136D01*
X0179466Y0178373D01*
X0179409Y0178612D01*
X0179358Y0178852D01*
X0179313Y0179093D01*
X0179274Y0179336D01*
X0179241Y0179579D01*
X0179214Y0179823D01*
X0179193Y0180067D01*
X0179178Y0180312D01*
X0179169Y0180558D01*
X0179166Y0180803D01*
D17*
X0179166Y0196157D03*
X0199166Y0196157D03*
X0189166Y0165449D03*
D18*
X0191666Y0173303D02*
X0186666Y0173303D01*
X0186666Y0178303D01*
X0181666Y0178303D01*
X0181666Y0183303D01*
X0186666Y0183303D01*
X0186666Y0188303D01*
X0191666Y0188303D01*
X0191666Y0183303D01*
X0196666Y0183303D01*
X0196666Y0178303D01*
X0191666Y0178303D01*
X0191666Y0173303D01*
D19*
X0193541Y0175803D02*
X0193543Y0175853D01*
X0193549Y0175902D01*
X0193559Y0175951D01*
X0193572Y0175998D01*
X0193590Y0176045D01*
X0193611Y0176090D01*
X0193635Y0176133D01*
X0193663Y0176174D01*
X0193694Y0176213D01*
X0193728Y0176249D01*
X0193765Y0176283D01*
X0193805Y0176313D01*
X0193846Y0176340D01*
X0193890Y0176364D01*
X0193935Y0176384D01*
X0193982Y0176400D01*
X0194030Y0176413D01*
X0194079Y0176422D01*
X0194129Y0176427D01*
X0194178Y0176428D01*
X0194228Y0176425D01*
X0194277Y0176418D01*
X0194326Y0176407D01*
X0194373Y0176393D01*
X0194419Y0176374D01*
X0194464Y0176352D01*
X0194507Y0176327D01*
X0194547Y0176298D01*
X0194585Y0176266D01*
X0194621Y0176232D01*
X0194654Y0176194D01*
X0194683Y0176154D01*
X0194709Y0176112D01*
X0194732Y0176068D01*
X0194751Y0176022D01*
X0194767Y0175975D01*
X0194779Y0175926D01*
X0194787Y0175877D01*
X0194791Y0175828D01*
X0194791Y0175778D01*
X0194787Y0175729D01*
X0194779Y0175680D01*
X0194767Y0175631D01*
X0194751Y0175584D01*
X0194732Y0175538D01*
X0194709Y0175494D01*
X0194683Y0175452D01*
X0194654Y0175412D01*
X0194621Y0175374D01*
X0194585Y0175340D01*
X0194547Y0175308D01*
X0194507Y0175279D01*
X0194464Y0175254D01*
X0194419Y0175232D01*
X0194373Y0175213D01*
X0194326Y0175199D01*
X0194277Y0175188D01*
X0194228Y0175181D01*
X0194178Y0175178D01*
X0194129Y0175179D01*
X0194079Y0175184D01*
X0194030Y0175193D01*
X0193982Y0175206D01*
X0193935Y0175222D01*
X0193890Y0175242D01*
X0193846Y0175266D01*
X0193805Y0175293D01*
X0193765Y0175323D01*
X0193728Y0175357D01*
X0193694Y0175393D01*
X0193663Y0175432D01*
X0193635Y0175473D01*
X0193611Y0175516D01*
X0193590Y0175561D01*
X0193572Y0175608D01*
X0193559Y0175655D01*
X0193549Y0175704D01*
X0193543Y0175753D01*
X0193541Y0175803D01*
D20*
X0100416Y0170803D02*
X0100416Y0160803D01*
X0100416Y0165303D02*
X0100416Y0166303D01*
X0090416Y0166303D02*
X0090416Y0165303D01*
X0090416Y0160803D02*
X0090416Y0170803D01*
D21*
X0097916Y0170803D02*
X0097918Y0170902D01*
X0097924Y0171002D01*
X0097934Y0171101D01*
X0097948Y0171199D01*
X0097965Y0171297D01*
X0097987Y0171394D01*
X0098012Y0171490D01*
X0098041Y0171585D01*
X0098074Y0171679D01*
X0098111Y0171771D01*
X0098151Y0171862D01*
X0098195Y0171951D01*
X0098243Y0172039D01*
X0098294Y0172124D01*
X0098348Y0172207D01*
X0098405Y0172289D01*
X0098466Y0172367D01*
X0098530Y0172444D01*
X0098596Y0172517D01*
X0098666Y0172588D01*
X0098738Y0172656D01*
X0098813Y0172722D01*
X0098891Y0172784D01*
X0098971Y0172843D01*
X0099053Y0172899D01*
X0099137Y0172951D01*
X0099224Y0173000D01*
X0099312Y0173046D01*
X0099402Y0173088D01*
X0099494Y0173127D01*
X0099587Y0173162D01*
X0099681Y0173193D01*
X0099777Y0173220D01*
X0099874Y0173243D01*
X0099971Y0173263D01*
X0100069Y0173279D01*
X0100168Y0173291D01*
X0100267Y0173299D01*
X0100366Y0173303D01*
X0100466Y0173303D01*
X0100565Y0173299D01*
X0100664Y0173291D01*
X0100763Y0173279D01*
X0100861Y0173263D01*
X0100958Y0173243D01*
X0101055Y0173220D01*
X0101151Y0173193D01*
X0101245Y0173162D01*
X0101338Y0173127D01*
X0101430Y0173088D01*
X0101520Y0173046D01*
X0101608Y0173000D01*
X0101695Y0172951D01*
X0101779Y0172899D01*
X0101861Y0172843D01*
X0101941Y0172784D01*
X0102019Y0172722D01*
X0102094Y0172656D01*
X0102166Y0172588D01*
X0102236Y0172517D01*
X0102302Y0172444D01*
X0102366Y0172367D01*
X0102427Y0172289D01*
X0102484Y0172207D01*
X0102538Y0172124D01*
X0102589Y0172039D01*
X0102637Y0171951D01*
X0102681Y0171862D01*
X0102721Y0171771D01*
X0102758Y0171679D01*
X0102791Y0171585D01*
X0102820Y0171490D01*
X0102845Y0171394D01*
X0102867Y0171297D01*
X0102884Y0171199D01*
X0102898Y0171101D01*
X0102908Y0171002D01*
X0102914Y0170902D01*
X0102916Y0170803D01*
X0102914Y0170704D01*
X0102908Y0170604D01*
X0102898Y0170505D01*
X0102884Y0170407D01*
X0102867Y0170309D01*
X0102845Y0170212D01*
X0102820Y0170116D01*
X0102791Y0170021D01*
X0102758Y0169927D01*
X0102721Y0169835D01*
X0102681Y0169744D01*
X0102637Y0169655D01*
X0102589Y0169567D01*
X0102538Y0169482D01*
X0102484Y0169399D01*
X0102427Y0169317D01*
X0102366Y0169239D01*
X0102302Y0169162D01*
X0102236Y0169089D01*
X0102166Y0169018D01*
X0102094Y0168950D01*
X0102019Y0168884D01*
X0101941Y0168822D01*
X0101861Y0168763D01*
X0101779Y0168707D01*
X0101695Y0168655D01*
X0101608Y0168606D01*
X0101520Y0168560D01*
X0101430Y0168518D01*
X0101338Y0168479D01*
X0101245Y0168444D01*
X0101151Y0168413D01*
X0101055Y0168386D01*
X0100958Y0168363D01*
X0100861Y0168343D01*
X0100763Y0168327D01*
X0100664Y0168315D01*
X0100565Y0168307D01*
X0100466Y0168303D01*
X0100366Y0168303D01*
X0100267Y0168307D01*
X0100168Y0168315D01*
X0100069Y0168327D01*
X0099971Y0168343D01*
X0099874Y0168363D01*
X0099777Y0168386D01*
X0099681Y0168413D01*
X0099587Y0168444D01*
X0099494Y0168479D01*
X0099402Y0168518D01*
X0099312Y0168560D01*
X0099224Y0168606D01*
X0099137Y0168655D01*
X0099053Y0168707D01*
X0098971Y0168763D01*
X0098891Y0168822D01*
X0098813Y0168884D01*
X0098738Y0168950D01*
X0098666Y0169018D01*
X0098596Y0169089D01*
X0098530Y0169162D01*
X0098466Y0169239D01*
X0098405Y0169317D01*
X0098348Y0169399D01*
X0098294Y0169482D01*
X0098243Y0169567D01*
X0098195Y0169655D01*
X0098151Y0169744D01*
X0098111Y0169835D01*
X0098074Y0169927D01*
X0098041Y0170021D01*
X0098012Y0170116D01*
X0097987Y0170212D01*
X0097965Y0170309D01*
X0097948Y0170407D01*
X0097934Y0170505D01*
X0097924Y0170604D01*
X0097918Y0170704D01*
X0097916Y0170803D01*
X0087916Y0160803D02*
X0087918Y0160902D01*
X0087924Y0161002D01*
X0087934Y0161101D01*
X0087948Y0161199D01*
X0087965Y0161297D01*
X0087987Y0161394D01*
X0088012Y0161490D01*
X0088041Y0161585D01*
X0088074Y0161679D01*
X0088111Y0161771D01*
X0088151Y0161862D01*
X0088195Y0161951D01*
X0088243Y0162039D01*
X0088294Y0162124D01*
X0088348Y0162207D01*
X0088405Y0162289D01*
X0088466Y0162367D01*
X0088530Y0162444D01*
X0088596Y0162517D01*
X0088666Y0162588D01*
X0088738Y0162656D01*
X0088813Y0162722D01*
X0088891Y0162784D01*
X0088971Y0162843D01*
X0089053Y0162899D01*
X0089137Y0162951D01*
X0089224Y0163000D01*
X0089312Y0163046D01*
X0089402Y0163088D01*
X0089494Y0163127D01*
X0089587Y0163162D01*
X0089681Y0163193D01*
X0089777Y0163220D01*
X0089874Y0163243D01*
X0089971Y0163263D01*
X0090069Y0163279D01*
X0090168Y0163291D01*
X0090267Y0163299D01*
X0090366Y0163303D01*
X0090466Y0163303D01*
X0090565Y0163299D01*
X0090664Y0163291D01*
X0090763Y0163279D01*
X0090861Y0163263D01*
X0090958Y0163243D01*
X0091055Y0163220D01*
X0091151Y0163193D01*
X0091245Y0163162D01*
X0091338Y0163127D01*
X0091430Y0163088D01*
X0091520Y0163046D01*
X0091608Y0163000D01*
X0091695Y0162951D01*
X0091779Y0162899D01*
X0091861Y0162843D01*
X0091941Y0162784D01*
X0092019Y0162722D01*
X0092094Y0162656D01*
X0092166Y0162588D01*
X0092236Y0162517D01*
X0092302Y0162444D01*
X0092366Y0162367D01*
X0092427Y0162289D01*
X0092484Y0162207D01*
X0092538Y0162124D01*
X0092589Y0162039D01*
X0092637Y0161951D01*
X0092681Y0161862D01*
X0092721Y0161771D01*
X0092758Y0161679D01*
X0092791Y0161585D01*
X0092820Y0161490D01*
X0092845Y0161394D01*
X0092867Y0161297D01*
X0092884Y0161199D01*
X0092898Y0161101D01*
X0092908Y0161002D01*
X0092914Y0160902D01*
X0092916Y0160803D01*
X0092914Y0160704D01*
X0092908Y0160604D01*
X0092898Y0160505D01*
X0092884Y0160407D01*
X0092867Y0160309D01*
X0092845Y0160212D01*
X0092820Y0160116D01*
X0092791Y0160021D01*
X0092758Y0159927D01*
X0092721Y0159835D01*
X0092681Y0159744D01*
X0092637Y0159655D01*
X0092589Y0159567D01*
X0092538Y0159482D01*
X0092484Y0159399D01*
X0092427Y0159317D01*
X0092366Y0159239D01*
X0092302Y0159162D01*
X0092236Y0159089D01*
X0092166Y0159018D01*
X0092094Y0158950D01*
X0092019Y0158884D01*
X0091941Y0158822D01*
X0091861Y0158763D01*
X0091779Y0158707D01*
X0091695Y0158655D01*
X0091608Y0158606D01*
X0091520Y0158560D01*
X0091430Y0158518D01*
X0091338Y0158479D01*
X0091245Y0158444D01*
X0091151Y0158413D01*
X0091055Y0158386D01*
X0090958Y0158363D01*
X0090861Y0158343D01*
X0090763Y0158327D01*
X0090664Y0158315D01*
X0090565Y0158307D01*
X0090466Y0158303D01*
X0090366Y0158303D01*
X0090267Y0158307D01*
X0090168Y0158315D01*
X0090069Y0158327D01*
X0089971Y0158343D01*
X0089874Y0158363D01*
X0089777Y0158386D01*
X0089681Y0158413D01*
X0089587Y0158444D01*
X0089494Y0158479D01*
X0089402Y0158518D01*
X0089312Y0158560D01*
X0089224Y0158606D01*
X0089137Y0158655D01*
X0089053Y0158707D01*
X0088971Y0158763D01*
X0088891Y0158822D01*
X0088813Y0158884D01*
X0088738Y0158950D01*
X0088666Y0159018D01*
X0088596Y0159089D01*
X0088530Y0159162D01*
X0088466Y0159239D01*
X0088405Y0159317D01*
X0088348Y0159399D01*
X0088294Y0159482D01*
X0088243Y0159567D01*
X0088195Y0159655D01*
X0088151Y0159744D01*
X0088111Y0159835D01*
X0088074Y0159927D01*
X0088041Y0160021D01*
X0088012Y0160116D01*
X0087987Y0160212D01*
X0087965Y0160309D01*
X0087948Y0160407D01*
X0087934Y0160505D01*
X0087924Y0160604D01*
X0087918Y0160704D01*
X0087916Y0160803D01*
D22*
X0117916Y0159553D02*
X0122416Y0159553D01*
X0122616Y0159553D02*
X0153216Y0159553D01*
X0153416Y0159553D02*
X0157916Y0159553D01*
M02*
