%
M48
M72
T01C0.01378
T02C0.02362
T03C0.03937
T04C0.04000
T05C0.04724
T06C0.05118
T07C0.07087
T08C0.12598
%
T01
X148541Y72949
X162916Y89696
X148541Y98657
X140032Y146285
X119166Y169652
X109166Y169553
X109166Y193303
X221666Y164553
T02
X227916Y160178
X235416Y155803
X237916Y147678
X237916Y138303
X242916Y133303
X254791Y133303
X242916Y123303
X245416Y112053
X238541Y111428
X237916Y102053
X252916Y104553
X252916Y97053
X252916Y88303
X260416Y88303
X265416Y79553
X251666Y67053
X236666Y72053
X231041Y80178
X220416Y80178
X220416Y87053
X210416Y80178
X202916Y73303
X197916Y80178
X202916Y87053
X185416Y87053
X167916Y87053
X167916Y78303
X171666Y63303
X164166Y63303
X167916Y54553
X182916Y54553
X152916Y54553
X152916Y63303
X142916Y63303
X137916Y54553
X122916Y54553
X102916Y55803
X90416Y55803
X90416Y63303
X90416Y70803
X87916Y84553
X92916Y90803
X101666Y90803
X92291Y99553
X104166Y113303
X112916Y113303
X112916Y107053
X124791Y112053
X129791Y106428
X147916Y112053
X161041Y123303
X170416Y113303
X170416Y105803
X176666Y104553
X147916Y127053
X161041Y131428
X161041Y138303
X182916Y138303
X200416Y138303
X200416Y148928
X193541Y154553
X185416Y168928
X194166Y175803
X209166Y184553
X199166Y188303
X205416Y200803
X205416Y208303
X195416Y203303
X191666Y215803
X177916Y213928
X167916Y213303
X172916Y198303
X152916Y194553
X152916Y188303
X145416Y194553
X142916Y188303
X152916Y180803
X158541Y173928
X165416Y168303
X173541Y167053
X165416Y160803
X165416Y180803
X173541Y180178
X212916Y170803
X237916Y170803
X243541Y160178
X250416Y165178
X257916Y170803
X266041Y178303
X275416Y181428
X277916Y189553
X285416Y189553
X292916Y189553
X292916Y181428
X292916Y173303
X284166Y181428
X280416Y168303
X292916Y163928
X266666Y163303
X257916Y153303
X223541Y138303
X252916Y112053
X282916Y83928
X294791Y80803
X294791Y88928
X265416Y53303
X242916Y54553
X243541Y80178
X210416Y105803
X137916Y137678
X119166Y129553
X115416Y138303
X107916Y137053
X99791Y143928
X97916Y150803
X90416Y149553
X90416Y155803
X100416Y163303
X101041Y170803
X101041Y179553
X114166Y184553
X130416Y170803
X114166Y167053
X114166Y145803
X92291Y127053
X77916Y168303
X76666Y178303
X59791Y175803
X59791Y190178
X102916Y215803
X215416Y200803
X227916Y208303
X222916Y215803
X237916Y215803
X242916Y208303
X252916Y215803
X255416Y205803
X267916Y205803
X267916Y215803
X132916Y82053
X72916Y85803
X60416Y80803
T03
X120416Y153303
X160416Y153303
X101666Y198382
X101666Y208224
X239510Y91699
X265416Y72053
X265416Y62053
X251321Y122407
T04
X252916Y184553
X242916Y184553
X222916Y184553
X222916Y184553
X185416Y190803
X165416Y190803
T05
X150416Y167053
X141666Y158303
X127916Y138303
X170416Y138303
X201666Y169553
X211666Y143303
X255416Y143303
X272010Y100803
X283821Y100803
X251666Y79553
X230416Y58303
X201666Y58303
X114166Y58303
X77571Y158303
X65760Y158303
X127916Y193303
T06
X140416Y203303
X140416Y213303
X142916Y175803
X92916Y175803
X107798Y128421
X129697Y126974
X107798Y98500
X129697Y97053
X129697Y67132
X107798Y68579
X183241Y97053
X183241Y112014
X217640Y113461
X217640Y98500
T07
X217640Y128421
X183241Y126974
X183241Y67132
X217640Y68579
X271371Y110803
X286961Y110803
X286961Y145803
X271371Y145803
X80711Y143303
X65121Y143303
X65121Y108303
X80711Y108303
T08
X67227Y60114
X67227Y209720
X287699Y209720
X287699Y60114
M30
