G75*
%MOIN*%
%OFA0B0*%
%FSLAX25Y25*%
%IPPOS*%
%LPD*%
%AMOC8*
5,1,8,0,0,1.08239X$1,22.5*
%
%ADD10C,0.14173*%
%ADD11C,0.10236*%
%ADD12R,0.03150X0.02559*%
%ADD13C,0.10000*%
%ADD14OC8,0.10000*%
%ADD15R,0.03543X0.02559*%
%ADD16C,0.05937*%
%ADD17R,0.02559X0.03543*%
%ADD18C,0.07874*%
%ADD19R,0.03150X0.04724*%
%ADD20R,0.04724X0.12992*%
%ADD21R,0.03937X0.05512*%
%ADD22OC8,0.12400*%
%ADD23C,0.12400*%
%ADD24R,0.04724X0.06299*%
%ADD25C,0.07087*%
%ADD26C,0.10630*%
%ADD27C,0.03200*%
%ADD28C,0.02378*%
%ADD29C,0.10000*%
%ADD30C,0.04724*%
%ADD31C,0.01200*%
%ADD32C,0.05000*%
D10*
X0183241Y0067132D03*
X0217640Y0068579D03*
X0217640Y0128421D03*
X0183241Y0126974D03*
D11*
X0183241Y0112014D03*
X0183241Y0097053D03*
X0217640Y0098500D03*
X0217640Y0113461D03*
X0129697Y0126974D03*
X0107798Y0128421D03*
X0107798Y0098500D03*
X0129697Y0097053D03*
X0129697Y0067132D03*
X0107798Y0068579D03*
D12*
X0119166Y0119199D03*
X0119166Y0124907D03*
X0229166Y0127407D03*
X0229166Y0121699D03*
X0235416Y0121699D03*
X0235416Y0127407D03*
D13*
X0242916Y0184553D03*
X0165416Y0190803D03*
D14*
X0185416Y0190803D03*
X0201666Y0169553D03*
X0222916Y0184553D03*
X0211666Y0143303D03*
X0251321Y0122407D03*
X0255416Y0143303D03*
X0239510Y0091699D03*
X0251666Y0079553D03*
X0230416Y0058303D03*
X0201666Y0058303D03*
X0114166Y0058303D03*
X0127916Y0138303D03*
X0120416Y0153303D03*
X0141666Y0158303D03*
X0150416Y0167053D03*
X0142916Y0175803D03*
X0127916Y0193303D03*
X0092916Y0175803D03*
X0160416Y0153303D03*
X0170416Y0138303D03*
D15*
X0200416Y0126157D03*
X0200416Y0120449D03*
X0156041Y0098657D03*
X0156041Y0092949D03*
X0156041Y0088657D03*
X0156041Y0082949D03*
X0156041Y0078657D03*
X0156041Y0072949D03*
X0141041Y0072949D03*
X0141041Y0078657D03*
X0141041Y0082949D03*
X0141041Y0088657D03*
X0141041Y0092949D03*
X0141041Y0098657D03*
X0119166Y0097407D03*
X0119166Y0091699D03*
D16*
X0104634Y0198382D02*
X0098697Y0198382D01*
X0098697Y0208224D02*
X0104634Y0208224D01*
X0262447Y0072053D02*
X0268384Y0072053D01*
X0268384Y0062053D02*
X0262447Y0062053D01*
D17*
X0151395Y0080803D03*
X0145687Y0080803D03*
X0145687Y0090803D03*
X0151395Y0090803D03*
D18*
X0144353Y0203303D02*
X0136479Y0203303D01*
X0136479Y0213303D02*
X0144353Y0213303D01*
D19*
X0119166Y0188205D03*
X0109166Y0188205D03*
X0109166Y0163402D03*
X0119166Y0163402D03*
D20*
X0147916Y0143785D03*
X0157916Y0110321D03*
X0137916Y0110321D03*
D21*
X0114166Y0191472D03*
X0117906Y0200134D03*
X0110426Y0200134D03*
D22*
X0222916Y0184553D03*
D23*
X0252916Y0184553D03*
D24*
X0220859Y0157053D03*
X0207473Y0157053D03*
D25*
X0272010Y0104346D02*
X0272010Y0097260D01*
X0283821Y0097260D02*
X0283821Y0104346D01*
X0077571Y0154760D02*
X0077571Y0161846D01*
X0065760Y0161846D02*
X0065760Y0154760D01*
D26*
X0065121Y0148618D02*
X0065121Y0137988D01*
X0080711Y0137988D02*
X0080711Y0148618D01*
X0080711Y0113618D02*
X0080711Y0102988D01*
X0065121Y0102988D02*
X0065121Y0113618D01*
X0271371Y0116118D02*
X0271371Y0105488D01*
X0286961Y0105488D02*
X0286961Y0116118D01*
X0286961Y0140488D02*
X0286961Y0151118D01*
X0271371Y0151118D02*
X0271371Y0140488D01*
D27*
X0251321Y0122407D02*
X0246321Y0127407D01*
X0235416Y0127407D01*
X0229166Y0127407D01*
X0218654Y0127407D01*
X0217640Y0128421D01*
X0217640Y0150085D01*
X0220859Y0153303D01*
X0220859Y0157053D01*
X0221666Y0164553D02*
X0212916Y0164553D01*
X0207473Y0159110D01*
X0207473Y0157053D01*
X0177916Y0155803D02*
X0162916Y0140803D01*
X0156666Y0140803D01*
X0147916Y0140803D01*
X0147916Y0143785D01*
X0147916Y0146285D01*
X0140032Y0146285D01*
X0147916Y0134553D02*
X0147916Y0127053D01*
X0148541Y0126428D01*
X0148541Y0120178D01*
X0138684Y0110321D01*
X0137916Y0110321D01*
X0123044Y0110321D01*
X0119166Y0114199D01*
X0119166Y0119199D01*
X0119166Y0124907D02*
X0111312Y0124907D01*
X0107798Y0128421D01*
X0099166Y0135803D02*
X0099166Y0107132D01*
X0107798Y0098500D01*
X0108890Y0097407D01*
X0119166Y0097407D01*
X0129343Y0097407D01*
X0129697Y0097053D01*
X0141041Y0098657D02*
X0148541Y0098657D01*
X0156041Y0098657D01*
X0156041Y0092949D02*
X0156041Y0090803D01*
X0151395Y0090803D01*
X0156041Y0090803D02*
X0156041Y0088657D01*
X0156041Y0082949D02*
X0156041Y0080803D01*
X0151395Y0080803D01*
X0156041Y0080803D02*
X0156041Y0078657D01*
X0156041Y0072949D02*
X0148541Y0072949D01*
X0141041Y0072949D01*
X0141041Y0078657D02*
X0141041Y0080803D01*
X0145687Y0080803D01*
X0141041Y0080803D02*
X0141041Y0082949D01*
X0141041Y0088657D02*
X0141041Y0090803D01*
X0145687Y0090803D01*
X0141041Y0090803D02*
X0141041Y0092949D01*
X0119166Y0091699D02*
X0119166Y0068382D01*
X0117916Y0067132D01*
X0162916Y0089696D02*
X0162916Y0105321D01*
X0157916Y0110321D01*
X0183241Y0112014D02*
X0200416Y0112014D01*
X0200416Y0120449D01*
X0200416Y0126157D02*
X0215377Y0126157D01*
X0217640Y0128421D01*
X0229166Y0121699D02*
X0232291Y0118574D01*
X0232291Y0108928D01*
X0229166Y0105803D01*
X0229166Y0080104D01*
X0217640Y0068579D01*
X0216193Y0097053D02*
X0183241Y0097053D01*
X0200416Y0112014D02*
X0216193Y0112014D01*
X0217640Y0113461D01*
X0229166Y0105803D02*
X0229166Y0121699D01*
X0235416Y0121699D01*
X0232916Y0119199D01*
X0232916Y0109553D01*
X0232291Y0108928D01*
X0217640Y0098500D02*
X0216193Y0097053D01*
X0200416Y0126157D02*
X0184058Y0126157D01*
X0183241Y0126974D01*
X0156666Y0134553D02*
X0156666Y0140803D01*
X0177916Y0155803D02*
X0177916Y0174553D01*
X0179166Y0175803D01*
X0187916Y0184553D01*
X0222916Y0184553D01*
X0140416Y0213303D02*
X0122985Y0213303D01*
X0117906Y0208224D01*
X0101666Y0208224D01*
X0101666Y0198382D02*
X0108674Y0198382D01*
X0110426Y0200134D01*
X0109166Y0193303D02*
X0112335Y0193303D01*
X0114166Y0191472D01*
X0109166Y0193303D02*
X0109166Y0188205D01*
X0119166Y0188205D02*
X0119166Y0198874D01*
X0117906Y0200134D01*
X0117906Y0208224D01*
X0119166Y0169652D02*
X0119166Y0163402D01*
X0109166Y0163402D02*
X0109166Y0169553D01*
X0109166Y0163402D02*
X0109166Y0145803D01*
X0099166Y0135803D01*
X0119166Y0124907D02*
X0127630Y0124907D01*
X0129697Y0126974D01*
D28*
X0140032Y0146285D03*
X0119166Y0169652D03*
X0109166Y0169553D03*
X0109166Y0193303D03*
X0221666Y0164553D03*
X0148541Y0098657D03*
X0162916Y0089696D03*
X0148541Y0072949D03*
D29*
X0129697Y0067132D02*
X0117916Y0067132D01*
X0109245Y0067132D01*
X0107798Y0068579D01*
X0107640Y0068579D01*
X0183241Y0067132D02*
X0216193Y0067132D01*
X0217640Y0068579D01*
X0217916Y0068303D01*
X0237916Y0068303D01*
X0251666Y0082053D01*
X0276666Y0082053D01*
X0283821Y0089209D01*
X0283821Y0100803D01*
X0283821Y0174350D01*
X0251119Y0207053D01*
X0229166Y0207053D01*
X0222916Y0200803D01*
X0222916Y0184553D01*
X0214166Y0184553D01*
X0185416Y0213303D01*
X0140416Y0213303D01*
X0129166Y0190803D02*
X0127916Y0189553D01*
X0127916Y0153303D01*
X0120416Y0153303D01*
X0147916Y0134553D02*
X0156666Y0134553D01*
X0161666Y0134553D01*
X0177916Y0150803D01*
X0177916Y0158303D01*
X0177916Y0155803D02*
X0177916Y0175803D01*
X0179166Y0175803D02*
X0185416Y0182053D01*
X0185416Y0190803D01*
X0191666Y0184553D01*
X0222916Y0184553D01*
X0165416Y0190803D02*
X0129166Y0190803D01*
D30*
X0142916Y0188303D03*
X0145416Y0194553D03*
X0152916Y0194553D03*
X0152916Y0188303D03*
X0152916Y0180803D03*
X0158541Y0173928D03*
X0165416Y0168303D03*
X0173541Y0167053D03*
X0165416Y0160803D03*
X0185416Y0168928D03*
X0194166Y0175803D03*
X0209166Y0184553D03*
X0199166Y0188303D03*
X0205416Y0200803D03*
X0205416Y0208303D03*
X0195416Y0203303D03*
X0191666Y0215803D03*
X0177916Y0213928D03*
X0167916Y0213303D03*
X0172916Y0198303D03*
X0173541Y0180178D03*
X0165416Y0180803D03*
X0193541Y0154553D03*
X0200416Y0148928D03*
X0200416Y0138303D03*
X0182916Y0138303D03*
X0161041Y0138303D03*
X0161041Y0131428D03*
X0161041Y0123303D03*
X0170416Y0113303D03*
X0170416Y0105803D03*
X0176666Y0104553D03*
X0185416Y0087053D03*
X0197916Y0080178D03*
X0202916Y0087053D03*
X0210416Y0080178D03*
X0220416Y0080178D03*
X0220416Y0087053D03*
X0231041Y0080178D03*
X0236666Y0072053D03*
X0243541Y0080178D03*
X0252916Y0088303D03*
X0260416Y0088303D03*
X0252916Y0097053D03*
X0252916Y0104553D03*
X0252916Y0112053D03*
X0245416Y0112053D03*
X0238541Y0111428D03*
X0237916Y0102053D03*
X0242916Y0123303D03*
X0242916Y0133303D03*
X0237916Y0138303D03*
X0237916Y0147678D03*
X0235416Y0155803D03*
X0227916Y0160178D03*
X0237916Y0170803D03*
X0243541Y0160178D03*
X0250416Y0165178D03*
X0257916Y0170803D03*
X0266041Y0178303D03*
X0275416Y0181428D03*
X0277916Y0189553D03*
X0285416Y0189553D03*
X0292916Y0189553D03*
X0292916Y0181428D03*
X0292916Y0173303D03*
X0284166Y0181428D03*
X0280416Y0168303D03*
X0292916Y0163928D03*
X0266666Y0163303D03*
X0257916Y0153303D03*
X0254791Y0133303D03*
X0223541Y0138303D03*
X0210416Y0105803D03*
X0202916Y0073303D03*
X0182916Y0054553D03*
X0171666Y0063303D03*
X0164166Y0063303D03*
X0167916Y0054553D03*
X0152916Y0054553D03*
X0152916Y0063303D03*
X0142916Y0063303D03*
X0137916Y0054553D03*
X0122916Y0054553D03*
X0102916Y0055803D03*
X0090416Y0055803D03*
X0090416Y0063303D03*
X0090416Y0070803D03*
X0087916Y0084553D03*
X0092916Y0090803D03*
X0101666Y0090803D03*
X0092291Y0099553D03*
X0104166Y0113303D03*
X0112916Y0113303D03*
X0112916Y0107053D03*
X0124791Y0112053D03*
X0129791Y0106428D03*
X0147916Y0112053D03*
X0147916Y0127053D03*
X0137916Y0137678D03*
X0119166Y0129553D03*
X0115416Y0138303D03*
X0107916Y0137053D03*
X0099791Y0143928D03*
X0097916Y0150803D03*
X0090416Y0149553D03*
X0090416Y0155803D03*
X0100416Y0163303D03*
X0101041Y0170803D03*
X0101041Y0179553D03*
X0114166Y0184553D03*
X0130416Y0170803D03*
X0114166Y0167053D03*
X0114166Y0145803D03*
X0092291Y0127053D03*
X0077916Y0168303D03*
X0076666Y0178303D03*
X0059791Y0175803D03*
X0059791Y0190178D03*
X0102916Y0215803D03*
X0212916Y0170803D03*
X0215416Y0200803D03*
X0227916Y0208303D03*
X0222916Y0215803D03*
X0237916Y0215803D03*
X0242916Y0208303D03*
X0252916Y0215803D03*
X0255416Y0205803D03*
X0267916Y0205803D03*
X0267916Y0215803D03*
X0294791Y0088928D03*
X0294791Y0080803D03*
X0282916Y0083928D03*
X0265416Y0079553D03*
X0251666Y0067053D03*
X0242916Y0054553D03*
X0265416Y0053303D03*
X0167916Y0078303D03*
X0167916Y0087053D03*
X0132916Y0082053D03*
X0072916Y0085803D03*
X0060416Y0080803D03*
D31*
X0084575Y0076525D02*
X0084575Y0050478D01*
X0270351Y0050478D01*
X0270351Y0057923D01*
X0269293Y0057485D01*
X0261539Y0057485D01*
X0259860Y0058180D01*
X0258574Y0059465D01*
X0257879Y0061144D01*
X0257879Y0062962D01*
X0258574Y0064641D01*
X0259860Y0065926D01*
X0261539Y0066622D01*
X0269293Y0066622D01*
X0270351Y0066183D01*
X0270351Y0067923D01*
X0269293Y0067485D01*
X0261539Y0067485D01*
X0259860Y0068180D01*
X0258574Y0069465D01*
X0257879Y0071144D01*
X0257879Y0072962D01*
X0258574Y0074641D01*
X0259860Y0075926D01*
X0261539Y0076622D01*
X0269293Y0076622D01*
X0270351Y0076183D01*
X0270351Y0076525D01*
X0271289Y0077462D01*
X0297336Y0077462D01*
X0297336Y0192372D01*
X0271289Y0192372D01*
X0270351Y0193310D01*
X0270351Y0219357D01*
X0084575Y0219357D01*
X0084575Y0193310D01*
X0083638Y0192372D01*
X0057591Y0192372D01*
X0057591Y0077462D01*
X0083638Y0077462D01*
X0084575Y0076525D01*
X0084575Y0075869D02*
X0138516Y0075869D01*
X0138581Y0075803D02*
X0137669Y0074891D01*
X0137669Y0071007D01*
X0138606Y0070069D01*
X0139631Y0070069D01*
X0140404Y0069749D01*
X0156677Y0069749D01*
X0157451Y0070069D01*
X0158475Y0070069D01*
X0159413Y0071007D01*
X0159413Y0074891D01*
X0158500Y0075803D01*
X0159413Y0076715D01*
X0159413Y0080600D01*
X0159241Y0080771D01*
X0159241Y0080835D01*
X0159413Y0081007D01*
X0159413Y0084891D01*
X0158500Y0085803D01*
X0159413Y0086715D01*
X0159413Y0090600D01*
X0159241Y0090771D01*
X0159241Y0090835D01*
X0159413Y0091007D01*
X0159413Y0094891D01*
X0158500Y0095803D01*
X0159413Y0096715D01*
X0159413Y0100600D01*
X0158475Y0101537D01*
X0157451Y0101537D01*
X0156677Y0101857D01*
X0140404Y0101857D01*
X0139631Y0101537D01*
X0138606Y0101537D01*
X0137669Y0100600D01*
X0137669Y0096715D01*
X0138581Y0095803D01*
X0137669Y0094891D01*
X0137669Y0091007D01*
X0137841Y0090835D01*
X0137841Y0090771D01*
X0137669Y0090600D01*
X0137669Y0086715D01*
X0138581Y0085803D01*
X0137669Y0084891D01*
X0137669Y0081007D01*
X0137841Y0080835D01*
X0137841Y0080771D01*
X0137669Y0080600D01*
X0137669Y0076715D01*
X0138581Y0075803D01*
X0137669Y0074670D02*
X0084575Y0074670D01*
X0084575Y0073472D02*
X0137669Y0073472D01*
X0137669Y0072273D02*
X0084575Y0072273D01*
X0084575Y0071075D02*
X0137669Y0071075D01*
X0140096Y0069876D02*
X0084575Y0069876D01*
X0084575Y0068678D02*
X0259362Y0068678D01*
X0258404Y0069876D02*
X0156985Y0069876D01*
X0159413Y0071075D02*
X0257908Y0071075D01*
X0257879Y0072273D02*
X0159413Y0072273D01*
X0159413Y0073472D02*
X0258090Y0073472D01*
X0258604Y0074670D02*
X0159413Y0074670D01*
X0158566Y0075869D02*
X0259802Y0075869D01*
X0270894Y0077067D02*
X0159413Y0077067D01*
X0159413Y0078266D02*
X0297336Y0078266D01*
X0297336Y0079464D02*
X0159413Y0079464D01*
X0159349Y0080663D02*
X0297336Y0080663D01*
X0297336Y0081861D02*
X0159413Y0081861D01*
X0159413Y0083060D02*
X0297336Y0083060D01*
X0297336Y0084258D02*
X0244482Y0084258D01*
X0245116Y0084892D02*
X0251327Y0091103D01*
X0278827Y0091103D01*
X0280116Y0092392D01*
X0280116Y0159214D01*
X0278827Y0160503D01*
X0262616Y0160503D01*
X0262616Y0191714D01*
X0261327Y0193003D01*
X0232005Y0193003D01*
X0230716Y0191714D01*
X0230716Y0175503D01*
X0204505Y0175503D01*
X0203216Y0174214D01*
X0203216Y0145503D01*
X0183255Y0145503D01*
X0181966Y0144214D01*
X0175716Y0137964D01*
X0175716Y0131507D01*
X0174554Y0128702D01*
X0174554Y0125247D01*
X0175716Y0122442D01*
X0175716Y0119892D01*
X0177005Y0118603D01*
X0180751Y0118603D01*
X0181173Y0118429D01*
X0179435Y0117709D01*
X0177545Y0115819D01*
X0176523Y0113350D01*
X0176523Y0110677D01*
X0177545Y0108208D01*
X0179435Y0106318D01*
X0181904Y0105296D01*
X0184577Y0105296D01*
X0187046Y0106318D01*
X0188936Y0108208D01*
X0189187Y0108814D01*
X0212786Y0108814D01*
X0213835Y0107765D01*
X0216304Y0106743D01*
X0218977Y0106743D01*
X0221446Y0107765D01*
X0223336Y0109655D01*
X0224358Y0112124D01*
X0224358Y0114797D01*
X0223336Y0117266D01*
X0221999Y0118603D01*
X0229466Y0118603D01*
X0229466Y0116142D01*
X0230716Y0114892D01*
X0230716Y0084892D01*
X0232005Y0083603D01*
X0233827Y0083603D01*
X0243827Y0083603D01*
X0245116Y0084892D01*
X0245681Y0085457D02*
X0297336Y0085457D01*
X0297336Y0086656D02*
X0246880Y0086656D01*
X0248078Y0087854D02*
X0297336Y0087854D01*
X0297336Y0089053D02*
X0249277Y0089053D01*
X0250475Y0090251D02*
X0297336Y0090251D01*
X0297336Y0091450D02*
X0279174Y0091450D01*
X0280116Y0092648D02*
X0297336Y0092648D01*
X0297336Y0093847D02*
X0280116Y0093847D01*
X0280116Y0095045D02*
X0297336Y0095045D01*
X0297336Y0096244D02*
X0280116Y0096244D01*
X0280116Y0097442D02*
X0297336Y0097442D01*
X0297336Y0098641D02*
X0280116Y0098641D01*
X0280116Y0099839D02*
X0297336Y0099839D01*
X0297336Y0101038D02*
X0280116Y0101038D01*
X0280116Y0102236D02*
X0297336Y0102236D01*
X0297336Y0103435D02*
X0280116Y0103435D01*
X0280116Y0104633D02*
X0297336Y0104633D01*
X0297336Y0105832D02*
X0280116Y0105832D01*
X0280116Y0107030D02*
X0297336Y0107030D01*
X0297336Y0108229D02*
X0280116Y0108229D01*
X0280116Y0109427D02*
X0297336Y0109427D01*
X0297336Y0110626D02*
X0280116Y0110626D01*
X0280116Y0111824D02*
X0297336Y0111824D01*
X0297336Y0113023D02*
X0280116Y0113023D01*
X0280116Y0114221D02*
X0297336Y0114221D01*
X0297336Y0115420D02*
X0280116Y0115420D01*
X0280116Y0116618D02*
X0297336Y0116618D01*
X0297336Y0117817D02*
X0280116Y0117817D01*
X0280116Y0119015D02*
X0297336Y0119015D01*
X0297336Y0120214D02*
X0280116Y0120214D01*
X0280116Y0121412D02*
X0297336Y0121412D01*
X0297336Y0122611D02*
X0280116Y0122611D01*
X0280116Y0123809D02*
X0297336Y0123809D01*
X0297336Y0125008D02*
X0280116Y0125008D01*
X0280116Y0126206D02*
X0297336Y0126206D01*
X0297336Y0127405D02*
X0280116Y0127405D01*
X0280116Y0128603D02*
X0297336Y0128603D01*
X0297336Y0129802D02*
X0280116Y0129802D01*
X0280116Y0131000D02*
X0297336Y0131000D01*
X0297336Y0132199D02*
X0280116Y0132199D01*
X0280116Y0133397D02*
X0297336Y0133397D01*
X0297336Y0134596D02*
X0280116Y0134596D01*
X0280116Y0135794D02*
X0297336Y0135794D01*
X0297336Y0136993D02*
X0280116Y0136993D01*
X0280116Y0138191D02*
X0297336Y0138191D01*
X0297336Y0139390D02*
X0280116Y0139390D01*
X0280116Y0140589D02*
X0297336Y0140589D01*
X0297336Y0141787D02*
X0280116Y0141787D01*
X0280116Y0142986D02*
X0297336Y0142986D01*
X0297336Y0144184D02*
X0280116Y0144184D01*
X0280116Y0145383D02*
X0297336Y0145383D01*
X0297336Y0146581D02*
X0280116Y0146581D01*
X0280116Y0147780D02*
X0297336Y0147780D01*
X0297336Y0148978D02*
X0280116Y0148978D01*
X0280116Y0150177D02*
X0297336Y0150177D01*
X0297336Y0151375D02*
X0280116Y0151375D01*
X0280116Y0152574D02*
X0297336Y0152574D01*
X0297336Y0153772D02*
X0280116Y0153772D01*
X0280116Y0154971D02*
X0297336Y0154971D01*
X0297336Y0156169D02*
X0280116Y0156169D01*
X0280116Y0157368D02*
X0297336Y0157368D01*
X0297336Y0158566D02*
X0280116Y0158566D01*
X0279566Y0159765D02*
X0297336Y0159765D01*
X0297336Y0160963D02*
X0262616Y0160963D01*
X0262616Y0162162D02*
X0297336Y0162162D01*
X0297336Y0163360D02*
X0262616Y0163360D01*
X0262616Y0164559D02*
X0297336Y0164559D01*
X0297336Y0165757D02*
X0262616Y0165757D01*
X0262616Y0166956D02*
X0297336Y0166956D01*
X0297336Y0168154D02*
X0262616Y0168154D01*
X0262616Y0169353D02*
X0297336Y0169353D01*
X0297336Y0170551D02*
X0262616Y0170551D01*
X0262616Y0171750D02*
X0297336Y0171750D01*
X0297336Y0172948D02*
X0262616Y0172948D01*
X0262616Y0174147D02*
X0297336Y0174147D01*
X0297336Y0175345D02*
X0262616Y0175345D01*
X0262616Y0176544D02*
X0297336Y0176544D01*
X0297336Y0177742D02*
X0262616Y0177742D01*
X0262616Y0178941D02*
X0297336Y0178941D01*
X0297336Y0180139D02*
X0262616Y0180139D01*
X0262616Y0181338D02*
X0297336Y0181338D01*
X0297336Y0182536D02*
X0262616Y0182536D01*
X0262616Y0183735D02*
X0297336Y0183735D01*
X0297336Y0184933D02*
X0262616Y0184933D01*
X0262616Y0186132D02*
X0297336Y0186132D01*
X0297336Y0187330D02*
X0262616Y0187330D01*
X0262616Y0188529D02*
X0297336Y0188529D01*
X0297336Y0189727D02*
X0262616Y0189727D01*
X0262616Y0190926D02*
X0297336Y0190926D01*
X0297336Y0192125D02*
X0262206Y0192125D01*
X0259110Y0189727D02*
X0232916Y0189727D01*
X0232916Y0190803D02*
X0258035Y0190803D01*
X0260416Y0188422D01*
X0260416Y0117053D01*
X0236116Y0117053D01*
X0236116Y0117873D01*
X0237062Y0118819D01*
X0237653Y0118819D01*
X0238591Y0119757D01*
X0238591Y0121001D01*
X0238616Y0121062D01*
X0238616Y0122335D01*
X0238591Y0122396D01*
X0238591Y0123641D01*
X0237653Y0124578D01*
X0236826Y0124578D01*
X0236052Y0124899D01*
X0228529Y0124899D01*
X0227756Y0124578D01*
X0226928Y0124578D01*
X0225991Y0123641D01*
X0225991Y0122396D01*
X0225966Y0122335D01*
X0225966Y0120803D01*
X0203788Y0120803D01*
X0203788Y0122391D01*
X0202850Y0123328D01*
X0201826Y0123328D01*
X0201052Y0123649D01*
X0199779Y0123649D01*
X0199006Y0123328D01*
X0197981Y0123328D01*
X0197044Y0122391D01*
X0197044Y0120803D01*
X0177916Y0120803D01*
X0177916Y0137053D01*
X0184166Y0143303D01*
X0205416Y0143303D01*
X0205416Y0152304D01*
X0210498Y0152304D01*
X0211435Y0153241D01*
X0211435Y0158547D01*
X0214241Y0161353D01*
X0222302Y0161353D01*
X0223479Y0161840D01*
X0224379Y0162740D01*
X0224866Y0163917D01*
X0224866Y0165190D01*
X0224379Y0166366D01*
X0223479Y0167266D01*
X0222302Y0167753D01*
X0212279Y0167753D01*
X0211103Y0167266D01*
X0210203Y0166366D01*
X0205660Y0161823D01*
X0205640Y0161803D01*
X0205416Y0161803D01*
X0205416Y0163969D01*
X0208266Y0166819D01*
X0208266Y0172287D01*
X0207250Y0173303D01*
X0232916Y0173303D01*
X0232916Y0190803D01*
X0230716Y0190926D02*
X0177616Y0190926D01*
X0177616Y0192125D02*
X0231126Y0192125D01*
X0230716Y0189727D02*
X0177616Y0189727D01*
X0177616Y0188529D02*
X0230716Y0188529D01*
X0230716Y0187330D02*
X0177616Y0187330D01*
X0177616Y0186132D02*
X0230716Y0186132D01*
X0230716Y0184933D02*
X0177616Y0184933D01*
X0177616Y0184892D02*
X0177616Y0204214D01*
X0176327Y0205503D01*
X0149435Y0205503D01*
X0149047Y0206440D01*
X0147489Y0207997D01*
X0145454Y0208840D01*
X0135377Y0208840D01*
X0133342Y0207997D01*
X0131785Y0206440D01*
X0131397Y0205503D01*
X0104505Y0205503D01*
X0103216Y0204214D01*
X0103216Y0202950D01*
X0097789Y0202950D01*
X0096110Y0202255D01*
X0094824Y0200970D01*
X0094129Y0199291D01*
X0094129Y0197473D01*
X0094824Y0195794D01*
X0096110Y0194509D01*
X0097789Y0193813D01*
X0103216Y0193813D01*
X0103216Y0183003D01*
X0103066Y0183003D01*
X0101829Y0183515D01*
X0100253Y0183515D01*
X0099016Y0183003D01*
X0073255Y0183003D01*
X0071966Y0181714D01*
X0071966Y0096142D01*
X0073255Y0094853D01*
X0096327Y0094853D01*
X0097616Y0096142D01*
X0097616Y0104156D01*
X0101330Y0100442D01*
X0101080Y0099836D01*
X0101080Y0097164D01*
X0102102Y0094694D01*
X0103992Y0092805D01*
X0106461Y0091782D01*
X0109134Y0091782D01*
X0111603Y0092805D01*
X0113006Y0094207D01*
X0123604Y0094207D01*
X0124002Y0093248D01*
X0125892Y0091358D01*
X0128361Y0090335D01*
X0131034Y0090335D01*
X0133503Y0091358D01*
X0135393Y0093248D01*
X0136415Y0095717D01*
X0136415Y0098389D01*
X0135393Y0100859D01*
X0133503Y0102748D01*
X0131034Y0103771D01*
X0128361Y0103771D01*
X0125892Y0102748D01*
X0124002Y0100859D01*
X0123898Y0100607D01*
X0114196Y0100607D01*
X0113493Y0102305D01*
X0111603Y0104195D01*
X0109134Y0105218D01*
X0106461Y0105218D01*
X0105856Y0104967D01*
X0102366Y0108457D01*
X0102366Y0116103D01*
X0141327Y0116103D01*
X0142616Y0117392D01*
X0142616Y0141103D01*
X0168827Y0141103D01*
X0170116Y0142392D01*
X0170116Y0144214D01*
X0170116Y0183603D01*
X0176327Y0183603D01*
X0177616Y0184892D01*
X0176459Y0183735D02*
X0230716Y0183735D01*
X0230716Y0182536D02*
X0170116Y0182536D01*
X0170116Y0181338D02*
X0230716Y0181338D01*
X0230716Y0180139D02*
X0170116Y0180139D01*
X0170116Y0178941D02*
X0230716Y0178941D01*
X0230716Y0177742D02*
X0170116Y0177742D01*
X0170116Y0176544D02*
X0230716Y0176544D01*
X0232916Y0176544D02*
X0260416Y0176544D01*
X0260416Y0177742D02*
X0232916Y0177742D01*
X0232916Y0178941D02*
X0260416Y0178941D01*
X0260416Y0180139D02*
X0232916Y0180139D01*
X0232916Y0181338D02*
X0260416Y0181338D01*
X0260416Y0182536D02*
X0232916Y0182536D01*
X0232916Y0183735D02*
X0260416Y0183735D01*
X0260416Y0184933D02*
X0232916Y0184933D01*
X0232916Y0186132D02*
X0260416Y0186132D01*
X0260416Y0187330D02*
X0232916Y0187330D01*
X0232916Y0188529D02*
X0260309Y0188529D01*
X0270351Y0193323D02*
X0177616Y0193323D01*
X0177616Y0194522D02*
X0270351Y0194522D01*
X0270351Y0195720D02*
X0177616Y0195720D01*
X0177616Y0196919D02*
X0270351Y0196919D01*
X0270351Y0198117D02*
X0177616Y0198117D01*
X0177616Y0199316D02*
X0270351Y0199316D01*
X0270351Y0200514D02*
X0177616Y0200514D01*
X0177616Y0201713D02*
X0270351Y0201713D01*
X0270351Y0202911D02*
X0177616Y0202911D01*
X0177616Y0204110D02*
X0270351Y0204110D01*
X0270351Y0205308D02*
X0176522Y0205308D01*
X0175416Y0203303D02*
X0175416Y0185803D01*
X0132916Y0185803D01*
X0132916Y0140803D01*
X0140416Y0140803D01*
X0140416Y0118417D01*
X0134891Y0118417D01*
X0134777Y0118303D01*
X0122366Y0118303D01*
X0122366Y0119835D01*
X0122341Y0119896D01*
X0122341Y0121141D01*
X0121403Y0122078D01*
X0120576Y0122078D01*
X0119802Y0122399D01*
X0118529Y0122399D01*
X0117756Y0122078D01*
X0116928Y0122078D01*
X0115991Y0121141D01*
X0115991Y0119896D01*
X0115966Y0119835D01*
X0115966Y0118303D01*
X0102366Y0118303D01*
X0102366Y0134478D01*
X0111879Y0143990D01*
X0112366Y0145167D01*
X0112366Y0170190D01*
X0111879Y0171366D01*
X0110979Y0172266D01*
X0109802Y0172753D01*
X0108529Y0172753D01*
X0107353Y0172266D01*
X0106453Y0171366D01*
X0105966Y0170190D01*
X0105966Y0147129D01*
X0097916Y0139079D01*
X0097916Y0145803D01*
X0101666Y0145803D01*
X0105416Y0149553D01*
X0105416Y0193813D01*
X0105543Y0193813D01*
X0105990Y0193999D01*
X0105966Y0193940D01*
X0105966Y0187568D01*
X0105991Y0187507D01*
X0105991Y0185180D01*
X0106928Y0184243D01*
X0111403Y0184243D01*
X0112341Y0185180D01*
X0112341Y0187117D01*
X0115991Y0187117D01*
X0115991Y0185180D01*
X0116928Y0184243D01*
X0121403Y0184243D01*
X0122341Y0185180D01*
X0122341Y0187507D01*
X0122366Y0187568D01*
X0122366Y0199511D01*
X0121879Y0200687D01*
X0121475Y0201091D01*
X0121475Y0203303D01*
X0130942Y0203303D01*
X0130942Y0202202D01*
X0131785Y0200167D01*
X0133342Y0198609D01*
X0135377Y0197766D01*
X0145454Y0197766D01*
X0147489Y0198609D01*
X0149047Y0200167D01*
X0149890Y0202202D01*
X0149890Y0203303D01*
X0175416Y0203303D01*
X0175416Y0202911D02*
X0149890Y0202911D01*
X0149687Y0201713D02*
X0175416Y0201713D01*
X0175416Y0200514D02*
X0149191Y0200514D01*
X0148196Y0199316D02*
X0175416Y0199316D01*
X0175416Y0198117D02*
X0146301Y0198117D01*
X0148980Y0206507D02*
X0270351Y0206507D01*
X0270351Y0207705D02*
X0147781Y0207705D01*
X0133050Y0207705D02*
X0084575Y0207705D01*
X0084575Y0206507D02*
X0131852Y0206507D01*
X0130942Y0202911D02*
X0121475Y0202911D01*
X0121475Y0201713D02*
X0131144Y0201713D01*
X0131641Y0200514D02*
X0121950Y0200514D01*
X0122366Y0199316D02*
X0132636Y0199316D01*
X0134530Y0198117D02*
X0122366Y0198117D01*
X0122366Y0196919D02*
X0175416Y0196919D01*
X0175416Y0195720D02*
X0122366Y0195720D01*
X0122366Y0194522D02*
X0175416Y0194522D01*
X0175416Y0193323D02*
X0122366Y0193323D01*
X0122366Y0192125D02*
X0175416Y0192125D01*
X0175416Y0190926D02*
X0122366Y0190926D01*
X0122366Y0189727D02*
X0175416Y0189727D01*
X0175416Y0188529D02*
X0122366Y0188529D01*
X0122341Y0187330D02*
X0175416Y0187330D01*
X0175416Y0186132D02*
X0122341Y0186132D01*
X0122094Y0184933D02*
X0132916Y0184933D01*
X0132916Y0183735D02*
X0105416Y0183735D01*
X0105416Y0184933D02*
X0106237Y0184933D01*
X0105991Y0186132D02*
X0105416Y0186132D01*
X0105416Y0187330D02*
X0105991Y0187330D01*
X0105966Y0188529D02*
X0105416Y0188529D01*
X0105416Y0189727D02*
X0105966Y0189727D01*
X0105966Y0190926D02*
X0105416Y0190926D01*
X0105416Y0192125D02*
X0105966Y0192125D01*
X0105966Y0193323D02*
X0105416Y0193323D01*
X0103216Y0193323D02*
X0084575Y0193323D01*
X0084575Y0194522D02*
X0096097Y0194522D01*
X0094898Y0195720D02*
X0084575Y0195720D01*
X0084575Y0196919D02*
X0094359Y0196919D01*
X0094129Y0198117D02*
X0084575Y0198117D01*
X0084575Y0199316D02*
X0094139Y0199316D01*
X0094636Y0200514D02*
X0084575Y0200514D01*
X0084575Y0201713D02*
X0095567Y0201713D01*
X0097694Y0202911D02*
X0084575Y0202911D01*
X0084575Y0204110D02*
X0103216Y0204110D01*
X0104310Y0205308D02*
X0084575Y0205308D01*
X0084575Y0208904D02*
X0270351Y0208904D01*
X0270351Y0210102D02*
X0084575Y0210102D01*
X0084575Y0211301D02*
X0270351Y0211301D01*
X0270351Y0212499D02*
X0084575Y0212499D01*
X0084575Y0213698D02*
X0270351Y0213698D01*
X0270351Y0214896D02*
X0084575Y0214896D01*
X0084575Y0216095D02*
X0270351Y0216095D01*
X0270351Y0217293D02*
X0084575Y0217293D01*
X0084575Y0218492D02*
X0270351Y0218492D01*
X0260416Y0175345D02*
X0232916Y0175345D01*
X0232916Y0174147D02*
X0260416Y0174147D01*
X0260416Y0172948D02*
X0207604Y0172948D01*
X0208266Y0171750D02*
X0260416Y0171750D01*
X0260416Y0170551D02*
X0208266Y0170551D01*
X0208266Y0169353D02*
X0260416Y0169353D01*
X0260416Y0168154D02*
X0208266Y0168154D01*
X0208266Y0166956D02*
X0210793Y0166956D01*
X0209595Y0165757D02*
X0207204Y0165757D01*
X0208396Y0164559D02*
X0206005Y0164559D01*
X0205416Y0163360D02*
X0207197Y0163360D01*
X0205999Y0162162D02*
X0205416Y0162162D01*
X0203216Y0162162D02*
X0170116Y0162162D01*
X0170116Y0163360D02*
X0203216Y0163360D01*
X0203216Y0164559D02*
X0170116Y0164559D01*
X0170116Y0165757D02*
X0203216Y0165757D01*
X0203216Y0166956D02*
X0170116Y0166956D01*
X0170116Y0168154D02*
X0203216Y0168154D01*
X0203216Y0169353D02*
X0170116Y0169353D01*
X0170116Y0170551D02*
X0203216Y0170551D01*
X0203216Y0171750D02*
X0170116Y0171750D01*
X0170116Y0172948D02*
X0203216Y0172948D01*
X0203216Y0174147D02*
X0170116Y0174147D01*
X0170116Y0175345D02*
X0204347Y0175345D01*
X0203216Y0160963D02*
X0170116Y0160963D01*
X0170116Y0159765D02*
X0203216Y0159765D01*
X0203216Y0158566D02*
X0170116Y0158566D01*
X0170116Y0157368D02*
X0203216Y0157368D01*
X0203216Y0156169D02*
X0170116Y0156169D01*
X0170116Y0154971D02*
X0203216Y0154971D01*
X0203216Y0153772D02*
X0170116Y0153772D01*
X0170116Y0152574D02*
X0203216Y0152574D01*
X0203216Y0151375D02*
X0170116Y0151375D01*
X0170116Y0150177D02*
X0203216Y0150177D01*
X0203216Y0148978D02*
X0170116Y0148978D01*
X0170116Y0147780D02*
X0203216Y0147780D01*
X0203216Y0146581D02*
X0170116Y0146581D01*
X0170116Y0145383D02*
X0183134Y0145383D01*
X0181936Y0144184D02*
X0170116Y0144184D01*
X0170116Y0142986D02*
X0180737Y0142986D01*
X0179538Y0141787D02*
X0169511Y0141787D01*
X0164168Y0146581D02*
X0151878Y0146581D01*
X0151878Y0145383D02*
X0162970Y0145383D01*
X0161771Y0144184D02*
X0151878Y0144184D01*
X0151878Y0144003D02*
X0151878Y0150944D01*
X0150941Y0151881D01*
X0144891Y0151881D01*
X0143954Y0150944D01*
X0143954Y0149485D01*
X0139395Y0149485D01*
X0138219Y0148998D01*
X0137319Y0148098D01*
X0136832Y0146922D01*
X0136832Y0145649D01*
X0137319Y0144473D01*
X0138219Y0143573D01*
X0138870Y0143303D01*
X0135416Y0143303D01*
X0135416Y0183303D01*
X0167916Y0183303D01*
X0167916Y0150329D01*
X0161590Y0144003D01*
X0151878Y0144003D01*
X0151878Y0147780D02*
X0165367Y0147780D01*
X0166565Y0148978D02*
X0151878Y0148978D01*
X0151878Y0150177D02*
X0167764Y0150177D01*
X0167916Y0151375D02*
X0151447Y0151375D01*
X0144385Y0151375D02*
X0135416Y0151375D01*
X0135416Y0150177D02*
X0143954Y0150177D01*
X0138199Y0148978D02*
X0135416Y0148978D01*
X0135416Y0147780D02*
X0137187Y0147780D01*
X0136832Y0146581D02*
X0135416Y0146581D01*
X0135416Y0145383D02*
X0136942Y0145383D01*
X0137608Y0144184D02*
X0135416Y0144184D01*
X0132916Y0144184D02*
X0111959Y0144184D01*
X0112366Y0145383D02*
X0132916Y0145383D01*
X0132916Y0146581D02*
X0112366Y0146581D01*
X0112366Y0147780D02*
X0132916Y0147780D01*
X0132916Y0148978D02*
X0112366Y0148978D01*
X0112366Y0150177D02*
X0132916Y0150177D01*
X0132916Y0151375D02*
X0112366Y0151375D01*
X0112366Y0152574D02*
X0132916Y0152574D01*
X0132916Y0153772D02*
X0112366Y0153772D01*
X0112366Y0154971D02*
X0132916Y0154971D01*
X0132916Y0156169D02*
X0112366Y0156169D01*
X0112366Y0157368D02*
X0132916Y0157368D01*
X0132916Y0158566D02*
X0112366Y0158566D01*
X0112366Y0159765D02*
X0116603Y0159765D01*
X0116928Y0159439D02*
X0115991Y0160377D01*
X0115991Y0162704D01*
X0115966Y0162765D01*
X0115966Y0170288D01*
X0116453Y0171464D01*
X0117353Y0172364D01*
X0118529Y0172852D01*
X0119802Y0172852D01*
X0120979Y0172364D01*
X0121879Y0171464D01*
X0122366Y0170288D01*
X0122366Y0162765D01*
X0122341Y0162704D01*
X0122341Y0160377D01*
X0121403Y0159439D01*
X0116928Y0159439D01*
X0115991Y0160963D02*
X0112366Y0160963D01*
X0112366Y0162162D02*
X0115991Y0162162D01*
X0115966Y0163360D02*
X0112366Y0163360D01*
X0112366Y0164559D02*
X0115966Y0164559D01*
X0115966Y0165757D02*
X0112366Y0165757D01*
X0112366Y0166956D02*
X0115966Y0166956D01*
X0115966Y0168154D02*
X0112366Y0168154D01*
X0112366Y0169353D02*
X0115966Y0169353D01*
X0116075Y0170551D02*
X0112216Y0170551D01*
X0111495Y0171750D02*
X0116739Y0171750D01*
X0121593Y0171750D02*
X0132916Y0171750D01*
X0132916Y0172948D02*
X0105416Y0172948D01*
X0105416Y0171750D02*
X0106837Y0171750D01*
X0106116Y0170551D02*
X0105416Y0170551D01*
X0105416Y0169353D02*
X0105966Y0169353D01*
X0105966Y0168154D02*
X0105416Y0168154D01*
X0105416Y0166956D02*
X0105966Y0166956D01*
X0105966Y0165757D02*
X0105416Y0165757D01*
X0105416Y0164559D02*
X0105966Y0164559D01*
X0105966Y0163360D02*
X0105416Y0163360D01*
X0105416Y0162162D02*
X0105966Y0162162D01*
X0105966Y0160963D02*
X0105416Y0160963D01*
X0105416Y0159765D02*
X0105966Y0159765D01*
X0105966Y0158566D02*
X0105416Y0158566D01*
X0105416Y0157368D02*
X0105966Y0157368D01*
X0105966Y0156169D02*
X0105416Y0156169D01*
X0105416Y0154971D02*
X0105966Y0154971D01*
X0105966Y0153772D02*
X0105416Y0153772D01*
X0105416Y0152574D02*
X0105966Y0152574D01*
X0105966Y0151375D02*
X0105416Y0151375D01*
X0105416Y0150177D02*
X0105966Y0150177D01*
X0105966Y0148978D02*
X0104841Y0148978D01*
X0105966Y0147780D02*
X0103642Y0147780D01*
X0102444Y0146581D02*
X0105418Y0146581D01*
X0104220Y0145383D02*
X0097916Y0145383D01*
X0097916Y0144184D02*
X0103021Y0144184D01*
X0101823Y0142986D02*
X0097916Y0142986D01*
X0097916Y0141787D02*
X0100624Y0141787D01*
X0099426Y0140589D02*
X0097916Y0140589D01*
X0097916Y0139390D02*
X0098227Y0139390D01*
X0095416Y0139390D02*
X0074166Y0139390D01*
X0074166Y0138191D02*
X0095416Y0138191D01*
X0095416Y0136993D02*
X0074166Y0136993D01*
X0074166Y0135794D02*
X0095416Y0135794D01*
X0095416Y0134596D02*
X0074166Y0134596D01*
X0074166Y0133397D02*
X0095416Y0133397D01*
X0095416Y0132199D02*
X0074166Y0132199D01*
X0074166Y0131000D02*
X0095416Y0131000D01*
X0095416Y0129802D02*
X0074166Y0129802D01*
X0074166Y0128603D02*
X0095416Y0128603D01*
X0095416Y0127405D02*
X0074166Y0127405D01*
X0074166Y0126206D02*
X0095416Y0126206D01*
X0095416Y0125008D02*
X0074166Y0125008D01*
X0074166Y0123809D02*
X0095416Y0123809D01*
X0095416Y0122611D02*
X0074166Y0122611D01*
X0074166Y0121412D02*
X0095416Y0121412D01*
X0095416Y0120214D02*
X0074166Y0120214D01*
X0074166Y0119015D02*
X0095416Y0119015D01*
X0095416Y0117817D02*
X0074166Y0117817D01*
X0074166Y0116618D02*
X0095416Y0116618D01*
X0095416Y0115420D02*
X0074166Y0115420D01*
X0074166Y0114221D02*
X0095416Y0114221D01*
X0095416Y0113023D02*
X0074166Y0113023D01*
X0074166Y0111824D02*
X0095416Y0111824D01*
X0095416Y0110626D02*
X0074166Y0110626D01*
X0074166Y0109427D02*
X0095416Y0109427D01*
X0095416Y0108229D02*
X0074166Y0108229D01*
X0074166Y0107030D02*
X0095416Y0107030D01*
X0095416Y0105832D02*
X0074166Y0105832D01*
X0074166Y0104633D02*
X0095416Y0104633D01*
X0095416Y0103435D02*
X0074166Y0103435D01*
X0074166Y0102236D02*
X0095416Y0102236D01*
X0095416Y0101038D02*
X0074166Y0101038D01*
X0074166Y0099839D02*
X0095416Y0099839D01*
X0095416Y0098641D02*
X0074166Y0098641D01*
X0074166Y0097442D02*
X0095416Y0097442D01*
X0095416Y0097053D02*
X0074166Y0097053D01*
X0074166Y0180803D01*
X0102916Y0180803D01*
X0102916Y0151428D01*
X0099791Y0148303D01*
X0095416Y0148303D01*
X0095416Y0097053D01*
X0097616Y0097442D02*
X0101080Y0097442D01*
X0101080Y0098641D02*
X0097616Y0098641D01*
X0097616Y0099839D02*
X0101081Y0099839D01*
X0100735Y0101038D02*
X0097616Y0101038D01*
X0097616Y0102236D02*
X0099536Y0102236D01*
X0098338Y0103435D02*
X0097616Y0103435D01*
X0102595Y0108229D02*
X0153954Y0108229D01*
X0153954Y0109427D02*
X0102366Y0109427D01*
X0102366Y0110626D02*
X0153954Y0110626D01*
X0153954Y0111824D02*
X0102366Y0111824D01*
X0102366Y0113023D02*
X0153954Y0113023D01*
X0153954Y0114221D02*
X0102366Y0114221D01*
X0102366Y0115420D02*
X0153954Y0115420D01*
X0153954Y0116618D02*
X0141842Y0116618D01*
X0142616Y0117817D02*
X0154291Y0117817D01*
X0153954Y0117480D02*
X0154891Y0118417D01*
X0160941Y0118417D01*
X0161878Y0117480D01*
X0161878Y0110884D01*
X0165629Y0107134D01*
X0166116Y0105957D01*
X0166116Y0089059D01*
X0165629Y0087883D01*
X0164729Y0086983D01*
X0163552Y0086496D01*
X0162279Y0086496D01*
X0161103Y0086983D01*
X0160203Y0087883D01*
X0159716Y0089059D01*
X0159716Y0102225D01*
X0154891Y0102225D01*
X0153954Y0103162D01*
X0153954Y0117480D01*
X0161541Y0117817D02*
X0179695Y0117817D01*
X0178344Y0116618D02*
X0161878Y0116618D01*
X0161878Y0115420D02*
X0177380Y0115420D01*
X0176883Y0114221D02*
X0161878Y0114221D01*
X0161878Y0113023D02*
X0176523Y0113023D01*
X0176523Y0111824D02*
X0161878Y0111824D01*
X0162136Y0110626D02*
X0176544Y0110626D01*
X0177040Y0109427D02*
X0163335Y0109427D01*
X0164534Y0108229D02*
X0177537Y0108229D01*
X0178723Y0107030D02*
X0165672Y0107030D01*
X0166116Y0105832D02*
X0180610Y0105832D01*
X0181904Y0103771D02*
X0179435Y0102748D01*
X0177545Y0100859D01*
X0176523Y0098389D01*
X0176523Y0095717D01*
X0177545Y0093248D01*
X0179435Y0091358D01*
X0181904Y0090335D01*
X0184577Y0090335D01*
X0187046Y0091358D01*
X0188936Y0093248D01*
X0189187Y0093853D01*
X0212786Y0093853D01*
X0213835Y0092805D01*
X0216304Y0091782D01*
X0218977Y0091782D01*
X0221446Y0092805D01*
X0223336Y0094694D01*
X0224358Y0097164D01*
X0224358Y0099836D01*
X0223336Y0102305D01*
X0221446Y0104195D01*
X0218977Y0105218D01*
X0216304Y0105218D01*
X0213835Y0104195D01*
X0211945Y0102305D01*
X0211095Y0100253D01*
X0189187Y0100253D01*
X0188936Y0100859D01*
X0187046Y0102748D01*
X0184577Y0103771D01*
X0181904Y0103771D01*
X0181092Y0103435D02*
X0166116Y0103435D01*
X0166116Y0104633D02*
X0214892Y0104633D01*
X0213074Y0103435D02*
X0185390Y0103435D01*
X0185871Y0105832D02*
X0230716Y0105832D01*
X0230716Y0107030D02*
X0219671Y0107030D01*
X0220389Y0104633D02*
X0230716Y0104633D01*
X0230716Y0103435D02*
X0222206Y0103435D01*
X0223364Y0102236D02*
X0230716Y0102236D01*
X0230716Y0101038D02*
X0223861Y0101038D01*
X0224357Y0099839D02*
X0230716Y0099839D01*
X0230716Y0098641D02*
X0224358Y0098641D01*
X0224358Y0097442D02*
X0230716Y0097442D01*
X0230716Y0096244D02*
X0223977Y0096244D01*
X0223481Y0095045D02*
X0230716Y0095045D01*
X0230716Y0093847D02*
X0222488Y0093847D01*
X0221068Y0092648D02*
X0230716Y0092648D01*
X0230716Y0091450D02*
X0187138Y0091450D01*
X0188336Y0092648D02*
X0214213Y0092648D01*
X0212793Y0093847D02*
X0189184Y0093847D01*
X0188757Y0101038D02*
X0211420Y0101038D01*
X0211916Y0102236D02*
X0187559Y0102236D01*
X0187758Y0107030D02*
X0215609Y0107030D01*
X0213371Y0108229D02*
X0188944Y0108229D01*
X0178923Y0102236D02*
X0166116Y0102236D01*
X0166116Y0101038D02*
X0177724Y0101038D01*
X0177123Y0099839D02*
X0166116Y0099839D01*
X0166116Y0098641D02*
X0176627Y0098641D01*
X0176523Y0097442D02*
X0166116Y0097442D01*
X0166116Y0096244D02*
X0176523Y0096244D01*
X0176801Y0095045D02*
X0166116Y0095045D01*
X0166116Y0093847D02*
X0177297Y0093847D01*
X0178145Y0092648D02*
X0166116Y0092648D01*
X0166116Y0091450D02*
X0179343Y0091450D01*
X0166116Y0090251D02*
X0230716Y0090251D01*
X0230716Y0089053D02*
X0166113Y0089053D01*
X0165600Y0087854D02*
X0230716Y0087854D01*
X0230716Y0086656D02*
X0163938Y0086656D01*
X0161894Y0086656D02*
X0159353Y0086656D01*
X0159413Y0087854D02*
X0160232Y0087854D01*
X0159719Y0089053D02*
X0159413Y0089053D01*
X0159413Y0090251D02*
X0159716Y0090251D01*
X0159716Y0091450D02*
X0159413Y0091450D01*
X0159413Y0092648D02*
X0159716Y0092648D01*
X0159716Y0093847D02*
X0159413Y0093847D01*
X0159259Y0095045D02*
X0159716Y0095045D01*
X0159716Y0096244D02*
X0158941Y0096244D01*
X0159413Y0097442D02*
X0159716Y0097442D01*
X0159716Y0098641D02*
X0159413Y0098641D01*
X0159413Y0099839D02*
X0159716Y0099839D01*
X0159716Y0101038D02*
X0158975Y0101038D01*
X0154880Y0102236D02*
X0134015Y0102236D01*
X0135214Y0101038D02*
X0138107Y0101038D01*
X0137669Y0099839D02*
X0135815Y0099839D01*
X0136311Y0098641D02*
X0137669Y0098641D01*
X0137669Y0097442D02*
X0136415Y0097442D01*
X0136415Y0096244D02*
X0138141Y0096244D01*
X0137823Y0095045D02*
X0136137Y0095045D01*
X0135641Y0093847D02*
X0137669Y0093847D01*
X0137669Y0092648D02*
X0134793Y0092648D01*
X0133595Y0091450D02*
X0137669Y0091450D01*
X0137669Y0090251D02*
X0057591Y0090251D01*
X0057591Y0089053D02*
X0137669Y0089053D01*
X0137669Y0087854D02*
X0057591Y0087854D01*
X0057591Y0086656D02*
X0137729Y0086656D01*
X0138235Y0085457D02*
X0057591Y0085457D01*
X0057591Y0084258D02*
X0137669Y0084258D01*
X0137669Y0083060D02*
X0057591Y0083060D01*
X0057591Y0081861D02*
X0137669Y0081861D01*
X0137732Y0080663D02*
X0057591Y0080663D01*
X0057591Y0079464D02*
X0137669Y0079464D01*
X0137669Y0078266D02*
X0057591Y0078266D01*
X0057591Y0091450D02*
X0125800Y0091450D01*
X0124602Y0092648D02*
X0111225Y0092648D01*
X0112645Y0093847D02*
X0123754Y0093847D01*
X0124181Y0101038D02*
X0114018Y0101038D01*
X0113522Y0102236D02*
X0125380Y0102236D01*
X0127548Y0103435D02*
X0112364Y0103435D01*
X0110546Y0104633D02*
X0153954Y0104633D01*
X0153954Y0103435D02*
X0131846Y0103435D01*
X0140416Y0119015D02*
X0122366Y0119015D01*
X0122341Y0120214D02*
X0140416Y0120214D01*
X0140416Y0121412D02*
X0122069Y0121412D01*
X0116262Y0121412D02*
X0102366Y0121412D01*
X0102366Y0120214D02*
X0115991Y0120214D01*
X0115966Y0119015D02*
X0102366Y0119015D01*
X0102366Y0122611D02*
X0140416Y0122611D01*
X0140416Y0123809D02*
X0102366Y0123809D01*
X0102366Y0125008D02*
X0140416Y0125008D01*
X0140416Y0126206D02*
X0102366Y0126206D01*
X0102366Y0127405D02*
X0140416Y0127405D01*
X0140416Y0128603D02*
X0102366Y0128603D01*
X0102366Y0129802D02*
X0140416Y0129802D01*
X0140416Y0131000D02*
X0102366Y0131000D01*
X0102366Y0132199D02*
X0140416Y0132199D01*
X0140416Y0133397D02*
X0102366Y0133397D01*
X0102484Y0134596D02*
X0140416Y0134596D01*
X0140416Y0135794D02*
X0103683Y0135794D01*
X0104881Y0136993D02*
X0140416Y0136993D01*
X0140416Y0138191D02*
X0106080Y0138191D01*
X0107278Y0139390D02*
X0140416Y0139390D01*
X0140416Y0140589D02*
X0108477Y0140589D01*
X0109675Y0141787D02*
X0132916Y0141787D01*
X0132916Y0142986D02*
X0110874Y0142986D01*
X0102863Y0151375D02*
X0074166Y0151375D01*
X0074166Y0150177D02*
X0101664Y0150177D01*
X0100466Y0148978D02*
X0074166Y0148978D01*
X0074166Y0147780D02*
X0095416Y0147780D01*
X0095416Y0146581D02*
X0074166Y0146581D01*
X0074166Y0145383D02*
X0095416Y0145383D01*
X0095416Y0144184D02*
X0074166Y0144184D01*
X0074166Y0142986D02*
X0095416Y0142986D01*
X0095416Y0141787D02*
X0074166Y0141787D01*
X0074166Y0140589D02*
X0095416Y0140589D01*
X0102916Y0152574D02*
X0074166Y0152574D01*
X0074166Y0153772D02*
X0102916Y0153772D01*
X0102916Y0154971D02*
X0074166Y0154971D01*
X0074166Y0156169D02*
X0102916Y0156169D01*
X0102916Y0157368D02*
X0074166Y0157368D01*
X0074166Y0158566D02*
X0102916Y0158566D01*
X0102916Y0159765D02*
X0074166Y0159765D01*
X0074166Y0160963D02*
X0102916Y0160963D01*
X0102916Y0162162D02*
X0074166Y0162162D01*
X0074166Y0163360D02*
X0102916Y0163360D01*
X0102916Y0164559D02*
X0074166Y0164559D01*
X0074166Y0165757D02*
X0102916Y0165757D01*
X0102916Y0166956D02*
X0074166Y0166956D01*
X0074166Y0168154D02*
X0102916Y0168154D01*
X0102916Y0169353D02*
X0074166Y0169353D01*
X0074166Y0170551D02*
X0102916Y0170551D01*
X0102916Y0171750D02*
X0074166Y0171750D01*
X0074166Y0172948D02*
X0102916Y0172948D01*
X0102916Y0174147D02*
X0074166Y0174147D01*
X0074166Y0175345D02*
X0102916Y0175345D01*
X0102916Y0176544D02*
X0074166Y0176544D01*
X0074166Y0177742D02*
X0102916Y0177742D01*
X0102916Y0178941D02*
X0074166Y0178941D01*
X0074166Y0180139D02*
X0102916Y0180139D01*
X0105416Y0180139D02*
X0132916Y0180139D01*
X0132916Y0178941D02*
X0105416Y0178941D01*
X0105416Y0177742D02*
X0132916Y0177742D01*
X0132916Y0176544D02*
X0105416Y0176544D01*
X0105416Y0175345D02*
X0132916Y0175345D01*
X0132916Y0174147D02*
X0105416Y0174147D01*
X0105416Y0181338D02*
X0132916Y0181338D01*
X0132916Y0182536D02*
X0105416Y0182536D01*
X0103216Y0183735D02*
X0057591Y0183735D01*
X0057591Y0184933D02*
X0103216Y0184933D01*
X0103216Y0186132D02*
X0057591Y0186132D01*
X0057591Y0187330D02*
X0103216Y0187330D01*
X0103216Y0188529D02*
X0057591Y0188529D01*
X0057591Y0189727D02*
X0103216Y0189727D01*
X0103216Y0190926D02*
X0057591Y0190926D01*
X0057591Y0192125D02*
X0103216Y0192125D01*
X0112341Y0186132D02*
X0115991Y0186132D01*
X0116237Y0184933D02*
X0112094Y0184933D01*
X0122257Y0170551D02*
X0132916Y0170551D01*
X0132916Y0169353D02*
X0122366Y0169353D01*
X0122366Y0168154D02*
X0132916Y0168154D01*
X0132916Y0166956D02*
X0122366Y0166956D01*
X0122366Y0165757D02*
X0132916Y0165757D01*
X0132916Y0164559D02*
X0122366Y0164559D01*
X0122366Y0163360D02*
X0132916Y0163360D01*
X0132916Y0162162D02*
X0122341Y0162162D01*
X0122341Y0160963D02*
X0132916Y0160963D01*
X0132916Y0159765D02*
X0121729Y0159765D01*
X0135416Y0159765D02*
X0167916Y0159765D01*
X0167916Y0160963D02*
X0135416Y0160963D01*
X0135416Y0162162D02*
X0167916Y0162162D01*
X0167916Y0163360D02*
X0135416Y0163360D01*
X0135416Y0164559D02*
X0167916Y0164559D01*
X0167916Y0165757D02*
X0135416Y0165757D01*
X0135416Y0166956D02*
X0167916Y0166956D01*
X0167916Y0168154D02*
X0135416Y0168154D01*
X0135416Y0169353D02*
X0167916Y0169353D01*
X0167916Y0170551D02*
X0135416Y0170551D01*
X0135416Y0171750D02*
X0167916Y0171750D01*
X0167916Y0172948D02*
X0135416Y0172948D01*
X0135416Y0174147D02*
X0167916Y0174147D01*
X0167916Y0175345D02*
X0135416Y0175345D01*
X0135416Y0176544D02*
X0167916Y0176544D01*
X0167916Y0177742D02*
X0135416Y0177742D01*
X0135416Y0178941D02*
X0167916Y0178941D01*
X0167916Y0180139D02*
X0135416Y0180139D01*
X0135416Y0181338D02*
X0167916Y0181338D01*
X0167916Y0182536D02*
X0135416Y0182536D01*
X0135416Y0158566D02*
X0167916Y0158566D01*
X0167916Y0157368D02*
X0135416Y0157368D01*
X0135416Y0156169D02*
X0167916Y0156169D01*
X0167916Y0154971D02*
X0135416Y0154971D01*
X0135416Y0153772D02*
X0167916Y0153772D01*
X0167916Y0152574D02*
X0135416Y0152574D01*
X0142616Y0140589D02*
X0178340Y0140589D01*
X0177141Y0139390D02*
X0142616Y0139390D01*
X0142616Y0138191D02*
X0175943Y0138191D01*
X0175716Y0136993D02*
X0142616Y0136993D01*
X0142616Y0135794D02*
X0175716Y0135794D01*
X0175716Y0134596D02*
X0142616Y0134596D01*
X0142616Y0133397D02*
X0175716Y0133397D01*
X0175716Y0132199D02*
X0142616Y0132199D01*
X0142616Y0131000D02*
X0175506Y0131000D01*
X0175010Y0129802D02*
X0142616Y0129802D01*
X0142616Y0128603D02*
X0174554Y0128603D01*
X0174554Y0127405D02*
X0142616Y0127405D01*
X0142616Y0126206D02*
X0174554Y0126206D01*
X0174653Y0125008D02*
X0142616Y0125008D01*
X0142616Y0123809D02*
X0175149Y0123809D01*
X0175646Y0122611D02*
X0142616Y0122611D01*
X0142616Y0121412D02*
X0175716Y0121412D01*
X0175716Y0120214D02*
X0142616Y0120214D01*
X0142616Y0119015D02*
X0176592Y0119015D01*
X0177916Y0121412D02*
X0197044Y0121412D01*
X0197264Y0122611D02*
X0177916Y0122611D01*
X0177916Y0123809D02*
X0226159Y0123809D01*
X0225991Y0122611D02*
X0203568Y0122611D01*
X0203788Y0121412D02*
X0225966Y0121412D01*
X0222785Y0117817D02*
X0229466Y0117817D01*
X0229466Y0116618D02*
X0223604Y0116618D01*
X0224100Y0115420D02*
X0230188Y0115420D01*
X0230716Y0114221D02*
X0224358Y0114221D01*
X0224358Y0113023D02*
X0230716Y0113023D01*
X0230716Y0111824D02*
X0224234Y0111824D01*
X0223738Y0110626D02*
X0230716Y0110626D01*
X0230716Y0109427D02*
X0223108Y0109427D01*
X0221909Y0108229D02*
X0230716Y0108229D01*
X0233720Y0105832D02*
X0277221Y0105832D01*
X0277221Y0107030D02*
X0234918Y0107030D01*
X0235629Y0107740D02*
X0236116Y0108917D01*
X0236116Y0114553D01*
X0262916Y0114553D01*
X0262916Y0158303D01*
X0277221Y0158303D01*
X0277221Y0093303D01*
X0250416Y0093303D01*
X0242916Y0085803D01*
X0232916Y0085803D01*
X0232916Y0105028D01*
X0234104Y0106215D01*
X0235629Y0107740D01*
X0235831Y0108229D02*
X0277221Y0108229D01*
X0277221Y0109427D02*
X0236116Y0109427D01*
X0236116Y0110626D02*
X0277221Y0110626D01*
X0277221Y0111824D02*
X0236116Y0111824D01*
X0236116Y0113023D02*
X0277221Y0113023D01*
X0277221Y0114221D02*
X0236116Y0114221D01*
X0236116Y0117817D02*
X0260416Y0117817D01*
X0260416Y0119015D02*
X0237849Y0119015D01*
X0238591Y0120214D02*
X0260416Y0120214D01*
X0260416Y0121412D02*
X0238616Y0121412D01*
X0238591Y0122611D02*
X0260416Y0122611D01*
X0260416Y0123809D02*
X0238422Y0123809D01*
X0234104Y0106215D02*
X0234104Y0106215D01*
X0232916Y0104633D02*
X0277221Y0104633D01*
X0277221Y0103435D02*
X0232916Y0103435D01*
X0232916Y0102236D02*
X0277221Y0102236D01*
X0277221Y0101038D02*
X0232916Y0101038D01*
X0232916Y0099839D02*
X0277221Y0099839D01*
X0277221Y0098641D02*
X0232916Y0098641D01*
X0232916Y0097442D02*
X0277221Y0097442D01*
X0277221Y0096244D02*
X0232916Y0096244D01*
X0232916Y0095045D02*
X0277221Y0095045D01*
X0277221Y0093847D02*
X0232916Y0093847D01*
X0232916Y0092648D02*
X0249761Y0092648D01*
X0248562Y0091450D02*
X0232916Y0091450D01*
X0232916Y0090251D02*
X0247364Y0090251D01*
X0246165Y0089053D02*
X0232916Y0089053D01*
X0232916Y0087854D02*
X0244967Y0087854D01*
X0243768Y0086656D02*
X0232916Y0086656D01*
X0230716Y0085457D02*
X0158847Y0085457D01*
X0159413Y0084258D02*
X0231349Y0084258D01*
X0259016Y0065082D02*
X0084575Y0065082D01*
X0084575Y0063884D02*
X0258261Y0063884D01*
X0257879Y0062685D02*
X0084575Y0062685D01*
X0084575Y0061487D02*
X0257879Y0061487D01*
X0258233Y0060288D02*
X0084575Y0060288D01*
X0084575Y0059090D02*
X0258950Y0059090D01*
X0260557Y0057891D02*
X0084575Y0057891D01*
X0084575Y0056693D02*
X0270351Y0056693D01*
X0270351Y0057891D02*
X0270275Y0057891D01*
X0270351Y0055494D02*
X0084575Y0055494D01*
X0084575Y0054296D02*
X0270351Y0054296D01*
X0270351Y0053097D02*
X0084575Y0053097D01*
X0084575Y0051899D02*
X0270351Y0051899D01*
X0270351Y0050700D02*
X0084575Y0050700D01*
X0084575Y0066281D02*
X0260716Y0066281D01*
X0270116Y0066281D02*
X0270351Y0066281D01*
X0270351Y0067479D02*
X0084575Y0067479D01*
X0084032Y0077067D02*
X0137669Y0077067D01*
X0104370Y0092648D02*
X0057591Y0092648D01*
X0057591Y0093847D02*
X0102950Y0093847D01*
X0101957Y0095045D02*
X0096519Y0095045D01*
X0097616Y0096244D02*
X0101461Y0096244D01*
X0104992Y0105832D02*
X0153954Y0105832D01*
X0153954Y0107030D02*
X0103793Y0107030D01*
X0073063Y0095045D02*
X0057591Y0095045D01*
X0057591Y0096244D02*
X0071966Y0096244D01*
X0071966Y0097442D02*
X0057591Y0097442D01*
X0057591Y0098641D02*
X0071966Y0098641D01*
X0071966Y0099839D02*
X0057591Y0099839D01*
X0057591Y0101038D02*
X0071966Y0101038D01*
X0071966Y0102236D02*
X0057591Y0102236D01*
X0057591Y0103435D02*
X0071966Y0103435D01*
X0071966Y0104633D02*
X0057591Y0104633D01*
X0057591Y0105832D02*
X0071966Y0105832D01*
X0071966Y0107030D02*
X0057591Y0107030D01*
X0057591Y0108229D02*
X0071966Y0108229D01*
X0071966Y0109427D02*
X0057591Y0109427D01*
X0057591Y0110626D02*
X0071966Y0110626D01*
X0071966Y0111824D02*
X0057591Y0111824D01*
X0057591Y0113023D02*
X0071966Y0113023D01*
X0071966Y0114221D02*
X0057591Y0114221D01*
X0057591Y0115420D02*
X0071966Y0115420D01*
X0071966Y0116618D02*
X0057591Y0116618D01*
X0057591Y0117817D02*
X0071966Y0117817D01*
X0071966Y0119015D02*
X0057591Y0119015D01*
X0057591Y0120214D02*
X0071966Y0120214D01*
X0071966Y0121412D02*
X0057591Y0121412D01*
X0057591Y0122611D02*
X0071966Y0122611D01*
X0071966Y0123809D02*
X0057591Y0123809D01*
X0057591Y0125008D02*
X0071966Y0125008D01*
X0071966Y0126206D02*
X0057591Y0126206D01*
X0057591Y0127405D02*
X0071966Y0127405D01*
X0071966Y0128603D02*
X0057591Y0128603D01*
X0057591Y0129802D02*
X0071966Y0129802D01*
X0071966Y0131000D02*
X0057591Y0131000D01*
X0057591Y0132199D02*
X0071966Y0132199D01*
X0071966Y0133397D02*
X0057591Y0133397D01*
X0057591Y0134596D02*
X0071966Y0134596D01*
X0071966Y0135794D02*
X0057591Y0135794D01*
X0057591Y0136993D02*
X0071966Y0136993D01*
X0071966Y0138191D02*
X0057591Y0138191D01*
X0057591Y0139390D02*
X0071966Y0139390D01*
X0071966Y0140589D02*
X0057591Y0140589D01*
X0057591Y0141787D02*
X0071966Y0141787D01*
X0071966Y0142986D02*
X0057591Y0142986D01*
X0057591Y0144184D02*
X0071966Y0144184D01*
X0071966Y0145383D02*
X0057591Y0145383D01*
X0057591Y0146581D02*
X0071966Y0146581D01*
X0071966Y0147780D02*
X0057591Y0147780D01*
X0057591Y0148978D02*
X0071966Y0148978D01*
X0071966Y0150177D02*
X0057591Y0150177D01*
X0057591Y0151375D02*
X0071966Y0151375D01*
X0071966Y0152574D02*
X0057591Y0152574D01*
X0057591Y0153772D02*
X0071966Y0153772D01*
X0071966Y0154971D02*
X0057591Y0154971D01*
X0057591Y0156169D02*
X0071966Y0156169D01*
X0071966Y0157368D02*
X0057591Y0157368D01*
X0057591Y0158566D02*
X0071966Y0158566D01*
X0071966Y0159765D02*
X0057591Y0159765D01*
X0057591Y0160963D02*
X0071966Y0160963D01*
X0071966Y0162162D02*
X0057591Y0162162D01*
X0057591Y0163360D02*
X0071966Y0163360D01*
X0071966Y0164559D02*
X0057591Y0164559D01*
X0057591Y0165757D02*
X0071966Y0165757D01*
X0071966Y0166956D02*
X0057591Y0166956D01*
X0057591Y0168154D02*
X0071966Y0168154D01*
X0071966Y0169353D02*
X0057591Y0169353D01*
X0057591Y0170551D02*
X0071966Y0170551D01*
X0071966Y0171750D02*
X0057591Y0171750D01*
X0057591Y0172948D02*
X0071966Y0172948D01*
X0071966Y0174147D02*
X0057591Y0174147D01*
X0057591Y0175345D02*
X0071966Y0175345D01*
X0071966Y0176544D02*
X0057591Y0176544D01*
X0057591Y0177742D02*
X0071966Y0177742D01*
X0071966Y0178941D02*
X0057591Y0178941D01*
X0057591Y0180139D02*
X0071966Y0180139D01*
X0071966Y0181338D02*
X0057591Y0181338D01*
X0057591Y0182536D02*
X0072788Y0182536D01*
X0177916Y0136993D02*
X0260416Y0136993D01*
X0260416Y0138191D02*
X0179054Y0138191D01*
X0180253Y0139390D02*
X0260416Y0139390D01*
X0260416Y0140589D02*
X0181451Y0140589D01*
X0182650Y0141787D02*
X0260416Y0141787D01*
X0260416Y0142986D02*
X0183848Y0142986D01*
X0177916Y0135794D02*
X0260416Y0135794D01*
X0260416Y0134596D02*
X0177916Y0134596D01*
X0177916Y0133397D02*
X0260416Y0133397D01*
X0260416Y0132199D02*
X0177916Y0132199D01*
X0177916Y0131000D02*
X0260416Y0131000D01*
X0260416Y0129802D02*
X0177916Y0129802D01*
X0177916Y0128603D02*
X0260416Y0128603D01*
X0260416Y0127405D02*
X0177916Y0127405D01*
X0177916Y0126206D02*
X0260416Y0126206D01*
X0260416Y0125008D02*
X0177916Y0125008D01*
X0205416Y0144184D02*
X0260416Y0144184D01*
X0260416Y0145383D02*
X0205416Y0145383D01*
X0205416Y0146581D02*
X0260416Y0146581D01*
X0260416Y0147780D02*
X0205416Y0147780D01*
X0205416Y0148978D02*
X0260416Y0148978D01*
X0260416Y0150177D02*
X0205416Y0150177D01*
X0205416Y0151375D02*
X0260416Y0151375D01*
X0260416Y0152574D02*
X0210768Y0152574D01*
X0211435Y0153772D02*
X0260416Y0153772D01*
X0260416Y0154971D02*
X0211435Y0154971D01*
X0211435Y0156169D02*
X0260416Y0156169D01*
X0260416Y0157368D02*
X0211435Y0157368D01*
X0211454Y0158566D02*
X0260416Y0158566D01*
X0260416Y0159765D02*
X0212653Y0159765D01*
X0213851Y0160963D02*
X0260416Y0160963D01*
X0260416Y0162162D02*
X0223800Y0162162D01*
X0224635Y0163360D02*
X0260416Y0163360D01*
X0260416Y0164559D02*
X0224866Y0164559D01*
X0224631Y0165757D02*
X0260416Y0165757D01*
X0260416Y0166956D02*
X0223789Y0166956D01*
X0262916Y0157368D02*
X0277221Y0157368D01*
X0277221Y0156169D02*
X0262916Y0156169D01*
X0262916Y0154971D02*
X0277221Y0154971D01*
X0277221Y0153772D02*
X0262916Y0153772D01*
X0262916Y0152574D02*
X0277221Y0152574D01*
X0277221Y0151375D02*
X0262916Y0151375D01*
X0262916Y0150177D02*
X0277221Y0150177D01*
X0277221Y0148978D02*
X0262916Y0148978D01*
X0262916Y0147780D02*
X0277221Y0147780D01*
X0277221Y0146581D02*
X0262916Y0146581D01*
X0262916Y0145383D02*
X0277221Y0145383D01*
X0277221Y0144184D02*
X0262916Y0144184D01*
X0262916Y0142986D02*
X0277221Y0142986D01*
X0277221Y0141787D02*
X0262916Y0141787D01*
X0262916Y0140589D02*
X0277221Y0140589D01*
X0277221Y0139390D02*
X0262916Y0139390D01*
X0262916Y0138191D02*
X0277221Y0138191D01*
X0277221Y0136993D02*
X0262916Y0136993D01*
X0262916Y0135794D02*
X0277221Y0135794D01*
X0277221Y0134596D02*
X0262916Y0134596D01*
X0262916Y0133397D02*
X0277221Y0133397D01*
X0277221Y0132199D02*
X0262916Y0132199D01*
X0262916Y0131000D02*
X0277221Y0131000D01*
X0277221Y0129802D02*
X0262916Y0129802D01*
X0262916Y0128603D02*
X0277221Y0128603D01*
X0277221Y0127405D02*
X0262916Y0127405D01*
X0262916Y0126206D02*
X0277221Y0126206D01*
X0277221Y0125008D02*
X0262916Y0125008D01*
X0262916Y0123809D02*
X0277221Y0123809D01*
X0277221Y0122611D02*
X0262916Y0122611D01*
X0262916Y0121412D02*
X0277221Y0121412D01*
X0277221Y0120214D02*
X0262916Y0120214D01*
X0262916Y0119015D02*
X0277221Y0119015D01*
X0277221Y0117817D02*
X0262916Y0117817D01*
X0262916Y0116618D02*
X0277221Y0116618D01*
X0277221Y0115420D02*
X0262916Y0115420D01*
D32*
X0092916Y0175803D02*
X0077571Y0160459D01*
X0077571Y0158303D01*
M02*
