G75*
%MOIN*%
%OFA0B0*%
%FSLAX25Y25*%
%IPPOS*%
%LPD*%
%AMOC8*
5,1,8,0,0,1.08239X$1,22.5*
%
%ADD10C,0.00900*%
%ADD11C,0.01100*%
%ADD12C,0.01200*%
%ADD13C,0.01000*%
%ADD14C,0.00500*%
%ADD15C,0.00800*%
%ADD16C,0.02953*%
%ADD17R,0.01969X0.03937*%
%ADD18R,0.02362X0.03937*%
%ADD19C,0.00400*%
%ADD20C,0.00600*%
%ADD21R,0.01800X0.02300*%
%ADD22R,0.01181X0.06299*%
%ADD23R,0.02362X0.03543*%
D10*
X0110866Y0087253D02*
X0110866Y0090353D01*
X0112588Y0090353D02*
X0110866Y0087253D01*
X0112588Y0087253D02*
X0112588Y0090353D01*
X0114586Y0089492D02*
X0114586Y0088114D01*
X0114588Y0088056D01*
X0114594Y0087999D01*
X0114603Y0087943D01*
X0114617Y0087887D01*
X0114634Y0087832D01*
X0114654Y0087778D01*
X0114679Y0087726D01*
X0114706Y0087675D01*
X0114737Y0087627D01*
X0114771Y0087580D01*
X0114808Y0087536D01*
X0114848Y0087495D01*
X0114891Y0087456D01*
X0114936Y0087421D01*
X0114984Y0087388D01*
X0115033Y0087359D01*
X0115085Y0087333D01*
X0115138Y0087311D01*
X0115192Y0087292D01*
X0115247Y0087276D01*
X0115304Y0087265D01*
X0115361Y0087257D01*
X0115418Y0087253D01*
X0115476Y0087253D01*
X0115533Y0087257D01*
X0115590Y0087265D01*
X0115647Y0087276D01*
X0115702Y0087292D01*
X0115756Y0087311D01*
X0115809Y0087333D01*
X0115861Y0087359D01*
X0115910Y0087388D01*
X0115958Y0087421D01*
X0116003Y0087456D01*
X0116046Y0087495D01*
X0116086Y0087536D01*
X0116123Y0087580D01*
X0116157Y0087627D01*
X0116188Y0087675D01*
X0116215Y0087726D01*
X0116240Y0087778D01*
X0116260Y0087832D01*
X0116277Y0087887D01*
X0116291Y0087943D01*
X0116300Y0087999D01*
X0116306Y0088056D01*
X0116308Y0088114D01*
X0116308Y0089492D01*
X0116306Y0089550D01*
X0116300Y0089607D01*
X0116291Y0089663D01*
X0116277Y0089719D01*
X0116260Y0089774D01*
X0116240Y0089828D01*
X0116215Y0089880D01*
X0116188Y0089931D01*
X0116157Y0089979D01*
X0116123Y0090026D01*
X0116086Y0090070D01*
X0116046Y0090111D01*
X0116003Y0090150D01*
X0115958Y0090185D01*
X0115910Y0090218D01*
X0115861Y0090247D01*
X0115809Y0090273D01*
X0115756Y0090295D01*
X0115702Y0090314D01*
X0115647Y0090330D01*
X0115590Y0090341D01*
X0115533Y0090349D01*
X0115476Y0090353D01*
X0115418Y0090353D01*
X0115361Y0090349D01*
X0115304Y0090341D01*
X0115247Y0090330D01*
X0115192Y0090314D01*
X0115138Y0090295D01*
X0115085Y0090273D01*
X0115033Y0090247D01*
X0114984Y0090218D01*
X0114936Y0090185D01*
X0114891Y0090150D01*
X0114848Y0090111D01*
X0114808Y0090070D01*
X0114771Y0090026D01*
X0114737Y0089979D01*
X0114706Y0089931D01*
X0114679Y0089880D01*
X0114654Y0089828D01*
X0114634Y0089774D01*
X0114617Y0089719D01*
X0114603Y0089663D01*
X0114594Y0089607D01*
X0114588Y0089550D01*
X0114586Y0089492D01*
X0118254Y0088975D02*
X0120320Y0088975D01*
X0120320Y0087942D02*
X0118254Y0087942D01*
X0122066Y0087253D02*
X0122238Y0087253D01*
X0122281Y0087255D01*
X0122323Y0087260D01*
X0122365Y0087269D01*
X0122406Y0087281D01*
X0122446Y0087297D01*
X0122484Y0087315D01*
X0122521Y0087337D01*
X0122556Y0087362D01*
X0122588Y0087390D01*
X0122618Y0087420D01*
X0122646Y0087452D01*
X0122671Y0087487D01*
X0122693Y0087524D01*
X0122711Y0087562D01*
X0122727Y0087602D01*
X0122739Y0087643D01*
X0122748Y0087685D01*
X0122753Y0087727D01*
X0122755Y0087770D01*
X0122755Y0090353D01*
X0123099Y0089320D02*
X0122066Y0089320D01*
X0124063Y0089320D02*
X0124063Y0088975D01*
X0124063Y0089320D02*
X0125096Y0089320D01*
X0125096Y0087253D01*
X0126998Y0087942D02*
X0126998Y0088631D01*
X0127000Y0088682D01*
X0127006Y0088734D01*
X0127015Y0088784D01*
X0127029Y0088834D01*
X0127046Y0088883D01*
X0127066Y0088930D01*
X0127090Y0088976D01*
X0127118Y0089019D01*
X0127148Y0089061D01*
X0127182Y0089100D01*
X0127218Y0089136D01*
X0127257Y0089170D01*
X0127299Y0089200D01*
X0127343Y0089228D01*
X0127388Y0089252D01*
X0127435Y0089272D01*
X0127484Y0089289D01*
X0127534Y0089303D01*
X0127584Y0089312D01*
X0127636Y0089318D01*
X0127687Y0089320D01*
X0127738Y0089318D01*
X0127790Y0089312D01*
X0127840Y0089303D01*
X0127890Y0089289D01*
X0127939Y0089272D01*
X0127986Y0089252D01*
X0128032Y0089228D01*
X0128075Y0089200D01*
X0128117Y0089170D01*
X0128156Y0089136D01*
X0128192Y0089100D01*
X0128226Y0089061D01*
X0128256Y0089019D01*
X0128284Y0088976D01*
X0128308Y0088930D01*
X0128328Y0088883D01*
X0128345Y0088834D01*
X0128359Y0088784D01*
X0128368Y0088734D01*
X0128374Y0088682D01*
X0128376Y0088631D01*
X0128376Y0087942D01*
X0128374Y0087891D01*
X0128368Y0087839D01*
X0128359Y0087789D01*
X0128345Y0087739D01*
X0128328Y0087690D01*
X0128308Y0087643D01*
X0128284Y0087598D01*
X0128256Y0087554D01*
X0128226Y0087512D01*
X0128192Y0087473D01*
X0128156Y0087437D01*
X0128117Y0087403D01*
X0128075Y0087373D01*
X0128032Y0087345D01*
X0127986Y0087321D01*
X0127939Y0087301D01*
X0127890Y0087284D01*
X0127840Y0087270D01*
X0127790Y0087261D01*
X0127738Y0087255D01*
X0127687Y0087253D01*
X0127636Y0087255D01*
X0127584Y0087261D01*
X0127534Y0087270D01*
X0127484Y0087284D01*
X0127435Y0087301D01*
X0127388Y0087321D01*
X0127343Y0087345D01*
X0127299Y0087373D01*
X0127257Y0087403D01*
X0127218Y0087437D01*
X0127182Y0087473D01*
X0127148Y0087512D01*
X0127118Y0087554D01*
X0127090Y0087598D01*
X0127066Y0087643D01*
X0127046Y0087690D01*
X0127029Y0087739D01*
X0127015Y0087789D01*
X0127006Y0087839D01*
X0127000Y0087891D01*
X0126998Y0087942D01*
X0130238Y0087253D02*
X0130238Y0088803D01*
X0130240Y0088846D01*
X0130245Y0088888D01*
X0130254Y0088930D01*
X0130266Y0088971D01*
X0130282Y0089011D01*
X0130300Y0089049D01*
X0130322Y0089086D01*
X0130347Y0089121D01*
X0130375Y0089153D01*
X0130405Y0089183D01*
X0130437Y0089211D01*
X0130472Y0089236D01*
X0130509Y0089258D01*
X0130547Y0089276D01*
X0130587Y0089292D01*
X0130628Y0089304D01*
X0130670Y0089313D01*
X0130712Y0089318D01*
X0130755Y0089320D01*
X0131616Y0089320D01*
X0131616Y0090353D02*
X0131616Y0087253D01*
X0133770Y0088545D02*
X0134717Y0089061D01*
X0134373Y0090354D02*
X0134304Y0090352D01*
X0134235Y0090347D01*
X0134166Y0090337D01*
X0134098Y0090324D01*
X0134031Y0090308D01*
X0133964Y0090288D01*
X0133899Y0090264D01*
X0133836Y0090237D01*
X0133773Y0090206D01*
X0133713Y0090173D01*
X0133654Y0090136D01*
X0133598Y0090096D01*
X0134717Y0089061D02*
X0134761Y0089089D01*
X0134803Y0089120D01*
X0134842Y0089154D01*
X0134878Y0089191D01*
X0134912Y0089231D01*
X0134942Y0089273D01*
X0134970Y0089317D01*
X0134994Y0089363D01*
X0135014Y0089410D01*
X0135031Y0089459D01*
X0135045Y0089510D01*
X0135054Y0089561D01*
X0135060Y0089612D01*
X0135062Y0089664D01*
X0135060Y0089715D01*
X0135054Y0089767D01*
X0135045Y0089817D01*
X0135031Y0089867D01*
X0135014Y0089916D01*
X0134994Y0089963D01*
X0134970Y0090009D01*
X0134942Y0090052D01*
X0134912Y0090094D01*
X0134878Y0090133D01*
X0134842Y0090169D01*
X0134803Y0090203D01*
X0134761Y0090233D01*
X0134718Y0090261D01*
X0134672Y0090285D01*
X0134625Y0090305D01*
X0134576Y0090322D01*
X0134526Y0090336D01*
X0134476Y0090345D01*
X0134424Y0090351D01*
X0134373Y0090353D01*
X0135148Y0087683D02*
X0135096Y0087634D01*
X0135042Y0087587D01*
X0134986Y0087542D01*
X0134927Y0087501D01*
X0134867Y0087462D01*
X0134804Y0087427D01*
X0134740Y0087394D01*
X0134675Y0087365D01*
X0134608Y0087339D01*
X0134540Y0087316D01*
X0134470Y0087297D01*
X0134400Y0087281D01*
X0134330Y0087269D01*
X0134258Y0087260D01*
X0134187Y0087255D01*
X0134115Y0087253D01*
X0134064Y0087255D01*
X0134012Y0087261D01*
X0133962Y0087270D01*
X0133912Y0087284D01*
X0133863Y0087301D01*
X0133816Y0087321D01*
X0133771Y0087345D01*
X0133727Y0087373D01*
X0133685Y0087403D01*
X0133646Y0087437D01*
X0133610Y0087473D01*
X0133576Y0087512D01*
X0133546Y0087554D01*
X0133518Y0087597D01*
X0133494Y0087643D01*
X0133474Y0087690D01*
X0133457Y0087739D01*
X0133443Y0087789D01*
X0133434Y0087839D01*
X0133428Y0087891D01*
X0133426Y0087942D01*
X0133425Y0087942D02*
X0133427Y0087994D01*
X0133433Y0088045D01*
X0133442Y0088096D01*
X0133456Y0088147D01*
X0133473Y0088196D01*
X0133493Y0088243D01*
X0133517Y0088289D01*
X0133545Y0088333D01*
X0133575Y0088375D01*
X0133609Y0088415D01*
X0133645Y0088452D01*
X0133684Y0088486D01*
X0133726Y0088517D01*
X0133770Y0088545D01*
X0120841Y0101036D02*
X0118430Y0101036D01*
X0118430Y0101037D02*
X0118379Y0101035D01*
X0118327Y0101029D01*
X0118277Y0101020D01*
X0118227Y0101006D01*
X0118178Y0100989D01*
X0118131Y0100969D01*
X0118086Y0100945D01*
X0118042Y0100917D01*
X0118000Y0100887D01*
X0117961Y0100853D01*
X0117925Y0100817D01*
X0117891Y0100778D01*
X0117861Y0100736D01*
X0117833Y0100693D01*
X0117809Y0100647D01*
X0117789Y0100600D01*
X0117772Y0100551D01*
X0117758Y0100501D01*
X0117749Y0100451D01*
X0117743Y0100399D01*
X0117741Y0100348D01*
X0117741Y0100003D01*
X0117741Y0103228D02*
X0120841Y0103228D01*
X0120841Y0104089D01*
X0120839Y0104147D01*
X0120833Y0104204D01*
X0120824Y0104260D01*
X0120810Y0104316D01*
X0120793Y0104371D01*
X0120773Y0104425D01*
X0120748Y0104477D01*
X0120721Y0104528D01*
X0120690Y0104576D01*
X0120656Y0104623D01*
X0120619Y0104667D01*
X0120579Y0104708D01*
X0120536Y0104747D01*
X0120491Y0104782D01*
X0120443Y0104815D01*
X0120394Y0104844D01*
X0120342Y0104870D01*
X0120289Y0104892D01*
X0120235Y0104911D01*
X0120180Y0104927D01*
X0120123Y0104938D01*
X0120066Y0104946D01*
X0120009Y0104950D01*
X0119951Y0104950D01*
X0119894Y0104946D01*
X0119837Y0104938D01*
X0119780Y0104927D01*
X0119725Y0104911D01*
X0119671Y0104892D01*
X0119618Y0104870D01*
X0119566Y0104844D01*
X0119517Y0104815D01*
X0119469Y0104782D01*
X0119424Y0104747D01*
X0119381Y0104708D01*
X0119341Y0104667D01*
X0119304Y0104623D01*
X0119270Y0104576D01*
X0119239Y0104528D01*
X0119212Y0104477D01*
X0119187Y0104425D01*
X0119167Y0104371D01*
X0119150Y0104316D01*
X0119136Y0104260D01*
X0119127Y0104204D01*
X0119121Y0104147D01*
X0119119Y0104089D01*
X0119119Y0103228D01*
X0117741Y0106606D02*
X0117741Y0108329D01*
X0117741Y0106606D02*
X0119463Y0108070D01*
X0120841Y0107554D02*
X0120839Y0107494D01*
X0120834Y0107435D01*
X0120825Y0107376D01*
X0120813Y0107318D01*
X0120797Y0107260D01*
X0120777Y0107204D01*
X0120755Y0107149D01*
X0120729Y0107095D01*
X0120700Y0107043D01*
X0120668Y0106993D01*
X0120633Y0106944D01*
X0120595Y0106898D01*
X0120554Y0106855D01*
X0120511Y0106813D01*
X0120465Y0106775D01*
X0120418Y0106739D01*
X0120368Y0106706D01*
X0120316Y0106677D01*
X0120263Y0106650D01*
X0120208Y0106627D01*
X0120152Y0106606D01*
X0119464Y0108070D02*
X0119504Y0108109D01*
X0119546Y0108146D01*
X0119591Y0108179D01*
X0119638Y0108210D01*
X0119687Y0108237D01*
X0119738Y0108261D01*
X0119791Y0108281D01*
X0119844Y0108298D01*
X0119899Y0108311D01*
X0119954Y0108320D01*
X0120010Y0108326D01*
X0120066Y0108328D01*
X0120066Y0108329D02*
X0120121Y0108327D01*
X0120176Y0108321D01*
X0120231Y0108311D01*
X0120284Y0108298D01*
X0120337Y0108280D01*
X0120388Y0108259D01*
X0120437Y0108234D01*
X0120485Y0108206D01*
X0120530Y0108174D01*
X0120574Y0108140D01*
X0120614Y0108102D01*
X0120652Y0108062D01*
X0120686Y0108018D01*
X0120718Y0107973D01*
X0120746Y0107925D01*
X0120771Y0107876D01*
X0120792Y0107825D01*
X0120810Y0107772D01*
X0120823Y0107719D01*
X0120833Y0107664D01*
X0120839Y0107609D01*
X0120841Y0107554D01*
X0129734Y0111243D02*
X0132834Y0112277D01*
X0132834Y0114146D02*
X0129734Y0114146D01*
X0131112Y0114146D02*
X0131112Y0115007D01*
X0131112Y0115180D02*
X0129734Y0115868D01*
X0129734Y0117702D02*
X0129734Y0119424D01*
X0129734Y0118563D02*
X0132834Y0118563D01*
X0132145Y0117702D01*
X0132834Y0115007D02*
X0132832Y0115065D01*
X0132826Y0115122D01*
X0132817Y0115178D01*
X0132803Y0115234D01*
X0132786Y0115289D01*
X0132766Y0115343D01*
X0132741Y0115395D01*
X0132714Y0115446D01*
X0132683Y0115494D01*
X0132649Y0115541D01*
X0132612Y0115585D01*
X0132572Y0115626D01*
X0132529Y0115665D01*
X0132484Y0115700D01*
X0132436Y0115733D01*
X0132387Y0115762D01*
X0132335Y0115788D01*
X0132282Y0115810D01*
X0132228Y0115829D01*
X0132173Y0115845D01*
X0132116Y0115856D01*
X0132059Y0115864D01*
X0132002Y0115868D01*
X0131944Y0115868D01*
X0131887Y0115864D01*
X0131830Y0115856D01*
X0131773Y0115845D01*
X0131718Y0115829D01*
X0131664Y0115810D01*
X0131611Y0115788D01*
X0131559Y0115762D01*
X0131510Y0115733D01*
X0131462Y0115700D01*
X0131417Y0115665D01*
X0131374Y0115626D01*
X0131334Y0115585D01*
X0131297Y0115541D01*
X0131263Y0115494D01*
X0131232Y0115446D01*
X0131205Y0115395D01*
X0131180Y0115343D01*
X0131160Y0115289D01*
X0131143Y0115234D01*
X0131129Y0115178D01*
X0131120Y0115122D01*
X0131114Y0115065D01*
X0131112Y0115007D01*
X0132834Y0115007D02*
X0132834Y0114146D01*
X0132834Y0110210D02*
X0129734Y0111243D01*
X0126169Y0116628D02*
X0125480Y0116628D01*
X0126169Y0116628D02*
X0126220Y0116630D01*
X0126272Y0116636D01*
X0126322Y0116645D01*
X0126372Y0116659D01*
X0126421Y0116676D01*
X0126468Y0116696D01*
X0126514Y0116720D01*
X0126557Y0116748D01*
X0126599Y0116778D01*
X0126638Y0116812D01*
X0126674Y0116848D01*
X0126708Y0116887D01*
X0126738Y0116929D01*
X0126766Y0116973D01*
X0126790Y0117018D01*
X0126810Y0117065D01*
X0126827Y0117114D01*
X0126841Y0117164D01*
X0126850Y0117214D01*
X0126856Y0117266D01*
X0126858Y0117317D01*
X0126858Y0119039D01*
X0126856Y0119090D01*
X0126850Y0119142D01*
X0126841Y0119192D01*
X0126827Y0119242D01*
X0126810Y0119291D01*
X0126790Y0119338D01*
X0126766Y0119384D01*
X0126738Y0119427D01*
X0126708Y0119469D01*
X0126674Y0119508D01*
X0126638Y0119544D01*
X0126599Y0119578D01*
X0126557Y0119608D01*
X0126514Y0119636D01*
X0126468Y0119660D01*
X0126421Y0119680D01*
X0126372Y0119697D01*
X0126322Y0119711D01*
X0126272Y0119720D01*
X0126220Y0119726D01*
X0126169Y0119728D01*
X0125480Y0119728D01*
X0123838Y0119039D02*
X0122977Y0119728D01*
X0122977Y0116628D01*
X0123838Y0116628D02*
X0122116Y0116628D01*
X0113501Y0117308D02*
X0113461Y0117396D01*
X0113423Y0117485D01*
X0113389Y0117575D01*
X0113359Y0117667D01*
X0113332Y0117760D01*
X0113308Y0117853D01*
X0113288Y0117948D01*
X0113272Y0118043D01*
X0113259Y0118139D01*
X0113250Y0118235D01*
X0113245Y0118331D01*
X0113243Y0118428D01*
X0114966Y0118428D02*
X0114964Y0118525D01*
X0114959Y0118621D01*
X0114950Y0118717D01*
X0114937Y0118813D01*
X0114921Y0118908D01*
X0114901Y0119003D01*
X0114877Y0119096D01*
X0114850Y0119189D01*
X0114820Y0119281D01*
X0114786Y0119371D01*
X0114748Y0119460D01*
X0114708Y0119548D01*
X0114105Y0119978D02*
X0114056Y0119976D01*
X0114007Y0119970D01*
X0113958Y0119961D01*
X0113911Y0119948D01*
X0113864Y0119931D01*
X0113819Y0119910D01*
X0113776Y0119886D01*
X0113735Y0119859D01*
X0113696Y0119829D01*
X0113659Y0119796D01*
X0113625Y0119760D01*
X0113594Y0119722D01*
X0113566Y0119681D01*
X0113542Y0119638D01*
X0113520Y0119594D01*
X0113502Y0119548D01*
X0113416Y0119289D02*
X0114794Y0117567D01*
X0114105Y0116878D02*
X0114056Y0116880D01*
X0114007Y0116886D01*
X0113958Y0116895D01*
X0113911Y0116908D01*
X0113864Y0116925D01*
X0113819Y0116946D01*
X0113776Y0116970D01*
X0113735Y0116997D01*
X0113696Y0117027D01*
X0113659Y0117060D01*
X0113625Y0117096D01*
X0113594Y0117134D01*
X0113566Y0117175D01*
X0113542Y0117218D01*
X0113520Y0117262D01*
X0113502Y0117308D01*
X0114105Y0116878D02*
X0114154Y0116880D01*
X0114203Y0116886D01*
X0114252Y0116895D01*
X0114299Y0116908D01*
X0114346Y0116925D01*
X0114391Y0116946D01*
X0114434Y0116970D01*
X0114475Y0116997D01*
X0114514Y0117027D01*
X0114551Y0117060D01*
X0114585Y0117096D01*
X0114616Y0117134D01*
X0114644Y0117175D01*
X0114668Y0117218D01*
X0114690Y0117262D01*
X0114708Y0117308D01*
X0113243Y0118428D02*
X0113245Y0118525D01*
X0113250Y0118621D01*
X0113259Y0118717D01*
X0113272Y0118813D01*
X0113289Y0118908D01*
X0113308Y0119003D01*
X0113332Y0119096D01*
X0113359Y0119189D01*
X0113389Y0119281D01*
X0113423Y0119371D01*
X0113461Y0119460D01*
X0113501Y0119548D01*
X0114105Y0119978D02*
X0114154Y0119976D01*
X0114203Y0119970D01*
X0114252Y0119961D01*
X0114299Y0119948D01*
X0114346Y0119931D01*
X0114391Y0119910D01*
X0114434Y0119886D01*
X0114475Y0119859D01*
X0114514Y0119829D01*
X0114551Y0119796D01*
X0114585Y0119760D01*
X0114616Y0119722D01*
X0114644Y0119681D01*
X0114668Y0119638D01*
X0114690Y0119594D01*
X0114708Y0119548D01*
X0114966Y0118428D02*
X0114964Y0118331D01*
X0114959Y0118235D01*
X0114950Y0118139D01*
X0114937Y0118043D01*
X0114921Y0117948D01*
X0114901Y0117854D01*
X0114877Y0117760D01*
X0114850Y0117667D01*
X0114820Y0117575D01*
X0114786Y0117485D01*
X0114748Y0117396D01*
X0114708Y0117308D01*
X0111671Y0117050D02*
X0111499Y0117050D01*
X0111499Y0116878D01*
X0111671Y0116878D01*
X0111671Y0117050D01*
X0109926Y0116878D02*
X0108204Y0116878D01*
X0109065Y0116878D02*
X0109065Y0119978D01*
X0109926Y0119289D01*
X0106274Y0118945D02*
X0106274Y0117395D01*
X0106272Y0117352D01*
X0106267Y0117310D01*
X0106258Y0117268D01*
X0106246Y0117227D01*
X0106230Y0117187D01*
X0106212Y0117149D01*
X0106190Y0117112D01*
X0106165Y0117077D01*
X0106137Y0117045D01*
X0106107Y0117015D01*
X0106075Y0116987D01*
X0106040Y0116962D01*
X0106003Y0116940D01*
X0105965Y0116922D01*
X0105925Y0116906D01*
X0105884Y0116894D01*
X0105842Y0116885D01*
X0105800Y0116880D01*
X0105757Y0116878D01*
X0104896Y0116878D01*
X0104896Y0118945D01*
X0102832Y0118600D02*
X0101455Y0118600D01*
X0101455Y0119978D02*
X0102832Y0119978D01*
X0102832Y0116878D01*
X0101934Y0183128D02*
X0101245Y0183128D01*
X0101934Y0183128D02*
X0101985Y0183130D01*
X0102037Y0183136D01*
X0102087Y0183145D01*
X0102137Y0183159D01*
X0102186Y0183176D01*
X0102233Y0183196D01*
X0102279Y0183220D01*
X0102322Y0183248D01*
X0102364Y0183278D01*
X0102403Y0183312D01*
X0102439Y0183348D01*
X0102473Y0183387D01*
X0102503Y0183429D01*
X0102531Y0183473D01*
X0102555Y0183518D01*
X0102575Y0183565D01*
X0102592Y0183614D01*
X0102606Y0183664D01*
X0102615Y0183714D01*
X0102621Y0183766D01*
X0102623Y0183817D01*
X0102623Y0185539D01*
X0102621Y0185590D01*
X0102615Y0185642D01*
X0102606Y0185692D01*
X0102592Y0185742D01*
X0102575Y0185791D01*
X0102555Y0185838D01*
X0102531Y0185884D01*
X0102503Y0185927D01*
X0102473Y0185969D01*
X0102439Y0186008D01*
X0102403Y0186044D01*
X0102364Y0186078D01*
X0102322Y0186108D01*
X0102279Y0186136D01*
X0102233Y0186160D01*
X0102186Y0186180D01*
X0102137Y0186197D01*
X0102087Y0186211D01*
X0102037Y0186220D01*
X0101985Y0186226D01*
X0101934Y0186228D01*
X0101245Y0186228D01*
X0100364Y0187253D02*
X0100364Y0190353D01*
X0098986Y0190353D01*
X0098986Y0188975D02*
X0100364Y0188975D01*
X0102375Y0189492D02*
X0102375Y0188114D01*
X0102377Y0188056D01*
X0102383Y0187999D01*
X0102392Y0187943D01*
X0102406Y0187887D01*
X0102423Y0187832D01*
X0102443Y0187778D01*
X0102468Y0187726D01*
X0102495Y0187675D01*
X0102526Y0187627D01*
X0102560Y0187580D01*
X0102597Y0187536D01*
X0102637Y0187495D01*
X0102680Y0187456D01*
X0102725Y0187421D01*
X0102773Y0187388D01*
X0102822Y0187359D01*
X0102874Y0187333D01*
X0102927Y0187311D01*
X0102981Y0187292D01*
X0103036Y0187276D01*
X0103093Y0187265D01*
X0103150Y0187257D01*
X0103207Y0187253D01*
X0103265Y0187253D01*
X0103322Y0187257D01*
X0103379Y0187265D01*
X0103436Y0187276D01*
X0103491Y0187292D01*
X0103545Y0187311D01*
X0103598Y0187333D01*
X0103650Y0187359D01*
X0103699Y0187388D01*
X0103747Y0187421D01*
X0103792Y0187456D01*
X0103835Y0187495D01*
X0103875Y0187536D01*
X0103912Y0187580D01*
X0103946Y0187627D01*
X0103977Y0187675D01*
X0104004Y0187726D01*
X0104029Y0187778D01*
X0104049Y0187832D01*
X0104066Y0187887D01*
X0104080Y0187943D01*
X0104089Y0187999D01*
X0104095Y0188056D01*
X0104097Y0188114D01*
X0104097Y0189492D01*
X0104095Y0189550D01*
X0104089Y0189607D01*
X0104080Y0189663D01*
X0104066Y0189719D01*
X0104049Y0189774D01*
X0104029Y0189828D01*
X0104004Y0189880D01*
X0103977Y0189931D01*
X0103946Y0189979D01*
X0103912Y0190026D01*
X0103875Y0190070D01*
X0103835Y0190111D01*
X0103792Y0190150D01*
X0103747Y0190185D01*
X0103699Y0190218D01*
X0103650Y0190247D01*
X0103598Y0190273D01*
X0103545Y0190295D01*
X0103491Y0190314D01*
X0103436Y0190330D01*
X0103379Y0190341D01*
X0103322Y0190349D01*
X0103265Y0190353D01*
X0103207Y0190353D01*
X0103150Y0190349D01*
X0103093Y0190341D01*
X0103036Y0190330D01*
X0102981Y0190314D01*
X0102927Y0190295D01*
X0102874Y0190273D01*
X0102822Y0190247D01*
X0102773Y0190218D01*
X0102725Y0190185D01*
X0102680Y0190150D01*
X0102637Y0190111D01*
X0102597Y0190070D01*
X0102560Y0190026D01*
X0102526Y0189979D01*
X0102495Y0189931D01*
X0102468Y0189880D01*
X0102443Y0189828D01*
X0102423Y0189774D01*
X0102406Y0189719D01*
X0102392Y0189663D01*
X0102383Y0189607D01*
X0102377Y0189550D01*
X0102375Y0189492D01*
X0104105Y0191253D02*
X0104966Y0191253D01*
X0104105Y0191253D02*
X0104047Y0191255D01*
X0103990Y0191261D01*
X0103934Y0191270D01*
X0103878Y0191284D01*
X0103823Y0191301D01*
X0103769Y0191321D01*
X0103717Y0191346D01*
X0103666Y0191373D01*
X0103618Y0191404D01*
X0103571Y0191438D01*
X0103527Y0191475D01*
X0103486Y0191515D01*
X0103447Y0191558D01*
X0103412Y0191603D01*
X0103379Y0191651D01*
X0103350Y0191700D01*
X0103324Y0191752D01*
X0103302Y0191805D01*
X0103283Y0191859D01*
X0103267Y0191914D01*
X0103256Y0191971D01*
X0103248Y0192028D01*
X0103244Y0192085D01*
X0103244Y0192143D01*
X0103248Y0192200D01*
X0103256Y0192257D01*
X0103267Y0192314D01*
X0103283Y0192369D01*
X0103302Y0192423D01*
X0103324Y0192476D01*
X0103350Y0192528D01*
X0103379Y0192577D01*
X0103412Y0192625D01*
X0103447Y0192670D01*
X0103486Y0192713D01*
X0103527Y0192753D01*
X0103571Y0192790D01*
X0103618Y0192824D01*
X0103666Y0192855D01*
X0103717Y0192882D01*
X0103769Y0192907D01*
X0103823Y0192927D01*
X0103878Y0192944D01*
X0103934Y0192958D01*
X0103990Y0192967D01*
X0104047Y0192973D01*
X0104105Y0192975D01*
X0103933Y0192975D02*
X0104621Y0192975D01*
X0103933Y0192975D02*
X0103882Y0192977D01*
X0103830Y0192983D01*
X0103780Y0192992D01*
X0103730Y0193006D01*
X0103681Y0193023D01*
X0103634Y0193043D01*
X0103589Y0193067D01*
X0103545Y0193095D01*
X0103503Y0193125D01*
X0103464Y0193159D01*
X0103428Y0193195D01*
X0103394Y0193234D01*
X0103364Y0193276D01*
X0103336Y0193320D01*
X0103312Y0193365D01*
X0103292Y0193412D01*
X0103275Y0193461D01*
X0103261Y0193511D01*
X0103252Y0193561D01*
X0103246Y0193613D01*
X0103244Y0193664D01*
X0103246Y0193715D01*
X0103252Y0193767D01*
X0103261Y0193817D01*
X0103275Y0193867D01*
X0103292Y0193916D01*
X0103312Y0193963D01*
X0103336Y0194009D01*
X0103364Y0194052D01*
X0103394Y0194094D01*
X0103428Y0194133D01*
X0103464Y0194169D01*
X0103503Y0194203D01*
X0103545Y0194233D01*
X0103589Y0194261D01*
X0103634Y0194285D01*
X0103681Y0194305D01*
X0103730Y0194322D01*
X0103780Y0194336D01*
X0103830Y0194345D01*
X0103882Y0194351D01*
X0103933Y0194353D01*
X0104966Y0194353D01*
X0101538Y0194353D02*
X0100505Y0191253D01*
X0099471Y0194353D01*
X0097698Y0192975D02*
X0095631Y0192975D01*
X0095631Y0191942D02*
X0097698Y0191942D01*
X0097244Y0190353D02*
X0095866Y0190353D01*
X0095866Y0188975D02*
X0097244Y0188975D01*
X0097244Y0190353D02*
X0097244Y0187253D01*
X0098569Y0186228D02*
X0099603Y0186228D01*
X0098569Y0186228D02*
X0098518Y0186226D01*
X0098466Y0186220D01*
X0098416Y0186211D01*
X0098366Y0186197D01*
X0098317Y0186180D01*
X0098270Y0186160D01*
X0098225Y0186136D01*
X0098181Y0186108D01*
X0098139Y0186078D01*
X0098100Y0186044D01*
X0098064Y0186008D01*
X0098030Y0185969D01*
X0098000Y0185927D01*
X0097972Y0185884D01*
X0097948Y0185838D01*
X0097928Y0185791D01*
X0097911Y0185742D01*
X0097897Y0185692D01*
X0097888Y0185642D01*
X0097882Y0185590D01*
X0097880Y0185539D01*
X0097882Y0185488D01*
X0097888Y0185436D01*
X0097897Y0185386D01*
X0097911Y0185336D01*
X0097928Y0185287D01*
X0097948Y0185240D01*
X0097972Y0185195D01*
X0098000Y0185151D01*
X0098030Y0185109D01*
X0098064Y0185070D01*
X0098100Y0185034D01*
X0098139Y0185000D01*
X0098181Y0184970D01*
X0098225Y0184942D01*
X0098270Y0184918D01*
X0098317Y0184898D01*
X0098366Y0184881D01*
X0098416Y0184867D01*
X0098466Y0184858D01*
X0098518Y0184852D01*
X0098569Y0184850D01*
X0099258Y0184850D01*
X0098741Y0184850D02*
X0098683Y0184848D01*
X0098626Y0184842D01*
X0098570Y0184833D01*
X0098514Y0184819D01*
X0098459Y0184802D01*
X0098405Y0184782D01*
X0098353Y0184757D01*
X0098302Y0184730D01*
X0098254Y0184699D01*
X0098207Y0184665D01*
X0098163Y0184628D01*
X0098122Y0184588D01*
X0098083Y0184545D01*
X0098048Y0184500D01*
X0098015Y0184452D01*
X0097986Y0184403D01*
X0097960Y0184351D01*
X0097938Y0184298D01*
X0097919Y0184244D01*
X0097903Y0184189D01*
X0097892Y0184132D01*
X0097884Y0184075D01*
X0097880Y0184018D01*
X0097880Y0183960D01*
X0097884Y0183903D01*
X0097892Y0183846D01*
X0097903Y0183789D01*
X0097919Y0183734D01*
X0097938Y0183680D01*
X0097960Y0183627D01*
X0097986Y0183575D01*
X0098015Y0183526D01*
X0098048Y0183478D01*
X0098083Y0183433D01*
X0098122Y0183390D01*
X0098163Y0183350D01*
X0098207Y0183313D01*
X0098254Y0183279D01*
X0098302Y0183248D01*
X0098353Y0183221D01*
X0098405Y0183196D01*
X0098459Y0183176D01*
X0098514Y0183159D01*
X0098570Y0183145D01*
X0098626Y0183136D01*
X0098683Y0183130D01*
X0098741Y0183128D01*
X0099603Y0183128D01*
X0104277Y0183128D02*
X0104966Y0183128D01*
X0104621Y0183128D02*
X0104621Y0186228D01*
X0104277Y0186228D02*
X0104966Y0186228D01*
X0120866Y0200378D02*
X0122588Y0200378D01*
X0121727Y0200378D02*
X0121727Y0203478D01*
X0122588Y0202789D01*
X0124185Y0202617D02*
X0124185Y0201239D01*
X0124530Y0201067D02*
X0123841Y0200378D01*
X0124185Y0201239D02*
X0124187Y0201181D01*
X0124193Y0201124D01*
X0124202Y0201068D01*
X0124216Y0201012D01*
X0124233Y0200957D01*
X0124253Y0200903D01*
X0124278Y0200851D01*
X0124305Y0200800D01*
X0124336Y0200752D01*
X0124370Y0200705D01*
X0124407Y0200661D01*
X0124447Y0200620D01*
X0124490Y0200581D01*
X0124535Y0200546D01*
X0124583Y0200513D01*
X0124632Y0200484D01*
X0124684Y0200458D01*
X0124737Y0200436D01*
X0124791Y0200417D01*
X0124846Y0200401D01*
X0124903Y0200390D01*
X0124960Y0200382D01*
X0125017Y0200378D01*
X0125075Y0200378D01*
X0125132Y0200382D01*
X0125189Y0200390D01*
X0125246Y0200401D01*
X0125301Y0200417D01*
X0125355Y0200436D01*
X0125408Y0200458D01*
X0125460Y0200484D01*
X0125509Y0200513D01*
X0125557Y0200546D01*
X0125602Y0200581D01*
X0125645Y0200620D01*
X0125685Y0200661D01*
X0125722Y0200705D01*
X0125756Y0200752D01*
X0125787Y0200800D01*
X0125814Y0200851D01*
X0125839Y0200903D01*
X0125859Y0200957D01*
X0125876Y0201012D01*
X0125890Y0201068D01*
X0125899Y0201124D01*
X0125905Y0201181D01*
X0125907Y0201239D01*
X0125908Y0201239D02*
X0125908Y0202617D01*
X0125907Y0202617D02*
X0125905Y0202675D01*
X0125899Y0202732D01*
X0125890Y0202788D01*
X0125876Y0202844D01*
X0125859Y0202899D01*
X0125839Y0202953D01*
X0125814Y0203005D01*
X0125787Y0203056D01*
X0125756Y0203104D01*
X0125722Y0203151D01*
X0125685Y0203195D01*
X0125645Y0203236D01*
X0125602Y0203275D01*
X0125557Y0203310D01*
X0125509Y0203343D01*
X0125460Y0203372D01*
X0125408Y0203398D01*
X0125355Y0203420D01*
X0125301Y0203439D01*
X0125246Y0203455D01*
X0125189Y0203466D01*
X0125132Y0203474D01*
X0125075Y0203478D01*
X0125017Y0203478D01*
X0124960Y0203474D01*
X0124903Y0203466D01*
X0124846Y0203455D01*
X0124791Y0203439D01*
X0124737Y0203420D01*
X0124684Y0203398D01*
X0124632Y0203372D01*
X0124583Y0203343D01*
X0124535Y0203310D01*
X0124490Y0203275D01*
X0124447Y0203236D01*
X0124407Y0203195D01*
X0124370Y0203151D01*
X0124336Y0203104D01*
X0124305Y0203056D01*
X0124278Y0203005D01*
X0124253Y0202953D01*
X0124233Y0202899D01*
X0124216Y0202844D01*
X0124202Y0202788D01*
X0124193Y0202732D01*
X0124187Y0202675D01*
X0124185Y0202617D01*
X0149616Y0204753D02*
X0149616Y0207853D01*
X0151338Y0207853D02*
X0149616Y0204753D01*
X0151338Y0204753D02*
X0151338Y0207853D01*
X0153336Y0206992D02*
X0153336Y0205614D01*
X0153338Y0205556D01*
X0153344Y0205499D01*
X0153353Y0205443D01*
X0153367Y0205387D01*
X0153384Y0205332D01*
X0153404Y0205278D01*
X0153429Y0205226D01*
X0153456Y0205175D01*
X0153487Y0205127D01*
X0153521Y0205080D01*
X0153558Y0205036D01*
X0153598Y0204995D01*
X0153641Y0204956D01*
X0153686Y0204921D01*
X0153734Y0204888D01*
X0153783Y0204859D01*
X0153835Y0204833D01*
X0153888Y0204811D01*
X0153942Y0204792D01*
X0153997Y0204776D01*
X0154054Y0204765D01*
X0154111Y0204757D01*
X0154168Y0204753D01*
X0154226Y0204753D01*
X0154283Y0204757D01*
X0154340Y0204765D01*
X0154397Y0204776D01*
X0154452Y0204792D01*
X0154506Y0204811D01*
X0154559Y0204833D01*
X0154611Y0204859D01*
X0154660Y0204888D01*
X0154708Y0204921D01*
X0154753Y0204956D01*
X0154796Y0204995D01*
X0154836Y0205036D01*
X0154873Y0205080D01*
X0154907Y0205127D01*
X0154938Y0205175D01*
X0154965Y0205226D01*
X0154990Y0205278D01*
X0155010Y0205332D01*
X0155027Y0205387D01*
X0155041Y0205443D01*
X0155050Y0205499D01*
X0155056Y0205556D01*
X0155058Y0205614D01*
X0155058Y0206992D01*
X0155056Y0207050D01*
X0155050Y0207107D01*
X0155041Y0207163D01*
X0155027Y0207219D01*
X0155010Y0207274D01*
X0154990Y0207328D01*
X0154965Y0207380D01*
X0154938Y0207431D01*
X0154907Y0207479D01*
X0154873Y0207526D01*
X0154836Y0207570D01*
X0154796Y0207611D01*
X0154753Y0207650D01*
X0154708Y0207685D01*
X0154660Y0207718D01*
X0154611Y0207747D01*
X0154559Y0207773D01*
X0154506Y0207795D01*
X0154452Y0207814D01*
X0154397Y0207830D01*
X0154340Y0207841D01*
X0154283Y0207849D01*
X0154226Y0207853D01*
X0154168Y0207853D01*
X0154111Y0207849D01*
X0154054Y0207841D01*
X0153997Y0207830D01*
X0153942Y0207814D01*
X0153888Y0207795D01*
X0153835Y0207773D01*
X0153783Y0207747D01*
X0153734Y0207718D01*
X0153686Y0207685D01*
X0153641Y0207650D01*
X0153598Y0207611D01*
X0153558Y0207570D01*
X0153521Y0207526D01*
X0153487Y0207479D01*
X0153456Y0207431D01*
X0153429Y0207380D01*
X0153404Y0207328D01*
X0153384Y0207274D01*
X0153367Y0207219D01*
X0153353Y0207163D01*
X0153344Y0207107D01*
X0153338Y0207050D01*
X0153336Y0206992D01*
X0157004Y0206475D02*
X0159070Y0206475D01*
X0159070Y0205442D02*
X0157004Y0205442D01*
X0160816Y0204753D02*
X0160988Y0204753D01*
X0161031Y0204755D01*
X0161073Y0204760D01*
X0161115Y0204769D01*
X0161156Y0204781D01*
X0161196Y0204797D01*
X0161234Y0204815D01*
X0161271Y0204837D01*
X0161306Y0204862D01*
X0161338Y0204890D01*
X0161368Y0204920D01*
X0161396Y0204952D01*
X0161421Y0204987D01*
X0161443Y0205024D01*
X0161461Y0205062D01*
X0161477Y0205102D01*
X0161489Y0205143D01*
X0161498Y0205185D01*
X0161503Y0205227D01*
X0161505Y0205270D01*
X0161505Y0207853D01*
X0161849Y0206820D02*
X0160816Y0206820D01*
X0162813Y0206820D02*
X0162813Y0206475D01*
X0162813Y0206820D02*
X0163846Y0206820D01*
X0163846Y0204753D01*
X0165748Y0205442D02*
X0165748Y0206131D01*
X0165750Y0206182D01*
X0165756Y0206234D01*
X0165765Y0206284D01*
X0165779Y0206334D01*
X0165796Y0206383D01*
X0165816Y0206430D01*
X0165840Y0206476D01*
X0165868Y0206519D01*
X0165898Y0206561D01*
X0165932Y0206600D01*
X0165968Y0206636D01*
X0166007Y0206670D01*
X0166049Y0206700D01*
X0166093Y0206728D01*
X0166138Y0206752D01*
X0166185Y0206772D01*
X0166234Y0206789D01*
X0166284Y0206803D01*
X0166334Y0206812D01*
X0166386Y0206818D01*
X0166437Y0206820D01*
X0166488Y0206818D01*
X0166540Y0206812D01*
X0166590Y0206803D01*
X0166640Y0206789D01*
X0166689Y0206772D01*
X0166736Y0206752D01*
X0166782Y0206728D01*
X0166825Y0206700D01*
X0166867Y0206670D01*
X0166906Y0206636D01*
X0166942Y0206600D01*
X0166976Y0206561D01*
X0167006Y0206519D01*
X0167034Y0206476D01*
X0167058Y0206430D01*
X0167078Y0206383D01*
X0167095Y0206334D01*
X0167109Y0206284D01*
X0167118Y0206234D01*
X0167124Y0206182D01*
X0167126Y0206131D01*
X0167126Y0205442D01*
X0167124Y0205391D01*
X0167118Y0205339D01*
X0167109Y0205289D01*
X0167095Y0205239D01*
X0167078Y0205190D01*
X0167058Y0205143D01*
X0167034Y0205098D01*
X0167006Y0205054D01*
X0166976Y0205012D01*
X0166942Y0204973D01*
X0166906Y0204937D01*
X0166867Y0204903D01*
X0166825Y0204873D01*
X0166782Y0204845D01*
X0166736Y0204821D01*
X0166689Y0204801D01*
X0166640Y0204784D01*
X0166590Y0204770D01*
X0166540Y0204761D01*
X0166488Y0204755D01*
X0166437Y0204753D01*
X0166386Y0204755D01*
X0166334Y0204761D01*
X0166284Y0204770D01*
X0166234Y0204784D01*
X0166185Y0204801D01*
X0166138Y0204821D01*
X0166093Y0204845D01*
X0166049Y0204873D01*
X0166007Y0204903D01*
X0165968Y0204937D01*
X0165932Y0204973D01*
X0165898Y0205012D01*
X0165868Y0205054D01*
X0165840Y0205098D01*
X0165816Y0205143D01*
X0165796Y0205190D01*
X0165779Y0205239D01*
X0165765Y0205289D01*
X0165756Y0205339D01*
X0165750Y0205391D01*
X0165748Y0205442D01*
X0168988Y0204753D02*
X0168988Y0206303D01*
X0168990Y0206346D01*
X0168995Y0206388D01*
X0169004Y0206430D01*
X0169016Y0206471D01*
X0169032Y0206511D01*
X0169050Y0206549D01*
X0169072Y0206586D01*
X0169097Y0206621D01*
X0169125Y0206653D01*
X0169155Y0206683D01*
X0169187Y0206711D01*
X0169222Y0206736D01*
X0169259Y0206758D01*
X0169297Y0206776D01*
X0169337Y0206792D01*
X0169378Y0206804D01*
X0169420Y0206813D01*
X0169462Y0206818D01*
X0169505Y0206820D01*
X0170366Y0206820D01*
X0170366Y0207853D02*
X0170366Y0204753D01*
X0172520Y0206045D02*
X0173467Y0206561D01*
X0173123Y0207854D02*
X0173054Y0207852D01*
X0172985Y0207847D01*
X0172916Y0207837D01*
X0172848Y0207824D01*
X0172781Y0207808D01*
X0172714Y0207788D01*
X0172649Y0207764D01*
X0172586Y0207737D01*
X0172523Y0207706D01*
X0172463Y0207673D01*
X0172404Y0207636D01*
X0172348Y0207596D01*
X0173467Y0206561D02*
X0173511Y0206589D01*
X0173553Y0206620D01*
X0173592Y0206654D01*
X0173628Y0206691D01*
X0173662Y0206731D01*
X0173692Y0206773D01*
X0173720Y0206817D01*
X0173744Y0206863D01*
X0173764Y0206910D01*
X0173781Y0206959D01*
X0173795Y0207010D01*
X0173804Y0207061D01*
X0173810Y0207112D01*
X0173812Y0207164D01*
X0173810Y0207215D01*
X0173804Y0207267D01*
X0173795Y0207317D01*
X0173781Y0207367D01*
X0173764Y0207416D01*
X0173744Y0207463D01*
X0173720Y0207509D01*
X0173692Y0207552D01*
X0173662Y0207594D01*
X0173628Y0207633D01*
X0173592Y0207669D01*
X0173553Y0207703D01*
X0173511Y0207733D01*
X0173468Y0207761D01*
X0173422Y0207785D01*
X0173375Y0207805D01*
X0173326Y0207822D01*
X0173276Y0207836D01*
X0173226Y0207845D01*
X0173174Y0207851D01*
X0173123Y0207853D01*
X0173898Y0205183D02*
X0173846Y0205134D01*
X0173792Y0205087D01*
X0173736Y0205042D01*
X0173677Y0205001D01*
X0173617Y0204962D01*
X0173554Y0204927D01*
X0173490Y0204894D01*
X0173425Y0204865D01*
X0173358Y0204839D01*
X0173290Y0204816D01*
X0173220Y0204797D01*
X0173150Y0204781D01*
X0173080Y0204769D01*
X0173008Y0204760D01*
X0172937Y0204755D01*
X0172865Y0204753D01*
X0172814Y0204755D01*
X0172762Y0204761D01*
X0172712Y0204770D01*
X0172662Y0204784D01*
X0172613Y0204801D01*
X0172566Y0204821D01*
X0172521Y0204845D01*
X0172477Y0204873D01*
X0172435Y0204903D01*
X0172396Y0204937D01*
X0172360Y0204973D01*
X0172326Y0205012D01*
X0172296Y0205054D01*
X0172268Y0205097D01*
X0172244Y0205143D01*
X0172224Y0205190D01*
X0172207Y0205239D01*
X0172193Y0205289D01*
X0172184Y0205339D01*
X0172178Y0205391D01*
X0172176Y0205442D01*
X0172175Y0205442D02*
X0172177Y0205494D01*
X0172183Y0205545D01*
X0172192Y0205596D01*
X0172206Y0205647D01*
X0172223Y0205696D01*
X0172243Y0205743D01*
X0172267Y0205789D01*
X0172295Y0205833D01*
X0172325Y0205875D01*
X0172359Y0205915D01*
X0172395Y0205952D01*
X0172434Y0205986D01*
X0172476Y0206017D01*
X0172520Y0206045D01*
X0212799Y0164353D02*
X0212744Y0164351D01*
X0212689Y0164345D01*
X0212634Y0164335D01*
X0212581Y0164322D01*
X0212528Y0164304D01*
X0212477Y0164283D01*
X0212428Y0164258D01*
X0212380Y0164230D01*
X0212335Y0164198D01*
X0212291Y0164164D01*
X0212251Y0164126D01*
X0212213Y0164086D01*
X0212179Y0164042D01*
X0212147Y0163997D01*
X0212119Y0163949D01*
X0212094Y0163900D01*
X0212073Y0163849D01*
X0212055Y0163796D01*
X0212042Y0163743D01*
X0212032Y0163688D01*
X0212026Y0163633D01*
X0212024Y0163578D01*
X0212282Y0162975D02*
X0213746Y0161253D01*
X0212024Y0161253D01*
X0213747Y0163664D02*
X0213726Y0163720D01*
X0213703Y0163775D01*
X0213676Y0163828D01*
X0213647Y0163880D01*
X0213614Y0163930D01*
X0213578Y0163977D01*
X0213540Y0164023D01*
X0213498Y0164066D01*
X0213455Y0164107D01*
X0213409Y0164145D01*
X0213360Y0164180D01*
X0213310Y0164212D01*
X0213258Y0164241D01*
X0213204Y0164267D01*
X0213149Y0164289D01*
X0213093Y0164309D01*
X0213035Y0164325D01*
X0212977Y0164337D01*
X0212918Y0164346D01*
X0212859Y0164351D01*
X0212799Y0164353D01*
X0212024Y0163578D02*
X0212026Y0163522D01*
X0212032Y0163466D01*
X0212041Y0163411D01*
X0212054Y0163356D01*
X0212071Y0163303D01*
X0212091Y0163250D01*
X0212115Y0163199D01*
X0212142Y0163150D01*
X0212173Y0163103D01*
X0212206Y0163058D01*
X0212243Y0163016D01*
X0212282Y0162976D01*
X0215744Y0163492D02*
X0215744Y0162114D01*
X0215746Y0162058D01*
X0215751Y0162002D01*
X0215761Y0161946D01*
X0215773Y0161891D01*
X0215790Y0161837D01*
X0215810Y0161785D01*
X0215833Y0161733D01*
X0215859Y0161684D01*
X0215889Y0161636D01*
X0215922Y0161590D01*
X0215958Y0161546D01*
X0215996Y0161505D01*
X0216037Y0161467D01*
X0216081Y0161431D01*
X0216127Y0161398D01*
X0216175Y0161368D01*
X0216224Y0161342D01*
X0216276Y0161319D01*
X0216328Y0161299D01*
X0216382Y0161282D01*
X0216437Y0161270D01*
X0216493Y0161260D01*
X0216549Y0161255D01*
X0216605Y0161253D01*
X0217466Y0161253D01*
X0217466Y0164353D01*
X0216605Y0164353D01*
X0216549Y0164351D01*
X0216493Y0164346D01*
X0216437Y0164336D01*
X0216382Y0164324D01*
X0216328Y0164307D01*
X0216276Y0164287D01*
X0216224Y0164264D01*
X0216175Y0164238D01*
X0216127Y0164208D01*
X0216081Y0164175D01*
X0216037Y0164139D01*
X0215996Y0164101D01*
X0215958Y0164060D01*
X0215922Y0164016D01*
X0215889Y0163970D01*
X0215859Y0163923D01*
X0215833Y0163873D01*
X0215810Y0163821D01*
X0215790Y0163769D01*
X0215773Y0163715D01*
X0215761Y0163660D01*
X0215751Y0163604D01*
X0215746Y0163548D01*
X0215744Y0163492D01*
X0210808Y0122478D02*
X0210808Y0120067D01*
X0210807Y0120067D02*
X0210809Y0120016D01*
X0210815Y0119964D01*
X0210824Y0119914D01*
X0210838Y0119864D01*
X0210855Y0119815D01*
X0210875Y0119768D01*
X0210899Y0119722D01*
X0210927Y0119679D01*
X0210957Y0119637D01*
X0210991Y0119598D01*
X0211027Y0119562D01*
X0211066Y0119528D01*
X0211108Y0119498D01*
X0211152Y0119470D01*
X0211197Y0119446D01*
X0211244Y0119426D01*
X0211293Y0119409D01*
X0211343Y0119395D01*
X0211393Y0119386D01*
X0211445Y0119380D01*
X0211496Y0119378D01*
X0211841Y0119378D01*
X0208616Y0119378D02*
X0208616Y0122478D01*
X0207755Y0122478D01*
X0207697Y0122476D01*
X0207640Y0122470D01*
X0207584Y0122461D01*
X0207528Y0122447D01*
X0207473Y0122430D01*
X0207419Y0122410D01*
X0207367Y0122385D01*
X0207316Y0122358D01*
X0207268Y0122327D01*
X0207221Y0122293D01*
X0207177Y0122256D01*
X0207136Y0122216D01*
X0207097Y0122173D01*
X0207062Y0122128D01*
X0207029Y0122080D01*
X0207000Y0122031D01*
X0206974Y0121979D01*
X0206952Y0121926D01*
X0206933Y0121872D01*
X0206917Y0121817D01*
X0206906Y0121760D01*
X0206898Y0121703D01*
X0206894Y0121646D01*
X0206894Y0121588D01*
X0206898Y0121531D01*
X0206906Y0121474D01*
X0206917Y0121417D01*
X0206933Y0121362D01*
X0206952Y0121308D01*
X0206974Y0121255D01*
X0207000Y0121203D01*
X0207029Y0121154D01*
X0207062Y0121106D01*
X0207097Y0121061D01*
X0207136Y0121018D01*
X0207177Y0120978D01*
X0207221Y0120941D01*
X0207268Y0120907D01*
X0207316Y0120876D01*
X0207367Y0120849D01*
X0207419Y0120824D01*
X0207473Y0120804D01*
X0207528Y0120787D01*
X0207584Y0120773D01*
X0207640Y0120764D01*
X0207697Y0120758D01*
X0207755Y0120756D01*
X0208616Y0120756D01*
X0205238Y0119378D02*
X0204377Y0119378D01*
X0204319Y0119380D01*
X0204262Y0119386D01*
X0204206Y0119395D01*
X0204150Y0119409D01*
X0204095Y0119426D01*
X0204041Y0119446D01*
X0203989Y0119471D01*
X0203938Y0119498D01*
X0203890Y0119529D01*
X0203843Y0119563D01*
X0203799Y0119600D01*
X0203758Y0119640D01*
X0203719Y0119683D01*
X0203684Y0119728D01*
X0203651Y0119776D01*
X0203622Y0119825D01*
X0203596Y0119877D01*
X0203574Y0119930D01*
X0203555Y0119984D01*
X0203539Y0120039D01*
X0203528Y0120096D01*
X0203520Y0120153D01*
X0203516Y0120210D01*
X0203516Y0120268D01*
X0203520Y0120325D01*
X0203528Y0120382D01*
X0203539Y0120439D01*
X0203555Y0120494D01*
X0203574Y0120548D01*
X0203596Y0120601D01*
X0203622Y0120653D01*
X0203651Y0120702D01*
X0203684Y0120750D01*
X0203719Y0120795D01*
X0203758Y0120838D01*
X0203799Y0120878D01*
X0203843Y0120915D01*
X0203890Y0120949D01*
X0203938Y0120980D01*
X0203989Y0121007D01*
X0204041Y0121032D01*
X0204095Y0121052D01*
X0204150Y0121069D01*
X0204206Y0121083D01*
X0204262Y0121092D01*
X0204319Y0121098D01*
X0204377Y0121100D01*
X0204204Y0121100D02*
X0204893Y0121100D01*
X0204204Y0121100D02*
X0204153Y0121102D01*
X0204101Y0121108D01*
X0204051Y0121117D01*
X0204001Y0121131D01*
X0203952Y0121148D01*
X0203905Y0121168D01*
X0203860Y0121192D01*
X0203816Y0121220D01*
X0203774Y0121250D01*
X0203735Y0121284D01*
X0203699Y0121320D01*
X0203665Y0121359D01*
X0203635Y0121401D01*
X0203607Y0121445D01*
X0203583Y0121490D01*
X0203563Y0121537D01*
X0203546Y0121586D01*
X0203532Y0121636D01*
X0203523Y0121686D01*
X0203517Y0121738D01*
X0203515Y0121789D01*
X0203517Y0121840D01*
X0203523Y0121892D01*
X0203532Y0121942D01*
X0203546Y0121992D01*
X0203563Y0122041D01*
X0203583Y0122088D01*
X0203607Y0122134D01*
X0203635Y0122177D01*
X0203665Y0122219D01*
X0203699Y0122258D01*
X0203735Y0122294D01*
X0203774Y0122328D01*
X0203816Y0122358D01*
X0203860Y0122386D01*
X0203905Y0122410D01*
X0203952Y0122430D01*
X0204001Y0122447D01*
X0204051Y0122461D01*
X0204101Y0122470D01*
X0204153Y0122476D01*
X0204204Y0122478D01*
X0205238Y0122478D01*
X0223991Y0109012D02*
X0227091Y0109012D01*
X0227091Y0110389D01*
X0225713Y0110389D02*
X0225713Y0109012D01*
X0226058Y0106948D02*
X0223991Y0106948D01*
X0223991Y0106087D01*
X0223993Y0106044D01*
X0223998Y0106002D01*
X0224007Y0105960D01*
X0224019Y0105919D01*
X0224035Y0105879D01*
X0224053Y0105841D01*
X0224075Y0105804D01*
X0224100Y0105769D01*
X0224128Y0105737D01*
X0224158Y0105707D01*
X0224190Y0105679D01*
X0224225Y0105654D01*
X0224262Y0105632D01*
X0224300Y0105614D01*
X0224340Y0105598D01*
X0224381Y0105586D01*
X0224423Y0105577D01*
X0224465Y0105572D01*
X0224508Y0105570D01*
X0226058Y0105570D01*
X0227333Y0105741D02*
X0230433Y0105741D01*
X0230433Y0106602D01*
X0230431Y0106645D01*
X0230426Y0106687D01*
X0230417Y0106729D01*
X0230405Y0106770D01*
X0230389Y0106810D01*
X0230371Y0106848D01*
X0230349Y0106885D01*
X0230324Y0106920D01*
X0230296Y0106952D01*
X0230266Y0106982D01*
X0230234Y0107010D01*
X0230199Y0107035D01*
X0230162Y0107057D01*
X0230124Y0107075D01*
X0230084Y0107091D01*
X0230043Y0107103D01*
X0230001Y0107112D01*
X0229959Y0107117D01*
X0229916Y0107119D01*
X0229916Y0107118D02*
X0228883Y0107118D01*
X0228883Y0107119D02*
X0228840Y0107117D01*
X0228798Y0107112D01*
X0228756Y0107103D01*
X0228715Y0107091D01*
X0228675Y0107075D01*
X0228637Y0107057D01*
X0228600Y0107035D01*
X0228565Y0107010D01*
X0228533Y0106982D01*
X0228503Y0106952D01*
X0228475Y0106920D01*
X0228450Y0106885D01*
X0228428Y0106848D01*
X0228410Y0106810D01*
X0228394Y0106770D01*
X0228382Y0106729D01*
X0228373Y0106687D01*
X0228368Y0106645D01*
X0228366Y0106602D01*
X0228366Y0105741D01*
X0228796Y0102311D02*
X0228884Y0102271D01*
X0228973Y0102233D01*
X0229063Y0102199D01*
X0229155Y0102169D01*
X0229248Y0102142D01*
X0229341Y0102118D01*
X0229436Y0102098D01*
X0229531Y0102082D01*
X0229627Y0102069D01*
X0229723Y0102060D01*
X0229819Y0102055D01*
X0229916Y0102053D01*
X0229916Y0103776D02*
X0230013Y0103774D01*
X0230109Y0103769D01*
X0230205Y0103760D01*
X0230301Y0103747D01*
X0230396Y0103730D01*
X0230491Y0103711D01*
X0230584Y0103687D01*
X0230677Y0103660D01*
X0230769Y0103630D01*
X0230859Y0103596D01*
X0230948Y0103558D01*
X0231036Y0103518D01*
X0230777Y0103603D02*
X0229055Y0102225D01*
X0228366Y0102914D02*
X0228368Y0102963D01*
X0228374Y0103012D01*
X0228383Y0103061D01*
X0228396Y0103108D01*
X0228413Y0103155D01*
X0228434Y0103200D01*
X0228458Y0103243D01*
X0228485Y0103284D01*
X0228515Y0103323D01*
X0228548Y0103360D01*
X0228584Y0103394D01*
X0228622Y0103425D01*
X0228663Y0103453D01*
X0228706Y0103477D01*
X0228750Y0103499D01*
X0228796Y0103517D01*
X0228366Y0102914D02*
X0228368Y0102865D01*
X0228374Y0102816D01*
X0228383Y0102767D01*
X0228396Y0102720D01*
X0228413Y0102673D01*
X0228434Y0102628D01*
X0228458Y0102585D01*
X0228485Y0102544D01*
X0228515Y0102505D01*
X0228548Y0102468D01*
X0228584Y0102434D01*
X0228622Y0102403D01*
X0228663Y0102375D01*
X0228706Y0102351D01*
X0228750Y0102329D01*
X0228796Y0102311D01*
X0228796Y0103518D02*
X0228884Y0103558D01*
X0228973Y0103596D01*
X0229063Y0103630D01*
X0229155Y0103660D01*
X0229248Y0103687D01*
X0229341Y0103711D01*
X0229436Y0103731D01*
X0229531Y0103747D01*
X0229627Y0103760D01*
X0229723Y0103769D01*
X0229819Y0103774D01*
X0229916Y0103776D01*
X0229916Y0102053D02*
X0230013Y0102055D01*
X0230109Y0102060D01*
X0230205Y0102069D01*
X0230301Y0102082D01*
X0230396Y0102098D01*
X0230491Y0102118D01*
X0230584Y0102142D01*
X0230677Y0102169D01*
X0230769Y0102199D01*
X0230859Y0102233D01*
X0230948Y0102271D01*
X0231036Y0102311D01*
X0231466Y0102914D02*
X0231464Y0102963D01*
X0231458Y0103012D01*
X0231449Y0103061D01*
X0231436Y0103108D01*
X0231419Y0103155D01*
X0231398Y0103200D01*
X0231374Y0103243D01*
X0231347Y0103284D01*
X0231317Y0103323D01*
X0231284Y0103360D01*
X0231248Y0103394D01*
X0231210Y0103425D01*
X0231169Y0103453D01*
X0231126Y0103477D01*
X0231082Y0103499D01*
X0231036Y0103517D01*
X0231466Y0102914D02*
X0231464Y0102865D01*
X0231458Y0102816D01*
X0231449Y0102767D01*
X0231436Y0102720D01*
X0231419Y0102673D01*
X0231398Y0102628D01*
X0231374Y0102585D01*
X0231347Y0102544D01*
X0231317Y0102505D01*
X0231284Y0102468D01*
X0231248Y0102434D01*
X0231210Y0102403D01*
X0231169Y0102375D01*
X0231126Y0102351D01*
X0231082Y0102329D01*
X0231036Y0102311D01*
X0229916Y0098453D02*
X0229819Y0098455D01*
X0229723Y0098460D01*
X0229627Y0098469D01*
X0229531Y0098482D01*
X0229436Y0098498D01*
X0229341Y0098518D01*
X0229248Y0098542D01*
X0229155Y0098569D01*
X0229063Y0098599D01*
X0228973Y0098633D01*
X0228884Y0098671D01*
X0228796Y0098711D01*
X0229055Y0098625D02*
X0230777Y0100003D01*
X0231036Y0099917D02*
X0231082Y0099899D01*
X0231126Y0099877D01*
X0231169Y0099853D01*
X0231210Y0099825D01*
X0231248Y0099794D01*
X0231284Y0099760D01*
X0231317Y0099723D01*
X0231347Y0099684D01*
X0231374Y0099643D01*
X0231398Y0099600D01*
X0231419Y0099555D01*
X0231436Y0099508D01*
X0231449Y0099461D01*
X0231458Y0099412D01*
X0231464Y0099363D01*
X0231466Y0099314D01*
X0231464Y0099265D01*
X0231458Y0099216D01*
X0231449Y0099167D01*
X0231436Y0099120D01*
X0231419Y0099073D01*
X0231398Y0099028D01*
X0231374Y0098985D01*
X0231347Y0098944D01*
X0231317Y0098905D01*
X0231284Y0098868D01*
X0231248Y0098834D01*
X0231210Y0098803D01*
X0231169Y0098775D01*
X0231126Y0098751D01*
X0231082Y0098729D01*
X0231036Y0098711D01*
X0231036Y0099918D02*
X0230948Y0099958D01*
X0230859Y0099996D01*
X0230769Y0100030D01*
X0230677Y0100060D01*
X0230584Y0100087D01*
X0230491Y0100111D01*
X0230396Y0100130D01*
X0230301Y0100147D01*
X0230205Y0100160D01*
X0230109Y0100169D01*
X0230013Y0100174D01*
X0229916Y0100176D01*
X0229916Y0098453D02*
X0230013Y0098455D01*
X0230109Y0098460D01*
X0230205Y0098469D01*
X0230301Y0098482D01*
X0230396Y0098498D01*
X0230491Y0098518D01*
X0230584Y0098542D01*
X0230677Y0098569D01*
X0230769Y0098599D01*
X0230859Y0098633D01*
X0230948Y0098671D01*
X0231036Y0098711D01*
X0229916Y0100176D02*
X0229819Y0100174D01*
X0229723Y0100169D01*
X0229627Y0100160D01*
X0229531Y0100147D01*
X0229436Y0100131D01*
X0229341Y0100111D01*
X0229248Y0100087D01*
X0229155Y0100060D01*
X0229063Y0100030D01*
X0228973Y0099996D01*
X0228884Y0099958D01*
X0228796Y0099918D01*
X0228796Y0099917D02*
X0228750Y0099899D01*
X0228706Y0099877D01*
X0228663Y0099853D01*
X0228622Y0099825D01*
X0228584Y0099794D01*
X0228548Y0099760D01*
X0228515Y0099723D01*
X0228485Y0099684D01*
X0228458Y0099643D01*
X0228434Y0099600D01*
X0228413Y0099555D01*
X0228396Y0099508D01*
X0228383Y0099461D01*
X0228374Y0099412D01*
X0228368Y0099363D01*
X0228366Y0099314D01*
X0228368Y0099265D01*
X0228374Y0099216D01*
X0228383Y0099167D01*
X0228396Y0099120D01*
X0228413Y0099073D01*
X0228434Y0099028D01*
X0228458Y0098985D01*
X0228485Y0098944D01*
X0228515Y0098905D01*
X0228548Y0098868D01*
X0228584Y0098834D01*
X0228622Y0098803D01*
X0228663Y0098775D01*
X0228706Y0098751D01*
X0228750Y0098729D01*
X0228796Y0098711D01*
X0228796Y0095111D02*
X0228884Y0095071D01*
X0228973Y0095033D01*
X0229063Y0094999D01*
X0229155Y0094969D01*
X0229248Y0094942D01*
X0229341Y0094918D01*
X0229436Y0094898D01*
X0229531Y0094882D01*
X0229627Y0094869D01*
X0229723Y0094860D01*
X0229819Y0094855D01*
X0229916Y0094853D01*
X0229916Y0096576D02*
X0230013Y0096574D01*
X0230109Y0096569D01*
X0230205Y0096560D01*
X0230301Y0096547D01*
X0230396Y0096530D01*
X0230491Y0096511D01*
X0230584Y0096487D01*
X0230677Y0096460D01*
X0230769Y0096430D01*
X0230859Y0096396D01*
X0230948Y0096358D01*
X0231036Y0096318D01*
X0230777Y0096403D02*
X0229055Y0095025D01*
X0228366Y0095714D02*
X0228368Y0095763D01*
X0228374Y0095812D01*
X0228383Y0095861D01*
X0228396Y0095908D01*
X0228413Y0095955D01*
X0228434Y0096000D01*
X0228458Y0096043D01*
X0228485Y0096084D01*
X0228515Y0096123D01*
X0228548Y0096160D01*
X0228584Y0096194D01*
X0228622Y0096225D01*
X0228663Y0096253D01*
X0228706Y0096277D01*
X0228750Y0096299D01*
X0228796Y0096317D01*
X0228366Y0095714D02*
X0228368Y0095665D01*
X0228374Y0095616D01*
X0228383Y0095567D01*
X0228396Y0095520D01*
X0228413Y0095473D01*
X0228434Y0095428D01*
X0228458Y0095385D01*
X0228485Y0095344D01*
X0228515Y0095305D01*
X0228548Y0095268D01*
X0228584Y0095234D01*
X0228622Y0095203D01*
X0228663Y0095175D01*
X0228706Y0095151D01*
X0228750Y0095129D01*
X0228796Y0095111D01*
X0228796Y0096318D02*
X0228884Y0096358D01*
X0228973Y0096396D01*
X0229063Y0096430D01*
X0229155Y0096460D01*
X0229248Y0096487D01*
X0229341Y0096511D01*
X0229436Y0096531D01*
X0229531Y0096547D01*
X0229627Y0096560D01*
X0229723Y0096569D01*
X0229819Y0096574D01*
X0229916Y0096576D01*
X0229916Y0094853D02*
X0230013Y0094855D01*
X0230109Y0094860D01*
X0230205Y0094869D01*
X0230301Y0094882D01*
X0230396Y0094898D01*
X0230491Y0094918D01*
X0230584Y0094942D01*
X0230677Y0094969D01*
X0230769Y0094999D01*
X0230859Y0095033D01*
X0230948Y0095071D01*
X0231036Y0095111D01*
X0231466Y0095714D02*
X0231464Y0095763D01*
X0231458Y0095812D01*
X0231449Y0095861D01*
X0231436Y0095908D01*
X0231419Y0095955D01*
X0231398Y0096000D01*
X0231374Y0096043D01*
X0231347Y0096084D01*
X0231317Y0096123D01*
X0231284Y0096160D01*
X0231248Y0096194D01*
X0231210Y0096225D01*
X0231169Y0096253D01*
X0231126Y0096277D01*
X0231082Y0096299D01*
X0231036Y0096317D01*
X0231466Y0095714D02*
X0231464Y0095665D01*
X0231458Y0095616D01*
X0231449Y0095567D01*
X0231436Y0095520D01*
X0231419Y0095473D01*
X0231398Y0095428D01*
X0231374Y0095385D01*
X0231347Y0095344D01*
X0231317Y0095305D01*
X0231284Y0095268D01*
X0231248Y0095234D01*
X0231210Y0095203D01*
X0231169Y0095175D01*
X0231126Y0095151D01*
X0231082Y0095129D01*
X0231036Y0095111D01*
X0231466Y0092114D02*
X0228366Y0092114D01*
X0228366Y0091253D02*
X0228366Y0092975D01*
X0230777Y0091253D02*
X0231466Y0092114D01*
X0225541Y0098601D02*
X0225444Y0098599D01*
X0225348Y0098594D01*
X0225252Y0098585D01*
X0225156Y0098572D01*
X0225061Y0098556D01*
X0224966Y0098536D01*
X0224873Y0098512D01*
X0224780Y0098485D01*
X0224688Y0098455D01*
X0224598Y0098421D01*
X0224509Y0098383D01*
X0224421Y0098343D01*
X0224421Y0098342D02*
X0224375Y0098324D01*
X0224331Y0098302D01*
X0224288Y0098278D01*
X0224247Y0098250D01*
X0224209Y0098219D01*
X0224173Y0098185D01*
X0224140Y0098148D01*
X0224110Y0098109D01*
X0224083Y0098068D01*
X0224059Y0098025D01*
X0224038Y0097980D01*
X0224021Y0097933D01*
X0224008Y0097886D01*
X0223999Y0097837D01*
X0223993Y0097788D01*
X0223991Y0097739D01*
X0223993Y0097690D01*
X0223999Y0097641D01*
X0224008Y0097592D01*
X0224021Y0097545D01*
X0224038Y0097498D01*
X0224059Y0097453D01*
X0224083Y0097410D01*
X0224110Y0097369D01*
X0224140Y0097330D01*
X0224173Y0097293D01*
X0224209Y0097259D01*
X0224247Y0097228D01*
X0224288Y0097200D01*
X0224331Y0097176D01*
X0224375Y0097154D01*
X0224421Y0097136D01*
X0224680Y0097050D02*
X0226402Y0098428D01*
X0226661Y0098342D02*
X0226707Y0098324D01*
X0226751Y0098302D01*
X0226794Y0098278D01*
X0226835Y0098250D01*
X0226873Y0098219D01*
X0226909Y0098185D01*
X0226942Y0098148D01*
X0226972Y0098109D01*
X0226999Y0098068D01*
X0227023Y0098025D01*
X0227044Y0097980D01*
X0227061Y0097933D01*
X0227074Y0097886D01*
X0227083Y0097837D01*
X0227089Y0097788D01*
X0227091Y0097739D01*
X0227089Y0097690D01*
X0227083Y0097641D01*
X0227074Y0097592D01*
X0227061Y0097545D01*
X0227044Y0097498D01*
X0227023Y0097453D01*
X0226999Y0097410D01*
X0226972Y0097369D01*
X0226942Y0097330D01*
X0226909Y0097293D01*
X0226873Y0097259D01*
X0226835Y0097228D01*
X0226794Y0097200D01*
X0226751Y0097176D01*
X0226707Y0097154D01*
X0226661Y0097136D01*
X0226661Y0098343D02*
X0226573Y0098383D01*
X0226484Y0098421D01*
X0226394Y0098455D01*
X0226302Y0098485D01*
X0226209Y0098512D01*
X0226116Y0098536D01*
X0226021Y0098555D01*
X0225926Y0098572D01*
X0225830Y0098585D01*
X0225734Y0098594D01*
X0225638Y0098599D01*
X0225541Y0098601D01*
X0225541Y0096878D02*
X0225638Y0096880D01*
X0225734Y0096885D01*
X0225830Y0096894D01*
X0225926Y0096907D01*
X0226021Y0096923D01*
X0226116Y0096943D01*
X0226209Y0096967D01*
X0226302Y0096994D01*
X0226394Y0097024D01*
X0226484Y0097058D01*
X0226573Y0097096D01*
X0226661Y0097136D01*
X0225541Y0096878D02*
X0225444Y0096880D01*
X0225348Y0096885D01*
X0225252Y0096894D01*
X0225156Y0096907D01*
X0225061Y0096923D01*
X0224966Y0096943D01*
X0224873Y0096967D01*
X0224780Y0096994D01*
X0224688Y0097024D01*
X0224598Y0097058D01*
X0224509Y0097096D01*
X0224421Y0097136D01*
X0224163Y0100173D02*
X0224163Y0100345D01*
X0223991Y0100345D01*
X0223991Y0100173D01*
X0224163Y0100173D01*
X0223991Y0101918D02*
X0223991Y0103640D01*
X0223991Y0102779D02*
X0227091Y0102779D01*
X0226402Y0101918D01*
X0228366Y0109027D02*
X0231466Y0109027D01*
X0231466Y0110404D01*
X0230088Y0110404D02*
X0230088Y0109027D01*
X0228902Y0114378D02*
X0227180Y0114378D01*
X0227129Y0114380D01*
X0227077Y0114386D01*
X0227027Y0114395D01*
X0226977Y0114409D01*
X0226928Y0114426D01*
X0226881Y0114446D01*
X0226836Y0114470D01*
X0226792Y0114498D01*
X0226750Y0114528D01*
X0226711Y0114562D01*
X0226675Y0114598D01*
X0226641Y0114637D01*
X0226611Y0114679D01*
X0226583Y0114723D01*
X0226559Y0114768D01*
X0226539Y0114815D01*
X0226522Y0114864D01*
X0226508Y0114914D01*
X0226499Y0114964D01*
X0226493Y0115016D01*
X0226491Y0115067D01*
X0226491Y0115756D01*
X0226491Y0117398D02*
X0226491Y0119120D01*
X0226491Y0117398D02*
X0228213Y0118862D01*
X0229591Y0118345D02*
X0229589Y0118285D01*
X0229584Y0118226D01*
X0229575Y0118167D01*
X0229563Y0118109D01*
X0229547Y0118051D01*
X0229527Y0117995D01*
X0229505Y0117940D01*
X0229479Y0117886D01*
X0229450Y0117834D01*
X0229418Y0117784D01*
X0229383Y0117735D01*
X0229345Y0117689D01*
X0229304Y0117646D01*
X0229261Y0117604D01*
X0229215Y0117566D01*
X0229168Y0117530D01*
X0229118Y0117497D01*
X0229066Y0117468D01*
X0229013Y0117441D01*
X0228958Y0117418D01*
X0228902Y0117397D01*
X0228214Y0118862D02*
X0228254Y0118901D01*
X0228296Y0118938D01*
X0228341Y0118971D01*
X0228388Y0119002D01*
X0228437Y0119029D01*
X0228488Y0119053D01*
X0228541Y0119073D01*
X0228594Y0119090D01*
X0228649Y0119103D01*
X0228704Y0119112D01*
X0228760Y0119118D01*
X0228816Y0119120D01*
X0228871Y0119118D01*
X0228926Y0119112D01*
X0228981Y0119102D01*
X0229034Y0119089D01*
X0229087Y0119071D01*
X0229138Y0119050D01*
X0229187Y0119025D01*
X0229235Y0118997D01*
X0229280Y0118965D01*
X0229324Y0118931D01*
X0229364Y0118893D01*
X0229402Y0118853D01*
X0229436Y0118809D01*
X0229468Y0118764D01*
X0229496Y0118716D01*
X0229521Y0118667D01*
X0229542Y0118616D01*
X0229560Y0118563D01*
X0229573Y0118510D01*
X0229583Y0118455D01*
X0229589Y0118400D01*
X0229591Y0118345D01*
X0231491Y0118259D02*
X0231491Y0117398D01*
X0231491Y0118259D02*
X0231493Y0118317D01*
X0231499Y0118374D01*
X0231508Y0118430D01*
X0231522Y0118486D01*
X0231539Y0118541D01*
X0231559Y0118595D01*
X0231584Y0118647D01*
X0231611Y0118698D01*
X0231642Y0118746D01*
X0231676Y0118793D01*
X0231713Y0118837D01*
X0231753Y0118878D01*
X0231796Y0118917D01*
X0231841Y0118952D01*
X0231889Y0118985D01*
X0231938Y0119014D01*
X0231990Y0119040D01*
X0232043Y0119062D01*
X0232097Y0119081D01*
X0232152Y0119097D01*
X0232209Y0119108D01*
X0232266Y0119116D01*
X0232323Y0119120D01*
X0232381Y0119120D01*
X0232438Y0119116D01*
X0232495Y0119108D01*
X0232552Y0119097D01*
X0232607Y0119081D01*
X0232661Y0119062D01*
X0232714Y0119040D01*
X0232766Y0119014D01*
X0232815Y0118985D01*
X0232863Y0118952D01*
X0232908Y0118917D01*
X0232951Y0118878D01*
X0232991Y0118837D01*
X0233028Y0118793D01*
X0233062Y0118746D01*
X0233093Y0118698D01*
X0233120Y0118647D01*
X0233145Y0118595D01*
X0233165Y0118541D01*
X0233182Y0118486D01*
X0233196Y0118430D01*
X0233205Y0118374D01*
X0233211Y0118317D01*
X0233213Y0118259D01*
X0233213Y0118431D02*
X0233213Y0117743D01*
X0233213Y0118431D02*
X0233215Y0118482D01*
X0233221Y0118534D01*
X0233230Y0118584D01*
X0233244Y0118634D01*
X0233261Y0118683D01*
X0233281Y0118730D01*
X0233305Y0118776D01*
X0233333Y0118819D01*
X0233363Y0118861D01*
X0233397Y0118900D01*
X0233433Y0118936D01*
X0233472Y0118970D01*
X0233514Y0119000D01*
X0233558Y0119028D01*
X0233603Y0119052D01*
X0233650Y0119072D01*
X0233699Y0119089D01*
X0233749Y0119103D01*
X0233799Y0119112D01*
X0233851Y0119118D01*
X0233902Y0119120D01*
X0233953Y0119118D01*
X0234005Y0119112D01*
X0234055Y0119103D01*
X0234105Y0119089D01*
X0234154Y0119072D01*
X0234201Y0119052D01*
X0234247Y0119028D01*
X0234290Y0119000D01*
X0234332Y0118970D01*
X0234371Y0118936D01*
X0234407Y0118900D01*
X0234441Y0118861D01*
X0234471Y0118819D01*
X0234499Y0118776D01*
X0234523Y0118730D01*
X0234543Y0118683D01*
X0234560Y0118634D01*
X0234574Y0118584D01*
X0234583Y0118534D01*
X0234589Y0118482D01*
X0234591Y0118431D01*
X0234591Y0117398D01*
X0234591Y0115756D02*
X0234591Y0115067D01*
X0234589Y0115016D01*
X0234583Y0114964D01*
X0234574Y0114914D01*
X0234560Y0114864D01*
X0234543Y0114815D01*
X0234523Y0114768D01*
X0234499Y0114723D01*
X0234471Y0114679D01*
X0234441Y0114637D01*
X0234407Y0114598D01*
X0234371Y0114562D01*
X0234332Y0114528D01*
X0234290Y0114498D01*
X0234247Y0114470D01*
X0234201Y0114446D01*
X0234154Y0114426D01*
X0234105Y0114409D01*
X0234055Y0114395D01*
X0234005Y0114386D01*
X0233953Y0114380D01*
X0233902Y0114378D01*
X0232180Y0114378D01*
X0232129Y0114380D01*
X0232077Y0114386D01*
X0232027Y0114395D01*
X0231977Y0114409D01*
X0231928Y0114426D01*
X0231881Y0114446D01*
X0231836Y0114470D01*
X0231792Y0114498D01*
X0231750Y0114528D01*
X0231711Y0114562D01*
X0231675Y0114598D01*
X0231641Y0114637D01*
X0231611Y0114679D01*
X0231583Y0114723D01*
X0231559Y0114768D01*
X0231539Y0114815D01*
X0231522Y0114864D01*
X0231508Y0114914D01*
X0231499Y0114964D01*
X0231493Y0115016D01*
X0231491Y0115067D01*
X0231491Y0115756D01*
X0229591Y0115756D02*
X0229591Y0115067D01*
X0229589Y0115016D01*
X0229583Y0114964D01*
X0229574Y0114914D01*
X0229560Y0114864D01*
X0229543Y0114815D01*
X0229523Y0114768D01*
X0229499Y0114723D01*
X0229471Y0114679D01*
X0229441Y0114637D01*
X0229407Y0114598D01*
X0229371Y0114562D01*
X0229332Y0114528D01*
X0229290Y0114498D01*
X0229247Y0114470D01*
X0229201Y0114446D01*
X0229154Y0114426D01*
X0229105Y0114409D01*
X0229055Y0114395D01*
X0229005Y0114386D01*
X0228953Y0114380D01*
X0228902Y0114378D01*
D11*
X0206116Y0114352D02*
X0202866Y0114352D01*
X0202817Y0114354D01*
X0202769Y0114359D01*
X0202721Y0114368D01*
X0202674Y0114381D01*
X0202629Y0114397D01*
X0202584Y0114416D01*
X0202541Y0114439D01*
X0202500Y0114465D01*
X0202461Y0114494D01*
X0202424Y0114526D01*
X0202390Y0114560D01*
X0202358Y0114597D01*
X0202329Y0114636D01*
X0202303Y0114677D01*
X0202280Y0114720D01*
X0202261Y0114765D01*
X0202245Y0114810D01*
X0202232Y0114857D01*
X0202223Y0114905D01*
X0202218Y0114953D01*
X0202216Y0115002D01*
X0202216Y0115218D01*
X0204816Y0115218D02*
X0204816Y0113918D01*
X0204816Y0112719D02*
X0204383Y0112719D01*
X0204816Y0112719D02*
X0204816Y0111419D01*
X0202216Y0111419D01*
X0203083Y0109053D02*
X0203949Y0109053D01*
X0204007Y0109051D01*
X0204065Y0109045D01*
X0204122Y0109036D01*
X0204178Y0109022D01*
X0204233Y0109005D01*
X0204287Y0108984D01*
X0204340Y0108960D01*
X0204391Y0108932D01*
X0204440Y0108901D01*
X0204486Y0108866D01*
X0204531Y0108829D01*
X0204572Y0108789D01*
X0204611Y0108746D01*
X0204647Y0108700D01*
X0204680Y0108653D01*
X0204709Y0108603D01*
X0204735Y0108551D01*
X0204758Y0108498D01*
X0204777Y0108443D01*
X0204792Y0108387D01*
X0204804Y0108330D01*
X0204812Y0108273D01*
X0204816Y0108215D01*
X0204816Y0108157D01*
X0204812Y0108099D01*
X0204804Y0108042D01*
X0204792Y0107985D01*
X0204777Y0107929D01*
X0204758Y0107874D01*
X0204735Y0107821D01*
X0204709Y0107769D01*
X0204680Y0107719D01*
X0204647Y0107672D01*
X0204611Y0107626D01*
X0204572Y0107583D01*
X0204531Y0107543D01*
X0204486Y0107506D01*
X0204440Y0107471D01*
X0204391Y0107440D01*
X0204340Y0107412D01*
X0204287Y0107388D01*
X0204233Y0107367D01*
X0204178Y0107350D01*
X0204122Y0107336D01*
X0204065Y0107327D01*
X0204007Y0107321D01*
X0203949Y0107319D01*
X0203949Y0107320D02*
X0203083Y0107320D01*
X0203083Y0107319D02*
X0203025Y0107321D01*
X0202967Y0107327D01*
X0202910Y0107336D01*
X0202854Y0107350D01*
X0202799Y0107367D01*
X0202745Y0107388D01*
X0202692Y0107412D01*
X0202641Y0107440D01*
X0202592Y0107471D01*
X0202546Y0107506D01*
X0202501Y0107543D01*
X0202460Y0107583D01*
X0202421Y0107626D01*
X0202385Y0107672D01*
X0202352Y0107719D01*
X0202323Y0107769D01*
X0202297Y0107821D01*
X0202274Y0107874D01*
X0202255Y0107929D01*
X0202240Y0107985D01*
X0202228Y0108042D01*
X0202220Y0108099D01*
X0202216Y0108157D01*
X0202216Y0108215D01*
X0202220Y0108273D01*
X0202228Y0108330D01*
X0202240Y0108387D01*
X0202255Y0108443D01*
X0202274Y0108498D01*
X0202297Y0108551D01*
X0202323Y0108603D01*
X0202352Y0108653D01*
X0202385Y0108700D01*
X0202421Y0108746D01*
X0202460Y0108789D01*
X0202501Y0108829D01*
X0202546Y0108866D01*
X0202592Y0108901D01*
X0202641Y0108932D01*
X0202692Y0108960D01*
X0202745Y0108984D01*
X0202799Y0109005D01*
X0202854Y0109022D01*
X0202910Y0109036D01*
X0202967Y0109045D01*
X0203025Y0109051D01*
X0203083Y0109053D01*
X0194932Y0111220D02*
X0194896Y0111324D01*
X0194863Y0111430D01*
X0194834Y0111537D01*
X0194808Y0111644D01*
X0194785Y0111752D01*
X0194765Y0111861D01*
X0194748Y0111971D01*
X0194735Y0112080D01*
X0194725Y0112191D01*
X0194719Y0112301D01*
X0194715Y0112412D01*
X0194716Y0112411D02*
X0194717Y0112457D01*
X0194722Y0112502D01*
X0194731Y0112547D01*
X0194743Y0112592D01*
X0194759Y0112635D01*
X0194778Y0112676D01*
X0194801Y0112716D01*
X0194827Y0112754D01*
X0194856Y0112790D01*
X0194887Y0112823D01*
X0194921Y0112853D01*
X0194958Y0112881D01*
X0194997Y0112906D01*
X0195037Y0112927D01*
X0195080Y0112945D01*
X0195123Y0112959D01*
X0195168Y0112970D01*
X0195213Y0112977D01*
X0195259Y0112981D01*
X0195305Y0112980D01*
X0195350Y0112976D01*
X0195396Y0112969D01*
X0195440Y0112957D01*
X0195483Y0112942D01*
X0195525Y0112924D01*
X0195566Y0112902D01*
X0195604Y0112877D01*
X0195640Y0112849D01*
X0195674Y0112818D01*
X0195705Y0112784D01*
X0195734Y0112748D01*
X0195759Y0112710D01*
X0195781Y0112670D01*
X0195800Y0112628D01*
X0195799Y0112628D02*
X0196233Y0111545D01*
X0196232Y0111544D02*
X0196251Y0111502D01*
X0196273Y0111462D01*
X0196298Y0111424D01*
X0196327Y0111388D01*
X0196358Y0111354D01*
X0196392Y0111323D01*
X0196428Y0111295D01*
X0196466Y0111270D01*
X0196507Y0111248D01*
X0196549Y0111230D01*
X0196592Y0111215D01*
X0196636Y0111203D01*
X0196682Y0111196D01*
X0196727Y0111192D01*
X0196773Y0111191D01*
X0196819Y0111195D01*
X0196864Y0111202D01*
X0196909Y0111213D01*
X0196952Y0111227D01*
X0196995Y0111245D01*
X0197035Y0111266D01*
X0197074Y0111291D01*
X0197111Y0111319D01*
X0197145Y0111349D01*
X0197176Y0111382D01*
X0197205Y0111418D01*
X0197231Y0111456D01*
X0197254Y0111496D01*
X0197273Y0111537D01*
X0197289Y0111580D01*
X0197301Y0111625D01*
X0197310Y0111670D01*
X0197315Y0111715D01*
X0197316Y0111761D01*
X0197313Y0111853D01*
X0197306Y0111944D01*
X0197297Y0112035D01*
X0197283Y0112125D01*
X0197267Y0112215D01*
X0197247Y0112304D01*
X0197224Y0112393D01*
X0197198Y0112480D01*
X0197168Y0112567D01*
X0197135Y0112652D01*
X0197099Y0112736D01*
X0197316Y0114936D02*
X0194716Y0114936D01*
X0194716Y0117070D02*
X0197316Y0117070D01*
X0197316Y0118153D01*
X0197314Y0118202D01*
X0197309Y0118250D01*
X0197300Y0118298D01*
X0197287Y0118345D01*
X0197271Y0118390D01*
X0197252Y0118435D01*
X0197229Y0118478D01*
X0197203Y0118519D01*
X0197174Y0118558D01*
X0197142Y0118595D01*
X0197108Y0118629D01*
X0197071Y0118661D01*
X0197032Y0118690D01*
X0196991Y0118716D01*
X0196948Y0118739D01*
X0196903Y0118758D01*
X0196858Y0118774D01*
X0196811Y0118787D01*
X0196763Y0118796D01*
X0196715Y0118801D01*
X0196666Y0118803D01*
X0194716Y0118803D01*
X0195366Y0121076D02*
X0196666Y0121076D01*
X0196715Y0121078D01*
X0196763Y0121083D01*
X0196811Y0121092D01*
X0196858Y0121105D01*
X0196903Y0121121D01*
X0196948Y0121140D01*
X0196991Y0121163D01*
X0197032Y0121189D01*
X0197071Y0121218D01*
X0197108Y0121250D01*
X0197142Y0121284D01*
X0197174Y0121321D01*
X0197203Y0121360D01*
X0197229Y0121401D01*
X0197252Y0121444D01*
X0197271Y0121489D01*
X0197287Y0121534D01*
X0197300Y0121581D01*
X0197309Y0121629D01*
X0197314Y0121677D01*
X0197316Y0121726D01*
X0197316Y0122810D01*
X0194066Y0122810D01*
X0194716Y0122810D02*
X0194716Y0121726D01*
X0194718Y0121677D01*
X0194723Y0121629D01*
X0194732Y0121581D01*
X0194745Y0121534D01*
X0194761Y0121489D01*
X0194780Y0121444D01*
X0194803Y0121401D01*
X0194829Y0121360D01*
X0194858Y0121321D01*
X0194890Y0121284D01*
X0194924Y0121250D01*
X0194961Y0121218D01*
X0195000Y0121189D01*
X0195041Y0121163D01*
X0195084Y0121140D01*
X0195129Y0121121D01*
X0195174Y0121105D01*
X0195221Y0121092D01*
X0195269Y0121083D01*
X0195317Y0121078D01*
X0195366Y0121076D01*
X0194066Y0122810D02*
X0194017Y0122808D01*
X0193969Y0122803D01*
X0193921Y0122794D01*
X0193874Y0122781D01*
X0193829Y0122765D01*
X0193784Y0122746D01*
X0193741Y0122723D01*
X0193700Y0122697D01*
X0193661Y0122668D01*
X0193624Y0122636D01*
X0193590Y0122602D01*
X0193558Y0122565D01*
X0193529Y0122526D01*
X0193503Y0122485D01*
X0193480Y0122442D01*
X0193461Y0122397D01*
X0193445Y0122352D01*
X0193432Y0122305D01*
X0193423Y0122257D01*
X0193418Y0122209D01*
X0193416Y0122160D01*
X0193416Y0121293D01*
X0198399Y0115045D02*
X0198399Y0114828D01*
X0198616Y0114828D01*
X0198616Y0115045D01*
X0198399Y0115045D01*
X0196666Y0108903D02*
X0194716Y0108903D01*
X0194716Y0107170D02*
X0197316Y0107170D01*
X0197316Y0108253D01*
X0197314Y0108302D01*
X0197309Y0108350D01*
X0197300Y0108398D01*
X0197287Y0108445D01*
X0197271Y0108490D01*
X0197252Y0108535D01*
X0197229Y0108578D01*
X0197203Y0108619D01*
X0197174Y0108658D01*
X0197142Y0108695D01*
X0197108Y0108729D01*
X0197071Y0108761D01*
X0197032Y0108790D01*
X0196991Y0108816D01*
X0196948Y0108839D01*
X0196903Y0108858D01*
X0196858Y0108874D01*
X0196811Y0108887D01*
X0196763Y0108896D01*
X0196715Y0108901D01*
X0196666Y0108903D01*
X0196449Y0104853D02*
X0196016Y0104853D01*
X0196016Y0103120D01*
X0196449Y0103120D02*
X0195366Y0103120D01*
X0195317Y0103122D01*
X0195269Y0103127D01*
X0195221Y0103136D01*
X0195174Y0103149D01*
X0195129Y0103165D01*
X0195084Y0103184D01*
X0195041Y0103207D01*
X0195000Y0103233D01*
X0194961Y0103262D01*
X0194924Y0103294D01*
X0194890Y0103328D01*
X0194858Y0103365D01*
X0194829Y0103404D01*
X0194803Y0103445D01*
X0194780Y0103488D01*
X0194761Y0103533D01*
X0194745Y0103578D01*
X0194732Y0103625D01*
X0194723Y0103673D01*
X0194718Y0103721D01*
X0194716Y0103770D01*
X0194716Y0104853D01*
X0196449Y0104853D02*
X0196507Y0104851D01*
X0196565Y0104845D01*
X0196622Y0104836D01*
X0196678Y0104822D01*
X0196733Y0104805D01*
X0196787Y0104784D01*
X0196840Y0104760D01*
X0196891Y0104732D01*
X0196940Y0104701D01*
X0196986Y0104666D01*
X0197031Y0104629D01*
X0197072Y0104589D01*
X0197111Y0104546D01*
X0197147Y0104500D01*
X0197180Y0104453D01*
X0197209Y0104403D01*
X0197235Y0104351D01*
X0197258Y0104298D01*
X0197277Y0104243D01*
X0197292Y0104187D01*
X0197304Y0104130D01*
X0197312Y0104073D01*
X0197316Y0104015D01*
X0197316Y0103957D01*
X0197312Y0103899D01*
X0197304Y0103842D01*
X0197292Y0103785D01*
X0197277Y0103729D01*
X0197258Y0103674D01*
X0197235Y0103621D01*
X0197209Y0103569D01*
X0197180Y0103519D01*
X0197147Y0103472D01*
X0197111Y0103426D01*
X0197072Y0103383D01*
X0197031Y0103343D01*
X0196986Y0103306D01*
X0196940Y0103271D01*
X0196891Y0103240D01*
X0196840Y0103212D01*
X0196787Y0103188D01*
X0196733Y0103167D01*
X0196678Y0103150D01*
X0196622Y0103136D01*
X0196565Y0103127D01*
X0196507Y0103121D01*
X0196449Y0103119D01*
X0196341Y0100586D02*
X0196991Y0099395D01*
X0198616Y0099828D02*
X0198614Y0099903D01*
X0198609Y0099977D01*
X0198601Y0100051D01*
X0198589Y0100125D01*
X0198573Y0100198D01*
X0198555Y0100270D01*
X0198533Y0100342D01*
X0198507Y0100412D01*
X0198479Y0100481D01*
X0198447Y0100549D01*
X0198413Y0100615D01*
X0198375Y0100680D01*
X0198334Y0100742D01*
X0198291Y0100803D01*
X0196991Y0099395D02*
X0197021Y0099347D01*
X0197055Y0099301D01*
X0197092Y0099257D01*
X0197131Y0099216D01*
X0197173Y0099177D01*
X0197217Y0099141D01*
X0197264Y0099108D01*
X0197312Y0099078D01*
X0197363Y0099051D01*
X0197415Y0099028D01*
X0197468Y0099008D01*
X0197523Y0098991D01*
X0197579Y0098979D01*
X0197635Y0098969D01*
X0197692Y0098964D01*
X0197749Y0098962D01*
X0197749Y0098961D02*
X0197806Y0098963D01*
X0197862Y0098968D01*
X0197918Y0098978D01*
X0197973Y0098991D01*
X0198028Y0099007D01*
X0198081Y0099027D01*
X0198132Y0099050D01*
X0198183Y0099077D01*
X0198231Y0099107D01*
X0198277Y0099140D01*
X0198321Y0099176D01*
X0198362Y0099215D01*
X0198401Y0099256D01*
X0198437Y0099300D01*
X0198470Y0099346D01*
X0198500Y0099395D01*
X0198527Y0099445D01*
X0198550Y0099496D01*
X0198570Y0099549D01*
X0198586Y0099604D01*
X0198599Y0099659D01*
X0198609Y0099715D01*
X0198614Y0099771D01*
X0198616Y0099828D01*
X0195258Y0098853D02*
X0195199Y0098914D01*
X0195143Y0098978D01*
X0195090Y0099045D01*
X0195040Y0099113D01*
X0194993Y0099185D01*
X0194950Y0099258D01*
X0194910Y0099333D01*
X0194874Y0099410D01*
X0194841Y0099488D01*
X0194812Y0099568D01*
X0194787Y0099649D01*
X0194765Y0099732D01*
X0194748Y0099815D01*
X0194734Y0099899D01*
X0194724Y0099983D01*
X0194718Y0100068D01*
X0194716Y0100153D01*
X0194718Y0100210D01*
X0194723Y0100266D01*
X0194733Y0100322D01*
X0194746Y0100377D01*
X0194762Y0100432D01*
X0194782Y0100485D01*
X0194805Y0100536D01*
X0194832Y0100587D01*
X0194862Y0100635D01*
X0194895Y0100681D01*
X0194931Y0100725D01*
X0194970Y0100766D01*
X0195011Y0100805D01*
X0195055Y0100841D01*
X0195101Y0100874D01*
X0195150Y0100904D01*
X0195200Y0100931D01*
X0195251Y0100954D01*
X0195304Y0100974D01*
X0195359Y0100990D01*
X0195414Y0101003D01*
X0195470Y0101013D01*
X0195526Y0101018D01*
X0195583Y0101020D01*
X0195640Y0101018D01*
X0195697Y0101013D01*
X0195753Y0101003D01*
X0195809Y0100991D01*
X0195864Y0100974D01*
X0195917Y0100954D01*
X0195969Y0100931D01*
X0196020Y0100904D01*
X0196068Y0100874D01*
X0196115Y0100841D01*
X0196159Y0100805D01*
X0196201Y0100766D01*
X0196240Y0100725D01*
X0196277Y0100681D01*
X0196311Y0100635D01*
X0196341Y0100587D01*
X0202216Y0103270D02*
X0206116Y0103270D01*
X0204816Y0103270D02*
X0204816Y0104353D01*
X0204814Y0104402D01*
X0204809Y0104450D01*
X0204800Y0104498D01*
X0204787Y0104545D01*
X0204771Y0104590D01*
X0204752Y0104635D01*
X0204729Y0104678D01*
X0204703Y0104719D01*
X0204674Y0104758D01*
X0204642Y0104795D01*
X0204608Y0104829D01*
X0204571Y0104861D01*
X0204532Y0104890D01*
X0204491Y0104916D01*
X0204448Y0104939D01*
X0204403Y0104958D01*
X0204358Y0104974D01*
X0204311Y0104987D01*
X0204263Y0104996D01*
X0204215Y0105001D01*
X0204166Y0105003D01*
X0202216Y0105003D01*
X0203841Y0100586D02*
X0204491Y0099395D01*
X0206116Y0099828D02*
X0206114Y0099903D01*
X0206109Y0099977D01*
X0206101Y0100051D01*
X0206089Y0100125D01*
X0206073Y0100198D01*
X0206055Y0100270D01*
X0206033Y0100342D01*
X0206007Y0100412D01*
X0205979Y0100481D01*
X0205947Y0100549D01*
X0205913Y0100615D01*
X0205875Y0100680D01*
X0205834Y0100742D01*
X0205791Y0100803D01*
X0204491Y0099395D02*
X0204521Y0099347D01*
X0204555Y0099301D01*
X0204592Y0099257D01*
X0204631Y0099216D01*
X0204673Y0099177D01*
X0204717Y0099141D01*
X0204764Y0099108D01*
X0204812Y0099078D01*
X0204863Y0099051D01*
X0204915Y0099028D01*
X0204968Y0099008D01*
X0205023Y0098991D01*
X0205079Y0098979D01*
X0205135Y0098969D01*
X0205192Y0098964D01*
X0205249Y0098962D01*
X0205249Y0098961D02*
X0205306Y0098963D01*
X0205362Y0098968D01*
X0205418Y0098978D01*
X0205473Y0098991D01*
X0205528Y0099007D01*
X0205581Y0099027D01*
X0205632Y0099050D01*
X0205683Y0099077D01*
X0205731Y0099107D01*
X0205777Y0099140D01*
X0205821Y0099176D01*
X0205862Y0099215D01*
X0205901Y0099256D01*
X0205937Y0099300D01*
X0205970Y0099346D01*
X0206000Y0099395D01*
X0206027Y0099445D01*
X0206050Y0099496D01*
X0206070Y0099549D01*
X0206086Y0099604D01*
X0206099Y0099659D01*
X0206109Y0099715D01*
X0206114Y0099771D01*
X0206116Y0099828D01*
X0202758Y0098853D02*
X0202699Y0098914D01*
X0202643Y0098978D01*
X0202590Y0099045D01*
X0202540Y0099113D01*
X0202493Y0099185D01*
X0202450Y0099258D01*
X0202410Y0099333D01*
X0202374Y0099410D01*
X0202341Y0099488D01*
X0202312Y0099568D01*
X0202287Y0099649D01*
X0202265Y0099732D01*
X0202248Y0099815D01*
X0202234Y0099899D01*
X0202224Y0099983D01*
X0202218Y0100068D01*
X0202216Y0100153D01*
X0202218Y0100210D01*
X0202223Y0100266D01*
X0202233Y0100322D01*
X0202246Y0100377D01*
X0202262Y0100432D01*
X0202282Y0100485D01*
X0202305Y0100536D01*
X0202332Y0100587D01*
X0202362Y0100635D01*
X0202395Y0100681D01*
X0202431Y0100725D01*
X0202470Y0100766D01*
X0202511Y0100805D01*
X0202555Y0100841D01*
X0202601Y0100874D01*
X0202650Y0100904D01*
X0202700Y0100931D01*
X0202751Y0100954D01*
X0202804Y0100974D01*
X0202859Y0100990D01*
X0202914Y0101003D01*
X0202970Y0101013D01*
X0203026Y0101018D01*
X0203083Y0101020D01*
X0203140Y0101018D01*
X0203197Y0101013D01*
X0203253Y0101003D01*
X0203309Y0100991D01*
X0203364Y0100974D01*
X0203417Y0100954D01*
X0203469Y0100931D01*
X0203520Y0100904D01*
X0203568Y0100874D01*
X0203615Y0100841D01*
X0203659Y0100805D01*
X0203701Y0100766D01*
X0203740Y0100725D01*
X0203777Y0100681D01*
X0203811Y0100635D01*
X0203841Y0100587D01*
X0154241Y0105103D02*
X0154241Y0109003D01*
X0153158Y0109003D01*
X0153094Y0109001D01*
X0153030Y0108995D01*
X0152966Y0108986D01*
X0152904Y0108973D01*
X0152842Y0108956D01*
X0152781Y0108935D01*
X0152721Y0108911D01*
X0152663Y0108883D01*
X0152607Y0108853D01*
X0152553Y0108818D01*
X0152501Y0108781D01*
X0152451Y0108740D01*
X0152404Y0108697D01*
X0152359Y0108651D01*
X0152317Y0108602D01*
X0152278Y0108551D01*
X0152242Y0108498D01*
X0152210Y0108443D01*
X0152180Y0108386D01*
X0152154Y0108327D01*
X0152132Y0108267D01*
X0152113Y0108205D01*
X0152098Y0108143D01*
X0152087Y0108080D01*
X0152079Y0108016D01*
X0152075Y0107952D01*
X0152075Y0107888D01*
X0152079Y0107824D01*
X0152087Y0107760D01*
X0152098Y0107697D01*
X0152113Y0107635D01*
X0152132Y0107573D01*
X0152154Y0107513D01*
X0152180Y0107454D01*
X0152210Y0107397D01*
X0152242Y0107342D01*
X0152278Y0107289D01*
X0152317Y0107238D01*
X0152359Y0107189D01*
X0152404Y0107143D01*
X0152451Y0107100D01*
X0152501Y0107059D01*
X0152553Y0107022D01*
X0152607Y0106987D01*
X0152663Y0106957D01*
X0152721Y0106929D01*
X0152781Y0106905D01*
X0152842Y0106884D01*
X0152904Y0106867D01*
X0152966Y0106854D01*
X0153030Y0106845D01*
X0153094Y0106839D01*
X0153158Y0106837D01*
X0153158Y0106836D02*
X0154241Y0106836D01*
X0152941Y0106836D02*
X0152074Y0105103D01*
X0149164Y0105103D02*
X0148189Y0105103D01*
X0148189Y0107053D01*
X0148189Y0106620D02*
X0149164Y0106620D01*
X0148189Y0107053D02*
X0148191Y0107102D01*
X0148196Y0107150D01*
X0148205Y0107198D01*
X0148218Y0107245D01*
X0148234Y0107290D01*
X0148253Y0107335D01*
X0148276Y0107378D01*
X0148302Y0107419D01*
X0148331Y0107458D01*
X0148363Y0107495D01*
X0148397Y0107529D01*
X0148434Y0107561D01*
X0148473Y0107590D01*
X0148514Y0107616D01*
X0148557Y0107639D01*
X0148602Y0107658D01*
X0148647Y0107674D01*
X0148694Y0107687D01*
X0148742Y0107696D01*
X0148790Y0107701D01*
X0148839Y0107703D01*
X0149705Y0107703D01*
X0149164Y0106619D02*
X0149218Y0106617D01*
X0149272Y0106611D01*
X0149325Y0106602D01*
X0149378Y0106588D01*
X0149429Y0106571D01*
X0149479Y0106551D01*
X0149527Y0106526D01*
X0149574Y0106499D01*
X0149618Y0106468D01*
X0149660Y0106434D01*
X0149700Y0106397D01*
X0149737Y0106357D01*
X0149771Y0106315D01*
X0149802Y0106271D01*
X0149829Y0106224D01*
X0149854Y0106176D01*
X0149874Y0106126D01*
X0149891Y0106075D01*
X0149905Y0106022D01*
X0149914Y0105969D01*
X0149920Y0105915D01*
X0149922Y0105861D01*
X0149920Y0105807D01*
X0149914Y0105753D01*
X0149905Y0105700D01*
X0149891Y0105647D01*
X0149874Y0105596D01*
X0149854Y0105546D01*
X0149829Y0105498D01*
X0149802Y0105451D01*
X0149771Y0105407D01*
X0149737Y0105365D01*
X0149700Y0105325D01*
X0149660Y0105288D01*
X0149618Y0105254D01*
X0149574Y0105223D01*
X0149527Y0105196D01*
X0149479Y0105171D01*
X0149429Y0105151D01*
X0149378Y0105134D01*
X0149325Y0105120D01*
X0149272Y0105111D01*
X0149218Y0105105D01*
X0149164Y0105103D01*
X0145872Y0105753D02*
X0145872Y0107053D01*
X0145870Y0107102D01*
X0145865Y0107150D01*
X0145856Y0107198D01*
X0145843Y0107245D01*
X0145827Y0107290D01*
X0145808Y0107335D01*
X0145785Y0107378D01*
X0145759Y0107419D01*
X0145730Y0107458D01*
X0145698Y0107495D01*
X0145664Y0107529D01*
X0145627Y0107561D01*
X0145588Y0107590D01*
X0145547Y0107616D01*
X0145504Y0107639D01*
X0145459Y0107658D01*
X0145414Y0107674D01*
X0145367Y0107687D01*
X0145319Y0107696D01*
X0145271Y0107701D01*
X0145222Y0107703D01*
X0144139Y0107703D01*
X0144139Y0109003D02*
X0144139Y0105103D01*
X0145222Y0105103D01*
X0145271Y0105105D01*
X0145319Y0105110D01*
X0145367Y0105119D01*
X0145414Y0105132D01*
X0145459Y0105148D01*
X0145504Y0105167D01*
X0145547Y0105190D01*
X0145588Y0105216D01*
X0145627Y0105245D01*
X0145664Y0105277D01*
X0145698Y0105311D01*
X0145730Y0105348D01*
X0145759Y0105387D01*
X0145785Y0105428D01*
X0145808Y0105471D01*
X0145827Y0105516D01*
X0145843Y0105561D01*
X0145856Y0105608D01*
X0145865Y0105656D01*
X0145870Y0105704D01*
X0145872Y0105753D01*
X0142758Y0103803D02*
X0142709Y0103805D01*
X0142661Y0103810D01*
X0142613Y0103819D01*
X0142566Y0103832D01*
X0142521Y0103848D01*
X0142476Y0103867D01*
X0142433Y0103890D01*
X0142392Y0103916D01*
X0142353Y0103945D01*
X0142316Y0103977D01*
X0142282Y0104011D01*
X0142250Y0104048D01*
X0142221Y0104087D01*
X0142195Y0104128D01*
X0142172Y0104171D01*
X0142153Y0104216D01*
X0142137Y0104261D01*
X0142124Y0104308D01*
X0142115Y0104356D01*
X0142110Y0104404D01*
X0142108Y0104453D01*
X0142108Y0107703D01*
X0141999Y0108786D02*
X0142216Y0108786D01*
X0142216Y0109003D01*
X0141999Y0109003D01*
X0141999Y0108786D01*
X0142758Y0103803D02*
X0142974Y0103803D01*
X0119991Y0204478D02*
X0118691Y0204478D01*
X0118691Y0206645D01*
X0119341Y0206645D01*
X0120858Y0207511D02*
X0120856Y0207568D01*
X0120851Y0207624D01*
X0120841Y0207680D01*
X0120828Y0207735D01*
X0120812Y0207790D01*
X0120792Y0207843D01*
X0120769Y0207894D01*
X0120742Y0207945D01*
X0120712Y0207993D01*
X0120679Y0208039D01*
X0120643Y0208083D01*
X0120604Y0208124D01*
X0120563Y0208163D01*
X0120519Y0208199D01*
X0120473Y0208232D01*
X0120425Y0208262D01*
X0120374Y0208289D01*
X0120323Y0208312D01*
X0120270Y0208332D01*
X0120215Y0208348D01*
X0120160Y0208361D01*
X0120104Y0208371D01*
X0120048Y0208376D01*
X0119991Y0208378D01*
X0118691Y0208378D01*
X0120858Y0207511D02*
X0120858Y0205345D01*
X0120856Y0205288D01*
X0120851Y0205232D01*
X0120841Y0205176D01*
X0120828Y0205121D01*
X0120812Y0205066D01*
X0120792Y0205013D01*
X0120769Y0204962D01*
X0120742Y0204912D01*
X0120712Y0204863D01*
X0120679Y0204817D01*
X0120643Y0204773D01*
X0120604Y0204732D01*
X0120563Y0204693D01*
X0120519Y0204657D01*
X0120473Y0204624D01*
X0120425Y0204594D01*
X0120374Y0204567D01*
X0120323Y0204544D01*
X0120270Y0204524D01*
X0120215Y0204508D01*
X0120160Y0204495D01*
X0120104Y0204485D01*
X0120048Y0204480D01*
X0119991Y0204478D01*
X0116058Y0204478D02*
X0116058Y0208378D01*
X0113891Y0204478D01*
X0113891Y0208378D01*
X0111258Y0208378D02*
X0111258Y0204478D01*
X0110174Y0204478D01*
X0110111Y0204480D01*
X0110048Y0204485D01*
X0109986Y0204494D01*
X0109924Y0204507D01*
X0109863Y0204523D01*
X0109804Y0204543D01*
X0109745Y0204567D01*
X0109688Y0204593D01*
X0109633Y0204623D01*
X0109579Y0204656D01*
X0109527Y0204692D01*
X0109478Y0204731D01*
X0109431Y0204773D01*
X0109386Y0204818D01*
X0109344Y0204865D01*
X0109305Y0204914D01*
X0109269Y0204966D01*
X0109236Y0205020D01*
X0109206Y0205075D01*
X0109180Y0205132D01*
X0109156Y0205191D01*
X0109136Y0205250D01*
X0109120Y0205311D01*
X0109107Y0205373D01*
X0109098Y0205435D01*
X0109093Y0205498D01*
X0109091Y0205561D01*
X0109091Y0207295D01*
X0109093Y0207358D01*
X0109098Y0207421D01*
X0109107Y0207483D01*
X0109120Y0207545D01*
X0109136Y0207606D01*
X0109156Y0207665D01*
X0109180Y0207724D01*
X0109206Y0207781D01*
X0109236Y0207837D01*
X0109269Y0207890D01*
X0109305Y0207942D01*
X0109344Y0207991D01*
X0109386Y0208038D01*
X0109431Y0208083D01*
X0109478Y0208125D01*
X0109527Y0208164D01*
X0109579Y0208200D01*
X0109633Y0208233D01*
X0109688Y0208263D01*
X0109745Y0208289D01*
X0109804Y0208313D01*
X0109863Y0208333D01*
X0109924Y0208349D01*
X0109986Y0208362D01*
X0110048Y0208371D01*
X0110111Y0208376D01*
X0110174Y0208378D01*
X0111258Y0208378D01*
D12*
X0152291Y0132053D02*
X0152293Y0132103D01*
X0152299Y0132152D01*
X0152309Y0132201D01*
X0152322Y0132248D01*
X0152340Y0132295D01*
X0152361Y0132340D01*
X0152385Y0132383D01*
X0152413Y0132424D01*
X0152444Y0132463D01*
X0152478Y0132499D01*
X0152515Y0132533D01*
X0152555Y0132563D01*
X0152596Y0132590D01*
X0152640Y0132614D01*
X0152685Y0132634D01*
X0152732Y0132650D01*
X0152780Y0132663D01*
X0152829Y0132672D01*
X0152879Y0132677D01*
X0152928Y0132678D01*
X0152978Y0132675D01*
X0153027Y0132668D01*
X0153076Y0132657D01*
X0153123Y0132643D01*
X0153169Y0132624D01*
X0153214Y0132602D01*
X0153257Y0132577D01*
X0153297Y0132548D01*
X0153335Y0132516D01*
X0153371Y0132482D01*
X0153404Y0132444D01*
X0153433Y0132404D01*
X0153459Y0132362D01*
X0153482Y0132318D01*
X0153501Y0132272D01*
X0153517Y0132225D01*
X0153529Y0132176D01*
X0153537Y0132127D01*
X0153541Y0132078D01*
X0153541Y0132028D01*
X0153537Y0131979D01*
X0153529Y0131930D01*
X0153517Y0131881D01*
X0153501Y0131834D01*
X0153482Y0131788D01*
X0153459Y0131744D01*
X0153433Y0131702D01*
X0153404Y0131662D01*
X0153371Y0131624D01*
X0153335Y0131590D01*
X0153297Y0131558D01*
X0153257Y0131529D01*
X0153214Y0131504D01*
X0153169Y0131482D01*
X0153123Y0131463D01*
X0153076Y0131449D01*
X0153027Y0131438D01*
X0152978Y0131431D01*
X0152928Y0131428D01*
X0152879Y0131429D01*
X0152829Y0131434D01*
X0152780Y0131443D01*
X0152732Y0131456D01*
X0152685Y0131472D01*
X0152640Y0131492D01*
X0152596Y0131516D01*
X0152555Y0131543D01*
X0152515Y0131573D01*
X0152478Y0131607D01*
X0152444Y0131643D01*
X0152413Y0131682D01*
X0152385Y0131723D01*
X0152361Y0131766D01*
X0152340Y0131811D01*
X0152322Y0131858D01*
X0152309Y0131905D01*
X0152299Y0131954D01*
X0152293Y0132003D01*
X0152291Y0132053D01*
X0150979Y0102053D02*
X0146103Y0102053D01*
X0142166Y0102053D02*
X0137291Y0102053D01*
X0137291Y0096881D01*
X0137291Y0092944D02*
X0137291Y0087772D01*
X0137291Y0083835D02*
X0137291Y0078662D01*
X0137291Y0074725D02*
X0137291Y0069553D01*
X0142166Y0069553D01*
X0146103Y0069553D02*
X0150979Y0069553D01*
X0154916Y0069553D02*
X0159791Y0069553D01*
X0159791Y0074725D01*
X0159791Y0078662D02*
X0159791Y0083835D01*
X0159791Y0087772D02*
X0159791Y0092944D01*
X0159791Y0096881D02*
X0159791Y0102053D01*
X0154916Y0102053D01*
X0226041Y0111428D02*
X0227291Y0113303D01*
X0230416Y0111428D02*
X0231666Y0113303D01*
D13*
X0228772Y0124553D02*
X0228774Y0124592D01*
X0228780Y0124631D01*
X0228790Y0124669D01*
X0228803Y0124706D01*
X0228820Y0124741D01*
X0228840Y0124775D01*
X0228864Y0124806D01*
X0228891Y0124835D01*
X0228920Y0124861D01*
X0228952Y0124884D01*
X0228986Y0124904D01*
X0229022Y0124920D01*
X0229059Y0124932D01*
X0229098Y0124941D01*
X0229137Y0124946D01*
X0229176Y0124947D01*
X0229215Y0124944D01*
X0229254Y0124937D01*
X0229291Y0124926D01*
X0229328Y0124912D01*
X0229363Y0124894D01*
X0229396Y0124873D01*
X0229427Y0124848D01*
X0229455Y0124821D01*
X0229480Y0124791D01*
X0229502Y0124758D01*
X0229521Y0124724D01*
X0229536Y0124688D01*
X0229548Y0124650D01*
X0229556Y0124612D01*
X0229560Y0124573D01*
X0229560Y0124533D01*
X0229556Y0124494D01*
X0229548Y0124456D01*
X0229536Y0124418D01*
X0229521Y0124382D01*
X0229502Y0124348D01*
X0229480Y0124315D01*
X0229455Y0124285D01*
X0229427Y0124258D01*
X0229396Y0124233D01*
X0229363Y0124212D01*
X0229328Y0124194D01*
X0229291Y0124180D01*
X0229254Y0124169D01*
X0229215Y0124162D01*
X0229176Y0124159D01*
X0229137Y0124160D01*
X0229098Y0124165D01*
X0229059Y0124174D01*
X0229022Y0124186D01*
X0228986Y0124202D01*
X0228952Y0124222D01*
X0228920Y0124245D01*
X0228891Y0124271D01*
X0228864Y0124300D01*
X0228840Y0124331D01*
X0228820Y0124365D01*
X0228803Y0124400D01*
X0228790Y0124437D01*
X0228780Y0124475D01*
X0228774Y0124514D01*
X0228772Y0124553D01*
X0235022Y0124553D02*
X0235024Y0124592D01*
X0235030Y0124631D01*
X0235040Y0124669D01*
X0235053Y0124706D01*
X0235070Y0124741D01*
X0235090Y0124775D01*
X0235114Y0124806D01*
X0235141Y0124835D01*
X0235170Y0124861D01*
X0235202Y0124884D01*
X0235236Y0124904D01*
X0235272Y0124920D01*
X0235309Y0124932D01*
X0235348Y0124941D01*
X0235387Y0124946D01*
X0235426Y0124947D01*
X0235465Y0124944D01*
X0235504Y0124937D01*
X0235541Y0124926D01*
X0235578Y0124912D01*
X0235613Y0124894D01*
X0235646Y0124873D01*
X0235677Y0124848D01*
X0235705Y0124821D01*
X0235730Y0124791D01*
X0235752Y0124758D01*
X0235771Y0124724D01*
X0235786Y0124688D01*
X0235798Y0124650D01*
X0235806Y0124612D01*
X0235810Y0124573D01*
X0235810Y0124533D01*
X0235806Y0124494D01*
X0235798Y0124456D01*
X0235786Y0124418D01*
X0235771Y0124382D01*
X0235752Y0124348D01*
X0235730Y0124315D01*
X0235705Y0124285D01*
X0235677Y0124258D01*
X0235646Y0124233D01*
X0235613Y0124212D01*
X0235578Y0124194D01*
X0235541Y0124180D01*
X0235504Y0124169D01*
X0235465Y0124162D01*
X0235426Y0124159D01*
X0235387Y0124160D01*
X0235348Y0124165D01*
X0235309Y0124174D01*
X0235272Y0124186D01*
X0235236Y0124202D01*
X0235202Y0124222D01*
X0235170Y0124245D01*
X0235141Y0124271D01*
X0235114Y0124300D01*
X0235090Y0124331D01*
X0235070Y0124365D01*
X0235053Y0124400D01*
X0235040Y0124437D01*
X0235030Y0124475D01*
X0235024Y0124514D01*
X0235022Y0124553D01*
X0161125Y0113195D02*
X0161125Y0140911D01*
X0150869Y0140911D01*
X0144963Y0140911D02*
X0134707Y0140911D01*
X0134707Y0113195D01*
X0134707Y0140911D01*
X0161125Y0140911D01*
X0161125Y0113195D01*
X0134707Y0113195D01*
X0141026Y0113195D02*
X0154806Y0113195D01*
X0118772Y0122053D02*
X0118774Y0122092D01*
X0118780Y0122131D01*
X0118790Y0122169D01*
X0118803Y0122206D01*
X0118820Y0122241D01*
X0118840Y0122275D01*
X0118864Y0122306D01*
X0118891Y0122335D01*
X0118920Y0122361D01*
X0118952Y0122384D01*
X0118986Y0122404D01*
X0119022Y0122420D01*
X0119059Y0122432D01*
X0119098Y0122441D01*
X0119137Y0122446D01*
X0119176Y0122447D01*
X0119215Y0122444D01*
X0119254Y0122437D01*
X0119291Y0122426D01*
X0119328Y0122412D01*
X0119363Y0122394D01*
X0119396Y0122373D01*
X0119427Y0122348D01*
X0119455Y0122321D01*
X0119480Y0122291D01*
X0119502Y0122258D01*
X0119521Y0122224D01*
X0119536Y0122188D01*
X0119548Y0122150D01*
X0119556Y0122112D01*
X0119560Y0122073D01*
X0119560Y0122033D01*
X0119556Y0121994D01*
X0119548Y0121956D01*
X0119536Y0121918D01*
X0119521Y0121882D01*
X0119502Y0121848D01*
X0119480Y0121815D01*
X0119455Y0121785D01*
X0119427Y0121758D01*
X0119396Y0121733D01*
X0119363Y0121712D01*
X0119328Y0121694D01*
X0119291Y0121680D01*
X0119254Y0121669D01*
X0119215Y0121662D01*
X0119176Y0121659D01*
X0119137Y0121660D01*
X0119098Y0121665D01*
X0119059Y0121674D01*
X0119022Y0121686D01*
X0118986Y0121702D01*
X0118952Y0121722D01*
X0118920Y0121745D01*
X0118891Y0121771D01*
X0118864Y0121800D01*
X0118840Y0121831D01*
X0118820Y0121865D01*
X0118803Y0121900D01*
X0118790Y0121937D01*
X0118780Y0121975D01*
X0118774Y0122014D01*
X0118772Y0122053D01*
D14*
X0117197Y0117526D02*
X0121134Y0117526D01*
X0121134Y0126581D01*
X0117197Y0126581D01*
X0117197Y0117526D01*
X0117197Y0098884D02*
X0117197Y0090222D01*
X0121134Y0090222D01*
X0121134Y0098884D01*
X0117197Y0098884D01*
X0139072Y0100134D02*
X0139072Y0091472D01*
X0143009Y0091472D01*
X0143009Y0100134D01*
X0139072Y0100134D01*
X0144210Y0092772D02*
X0144210Y0088835D01*
X0152872Y0088835D01*
X0152872Y0092772D01*
X0144210Y0092772D01*
X0143009Y0090134D02*
X0139072Y0090134D01*
X0139072Y0081472D01*
X0143009Y0081472D01*
X0143009Y0090134D01*
X0144210Y0082772D02*
X0144210Y0078835D01*
X0152872Y0078835D01*
X0152872Y0082772D01*
X0144210Y0082772D01*
X0143009Y0080134D02*
X0139072Y0080134D01*
X0139072Y0071472D01*
X0143009Y0071472D01*
X0143009Y0080134D01*
X0154072Y0080134D02*
X0154072Y0071472D01*
X0158009Y0071472D01*
X0158009Y0080134D01*
X0154072Y0080134D01*
X0154072Y0081472D02*
X0158009Y0081472D01*
X0158009Y0090134D01*
X0154072Y0090134D01*
X0154072Y0081472D01*
X0154072Y0091472D02*
X0158009Y0091472D01*
X0158009Y0100134D01*
X0154072Y0100134D01*
X0154072Y0091472D01*
X0137916Y0127053D02*
X0137919Y0127298D01*
X0137928Y0127544D01*
X0137943Y0127789D01*
X0137964Y0128033D01*
X0137991Y0128277D01*
X0138024Y0128520D01*
X0138063Y0128763D01*
X0138108Y0129004D01*
X0138159Y0129244D01*
X0138216Y0129483D01*
X0138278Y0129720D01*
X0138347Y0129956D01*
X0138421Y0130190D01*
X0138501Y0130422D01*
X0138586Y0130652D01*
X0138677Y0130880D01*
X0138774Y0131105D01*
X0138876Y0131329D01*
X0138984Y0131549D01*
X0139097Y0131767D01*
X0139215Y0131982D01*
X0139339Y0132194D01*
X0139467Y0132403D01*
X0139601Y0132609D01*
X0139740Y0132811D01*
X0139884Y0133010D01*
X0140033Y0133205D01*
X0140186Y0133397D01*
X0140344Y0133585D01*
X0140506Y0133769D01*
X0140674Y0133948D01*
X0140845Y0134124D01*
X0141021Y0134295D01*
X0141200Y0134463D01*
X0141384Y0134625D01*
X0141572Y0134783D01*
X0141764Y0134936D01*
X0141959Y0135085D01*
X0142158Y0135229D01*
X0142360Y0135368D01*
X0142566Y0135502D01*
X0142775Y0135630D01*
X0142987Y0135754D01*
X0143202Y0135872D01*
X0143420Y0135985D01*
X0143640Y0136093D01*
X0143864Y0136195D01*
X0144089Y0136292D01*
X0144317Y0136383D01*
X0144547Y0136468D01*
X0144779Y0136548D01*
X0145013Y0136622D01*
X0145249Y0136691D01*
X0145486Y0136753D01*
X0145725Y0136810D01*
X0145965Y0136861D01*
X0146206Y0136906D01*
X0146449Y0136945D01*
X0146692Y0136978D01*
X0146936Y0137005D01*
X0147180Y0137026D01*
X0147425Y0137041D01*
X0147671Y0137050D01*
X0147916Y0137053D01*
X0148161Y0137050D01*
X0148407Y0137041D01*
X0148652Y0137026D01*
X0148896Y0137005D01*
X0149140Y0136978D01*
X0149383Y0136945D01*
X0149626Y0136906D01*
X0149867Y0136861D01*
X0150107Y0136810D01*
X0150346Y0136753D01*
X0150583Y0136691D01*
X0150819Y0136622D01*
X0151053Y0136548D01*
X0151285Y0136468D01*
X0151515Y0136383D01*
X0151743Y0136292D01*
X0151968Y0136195D01*
X0152192Y0136093D01*
X0152412Y0135985D01*
X0152630Y0135872D01*
X0152845Y0135754D01*
X0153057Y0135630D01*
X0153266Y0135502D01*
X0153472Y0135368D01*
X0153674Y0135229D01*
X0153873Y0135085D01*
X0154068Y0134936D01*
X0154260Y0134783D01*
X0154448Y0134625D01*
X0154632Y0134463D01*
X0154811Y0134295D01*
X0154987Y0134124D01*
X0155158Y0133948D01*
X0155326Y0133769D01*
X0155488Y0133585D01*
X0155646Y0133397D01*
X0155799Y0133205D01*
X0155948Y0133010D01*
X0156092Y0132811D01*
X0156231Y0132609D01*
X0156365Y0132403D01*
X0156493Y0132194D01*
X0156617Y0131982D01*
X0156735Y0131767D01*
X0156848Y0131549D01*
X0156956Y0131329D01*
X0157058Y0131105D01*
X0157155Y0130880D01*
X0157246Y0130652D01*
X0157331Y0130422D01*
X0157411Y0130190D01*
X0157485Y0129956D01*
X0157554Y0129720D01*
X0157616Y0129483D01*
X0157673Y0129244D01*
X0157724Y0129004D01*
X0157769Y0128763D01*
X0157808Y0128520D01*
X0157841Y0128277D01*
X0157868Y0128033D01*
X0157889Y0127789D01*
X0157904Y0127544D01*
X0157913Y0127298D01*
X0157916Y0127053D01*
X0157913Y0126808D01*
X0157904Y0126562D01*
X0157889Y0126317D01*
X0157868Y0126073D01*
X0157841Y0125829D01*
X0157808Y0125586D01*
X0157769Y0125343D01*
X0157724Y0125102D01*
X0157673Y0124862D01*
X0157616Y0124623D01*
X0157554Y0124386D01*
X0157485Y0124150D01*
X0157411Y0123916D01*
X0157331Y0123684D01*
X0157246Y0123454D01*
X0157155Y0123226D01*
X0157058Y0123001D01*
X0156956Y0122777D01*
X0156848Y0122557D01*
X0156735Y0122339D01*
X0156617Y0122124D01*
X0156493Y0121912D01*
X0156365Y0121703D01*
X0156231Y0121497D01*
X0156092Y0121295D01*
X0155948Y0121096D01*
X0155799Y0120901D01*
X0155646Y0120709D01*
X0155488Y0120521D01*
X0155326Y0120337D01*
X0155158Y0120158D01*
X0154987Y0119982D01*
X0154811Y0119811D01*
X0154632Y0119643D01*
X0154448Y0119481D01*
X0154260Y0119323D01*
X0154068Y0119170D01*
X0153873Y0119021D01*
X0153674Y0118877D01*
X0153472Y0118738D01*
X0153266Y0118604D01*
X0153057Y0118476D01*
X0152845Y0118352D01*
X0152630Y0118234D01*
X0152412Y0118121D01*
X0152192Y0118013D01*
X0151968Y0117911D01*
X0151743Y0117814D01*
X0151515Y0117723D01*
X0151285Y0117638D01*
X0151053Y0117558D01*
X0150819Y0117484D01*
X0150583Y0117415D01*
X0150346Y0117353D01*
X0150107Y0117296D01*
X0149867Y0117245D01*
X0149626Y0117200D01*
X0149383Y0117161D01*
X0149140Y0117128D01*
X0148896Y0117101D01*
X0148652Y0117080D01*
X0148407Y0117065D01*
X0148161Y0117056D01*
X0147916Y0117053D01*
X0147671Y0117056D01*
X0147425Y0117065D01*
X0147180Y0117080D01*
X0146936Y0117101D01*
X0146692Y0117128D01*
X0146449Y0117161D01*
X0146206Y0117200D01*
X0145965Y0117245D01*
X0145725Y0117296D01*
X0145486Y0117353D01*
X0145249Y0117415D01*
X0145013Y0117484D01*
X0144779Y0117558D01*
X0144547Y0117638D01*
X0144317Y0117723D01*
X0144089Y0117814D01*
X0143864Y0117911D01*
X0143640Y0118013D01*
X0143420Y0118121D01*
X0143202Y0118234D01*
X0142987Y0118352D01*
X0142775Y0118476D01*
X0142566Y0118604D01*
X0142360Y0118738D01*
X0142158Y0118877D01*
X0141959Y0119021D01*
X0141764Y0119170D01*
X0141572Y0119323D01*
X0141384Y0119481D01*
X0141200Y0119643D01*
X0141021Y0119811D01*
X0140845Y0119982D01*
X0140674Y0120158D01*
X0140506Y0120337D01*
X0140344Y0120521D01*
X0140186Y0120709D01*
X0140033Y0120901D01*
X0139884Y0121096D01*
X0139740Y0121295D01*
X0139601Y0121497D01*
X0139467Y0121703D01*
X0139339Y0121912D01*
X0139215Y0122124D01*
X0139097Y0122339D01*
X0138984Y0122557D01*
X0138876Y0122777D01*
X0138774Y0123001D01*
X0138677Y0123226D01*
X0138586Y0123454D01*
X0138501Y0123684D01*
X0138421Y0123916D01*
X0138347Y0124150D01*
X0138278Y0124386D01*
X0138216Y0124623D01*
X0138159Y0124862D01*
X0138108Y0125102D01*
X0138063Y0125343D01*
X0138024Y0125586D01*
X0137991Y0125829D01*
X0137964Y0126073D01*
X0137943Y0126317D01*
X0137928Y0126562D01*
X0137919Y0126808D01*
X0137916Y0127053D01*
X0198447Y0127634D02*
X0198447Y0118972D01*
X0202384Y0118972D01*
X0202384Y0127634D01*
X0198447Y0127634D01*
X0227197Y0129081D02*
X0227197Y0120026D01*
X0231134Y0120026D01*
X0231134Y0129081D01*
X0227197Y0129081D01*
X0233447Y0129081D02*
X0237384Y0129081D01*
X0237384Y0120026D01*
X0233447Y0120026D01*
X0233447Y0129081D01*
X0219284Y0153904D02*
X0209048Y0153904D01*
X0209048Y0160203D01*
X0219284Y0160203D01*
X0219284Y0153904D01*
X0216041Y0153928D02*
X0216041Y0160178D01*
X0212916Y0157053D01*
X0216041Y0153928D01*
X0216041Y0153988D02*
X0215981Y0153988D01*
X0216041Y0154486D02*
X0215483Y0154486D01*
X0214984Y0154985D02*
X0216041Y0154985D01*
X0216041Y0155483D02*
X0214486Y0155483D01*
X0213987Y0155982D02*
X0216041Y0155982D01*
X0216041Y0156480D02*
X0213489Y0156480D01*
X0212990Y0156979D02*
X0216041Y0156979D01*
X0216041Y0157477D02*
X0213340Y0157477D01*
X0213838Y0157976D02*
X0216041Y0157976D01*
X0216041Y0158474D02*
X0214337Y0158474D01*
X0214835Y0158973D02*
X0216041Y0158973D01*
X0216041Y0159471D02*
X0215334Y0159471D01*
X0215832Y0159970D02*
X0216041Y0159970D01*
D15*
X0122335Y0166748D02*
X0105997Y0166748D01*
X0105997Y0184858D01*
X0122335Y0184858D01*
X0122335Y0166748D01*
D16*
X0109481Y0181807D03*
D17*
X0109166Y0186827D03*
X0119166Y0186827D03*
X0119166Y0164780D03*
X0109166Y0164780D03*
D18*
X0147916Y0142407D03*
X0157916Y0111699D03*
X0137916Y0111699D03*
D19*
X0145416Y0119553D02*
X0150416Y0119553D01*
X0150416Y0124553D01*
X0155416Y0124553D01*
X0155416Y0129553D01*
X0150416Y0129553D01*
X0150416Y0134553D01*
X0145416Y0134553D01*
X0145416Y0129553D01*
X0140416Y0129553D01*
X0140416Y0124553D01*
X0145416Y0124553D01*
X0145416Y0119553D01*
D20*
X0119914Y0193205D02*
X0108418Y0193205D01*
X0108418Y0198402D01*
X0119914Y0198402D01*
X0119914Y0193205D01*
D21*
X0114166Y0191853D03*
X0117866Y0199753D03*
X0110466Y0199753D03*
D22*
X0212197Y0157053D03*
D23*
X0208457Y0157053D03*
X0219875Y0157053D03*
M02*
