G75*
%MOIN*%
%OFA0B0*%
%FSLAX25Y25*%
%IPPOS*%
%LPD*%
%AMOC8*
5,1,8,0,0,1.08239X$1,22.5*
%
%ADD10C,0.00000*%
%ADD11C,0.00800*%
%ADD12C,0.01200*%
%ADD13C,0.01000*%
%ADD14C,0.00500*%
%ADD15C,0.02953*%
%ADD16R,0.01969X0.03937*%
%ADD17C,0.02000*%
%ADD18C,0.00600*%
%ADD19R,0.01000X0.02000*%
%ADD20R,0.02300X0.01800*%
D10*
X0055416Y0048303D02*
X0055416Y0221531D01*
X0299510Y0221531D01*
X0299510Y0048303D01*
X0055416Y0048303D01*
X0060928Y0060114D02*
X0060930Y0060272D01*
X0060936Y0060430D01*
X0060946Y0060588D01*
X0060960Y0060746D01*
X0060978Y0060903D01*
X0060999Y0061060D01*
X0061025Y0061216D01*
X0061055Y0061372D01*
X0061088Y0061527D01*
X0061126Y0061680D01*
X0061167Y0061833D01*
X0061212Y0061985D01*
X0061261Y0062136D01*
X0061314Y0062285D01*
X0061370Y0062433D01*
X0061430Y0062579D01*
X0061494Y0062724D01*
X0061562Y0062867D01*
X0061633Y0063009D01*
X0061707Y0063149D01*
X0061785Y0063286D01*
X0061867Y0063422D01*
X0061951Y0063556D01*
X0062040Y0063687D01*
X0062131Y0063816D01*
X0062226Y0063943D01*
X0062323Y0064068D01*
X0062424Y0064190D01*
X0062528Y0064309D01*
X0062635Y0064426D01*
X0062745Y0064540D01*
X0062858Y0064651D01*
X0062973Y0064760D01*
X0063091Y0064865D01*
X0063212Y0064967D01*
X0063335Y0065067D01*
X0063461Y0065163D01*
X0063589Y0065256D01*
X0063719Y0065346D01*
X0063852Y0065432D01*
X0063987Y0065516D01*
X0064123Y0065595D01*
X0064262Y0065672D01*
X0064403Y0065744D01*
X0064545Y0065814D01*
X0064689Y0065879D01*
X0064835Y0065941D01*
X0064982Y0065999D01*
X0065131Y0066054D01*
X0065281Y0066105D01*
X0065432Y0066152D01*
X0065584Y0066195D01*
X0065737Y0066234D01*
X0065892Y0066270D01*
X0066047Y0066301D01*
X0066203Y0066329D01*
X0066359Y0066353D01*
X0066516Y0066373D01*
X0066674Y0066389D01*
X0066831Y0066401D01*
X0066990Y0066409D01*
X0067148Y0066413D01*
X0067306Y0066413D01*
X0067464Y0066409D01*
X0067623Y0066401D01*
X0067780Y0066389D01*
X0067938Y0066373D01*
X0068095Y0066353D01*
X0068251Y0066329D01*
X0068407Y0066301D01*
X0068562Y0066270D01*
X0068717Y0066234D01*
X0068870Y0066195D01*
X0069022Y0066152D01*
X0069173Y0066105D01*
X0069323Y0066054D01*
X0069472Y0065999D01*
X0069619Y0065941D01*
X0069765Y0065879D01*
X0069909Y0065814D01*
X0070051Y0065744D01*
X0070192Y0065672D01*
X0070331Y0065595D01*
X0070467Y0065516D01*
X0070602Y0065432D01*
X0070735Y0065346D01*
X0070865Y0065256D01*
X0070993Y0065163D01*
X0071119Y0065067D01*
X0071242Y0064967D01*
X0071363Y0064865D01*
X0071481Y0064760D01*
X0071596Y0064651D01*
X0071709Y0064540D01*
X0071819Y0064426D01*
X0071926Y0064309D01*
X0072030Y0064190D01*
X0072131Y0064068D01*
X0072228Y0063943D01*
X0072323Y0063816D01*
X0072414Y0063687D01*
X0072503Y0063556D01*
X0072587Y0063422D01*
X0072669Y0063286D01*
X0072747Y0063149D01*
X0072821Y0063009D01*
X0072892Y0062867D01*
X0072960Y0062724D01*
X0073024Y0062579D01*
X0073084Y0062433D01*
X0073140Y0062285D01*
X0073193Y0062136D01*
X0073242Y0061985D01*
X0073287Y0061833D01*
X0073328Y0061680D01*
X0073366Y0061527D01*
X0073399Y0061372D01*
X0073429Y0061216D01*
X0073455Y0061060D01*
X0073476Y0060903D01*
X0073494Y0060746D01*
X0073508Y0060588D01*
X0073518Y0060430D01*
X0073524Y0060272D01*
X0073526Y0060114D01*
X0073524Y0059956D01*
X0073518Y0059798D01*
X0073508Y0059640D01*
X0073494Y0059482D01*
X0073476Y0059325D01*
X0073455Y0059168D01*
X0073429Y0059012D01*
X0073399Y0058856D01*
X0073366Y0058701D01*
X0073328Y0058548D01*
X0073287Y0058395D01*
X0073242Y0058243D01*
X0073193Y0058092D01*
X0073140Y0057943D01*
X0073084Y0057795D01*
X0073024Y0057649D01*
X0072960Y0057504D01*
X0072892Y0057361D01*
X0072821Y0057219D01*
X0072747Y0057079D01*
X0072669Y0056942D01*
X0072587Y0056806D01*
X0072503Y0056672D01*
X0072414Y0056541D01*
X0072323Y0056412D01*
X0072228Y0056285D01*
X0072131Y0056160D01*
X0072030Y0056038D01*
X0071926Y0055919D01*
X0071819Y0055802D01*
X0071709Y0055688D01*
X0071596Y0055577D01*
X0071481Y0055468D01*
X0071363Y0055363D01*
X0071242Y0055261D01*
X0071119Y0055161D01*
X0070993Y0055065D01*
X0070865Y0054972D01*
X0070735Y0054882D01*
X0070602Y0054796D01*
X0070467Y0054712D01*
X0070331Y0054633D01*
X0070192Y0054556D01*
X0070051Y0054484D01*
X0069909Y0054414D01*
X0069765Y0054349D01*
X0069619Y0054287D01*
X0069472Y0054229D01*
X0069323Y0054174D01*
X0069173Y0054123D01*
X0069022Y0054076D01*
X0068870Y0054033D01*
X0068717Y0053994D01*
X0068562Y0053958D01*
X0068407Y0053927D01*
X0068251Y0053899D01*
X0068095Y0053875D01*
X0067938Y0053855D01*
X0067780Y0053839D01*
X0067623Y0053827D01*
X0067464Y0053819D01*
X0067306Y0053815D01*
X0067148Y0053815D01*
X0066990Y0053819D01*
X0066831Y0053827D01*
X0066674Y0053839D01*
X0066516Y0053855D01*
X0066359Y0053875D01*
X0066203Y0053899D01*
X0066047Y0053927D01*
X0065892Y0053958D01*
X0065737Y0053994D01*
X0065584Y0054033D01*
X0065432Y0054076D01*
X0065281Y0054123D01*
X0065131Y0054174D01*
X0064982Y0054229D01*
X0064835Y0054287D01*
X0064689Y0054349D01*
X0064545Y0054414D01*
X0064403Y0054484D01*
X0064262Y0054556D01*
X0064123Y0054633D01*
X0063987Y0054712D01*
X0063852Y0054796D01*
X0063719Y0054882D01*
X0063589Y0054972D01*
X0063461Y0055065D01*
X0063335Y0055161D01*
X0063212Y0055261D01*
X0063091Y0055363D01*
X0062973Y0055468D01*
X0062858Y0055577D01*
X0062745Y0055688D01*
X0062635Y0055802D01*
X0062528Y0055919D01*
X0062424Y0056038D01*
X0062323Y0056160D01*
X0062226Y0056285D01*
X0062131Y0056412D01*
X0062040Y0056541D01*
X0061951Y0056672D01*
X0061867Y0056806D01*
X0061785Y0056942D01*
X0061707Y0057079D01*
X0061633Y0057219D01*
X0061562Y0057361D01*
X0061494Y0057504D01*
X0061430Y0057649D01*
X0061370Y0057795D01*
X0061314Y0057943D01*
X0061261Y0058092D01*
X0061212Y0058243D01*
X0061167Y0058395D01*
X0061126Y0058548D01*
X0061088Y0058701D01*
X0061055Y0058856D01*
X0061025Y0059012D01*
X0060999Y0059168D01*
X0060978Y0059325D01*
X0060960Y0059482D01*
X0060946Y0059640D01*
X0060936Y0059798D01*
X0060930Y0059956D01*
X0060928Y0060114D01*
X0060928Y0209720D02*
X0060930Y0209878D01*
X0060936Y0210036D01*
X0060946Y0210194D01*
X0060960Y0210352D01*
X0060978Y0210509D01*
X0060999Y0210666D01*
X0061025Y0210822D01*
X0061055Y0210978D01*
X0061088Y0211133D01*
X0061126Y0211286D01*
X0061167Y0211439D01*
X0061212Y0211591D01*
X0061261Y0211742D01*
X0061314Y0211891D01*
X0061370Y0212039D01*
X0061430Y0212185D01*
X0061494Y0212330D01*
X0061562Y0212473D01*
X0061633Y0212615D01*
X0061707Y0212755D01*
X0061785Y0212892D01*
X0061867Y0213028D01*
X0061951Y0213162D01*
X0062040Y0213293D01*
X0062131Y0213422D01*
X0062226Y0213549D01*
X0062323Y0213674D01*
X0062424Y0213796D01*
X0062528Y0213915D01*
X0062635Y0214032D01*
X0062745Y0214146D01*
X0062858Y0214257D01*
X0062973Y0214366D01*
X0063091Y0214471D01*
X0063212Y0214573D01*
X0063335Y0214673D01*
X0063461Y0214769D01*
X0063589Y0214862D01*
X0063719Y0214952D01*
X0063852Y0215038D01*
X0063987Y0215122D01*
X0064123Y0215201D01*
X0064262Y0215278D01*
X0064403Y0215350D01*
X0064545Y0215420D01*
X0064689Y0215485D01*
X0064835Y0215547D01*
X0064982Y0215605D01*
X0065131Y0215660D01*
X0065281Y0215711D01*
X0065432Y0215758D01*
X0065584Y0215801D01*
X0065737Y0215840D01*
X0065892Y0215876D01*
X0066047Y0215907D01*
X0066203Y0215935D01*
X0066359Y0215959D01*
X0066516Y0215979D01*
X0066674Y0215995D01*
X0066831Y0216007D01*
X0066990Y0216015D01*
X0067148Y0216019D01*
X0067306Y0216019D01*
X0067464Y0216015D01*
X0067623Y0216007D01*
X0067780Y0215995D01*
X0067938Y0215979D01*
X0068095Y0215959D01*
X0068251Y0215935D01*
X0068407Y0215907D01*
X0068562Y0215876D01*
X0068717Y0215840D01*
X0068870Y0215801D01*
X0069022Y0215758D01*
X0069173Y0215711D01*
X0069323Y0215660D01*
X0069472Y0215605D01*
X0069619Y0215547D01*
X0069765Y0215485D01*
X0069909Y0215420D01*
X0070051Y0215350D01*
X0070192Y0215278D01*
X0070331Y0215201D01*
X0070467Y0215122D01*
X0070602Y0215038D01*
X0070735Y0214952D01*
X0070865Y0214862D01*
X0070993Y0214769D01*
X0071119Y0214673D01*
X0071242Y0214573D01*
X0071363Y0214471D01*
X0071481Y0214366D01*
X0071596Y0214257D01*
X0071709Y0214146D01*
X0071819Y0214032D01*
X0071926Y0213915D01*
X0072030Y0213796D01*
X0072131Y0213674D01*
X0072228Y0213549D01*
X0072323Y0213422D01*
X0072414Y0213293D01*
X0072503Y0213162D01*
X0072587Y0213028D01*
X0072669Y0212892D01*
X0072747Y0212755D01*
X0072821Y0212615D01*
X0072892Y0212473D01*
X0072960Y0212330D01*
X0073024Y0212185D01*
X0073084Y0212039D01*
X0073140Y0211891D01*
X0073193Y0211742D01*
X0073242Y0211591D01*
X0073287Y0211439D01*
X0073328Y0211286D01*
X0073366Y0211133D01*
X0073399Y0210978D01*
X0073429Y0210822D01*
X0073455Y0210666D01*
X0073476Y0210509D01*
X0073494Y0210352D01*
X0073508Y0210194D01*
X0073518Y0210036D01*
X0073524Y0209878D01*
X0073526Y0209720D01*
X0073524Y0209562D01*
X0073518Y0209404D01*
X0073508Y0209246D01*
X0073494Y0209088D01*
X0073476Y0208931D01*
X0073455Y0208774D01*
X0073429Y0208618D01*
X0073399Y0208462D01*
X0073366Y0208307D01*
X0073328Y0208154D01*
X0073287Y0208001D01*
X0073242Y0207849D01*
X0073193Y0207698D01*
X0073140Y0207549D01*
X0073084Y0207401D01*
X0073024Y0207255D01*
X0072960Y0207110D01*
X0072892Y0206967D01*
X0072821Y0206825D01*
X0072747Y0206685D01*
X0072669Y0206548D01*
X0072587Y0206412D01*
X0072503Y0206278D01*
X0072414Y0206147D01*
X0072323Y0206018D01*
X0072228Y0205891D01*
X0072131Y0205766D01*
X0072030Y0205644D01*
X0071926Y0205525D01*
X0071819Y0205408D01*
X0071709Y0205294D01*
X0071596Y0205183D01*
X0071481Y0205074D01*
X0071363Y0204969D01*
X0071242Y0204867D01*
X0071119Y0204767D01*
X0070993Y0204671D01*
X0070865Y0204578D01*
X0070735Y0204488D01*
X0070602Y0204402D01*
X0070467Y0204318D01*
X0070331Y0204239D01*
X0070192Y0204162D01*
X0070051Y0204090D01*
X0069909Y0204020D01*
X0069765Y0203955D01*
X0069619Y0203893D01*
X0069472Y0203835D01*
X0069323Y0203780D01*
X0069173Y0203729D01*
X0069022Y0203682D01*
X0068870Y0203639D01*
X0068717Y0203600D01*
X0068562Y0203564D01*
X0068407Y0203533D01*
X0068251Y0203505D01*
X0068095Y0203481D01*
X0067938Y0203461D01*
X0067780Y0203445D01*
X0067623Y0203433D01*
X0067464Y0203425D01*
X0067306Y0203421D01*
X0067148Y0203421D01*
X0066990Y0203425D01*
X0066831Y0203433D01*
X0066674Y0203445D01*
X0066516Y0203461D01*
X0066359Y0203481D01*
X0066203Y0203505D01*
X0066047Y0203533D01*
X0065892Y0203564D01*
X0065737Y0203600D01*
X0065584Y0203639D01*
X0065432Y0203682D01*
X0065281Y0203729D01*
X0065131Y0203780D01*
X0064982Y0203835D01*
X0064835Y0203893D01*
X0064689Y0203955D01*
X0064545Y0204020D01*
X0064403Y0204090D01*
X0064262Y0204162D01*
X0064123Y0204239D01*
X0063987Y0204318D01*
X0063852Y0204402D01*
X0063719Y0204488D01*
X0063589Y0204578D01*
X0063461Y0204671D01*
X0063335Y0204767D01*
X0063212Y0204867D01*
X0063091Y0204969D01*
X0062973Y0205074D01*
X0062858Y0205183D01*
X0062745Y0205294D01*
X0062635Y0205408D01*
X0062528Y0205525D01*
X0062424Y0205644D01*
X0062323Y0205766D01*
X0062226Y0205891D01*
X0062131Y0206018D01*
X0062040Y0206147D01*
X0061951Y0206278D01*
X0061867Y0206412D01*
X0061785Y0206548D01*
X0061707Y0206685D01*
X0061633Y0206825D01*
X0061562Y0206967D01*
X0061494Y0207110D01*
X0061430Y0207255D01*
X0061370Y0207401D01*
X0061314Y0207549D01*
X0061261Y0207698D01*
X0061212Y0207849D01*
X0061167Y0208001D01*
X0061126Y0208154D01*
X0061088Y0208307D01*
X0061055Y0208462D01*
X0061025Y0208618D01*
X0060999Y0208774D01*
X0060978Y0208931D01*
X0060960Y0209088D01*
X0060946Y0209246D01*
X0060936Y0209404D01*
X0060930Y0209562D01*
X0060928Y0209720D01*
X0281400Y0209720D02*
X0281402Y0209878D01*
X0281408Y0210036D01*
X0281418Y0210194D01*
X0281432Y0210352D01*
X0281450Y0210509D01*
X0281471Y0210666D01*
X0281497Y0210822D01*
X0281527Y0210978D01*
X0281560Y0211133D01*
X0281598Y0211286D01*
X0281639Y0211439D01*
X0281684Y0211591D01*
X0281733Y0211742D01*
X0281786Y0211891D01*
X0281842Y0212039D01*
X0281902Y0212185D01*
X0281966Y0212330D01*
X0282034Y0212473D01*
X0282105Y0212615D01*
X0282179Y0212755D01*
X0282257Y0212892D01*
X0282339Y0213028D01*
X0282423Y0213162D01*
X0282512Y0213293D01*
X0282603Y0213422D01*
X0282698Y0213549D01*
X0282795Y0213674D01*
X0282896Y0213796D01*
X0283000Y0213915D01*
X0283107Y0214032D01*
X0283217Y0214146D01*
X0283330Y0214257D01*
X0283445Y0214366D01*
X0283563Y0214471D01*
X0283684Y0214573D01*
X0283807Y0214673D01*
X0283933Y0214769D01*
X0284061Y0214862D01*
X0284191Y0214952D01*
X0284324Y0215038D01*
X0284459Y0215122D01*
X0284595Y0215201D01*
X0284734Y0215278D01*
X0284875Y0215350D01*
X0285017Y0215420D01*
X0285161Y0215485D01*
X0285307Y0215547D01*
X0285454Y0215605D01*
X0285603Y0215660D01*
X0285753Y0215711D01*
X0285904Y0215758D01*
X0286056Y0215801D01*
X0286209Y0215840D01*
X0286364Y0215876D01*
X0286519Y0215907D01*
X0286675Y0215935D01*
X0286831Y0215959D01*
X0286988Y0215979D01*
X0287146Y0215995D01*
X0287303Y0216007D01*
X0287462Y0216015D01*
X0287620Y0216019D01*
X0287778Y0216019D01*
X0287936Y0216015D01*
X0288095Y0216007D01*
X0288252Y0215995D01*
X0288410Y0215979D01*
X0288567Y0215959D01*
X0288723Y0215935D01*
X0288879Y0215907D01*
X0289034Y0215876D01*
X0289189Y0215840D01*
X0289342Y0215801D01*
X0289494Y0215758D01*
X0289645Y0215711D01*
X0289795Y0215660D01*
X0289944Y0215605D01*
X0290091Y0215547D01*
X0290237Y0215485D01*
X0290381Y0215420D01*
X0290523Y0215350D01*
X0290664Y0215278D01*
X0290803Y0215201D01*
X0290939Y0215122D01*
X0291074Y0215038D01*
X0291207Y0214952D01*
X0291337Y0214862D01*
X0291465Y0214769D01*
X0291591Y0214673D01*
X0291714Y0214573D01*
X0291835Y0214471D01*
X0291953Y0214366D01*
X0292068Y0214257D01*
X0292181Y0214146D01*
X0292291Y0214032D01*
X0292398Y0213915D01*
X0292502Y0213796D01*
X0292603Y0213674D01*
X0292700Y0213549D01*
X0292795Y0213422D01*
X0292886Y0213293D01*
X0292975Y0213162D01*
X0293059Y0213028D01*
X0293141Y0212892D01*
X0293219Y0212755D01*
X0293293Y0212615D01*
X0293364Y0212473D01*
X0293432Y0212330D01*
X0293496Y0212185D01*
X0293556Y0212039D01*
X0293612Y0211891D01*
X0293665Y0211742D01*
X0293714Y0211591D01*
X0293759Y0211439D01*
X0293800Y0211286D01*
X0293838Y0211133D01*
X0293871Y0210978D01*
X0293901Y0210822D01*
X0293927Y0210666D01*
X0293948Y0210509D01*
X0293966Y0210352D01*
X0293980Y0210194D01*
X0293990Y0210036D01*
X0293996Y0209878D01*
X0293998Y0209720D01*
X0293996Y0209562D01*
X0293990Y0209404D01*
X0293980Y0209246D01*
X0293966Y0209088D01*
X0293948Y0208931D01*
X0293927Y0208774D01*
X0293901Y0208618D01*
X0293871Y0208462D01*
X0293838Y0208307D01*
X0293800Y0208154D01*
X0293759Y0208001D01*
X0293714Y0207849D01*
X0293665Y0207698D01*
X0293612Y0207549D01*
X0293556Y0207401D01*
X0293496Y0207255D01*
X0293432Y0207110D01*
X0293364Y0206967D01*
X0293293Y0206825D01*
X0293219Y0206685D01*
X0293141Y0206548D01*
X0293059Y0206412D01*
X0292975Y0206278D01*
X0292886Y0206147D01*
X0292795Y0206018D01*
X0292700Y0205891D01*
X0292603Y0205766D01*
X0292502Y0205644D01*
X0292398Y0205525D01*
X0292291Y0205408D01*
X0292181Y0205294D01*
X0292068Y0205183D01*
X0291953Y0205074D01*
X0291835Y0204969D01*
X0291714Y0204867D01*
X0291591Y0204767D01*
X0291465Y0204671D01*
X0291337Y0204578D01*
X0291207Y0204488D01*
X0291074Y0204402D01*
X0290939Y0204318D01*
X0290803Y0204239D01*
X0290664Y0204162D01*
X0290523Y0204090D01*
X0290381Y0204020D01*
X0290237Y0203955D01*
X0290091Y0203893D01*
X0289944Y0203835D01*
X0289795Y0203780D01*
X0289645Y0203729D01*
X0289494Y0203682D01*
X0289342Y0203639D01*
X0289189Y0203600D01*
X0289034Y0203564D01*
X0288879Y0203533D01*
X0288723Y0203505D01*
X0288567Y0203481D01*
X0288410Y0203461D01*
X0288252Y0203445D01*
X0288095Y0203433D01*
X0287936Y0203425D01*
X0287778Y0203421D01*
X0287620Y0203421D01*
X0287462Y0203425D01*
X0287303Y0203433D01*
X0287146Y0203445D01*
X0286988Y0203461D01*
X0286831Y0203481D01*
X0286675Y0203505D01*
X0286519Y0203533D01*
X0286364Y0203564D01*
X0286209Y0203600D01*
X0286056Y0203639D01*
X0285904Y0203682D01*
X0285753Y0203729D01*
X0285603Y0203780D01*
X0285454Y0203835D01*
X0285307Y0203893D01*
X0285161Y0203955D01*
X0285017Y0204020D01*
X0284875Y0204090D01*
X0284734Y0204162D01*
X0284595Y0204239D01*
X0284459Y0204318D01*
X0284324Y0204402D01*
X0284191Y0204488D01*
X0284061Y0204578D01*
X0283933Y0204671D01*
X0283807Y0204767D01*
X0283684Y0204867D01*
X0283563Y0204969D01*
X0283445Y0205074D01*
X0283330Y0205183D01*
X0283217Y0205294D01*
X0283107Y0205408D01*
X0283000Y0205525D01*
X0282896Y0205644D01*
X0282795Y0205766D01*
X0282698Y0205891D01*
X0282603Y0206018D01*
X0282512Y0206147D01*
X0282423Y0206278D01*
X0282339Y0206412D01*
X0282257Y0206548D01*
X0282179Y0206685D01*
X0282105Y0206825D01*
X0282034Y0206967D01*
X0281966Y0207110D01*
X0281902Y0207255D01*
X0281842Y0207401D01*
X0281786Y0207549D01*
X0281733Y0207698D01*
X0281684Y0207849D01*
X0281639Y0208001D01*
X0281598Y0208154D01*
X0281560Y0208307D01*
X0281527Y0208462D01*
X0281497Y0208618D01*
X0281471Y0208774D01*
X0281450Y0208931D01*
X0281432Y0209088D01*
X0281418Y0209246D01*
X0281408Y0209404D01*
X0281402Y0209562D01*
X0281400Y0209720D01*
X0281400Y0060114D02*
X0281402Y0060272D01*
X0281408Y0060430D01*
X0281418Y0060588D01*
X0281432Y0060746D01*
X0281450Y0060903D01*
X0281471Y0061060D01*
X0281497Y0061216D01*
X0281527Y0061372D01*
X0281560Y0061527D01*
X0281598Y0061680D01*
X0281639Y0061833D01*
X0281684Y0061985D01*
X0281733Y0062136D01*
X0281786Y0062285D01*
X0281842Y0062433D01*
X0281902Y0062579D01*
X0281966Y0062724D01*
X0282034Y0062867D01*
X0282105Y0063009D01*
X0282179Y0063149D01*
X0282257Y0063286D01*
X0282339Y0063422D01*
X0282423Y0063556D01*
X0282512Y0063687D01*
X0282603Y0063816D01*
X0282698Y0063943D01*
X0282795Y0064068D01*
X0282896Y0064190D01*
X0283000Y0064309D01*
X0283107Y0064426D01*
X0283217Y0064540D01*
X0283330Y0064651D01*
X0283445Y0064760D01*
X0283563Y0064865D01*
X0283684Y0064967D01*
X0283807Y0065067D01*
X0283933Y0065163D01*
X0284061Y0065256D01*
X0284191Y0065346D01*
X0284324Y0065432D01*
X0284459Y0065516D01*
X0284595Y0065595D01*
X0284734Y0065672D01*
X0284875Y0065744D01*
X0285017Y0065814D01*
X0285161Y0065879D01*
X0285307Y0065941D01*
X0285454Y0065999D01*
X0285603Y0066054D01*
X0285753Y0066105D01*
X0285904Y0066152D01*
X0286056Y0066195D01*
X0286209Y0066234D01*
X0286364Y0066270D01*
X0286519Y0066301D01*
X0286675Y0066329D01*
X0286831Y0066353D01*
X0286988Y0066373D01*
X0287146Y0066389D01*
X0287303Y0066401D01*
X0287462Y0066409D01*
X0287620Y0066413D01*
X0287778Y0066413D01*
X0287936Y0066409D01*
X0288095Y0066401D01*
X0288252Y0066389D01*
X0288410Y0066373D01*
X0288567Y0066353D01*
X0288723Y0066329D01*
X0288879Y0066301D01*
X0289034Y0066270D01*
X0289189Y0066234D01*
X0289342Y0066195D01*
X0289494Y0066152D01*
X0289645Y0066105D01*
X0289795Y0066054D01*
X0289944Y0065999D01*
X0290091Y0065941D01*
X0290237Y0065879D01*
X0290381Y0065814D01*
X0290523Y0065744D01*
X0290664Y0065672D01*
X0290803Y0065595D01*
X0290939Y0065516D01*
X0291074Y0065432D01*
X0291207Y0065346D01*
X0291337Y0065256D01*
X0291465Y0065163D01*
X0291591Y0065067D01*
X0291714Y0064967D01*
X0291835Y0064865D01*
X0291953Y0064760D01*
X0292068Y0064651D01*
X0292181Y0064540D01*
X0292291Y0064426D01*
X0292398Y0064309D01*
X0292502Y0064190D01*
X0292603Y0064068D01*
X0292700Y0063943D01*
X0292795Y0063816D01*
X0292886Y0063687D01*
X0292975Y0063556D01*
X0293059Y0063422D01*
X0293141Y0063286D01*
X0293219Y0063149D01*
X0293293Y0063009D01*
X0293364Y0062867D01*
X0293432Y0062724D01*
X0293496Y0062579D01*
X0293556Y0062433D01*
X0293612Y0062285D01*
X0293665Y0062136D01*
X0293714Y0061985D01*
X0293759Y0061833D01*
X0293800Y0061680D01*
X0293838Y0061527D01*
X0293871Y0061372D01*
X0293901Y0061216D01*
X0293927Y0061060D01*
X0293948Y0060903D01*
X0293966Y0060746D01*
X0293980Y0060588D01*
X0293990Y0060430D01*
X0293996Y0060272D01*
X0293998Y0060114D01*
X0293996Y0059956D01*
X0293990Y0059798D01*
X0293980Y0059640D01*
X0293966Y0059482D01*
X0293948Y0059325D01*
X0293927Y0059168D01*
X0293901Y0059012D01*
X0293871Y0058856D01*
X0293838Y0058701D01*
X0293800Y0058548D01*
X0293759Y0058395D01*
X0293714Y0058243D01*
X0293665Y0058092D01*
X0293612Y0057943D01*
X0293556Y0057795D01*
X0293496Y0057649D01*
X0293432Y0057504D01*
X0293364Y0057361D01*
X0293293Y0057219D01*
X0293219Y0057079D01*
X0293141Y0056942D01*
X0293059Y0056806D01*
X0292975Y0056672D01*
X0292886Y0056541D01*
X0292795Y0056412D01*
X0292700Y0056285D01*
X0292603Y0056160D01*
X0292502Y0056038D01*
X0292398Y0055919D01*
X0292291Y0055802D01*
X0292181Y0055688D01*
X0292068Y0055577D01*
X0291953Y0055468D01*
X0291835Y0055363D01*
X0291714Y0055261D01*
X0291591Y0055161D01*
X0291465Y0055065D01*
X0291337Y0054972D01*
X0291207Y0054882D01*
X0291074Y0054796D01*
X0290939Y0054712D01*
X0290803Y0054633D01*
X0290664Y0054556D01*
X0290523Y0054484D01*
X0290381Y0054414D01*
X0290237Y0054349D01*
X0290091Y0054287D01*
X0289944Y0054229D01*
X0289795Y0054174D01*
X0289645Y0054123D01*
X0289494Y0054076D01*
X0289342Y0054033D01*
X0289189Y0053994D01*
X0289034Y0053958D01*
X0288879Y0053927D01*
X0288723Y0053899D01*
X0288567Y0053875D01*
X0288410Y0053855D01*
X0288252Y0053839D01*
X0288095Y0053827D01*
X0287936Y0053819D01*
X0287778Y0053815D01*
X0287620Y0053815D01*
X0287462Y0053819D01*
X0287303Y0053827D01*
X0287146Y0053839D01*
X0286988Y0053855D01*
X0286831Y0053875D01*
X0286675Y0053899D01*
X0286519Y0053927D01*
X0286364Y0053958D01*
X0286209Y0053994D01*
X0286056Y0054033D01*
X0285904Y0054076D01*
X0285753Y0054123D01*
X0285603Y0054174D01*
X0285454Y0054229D01*
X0285307Y0054287D01*
X0285161Y0054349D01*
X0285017Y0054414D01*
X0284875Y0054484D01*
X0284734Y0054556D01*
X0284595Y0054633D01*
X0284459Y0054712D01*
X0284324Y0054796D01*
X0284191Y0054882D01*
X0284061Y0054972D01*
X0283933Y0055065D01*
X0283807Y0055161D01*
X0283684Y0055261D01*
X0283563Y0055363D01*
X0283445Y0055468D01*
X0283330Y0055577D01*
X0283217Y0055688D01*
X0283107Y0055802D01*
X0283000Y0055919D01*
X0282896Y0056038D01*
X0282795Y0056160D01*
X0282698Y0056285D01*
X0282603Y0056412D01*
X0282512Y0056541D01*
X0282423Y0056672D01*
X0282339Y0056806D01*
X0282257Y0056942D01*
X0282179Y0057079D01*
X0282105Y0057219D01*
X0282034Y0057361D01*
X0281966Y0057504D01*
X0281902Y0057649D01*
X0281842Y0057795D01*
X0281786Y0057943D01*
X0281733Y0058092D01*
X0281684Y0058243D01*
X0281639Y0058395D01*
X0281598Y0058548D01*
X0281560Y0058701D01*
X0281527Y0058856D01*
X0281497Y0059012D01*
X0281471Y0059168D01*
X0281450Y0059325D01*
X0281432Y0059482D01*
X0281418Y0059640D01*
X0281408Y0059798D01*
X0281402Y0059956D01*
X0281400Y0060114D01*
D11*
X0245016Y0086203D02*
X0242683Y0086203D01*
X0243849Y0086203D02*
X0243849Y0090403D01*
X0245016Y0089470D01*
X0238183Y0088303D02*
X0238185Y0088191D01*
X0238190Y0088079D01*
X0238199Y0087967D01*
X0238212Y0087856D01*
X0238228Y0087745D01*
X0238248Y0087634D01*
X0238272Y0087525D01*
X0238299Y0087416D01*
X0238329Y0087308D01*
X0238363Y0087201D01*
X0238400Y0087095D01*
X0238441Y0086991D01*
X0238485Y0086888D01*
X0238533Y0086786D01*
X0239349Y0086203D02*
X0239405Y0086205D01*
X0239461Y0086210D01*
X0239517Y0086220D01*
X0239572Y0086232D01*
X0239626Y0086249D01*
X0239678Y0086268D01*
X0239730Y0086292D01*
X0239780Y0086318D01*
X0239827Y0086348D01*
X0239873Y0086380D01*
X0239917Y0086416D01*
X0239958Y0086455D01*
X0239997Y0086496D01*
X0240032Y0086539D01*
X0240065Y0086585D01*
X0240095Y0086633D01*
X0240122Y0086682D01*
X0240145Y0086733D01*
X0240165Y0086786D01*
X0240283Y0087136D02*
X0238416Y0089470D01*
X0238533Y0089820D02*
X0238553Y0089873D01*
X0238576Y0089924D01*
X0238603Y0089973D01*
X0238633Y0090021D01*
X0238666Y0090067D01*
X0238701Y0090110D01*
X0238740Y0090151D01*
X0238781Y0090190D01*
X0238825Y0090226D01*
X0238871Y0090258D01*
X0238918Y0090288D01*
X0238968Y0090314D01*
X0239020Y0090338D01*
X0239072Y0090357D01*
X0239126Y0090374D01*
X0239181Y0090386D01*
X0239237Y0090396D01*
X0239293Y0090401D01*
X0239349Y0090403D01*
X0239405Y0090401D01*
X0239461Y0090396D01*
X0239517Y0090386D01*
X0239572Y0090374D01*
X0239626Y0090357D01*
X0239678Y0090338D01*
X0239730Y0090314D01*
X0239780Y0090288D01*
X0239827Y0090258D01*
X0239873Y0090225D01*
X0239917Y0090190D01*
X0239958Y0090151D01*
X0239997Y0090110D01*
X0240032Y0090067D01*
X0240065Y0090021D01*
X0240095Y0089973D01*
X0240122Y0089924D01*
X0240145Y0089873D01*
X0240165Y0089820D01*
X0238533Y0089820D02*
X0238485Y0089718D01*
X0238441Y0089615D01*
X0238400Y0089511D01*
X0238363Y0089405D01*
X0238329Y0089298D01*
X0238299Y0089190D01*
X0238272Y0089081D01*
X0238248Y0088972D01*
X0238228Y0088861D01*
X0238212Y0088750D01*
X0238199Y0088639D01*
X0238190Y0088527D01*
X0238185Y0088415D01*
X0238183Y0088303D01*
X0234033Y0086786D02*
X0233985Y0086888D01*
X0233941Y0086991D01*
X0233900Y0087095D01*
X0233863Y0087201D01*
X0233829Y0087308D01*
X0233799Y0087416D01*
X0233772Y0087525D01*
X0233748Y0087634D01*
X0233728Y0087745D01*
X0233712Y0087856D01*
X0233699Y0087967D01*
X0233690Y0088079D01*
X0233685Y0088191D01*
X0233683Y0088303D01*
X0229533Y0086786D02*
X0229485Y0086888D01*
X0229441Y0086991D01*
X0229400Y0087095D01*
X0229363Y0087201D01*
X0229329Y0087308D01*
X0229299Y0087416D01*
X0229272Y0087525D01*
X0229248Y0087634D01*
X0229228Y0087745D01*
X0229212Y0087856D01*
X0229199Y0087967D01*
X0229190Y0088079D01*
X0229185Y0088191D01*
X0229183Y0088303D01*
X0231516Y0088303D02*
X0231514Y0088415D01*
X0231509Y0088527D01*
X0231500Y0088639D01*
X0231487Y0088750D01*
X0231471Y0088861D01*
X0231451Y0088972D01*
X0231427Y0089081D01*
X0231400Y0089190D01*
X0231370Y0089298D01*
X0231336Y0089405D01*
X0231299Y0089511D01*
X0231258Y0089615D01*
X0231214Y0089718D01*
X0231166Y0089820D01*
X0231165Y0089820D02*
X0231145Y0089873D01*
X0231122Y0089924D01*
X0231095Y0089973D01*
X0231065Y0090021D01*
X0231032Y0090067D01*
X0230997Y0090110D01*
X0230958Y0090151D01*
X0230917Y0090190D01*
X0230873Y0090225D01*
X0230827Y0090258D01*
X0230780Y0090288D01*
X0230730Y0090314D01*
X0230678Y0090338D01*
X0230626Y0090357D01*
X0230572Y0090374D01*
X0230517Y0090386D01*
X0230461Y0090396D01*
X0230405Y0090401D01*
X0230349Y0090403D01*
X0230293Y0090401D01*
X0230237Y0090396D01*
X0230181Y0090386D01*
X0230126Y0090374D01*
X0230072Y0090357D01*
X0230020Y0090338D01*
X0229968Y0090314D01*
X0229918Y0090288D01*
X0229871Y0090258D01*
X0229825Y0090226D01*
X0229781Y0090190D01*
X0229740Y0090151D01*
X0229701Y0090110D01*
X0229666Y0090067D01*
X0229633Y0090021D01*
X0229603Y0089973D01*
X0229576Y0089924D01*
X0229553Y0089873D01*
X0229533Y0089820D01*
X0229416Y0089470D02*
X0231283Y0087136D01*
X0230349Y0086203D02*
X0230293Y0086205D01*
X0230237Y0086210D01*
X0230181Y0086220D01*
X0230126Y0086232D01*
X0230072Y0086249D01*
X0230020Y0086268D01*
X0229968Y0086292D01*
X0229918Y0086318D01*
X0229871Y0086348D01*
X0229825Y0086380D01*
X0229781Y0086416D01*
X0229740Y0086455D01*
X0229701Y0086496D01*
X0229666Y0086539D01*
X0229633Y0086585D01*
X0229603Y0086633D01*
X0229576Y0086682D01*
X0229553Y0086733D01*
X0229533Y0086786D01*
X0230349Y0086203D02*
X0230405Y0086205D01*
X0230461Y0086210D01*
X0230517Y0086220D01*
X0230572Y0086232D01*
X0230626Y0086249D01*
X0230678Y0086268D01*
X0230730Y0086292D01*
X0230780Y0086318D01*
X0230827Y0086348D01*
X0230873Y0086380D01*
X0230917Y0086416D01*
X0230958Y0086455D01*
X0230997Y0086496D01*
X0231032Y0086539D01*
X0231065Y0086585D01*
X0231095Y0086633D01*
X0231122Y0086682D01*
X0231145Y0086733D01*
X0231165Y0086786D01*
X0235666Y0086786D02*
X0235714Y0086888D01*
X0235758Y0086991D01*
X0235799Y0087095D01*
X0235836Y0087201D01*
X0235870Y0087308D01*
X0235900Y0087416D01*
X0235927Y0087525D01*
X0235951Y0087634D01*
X0235971Y0087745D01*
X0235987Y0087856D01*
X0236000Y0087967D01*
X0236009Y0088079D01*
X0236014Y0088191D01*
X0236016Y0088303D01*
X0240166Y0086786D02*
X0240214Y0086888D01*
X0240258Y0086991D01*
X0240299Y0087095D01*
X0240336Y0087201D01*
X0240370Y0087308D01*
X0240400Y0087416D01*
X0240427Y0087525D01*
X0240451Y0087634D01*
X0240471Y0087745D01*
X0240487Y0087856D01*
X0240500Y0087967D01*
X0240509Y0088079D01*
X0240514Y0088191D01*
X0240516Y0088303D01*
X0239349Y0086203D02*
X0239293Y0086205D01*
X0239237Y0086210D01*
X0239181Y0086220D01*
X0239126Y0086232D01*
X0239072Y0086249D01*
X0239020Y0086268D01*
X0238968Y0086292D01*
X0238918Y0086318D01*
X0238871Y0086348D01*
X0238825Y0086380D01*
X0238781Y0086416D01*
X0238740Y0086455D01*
X0238701Y0086496D01*
X0238666Y0086539D01*
X0238633Y0086585D01*
X0238603Y0086633D01*
X0238576Y0086682D01*
X0238553Y0086733D01*
X0238533Y0086786D01*
X0233683Y0088303D02*
X0233685Y0088415D01*
X0233690Y0088527D01*
X0233699Y0088639D01*
X0233712Y0088750D01*
X0233728Y0088861D01*
X0233748Y0088972D01*
X0233772Y0089081D01*
X0233799Y0089190D01*
X0233829Y0089298D01*
X0233863Y0089405D01*
X0233900Y0089511D01*
X0233941Y0089615D01*
X0233985Y0089718D01*
X0234033Y0089820D01*
X0233916Y0089470D02*
X0235783Y0087136D01*
X0234849Y0086203D02*
X0234793Y0086205D01*
X0234737Y0086210D01*
X0234681Y0086220D01*
X0234626Y0086232D01*
X0234572Y0086249D01*
X0234520Y0086268D01*
X0234468Y0086292D01*
X0234418Y0086318D01*
X0234371Y0086348D01*
X0234325Y0086380D01*
X0234281Y0086416D01*
X0234240Y0086455D01*
X0234201Y0086496D01*
X0234166Y0086539D01*
X0234133Y0086585D01*
X0234103Y0086633D01*
X0234076Y0086682D01*
X0234053Y0086733D01*
X0234033Y0086786D01*
X0234849Y0086203D02*
X0234905Y0086205D01*
X0234961Y0086210D01*
X0235017Y0086220D01*
X0235072Y0086232D01*
X0235126Y0086249D01*
X0235178Y0086268D01*
X0235230Y0086292D01*
X0235280Y0086318D01*
X0235327Y0086348D01*
X0235373Y0086380D01*
X0235417Y0086416D01*
X0235458Y0086455D01*
X0235497Y0086496D01*
X0235532Y0086539D01*
X0235565Y0086585D01*
X0235595Y0086633D01*
X0235622Y0086682D01*
X0235645Y0086733D01*
X0235665Y0086786D01*
X0240516Y0088303D02*
X0240514Y0088415D01*
X0240509Y0088527D01*
X0240500Y0088639D01*
X0240487Y0088750D01*
X0240471Y0088861D01*
X0240451Y0088972D01*
X0240427Y0089081D01*
X0240400Y0089190D01*
X0240370Y0089298D01*
X0240336Y0089405D01*
X0240299Y0089511D01*
X0240258Y0089615D01*
X0240214Y0089718D01*
X0240166Y0089820D01*
X0239926Y0093703D02*
X0238759Y0093703D01*
X0239926Y0093703D02*
X0239976Y0093705D01*
X0240026Y0093710D01*
X0240075Y0093719D01*
X0240123Y0093731D01*
X0240171Y0093747D01*
X0240217Y0093766D01*
X0240261Y0093789D01*
X0240304Y0093814D01*
X0240345Y0093843D01*
X0240384Y0093874D01*
X0240421Y0093908D01*
X0240455Y0093945D01*
X0240486Y0093984D01*
X0240515Y0094025D01*
X0240540Y0094068D01*
X0240563Y0094112D01*
X0240582Y0094158D01*
X0240598Y0094206D01*
X0240610Y0094254D01*
X0240619Y0094303D01*
X0240624Y0094353D01*
X0240626Y0094403D01*
X0240626Y0095570D01*
X0240626Y0095103D02*
X0238759Y0095103D01*
X0238759Y0095570D01*
X0238760Y0095570D02*
X0238762Y0095630D01*
X0238768Y0095689D01*
X0238777Y0095748D01*
X0238791Y0095807D01*
X0238808Y0095864D01*
X0238828Y0095920D01*
X0238852Y0095975D01*
X0238880Y0096028D01*
X0238911Y0096079D01*
X0238945Y0096128D01*
X0238983Y0096175D01*
X0239023Y0096219D01*
X0239066Y0096261D01*
X0239111Y0096299D01*
X0239159Y0096335D01*
X0239209Y0096368D01*
X0239261Y0096397D01*
X0239315Y0096423D01*
X0239371Y0096446D01*
X0239428Y0096464D01*
X0239485Y0096480D01*
X0239544Y0096491D01*
X0239603Y0096499D01*
X0239663Y0096503D01*
X0239723Y0096503D01*
X0239783Y0096499D01*
X0239842Y0096491D01*
X0239901Y0096480D01*
X0239958Y0096464D01*
X0240015Y0096446D01*
X0240071Y0096423D01*
X0240125Y0096397D01*
X0240177Y0096368D01*
X0240227Y0096335D01*
X0240275Y0096299D01*
X0240320Y0096261D01*
X0240363Y0096219D01*
X0240403Y0096175D01*
X0240441Y0096128D01*
X0240475Y0096079D01*
X0240506Y0096028D01*
X0240534Y0095975D01*
X0240558Y0095920D01*
X0240578Y0095864D01*
X0240595Y0095807D01*
X0240609Y0095748D01*
X0240618Y0095689D01*
X0240624Y0095630D01*
X0240626Y0095570D01*
X0242683Y0093703D02*
X0243616Y0095570D01*
X0243849Y0095570D02*
X0245016Y0095570D01*
X0243849Y0095569D02*
X0243782Y0095571D01*
X0243716Y0095577D01*
X0243650Y0095586D01*
X0243585Y0095599D01*
X0243520Y0095616D01*
X0243457Y0095637D01*
X0243395Y0095661D01*
X0243334Y0095689D01*
X0243275Y0095720D01*
X0243218Y0095754D01*
X0243163Y0095792D01*
X0243110Y0095833D01*
X0243060Y0095876D01*
X0243012Y0095923D01*
X0242967Y0095972D01*
X0242925Y0096023D01*
X0242886Y0096077D01*
X0242850Y0096133D01*
X0242817Y0096191D01*
X0242787Y0096251D01*
X0242762Y0096313D01*
X0242739Y0096375D01*
X0242720Y0096439D01*
X0242705Y0096504D01*
X0242694Y0096570D01*
X0242686Y0096636D01*
X0242682Y0096703D01*
X0242682Y0096769D01*
X0242686Y0096836D01*
X0242694Y0096902D01*
X0242705Y0096968D01*
X0242720Y0097033D01*
X0242739Y0097097D01*
X0242762Y0097159D01*
X0242787Y0097221D01*
X0242817Y0097281D01*
X0242850Y0097339D01*
X0242886Y0097395D01*
X0242925Y0097449D01*
X0242967Y0097500D01*
X0243012Y0097549D01*
X0243060Y0097596D01*
X0243110Y0097639D01*
X0243163Y0097680D01*
X0243218Y0097718D01*
X0243275Y0097752D01*
X0243334Y0097783D01*
X0243395Y0097811D01*
X0243457Y0097835D01*
X0243520Y0097856D01*
X0243585Y0097873D01*
X0243650Y0097886D01*
X0243716Y0097895D01*
X0243782Y0097901D01*
X0243849Y0097903D01*
X0245016Y0097903D01*
X0245016Y0093703D01*
X0236761Y0094403D02*
X0236761Y0095803D01*
X0236759Y0095853D01*
X0236754Y0095903D01*
X0236745Y0095952D01*
X0236733Y0096000D01*
X0236717Y0096048D01*
X0236698Y0096094D01*
X0236675Y0096138D01*
X0236650Y0096181D01*
X0236621Y0096222D01*
X0236590Y0096261D01*
X0236556Y0096298D01*
X0236519Y0096332D01*
X0236480Y0096363D01*
X0236439Y0096392D01*
X0236396Y0096417D01*
X0236352Y0096440D01*
X0236306Y0096459D01*
X0236258Y0096475D01*
X0236210Y0096487D01*
X0236161Y0096496D01*
X0236111Y0096501D01*
X0236061Y0096503D01*
X0234894Y0096503D01*
X0234894Y0092303D01*
X0234894Y0093703D02*
X0236061Y0093703D01*
X0236111Y0093705D01*
X0236161Y0093710D01*
X0236210Y0093719D01*
X0236258Y0093731D01*
X0236306Y0093747D01*
X0236352Y0093766D01*
X0236396Y0093789D01*
X0236439Y0093814D01*
X0236480Y0093843D01*
X0236519Y0093874D01*
X0236556Y0093908D01*
X0236590Y0093945D01*
X0236621Y0093984D01*
X0236650Y0094025D01*
X0236675Y0094068D01*
X0236698Y0094112D01*
X0236717Y0094158D01*
X0236733Y0094206D01*
X0236745Y0094254D01*
X0236754Y0094303D01*
X0236759Y0094353D01*
X0236761Y0094403D01*
X0232526Y0094403D02*
X0232526Y0096503D01*
X0230659Y0096503D02*
X0230659Y0093703D01*
X0231826Y0093703D01*
X0231876Y0093705D01*
X0231926Y0093710D01*
X0231975Y0093719D01*
X0232023Y0093731D01*
X0232071Y0093747D01*
X0232117Y0093766D01*
X0232161Y0093789D01*
X0232204Y0093814D01*
X0232245Y0093843D01*
X0232284Y0093874D01*
X0232321Y0093908D01*
X0232355Y0093945D01*
X0232386Y0093984D01*
X0232415Y0094025D01*
X0232440Y0094068D01*
X0232463Y0094112D01*
X0232482Y0094158D01*
X0232498Y0094206D01*
X0232510Y0094254D01*
X0232519Y0094303D01*
X0232524Y0094353D01*
X0232526Y0094403D01*
X0228593Y0093703D02*
X0228593Y0096503D01*
X0228476Y0097670D02*
X0228709Y0097670D01*
X0228709Y0097903D01*
X0228476Y0097903D01*
X0228476Y0097670D01*
X0226487Y0096503D02*
X0225087Y0096503D01*
X0225087Y0096036D01*
X0226487Y0096503D02*
X0226487Y0093703D01*
X0223526Y0094403D02*
X0223526Y0095570D01*
X0223526Y0095103D02*
X0221659Y0095103D01*
X0221659Y0095570D01*
X0221660Y0095570D02*
X0221662Y0095630D01*
X0221668Y0095689D01*
X0221677Y0095748D01*
X0221691Y0095807D01*
X0221708Y0095864D01*
X0221728Y0095920D01*
X0221752Y0095975D01*
X0221780Y0096028D01*
X0221811Y0096079D01*
X0221845Y0096128D01*
X0221883Y0096175D01*
X0221923Y0096219D01*
X0221966Y0096261D01*
X0222011Y0096299D01*
X0222059Y0096335D01*
X0222109Y0096368D01*
X0222161Y0096397D01*
X0222215Y0096423D01*
X0222271Y0096446D01*
X0222328Y0096464D01*
X0222385Y0096480D01*
X0222444Y0096491D01*
X0222503Y0096499D01*
X0222563Y0096503D01*
X0222623Y0096503D01*
X0222683Y0096499D01*
X0222742Y0096491D01*
X0222801Y0096480D01*
X0222858Y0096464D01*
X0222915Y0096446D01*
X0222971Y0096423D01*
X0223025Y0096397D01*
X0223077Y0096368D01*
X0223127Y0096335D01*
X0223175Y0096299D01*
X0223220Y0096261D01*
X0223263Y0096219D01*
X0223303Y0096175D01*
X0223341Y0096128D01*
X0223375Y0096079D01*
X0223406Y0096028D01*
X0223434Y0095975D01*
X0223458Y0095920D01*
X0223478Y0095864D01*
X0223495Y0095807D01*
X0223509Y0095748D01*
X0223518Y0095689D01*
X0223524Y0095630D01*
X0223526Y0095570D01*
X0223526Y0094403D02*
X0223524Y0094353D01*
X0223519Y0094303D01*
X0223510Y0094254D01*
X0223498Y0094206D01*
X0223482Y0094158D01*
X0223463Y0094112D01*
X0223440Y0094068D01*
X0223415Y0094025D01*
X0223386Y0093984D01*
X0223355Y0093945D01*
X0223321Y0093908D01*
X0223284Y0093874D01*
X0223245Y0093843D01*
X0223204Y0093814D01*
X0223161Y0093789D01*
X0223117Y0093766D01*
X0223071Y0093747D01*
X0223023Y0093731D01*
X0222975Y0093719D01*
X0222926Y0093710D01*
X0222876Y0093705D01*
X0222826Y0093703D01*
X0221659Y0093703D01*
X0219043Y0096504D02*
X0218945Y0096500D01*
X0218846Y0096494D01*
X0218749Y0096483D01*
X0218651Y0096469D01*
X0218554Y0096451D01*
X0218458Y0096430D01*
X0218363Y0096405D01*
X0218269Y0096376D01*
X0218175Y0096344D01*
X0218084Y0096309D01*
X0217993Y0096270D01*
X0219042Y0096503D02*
X0219090Y0096502D01*
X0219138Y0096497D01*
X0219185Y0096488D01*
X0219231Y0096475D01*
X0219277Y0096459D01*
X0219320Y0096440D01*
X0219362Y0096417D01*
X0219403Y0096390D01*
X0219440Y0096361D01*
X0219476Y0096329D01*
X0219509Y0096294D01*
X0219539Y0096256D01*
X0219565Y0096216D01*
X0219589Y0096175D01*
X0219609Y0096131D01*
X0219626Y0096086D01*
X0219639Y0096040D01*
X0219648Y0095993D01*
X0219654Y0095945D01*
X0219656Y0095897D01*
X0219654Y0095850D01*
X0219648Y0095802D01*
X0219639Y0095755D01*
X0219626Y0095709D01*
X0219609Y0095664D01*
X0219589Y0095620D01*
X0219565Y0095579D01*
X0219538Y0095539D01*
X0219508Y0095502D01*
X0219475Y0095467D01*
X0219440Y0095434D01*
X0219402Y0095405D01*
X0219362Y0095379D01*
X0219319Y0095356D01*
X0219276Y0095336D01*
X0218109Y0094870D01*
X0218066Y0094850D01*
X0218023Y0094827D01*
X0217983Y0094801D01*
X0217945Y0094772D01*
X0217910Y0094739D01*
X0217877Y0094704D01*
X0217847Y0094667D01*
X0217820Y0094627D01*
X0217796Y0094586D01*
X0217776Y0094542D01*
X0217759Y0094497D01*
X0217746Y0094451D01*
X0217737Y0094404D01*
X0217731Y0094356D01*
X0217729Y0094309D01*
X0217731Y0094261D01*
X0217737Y0094213D01*
X0217746Y0094166D01*
X0217759Y0094120D01*
X0217776Y0094075D01*
X0217796Y0094031D01*
X0217820Y0093990D01*
X0217846Y0093950D01*
X0217876Y0093912D01*
X0217909Y0093877D01*
X0217945Y0093845D01*
X0217982Y0093816D01*
X0218023Y0093789D01*
X0218065Y0093766D01*
X0218108Y0093747D01*
X0218154Y0093731D01*
X0218200Y0093718D01*
X0218247Y0093709D01*
X0218295Y0093704D01*
X0218343Y0093703D01*
X0218342Y0093703D02*
X0218462Y0093707D01*
X0218580Y0093714D01*
X0218699Y0093725D01*
X0218817Y0093739D01*
X0218935Y0093757D01*
X0219052Y0093778D01*
X0219169Y0093803D01*
X0219285Y0093831D01*
X0219399Y0093863D01*
X0219513Y0093898D01*
X0219626Y0093937D01*
X0220936Y0090403D02*
X0222803Y0090403D01*
X0222803Y0086203D01*
X0222803Y0088536D02*
X0220936Y0088536D01*
X0225031Y0088303D02*
X0225031Y0086903D01*
X0225033Y0086853D01*
X0225038Y0086803D01*
X0225047Y0086754D01*
X0225059Y0086706D01*
X0225075Y0086658D01*
X0225094Y0086612D01*
X0225117Y0086568D01*
X0225142Y0086525D01*
X0225171Y0086484D01*
X0225202Y0086445D01*
X0225236Y0086408D01*
X0225273Y0086374D01*
X0225312Y0086343D01*
X0225353Y0086314D01*
X0225396Y0086289D01*
X0225440Y0086266D01*
X0225486Y0086247D01*
X0225534Y0086231D01*
X0225582Y0086219D01*
X0225631Y0086210D01*
X0225681Y0086205D01*
X0225731Y0086203D01*
X0226898Y0086203D01*
X0226898Y0084803D02*
X0226898Y0089003D01*
X0225731Y0089003D01*
X0225681Y0089001D01*
X0225631Y0088996D01*
X0225582Y0088987D01*
X0225534Y0088975D01*
X0225486Y0088959D01*
X0225440Y0088940D01*
X0225396Y0088917D01*
X0225353Y0088892D01*
X0225312Y0088863D01*
X0225273Y0088832D01*
X0225236Y0088798D01*
X0225202Y0088761D01*
X0225171Y0088722D01*
X0225142Y0088681D01*
X0225117Y0088638D01*
X0225094Y0088594D01*
X0225075Y0088548D01*
X0225059Y0088500D01*
X0225047Y0088452D01*
X0225038Y0088403D01*
X0225033Y0088353D01*
X0225031Y0088303D01*
X0231166Y0086786D02*
X0231214Y0086888D01*
X0231258Y0086991D01*
X0231299Y0087095D01*
X0231336Y0087201D01*
X0231370Y0087308D01*
X0231400Y0087416D01*
X0231427Y0087525D01*
X0231451Y0087634D01*
X0231471Y0087745D01*
X0231487Y0087856D01*
X0231500Y0087967D01*
X0231509Y0088079D01*
X0231514Y0088191D01*
X0231516Y0088303D01*
X0235666Y0089820D02*
X0235714Y0089718D01*
X0235758Y0089615D01*
X0235799Y0089511D01*
X0235836Y0089405D01*
X0235870Y0089298D01*
X0235900Y0089190D01*
X0235927Y0089081D01*
X0235951Y0088972D01*
X0235971Y0088861D01*
X0235987Y0088750D01*
X0236000Y0088639D01*
X0236009Y0088527D01*
X0236014Y0088415D01*
X0236016Y0088303D01*
X0234849Y0090403D02*
X0234793Y0090401D01*
X0234737Y0090396D01*
X0234681Y0090386D01*
X0234626Y0090374D01*
X0234572Y0090357D01*
X0234520Y0090338D01*
X0234468Y0090314D01*
X0234418Y0090288D01*
X0234371Y0090258D01*
X0234325Y0090226D01*
X0234281Y0090190D01*
X0234240Y0090151D01*
X0234201Y0090110D01*
X0234166Y0090067D01*
X0234133Y0090021D01*
X0234103Y0089973D01*
X0234076Y0089924D01*
X0234053Y0089873D01*
X0234033Y0089820D01*
X0234849Y0090403D02*
X0234905Y0090401D01*
X0234961Y0090396D01*
X0235017Y0090386D01*
X0235072Y0090374D01*
X0235126Y0090357D01*
X0235178Y0090338D01*
X0235230Y0090314D01*
X0235280Y0090288D01*
X0235327Y0090258D01*
X0235373Y0090225D01*
X0235417Y0090190D01*
X0235458Y0090151D01*
X0235497Y0090110D01*
X0235532Y0090067D01*
X0235565Y0090021D01*
X0235595Y0089973D01*
X0235622Y0089924D01*
X0235645Y0089873D01*
X0235665Y0089820D01*
X0229533Y0089820D02*
X0229485Y0089718D01*
X0229441Y0089615D01*
X0229400Y0089511D01*
X0229363Y0089405D01*
X0229329Y0089298D01*
X0229299Y0089190D01*
X0229272Y0089081D01*
X0229248Y0088972D01*
X0229228Y0088861D01*
X0229212Y0088750D01*
X0229199Y0088639D01*
X0229190Y0088527D01*
X0229185Y0088415D01*
X0229183Y0088303D01*
X0200016Y0087603D02*
X0196749Y0087603D01*
X0196690Y0087601D01*
X0196632Y0087596D01*
X0196574Y0087586D01*
X0196517Y0087574D01*
X0196461Y0087557D01*
X0196406Y0087537D01*
X0196352Y0087514D01*
X0196300Y0087488D01*
X0196249Y0087458D01*
X0196201Y0087425D01*
X0196154Y0087389D01*
X0196110Y0087350D01*
X0196069Y0087309D01*
X0196030Y0087265D01*
X0195994Y0087218D01*
X0195961Y0087170D01*
X0195931Y0087119D01*
X0195905Y0087067D01*
X0195882Y0087013D01*
X0195862Y0086958D01*
X0195845Y0086902D01*
X0195833Y0086845D01*
X0195823Y0086787D01*
X0195818Y0086729D01*
X0195816Y0086670D01*
X0195816Y0086203D01*
X0195816Y0090142D02*
X0200016Y0090142D01*
X0200016Y0091309D01*
X0200014Y0091376D01*
X0200008Y0091442D01*
X0199999Y0091508D01*
X0199986Y0091573D01*
X0199969Y0091638D01*
X0199948Y0091701D01*
X0199924Y0091763D01*
X0199896Y0091824D01*
X0199865Y0091883D01*
X0199831Y0091940D01*
X0199793Y0091995D01*
X0199752Y0092048D01*
X0199709Y0092098D01*
X0199662Y0092146D01*
X0199613Y0092191D01*
X0199562Y0092233D01*
X0199508Y0092272D01*
X0199452Y0092308D01*
X0199394Y0092341D01*
X0199334Y0092371D01*
X0199272Y0092396D01*
X0199210Y0092419D01*
X0199146Y0092438D01*
X0199081Y0092453D01*
X0199015Y0092464D01*
X0198949Y0092472D01*
X0198882Y0092476D01*
X0198816Y0092476D01*
X0198749Y0092472D01*
X0198683Y0092464D01*
X0198617Y0092453D01*
X0198552Y0092438D01*
X0198488Y0092419D01*
X0198426Y0092396D01*
X0198364Y0092371D01*
X0198304Y0092341D01*
X0198246Y0092308D01*
X0198190Y0092272D01*
X0198136Y0092233D01*
X0198085Y0092191D01*
X0198036Y0092146D01*
X0197989Y0092098D01*
X0197946Y0092048D01*
X0197905Y0091995D01*
X0197867Y0091940D01*
X0197833Y0091883D01*
X0197802Y0091824D01*
X0197774Y0091763D01*
X0197750Y0091701D01*
X0197729Y0091638D01*
X0197712Y0091573D01*
X0197699Y0091508D01*
X0197690Y0091442D01*
X0197684Y0091376D01*
X0197682Y0091309D01*
X0197683Y0091309D02*
X0197683Y0090142D01*
X0198149Y0094392D02*
X0196983Y0094392D01*
X0198149Y0094392D02*
X0198149Y0095792D01*
X0198149Y0094392D02*
X0198235Y0094394D01*
X0198321Y0094400D01*
X0198407Y0094410D01*
X0198492Y0094424D01*
X0198576Y0094442D01*
X0198660Y0094463D01*
X0198742Y0094489D01*
X0198823Y0094518D01*
X0198903Y0094551D01*
X0198981Y0094588D01*
X0199057Y0094628D01*
X0199132Y0094672D01*
X0199204Y0094719D01*
X0199274Y0094769D01*
X0199342Y0094823D01*
X0199407Y0094879D01*
X0199469Y0094939D01*
X0199529Y0095001D01*
X0199585Y0095066D01*
X0199639Y0095134D01*
X0199689Y0095204D01*
X0199736Y0095276D01*
X0199780Y0095351D01*
X0199820Y0095427D01*
X0199857Y0095505D01*
X0199890Y0095585D01*
X0199919Y0095666D01*
X0199945Y0095748D01*
X0199966Y0095832D01*
X0199984Y0095916D01*
X0199998Y0096001D01*
X0200008Y0096087D01*
X0200014Y0096173D01*
X0200016Y0096259D01*
X0198149Y0095792D02*
X0198147Y0095851D01*
X0198142Y0095909D01*
X0198132Y0095967D01*
X0198120Y0096024D01*
X0198103Y0096080D01*
X0198083Y0096135D01*
X0198060Y0096189D01*
X0198034Y0096241D01*
X0198004Y0096292D01*
X0197971Y0096340D01*
X0197935Y0096387D01*
X0197896Y0096431D01*
X0197855Y0096472D01*
X0197811Y0096511D01*
X0197764Y0096547D01*
X0197716Y0096580D01*
X0197665Y0096610D01*
X0197613Y0096636D01*
X0197559Y0096659D01*
X0197504Y0096679D01*
X0197448Y0096696D01*
X0197391Y0096708D01*
X0197333Y0096718D01*
X0197275Y0096723D01*
X0197216Y0096725D01*
X0197216Y0096726D02*
X0196983Y0096726D01*
X0196916Y0096724D01*
X0196850Y0096718D01*
X0196784Y0096709D01*
X0196719Y0096696D01*
X0196654Y0096679D01*
X0196591Y0096658D01*
X0196529Y0096634D01*
X0196468Y0096606D01*
X0196409Y0096575D01*
X0196352Y0096541D01*
X0196297Y0096503D01*
X0196244Y0096462D01*
X0196194Y0096419D01*
X0196146Y0096372D01*
X0196101Y0096323D01*
X0196059Y0096272D01*
X0196020Y0096218D01*
X0195984Y0096162D01*
X0195951Y0096104D01*
X0195921Y0096044D01*
X0195896Y0095982D01*
X0195873Y0095920D01*
X0195854Y0095856D01*
X0195839Y0095791D01*
X0195828Y0095725D01*
X0195820Y0095659D01*
X0195816Y0095592D01*
X0195816Y0095526D01*
X0195820Y0095459D01*
X0195828Y0095393D01*
X0195839Y0095327D01*
X0195854Y0095262D01*
X0195873Y0095198D01*
X0195896Y0095136D01*
X0195921Y0095074D01*
X0195951Y0095014D01*
X0195984Y0094956D01*
X0196020Y0094900D01*
X0196059Y0094846D01*
X0196101Y0094795D01*
X0196146Y0094746D01*
X0196194Y0094699D01*
X0196244Y0094656D01*
X0196297Y0094615D01*
X0196352Y0094577D01*
X0196409Y0094543D01*
X0196468Y0094512D01*
X0196529Y0094484D01*
X0196591Y0094460D01*
X0196654Y0094439D01*
X0196719Y0094422D01*
X0196784Y0094409D01*
X0196850Y0094400D01*
X0196916Y0094394D01*
X0196983Y0094392D01*
X0190016Y0093193D02*
X0190014Y0093256D01*
X0190008Y0093320D01*
X0189999Y0093382D01*
X0189985Y0093444D01*
X0189968Y0093505D01*
X0189948Y0093565D01*
X0189923Y0093624D01*
X0189896Y0093681D01*
X0189865Y0093736D01*
X0189830Y0093789D01*
X0189793Y0093841D01*
X0189752Y0093889D01*
X0189708Y0093935D01*
X0189662Y0093979D01*
X0189614Y0094020D01*
X0189562Y0094057D01*
X0189509Y0094092D01*
X0189454Y0094123D01*
X0189397Y0094150D01*
X0189338Y0094175D01*
X0189278Y0094195D01*
X0189217Y0094212D01*
X0189155Y0094226D01*
X0189093Y0094235D01*
X0189029Y0094241D01*
X0188966Y0094243D01*
X0188149Y0093893D02*
X0185816Y0091910D01*
X0185816Y0094243D01*
X0189083Y0091910D02*
X0189149Y0091933D01*
X0189215Y0091960D01*
X0189278Y0091991D01*
X0189341Y0092024D01*
X0189401Y0092061D01*
X0189459Y0092101D01*
X0189515Y0092144D01*
X0189569Y0092190D01*
X0189620Y0092239D01*
X0189669Y0092290D01*
X0189715Y0092343D01*
X0189758Y0092400D01*
X0189798Y0092458D01*
X0189835Y0092518D01*
X0189869Y0092580D01*
X0189899Y0092644D01*
X0189926Y0092709D01*
X0189950Y0092776D01*
X0189970Y0092844D01*
X0189986Y0092912D01*
X0189999Y0092982D01*
X0190009Y0093052D01*
X0190014Y0093122D01*
X0190016Y0093193D01*
X0188966Y0094243D02*
X0188901Y0094241D01*
X0188836Y0094235D01*
X0188771Y0094226D01*
X0188707Y0094213D01*
X0188644Y0094196D01*
X0188582Y0094176D01*
X0188522Y0094152D01*
X0188462Y0094124D01*
X0188405Y0094094D01*
X0188349Y0094060D01*
X0188296Y0094022D01*
X0188244Y0093982D01*
X0188196Y0093939D01*
X0188149Y0093893D01*
X0185816Y0089786D02*
X0187683Y0088853D01*
X0187683Y0088620D02*
X0187683Y0087453D01*
X0187682Y0088620D02*
X0187684Y0088687D01*
X0187690Y0088753D01*
X0187699Y0088819D01*
X0187712Y0088884D01*
X0187729Y0088949D01*
X0187750Y0089012D01*
X0187774Y0089074D01*
X0187802Y0089135D01*
X0187833Y0089194D01*
X0187867Y0089251D01*
X0187905Y0089306D01*
X0187946Y0089359D01*
X0187989Y0089409D01*
X0188036Y0089457D01*
X0188085Y0089502D01*
X0188136Y0089544D01*
X0188190Y0089583D01*
X0188246Y0089619D01*
X0188304Y0089652D01*
X0188364Y0089682D01*
X0188426Y0089707D01*
X0188488Y0089730D01*
X0188552Y0089749D01*
X0188617Y0089764D01*
X0188683Y0089775D01*
X0188749Y0089783D01*
X0188816Y0089787D01*
X0188882Y0089787D01*
X0188949Y0089783D01*
X0189015Y0089775D01*
X0189081Y0089764D01*
X0189146Y0089749D01*
X0189210Y0089730D01*
X0189272Y0089707D01*
X0189334Y0089682D01*
X0189394Y0089652D01*
X0189452Y0089619D01*
X0189508Y0089583D01*
X0189562Y0089544D01*
X0189613Y0089502D01*
X0189662Y0089457D01*
X0189709Y0089409D01*
X0189752Y0089359D01*
X0189793Y0089306D01*
X0189831Y0089251D01*
X0189865Y0089194D01*
X0189896Y0089135D01*
X0189924Y0089074D01*
X0189948Y0089012D01*
X0189969Y0088949D01*
X0189986Y0088884D01*
X0189999Y0088819D01*
X0190008Y0088753D01*
X0190014Y0088687D01*
X0190016Y0088620D01*
X0190016Y0087453D01*
X0185816Y0087453D01*
X0185816Y0081826D02*
X0185816Y0080660D01*
X0185816Y0081826D02*
X0185818Y0081893D01*
X0185824Y0081959D01*
X0185833Y0082025D01*
X0185846Y0082090D01*
X0185863Y0082155D01*
X0185884Y0082218D01*
X0185908Y0082280D01*
X0185936Y0082341D01*
X0185967Y0082400D01*
X0186001Y0082457D01*
X0186039Y0082512D01*
X0186080Y0082565D01*
X0186123Y0082615D01*
X0186170Y0082663D01*
X0186219Y0082708D01*
X0186270Y0082750D01*
X0186324Y0082789D01*
X0186380Y0082825D01*
X0186438Y0082858D01*
X0186498Y0082888D01*
X0186560Y0082913D01*
X0186622Y0082936D01*
X0186686Y0082955D01*
X0186751Y0082970D01*
X0186817Y0082981D01*
X0186883Y0082989D01*
X0186950Y0082993D01*
X0187016Y0082993D01*
X0187083Y0082989D01*
X0187149Y0082981D01*
X0187215Y0082970D01*
X0187280Y0082955D01*
X0187344Y0082936D01*
X0187406Y0082913D01*
X0187468Y0082888D01*
X0187528Y0082858D01*
X0187586Y0082825D01*
X0187642Y0082789D01*
X0187696Y0082750D01*
X0187747Y0082708D01*
X0187796Y0082663D01*
X0187843Y0082615D01*
X0187886Y0082565D01*
X0187927Y0082512D01*
X0187965Y0082457D01*
X0187999Y0082400D01*
X0188030Y0082341D01*
X0188058Y0082280D01*
X0188082Y0082218D01*
X0188103Y0082155D01*
X0188120Y0082090D01*
X0188133Y0082025D01*
X0188142Y0081959D01*
X0188148Y0081893D01*
X0188150Y0081826D01*
X0188149Y0082060D02*
X0188149Y0081126D01*
X0188150Y0082060D02*
X0188152Y0082120D01*
X0188158Y0082179D01*
X0188167Y0082238D01*
X0188181Y0082297D01*
X0188198Y0082354D01*
X0188218Y0082410D01*
X0188242Y0082465D01*
X0188270Y0082518D01*
X0188301Y0082569D01*
X0188335Y0082618D01*
X0188373Y0082665D01*
X0188413Y0082709D01*
X0188456Y0082751D01*
X0188501Y0082789D01*
X0188549Y0082825D01*
X0188599Y0082858D01*
X0188651Y0082887D01*
X0188705Y0082913D01*
X0188761Y0082936D01*
X0188818Y0082954D01*
X0188875Y0082970D01*
X0188934Y0082981D01*
X0188993Y0082989D01*
X0189053Y0082993D01*
X0189113Y0082993D01*
X0189173Y0082989D01*
X0189232Y0082981D01*
X0189291Y0082970D01*
X0189348Y0082954D01*
X0189405Y0082936D01*
X0189461Y0082913D01*
X0189515Y0082887D01*
X0189567Y0082858D01*
X0189617Y0082825D01*
X0189665Y0082789D01*
X0189710Y0082751D01*
X0189753Y0082709D01*
X0189793Y0082665D01*
X0189831Y0082618D01*
X0189865Y0082569D01*
X0189896Y0082518D01*
X0189924Y0082465D01*
X0189948Y0082410D01*
X0189968Y0082354D01*
X0189985Y0082297D01*
X0189999Y0082238D01*
X0190008Y0082179D01*
X0190014Y0082120D01*
X0190016Y0082060D01*
X0190016Y0080660D01*
X0190016Y0077370D02*
X0190016Y0076203D01*
X0185816Y0076203D01*
X0187683Y0076203D02*
X0187683Y0077370D01*
X0187683Y0077603D02*
X0185816Y0078536D01*
X0187682Y0077370D02*
X0187684Y0077437D01*
X0187690Y0077503D01*
X0187699Y0077569D01*
X0187712Y0077634D01*
X0187729Y0077699D01*
X0187750Y0077762D01*
X0187774Y0077824D01*
X0187802Y0077885D01*
X0187833Y0077944D01*
X0187867Y0078001D01*
X0187905Y0078056D01*
X0187946Y0078109D01*
X0187989Y0078159D01*
X0188036Y0078207D01*
X0188085Y0078252D01*
X0188136Y0078294D01*
X0188190Y0078333D01*
X0188246Y0078369D01*
X0188304Y0078402D01*
X0188364Y0078432D01*
X0188426Y0078457D01*
X0188488Y0078480D01*
X0188552Y0078499D01*
X0188617Y0078514D01*
X0188683Y0078525D01*
X0188749Y0078533D01*
X0188816Y0078537D01*
X0188882Y0078537D01*
X0188949Y0078533D01*
X0189015Y0078525D01*
X0189081Y0078514D01*
X0189146Y0078499D01*
X0189210Y0078480D01*
X0189272Y0078457D01*
X0189334Y0078432D01*
X0189394Y0078402D01*
X0189452Y0078369D01*
X0189508Y0078333D01*
X0189562Y0078294D01*
X0189613Y0078252D01*
X0189662Y0078207D01*
X0189709Y0078159D01*
X0189752Y0078109D01*
X0189793Y0078056D01*
X0189831Y0078001D01*
X0189865Y0077944D01*
X0189896Y0077885D01*
X0189924Y0077824D01*
X0189948Y0077762D01*
X0189969Y0077699D01*
X0189986Y0077634D01*
X0189999Y0077569D01*
X0190008Y0077503D01*
X0190014Y0077437D01*
X0190016Y0077370D01*
X0177516Y0077486D02*
X0177516Y0076320D01*
X0173316Y0076320D01*
X0175183Y0076320D02*
X0175183Y0077486D01*
X0175182Y0077486D02*
X0175184Y0077553D01*
X0175190Y0077619D01*
X0175199Y0077685D01*
X0175212Y0077750D01*
X0175229Y0077815D01*
X0175250Y0077878D01*
X0175274Y0077940D01*
X0175302Y0078001D01*
X0175333Y0078060D01*
X0175367Y0078117D01*
X0175405Y0078172D01*
X0175446Y0078225D01*
X0175489Y0078275D01*
X0175536Y0078323D01*
X0175585Y0078368D01*
X0175636Y0078410D01*
X0175690Y0078449D01*
X0175746Y0078485D01*
X0175804Y0078518D01*
X0175864Y0078548D01*
X0175926Y0078573D01*
X0175988Y0078596D01*
X0176052Y0078615D01*
X0176117Y0078630D01*
X0176183Y0078641D01*
X0176249Y0078649D01*
X0176316Y0078653D01*
X0176382Y0078653D01*
X0176449Y0078649D01*
X0176515Y0078641D01*
X0176581Y0078630D01*
X0176646Y0078615D01*
X0176710Y0078596D01*
X0176772Y0078573D01*
X0176834Y0078548D01*
X0176894Y0078518D01*
X0176952Y0078485D01*
X0177008Y0078449D01*
X0177062Y0078410D01*
X0177113Y0078368D01*
X0177162Y0078323D01*
X0177209Y0078275D01*
X0177252Y0078225D01*
X0177293Y0078172D01*
X0177331Y0078117D01*
X0177365Y0078060D01*
X0177396Y0078001D01*
X0177424Y0077940D01*
X0177448Y0077878D01*
X0177469Y0077815D01*
X0177486Y0077750D01*
X0177499Y0077685D01*
X0177508Y0077619D01*
X0177514Y0077553D01*
X0177516Y0077486D01*
X0177516Y0080570D02*
X0175649Y0080570D01*
X0175649Y0081970D01*
X0175647Y0082029D01*
X0175642Y0082087D01*
X0175632Y0082145D01*
X0175620Y0082202D01*
X0175603Y0082258D01*
X0175583Y0082313D01*
X0175560Y0082367D01*
X0175534Y0082419D01*
X0175504Y0082470D01*
X0175471Y0082518D01*
X0175435Y0082565D01*
X0175396Y0082609D01*
X0175355Y0082650D01*
X0175311Y0082689D01*
X0175264Y0082725D01*
X0175216Y0082758D01*
X0175165Y0082788D01*
X0175113Y0082814D01*
X0175059Y0082837D01*
X0175004Y0082857D01*
X0174948Y0082874D01*
X0174891Y0082886D01*
X0174833Y0082896D01*
X0174775Y0082901D01*
X0174716Y0082903D01*
X0174249Y0082903D01*
X0174190Y0082901D01*
X0174132Y0082896D01*
X0174074Y0082886D01*
X0174017Y0082874D01*
X0173961Y0082857D01*
X0173906Y0082837D01*
X0173852Y0082814D01*
X0173800Y0082788D01*
X0173749Y0082758D01*
X0173701Y0082725D01*
X0173654Y0082689D01*
X0173610Y0082650D01*
X0173569Y0082609D01*
X0173530Y0082565D01*
X0173494Y0082518D01*
X0173461Y0082470D01*
X0173431Y0082419D01*
X0173405Y0082367D01*
X0173382Y0082313D01*
X0173362Y0082258D01*
X0173345Y0082202D01*
X0173333Y0082145D01*
X0173323Y0082087D01*
X0173318Y0082029D01*
X0173316Y0081970D01*
X0173316Y0080570D01*
X0177516Y0080570D02*
X0177516Y0082903D01*
X0177516Y0073781D02*
X0174249Y0073781D01*
X0174249Y0073780D02*
X0174190Y0073778D01*
X0174132Y0073773D01*
X0174074Y0073763D01*
X0174017Y0073751D01*
X0173961Y0073734D01*
X0173906Y0073714D01*
X0173852Y0073691D01*
X0173800Y0073665D01*
X0173749Y0073635D01*
X0173701Y0073602D01*
X0173654Y0073566D01*
X0173610Y0073527D01*
X0173569Y0073486D01*
X0173530Y0073442D01*
X0173494Y0073395D01*
X0173461Y0073347D01*
X0173431Y0073296D01*
X0173405Y0073244D01*
X0173382Y0073190D01*
X0173362Y0073135D01*
X0173345Y0073079D01*
X0173333Y0073022D01*
X0173323Y0072964D01*
X0173318Y0072906D01*
X0173316Y0072847D01*
X0173316Y0072381D01*
X0165016Y0074863D02*
X0165016Y0076030D01*
X0165016Y0074863D02*
X0160816Y0074863D01*
X0162683Y0074863D02*
X0162683Y0076030D01*
X0162683Y0076263D02*
X0160816Y0077197D01*
X0161983Y0079320D02*
X0163149Y0079320D01*
X0163149Y0080720D01*
X0163149Y0079319D02*
X0163235Y0079321D01*
X0163321Y0079327D01*
X0163407Y0079337D01*
X0163492Y0079351D01*
X0163576Y0079369D01*
X0163660Y0079390D01*
X0163742Y0079416D01*
X0163823Y0079445D01*
X0163903Y0079478D01*
X0163981Y0079515D01*
X0164057Y0079555D01*
X0164132Y0079599D01*
X0164204Y0079646D01*
X0164274Y0079696D01*
X0164342Y0079750D01*
X0164407Y0079806D01*
X0164469Y0079866D01*
X0164529Y0079928D01*
X0164585Y0079993D01*
X0164639Y0080061D01*
X0164689Y0080131D01*
X0164736Y0080203D01*
X0164780Y0080278D01*
X0164820Y0080354D01*
X0164857Y0080432D01*
X0164890Y0080512D01*
X0164919Y0080593D01*
X0164945Y0080675D01*
X0164966Y0080759D01*
X0164984Y0080843D01*
X0164998Y0080928D01*
X0165008Y0081014D01*
X0165014Y0081100D01*
X0165016Y0081186D01*
X0163149Y0080720D02*
X0163147Y0080779D01*
X0163142Y0080837D01*
X0163132Y0080895D01*
X0163120Y0080952D01*
X0163103Y0081008D01*
X0163083Y0081063D01*
X0163060Y0081117D01*
X0163034Y0081169D01*
X0163004Y0081220D01*
X0162971Y0081268D01*
X0162935Y0081315D01*
X0162896Y0081359D01*
X0162855Y0081400D01*
X0162811Y0081439D01*
X0162764Y0081475D01*
X0162716Y0081508D01*
X0162665Y0081538D01*
X0162613Y0081564D01*
X0162559Y0081587D01*
X0162504Y0081607D01*
X0162448Y0081624D01*
X0162391Y0081636D01*
X0162333Y0081646D01*
X0162275Y0081651D01*
X0162216Y0081653D01*
X0161983Y0081653D01*
X0161916Y0081651D01*
X0161850Y0081645D01*
X0161784Y0081636D01*
X0161719Y0081623D01*
X0161654Y0081606D01*
X0161591Y0081585D01*
X0161529Y0081561D01*
X0161468Y0081533D01*
X0161409Y0081502D01*
X0161352Y0081468D01*
X0161297Y0081430D01*
X0161244Y0081389D01*
X0161194Y0081346D01*
X0161146Y0081299D01*
X0161101Y0081250D01*
X0161059Y0081199D01*
X0161020Y0081145D01*
X0160984Y0081089D01*
X0160951Y0081031D01*
X0160921Y0080971D01*
X0160896Y0080909D01*
X0160873Y0080847D01*
X0160854Y0080783D01*
X0160839Y0080718D01*
X0160828Y0080652D01*
X0160820Y0080586D01*
X0160816Y0080519D01*
X0160816Y0080453D01*
X0160820Y0080386D01*
X0160828Y0080320D01*
X0160839Y0080254D01*
X0160854Y0080189D01*
X0160873Y0080125D01*
X0160896Y0080063D01*
X0160921Y0080001D01*
X0160951Y0079941D01*
X0160984Y0079883D01*
X0161020Y0079827D01*
X0161059Y0079773D01*
X0161101Y0079722D01*
X0161146Y0079673D01*
X0161194Y0079626D01*
X0161244Y0079583D01*
X0161297Y0079542D01*
X0161352Y0079504D01*
X0161409Y0079470D01*
X0161468Y0079439D01*
X0161529Y0079411D01*
X0161591Y0079387D01*
X0161654Y0079366D01*
X0161719Y0079349D01*
X0161784Y0079336D01*
X0161850Y0079327D01*
X0161916Y0079321D01*
X0161983Y0079319D01*
X0162682Y0076030D02*
X0162684Y0076097D01*
X0162690Y0076163D01*
X0162699Y0076229D01*
X0162712Y0076294D01*
X0162729Y0076359D01*
X0162750Y0076422D01*
X0162774Y0076484D01*
X0162802Y0076545D01*
X0162833Y0076604D01*
X0162867Y0076661D01*
X0162905Y0076716D01*
X0162946Y0076769D01*
X0162989Y0076819D01*
X0163036Y0076867D01*
X0163085Y0076912D01*
X0163136Y0076954D01*
X0163190Y0076993D01*
X0163246Y0077029D01*
X0163304Y0077062D01*
X0163364Y0077092D01*
X0163426Y0077117D01*
X0163488Y0077140D01*
X0163552Y0077159D01*
X0163617Y0077174D01*
X0163683Y0077185D01*
X0163749Y0077193D01*
X0163816Y0077197D01*
X0163882Y0077197D01*
X0163949Y0077193D01*
X0164015Y0077185D01*
X0164081Y0077174D01*
X0164146Y0077159D01*
X0164210Y0077140D01*
X0164272Y0077117D01*
X0164334Y0077092D01*
X0164394Y0077062D01*
X0164452Y0077029D01*
X0164508Y0076993D01*
X0164562Y0076954D01*
X0164613Y0076912D01*
X0164662Y0076867D01*
X0164709Y0076819D01*
X0164752Y0076769D01*
X0164793Y0076716D01*
X0164831Y0076661D01*
X0164865Y0076604D01*
X0164896Y0076545D01*
X0164924Y0076484D01*
X0164948Y0076422D01*
X0164969Y0076359D01*
X0164986Y0076294D01*
X0164999Y0076229D01*
X0165008Y0076163D01*
X0165014Y0076097D01*
X0165016Y0076030D01*
X0165016Y0087363D02*
X0160816Y0087363D01*
X0162683Y0087363D02*
X0162683Y0088530D01*
X0162683Y0088763D02*
X0160816Y0089697D01*
X0160816Y0091820D02*
X0160816Y0093220D01*
X0160818Y0093279D01*
X0160823Y0093337D01*
X0160833Y0093395D01*
X0160845Y0093452D01*
X0160862Y0093508D01*
X0160882Y0093563D01*
X0160905Y0093617D01*
X0160931Y0093669D01*
X0160961Y0093720D01*
X0160994Y0093768D01*
X0161030Y0093815D01*
X0161069Y0093859D01*
X0161110Y0093900D01*
X0161154Y0093939D01*
X0161201Y0093975D01*
X0161249Y0094008D01*
X0161300Y0094038D01*
X0161352Y0094064D01*
X0161406Y0094087D01*
X0161461Y0094107D01*
X0161517Y0094124D01*
X0161574Y0094136D01*
X0161632Y0094146D01*
X0161690Y0094151D01*
X0161749Y0094153D01*
X0162216Y0094153D01*
X0162275Y0094151D01*
X0162333Y0094146D01*
X0162391Y0094136D01*
X0162448Y0094124D01*
X0162504Y0094107D01*
X0162559Y0094087D01*
X0162613Y0094064D01*
X0162665Y0094038D01*
X0162716Y0094008D01*
X0162764Y0093975D01*
X0162811Y0093939D01*
X0162855Y0093900D01*
X0162896Y0093859D01*
X0162935Y0093815D01*
X0162971Y0093768D01*
X0163004Y0093720D01*
X0163034Y0093669D01*
X0163060Y0093617D01*
X0163083Y0093563D01*
X0163103Y0093508D01*
X0163120Y0093452D01*
X0163132Y0093395D01*
X0163142Y0093337D01*
X0163147Y0093279D01*
X0163149Y0093220D01*
X0163149Y0091820D01*
X0165016Y0091820D01*
X0165016Y0094153D01*
X0165016Y0098613D02*
X0160816Y0098613D01*
X0162683Y0098613D02*
X0162683Y0099780D01*
X0162683Y0100013D02*
X0160816Y0100947D01*
X0161749Y0103070D02*
X0161749Y0105403D01*
X0160816Y0104703D02*
X0162683Y0104703D01*
X0161749Y0103070D02*
X0165016Y0104003D01*
X0165016Y0099780D02*
X0165016Y0098613D01*
X0165016Y0099780D02*
X0165014Y0099847D01*
X0165008Y0099913D01*
X0164999Y0099979D01*
X0164986Y0100044D01*
X0164969Y0100109D01*
X0164948Y0100172D01*
X0164924Y0100234D01*
X0164896Y0100295D01*
X0164865Y0100354D01*
X0164831Y0100411D01*
X0164793Y0100466D01*
X0164752Y0100519D01*
X0164709Y0100569D01*
X0164662Y0100617D01*
X0164613Y0100662D01*
X0164562Y0100704D01*
X0164508Y0100743D01*
X0164452Y0100779D01*
X0164394Y0100812D01*
X0164334Y0100842D01*
X0164272Y0100867D01*
X0164210Y0100890D01*
X0164146Y0100909D01*
X0164081Y0100924D01*
X0164015Y0100935D01*
X0163949Y0100943D01*
X0163882Y0100947D01*
X0163816Y0100947D01*
X0163749Y0100943D01*
X0163683Y0100935D01*
X0163617Y0100924D01*
X0163552Y0100909D01*
X0163488Y0100890D01*
X0163426Y0100867D01*
X0163364Y0100842D01*
X0163304Y0100812D01*
X0163246Y0100779D01*
X0163190Y0100743D01*
X0163136Y0100704D01*
X0163085Y0100662D01*
X0163036Y0100617D01*
X0162989Y0100569D01*
X0162946Y0100519D01*
X0162905Y0100466D01*
X0162867Y0100411D01*
X0162833Y0100354D01*
X0162802Y0100295D01*
X0162774Y0100234D01*
X0162750Y0100172D01*
X0162729Y0100109D01*
X0162712Y0100044D01*
X0162699Y0099979D01*
X0162690Y0099913D01*
X0162684Y0099847D01*
X0162682Y0099780D01*
X0173316Y0099170D02*
X0173316Y0098703D01*
X0173316Y0099170D02*
X0173318Y0099229D01*
X0173323Y0099287D01*
X0173333Y0099345D01*
X0173345Y0099402D01*
X0173362Y0099458D01*
X0173382Y0099513D01*
X0173405Y0099567D01*
X0173431Y0099619D01*
X0173461Y0099670D01*
X0173494Y0099718D01*
X0173530Y0099765D01*
X0173569Y0099809D01*
X0173610Y0099850D01*
X0173654Y0099889D01*
X0173701Y0099925D01*
X0173749Y0099958D01*
X0173800Y0099988D01*
X0173852Y0100014D01*
X0173906Y0100037D01*
X0173961Y0100057D01*
X0174017Y0100074D01*
X0174074Y0100086D01*
X0174132Y0100096D01*
X0174190Y0100101D01*
X0174249Y0100103D01*
X0177516Y0100103D01*
X0177516Y0102642D02*
X0177516Y0103809D01*
X0177516Y0102642D02*
X0173316Y0102642D01*
X0175183Y0102642D02*
X0175183Y0103809D01*
X0175182Y0103809D02*
X0175184Y0103876D01*
X0175190Y0103942D01*
X0175199Y0104008D01*
X0175212Y0104073D01*
X0175229Y0104138D01*
X0175250Y0104201D01*
X0175274Y0104263D01*
X0175302Y0104324D01*
X0175333Y0104383D01*
X0175367Y0104440D01*
X0175405Y0104495D01*
X0175446Y0104548D01*
X0175489Y0104598D01*
X0175536Y0104646D01*
X0175585Y0104691D01*
X0175636Y0104733D01*
X0175690Y0104772D01*
X0175746Y0104808D01*
X0175804Y0104841D01*
X0175864Y0104871D01*
X0175926Y0104896D01*
X0175988Y0104919D01*
X0176052Y0104938D01*
X0176117Y0104953D01*
X0176183Y0104964D01*
X0176249Y0104972D01*
X0176316Y0104976D01*
X0176382Y0104976D01*
X0176449Y0104972D01*
X0176515Y0104964D01*
X0176581Y0104953D01*
X0176646Y0104938D01*
X0176710Y0104919D01*
X0176772Y0104896D01*
X0176834Y0104871D01*
X0176894Y0104841D01*
X0176952Y0104808D01*
X0177008Y0104772D01*
X0177062Y0104733D01*
X0177113Y0104691D01*
X0177162Y0104646D01*
X0177209Y0104598D01*
X0177252Y0104548D01*
X0177293Y0104495D01*
X0177331Y0104440D01*
X0177365Y0104383D01*
X0177396Y0104324D01*
X0177424Y0104263D01*
X0177448Y0104201D01*
X0177469Y0104138D01*
X0177486Y0104073D01*
X0177499Y0104008D01*
X0177508Y0103942D01*
X0177514Y0103876D01*
X0177516Y0103809D01*
X0177516Y0107826D02*
X0174249Y0106892D01*
X0174249Y0109226D01*
X0173316Y0108526D02*
X0175183Y0108526D01*
X0173693Y0117303D02*
X0173459Y0117303D01*
X0173409Y0117305D01*
X0173359Y0117310D01*
X0173310Y0117319D01*
X0173262Y0117331D01*
X0173214Y0117347D01*
X0173168Y0117366D01*
X0173124Y0117389D01*
X0173081Y0117414D01*
X0173040Y0117443D01*
X0173001Y0117474D01*
X0172964Y0117508D01*
X0172930Y0117545D01*
X0172899Y0117584D01*
X0172870Y0117625D01*
X0172845Y0117668D01*
X0172822Y0117712D01*
X0172803Y0117758D01*
X0172787Y0117806D01*
X0172775Y0117854D01*
X0172766Y0117903D01*
X0172761Y0117953D01*
X0172759Y0118003D01*
X0172759Y0121503D01*
X0172643Y0122670D02*
X0172876Y0122670D01*
X0172876Y0122903D01*
X0172643Y0122903D01*
X0172643Y0122670D01*
X0174744Y0122903D02*
X0174744Y0118703D01*
X0175911Y0118703D01*
X0175961Y0118705D01*
X0176011Y0118710D01*
X0176060Y0118719D01*
X0176108Y0118731D01*
X0176156Y0118747D01*
X0176202Y0118766D01*
X0176246Y0118789D01*
X0176289Y0118814D01*
X0176330Y0118843D01*
X0176369Y0118874D01*
X0176406Y0118908D01*
X0176440Y0118945D01*
X0176471Y0118984D01*
X0176500Y0119025D01*
X0176525Y0119068D01*
X0176548Y0119112D01*
X0176567Y0119158D01*
X0176583Y0119206D01*
X0176595Y0119254D01*
X0176604Y0119303D01*
X0176609Y0119353D01*
X0176611Y0119403D01*
X0176611Y0120803D01*
X0176609Y0120853D01*
X0176604Y0120903D01*
X0176595Y0120952D01*
X0176583Y0121000D01*
X0176567Y0121048D01*
X0176548Y0121094D01*
X0176525Y0121138D01*
X0176500Y0121181D01*
X0176471Y0121222D01*
X0176440Y0121261D01*
X0176406Y0121298D01*
X0176369Y0121332D01*
X0176330Y0121363D01*
X0176289Y0121392D01*
X0176246Y0121417D01*
X0176202Y0121440D01*
X0176156Y0121459D01*
X0176108Y0121475D01*
X0176060Y0121487D01*
X0176011Y0121496D01*
X0175961Y0121501D01*
X0175911Y0121503D01*
X0174744Y0121503D01*
X0178794Y0120803D02*
X0178794Y0118703D01*
X0179844Y0118703D01*
X0179900Y0118705D01*
X0179955Y0118711D01*
X0180010Y0118720D01*
X0180064Y0118733D01*
X0180118Y0118750D01*
X0180169Y0118771D01*
X0180220Y0118795D01*
X0180269Y0118822D01*
X0180315Y0118853D01*
X0180360Y0118886D01*
X0180402Y0118923D01*
X0180441Y0118962D01*
X0180478Y0119004D01*
X0180511Y0119049D01*
X0180542Y0119095D01*
X0180569Y0119144D01*
X0180593Y0119195D01*
X0180614Y0119246D01*
X0180631Y0119300D01*
X0180644Y0119354D01*
X0180653Y0119409D01*
X0180659Y0119464D01*
X0180661Y0119520D01*
X0180659Y0119576D01*
X0180653Y0119631D01*
X0180644Y0119686D01*
X0180631Y0119740D01*
X0180614Y0119794D01*
X0180593Y0119845D01*
X0180569Y0119896D01*
X0180542Y0119945D01*
X0180511Y0119991D01*
X0180478Y0120036D01*
X0180441Y0120078D01*
X0180402Y0120117D01*
X0180360Y0120154D01*
X0180315Y0120187D01*
X0180269Y0120218D01*
X0180220Y0120245D01*
X0180169Y0120269D01*
X0180118Y0120290D01*
X0180064Y0120307D01*
X0180010Y0120320D01*
X0179955Y0120329D01*
X0179900Y0120335D01*
X0179844Y0120337D01*
X0179844Y0120336D02*
X0178794Y0120336D01*
X0178794Y0120803D02*
X0178796Y0120853D01*
X0178801Y0120903D01*
X0178810Y0120952D01*
X0178822Y0121000D01*
X0178838Y0121048D01*
X0178857Y0121094D01*
X0178880Y0121138D01*
X0178905Y0121181D01*
X0178934Y0121222D01*
X0178965Y0121261D01*
X0178999Y0121298D01*
X0179036Y0121332D01*
X0179075Y0121363D01*
X0179116Y0121392D01*
X0179159Y0121417D01*
X0179203Y0121440D01*
X0179249Y0121459D01*
X0179297Y0121475D01*
X0179345Y0121487D01*
X0179394Y0121496D01*
X0179444Y0121501D01*
X0179494Y0121503D01*
X0180427Y0121503D01*
X0183616Y0120570D02*
X0182683Y0118703D01*
X0183849Y0120570D02*
X0185016Y0120570D01*
X0183849Y0120569D02*
X0183782Y0120571D01*
X0183716Y0120577D01*
X0183650Y0120586D01*
X0183585Y0120599D01*
X0183520Y0120616D01*
X0183457Y0120637D01*
X0183395Y0120661D01*
X0183334Y0120689D01*
X0183275Y0120720D01*
X0183218Y0120754D01*
X0183163Y0120792D01*
X0183110Y0120833D01*
X0183060Y0120876D01*
X0183012Y0120923D01*
X0182967Y0120972D01*
X0182925Y0121023D01*
X0182886Y0121077D01*
X0182850Y0121133D01*
X0182817Y0121191D01*
X0182787Y0121251D01*
X0182762Y0121313D01*
X0182739Y0121375D01*
X0182720Y0121439D01*
X0182705Y0121504D01*
X0182694Y0121570D01*
X0182686Y0121636D01*
X0182682Y0121703D01*
X0182682Y0121769D01*
X0182686Y0121836D01*
X0182694Y0121902D01*
X0182705Y0121968D01*
X0182720Y0122033D01*
X0182739Y0122097D01*
X0182762Y0122159D01*
X0182787Y0122221D01*
X0182817Y0122281D01*
X0182850Y0122339D01*
X0182886Y0122395D01*
X0182925Y0122449D01*
X0182967Y0122500D01*
X0183012Y0122549D01*
X0183060Y0122596D01*
X0183110Y0122639D01*
X0183163Y0122680D01*
X0183218Y0122718D01*
X0183275Y0122752D01*
X0183334Y0122783D01*
X0183395Y0122811D01*
X0183457Y0122835D01*
X0183520Y0122856D01*
X0183585Y0122873D01*
X0183650Y0122886D01*
X0183716Y0122895D01*
X0183782Y0122901D01*
X0183849Y0122903D01*
X0185016Y0122903D01*
X0185016Y0118703D01*
X0185816Y0105493D02*
X0185816Y0103160D01*
X0185816Y0104326D02*
X0190016Y0104326D01*
X0189083Y0103160D01*
X0187683Y0100103D02*
X0185816Y0101036D01*
X0187683Y0099870D02*
X0187683Y0098703D01*
X0187682Y0099870D02*
X0187684Y0099937D01*
X0187690Y0100003D01*
X0187699Y0100069D01*
X0187712Y0100134D01*
X0187729Y0100199D01*
X0187750Y0100262D01*
X0187774Y0100324D01*
X0187802Y0100385D01*
X0187833Y0100444D01*
X0187867Y0100501D01*
X0187905Y0100556D01*
X0187946Y0100609D01*
X0187989Y0100659D01*
X0188036Y0100707D01*
X0188085Y0100752D01*
X0188136Y0100794D01*
X0188190Y0100833D01*
X0188246Y0100869D01*
X0188304Y0100902D01*
X0188364Y0100932D01*
X0188426Y0100957D01*
X0188488Y0100980D01*
X0188552Y0100999D01*
X0188617Y0101014D01*
X0188683Y0101025D01*
X0188749Y0101033D01*
X0188816Y0101037D01*
X0188882Y0101037D01*
X0188949Y0101033D01*
X0189015Y0101025D01*
X0189081Y0101014D01*
X0189146Y0100999D01*
X0189210Y0100980D01*
X0189272Y0100957D01*
X0189334Y0100932D01*
X0189394Y0100902D01*
X0189452Y0100869D01*
X0189508Y0100833D01*
X0189562Y0100794D01*
X0189613Y0100752D01*
X0189662Y0100707D01*
X0189709Y0100659D01*
X0189752Y0100609D01*
X0189793Y0100556D01*
X0189831Y0100501D01*
X0189865Y0100444D01*
X0189896Y0100385D01*
X0189924Y0100324D01*
X0189948Y0100262D01*
X0189969Y0100199D01*
X0189986Y0100134D01*
X0189999Y0100069D01*
X0190008Y0100003D01*
X0190014Y0099937D01*
X0190016Y0099870D01*
X0190016Y0098703D01*
X0185816Y0098703D01*
X0165016Y0088530D02*
X0165016Y0087363D01*
X0165016Y0088530D02*
X0165014Y0088597D01*
X0165008Y0088663D01*
X0164999Y0088729D01*
X0164986Y0088794D01*
X0164969Y0088859D01*
X0164948Y0088922D01*
X0164924Y0088984D01*
X0164896Y0089045D01*
X0164865Y0089104D01*
X0164831Y0089161D01*
X0164793Y0089216D01*
X0164752Y0089269D01*
X0164709Y0089319D01*
X0164662Y0089367D01*
X0164613Y0089412D01*
X0164562Y0089454D01*
X0164508Y0089493D01*
X0164452Y0089529D01*
X0164394Y0089562D01*
X0164334Y0089592D01*
X0164272Y0089617D01*
X0164210Y0089640D01*
X0164146Y0089659D01*
X0164081Y0089674D01*
X0164015Y0089685D01*
X0163949Y0089693D01*
X0163882Y0089697D01*
X0163816Y0089697D01*
X0163749Y0089693D01*
X0163683Y0089685D01*
X0163617Y0089674D01*
X0163552Y0089659D01*
X0163488Y0089640D01*
X0163426Y0089617D01*
X0163364Y0089592D01*
X0163304Y0089562D01*
X0163246Y0089529D01*
X0163190Y0089493D01*
X0163136Y0089454D01*
X0163085Y0089412D01*
X0163036Y0089367D01*
X0162989Y0089319D01*
X0162946Y0089269D01*
X0162905Y0089216D01*
X0162867Y0089161D01*
X0162833Y0089104D01*
X0162802Y0089045D01*
X0162774Y0088984D01*
X0162750Y0088922D01*
X0162729Y0088859D01*
X0162712Y0088794D01*
X0162699Y0088729D01*
X0162690Y0088663D01*
X0162684Y0088597D01*
X0162682Y0088530D01*
X0140016Y0099870D02*
X0140014Y0099814D01*
X0140009Y0099758D01*
X0139999Y0099702D01*
X0139987Y0099647D01*
X0139970Y0099593D01*
X0139951Y0099541D01*
X0139927Y0099489D01*
X0139901Y0099439D01*
X0139871Y0099392D01*
X0139838Y0099346D01*
X0139803Y0099302D01*
X0139764Y0099261D01*
X0139723Y0099222D01*
X0139680Y0099187D01*
X0139634Y0099154D01*
X0139586Y0099124D01*
X0139537Y0099097D01*
X0139486Y0099074D01*
X0139433Y0099054D01*
X0140016Y0099870D02*
X0140014Y0099926D01*
X0140009Y0099982D01*
X0139999Y0100038D01*
X0139987Y0100093D01*
X0139970Y0100147D01*
X0139951Y0100199D01*
X0139927Y0100251D01*
X0139901Y0100301D01*
X0139871Y0100348D01*
X0139839Y0100394D01*
X0139803Y0100438D01*
X0139764Y0100479D01*
X0139723Y0100518D01*
X0139680Y0100553D01*
X0139634Y0100586D01*
X0139586Y0100616D01*
X0139537Y0100643D01*
X0139486Y0100666D01*
X0139433Y0100686D01*
X0139083Y0100803D02*
X0136749Y0098936D01*
X0135816Y0099870D02*
X0135818Y0099926D01*
X0135823Y0099982D01*
X0135833Y0100038D01*
X0135845Y0100093D01*
X0135862Y0100147D01*
X0135881Y0100199D01*
X0135905Y0100251D01*
X0135931Y0100301D01*
X0135961Y0100348D01*
X0135993Y0100394D01*
X0136029Y0100438D01*
X0136068Y0100479D01*
X0136109Y0100518D01*
X0136152Y0100553D01*
X0136198Y0100586D01*
X0136246Y0100616D01*
X0136295Y0100643D01*
X0136346Y0100666D01*
X0136399Y0100686D01*
X0135816Y0099870D02*
X0135818Y0099814D01*
X0135823Y0099758D01*
X0135833Y0099702D01*
X0135845Y0099647D01*
X0135862Y0099593D01*
X0135881Y0099541D01*
X0135905Y0099489D01*
X0135931Y0099439D01*
X0135961Y0099392D01*
X0135993Y0099346D01*
X0136029Y0099302D01*
X0136068Y0099261D01*
X0136109Y0099222D01*
X0136152Y0099187D01*
X0136198Y0099154D01*
X0136246Y0099124D01*
X0136295Y0099097D01*
X0136346Y0099074D01*
X0136399Y0099054D01*
X0137916Y0101036D02*
X0138028Y0101034D01*
X0138140Y0101029D01*
X0138252Y0101020D01*
X0138363Y0101007D01*
X0138474Y0100991D01*
X0138585Y0100971D01*
X0138694Y0100947D01*
X0138803Y0100920D01*
X0138911Y0100890D01*
X0139018Y0100856D01*
X0139124Y0100819D01*
X0139228Y0100778D01*
X0139331Y0100734D01*
X0139433Y0100686D01*
X0139433Y0099053D02*
X0139331Y0099005D01*
X0139228Y0098961D01*
X0139124Y0098920D01*
X0139018Y0098883D01*
X0138911Y0098849D01*
X0138803Y0098819D01*
X0138694Y0098792D01*
X0138585Y0098768D01*
X0138474Y0098748D01*
X0138363Y0098732D01*
X0138252Y0098719D01*
X0138140Y0098710D01*
X0138028Y0098705D01*
X0137916Y0098703D01*
X0137916Y0101036D02*
X0137804Y0101034D01*
X0137692Y0101029D01*
X0137580Y0101020D01*
X0137469Y0101007D01*
X0137358Y0100991D01*
X0137247Y0100971D01*
X0137138Y0100947D01*
X0137029Y0100920D01*
X0136921Y0100890D01*
X0136814Y0100856D01*
X0136708Y0100819D01*
X0136604Y0100778D01*
X0136501Y0100734D01*
X0136399Y0100686D01*
X0136399Y0099053D02*
X0136501Y0099005D01*
X0136604Y0098961D01*
X0136708Y0098920D01*
X0136814Y0098883D01*
X0136921Y0098849D01*
X0137029Y0098819D01*
X0137138Y0098792D01*
X0137247Y0098768D01*
X0137358Y0098748D01*
X0137469Y0098732D01*
X0137580Y0098719D01*
X0137692Y0098710D01*
X0137804Y0098705D01*
X0137916Y0098703D01*
X0136049Y0102903D02*
X0136049Y0103136D01*
X0135816Y0103136D01*
X0135816Y0102903D01*
X0136049Y0102903D01*
X0135816Y0105003D02*
X0135816Y0107336D01*
X0135816Y0106170D02*
X0140016Y0106170D01*
X0139083Y0105003D01*
X0138616Y0109586D02*
X0136516Y0109586D01*
X0136466Y0109588D01*
X0136416Y0109593D01*
X0136367Y0109602D01*
X0136319Y0109614D01*
X0136271Y0109630D01*
X0136225Y0109649D01*
X0136181Y0109672D01*
X0136138Y0109697D01*
X0136097Y0109726D01*
X0136058Y0109757D01*
X0136021Y0109791D01*
X0135987Y0109828D01*
X0135956Y0109867D01*
X0135927Y0109908D01*
X0135902Y0109951D01*
X0135879Y0109995D01*
X0135860Y0110041D01*
X0135844Y0110089D01*
X0135832Y0110137D01*
X0135823Y0110186D01*
X0135818Y0110236D01*
X0135816Y0110286D01*
X0135816Y0111453D01*
X0138616Y0111453D01*
X0138149Y0113866D02*
X0138149Y0115733D01*
X0140016Y0115733D02*
X0140016Y0113866D01*
X0135816Y0113866D01*
X0135733Y0127453D02*
X0135733Y0131653D01*
X0136899Y0130720D01*
X0138802Y0131653D02*
X0139735Y0131653D01*
X0139796Y0131651D01*
X0139857Y0131645D01*
X0139917Y0131635D01*
X0139976Y0131621D01*
X0140035Y0131603D01*
X0140092Y0131582D01*
X0140148Y0131557D01*
X0140202Y0131528D01*
X0140253Y0131496D01*
X0140303Y0131460D01*
X0140350Y0131421D01*
X0140395Y0131380D01*
X0140436Y0131335D01*
X0140475Y0131288D01*
X0140511Y0131238D01*
X0140543Y0131186D01*
X0140572Y0131133D01*
X0140597Y0131077D01*
X0140618Y0131020D01*
X0140636Y0130961D01*
X0140650Y0130902D01*
X0140660Y0130842D01*
X0140666Y0130781D01*
X0140668Y0130720D01*
X0140669Y0130720D02*
X0140669Y0128386D01*
X0140668Y0128386D02*
X0140666Y0128327D01*
X0140661Y0128269D01*
X0140651Y0128211D01*
X0140639Y0128154D01*
X0140622Y0128098D01*
X0140602Y0128043D01*
X0140579Y0127989D01*
X0140553Y0127937D01*
X0140523Y0127886D01*
X0140490Y0127838D01*
X0140454Y0127791D01*
X0140415Y0127747D01*
X0140374Y0127706D01*
X0140330Y0127667D01*
X0140283Y0127631D01*
X0140235Y0127598D01*
X0140184Y0127568D01*
X0140132Y0127542D01*
X0140078Y0127519D01*
X0140023Y0127499D01*
X0139967Y0127482D01*
X0139910Y0127470D01*
X0139852Y0127460D01*
X0139794Y0127455D01*
X0139735Y0127453D01*
X0138802Y0127453D01*
X0136899Y0127453D02*
X0134566Y0127453D01*
X0111049Y0129953D02*
X0111049Y0134153D01*
X0109883Y0134153D01*
X0109816Y0134151D01*
X0109750Y0134145D01*
X0109684Y0134136D01*
X0109619Y0134123D01*
X0109554Y0134106D01*
X0109491Y0134085D01*
X0109429Y0134061D01*
X0109368Y0134033D01*
X0109309Y0134002D01*
X0109252Y0133968D01*
X0109197Y0133930D01*
X0109144Y0133889D01*
X0109094Y0133846D01*
X0109046Y0133799D01*
X0109001Y0133750D01*
X0108959Y0133699D01*
X0108920Y0133645D01*
X0108884Y0133589D01*
X0108851Y0133531D01*
X0108821Y0133471D01*
X0108796Y0133409D01*
X0108773Y0133347D01*
X0108754Y0133283D01*
X0108739Y0133218D01*
X0108728Y0133152D01*
X0108720Y0133086D01*
X0108716Y0133019D01*
X0108716Y0132953D01*
X0108720Y0132886D01*
X0108728Y0132820D01*
X0108739Y0132754D01*
X0108754Y0132689D01*
X0108773Y0132625D01*
X0108796Y0132563D01*
X0108821Y0132501D01*
X0108851Y0132441D01*
X0108884Y0132383D01*
X0108920Y0132327D01*
X0108959Y0132273D01*
X0109001Y0132222D01*
X0109046Y0132173D01*
X0109094Y0132126D01*
X0109144Y0132083D01*
X0109197Y0132042D01*
X0109252Y0132004D01*
X0109309Y0131970D01*
X0109368Y0131939D01*
X0109429Y0131911D01*
X0109491Y0131887D01*
X0109554Y0131866D01*
X0109619Y0131849D01*
X0109684Y0131836D01*
X0109750Y0131827D01*
X0109816Y0131821D01*
X0109883Y0131819D01*
X0109883Y0131820D02*
X0111049Y0131820D01*
X0106366Y0132403D02*
X0105083Y0131703D01*
X0105549Y0129953D02*
X0105635Y0129955D01*
X0105722Y0129961D01*
X0105808Y0129970D01*
X0105893Y0129983D01*
X0105978Y0130000D01*
X0106062Y0130021D01*
X0106145Y0130045D01*
X0106227Y0130073D01*
X0106307Y0130105D01*
X0106387Y0130140D01*
X0106464Y0130178D01*
X0106540Y0130220D01*
X0106614Y0130265D01*
X0106685Y0130313D01*
X0106755Y0130365D01*
X0106822Y0130419D01*
X0106887Y0130476D01*
X0106949Y0130536D01*
X0105083Y0131703D02*
X0105034Y0131672D01*
X0104987Y0131638D01*
X0104942Y0131601D01*
X0104899Y0131562D01*
X0104859Y0131520D01*
X0104822Y0131476D01*
X0104787Y0131430D01*
X0104756Y0131381D01*
X0104727Y0131331D01*
X0104701Y0131279D01*
X0104679Y0131226D01*
X0104660Y0131171D01*
X0104644Y0131115D01*
X0104632Y0131059D01*
X0104623Y0131002D01*
X0104618Y0130944D01*
X0104616Y0130886D01*
X0104618Y0130827D01*
X0104623Y0130769D01*
X0104633Y0130711D01*
X0104645Y0130654D01*
X0104662Y0130598D01*
X0104682Y0130543D01*
X0104705Y0130489D01*
X0104731Y0130437D01*
X0104761Y0130386D01*
X0104794Y0130338D01*
X0104830Y0130291D01*
X0104869Y0130247D01*
X0104910Y0130206D01*
X0104954Y0130167D01*
X0105001Y0130131D01*
X0105049Y0130098D01*
X0105100Y0130068D01*
X0105152Y0130042D01*
X0105206Y0130019D01*
X0105261Y0129999D01*
X0105317Y0129982D01*
X0105374Y0129970D01*
X0105432Y0129960D01*
X0105490Y0129955D01*
X0105549Y0129953D01*
X0104849Y0133803D02*
X0104914Y0133850D01*
X0104982Y0133893D01*
X0105051Y0133934D01*
X0105123Y0133971D01*
X0105196Y0134005D01*
X0105270Y0134036D01*
X0105346Y0134063D01*
X0105422Y0134087D01*
X0105500Y0134107D01*
X0105579Y0134124D01*
X0105658Y0134136D01*
X0105738Y0134146D01*
X0105819Y0134151D01*
X0105899Y0134153D01*
X0105958Y0134151D01*
X0106016Y0134146D01*
X0106074Y0134136D01*
X0106131Y0134124D01*
X0106187Y0134107D01*
X0106242Y0134087D01*
X0106296Y0134064D01*
X0106348Y0134038D01*
X0106399Y0134008D01*
X0106447Y0133975D01*
X0106494Y0133939D01*
X0106538Y0133900D01*
X0106579Y0133859D01*
X0106618Y0133815D01*
X0106654Y0133768D01*
X0106687Y0133720D01*
X0106717Y0133669D01*
X0106743Y0133617D01*
X0106766Y0133563D01*
X0106786Y0133508D01*
X0106803Y0133452D01*
X0106815Y0133395D01*
X0106825Y0133337D01*
X0106830Y0133279D01*
X0106832Y0133220D01*
X0106833Y0133220D02*
X0106831Y0133162D01*
X0106826Y0133104D01*
X0106817Y0133047D01*
X0106805Y0132991D01*
X0106789Y0132935D01*
X0106770Y0132880D01*
X0106748Y0132827D01*
X0106722Y0132775D01*
X0106693Y0132725D01*
X0106662Y0132676D01*
X0106627Y0132630D01*
X0106590Y0132586D01*
X0106550Y0132544D01*
X0106507Y0132505D01*
X0106462Y0132468D01*
X0106415Y0132434D01*
X0106366Y0132403D01*
X0102699Y0134153D02*
X0101766Y0129953D01*
X0100833Y0132753D01*
X0099899Y0129953D01*
X0098966Y0134153D01*
X0096899Y0133220D02*
X0095733Y0134153D01*
X0095733Y0129953D01*
X0096899Y0129953D02*
X0094566Y0129953D01*
X0085016Y0161203D02*
X0080816Y0161203D01*
X0082683Y0161203D02*
X0082683Y0162370D01*
X0082683Y0162603D02*
X0080816Y0163536D01*
X0080816Y0166126D02*
X0080818Y0166210D01*
X0080824Y0166293D01*
X0080833Y0166377D01*
X0080846Y0166459D01*
X0080863Y0166541D01*
X0080883Y0166623D01*
X0080907Y0166703D01*
X0080935Y0166782D01*
X0080966Y0166860D01*
X0081001Y0166936D01*
X0081039Y0167011D01*
X0081080Y0167084D01*
X0081125Y0167155D01*
X0081173Y0167223D01*
X0081223Y0167290D01*
X0081277Y0167354D01*
X0081334Y0167416D01*
X0081393Y0167475D01*
X0081455Y0167532D01*
X0081519Y0167586D01*
X0081586Y0167636D01*
X0081654Y0167684D01*
X0081725Y0167729D01*
X0081798Y0167770D01*
X0081873Y0167808D01*
X0081949Y0167843D01*
X0082027Y0167874D01*
X0082106Y0167902D01*
X0082186Y0167926D01*
X0082268Y0167946D01*
X0082350Y0167963D01*
X0082432Y0167976D01*
X0082516Y0167985D01*
X0082599Y0167991D01*
X0082683Y0167993D01*
X0083849Y0167993D01*
X0082683Y0167993D02*
X0082683Y0166593D01*
X0082685Y0166534D01*
X0082690Y0166476D01*
X0082700Y0166418D01*
X0082712Y0166361D01*
X0082729Y0166305D01*
X0082749Y0166250D01*
X0082772Y0166196D01*
X0082798Y0166144D01*
X0082828Y0166093D01*
X0082861Y0166045D01*
X0082897Y0165998D01*
X0082936Y0165954D01*
X0082977Y0165913D01*
X0083021Y0165874D01*
X0083068Y0165838D01*
X0083116Y0165805D01*
X0083167Y0165775D01*
X0083219Y0165749D01*
X0083273Y0165726D01*
X0083328Y0165706D01*
X0083384Y0165689D01*
X0083441Y0165677D01*
X0083499Y0165667D01*
X0083557Y0165662D01*
X0083616Y0165660D01*
X0083849Y0165660D01*
X0083849Y0165659D02*
X0083916Y0165661D01*
X0083982Y0165667D01*
X0084048Y0165676D01*
X0084113Y0165689D01*
X0084178Y0165706D01*
X0084241Y0165727D01*
X0084303Y0165751D01*
X0084364Y0165779D01*
X0084423Y0165810D01*
X0084480Y0165844D01*
X0084535Y0165882D01*
X0084588Y0165923D01*
X0084638Y0165966D01*
X0084686Y0166013D01*
X0084731Y0166062D01*
X0084773Y0166113D01*
X0084812Y0166167D01*
X0084848Y0166223D01*
X0084881Y0166281D01*
X0084911Y0166341D01*
X0084936Y0166403D01*
X0084959Y0166465D01*
X0084978Y0166529D01*
X0084993Y0166594D01*
X0085004Y0166660D01*
X0085012Y0166726D01*
X0085016Y0166793D01*
X0085016Y0166859D01*
X0085012Y0166926D01*
X0085004Y0166992D01*
X0084993Y0167058D01*
X0084978Y0167123D01*
X0084959Y0167187D01*
X0084936Y0167249D01*
X0084911Y0167311D01*
X0084881Y0167371D01*
X0084848Y0167429D01*
X0084812Y0167485D01*
X0084773Y0167539D01*
X0084731Y0167590D01*
X0084686Y0167639D01*
X0084638Y0167686D01*
X0084588Y0167729D01*
X0084535Y0167770D01*
X0084480Y0167808D01*
X0084423Y0167842D01*
X0084364Y0167873D01*
X0084303Y0167901D01*
X0084241Y0167925D01*
X0084178Y0167946D01*
X0084113Y0167963D01*
X0084048Y0167976D01*
X0083982Y0167985D01*
X0083916Y0167991D01*
X0083849Y0167993D01*
X0085016Y0162370D02*
X0085014Y0162437D01*
X0085008Y0162503D01*
X0084999Y0162569D01*
X0084986Y0162634D01*
X0084969Y0162699D01*
X0084948Y0162762D01*
X0084924Y0162824D01*
X0084896Y0162885D01*
X0084865Y0162944D01*
X0084831Y0163001D01*
X0084793Y0163056D01*
X0084752Y0163109D01*
X0084709Y0163159D01*
X0084662Y0163207D01*
X0084613Y0163252D01*
X0084562Y0163294D01*
X0084508Y0163333D01*
X0084452Y0163369D01*
X0084394Y0163402D01*
X0084334Y0163432D01*
X0084272Y0163457D01*
X0084210Y0163480D01*
X0084146Y0163499D01*
X0084081Y0163514D01*
X0084015Y0163525D01*
X0083949Y0163533D01*
X0083882Y0163537D01*
X0083816Y0163537D01*
X0083749Y0163533D01*
X0083683Y0163525D01*
X0083617Y0163514D01*
X0083552Y0163499D01*
X0083488Y0163480D01*
X0083426Y0163457D01*
X0083364Y0163432D01*
X0083304Y0163402D01*
X0083246Y0163369D01*
X0083190Y0163333D01*
X0083136Y0163294D01*
X0083085Y0163252D01*
X0083036Y0163207D01*
X0082989Y0163159D01*
X0082946Y0163109D01*
X0082905Y0163056D01*
X0082867Y0163001D01*
X0082833Y0162944D01*
X0082802Y0162885D01*
X0082774Y0162824D01*
X0082750Y0162762D01*
X0082729Y0162699D01*
X0082712Y0162634D01*
X0082699Y0162569D01*
X0082690Y0162503D01*
X0082684Y0162437D01*
X0082682Y0162370D01*
X0085016Y0162370D02*
X0085016Y0161203D01*
X0076266Y0160886D02*
X0076266Y0163220D01*
X0076264Y0163281D01*
X0076258Y0163342D01*
X0076248Y0163402D01*
X0076234Y0163461D01*
X0076216Y0163520D01*
X0076195Y0163577D01*
X0076170Y0163633D01*
X0076141Y0163686D01*
X0076109Y0163738D01*
X0076073Y0163788D01*
X0076034Y0163835D01*
X0075993Y0163880D01*
X0075948Y0163921D01*
X0075901Y0163960D01*
X0075851Y0163996D01*
X0075800Y0164028D01*
X0075746Y0164057D01*
X0075690Y0164082D01*
X0075633Y0164103D01*
X0075574Y0164121D01*
X0075515Y0164135D01*
X0075455Y0164145D01*
X0075394Y0164151D01*
X0075333Y0164153D01*
X0073933Y0164153D01*
X0073933Y0162286D02*
X0073933Y0159953D01*
X0075333Y0159953D01*
X0075392Y0159955D01*
X0075450Y0159960D01*
X0075508Y0159970D01*
X0075565Y0159982D01*
X0075621Y0159999D01*
X0075676Y0160019D01*
X0075730Y0160042D01*
X0075782Y0160068D01*
X0075833Y0160098D01*
X0075881Y0160131D01*
X0075928Y0160167D01*
X0075972Y0160206D01*
X0076013Y0160247D01*
X0076052Y0160291D01*
X0076088Y0160338D01*
X0076121Y0160386D01*
X0076151Y0160437D01*
X0076177Y0160489D01*
X0076200Y0160543D01*
X0076220Y0160598D01*
X0076237Y0160654D01*
X0076249Y0160711D01*
X0076259Y0160769D01*
X0076264Y0160827D01*
X0076266Y0160886D01*
X0074633Y0162286D02*
X0073933Y0162286D01*
X0071466Y0164153D02*
X0069133Y0159953D01*
X0069133Y0164153D01*
X0071466Y0164153D02*
X0071466Y0159953D01*
X0066666Y0159953D02*
X0066666Y0164153D01*
X0065499Y0164153D01*
X0065431Y0164151D01*
X0065364Y0164145D01*
X0065296Y0164135D01*
X0065230Y0164122D01*
X0065164Y0164104D01*
X0065100Y0164083D01*
X0065037Y0164058D01*
X0064975Y0164029D01*
X0064916Y0163997D01*
X0064858Y0163961D01*
X0064802Y0163922D01*
X0064749Y0163880D01*
X0064698Y0163835D01*
X0064650Y0163787D01*
X0064605Y0163736D01*
X0064563Y0163683D01*
X0064524Y0163627D01*
X0064488Y0163570D01*
X0064456Y0163510D01*
X0064427Y0163448D01*
X0064402Y0163385D01*
X0064381Y0163321D01*
X0064363Y0163255D01*
X0064350Y0163189D01*
X0064340Y0163121D01*
X0064334Y0163054D01*
X0064332Y0162986D01*
X0064333Y0162986D02*
X0064333Y0161120D01*
X0064332Y0161120D02*
X0064334Y0161055D01*
X0064339Y0160989D01*
X0064348Y0160925D01*
X0064361Y0160860D01*
X0064378Y0160797D01*
X0064397Y0160735D01*
X0064421Y0160673D01*
X0064448Y0160614D01*
X0064478Y0160555D01*
X0064511Y0160499D01*
X0064547Y0160445D01*
X0064587Y0160392D01*
X0064629Y0160342D01*
X0064674Y0160295D01*
X0064721Y0160250D01*
X0064771Y0160208D01*
X0064824Y0160168D01*
X0064878Y0160132D01*
X0064935Y0160099D01*
X0064993Y0160069D01*
X0065052Y0160042D01*
X0065114Y0160018D01*
X0065176Y0159999D01*
X0065239Y0159982D01*
X0065304Y0159969D01*
X0065368Y0159960D01*
X0065434Y0159955D01*
X0065499Y0159953D01*
X0066666Y0159953D01*
X0064253Y0183703D02*
X0064253Y0187903D01*
X0062386Y0187903D01*
X0062386Y0186036D02*
X0064253Y0186036D01*
X0066583Y0186736D02*
X0066583Y0184870D01*
X0066582Y0184870D02*
X0066584Y0184803D01*
X0066590Y0184737D01*
X0066599Y0184671D01*
X0066612Y0184606D01*
X0066629Y0184541D01*
X0066650Y0184478D01*
X0066674Y0184416D01*
X0066702Y0184355D01*
X0066733Y0184296D01*
X0066767Y0184239D01*
X0066805Y0184184D01*
X0066846Y0184131D01*
X0066889Y0184081D01*
X0066936Y0184033D01*
X0066985Y0183988D01*
X0067036Y0183946D01*
X0067090Y0183907D01*
X0067146Y0183871D01*
X0067204Y0183838D01*
X0067264Y0183808D01*
X0067326Y0183783D01*
X0067388Y0183760D01*
X0067452Y0183741D01*
X0067517Y0183726D01*
X0067583Y0183715D01*
X0067649Y0183707D01*
X0067716Y0183703D01*
X0067782Y0183703D01*
X0067849Y0183707D01*
X0067915Y0183715D01*
X0067981Y0183726D01*
X0068046Y0183741D01*
X0068110Y0183760D01*
X0068172Y0183783D01*
X0068234Y0183808D01*
X0068294Y0183838D01*
X0068352Y0183871D01*
X0068408Y0183907D01*
X0068462Y0183946D01*
X0068513Y0183988D01*
X0068562Y0184033D01*
X0068609Y0184081D01*
X0068652Y0184131D01*
X0068693Y0184184D01*
X0068731Y0184239D01*
X0068765Y0184296D01*
X0068796Y0184355D01*
X0068824Y0184416D01*
X0068848Y0184478D01*
X0068869Y0184541D01*
X0068886Y0184606D01*
X0068899Y0184671D01*
X0068908Y0184737D01*
X0068914Y0184803D01*
X0068916Y0184870D01*
X0068916Y0186736D01*
X0068914Y0186803D01*
X0068908Y0186869D01*
X0068899Y0186935D01*
X0068886Y0187000D01*
X0068869Y0187065D01*
X0068848Y0187128D01*
X0068824Y0187190D01*
X0068796Y0187251D01*
X0068765Y0187310D01*
X0068731Y0187367D01*
X0068693Y0187422D01*
X0068652Y0187475D01*
X0068609Y0187525D01*
X0068562Y0187573D01*
X0068513Y0187618D01*
X0068462Y0187660D01*
X0068408Y0187699D01*
X0068352Y0187735D01*
X0068294Y0187768D01*
X0068234Y0187798D01*
X0068172Y0187823D01*
X0068110Y0187846D01*
X0068046Y0187865D01*
X0067981Y0187880D01*
X0067915Y0187891D01*
X0067849Y0187899D01*
X0067782Y0187903D01*
X0067716Y0187903D01*
X0067649Y0187899D01*
X0067583Y0187891D01*
X0067517Y0187880D01*
X0067452Y0187865D01*
X0067388Y0187846D01*
X0067326Y0187823D01*
X0067264Y0187798D01*
X0067204Y0187768D01*
X0067146Y0187735D01*
X0067090Y0187699D01*
X0067036Y0187660D01*
X0066985Y0187618D01*
X0066936Y0187573D01*
X0066889Y0187525D01*
X0066846Y0187475D01*
X0066805Y0187422D01*
X0066767Y0187367D01*
X0066733Y0187310D01*
X0066702Y0187251D01*
X0066674Y0187190D01*
X0066650Y0187128D01*
X0066629Y0187065D01*
X0066612Y0187000D01*
X0066599Y0186935D01*
X0066590Y0186869D01*
X0066584Y0186803D01*
X0066582Y0186736D01*
X0070933Y0186153D02*
X0070933Y0185920D01*
X0071166Y0185920D01*
X0071166Y0186153D01*
X0070933Y0186153D01*
X0070933Y0184286D02*
X0070933Y0184053D01*
X0071166Y0184053D01*
X0071166Y0184286D01*
X0070933Y0184286D01*
X0074349Y0183703D02*
X0072949Y0187903D01*
X0075749Y0187903D02*
X0074349Y0183703D01*
X0078616Y0186036D02*
X0079549Y0186036D01*
X0078616Y0186037D02*
X0078556Y0186039D01*
X0078497Y0186045D01*
X0078438Y0186054D01*
X0078379Y0186068D01*
X0078322Y0186085D01*
X0078266Y0186105D01*
X0078211Y0186129D01*
X0078158Y0186157D01*
X0078107Y0186188D01*
X0078058Y0186222D01*
X0078011Y0186260D01*
X0077967Y0186300D01*
X0077925Y0186343D01*
X0077887Y0186388D01*
X0077851Y0186436D01*
X0077818Y0186486D01*
X0077789Y0186538D01*
X0077763Y0186592D01*
X0077740Y0186648D01*
X0077722Y0186705D01*
X0077706Y0186762D01*
X0077695Y0186821D01*
X0077687Y0186880D01*
X0077683Y0186940D01*
X0077683Y0187000D01*
X0077687Y0187060D01*
X0077695Y0187119D01*
X0077706Y0187178D01*
X0077722Y0187235D01*
X0077740Y0187292D01*
X0077763Y0187348D01*
X0077789Y0187402D01*
X0077818Y0187454D01*
X0077851Y0187504D01*
X0077887Y0187552D01*
X0077925Y0187597D01*
X0077967Y0187640D01*
X0078011Y0187680D01*
X0078058Y0187718D01*
X0078107Y0187752D01*
X0078158Y0187783D01*
X0078211Y0187811D01*
X0078266Y0187835D01*
X0078322Y0187855D01*
X0078379Y0187872D01*
X0078438Y0187886D01*
X0078497Y0187895D01*
X0078556Y0187901D01*
X0078616Y0187903D01*
X0080016Y0187903D01*
X0079783Y0192136D02*
X0077916Y0194470D01*
X0078033Y0194820D02*
X0078053Y0194873D01*
X0078076Y0194924D01*
X0078103Y0194973D01*
X0078133Y0195021D01*
X0078166Y0195067D01*
X0078201Y0195110D01*
X0078240Y0195151D01*
X0078281Y0195190D01*
X0078325Y0195226D01*
X0078371Y0195258D01*
X0078418Y0195288D01*
X0078468Y0195314D01*
X0078520Y0195338D01*
X0078572Y0195357D01*
X0078626Y0195374D01*
X0078681Y0195386D01*
X0078737Y0195396D01*
X0078793Y0195401D01*
X0078849Y0195403D01*
X0078905Y0195401D01*
X0078961Y0195396D01*
X0079017Y0195386D01*
X0079072Y0195374D01*
X0079126Y0195357D01*
X0079178Y0195338D01*
X0079230Y0195314D01*
X0079280Y0195288D01*
X0079327Y0195258D01*
X0079373Y0195225D01*
X0079417Y0195190D01*
X0079458Y0195151D01*
X0079497Y0195110D01*
X0079532Y0195067D01*
X0079565Y0195021D01*
X0079595Y0194973D01*
X0079622Y0194924D01*
X0079645Y0194873D01*
X0079665Y0194820D01*
X0078033Y0194820D02*
X0077985Y0194718D01*
X0077941Y0194615D01*
X0077900Y0194511D01*
X0077863Y0194405D01*
X0077829Y0194298D01*
X0077799Y0194190D01*
X0077772Y0194081D01*
X0077748Y0193972D01*
X0077728Y0193861D01*
X0077712Y0193750D01*
X0077699Y0193639D01*
X0077690Y0193527D01*
X0077685Y0193415D01*
X0077683Y0193303D01*
X0080016Y0193303D02*
X0080014Y0193415D01*
X0080009Y0193527D01*
X0080000Y0193639D01*
X0079987Y0193750D01*
X0079971Y0193861D01*
X0079951Y0193972D01*
X0079927Y0194081D01*
X0079900Y0194190D01*
X0079870Y0194298D01*
X0079836Y0194405D01*
X0079799Y0194511D01*
X0079758Y0194615D01*
X0079714Y0194718D01*
X0079666Y0194820D01*
X0077683Y0193303D02*
X0077685Y0193191D01*
X0077690Y0193079D01*
X0077699Y0192967D01*
X0077712Y0192856D01*
X0077728Y0192745D01*
X0077748Y0192634D01*
X0077772Y0192525D01*
X0077799Y0192416D01*
X0077829Y0192308D01*
X0077863Y0192201D01*
X0077900Y0192095D01*
X0077941Y0191991D01*
X0077985Y0191888D01*
X0078033Y0191786D01*
X0078849Y0191203D02*
X0078905Y0191205D01*
X0078961Y0191210D01*
X0079017Y0191220D01*
X0079072Y0191232D01*
X0079126Y0191249D01*
X0079178Y0191268D01*
X0079230Y0191292D01*
X0079280Y0191318D01*
X0079327Y0191348D01*
X0079373Y0191380D01*
X0079417Y0191416D01*
X0079458Y0191455D01*
X0079497Y0191496D01*
X0079532Y0191539D01*
X0079565Y0191585D01*
X0079595Y0191633D01*
X0079622Y0191682D01*
X0079645Y0191733D01*
X0079665Y0191786D01*
X0078849Y0191203D02*
X0078793Y0191205D01*
X0078737Y0191210D01*
X0078681Y0191220D01*
X0078626Y0191232D01*
X0078572Y0191249D01*
X0078520Y0191268D01*
X0078468Y0191292D01*
X0078418Y0191318D01*
X0078371Y0191348D01*
X0078325Y0191380D01*
X0078281Y0191416D01*
X0078240Y0191455D01*
X0078201Y0191496D01*
X0078166Y0191539D01*
X0078133Y0191585D01*
X0078103Y0191633D01*
X0078076Y0191682D01*
X0078053Y0191733D01*
X0078033Y0191786D01*
X0079666Y0191786D02*
X0079714Y0191888D01*
X0079758Y0191991D01*
X0079799Y0192095D01*
X0079836Y0192201D01*
X0079870Y0192308D01*
X0079900Y0192416D01*
X0079927Y0192525D01*
X0079951Y0192634D01*
X0079971Y0192745D01*
X0079987Y0192856D01*
X0080000Y0192967D01*
X0080009Y0193079D01*
X0080014Y0193191D01*
X0080016Y0193303D01*
X0075749Y0195403D02*
X0074349Y0191203D01*
X0072949Y0195403D01*
X0071166Y0193653D02*
X0070933Y0193653D01*
X0070933Y0193420D01*
X0071166Y0193420D01*
X0071166Y0193653D01*
X0071166Y0191786D02*
X0070933Y0191786D01*
X0070933Y0191553D01*
X0071166Y0191553D01*
X0071166Y0191786D01*
X0068916Y0192370D02*
X0068916Y0194236D01*
X0068914Y0194303D01*
X0068908Y0194369D01*
X0068899Y0194435D01*
X0068886Y0194500D01*
X0068869Y0194565D01*
X0068848Y0194628D01*
X0068824Y0194690D01*
X0068796Y0194751D01*
X0068765Y0194810D01*
X0068731Y0194867D01*
X0068693Y0194922D01*
X0068652Y0194975D01*
X0068609Y0195025D01*
X0068562Y0195073D01*
X0068513Y0195118D01*
X0068462Y0195160D01*
X0068408Y0195199D01*
X0068352Y0195235D01*
X0068294Y0195268D01*
X0068234Y0195298D01*
X0068172Y0195323D01*
X0068110Y0195346D01*
X0068046Y0195365D01*
X0067981Y0195380D01*
X0067915Y0195391D01*
X0067849Y0195399D01*
X0067782Y0195403D01*
X0067716Y0195403D01*
X0067649Y0195399D01*
X0067583Y0195391D01*
X0067517Y0195380D01*
X0067452Y0195365D01*
X0067388Y0195346D01*
X0067326Y0195323D01*
X0067264Y0195298D01*
X0067204Y0195268D01*
X0067146Y0195235D01*
X0067090Y0195199D01*
X0067036Y0195160D01*
X0066985Y0195118D01*
X0066936Y0195073D01*
X0066889Y0195025D01*
X0066846Y0194975D01*
X0066805Y0194922D01*
X0066767Y0194867D01*
X0066733Y0194810D01*
X0066702Y0194751D01*
X0066674Y0194690D01*
X0066650Y0194628D01*
X0066629Y0194565D01*
X0066612Y0194500D01*
X0066599Y0194435D01*
X0066590Y0194369D01*
X0066584Y0194303D01*
X0066582Y0194236D01*
X0066583Y0194236D02*
X0066583Y0192370D01*
X0066582Y0192370D02*
X0066584Y0192303D01*
X0066590Y0192237D01*
X0066599Y0192171D01*
X0066612Y0192106D01*
X0066629Y0192041D01*
X0066650Y0191978D01*
X0066674Y0191916D01*
X0066702Y0191855D01*
X0066733Y0191796D01*
X0066767Y0191739D01*
X0066805Y0191684D01*
X0066846Y0191631D01*
X0066889Y0191581D01*
X0066936Y0191533D01*
X0066985Y0191488D01*
X0067036Y0191446D01*
X0067090Y0191407D01*
X0067146Y0191371D01*
X0067204Y0191338D01*
X0067264Y0191308D01*
X0067326Y0191283D01*
X0067388Y0191260D01*
X0067452Y0191241D01*
X0067517Y0191226D01*
X0067583Y0191215D01*
X0067649Y0191207D01*
X0067716Y0191203D01*
X0067782Y0191203D01*
X0067849Y0191207D01*
X0067915Y0191215D01*
X0067981Y0191226D01*
X0068046Y0191241D01*
X0068110Y0191260D01*
X0068172Y0191283D01*
X0068234Y0191308D01*
X0068294Y0191338D01*
X0068352Y0191371D01*
X0068408Y0191407D01*
X0068462Y0191446D01*
X0068513Y0191488D01*
X0068562Y0191533D01*
X0068609Y0191581D01*
X0068652Y0191631D01*
X0068693Y0191684D01*
X0068731Y0191739D01*
X0068765Y0191796D01*
X0068796Y0191855D01*
X0068824Y0191916D01*
X0068848Y0191978D01*
X0068869Y0192041D01*
X0068886Y0192106D01*
X0068899Y0192171D01*
X0068908Y0192237D01*
X0068914Y0192303D01*
X0068916Y0192370D01*
X0064266Y0191203D02*
X0064266Y0195403D01*
X0061933Y0191203D01*
X0061933Y0195403D01*
X0060353Y0187903D02*
X0058486Y0187903D01*
X0058486Y0186036D02*
X0060353Y0186036D01*
X0060353Y0187903D02*
X0060353Y0183703D01*
X0078849Y0183703D02*
X0080016Y0183703D01*
X0078849Y0183703D02*
X0078782Y0183705D01*
X0078716Y0183711D01*
X0078650Y0183720D01*
X0078585Y0183733D01*
X0078520Y0183750D01*
X0078457Y0183771D01*
X0078395Y0183795D01*
X0078334Y0183823D01*
X0078275Y0183854D01*
X0078218Y0183888D01*
X0078163Y0183926D01*
X0078110Y0183967D01*
X0078060Y0184010D01*
X0078012Y0184057D01*
X0077967Y0184106D01*
X0077925Y0184157D01*
X0077886Y0184211D01*
X0077850Y0184267D01*
X0077817Y0184325D01*
X0077787Y0184385D01*
X0077762Y0184447D01*
X0077739Y0184509D01*
X0077720Y0184573D01*
X0077705Y0184638D01*
X0077694Y0184704D01*
X0077686Y0184770D01*
X0077682Y0184837D01*
X0077682Y0184903D01*
X0077686Y0184970D01*
X0077694Y0185036D01*
X0077705Y0185102D01*
X0077720Y0185167D01*
X0077739Y0185231D01*
X0077762Y0185293D01*
X0077787Y0185355D01*
X0077817Y0185415D01*
X0077850Y0185473D01*
X0077886Y0185529D01*
X0077925Y0185583D01*
X0077967Y0185634D01*
X0078012Y0185683D01*
X0078060Y0185730D01*
X0078110Y0185773D01*
X0078163Y0185814D01*
X0078218Y0185852D01*
X0078275Y0185886D01*
X0078334Y0185917D01*
X0078395Y0185945D01*
X0078457Y0185969D01*
X0078520Y0185990D01*
X0078585Y0186007D01*
X0078650Y0186020D01*
X0078716Y0186029D01*
X0078782Y0186035D01*
X0078849Y0186037D01*
X0092177Y0189953D02*
X0094510Y0189953D01*
X0093343Y0189953D02*
X0093343Y0194153D01*
X0094510Y0193220D01*
X0096433Y0192986D02*
X0096433Y0191120D01*
X0096899Y0190886D02*
X0095966Y0189953D01*
X0096432Y0191120D02*
X0096434Y0191053D01*
X0096440Y0190987D01*
X0096449Y0190921D01*
X0096462Y0190856D01*
X0096479Y0190791D01*
X0096500Y0190728D01*
X0096524Y0190666D01*
X0096552Y0190605D01*
X0096583Y0190546D01*
X0096617Y0190489D01*
X0096655Y0190434D01*
X0096696Y0190381D01*
X0096739Y0190331D01*
X0096786Y0190283D01*
X0096835Y0190238D01*
X0096886Y0190196D01*
X0096940Y0190157D01*
X0096996Y0190121D01*
X0097054Y0190088D01*
X0097114Y0190058D01*
X0097176Y0190033D01*
X0097238Y0190010D01*
X0097302Y0189991D01*
X0097367Y0189976D01*
X0097433Y0189965D01*
X0097499Y0189957D01*
X0097566Y0189953D01*
X0097632Y0189953D01*
X0097699Y0189957D01*
X0097765Y0189965D01*
X0097831Y0189976D01*
X0097896Y0189991D01*
X0097960Y0190010D01*
X0098022Y0190033D01*
X0098084Y0190058D01*
X0098144Y0190088D01*
X0098202Y0190121D01*
X0098258Y0190157D01*
X0098312Y0190196D01*
X0098363Y0190238D01*
X0098412Y0190283D01*
X0098459Y0190331D01*
X0098502Y0190381D01*
X0098543Y0190434D01*
X0098581Y0190489D01*
X0098615Y0190546D01*
X0098646Y0190605D01*
X0098674Y0190666D01*
X0098698Y0190728D01*
X0098719Y0190791D01*
X0098736Y0190856D01*
X0098749Y0190921D01*
X0098758Y0190987D01*
X0098764Y0191053D01*
X0098766Y0191120D01*
X0098766Y0192986D01*
X0098764Y0193053D01*
X0098758Y0193119D01*
X0098749Y0193185D01*
X0098736Y0193250D01*
X0098719Y0193315D01*
X0098698Y0193378D01*
X0098674Y0193440D01*
X0098646Y0193501D01*
X0098615Y0193560D01*
X0098581Y0193617D01*
X0098543Y0193672D01*
X0098502Y0193725D01*
X0098459Y0193775D01*
X0098412Y0193823D01*
X0098363Y0193868D01*
X0098312Y0193910D01*
X0098258Y0193949D01*
X0098202Y0193985D01*
X0098144Y0194018D01*
X0098084Y0194048D01*
X0098022Y0194073D01*
X0097960Y0194096D01*
X0097896Y0194115D01*
X0097831Y0194130D01*
X0097765Y0194141D01*
X0097699Y0194149D01*
X0097632Y0194153D01*
X0097566Y0194153D01*
X0097499Y0194149D01*
X0097433Y0194141D01*
X0097367Y0194130D01*
X0097302Y0194115D01*
X0097238Y0194096D01*
X0097176Y0194073D01*
X0097114Y0194048D01*
X0097054Y0194018D01*
X0096996Y0193985D01*
X0096940Y0193949D01*
X0096886Y0193910D01*
X0096835Y0193868D01*
X0096786Y0193823D01*
X0096739Y0193775D01*
X0096696Y0193725D01*
X0096655Y0193672D01*
X0096617Y0193617D01*
X0096583Y0193560D01*
X0096552Y0193501D01*
X0096524Y0193440D01*
X0096500Y0193378D01*
X0096479Y0193315D01*
X0096462Y0193250D01*
X0096449Y0193185D01*
X0096440Y0193119D01*
X0096434Y0193053D01*
X0096432Y0192986D01*
X0104747Y0199858D02*
X0121085Y0199858D01*
X0121085Y0181748D01*
X0104747Y0181748D01*
X0104747Y0199858D01*
X0107683Y0206203D02*
X0107683Y0210403D01*
X0105816Y0210403D01*
X0105816Y0208536D02*
X0107683Y0208536D01*
X0109716Y0208536D02*
X0111583Y0208536D01*
X0111583Y0210403D02*
X0109716Y0210403D01*
X0111583Y0210403D02*
X0111583Y0206203D01*
X0113913Y0207370D02*
X0113913Y0209236D01*
X0113912Y0209236D02*
X0113914Y0209303D01*
X0113920Y0209369D01*
X0113929Y0209435D01*
X0113942Y0209500D01*
X0113959Y0209565D01*
X0113980Y0209628D01*
X0114004Y0209690D01*
X0114032Y0209751D01*
X0114063Y0209810D01*
X0114097Y0209867D01*
X0114135Y0209922D01*
X0114176Y0209975D01*
X0114219Y0210025D01*
X0114266Y0210073D01*
X0114315Y0210118D01*
X0114366Y0210160D01*
X0114420Y0210199D01*
X0114476Y0210235D01*
X0114534Y0210268D01*
X0114594Y0210298D01*
X0114656Y0210323D01*
X0114718Y0210346D01*
X0114782Y0210365D01*
X0114847Y0210380D01*
X0114913Y0210391D01*
X0114979Y0210399D01*
X0115046Y0210403D01*
X0115112Y0210403D01*
X0115179Y0210399D01*
X0115245Y0210391D01*
X0115311Y0210380D01*
X0115376Y0210365D01*
X0115440Y0210346D01*
X0115502Y0210323D01*
X0115564Y0210298D01*
X0115624Y0210268D01*
X0115682Y0210235D01*
X0115738Y0210199D01*
X0115792Y0210160D01*
X0115843Y0210118D01*
X0115892Y0210073D01*
X0115939Y0210025D01*
X0115982Y0209975D01*
X0116023Y0209922D01*
X0116061Y0209867D01*
X0116095Y0209810D01*
X0116126Y0209751D01*
X0116154Y0209690D01*
X0116178Y0209628D01*
X0116199Y0209565D01*
X0116216Y0209500D01*
X0116229Y0209435D01*
X0116238Y0209369D01*
X0116244Y0209303D01*
X0116246Y0209236D01*
X0116246Y0207370D01*
X0116244Y0207303D01*
X0116238Y0207237D01*
X0116229Y0207171D01*
X0116216Y0207106D01*
X0116199Y0207041D01*
X0116178Y0206978D01*
X0116154Y0206916D01*
X0116126Y0206855D01*
X0116095Y0206796D01*
X0116061Y0206739D01*
X0116023Y0206684D01*
X0115982Y0206631D01*
X0115939Y0206581D01*
X0115892Y0206533D01*
X0115843Y0206488D01*
X0115792Y0206446D01*
X0115738Y0206407D01*
X0115682Y0206371D01*
X0115624Y0206338D01*
X0115564Y0206308D01*
X0115502Y0206283D01*
X0115440Y0206260D01*
X0115376Y0206241D01*
X0115311Y0206226D01*
X0115245Y0206215D01*
X0115179Y0206207D01*
X0115112Y0206203D01*
X0115046Y0206203D01*
X0114979Y0206207D01*
X0114913Y0206215D01*
X0114847Y0206226D01*
X0114782Y0206241D01*
X0114718Y0206260D01*
X0114656Y0206283D01*
X0114594Y0206308D01*
X0114534Y0206338D01*
X0114476Y0206371D01*
X0114420Y0206407D01*
X0114366Y0206446D01*
X0114315Y0206488D01*
X0114266Y0206533D01*
X0114219Y0206581D01*
X0114176Y0206631D01*
X0114135Y0206684D01*
X0114097Y0206739D01*
X0114063Y0206796D01*
X0114032Y0206855D01*
X0114004Y0206916D01*
X0113980Y0206978D01*
X0113959Y0207041D01*
X0113942Y0207106D01*
X0113929Y0207171D01*
X0113920Y0207237D01*
X0113914Y0207303D01*
X0113912Y0207370D01*
X0120879Y0207136D02*
X0123679Y0207136D01*
X0123679Y0208536D02*
X0120879Y0208536D01*
X0121879Y0214636D02*
X0119079Y0214636D01*
X0119079Y0216036D02*
X0121879Y0216036D01*
X0126284Y0216503D02*
X0127684Y0216503D01*
X0128823Y0216503D02*
X0128823Y0216036D01*
X0128823Y0216503D02*
X0130223Y0216503D01*
X0130223Y0213703D01*
X0132446Y0214636D02*
X0132446Y0215570D01*
X0132448Y0215630D01*
X0132454Y0215689D01*
X0132463Y0215748D01*
X0132477Y0215807D01*
X0132494Y0215864D01*
X0132514Y0215920D01*
X0132538Y0215975D01*
X0132566Y0216028D01*
X0132597Y0216079D01*
X0132631Y0216128D01*
X0132669Y0216175D01*
X0132709Y0216219D01*
X0132752Y0216261D01*
X0132797Y0216299D01*
X0132845Y0216335D01*
X0132895Y0216368D01*
X0132947Y0216397D01*
X0133001Y0216423D01*
X0133057Y0216446D01*
X0133114Y0216464D01*
X0133171Y0216480D01*
X0133230Y0216491D01*
X0133289Y0216499D01*
X0133349Y0216503D01*
X0133409Y0216503D01*
X0133469Y0216499D01*
X0133528Y0216491D01*
X0133587Y0216480D01*
X0133644Y0216464D01*
X0133701Y0216446D01*
X0133757Y0216423D01*
X0133811Y0216397D01*
X0133863Y0216368D01*
X0133913Y0216335D01*
X0133961Y0216299D01*
X0134006Y0216261D01*
X0134049Y0216219D01*
X0134089Y0216175D01*
X0134127Y0216128D01*
X0134161Y0216079D01*
X0134192Y0216028D01*
X0134220Y0215975D01*
X0134244Y0215920D01*
X0134264Y0215864D01*
X0134281Y0215807D01*
X0134295Y0215748D01*
X0134304Y0215689D01*
X0134310Y0215630D01*
X0134312Y0215570D01*
X0134313Y0215570D02*
X0134313Y0214636D01*
X0134312Y0214636D02*
X0134310Y0214576D01*
X0134304Y0214517D01*
X0134295Y0214458D01*
X0134281Y0214399D01*
X0134264Y0214342D01*
X0134244Y0214286D01*
X0134220Y0214231D01*
X0134192Y0214178D01*
X0134161Y0214127D01*
X0134127Y0214078D01*
X0134089Y0214031D01*
X0134049Y0213987D01*
X0134006Y0213945D01*
X0133961Y0213907D01*
X0133913Y0213871D01*
X0133863Y0213838D01*
X0133811Y0213809D01*
X0133757Y0213783D01*
X0133701Y0213760D01*
X0133644Y0213742D01*
X0133587Y0213726D01*
X0133528Y0213715D01*
X0133469Y0213707D01*
X0133409Y0213703D01*
X0133349Y0213703D01*
X0133289Y0213707D01*
X0133230Y0213715D01*
X0133171Y0213726D01*
X0133114Y0213742D01*
X0133057Y0213760D01*
X0133001Y0213783D01*
X0132947Y0213809D01*
X0132895Y0213838D01*
X0132845Y0213871D01*
X0132797Y0213907D01*
X0132752Y0213945D01*
X0132709Y0213987D01*
X0132669Y0214031D01*
X0132631Y0214078D01*
X0132597Y0214127D01*
X0132566Y0214178D01*
X0132538Y0214231D01*
X0132514Y0214286D01*
X0132494Y0214342D01*
X0132477Y0214399D01*
X0132463Y0214458D01*
X0132454Y0214517D01*
X0132448Y0214576D01*
X0132446Y0214636D01*
X0136496Y0213703D02*
X0136496Y0215803D01*
X0136498Y0215853D01*
X0136503Y0215903D01*
X0136512Y0215952D01*
X0136524Y0216000D01*
X0136540Y0216048D01*
X0136559Y0216094D01*
X0136582Y0216138D01*
X0136607Y0216181D01*
X0136636Y0216222D01*
X0136667Y0216261D01*
X0136701Y0216298D01*
X0136738Y0216332D01*
X0136777Y0216363D01*
X0136818Y0216392D01*
X0136861Y0216417D01*
X0136905Y0216440D01*
X0136951Y0216459D01*
X0136999Y0216475D01*
X0137047Y0216487D01*
X0137096Y0216496D01*
X0137146Y0216501D01*
X0137196Y0216503D01*
X0138363Y0216503D01*
X0138363Y0217903D02*
X0138363Y0213703D01*
X0140929Y0215453D02*
X0142213Y0216153D01*
X0141746Y0217903D02*
X0141666Y0217901D01*
X0141585Y0217896D01*
X0141505Y0217886D01*
X0141426Y0217874D01*
X0141347Y0217857D01*
X0141269Y0217837D01*
X0141193Y0217813D01*
X0141117Y0217786D01*
X0141043Y0217755D01*
X0140970Y0217721D01*
X0140898Y0217684D01*
X0140829Y0217643D01*
X0140761Y0217600D01*
X0140696Y0217553D01*
X0142212Y0216153D02*
X0142261Y0216184D01*
X0142308Y0216218D01*
X0142353Y0216255D01*
X0142396Y0216294D01*
X0142436Y0216336D01*
X0142473Y0216380D01*
X0142508Y0216426D01*
X0142539Y0216475D01*
X0142568Y0216525D01*
X0142594Y0216577D01*
X0142616Y0216630D01*
X0142635Y0216685D01*
X0142651Y0216741D01*
X0142663Y0216797D01*
X0142672Y0216854D01*
X0142677Y0216912D01*
X0142679Y0216970D01*
X0142677Y0217029D01*
X0142672Y0217087D01*
X0142662Y0217145D01*
X0142650Y0217202D01*
X0142633Y0217258D01*
X0142613Y0217313D01*
X0142590Y0217367D01*
X0142564Y0217419D01*
X0142534Y0217470D01*
X0142501Y0217518D01*
X0142465Y0217565D01*
X0142426Y0217609D01*
X0142385Y0217650D01*
X0142341Y0217689D01*
X0142294Y0217725D01*
X0142246Y0217758D01*
X0142195Y0217788D01*
X0142143Y0217814D01*
X0142089Y0217837D01*
X0142034Y0217857D01*
X0141978Y0217874D01*
X0141921Y0217886D01*
X0141863Y0217896D01*
X0141805Y0217901D01*
X0141746Y0217903D01*
X0142796Y0214286D02*
X0142734Y0214226D01*
X0142669Y0214169D01*
X0142602Y0214115D01*
X0142532Y0214063D01*
X0142461Y0214015D01*
X0142387Y0213970D01*
X0142311Y0213928D01*
X0142234Y0213890D01*
X0142154Y0213855D01*
X0142074Y0213823D01*
X0141992Y0213795D01*
X0141909Y0213771D01*
X0141825Y0213750D01*
X0141740Y0213733D01*
X0141655Y0213720D01*
X0141569Y0213711D01*
X0141482Y0213705D01*
X0141396Y0213703D01*
X0141337Y0213705D01*
X0141279Y0213710D01*
X0141221Y0213720D01*
X0141164Y0213732D01*
X0141108Y0213749D01*
X0141053Y0213769D01*
X0140999Y0213792D01*
X0140947Y0213818D01*
X0140896Y0213848D01*
X0140848Y0213881D01*
X0140801Y0213917D01*
X0140757Y0213956D01*
X0140716Y0213997D01*
X0140677Y0214041D01*
X0140641Y0214088D01*
X0140608Y0214136D01*
X0140578Y0214187D01*
X0140552Y0214239D01*
X0140529Y0214293D01*
X0140509Y0214348D01*
X0140492Y0214404D01*
X0140480Y0214461D01*
X0140470Y0214519D01*
X0140465Y0214577D01*
X0140463Y0214636D01*
X0140462Y0214636D02*
X0140464Y0214694D01*
X0140469Y0214752D01*
X0140478Y0214809D01*
X0140490Y0214865D01*
X0140506Y0214921D01*
X0140525Y0214976D01*
X0140547Y0215029D01*
X0140573Y0215081D01*
X0140602Y0215131D01*
X0140633Y0215180D01*
X0140668Y0215226D01*
X0140705Y0215270D01*
X0140745Y0215312D01*
X0140788Y0215351D01*
X0140833Y0215388D01*
X0140880Y0215422D01*
X0140929Y0215453D01*
X0140463Y0209236D02*
X0140463Y0207370D01*
X0140462Y0207370D02*
X0140464Y0207303D01*
X0140470Y0207237D01*
X0140479Y0207171D01*
X0140492Y0207106D01*
X0140509Y0207041D01*
X0140530Y0206978D01*
X0140554Y0206916D01*
X0140582Y0206855D01*
X0140613Y0206796D01*
X0140647Y0206739D01*
X0140685Y0206684D01*
X0140726Y0206631D01*
X0140769Y0206581D01*
X0140816Y0206533D01*
X0140865Y0206488D01*
X0140916Y0206446D01*
X0140970Y0206407D01*
X0141026Y0206371D01*
X0141084Y0206338D01*
X0141144Y0206308D01*
X0141206Y0206283D01*
X0141268Y0206260D01*
X0141332Y0206241D01*
X0141397Y0206226D01*
X0141463Y0206215D01*
X0141529Y0206207D01*
X0141596Y0206203D01*
X0141662Y0206203D01*
X0141729Y0206207D01*
X0141795Y0206215D01*
X0141861Y0206226D01*
X0141926Y0206241D01*
X0141990Y0206260D01*
X0142052Y0206283D01*
X0142114Y0206308D01*
X0142174Y0206338D01*
X0142232Y0206371D01*
X0142288Y0206407D01*
X0142342Y0206446D01*
X0142393Y0206488D01*
X0142442Y0206533D01*
X0142489Y0206581D01*
X0142532Y0206631D01*
X0142573Y0206684D01*
X0142611Y0206739D01*
X0142645Y0206796D01*
X0142676Y0206855D01*
X0142704Y0206916D01*
X0142728Y0206978D01*
X0142749Y0207041D01*
X0142766Y0207106D01*
X0142779Y0207171D01*
X0142788Y0207237D01*
X0142794Y0207303D01*
X0142796Y0207370D01*
X0142796Y0209236D01*
X0142794Y0209303D01*
X0142788Y0209369D01*
X0142779Y0209435D01*
X0142766Y0209500D01*
X0142749Y0209565D01*
X0142728Y0209628D01*
X0142704Y0209690D01*
X0142676Y0209751D01*
X0142645Y0209810D01*
X0142611Y0209867D01*
X0142573Y0209922D01*
X0142532Y0209975D01*
X0142489Y0210025D01*
X0142442Y0210073D01*
X0142393Y0210118D01*
X0142342Y0210160D01*
X0142288Y0210199D01*
X0142232Y0210235D01*
X0142174Y0210268D01*
X0142114Y0210298D01*
X0142052Y0210323D01*
X0141990Y0210346D01*
X0141926Y0210365D01*
X0141861Y0210380D01*
X0141795Y0210391D01*
X0141729Y0210399D01*
X0141662Y0210403D01*
X0141596Y0210403D01*
X0141529Y0210399D01*
X0141463Y0210391D01*
X0141397Y0210380D01*
X0141332Y0210365D01*
X0141268Y0210346D01*
X0141206Y0210323D01*
X0141144Y0210298D01*
X0141084Y0210268D01*
X0141026Y0210235D01*
X0140970Y0210199D01*
X0140916Y0210160D01*
X0140865Y0210118D01*
X0140816Y0210073D01*
X0140769Y0210025D01*
X0140726Y0209975D01*
X0140685Y0209922D01*
X0140647Y0209867D01*
X0140613Y0209810D01*
X0140582Y0209751D01*
X0140554Y0209690D01*
X0140530Y0209628D01*
X0140509Y0209565D01*
X0140492Y0209500D01*
X0140479Y0209435D01*
X0140470Y0209369D01*
X0140464Y0209303D01*
X0140462Y0209236D01*
X0138178Y0209003D02*
X0137011Y0209003D01*
X0136961Y0209001D01*
X0136911Y0208996D01*
X0136862Y0208987D01*
X0136814Y0208975D01*
X0136766Y0208959D01*
X0136720Y0208940D01*
X0136676Y0208917D01*
X0136633Y0208892D01*
X0136592Y0208863D01*
X0136553Y0208832D01*
X0136516Y0208798D01*
X0136482Y0208761D01*
X0136451Y0208722D01*
X0136422Y0208681D01*
X0136397Y0208638D01*
X0136374Y0208594D01*
X0136355Y0208548D01*
X0136339Y0208500D01*
X0136327Y0208452D01*
X0136318Y0208403D01*
X0136313Y0208353D01*
X0136311Y0208303D01*
X0136311Y0206903D01*
X0136313Y0206853D01*
X0136318Y0206803D01*
X0136327Y0206754D01*
X0136339Y0206706D01*
X0136355Y0206658D01*
X0136374Y0206612D01*
X0136397Y0206568D01*
X0136422Y0206525D01*
X0136451Y0206484D01*
X0136482Y0206445D01*
X0136516Y0206408D01*
X0136553Y0206374D01*
X0136592Y0206343D01*
X0136633Y0206314D01*
X0136676Y0206289D01*
X0136720Y0206266D01*
X0136766Y0206247D01*
X0136814Y0206231D01*
X0136862Y0206219D01*
X0136911Y0206210D01*
X0136961Y0206205D01*
X0137011Y0206203D01*
X0138178Y0206203D01*
X0138178Y0204803D02*
X0138178Y0209003D01*
X0134313Y0208070D02*
X0134313Y0206903D01*
X0134313Y0207603D02*
X0132446Y0207603D01*
X0132446Y0208070D01*
X0132448Y0208130D01*
X0132454Y0208189D01*
X0132463Y0208248D01*
X0132477Y0208307D01*
X0132494Y0208364D01*
X0132514Y0208420D01*
X0132538Y0208475D01*
X0132566Y0208528D01*
X0132597Y0208579D01*
X0132631Y0208628D01*
X0132669Y0208675D01*
X0132709Y0208719D01*
X0132752Y0208761D01*
X0132797Y0208799D01*
X0132845Y0208835D01*
X0132895Y0208868D01*
X0132947Y0208897D01*
X0133001Y0208923D01*
X0133057Y0208946D01*
X0133114Y0208964D01*
X0133171Y0208980D01*
X0133230Y0208991D01*
X0133289Y0208999D01*
X0133349Y0209003D01*
X0133409Y0209003D01*
X0133469Y0208999D01*
X0133528Y0208991D01*
X0133587Y0208980D01*
X0133644Y0208964D01*
X0133701Y0208946D01*
X0133757Y0208923D01*
X0133811Y0208897D01*
X0133863Y0208868D01*
X0133913Y0208835D01*
X0133961Y0208799D01*
X0134006Y0208761D01*
X0134049Y0208719D01*
X0134089Y0208675D01*
X0134127Y0208628D01*
X0134161Y0208579D01*
X0134192Y0208528D01*
X0134220Y0208475D01*
X0134244Y0208420D01*
X0134264Y0208364D01*
X0134281Y0208307D01*
X0134295Y0208248D01*
X0134304Y0208189D01*
X0134310Y0208130D01*
X0134312Y0208070D01*
X0134313Y0206903D02*
X0134311Y0206853D01*
X0134306Y0206803D01*
X0134297Y0206754D01*
X0134285Y0206706D01*
X0134269Y0206658D01*
X0134250Y0206612D01*
X0134227Y0206568D01*
X0134202Y0206525D01*
X0134173Y0206484D01*
X0134142Y0206445D01*
X0134108Y0206408D01*
X0134071Y0206374D01*
X0134032Y0206343D01*
X0133991Y0206314D01*
X0133948Y0206289D01*
X0133904Y0206266D01*
X0133858Y0206247D01*
X0133810Y0206231D01*
X0133762Y0206219D01*
X0133713Y0206210D01*
X0133663Y0206205D01*
X0133613Y0206203D01*
X0132446Y0206203D01*
X0130263Y0206203D02*
X0130263Y0209003D01*
X0129096Y0209003D01*
X0129046Y0209001D01*
X0128996Y0208996D01*
X0128947Y0208987D01*
X0128899Y0208975D01*
X0128851Y0208959D01*
X0128805Y0208940D01*
X0128761Y0208917D01*
X0128718Y0208892D01*
X0128677Y0208863D01*
X0128638Y0208832D01*
X0128601Y0208798D01*
X0128567Y0208761D01*
X0128536Y0208722D01*
X0128507Y0208681D01*
X0128482Y0208638D01*
X0128459Y0208594D01*
X0128440Y0208548D01*
X0128424Y0208500D01*
X0128412Y0208452D01*
X0128403Y0208403D01*
X0128398Y0208353D01*
X0128396Y0208303D01*
X0128396Y0206203D01*
X0126517Y0213703D02*
X0126284Y0213703D01*
X0126517Y0213703D02*
X0126567Y0213705D01*
X0126617Y0213710D01*
X0126666Y0213719D01*
X0126714Y0213731D01*
X0126762Y0213747D01*
X0126808Y0213766D01*
X0126852Y0213789D01*
X0126895Y0213814D01*
X0126936Y0213843D01*
X0126975Y0213874D01*
X0127012Y0213908D01*
X0127046Y0213945D01*
X0127077Y0213984D01*
X0127106Y0214025D01*
X0127131Y0214068D01*
X0127154Y0214112D01*
X0127173Y0214158D01*
X0127189Y0214206D01*
X0127201Y0214254D01*
X0127210Y0214303D01*
X0127215Y0214353D01*
X0127217Y0214403D01*
X0127217Y0217903D01*
X0114446Y0216736D02*
X0114446Y0214870D01*
X0114444Y0214803D01*
X0114438Y0214737D01*
X0114429Y0214671D01*
X0114416Y0214606D01*
X0114399Y0214541D01*
X0114378Y0214478D01*
X0114354Y0214416D01*
X0114326Y0214355D01*
X0114295Y0214296D01*
X0114261Y0214239D01*
X0114223Y0214184D01*
X0114182Y0214131D01*
X0114139Y0214081D01*
X0114092Y0214033D01*
X0114043Y0213988D01*
X0113992Y0213946D01*
X0113938Y0213907D01*
X0113882Y0213871D01*
X0113824Y0213838D01*
X0113764Y0213808D01*
X0113702Y0213783D01*
X0113640Y0213760D01*
X0113576Y0213741D01*
X0113511Y0213726D01*
X0113445Y0213715D01*
X0113379Y0213707D01*
X0113312Y0213703D01*
X0113246Y0213703D01*
X0113179Y0213707D01*
X0113113Y0213715D01*
X0113047Y0213726D01*
X0112982Y0213741D01*
X0112918Y0213760D01*
X0112856Y0213783D01*
X0112794Y0213808D01*
X0112734Y0213838D01*
X0112676Y0213871D01*
X0112620Y0213907D01*
X0112566Y0213946D01*
X0112515Y0213988D01*
X0112466Y0214033D01*
X0112419Y0214081D01*
X0112376Y0214131D01*
X0112335Y0214184D01*
X0112297Y0214239D01*
X0112263Y0214296D01*
X0112232Y0214355D01*
X0112204Y0214416D01*
X0112180Y0214478D01*
X0112159Y0214541D01*
X0112142Y0214606D01*
X0112129Y0214671D01*
X0112120Y0214737D01*
X0112114Y0214803D01*
X0112112Y0214870D01*
X0112113Y0214870D02*
X0112113Y0216736D01*
X0112112Y0216736D02*
X0112114Y0216803D01*
X0112120Y0216869D01*
X0112129Y0216935D01*
X0112142Y0217000D01*
X0112159Y0217065D01*
X0112180Y0217128D01*
X0112204Y0217190D01*
X0112232Y0217251D01*
X0112263Y0217310D01*
X0112297Y0217367D01*
X0112335Y0217422D01*
X0112376Y0217475D01*
X0112419Y0217525D01*
X0112466Y0217573D01*
X0112515Y0217618D01*
X0112566Y0217660D01*
X0112620Y0217699D01*
X0112676Y0217735D01*
X0112734Y0217768D01*
X0112794Y0217798D01*
X0112856Y0217823D01*
X0112918Y0217846D01*
X0112982Y0217865D01*
X0113047Y0217880D01*
X0113113Y0217891D01*
X0113179Y0217899D01*
X0113246Y0217903D01*
X0113312Y0217903D01*
X0113379Y0217899D01*
X0113445Y0217891D01*
X0113511Y0217880D01*
X0113576Y0217865D01*
X0113640Y0217846D01*
X0113702Y0217823D01*
X0113764Y0217798D01*
X0113824Y0217768D01*
X0113882Y0217735D01*
X0113938Y0217699D01*
X0113992Y0217660D01*
X0114043Y0217618D01*
X0114092Y0217573D01*
X0114139Y0217525D01*
X0114182Y0217475D01*
X0114223Y0217422D01*
X0114261Y0217367D01*
X0114295Y0217310D01*
X0114326Y0217251D01*
X0114354Y0217190D01*
X0114378Y0217128D01*
X0114399Y0217065D01*
X0114416Y0217000D01*
X0114429Y0216935D01*
X0114438Y0216869D01*
X0114444Y0216803D01*
X0114446Y0216736D01*
X0109796Y0217903D02*
X0109796Y0213703D01*
X0107463Y0213703D02*
X0107463Y0217903D01*
X0109796Y0217903D02*
X0107463Y0213703D01*
X0123316Y0194020D02*
X0123316Y0192853D01*
X0123316Y0194020D02*
X0123318Y0194087D01*
X0123324Y0194153D01*
X0123333Y0194219D01*
X0123346Y0194284D01*
X0123363Y0194349D01*
X0123384Y0194412D01*
X0123408Y0194474D01*
X0123436Y0194535D01*
X0123467Y0194594D01*
X0123501Y0194651D01*
X0123539Y0194706D01*
X0123580Y0194759D01*
X0123623Y0194809D01*
X0123670Y0194857D01*
X0123719Y0194902D01*
X0123770Y0194944D01*
X0123824Y0194983D01*
X0123880Y0195019D01*
X0123938Y0195052D01*
X0123998Y0195082D01*
X0124060Y0195107D01*
X0124122Y0195130D01*
X0124186Y0195149D01*
X0124251Y0195164D01*
X0124317Y0195175D01*
X0124383Y0195183D01*
X0124450Y0195187D01*
X0124516Y0195187D01*
X0124583Y0195183D01*
X0124649Y0195175D01*
X0124715Y0195164D01*
X0124780Y0195149D01*
X0124844Y0195130D01*
X0124906Y0195107D01*
X0124968Y0195082D01*
X0125028Y0195052D01*
X0125086Y0195019D01*
X0125142Y0194983D01*
X0125196Y0194944D01*
X0125247Y0194902D01*
X0125296Y0194857D01*
X0125343Y0194809D01*
X0125386Y0194759D01*
X0125427Y0194706D01*
X0125465Y0194651D01*
X0125499Y0194594D01*
X0125530Y0194535D01*
X0125558Y0194474D01*
X0125582Y0194412D01*
X0125603Y0194349D01*
X0125620Y0194284D01*
X0125633Y0194219D01*
X0125642Y0194153D01*
X0125648Y0194087D01*
X0125650Y0194020D01*
X0125649Y0194253D02*
X0125649Y0193320D01*
X0125650Y0194253D02*
X0125652Y0194313D01*
X0125658Y0194372D01*
X0125667Y0194431D01*
X0125681Y0194490D01*
X0125698Y0194547D01*
X0125718Y0194603D01*
X0125742Y0194658D01*
X0125770Y0194711D01*
X0125801Y0194762D01*
X0125835Y0194811D01*
X0125873Y0194858D01*
X0125913Y0194902D01*
X0125956Y0194944D01*
X0126001Y0194982D01*
X0126049Y0195018D01*
X0126099Y0195051D01*
X0126151Y0195080D01*
X0126205Y0195106D01*
X0126261Y0195129D01*
X0126318Y0195147D01*
X0126375Y0195163D01*
X0126434Y0195174D01*
X0126493Y0195182D01*
X0126553Y0195186D01*
X0126613Y0195186D01*
X0126673Y0195182D01*
X0126732Y0195174D01*
X0126791Y0195163D01*
X0126848Y0195147D01*
X0126905Y0195129D01*
X0126961Y0195106D01*
X0127015Y0195080D01*
X0127067Y0195051D01*
X0127117Y0195018D01*
X0127165Y0194982D01*
X0127210Y0194944D01*
X0127253Y0194902D01*
X0127293Y0194858D01*
X0127331Y0194811D01*
X0127365Y0194762D01*
X0127396Y0194711D01*
X0127424Y0194658D01*
X0127448Y0194603D01*
X0127468Y0194547D01*
X0127485Y0194490D01*
X0127499Y0194431D01*
X0127508Y0194372D01*
X0127514Y0194313D01*
X0127516Y0194253D01*
X0127516Y0192853D01*
X0127516Y0190950D02*
X0127516Y0190017D01*
X0127514Y0189956D01*
X0127508Y0189895D01*
X0127498Y0189835D01*
X0127484Y0189776D01*
X0127466Y0189717D01*
X0127445Y0189660D01*
X0127420Y0189604D01*
X0127391Y0189550D01*
X0127359Y0189499D01*
X0127323Y0189449D01*
X0127284Y0189402D01*
X0127243Y0189357D01*
X0127198Y0189316D01*
X0127151Y0189277D01*
X0127101Y0189241D01*
X0127049Y0189209D01*
X0126996Y0189180D01*
X0126940Y0189155D01*
X0126883Y0189134D01*
X0126824Y0189116D01*
X0126765Y0189102D01*
X0126705Y0189092D01*
X0126644Y0189086D01*
X0126583Y0189084D01*
X0124249Y0189084D01*
X0124190Y0189086D01*
X0124132Y0189091D01*
X0124074Y0189101D01*
X0124017Y0189113D01*
X0123961Y0189130D01*
X0123906Y0189150D01*
X0123852Y0189173D01*
X0123800Y0189199D01*
X0123749Y0189229D01*
X0123701Y0189262D01*
X0123654Y0189298D01*
X0123610Y0189337D01*
X0123569Y0189378D01*
X0123530Y0189422D01*
X0123494Y0189469D01*
X0123461Y0189517D01*
X0123431Y0189568D01*
X0123405Y0189620D01*
X0123382Y0189674D01*
X0123362Y0189729D01*
X0123345Y0189785D01*
X0123333Y0189842D01*
X0123323Y0189900D01*
X0123318Y0189958D01*
X0123316Y0190017D01*
X0123316Y0190950D01*
X0123316Y0187136D02*
X0123316Y0186203D01*
X0123316Y0186670D02*
X0127516Y0186670D01*
X0127516Y0187136D02*
X0127516Y0186203D01*
X0211916Y0157118D02*
X0211916Y0156185D01*
X0211916Y0157118D02*
X0211918Y0157168D01*
X0211923Y0157218D01*
X0211932Y0157267D01*
X0211944Y0157315D01*
X0211960Y0157363D01*
X0211979Y0157409D01*
X0212002Y0157453D01*
X0212027Y0157496D01*
X0212056Y0157537D01*
X0212087Y0157576D01*
X0212121Y0157613D01*
X0212158Y0157647D01*
X0212197Y0157678D01*
X0212238Y0157707D01*
X0212281Y0157732D01*
X0212325Y0157755D01*
X0212371Y0157774D01*
X0212419Y0157790D01*
X0212467Y0157802D01*
X0212516Y0157811D01*
X0212566Y0157816D01*
X0212616Y0157818D01*
X0216116Y0157818D01*
X0216116Y0156652D01*
X0216114Y0156602D01*
X0216109Y0156552D01*
X0216100Y0156503D01*
X0216088Y0156455D01*
X0216072Y0156407D01*
X0216053Y0156361D01*
X0216030Y0156317D01*
X0216005Y0156274D01*
X0215976Y0156233D01*
X0215945Y0156194D01*
X0215911Y0156157D01*
X0215874Y0156123D01*
X0215835Y0156092D01*
X0215794Y0156063D01*
X0215751Y0156038D01*
X0215707Y0156015D01*
X0215661Y0155996D01*
X0215613Y0155980D01*
X0215565Y0155968D01*
X0215516Y0155959D01*
X0215466Y0155954D01*
X0215416Y0155952D01*
X0214016Y0155952D01*
X0213966Y0155954D01*
X0213916Y0155959D01*
X0213867Y0155968D01*
X0213819Y0155980D01*
X0213771Y0155996D01*
X0213725Y0156015D01*
X0213681Y0156038D01*
X0213638Y0156063D01*
X0213597Y0156092D01*
X0213558Y0156123D01*
X0213521Y0156157D01*
X0213487Y0156194D01*
X0213456Y0156233D01*
X0213427Y0156274D01*
X0213402Y0156317D01*
X0213379Y0156361D01*
X0213360Y0156407D01*
X0213344Y0156455D01*
X0213332Y0156503D01*
X0213323Y0156552D01*
X0213318Y0156602D01*
X0213316Y0156652D01*
X0213316Y0157818D01*
X0213316Y0153803D02*
X0215416Y0153803D01*
X0215466Y0153801D01*
X0215516Y0153796D01*
X0215565Y0153787D01*
X0215613Y0153775D01*
X0215661Y0153759D01*
X0215707Y0153740D01*
X0215751Y0153717D01*
X0215794Y0153692D01*
X0215835Y0153663D01*
X0215874Y0153632D01*
X0215911Y0153598D01*
X0215945Y0153561D01*
X0215976Y0153522D01*
X0216005Y0153481D01*
X0216030Y0153438D01*
X0216053Y0153394D01*
X0216072Y0153348D01*
X0216088Y0153300D01*
X0216100Y0153252D01*
X0216109Y0153203D01*
X0216114Y0153153D01*
X0216116Y0153103D01*
X0216116Y0151936D01*
X0213316Y0151936D01*
X0213316Y0149870D02*
X0216116Y0149870D01*
X0217283Y0149986D02*
X0217283Y0149753D01*
X0217516Y0149753D01*
X0217516Y0149986D01*
X0217283Y0149986D01*
X0213316Y0147370D02*
X0213320Y0147250D01*
X0213327Y0147132D01*
X0213338Y0147013D01*
X0213352Y0146895D01*
X0213370Y0146777D01*
X0213391Y0146660D01*
X0213416Y0146543D01*
X0213444Y0146427D01*
X0213476Y0146313D01*
X0213511Y0146199D01*
X0213550Y0146086D01*
X0216116Y0146670D02*
X0216112Y0146768D01*
X0216106Y0146867D01*
X0216095Y0146964D01*
X0216081Y0147062D01*
X0216063Y0147159D01*
X0216042Y0147255D01*
X0216017Y0147350D01*
X0215988Y0147444D01*
X0215956Y0147538D01*
X0215921Y0147629D01*
X0215882Y0147720D01*
X0216116Y0146670D02*
X0216115Y0146622D01*
X0216110Y0146574D01*
X0216101Y0146527D01*
X0216088Y0146481D01*
X0216072Y0146435D01*
X0216053Y0146392D01*
X0216030Y0146350D01*
X0216003Y0146309D01*
X0215974Y0146272D01*
X0215942Y0146236D01*
X0215907Y0146203D01*
X0215869Y0146173D01*
X0215829Y0146147D01*
X0215788Y0146123D01*
X0215744Y0146103D01*
X0215699Y0146086D01*
X0215653Y0146073D01*
X0215606Y0146064D01*
X0215558Y0146058D01*
X0215510Y0146056D01*
X0215463Y0146058D01*
X0215415Y0146064D01*
X0215368Y0146073D01*
X0215322Y0146086D01*
X0215277Y0146103D01*
X0215233Y0146123D01*
X0215192Y0146147D01*
X0215152Y0146174D01*
X0215115Y0146204D01*
X0215080Y0146237D01*
X0215047Y0146272D01*
X0215018Y0146310D01*
X0214992Y0146350D01*
X0214969Y0146393D01*
X0214949Y0146436D01*
X0214483Y0147603D01*
X0214463Y0147646D01*
X0214440Y0147689D01*
X0214414Y0147729D01*
X0214385Y0147767D01*
X0214352Y0147802D01*
X0214317Y0147835D01*
X0214280Y0147865D01*
X0214240Y0147892D01*
X0214199Y0147916D01*
X0214155Y0147936D01*
X0214110Y0147953D01*
X0214064Y0147966D01*
X0214017Y0147975D01*
X0213969Y0147981D01*
X0213922Y0147983D01*
X0213874Y0147981D01*
X0213826Y0147975D01*
X0213779Y0147966D01*
X0213733Y0147953D01*
X0213688Y0147936D01*
X0213644Y0147916D01*
X0213603Y0147892D01*
X0213563Y0147866D01*
X0213525Y0147836D01*
X0213490Y0147803D01*
X0213458Y0147767D01*
X0213429Y0147730D01*
X0213402Y0147689D01*
X0213379Y0147647D01*
X0213360Y0147604D01*
X0213344Y0147558D01*
X0213331Y0147512D01*
X0213322Y0147465D01*
X0213317Y0147417D01*
X0213316Y0147369D01*
X0213316Y0143903D02*
X0215416Y0143903D01*
X0215466Y0143901D01*
X0215516Y0143896D01*
X0215565Y0143887D01*
X0215613Y0143875D01*
X0215661Y0143859D01*
X0215707Y0143840D01*
X0215751Y0143817D01*
X0215794Y0143792D01*
X0215835Y0143763D01*
X0215874Y0143732D01*
X0215911Y0143698D01*
X0215945Y0143661D01*
X0215976Y0143622D01*
X0216005Y0143581D01*
X0216030Y0143538D01*
X0216053Y0143494D01*
X0216072Y0143448D01*
X0216088Y0143400D01*
X0216100Y0143352D01*
X0216109Y0143303D01*
X0216114Y0143253D01*
X0216116Y0143203D01*
X0216116Y0142036D01*
X0213316Y0142036D01*
X0213316Y0139853D02*
X0213316Y0138686D01*
X0213318Y0138636D01*
X0213323Y0138586D01*
X0213332Y0138537D01*
X0213344Y0138489D01*
X0213360Y0138441D01*
X0213379Y0138395D01*
X0213402Y0138351D01*
X0213427Y0138308D01*
X0213456Y0138267D01*
X0213487Y0138228D01*
X0213521Y0138191D01*
X0213558Y0138157D01*
X0213597Y0138126D01*
X0213638Y0138097D01*
X0213681Y0138072D01*
X0213725Y0138049D01*
X0213771Y0138030D01*
X0213819Y0138014D01*
X0213867Y0138002D01*
X0213916Y0137993D01*
X0213966Y0137988D01*
X0214016Y0137986D01*
X0215183Y0137986D01*
X0214716Y0137986D02*
X0214716Y0139853D01*
X0215183Y0139853D01*
X0215243Y0139851D01*
X0215302Y0139845D01*
X0215361Y0139836D01*
X0215420Y0139822D01*
X0215477Y0139805D01*
X0215533Y0139785D01*
X0215588Y0139761D01*
X0215641Y0139733D01*
X0215692Y0139702D01*
X0215741Y0139668D01*
X0215788Y0139630D01*
X0215832Y0139590D01*
X0215874Y0139547D01*
X0215912Y0139502D01*
X0215948Y0139454D01*
X0215981Y0139404D01*
X0216010Y0139352D01*
X0216036Y0139298D01*
X0216059Y0139242D01*
X0216077Y0139185D01*
X0216093Y0139128D01*
X0216104Y0139069D01*
X0216112Y0139010D01*
X0216116Y0138950D01*
X0216116Y0138890D01*
X0216112Y0138830D01*
X0216104Y0138771D01*
X0216093Y0138712D01*
X0216077Y0138655D01*
X0216059Y0138598D01*
X0216036Y0138542D01*
X0216010Y0138488D01*
X0215981Y0138436D01*
X0215948Y0138386D01*
X0215912Y0138338D01*
X0215874Y0138293D01*
X0215832Y0138250D01*
X0215788Y0138210D01*
X0215741Y0138172D01*
X0215692Y0138138D01*
X0215641Y0138107D01*
X0215588Y0138079D01*
X0215533Y0138055D01*
X0215477Y0138035D01*
X0215420Y0138018D01*
X0215361Y0138004D01*
X0215302Y0137995D01*
X0215243Y0137989D01*
X0215183Y0137987D01*
X0215066Y0135570D02*
X0215766Y0134286D01*
X0217516Y0134753D02*
X0217514Y0134833D01*
X0217509Y0134914D01*
X0217499Y0134994D01*
X0217487Y0135073D01*
X0217470Y0135152D01*
X0217450Y0135230D01*
X0217426Y0135306D01*
X0217399Y0135382D01*
X0217368Y0135456D01*
X0217334Y0135529D01*
X0217297Y0135601D01*
X0217256Y0135670D01*
X0217213Y0135738D01*
X0217166Y0135803D01*
X0215766Y0134287D02*
X0215797Y0134238D01*
X0215831Y0134191D01*
X0215868Y0134146D01*
X0215907Y0134103D01*
X0215949Y0134063D01*
X0215993Y0134026D01*
X0216039Y0133991D01*
X0216088Y0133960D01*
X0216138Y0133931D01*
X0216190Y0133905D01*
X0216243Y0133883D01*
X0216298Y0133864D01*
X0216354Y0133848D01*
X0216410Y0133836D01*
X0216467Y0133827D01*
X0216525Y0133822D01*
X0216583Y0133820D01*
X0216642Y0133822D01*
X0216700Y0133827D01*
X0216758Y0133837D01*
X0216815Y0133849D01*
X0216871Y0133866D01*
X0216926Y0133886D01*
X0216980Y0133909D01*
X0217032Y0133935D01*
X0217083Y0133965D01*
X0217131Y0133998D01*
X0217178Y0134034D01*
X0217222Y0134073D01*
X0217263Y0134114D01*
X0217302Y0134158D01*
X0217338Y0134205D01*
X0217371Y0134253D01*
X0217401Y0134304D01*
X0217427Y0134356D01*
X0217450Y0134410D01*
X0217470Y0134465D01*
X0217487Y0134521D01*
X0217499Y0134578D01*
X0217509Y0134636D01*
X0217514Y0134694D01*
X0217516Y0134753D01*
X0213898Y0133703D02*
X0213838Y0133765D01*
X0213781Y0133830D01*
X0213727Y0133897D01*
X0213675Y0133967D01*
X0213627Y0134038D01*
X0213582Y0134112D01*
X0213540Y0134188D01*
X0213502Y0134265D01*
X0213467Y0134345D01*
X0213435Y0134425D01*
X0213407Y0134507D01*
X0213383Y0134590D01*
X0213362Y0134674D01*
X0213345Y0134759D01*
X0213332Y0134844D01*
X0213323Y0134930D01*
X0213317Y0135017D01*
X0213315Y0135103D01*
X0213316Y0135103D02*
X0213318Y0135164D01*
X0213324Y0135225D01*
X0213334Y0135285D01*
X0213348Y0135344D01*
X0213366Y0135403D01*
X0213387Y0135460D01*
X0213412Y0135516D01*
X0213441Y0135570D01*
X0213473Y0135621D01*
X0213509Y0135671D01*
X0213548Y0135718D01*
X0213589Y0135763D01*
X0213634Y0135804D01*
X0213681Y0135843D01*
X0213731Y0135879D01*
X0213783Y0135911D01*
X0213836Y0135940D01*
X0213892Y0135965D01*
X0213949Y0135986D01*
X0214008Y0136004D01*
X0214067Y0136018D01*
X0214127Y0136028D01*
X0214188Y0136034D01*
X0214249Y0136036D01*
X0214249Y0136037D02*
X0214307Y0136035D01*
X0214365Y0136030D01*
X0214422Y0136021D01*
X0214478Y0136009D01*
X0214534Y0135993D01*
X0214589Y0135974D01*
X0214642Y0135952D01*
X0214694Y0135926D01*
X0214744Y0135897D01*
X0214793Y0135866D01*
X0214839Y0135831D01*
X0214883Y0135794D01*
X0214925Y0135754D01*
X0214964Y0135711D01*
X0215001Y0135666D01*
X0215035Y0135619D01*
X0215066Y0135570D01*
X0220816Y0138136D02*
X0225016Y0138136D01*
X0223616Y0138136D02*
X0223616Y0139303D01*
X0223614Y0139353D01*
X0223609Y0139403D01*
X0223600Y0139452D01*
X0223588Y0139500D01*
X0223572Y0139548D01*
X0223553Y0139594D01*
X0223530Y0139638D01*
X0223505Y0139681D01*
X0223476Y0139722D01*
X0223445Y0139761D01*
X0223411Y0139798D01*
X0223374Y0139832D01*
X0223335Y0139863D01*
X0223294Y0139892D01*
X0223251Y0139917D01*
X0223207Y0139940D01*
X0223161Y0139959D01*
X0223113Y0139975D01*
X0223065Y0139987D01*
X0223016Y0139996D01*
X0222966Y0140001D01*
X0222916Y0140003D01*
X0220816Y0140003D01*
X0221749Y0142186D02*
X0222683Y0142186D01*
X0222683Y0142187D02*
X0222743Y0142189D01*
X0222802Y0142195D01*
X0222861Y0142204D01*
X0222920Y0142218D01*
X0222977Y0142235D01*
X0223033Y0142255D01*
X0223088Y0142279D01*
X0223141Y0142307D01*
X0223192Y0142338D01*
X0223241Y0142372D01*
X0223288Y0142410D01*
X0223332Y0142450D01*
X0223374Y0142493D01*
X0223412Y0142538D01*
X0223448Y0142586D01*
X0223481Y0142636D01*
X0223510Y0142688D01*
X0223536Y0142742D01*
X0223559Y0142798D01*
X0223577Y0142855D01*
X0223593Y0142912D01*
X0223604Y0142971D01*
X0223612Y0143030D01*
X0223616Y0143090D01*
X0223616Y0143150D01*
X0223612Y0143210D01*
X0223604Y0143269D01*
X0223593Y0143328D01*
X0223577Y0143385D01*
X0223559Y0143442D01*
X0223536Y0143498D01*
X0223510Y0143552D01*
X0223481Y0143604D01*
X0223448Y0143654D01*
X0223412Y0143702D01*
X0223374Y0143747D01*
X0223332Y0143790D01*
X0223288Y0143830D01*
X0223241Y0143868D01*
X0223192Y0143902D01*
X0223141Y0143933D01*
X0223088Y0143961D01*
X0223033Y0143985D01*
X0222977Y0144005D01*
X0222920Y0144022D01*
X0222861Y0144036D01*
X0222802Y0144045D01*
X0222743Y0144051D01*
X0222683Y0144053D01*
X0221749Y0144053D01*
X0221689Y0144051D01*
X0221630Y0144045D01*
X0221571Y0144036D01*
X0221512Y0144022D01*
X0221455Y0144005D01*
X0221399Y0143985D01*
X0221344Y0143961D01*
X0221291Y0143933D01*
X0221240Y0143902D01*
X0221191Y0143868D01*
X0221144Y0143830D01*
X0221100Y0143790D01*
X0221058Y0143747D01*
X0221020Y0143702D01*
X0220984Y0143654D01*
X0220951Y0143604D01*
X0220922Y0143552D01*
X0220896Y0143498D01*
X0220873Y0143442D01*
X0220855Y0143385D01*
X0220839Y0143328D01*
X0220828Y0143269D01*
X0220820Y0143210D01*
X0220816Y0143150D01*
X0220816Y0143090D01*
X0220820Y0143030D01*
X0220828Y0142971D01*
X0220839Y0142912D01*
X0220855Y0142855D01*
X0220873Y0142798D01*
X0220896Y0142742D01*
X0220922Y0142688D01*
X0220951Y0142636D01*
X0220984Y0142586D01*
X0221020Y0142538D01*
X0221058Y0142493D01*
X0221100Y0142450D01*
X0221144Y0142410D01*
X0221191Y0142372D01*
X0221240Y0142338D01*
X0221291Y0142307D01*
X0221344Y0142279D01*
X0221399Y0142255D01*
X0221455Y0142235D01*
X0221512Y0142218D01*
X0221571Y0142204D01*
X0221630Y0142195D01*
X0221689Y0142189D01*
X0221749Y0142187D01*
X0220816Y0146276D02*
X0223616Y0146276D01*
X0223616Y0147676D01*
X0223149Y0147676D01*
X0223616Y0148815D02*
X0223616Y0150215D01*
X0225016Y0149282D02*
X0221516Y0149282D01*
X0221466Y0149284D01*
X0221416Y0149289D01*
X0221367Y0149298D01*
X0221319Y0149310D01*
X0221271Y0149326D01*
X0221225Y0149345D01*
X0221181Y0149368D01*
X0221138Y0149393D01*
X0221097Y0149422D01*
X0221058Y0149453D01*
X0221021Y0149487D01*
X0220987Y0149524D01*
X0220956Y0149563D01*
X0220927Y0149604D01*
X0220902Y0149647D01*
X0220879Y0149691D01*
X0220860Y0149737D01*
X0220844Y0149785D01*
X0220832Y0149833D01*
X0220823Y0149882D01*
X0220818Y0149932D01*
X0220816Y0149982D01*
X0220816Y0150215D01*
X0222566Y0135570D02*
X0223266Y0134286D01*
X0225016Y0134753D02*
X0225014Y0134833D01*
X0225009Y0134914D01*
X0224999Y0134994D01*
X0224987Y0135073D01*
X0224970Y0135152D01*
X0224950Y0135230D01*
X0224926Y0135306D01*
X0224899Y0135382D01*
X0224868Y0135456D01*
X0224834Y0135529D01*
X0224797Y0135601D01*
X0224756Y0135670D01*
X0224713Y0135738D01*
X0224666Y0135803D01*
X0223266Y0134287D02*
X0223297Y0134238D01*
X0223331Y0134191D01*
X0223368Y0134146D01*
X0223407Y0134103D01*
X0223449Y0134063D01*
X0223493Y0134026D01*
X0223539Y0133991D01*
X0223588Y0133960D01*
X0223638Y0133931D01*
X0223690Y0133905D01*
X0223743Y0133883D01*
X0223798Y0133864D01*
X0223854Y0133848D01*
X0223910Y0133836D01*
X0223967Y0133827D01*
X0224025Y0133822D01*
X0224083Y0133820D01*
X0224142Y0133822D01*
X0224200Y0133827D01*
X0224258Y0133837D01*
X0224315Y0133849D01*
X0224371Y0133866D01*
X0224426Y0133886D01*
X0224480Y0133909D01*
X0224532Y0133935D01*
X0224583Y0133965D01*
X0224631Y0133998D01*
X0224678Y0134034D01*
X0224722Y0134073D01*
X0224763Y0134114D01*
X0224802Y0134158D01*
X0224838Y0134205D01*
X0224871Y0134253D01*
X0224901Y0134304D01*
X0224927Y0134356D01*
X0224950Y0134410D01*
X0224970Y0134465D01*
X0224987Y0134521D01*
X0224999Y0134578D01*
X0225009Y0134636D01*
X0225014Y0134694D01*
X0225016Y0134753D01*
X0221398Y0133703D02*
X0221338Y0133765D01*
X0221281Y0133830D01*
X0221227Y0133897D01*
X0221175Y0133967D01*
X0221127Y0134038D01*
X0221082Y0134112D01*
X0221040Y0134188D01*
X0221002Y0134265D01*
X0220967Y0134345D01*
X0220935Y0134425D01*
X0220907Y0134507D01*
X0220883Y0134590D01*
X0220862Y0134674D01*
X0220845Y0134759D01*
X0220832Y0134844D01*
X0220823Y0134930D01*
X0220817Y0135017D01*
X0220815Y0135103D01*
X0220816Y0135103D02*
X0220818Y0135164D01*
X0220824Y0135225D01*
X0220834Y0135285D01*
X0220848Y0135344D01*
X0220866Y0135403D01*
X0220887Y0135460D01*
X0220912Y0135516D01*
X0220941Y0135570D01*
X0220973Y0135621D01*
X0221009Y0135671D01*
X0221048Y0135718D01*
X0221089Y0135763D01*
X0221134Y0135804D01*
X0221181Y0135843D01*
X0221231Y0135879D01*
X0221283Y0135911D01*
X0221336Y0135940D01*
X0221392Y0135965D01*
X0221449Y0135986D01*
X0221508Y0136004D01*
X0221567Y0136018D01*
X0221627Y0136028D01*
X0221688Y0136034D01*
X0221749Y0136036D01*
X0221749Y0136037D02*
X0221807Y0136035D01*
X0221865Y0136030D01*
X0221922Y0136021D01*
X0221978Y0136009D01*
X0222034Y0135993D01*
X0222089Y0135974D01*
X0222142Y0135952D01*
X0222194Y0135926D01*
X0222244Y0135897D01*
X0222293Y0135866D01*
X0222339Y0135831D01*
X0222383Y0135794D01*
X0222425Y0135754D01*
X0222464Y0135711D01*
X0222501Y0135666D01*
X0222535Y0135619D01*
X0222566Y0135570D01*
X0222438Y0121653D02*
X0222438Y0118386D01*
X0222439Y0118386D02*
X0222441Y0118327D01*
X0222446Y0118269D01*
X0222456Y0118211D01*
X0222468Y0118154D01*
X0222485Y0118098D01*
X0222505Y0118043D01*
X0222528Y0117989D01*
X0222554Y0117937D01*
X0222584Y0117886D01*
X0222617Y0117838D01*
X0222653Y0117791D01*
X0222692Y0117747D01*
X0222733Y0117706D01*
X0222777Y0117667D01*
X0222824Y0117631D01*
X0222872Y0117598D01*
X0222923Y0117568D01*
X0222975Y0117542D01*
X0223029Y0117519D01*
X0223084Y0117499D01*
X0223140Y0117482D01*
X0223197Y0117470D01*
X0223255Y0117460D01*
X0223313Y0117455D01*
X0223372Y0117453D01*
X0223838Y0117453D01*
X0219899Y0117453D02*
X0219899Y0121653D01*
X0218733Y0121653D01*
X0218666Y0121651D01*
X0218600Y0121645D01*
X0218534Y0121636D01*
X0218469Y0121623D01*
X0218404Y0121606D01*
X0218341Y0121585D01*
X0218279Y0121561D01*
X0218218Y0121533D01*
X0218159Y0121502D01*
X0218102Y0121468D01*
X0218047Y0121430D01*
X0217994Y0121389D01*
X0217944Y0121346D01*
X0217896Y0121299D01*
X0217851Y0121250D01*
X0217809Y0121199D01*
X0217770Y0121145D01*
X0217734Y0121089D01*
X0217701Y0121031D01*
X0217671Y0120971D01*
X0217646Y0120909D01*
X0217623Y0120847D01*
X0217604Y0120783D01*
X0217589Y0120718D01*
X0217578Y0120652D01*
X0217570Y0120586D01*
X0217566Y0120519D01*
X0217566Y0120453D01*
X0217570Y0120386D01*
X0217578Y0120320D01*
X0217589Y0120254D01*
X0217604Y0120189D01*
X0217623Y0120125D01*
X0217646Y0120063D01*
X0217671Y0120001D01*
X0217701Y0119941D01*
X0217734Y0119883D01*
X0217770Y0119827D01*
X0217809Y0119773D01*
X0217851Y0119722D01*
X0217896Y0119673D01*
X0217944Y0119626D01*
X0217994Y0119583D01*
X0218047Y0119542D01*
X0218102Y0119504D01*
X0218159Y0119470D01*
X0218218Y0119439D01*
X0218279Y0119411D01*
X0218341Y0119387D01*
X0218404Y0119366D01*
X0218469Y0119349D01*
X0218534Y0119336D01*
X0218600Y0119327D01*
X0218666Y0119321D01*
X0218733Y0119319D01*
X0218733Y0119320D02*
X0219899Y0119320D01*
X0215649Y0117453D02*
X0214483Y0117453D01*
X0214416Y0117455D01*
X0214350Y0117461D01*
X0214284Y0117470D01*
X0214219Y0117483D01*
X0214154Y0117500D01*
X0214091Y0117521D01*
X0214029Y0117545D01*
X0213968Y0117573D01*
X0213909Y0117604D01*
X0213852Y0117638D01*
X0213797Y0117676D01*
X0213744Y0117717D01*
X0213694Y0117760D01*
X0213646Y0117807D01*
X0213601Y0117856D01*
X0213559Y0117907D01*
X0213520Y0117961D01*
X0213484Y0118017D01*
X0213451Y0118075D01*
X0213421Y0118135D01*
X0213396Y0118197D01*
X0213373Y0118259D01*
X0213354Y0118323D01*
X0213339Y0118388D01*
X0213328Y0118454D01*
X0213320Y0118520D01*
X0213316Y0118587D01*
X0213316Y0118653D01*
X0213320Y0118720D01*
X0213328Y0118786D01*
X0213339Y0118852D01*
X0213354Y0118917D01*
X0213373Y0118981D01*
X0213396Y0119043D01*
X0213421Y0119105D01*
X0213451Y0119165D01*
X0213484Y0119223D01*
X0213520Y0119279D01*
X0213559Y0119333D01*
X0213601Y0119384D01*
X0213646Y0119433D01*
X0213694Y0119480D01*
X0213744Y0119523D01*
X0213797Y0119564D01*
X0213852Y0119602D01*
X0213909Y0119636D01*
X0213968Y0119667D01*
X0214029Y0119695D01*
X0214091Y0119719D01*
X0214154Y0119740D01*
X0214219Y0119757D01*
X0214284Y0119770D01*
X0214350Y0119779D01*
X0214416Y0119785D01*
X0214483Y0119787D01*
X0214249Y0119786D02*
X0215183Y0119786D01*
X0214249Y0119787D02*
X0214189Y0119789D01*
X0214130Y0119795D01*
X0214071Y0119804D01*
X0214012Y0119818D01*
X0213955Y0119835D01*
X0213899Y0119855D01*
X0213844Y0119879D01*
X0213791Y0119907D01*
X0213740Y0119938D01*
X0213691Y0119972D01*
X0213644Y0120010D01*
X0213600Y0120050D01*
X0213558Y0120093D01*
X0213520Y0120138D01*
X0213484Y0120186D01*
X0213451Y0120236D01*
X0213422Y0120288D01*
X0213396Y0120342D01*
X0213373Y0120398D01*
X0213355Y0120455D01*
X0213339Y0120512D01*
X0213328Y0120571D01*
X0213320Y0120630D01*
X0213316Y0120690D01*
X0213316Y0120750D01*
X0213320Y0120810D01*
X0213328Y0120869D01*
X0213339Y0120928D01*
X0213355Y0120985D01*
X0213373Y0121042D01*
X0213396Y0121098D01*
X0213422Y0121152D01*
X0213451Y0121204D01*
X0213484Y0121254D01*
X0213520Y0121302D01*
X0213558Y0121347D01*
X0213600Y0121390D01*
X0213644Y0121430D01*
X0213691Y0121468D01*
X0213740Y0121502D01*
X0213791Y0121533D01*
X0213844Y0121561D01*
X0213899Y0121585D01*
X0213955Y0121605D01*
X0214012Y0121622D01*
X0214071Y0121636D01*
X0214130Y0121645D01*
X0214189Y0121651D01*
X0214249Y0121653D01*
X0215649Y0121653D01*
X0243316Y0121223D02*
X0243316Y0123556D01*
X0243316Y0121223D02*
X0245649Y0123206D01*
X0247516Y0122506D02*
X0247514Y0122435D01*
X0247509Y0122365D01*
X0247499Y0122295D01*
X0247486Y0122225D01*
X0247470Y0122157D01*
X0247450Y0122089D01*
X0247426Y0122022D01*
X0247399Y0121957D01*
X0247369Y0121893D01*
X0247335Y0121831D01*
X0247298Y0121771D01*
X0247258Y0121713D01*
X0247215Y0121656D01*
X0247169Y0121603D01*
X0247120Y0121552D01*
X0247069Y0121503D01*
X0247015Y0121457D01*
X0246959Y0121414D01*
X0246901Y0121374D01*
X0246841Y0121337D01*
X0246778Y0121304D01*
X0246715Y0121273D01*
X0246649Y0121246D01*
X0246583Y0121223D01*
X0245649Y0123206D02*
X0245696Y0123252D01*
X0245744Y0123295D01*
X0245796Y0123335D01*
X0245849Y0123373D01*
X0245905Y0123407D01*
X0245962Y0123437D01*
X0246022Y0123465D01*
X0246082Y0123489D01*
X0246144Y0123509D01*
X0246207Y0123526D01*
X0246271Y0123539D01*
X0246336Y0123548D01*
X0246401Y0123554D01*
X0246466Y0123556D01*
X0246529Y0123554D01*
X0246593Y0123548D01*
X0246655Y0123539D01*
X0246717Y0123525D01*
X0246778Y0123508D01*
X0246838Y0123488D01*
X0246897Y0123463D01*
X0246954Y0123436D01*
X0247009Y0123405D01*
X0247062Y0123370D01*
X0247114Y0123333D01*
X0247162Y0123292D01*
X0247208Y0123248D01*
X0247252Y0123202D01*
X0247293Y0123154D01*
X0247330Y0123102D01*
X0247365Y0123049D01*
X0247396Y0122994D01*
X0247423Y0122937D01*
X0247448Y0122878D01*
X0247468Y0122818D01*
X0247485Y0122757D01*
X0247499Y0122695D01*
X0247508Y0122633D01*
X0247514Y0122569D01*
X0247516Y0122506D01*
X0247516Y0119320D02*
X0247516Y0118386D01*
X0247514Y0118325D01*
X0247508Y0118264D01*
X0247498Y0118204D01*
X0247484Y0118145D01*
X0247466Y0118086D01*
X0247445Y0118029D01*
X0247420Y0117973D01*
X0247391Y0117919D01*
X0247359Y0117868D01*
X0247323Y0117818D01*
X0247284Y0117771D01*
X0247243Y0117726D01*
X0247198Y0117685D01*
X0247151Y0117646D01*
X0247101Y0117610D01*
X0247049Y0117578D01*
X0246996Y0117549D01*
X0246940Y0117524D01*
X0246883Y0117503D01*
X0246824Y0117485D01*
X0246765Y0117471D01*
X0246705Y0117461D01*
X0246644Y0117455D01*
X0246583Y0117453D01*
X0244249Y0117453D01*
X0244190Y0117455D01*
X0244132Y0117460D01*
X0244074Y0117470D01*
X0244017Y0117482D01*
X0243961Y0117499D01*
X0243906Y0117519D01*
X0243852Y0117542D01*
X0243800Y0117568D01*
X0243749Y0117598D01*
X0243701Y0117631D01*
X0243654Y0117667D01*
X0243610Y0117706D01*
X0243569Y0117747D01*
X0243530Y0117791D01*
X0243494Y0117838D01*
X0243461Y0117886D01*
X0243431Y0117937D01*
X0243405Y0117989D01*
X0243382Y0118043D01*
X0243362Y0118098D01*
X0243345Y0118154D01*
X0243333Y0118211D01*
X0243323Y0118269D01*
X0243318Y0118327D01*
X0243316Y0118386D01*
X0243316Y0119320D01*
X0243899Y0136936D02*
X0244001Y0136984D01*
X0244104Y0137028D01*
X0244208Y0137069D01*
X0244314Y0137106D01*
X0244421Y0137140D01*
X0244529Y0137170D01*
X0244638Y0137197D01*
X0244747Y0137221D01*
X0244858Y0137241D01*
X0244969Y0137257D01*
X0245080Y0137270D01*
X0245192Y0137279D01*
X0245304Y0137284D01*
X0245416Y0137286D01*
X0245416Y0134953D02*
X0245528Y0134955D01*
X0245640Y0134960D01*
X0245752Y0134969D01*
X0245863Y0134982D01*
X0245974Y0134998D01*
X0246085Y0135018D01*
X0246194Y0135042D01*
X0246303Y0135069D01*
X0246411Y0135099D01*
X0246518Y0135133D01*
X0246624Y0135170D01*
X0246728Y0135211D01*
X0246831Y0135255D01*
X0246933Y0135303D01*
X0246933Y0135304D02*
X0246986Y0135324D01*
X0247037Y0135347D01*
X0247086Y0135374D01*
X0247134Y0135404D01*
X0247180Y0135437D01*
X0247223Y0135472D01*
X0247264Y0135511D01*
X0247303Y0135552D01*
X0247338Y0135596D01*
X0247371Y0135642D01*
X0247401Y0135689D01*
X0247427Y0135739D01*
X0247451Y0135791D01*
X0247470Y0135843D01*
X0247487Y0135897D01*
X0247499Y0135952D01*
X0247509Y0136008D01*
X0247514Y0136064D01*
X0247516Y0136120D01*
X0247514Y0136176D01*
X0247509Y0136232D01*
X0247499Y0136288D01*
X0247487Y0136343D01*
X0247470Y0136397D01*
X0247451Y0136449D01*
X0247427Y0136501D01*
X0247401Y0136551D01*
X0247371Y0136598D01*
X0247339Y0136644D01*
X0247303Y0136688D01*
X0247264Y0136729D01*
X0247223Y0136768D01*
X0247180Y0136803D01*
X0247134Y0136836D01*
X0247086Y0136866D01*
X0247037Y0136893D01*
X0246986Y0136916D01*
X0246933Y0136936D01*
X0246583Y0137053D02*
X0244249Y0135186D01*
X0243316Y0136120D02*
X0243318Y0136176D01*
X0243323Y0136232D01*
X0243333Y0136288D01*
X0243345Y0136343D01*
X0243362Y0136397D01*
X0243381Y0136449D01*
X0243405Y0136501D01*
X0243431Y0136551D01*
X0243461Y0136598D01*
X0243493Y0136644D01*
X0243529Y0136688D01*
X0243568Y0136729D01*
X0243609Y0136768D01*
X0243652Y0136803D01*
X0243698Y0136836D01*
X0243746Y0136866D01*
X0243795Y0136893D01*
X0243846Y0136916D01*
X0243899Y0136936D01*
X0243316Y0136120D02*
X0243318Y0136064D01*
X0243323Y0136008D01*
X0243333Y0135952D01*
X0243345Y0135897D01*
X0243362Y0135843D01*
X0243381Y0135791D01*
X0243405Y0135739D01*
X0243431Y0135689D01*
X0243461Y0135642D01*
X0243493Y0135596D01*
X0243529Y0135552D01*
X0243568Y0135511D01*
X0243609Y0135472D01*
X0243652Y0135437D01*
X0243698Y0135404D01*
X0243746Y0135374D01*
X0243795Y0135347D01*
X0243846Y0135324D01*
X0243899Y0135304D01*
X0245416Y0137286D02*
X0245528Y0137284D01*
X0245640Y0137279D01*
X0245752Y0137270D01*
X0245863Y0137257D01*
X0245974Y0137241D01*
X0246085Y0137221D01*
X0246194Y0137197D01*
X0246303Y0137170D01*
X0246411Y0137140D01*
X0246518Y0137106D01*
X0246624Y0137069D01*
X0246728Y0137028D01*
X0246831Y0136984D01*
X0246933Y0136936D01*
X0245416Y0134953D02*
X0245304Y0134955D01*
X0245192Y0134960D01*
X0245080Y0134969D01*
X0244969Y0134982D01*
X0244858Y0134998D01*
X0244747Y0135018D01*
X0244638Y0135042D01*
X0244529Y0135069D01*
X0244421Y0135099D01*
X0244314Y0135133D01*
X0244208Y0135170D01*
X0244104Y0135211D01*
X0244001Y0135255D01*
X0243899Y0135303D01*
X0243549Y0139153D02*
X0243549Y0139386D01*
X0243316Y0139386D01*
X0243316Y0139153D01*
X0243549Y0139153D01*
X0243316Y0141253D02*
X0243316Y0143586D01*
X0243316Y0142420D02*
X0247516Y0142420D01*
X0246583Y0141253D01*
X0250816Y0139889D02*
X0250816Y0138723D01*
X0250816Y0139889D02*
X0250818Y0139956D01*
X0250824Y0140022D01*
X0250833Y0140088D01*
X0250846Y0140153D01*
X0250863Y0140218D01*
X0250884Y0140281D01*
X0250908Y0140343D01*
X0250936Y0140404D01*
X0250967Y0140463D01*
X0251001Y0140520D01*
X0251039Y0140575D01*
X0251080Y0140628D01*
X0251123Y0140678D01*
X0251170Y0140726D01*
X0251219Y0140771D01*
X0251270Y0140813D01*
X0251324Y0140852D01*
X0251380Y0140888D01*
X0251438Y0140921D01*
X0251498Y0140951D01*
X0251560Y0140976D01*
X0251622Y0140999D01*
X0251686Y0141018D01*
X0251751Y0141033D01*
X0251817Y0141044D01*
X0251883Y0141052D01*
X0251950Y0141056D01*
X0252016Y0141056D01*
X0252083Y0141052D01*
X0252149Y0141044D01*
X0252215Y0141033D01*
X0252280Y0141018D01*
X0252344Y0140999D01*
X0252406Y0140976D01*
X0252468Y0140951D01*
X0252528Y0140921D01*
X0252586Y0140888D01*
X0252642Y0140852D01*
X0252696Y0140813D01*
X0252747Y0140771D01*
X0252796Y0140726D01*
X0252843Y0140678D01*
X0252886Y0140628D01*
X0252927Y0140575D01*
X0252965Y0140520D01*
X0252999Y0140463D01*
X0253030Y0140404D01*
X0253058Y0140343D01*
X0253082Y0140281D01*
X0253103Y0140218D01*
X0253120Y0140153D01*
X0253133Y0140088D01*
X0253142Y0140022D01*
X0253148Y0139956D01*
X0253150Y0139889D01*
X0253149Y0140123D02*
X0253149Y0139189D01*
X0253150Y0140123D02*
X0253152Y0140183D01*
X0253158Y0140242D01*
X0253167Y0140301D01*
X0253181Y0140360D01*
X0253198Y0140417D01*
X0253218Y0140473D01*
X0253242Y0140528D01*
X0253270Y0140581D01*
X0253301Y0140632D01*
X0253335Y0140681D01*
X0253373Y0140728D01*
X0253413Y0140772D01*
X0253456Y0140814D01*
X0253501Y0140852D01*
X0253549Y0140888D01*
X0253599Y0140921D01*
X0253651Y0140950D01*
X0253705Y0140976D01*
X0253761Y0140999D01*
X0253818Y0141017D01*
X0253875Y0141033D01*
X0253934Y0141044D01*
X0253993Y0141052D01*
X0254053Y0141056D01*
X0254113Y0141056D01*
X0254173Y0141052D01*
X0254232Y0141044D01*
X0254291Y0141033D01*
X0254348Y0141017D01*
X0254405Y0140999D01*
X0254461Y0140976D01*
X0254515Y0140950D01*
X0254567Y0140921D01*
X0254617Y0140888D01*
X0254665Y0140852D01*
X0254710Y0140814D01*
X0254753Y0140772D01*
X0254793Y0140728D01*
X0254831Y0140681D01*
X0254865Y0140632D01*
X0254896Y0140581D01*
X0254924Y0140528D01*
X0254948Y0140473D01*
X0254968Y0140417D01*
X0254985Y0140360D01*
X0254999Y0140301D01*
X0255008Y0140242D01*
X0255014Y0140183D01*
X0255016Y0140123D01*
X0255016Y0138723D01*
X0255016Y0136820D02*
X0255016Y0135886D01*
X0255014Y0135825D01*
X0255008Y0135764D01*
X0254998Y0135704D01*
X0254984Y0135645D01*
X0254966Y0135586D01*
X0254945Y0135529D01*
X0254920Y0135473D01*
X0254891Y0135419D01*
X0254859Y0135368D01*
X0254823Y0135318D01*
X0254784Y0135271D01*
X0254743Y0135226D01*
X0254698Y0135185D01*
X0254651Y0135146D01*
X0254601Y0135110D01*
X0254549Y0135078D01*
X0254496Y0135049D01*
X0254440Y0135024D01*
X0254383Y0135003D01*
X0254324Y0134985D01*
X0254265Y0134971D01*
X0254205Y0134961D01*
X0254144Y0134955D01*
X0254083Y0134953D01*
X0251749Y0134953D01*
X0251690Y0134955D01*
X0251632Y0134960D01*
X0251574Y0134970D01*
X0251517Y0134982D01*
X0251461Y0134999D01*
X0251406Y0135019D01*
X0251352Y0135042D01*
X0251300Y0135068D01*
X0251249Y0135098D01*
X0251201Y0135131D01*
X0251154Y0135167D01*
X0251110Y0135206D01*
X0251069Y0135247D01*
X0251030Y0135291D01*
X0250994Y0135338D01*
X0250961Y0135386D01*
X0250931Y0135437D01*
X0250905Y0135489D01*
X0250882Y0135543D01*
X0250862Y0135598D01*
X0250845Y0135654D01*
X0250833Y0135711D01*
X0250823Y0135769D01*
X0250818Y0135827D01*
X0250816Y0135886D01*
X0250816Y0136820D01*
X0246116Y0145836D02*
X0244016Y0145836D01*
X0243966Y0145838D01*
X0243916Y0145843D01*
X0243867Y0145852D01*
X0243819Y0145864D01*
X0243771Y0145880D01*
X0243725Y0145899D01*
X0243681Y0145922D01*
X0243638Y0145947D01*
X0243597Y0145976D01*
X0243558Y0146007D01*
X0243521Y0146041D01*
X0243487Y0146078D01*
X0243456Y0146117D01*
X0243427Y0146158D01*
X0243402Y0146201D01*
X0243379Y0146245D01*
X0243360Y0146291D01*
X0243344Y0146339D01*
X0243332Y0146387D01*
X0243323Y0146436D01*
X0243318Y0146486D01*
X0243316Y0146536D01*
X0243316Y0147703D01*
X0246116Y0147703D01*
X0245649Y0150116D02*
X0245649Y0151983D01*
X0247516Y0151983D02*
X0247516Y0150116D01*
X0243316Y0150116D01*
X0134622Y0081203D02*
X0134563Y0081205D01*
X0134505Y0081210D01*
X0134447Y0081220D01*
X0134390Y0081232D01*
X0134334Y0081249D01*
X0134279Y0081269D01*
X0134225Y0081292D01*
X0134173Y0081318D01*
X0134122Y0081348D01*
X0134074Y0081381D01*
X0134027Y0081417D01*
X0133983Y0081456D01*
X0133942Y0081497D01*
X0133903Y0081541D01*
X0133867Y0081588D01*
X0133834Y0081636D01*
X0133804Y0081687D01*
X0133778Y0081739D01*
X0133755Y0081793D01*
X0133735Y0081848D01*
X0133718Y0081904D01*
X0133706Y0081961D01*
X0133696Y0082019D01*
X0133691Y0082077D01*
X0133689Y0082136D01*
X0133688Y0082136D02*
X0133688Y0085403D01*
X0131149Y0085403D02*
X0129983Y0085403D01*
X0131149Y0085403D02*
X0131149Y0081203D01*
X0131149Y0083070D02*
X0129983Y0083070D01*
X0129983Y0083069D02*
X0129916Y0083071D01*
X0129850Y0083077D01*
X0129784Y0083086D01*
X0129719Y0083099D01*
X0129654Y0083116D01*
X0129591Y0083137D01*
X0129529Y0083161D01*
X0129468Y0083189D01*
X0129409Y0083220D01*
X0129352Y0083254D01*
X0129297Y0083292D01*
X0129244Y0083333D01*
X0129194Y0083376D01*
X0129146Y0083423D01*
X0129101Y0083472D01*
X0129059Y0083523D01*
X0129020Y0083577D01*
X0128984Y0083633D01*
X0128951Y0083691D01*
X0128921Y0083751D01*
X0128896Y0083813D01*
X0128873Y0083875D01*
X0128854Y0083939D01*
X0128839Y0084004D01*
X0128828Y0084070D01*
X0128820Y0084136D01*
X0128816Y0084203D01*
X0128816Y0084269D01*
X0128820Y0084336D01*
X0128828Y0084402D01*
X0128839Y0084468D01*
X0128854Y0084533D01*
X0128873Y0084597D01*
X0128896Y0084659D01*
X0128921Y0084721D01*
X0128951Y0084781D01*
X0128984Y0084839D01*
X0129020Y0084895D01*
X0129059Y0084949D01*
X0129101Y0085000D01*
X0129146Y0085049D01*
X0129194Y0085096D01*
X0129244Y0085139D01*
X0129297Y0085180D01*
X0129352Y0085218D01*
X0129409Y0085252D01*
X0129468Y0085283D01*
X0129529Y0085311D01*
X0129591Y0085335D01*
X0129654Y0085356D01*
X0129719Y0085373D01*
X0129784Y0085386D01*
X0129850Y0085395D01*
X0129916Y0085401D01*
X0129983Y0085403D01*
X0124916Y0083536D02*
X0124870Y0083583D01*
X0124827Y0083631D01*
X0124787Y0083683D01*
X0124749Y0083736D01*
X0124715Y0083792D01*
X0124685Y0083849D01*
X0124657Y0083909D01*
X0124633Y0083969D01*
X0124613Y0084031D01*
X0124596Y0084094D01*
X0124583Y0084158D01*
X0124574Y0084223D01*
X0124568Y0084288D01*
X0124566Y0084353D01*
X0124916Y0083536D02*
X0126899Y0081203D01*
X0124566Y0081203D01*
X0126899Y0084470D02*
X0126876Y0084536D01*
X0126849Y0084602D01*
X0126818Y0084665D01*
X0126785Y0084728D01*
X0126748Y0084788D01*
X0126708Y0084846D01*
X0126665Y0084902D01*
X0126619Y0084956D01*
X0126570Y0085007D01*
X0126519Y0085056D01*
X0126466Y0085102D01*
X0126409Y0085145D01*
X0126351Y0085185D01*
X0126291Y0085222D01*
X0126229Y0085256D01*
X0126165Y0085286D01*
X0126100Y0085313D01*
X0126033Y0085337D01*
X0125965Y0085357D01*
X0125897Y0085373D01*
X0125827Y0085386D01*
X0125757Y0085396D01*
X0125687Y0085401D01*
X0125616Y0085403D01*
X0125553Y0085401D01*
X0125489Y0085395D01*
X0125427Y0085386D01*
X0125365Y0085372D01*
X0125304Y0085355D01*
X0125244Y0085335D01*
X0125185Y0085310D01*
X0125128Y0085283D01*
X0125073Y0085252D01*
X0125020Y0085217D01*
X0124968Y0085180D01*
X0124920Y0085139D01*
X0124874Y0085095D01*
X0124830Y0085049D01*
X0124789Y0085001D01*
X0124752Y0084949D01*
X0124717Y0084896D01*
X0124686Y0084841D01*
X0124659Y0084784D01*
X0124634Y0084725D01*
X0124614Y0084665D01*
X0124597Y0084604D01*
X0124583Y0084542D01*
X0124574Y0084480D01*
X0124568Y0084416D01*
X0124566Y0084353D01*
X0115099Y0085523D02*
X0113233Y0085523D01*
X0113166Y0085525D01*
X0113100Y0085531D01*
X0113034Y0085540D01*
X0112969Y0085553D01*
X0112904Y0085570D01*
X0112841Y0085591D01*
X0112779Y0085615D01*
X0112718Y0085643D01*
X0112659Y0085674D01*
X0112602Y0085708D01*
X0112547Y0085746D01*
X0112494Y0085787D01*
X0112444Y0085830D01*
X0112396Y0085877D01*
X0112351Y0085926D01*
X0112309Y0085977D01*
X0112270Y0086031D01*
X0112234Y0086087D01*
X0112201Y0086145D01*
X0112171Y0086205D01*
X0112146Y0086267D01*
X0112123Y0086329D01*
X0112104Y0086393D01*
X0112089Y0086458D01*
X0112078Y0086524D01*
X0112070Y0086590D01*
X0112066Y0086657D01*
X0112066Y0086723D01*
X0112070Y0086790D01*
X0112078Y0086856D01*
X0112089Y0086922D01*
X0112104Y0086987D01*
X0112123Y0087051D01*
X0112146Y0087113D01*
X0112171Y0087175D01*
X0112201Y0087235D01*
X0112234Y0087293D01*
X0112270Y0087349D01*
X0112309Y0087403D01*
X0112351Y0087454D01*
X0112396Y0087503D01*
X0112444Y0087550D01*
X0112494Y0087593D01*
X0112547Y0087634D01*
X0112602Y0087672D01*
X0112659Y0087706D01*
X0112718Y0087737D01*
X0112779Y0087765D01*
X0112841Y0087789D01*
X0112904Y0087810D01*
X0112969Y0087827D01*
X0113034Y0087840D01*
X0113100Y0087849D01*
X0113166Y0087855D01*
X0113233Y0087857D01*
X0113233Y0087856D02*
X0115099Y0087856D01*
X0115099Y0087857D02*
X0115166Y0087855D01*
X0115232Y0087849D01*
X0115298Y0087840D01*
X0115363Y0087827D01*
X0115428Y0087810D01*
X0115491Y0087789D01*
X0115553Y0087765D01*
X0115614Y0087737D01*
X0115673Y0087706D01*
X0115730Y0087672D01*
X0115785Y0087634D01*
X0115838Y0087593D01*
X0115888Y0087550D01*
X0115936Y0087503D01*
X0115981Y0087454D01*
X0116023Y0087403D01*
X0116062Y0087349D01*
X0116098Y0087293D01*
X0116131Y0087235D01*
X0116161Y0087175D01*
X0116186Y0087113D01*
X0116209Y0087051D01*
X0116228Y0086987D01*
X0116243Y0086922D01*
X0116254Y0086856D01*
X0116262Y0086790D01*
X0116266Y0086723D01*
X0116266Y0086657D01*
X0116262Y0086590D01*
X0116254Y0086524D01*
X0116243Y0086458D01*
X0116228Y0086393D01*
X0116209Y0086329D01*
X0116186Y0086267D01*
X0116161Y0086205D01*
X0116131Y0086145D01*
X0116098Y0086087D01*
X0116062Y0086031D01*
X0116023Y0085977D01*
X0115981Y0085926D01*
X0115936Y0085877D01*
X0115888Y0085830D01*
X0115838Y0085787D01*
X0115785Y0085746D01*
X0115730Y0085708D01*
X0115673Y0085674D01*
X0115614Y0085643D01*
X0115553Y0085615D01*
X0115491Y0085591D01*
X0115428Y0085570D01*
X0115363Y0085553D01*
X0115298Y0085540D01*
X0115232Y0085531D01*
X0115166Y0085525D01*
X0115099Y0085523D01*
X0114399Y0080890D02*
X0114399Y0078090D01*
X0112999Y0078090D02*
X0112999Y0080890D01*
X0107599Y0083723D02*
X0105733Y0083723D01*
X0105666Y0083725D01*
X0105600Y0083731D01*
X0105534Y0083740D01*
X0105469Y0083753D01*
X0105404Y0083770D01*
X0105341Y0083791D01*
X0105279Y0083815D01*
X0105218Y0083843D01*
X0105159Y0083874D01*
X0105102Y0083908D01*
X0105047Y0083946D01*
X0104994Y0083987D01*
X0104944Y0084030D01*
X0104896Y0084077D01*
X0104851Y0084126D01*
X0104809Y0084177D01*
X0104770Y0084231D01*
X0104734Y0084287D01*
X0104701Y0084345D01*
X0104671Y0084405D01*
X0104646Y0084467D01*
X0104623Y0084529D01*
X0104604Y0084593D01*
X0104589Y0084658D01*
X0104578Y0084724D01*
X0104570Y0084790D01*
X0104566Y0084857D01*
X0104566Y0084923D01*
X0104570Y0084990D01*
X0104578Y0085056D01*
X0104589Y0085122D01*
X0104604Y0085187D01*
X0104623Y0085251D01*
X0104646Y0085313D01*
X0104671Y0085375D01*
X0104701Y0085435D01*
X0104734Y0085493D01*
X0104770Y0085549D01*
X0104809Y0085603D01*
X0104851Y0085654D01*
X0104896Y0085703D01*
X0104944Y0085750D01*
X0104994Y0085793D01*
X0105047Y0085834D01*
X0105102Y0085872D01*
X0105159Y0085906D01*
X0105218Y0085937D01*
X0105279Y0085965D01*
X0105341Y0085989D01*
X0105404Y0086010D01*
X0105469Y0086027D01*
X0105534Y0086040D01*
X0105600Y0086049D01*
X0105666Y0086055D01*
X0105733Y0086057D01*
X0107599Y0086057D01*
X0107666Y0086055D01*
X0107732Y0086049D01*
X0107798Y0086040D01*
X0107863Y0086027D01*
X0107928Y0086010D01*
X0107991Y0085989D01*
X0108053Y0085965D01*
X0108114Y0085937D01*
X0108173Y0085906D01*
X0108230Y0085872D01*
X0108285Y0085834D01*
X0108338Y0085793D01*
X0108388Y0085750D01*
X0108436Y0085703D01*
X0108481Y0085654D01*
X0108523Y0085603D01*
X0108562Y0085549D01*
X0108598Y0085493D01*
X0108631Y0085435D01*
X0108661Y0085375D01*
X0108686Y0085313D01*
X0108709Y0085251D01*
X0108728Y0085187D01*
X0108743Y0085122D01*
X0108754Y0085056D01*
X0108762Y0084990D01*
X0108766Y0084923D01*
X0108766Y0084857D01*
X0108762Y0084790D01*
X0108754Y0084724D01*
X0108743Y0084658D01*
X0108728Y0084593D01*
X0108709Y0084529D01*
X0108686Y0084467D01*
X0108661Y0084405D01*
X0108631Y0084345D01*
X0108598Y0084287D01*
X0108562Y0084231D01*
X0108523Y0084177D01*
X0108481Y0084126D01*
X0108436Y0084077D01*
X0108388Y0084030D01*
X0108338Y0083987D01*
X0108285Y0083946D01*
X0108230Y0083908D01*
X0108173Y0083874D01*
X0108114Y0083843D01*
X0108053Y0083815D01*
X0107991Y0083791D01*
X0107928Y0083770D01*
X0107863Y0083753D01*
X0107798Y0083740D01*
X0107732Y0083731D01*
X0107666Y0083725D01*
X0107599Y0083723D01*
X0106899Y0079090D02*
X0106899Y0076290D01*
X0105499Y0076290D02*
X0105499Y0079090D01*
X0112066Y0073685D02*
X0112066Y0073452D01*
X0112068Y0073402D01*
X0112073Y0073352D01*
X0112082Y0073303D01*
X0112094Y0073255D01*
X0112110Y0073207D01*
X0112129Y0073161D01*
X0112152Y0073117D01*
X0112177Y0073074D01*
X0112206Y0073033D01*
X0112237Y0072994D01*
X0112271Y0072957D01*
X0112308Y0072923D01*
X0112347Y0072892D01*
X0112388Y0072863D01*
X0112431Y0072838D01*
X0112475Y0072815D01*
X0112521Y0072796D01*
X0112569Y0072780D01*
X0112617Y0072768D01*
X0112666Y0072759D01*
X0112716Y0072754D01*
X0112766Y0072752D01*
X0116266Y0072752D01*
X0114866Y0072285D02*
X0114866Y0073685D01*
X0114866Y0071146D02*
X0114399Y0071146D01*
X0114866Y0071146D02*
X0114866Y0069746D01*
X0112066Y0069746D01*
X0112999Y0067523D02*
X0113933Y0067523D01*
X0113993Y0067521D01*
X0114052Y0067515D01*
X0114111Y0067506D01*
X0114170Y0067492D01*
X0114227Y0067475D01*
X0114283Y0067455D01*
X0114338Y0067431D01*
X0114391Y0067403D01*
X0114442Y0067372D01*
X0114491Y0067338D01*
X0114538Y0067300D01*
X0114582Y0067260D01*
X0114624Y0067217D01*
X0114662Y0067172D01*
X0114698Y0067124D01*
X0114731Y0067074D01*
X0114760Y0067022D01*
X0114786Y0066968D01*
X0114809Y0066912D01*
X0114827Y0066855D01*
X0114843Y0066798D01*
X0114854Y0066739D01*
X0114862Y0066680D01*
X0114866Y0066620D01*
X0114866Y0066560D01*
X0114862Y0066500D01*
X0114854Y0066441D01*
X0114843Y0066382D01*
X0114827Y0066325D01*
X0114809Y0066268D01*
X0114786Y0066212D01*
X0114760Y0066158D01*
X0114731Y0066106D01*
X0114698Y0066056D01*
X0114662Y0066008D01*
X0114624Y0065963D01*
X0114582Y0065920D01*
X0114538Y0065880D01*
X0114491Y0065842D01*
X0114442Y0065808D01*
X0114391Y0065777D01*
X0114338Y0065749D01*
X0114283Y0065725D01*
X0114227Y0065705D01*
X0114170Y0065688D01*
X0114111Y0065674D01*
X0114052Y0065665D01*
X0113993Y0065659D01*
X0113933Y0065657D01*
X0112999Y0065657D01*
X0112939Y0065659D01*
X0112880Y0065665D01*
X0112821Y0065674D01*
X0112762Y0065688D01*
X0112705Y0065705D01*
X0112649Y0065725D01*
X0112594Y0065749D01*
X0112541Y0065777D01*
X0112490Y0065808D01*
X0112441Y0065842D01*
X0112394Y0065880D01*
X0112350Y0065920D01*
X0112308Y0065963D01*
X0112270Y0066008D01*
X0112234Y0066056D01*
X0112201Y0066106D01*
X0112172Y0066158D01*
X0112146Y0066212D01*
X0112123Y0066268D01*
X0112105Y0066325D01*
X0112089Y0066382D01*
X0112078Y0066441D01*
X0112070Y0066500D01*
X0112066Y0066560D01*
X0112066Y0066620D01*
X0112070Y0066680D01*
X0112078Y0066739D01*
X0112089Y0066798D01*
X0112105Y0066855D01*
X0112123Y0066912D01*
X0112146Y0066968D01*
X0112172Y0067022D01*
X0112201Y0067074D01*
X0112234Y0067124D01*
X0112270Y0067172D01*
X0112308Y0067217D01*
X0112350Y0067260D01*
X0112394Y0067300D01*
X0112441Y0067338D01*
X0112490Y0067372D01*
X0112541Y0067403D01*
X0112594Y0067431D01*
X0112649Y0067455D01*
X0112705Y0067475D01*
X0112762Y0067492D01*
X0112821Y0067506D01*
X0112880Y0067515D01*
X0112939Y0067521D01*
X0112999Y0067523D01*
X0112066Y0063473D02*
X0114166Y0063473D01*
X0114216Y0063471D01*
X0114266Y0063466D01*
X0114315Y0063457D01*
X0114363Y0063445D01*
X0114411Y0063429D01*
X0114457Y0063410D01*
X0114501Y0063387D01*
X0114544Y0063362D01*
X0114585Y0063333D01*
X0114624Y0063302D01*
X0114661Y0063268D01*
X0114695Y0063231D01*
X0114726Y0063192D01*
X0114755Y0063151D01*
X0114780Y0063108D01*
X0114803Y0063064D01*
X0114822Y0063018D01*
X0114838Y0062970D01*
X0114850Y0062922D01*
X0114859Y0062873D01*
X0114864Y0062823D01*
X0114866Y0062773D01*
X0114866Y0061607D01*
X0116266Y0061607D02*
X0112066Y0061607D01*
X0113816Y0059040D02*
X0114516Y0057757D01*
X0116266Y0058223D02*
X0116264Y0058303D01*
X0116259Y0058384D01*
X0116249Y0058464D01*
X0116237Y0058543D01*
X0116220Y0058622D01*
X0116200Y0058700D01*
X0116176Y0058776D01*
X0116149Y0058852D01*
X0116118Y0058926D01*
X0116084Y0058999D01*
X0116047Y0059071D01*
X0116006Y0059140D01*
X0115963Y0059208D01*
X0115916Y0059273D01*
X0114516Y0057757D02*
X0114547Y0057708D01*
X0114581Y0057661D01*
X0114618Y0057616D01*
X0114657Y0057573D01*
X0114699Y0057533D01*
X0114743Y0057496D01*
X0114789Y0057461D01*
X0114838Y0057430D01*
X0114888Y0057401D01*
X0114940Y0057375D01*
X0114993Y0057353D01*
X0115048Y0057334D01*
X0115104Y0057318D01*
X0115160Y0057306D01*
X0115217Y0057297D01*
X0115275Y0057292D01*
X0115333Y0057290D01*
X0115392Y0057292D01*
X0115450Y0057297D01*
X0115508Y0057307D01*
X0115565Y0057319D01*
X0115621Y0057336D01*
X0115676Y0057356D01*
X0115730Y0057379D01*
X0115782Y0057405D01*
X0115833Y0057435D01*
X0115881Y0057468D01*
X0115928Y0057504D01*
X0115972Y0057543D01*
X0116013Y0057584D01*
X0116052Y0057628D01*
X0116088Y0057675D01*
X0116121Y0057723D01*
X0116151Y0057774D01*
X0116177Y0057826D01*
X0116200Y0057880D01*
X0116220Y0057935D01*
X0116237Y0057991D01*
X0116249Y0058048D01*
X0116259Y0058106D01*
X0116264Y0058164D01*
X0116266Y0058223D01*
X0112648Y0057173D02*
X0112588Y0057235D01*
X0112531Y0057300D01*
X0112477Y0057367D01*
X0112425Y0057437D01*
X0112377Y0057508D01*
X0112332Y0057582D01*
X0112290Y0057658D01*
X0112252Y0057735D01*
X0112217Y0057815D01*
X0112185Y0057895D01*
X0112157Y0057977D01*
X0112133Y0058060D01*
X0112112Y0058144D01*
X0112095Y0058229D01*
X0112082Y0058314D01*
X0112073Y0058400D01*
X0112067Y0058487D01*
X0112065Y0058573D01*
X0112066Y0058573D02*
X0112068Y0058634D01*
X0112074Y0058695D01*
X0112084Y0058755D01*
X0112098Y0058814D01*
X0112116Y0058873D01*
X0112137Y0058930D01*
X0112162Y0058986D01*
X0112191Y0059040D01*
X0112223Y0059091D01*
X0112259Y0059141D01*
X0112298Y0059188D01*
X0112339Y0059233D01*
X0112384Y0059274D01*
X0112431Y0059313D01*
X0112481Y0059349D01*
X0112533Y0059381D01*
X0112586Y0059410D01*
X0112642Y0059435D01*
X0112699Y0059456D01*
X0112758Y0059474D01*
X0112817Y0059488D01*
X0112877Y0059498D01*
X0112938Y0059504D01*
X0112999Y0059506D01*
X0112999Y0059507D02*
X0113057Y0059505D01*
X0113115Y0059500D01*
X0113172Y0059491D01*
X0113228Y0059479D01*
X0113284Y0059463D01*
X0113339Y0059444D01*
X0113392Y0059422D01*
X0113444Y0059396D01*
X0113494Y0059367D01*
X0113543Y0059336D01*
X0113589Y0059301D01*
X0113633Y0059264D01*
X0113675Y0059224D01*
X0113714Y0059181D01*
X0113751Y0059136D01*
X0113785Y0059089D01*
X0113816Y0059040D01*
X0107599Y0059507D02*
X0105733Y0059507D01*
X0105666Y0059505D01*
X0105600Y0059499D01*
X0105534Y0059490D01*
X0105469Y0059477D01*
X0105404Y0059460D01*
X0105341Y0059439D01*
X0105279Y0059415D01*
X0105218Y0059387D01*
X0105159Y0059356D01*
X0105102Y0059322D01*
X0105047Y0059284D01*
X0104994Y0059243D01*
X0104944Y0059200D01*
X0104896Y0059153D01*
X0104851Y0059104D01*
X0104809Y0059053D01*
X0104770Y0058999D01*
X0104734Y0058943D01*
X0104701Y0058885D01*
X0104671Y0058825D01*
X0104646Y0058763D01*
X0104623Y0058701D01*
X0104604Y0058637D01*
X0104589Y0058572D01*
X0104578Y0058506D01*
X0104570Y0058440D01*
X0104566Y0058373D01*
X0104566Y0058307D01*
X0104570Y0058240D01*
X0104578Y0058174D01*
X0104589Y0058108D01*
X0104604Y0058043D01*
X0104623Y0057979D01*
X0104646Y0057917D01*
X0104671Y0057855D01*
X0104701Y0057795D01*
X0104734Y0057737D01*
X0104770Y0057681D01*
X0104809Y0057627D01*
X0104851Y0057576D01*
X0104896Y0057527D01*
X0104944Y0057480D01*
X0104994Y0057437D01*
X0105047Y0057396D01*
X0105102Y0057358D01*
X0105159Y0057324D01*
X0105218Y0057293D01*
X0105279Y0057265D01*
X0105341Y0057241D01*
X0105404Y0057220D01*
X0105469Y0057203D01*
X0105534Y0057190D01*
X0105600Y0057181D01*
X0105666Y0057175D01*
X0105733Y0057173D01*
X0107599Y0057173D01*
X0107666Y0057175D01*
X0107732Y0057181D01*
X0107798Y0057190D01*
X0107863Y0057203D01*
X0107928Y0057220D01*
X0107991Y0057241D01*
X0108053Y0057265D01*
X0108114Y0057293D01*
X0108173Y0057324D01*
X0108230Y0057358D01*
X0108285Y0057396D01*
X0108338Y0057437D01*
X0108388Y0057480D01*
X0108436Y0057527D01*
X0108481Y0057576D01*
X0108523Y0057627D01*
X0108562Y0057681D01*
X0108598Y0057737D01*
X0108631Y0057795D01*
X0108661Y0057855D01*
X0108686Y0057917D01*
X0108709Y0057979D01*
X0108728Y0058043D01*
X0108743Y0058108D01*
X0108754Y0058174D01*
X0108762Y0058240D01*
X0108766Y0058307D01*
X0108766Y0058373D01*
X0108762Y0058440D01*
X0108754Y0058506D01*
X0108743Y0058572D01*
X0108728Y0058637D01*
X0108709Y0058701D01*
X0108686Y0058763D01*
X0108661Y0058825D01*
X0108631Y0058885D01*
X0108598Y0058943D01*
X0108562Y0058999D01*
X0108523Y0059053D01*
X0108481Y0059104D01*
X0108436Y0059153D01*
X0108388Y0059200D01*
X0108338Y0059243D01*
X0108285Y0059284D01*
X0108230Y0059322D01*
X0108173Y0059356D01*
X0108114Y0059387D01*
X0108053Y0059415D01*
X0107991Y0059439D01*
X0107928Y0059460D01*
X0107863Y0059477D01*
X0107798Y0059490D01*
X0107732Y0059499D01*
X0107666Y0059505D01*
X0107599Y0059507D01*
X0107366Y0061791D02*
X0103166Y0061791D01*
X0104566Y0061791D02*
X0104566Y0062958D01*
X0104568Y0063008D01*
X0104573Y0063058D01*
X0104582Y0063107D01*
X0104594Y0063155D01*
X0104610Y0063203D01*
X0104629Y0063249D01*
X0104652Y0063293D01*
X0104677Y0063336D01*
X0104706Y0063377D01*
X0104737Y0063416D01*
X0104771Y0063453D01*
X0104808Y0063487D01*
X0104847Y0063518D01*
X0104888Y0063547D01*
X0104931Y0063572D01*
X0104975Y0063595D01*
X0105021Y0063614D01*
X0105069Y0063630D01*
X0105117Y0063642D01*
X0105166Y0063651D01*
X0105216Y0063656D01*
X0105266Y0063658D01*
X0106666Y0063658D01*
X0106716Y0063656D01*
X0106766Y0063651D01*
X0106815Y0063642D01*
X0106863Y0063630D01*
X0106911Y0063614D01*
X0106957Y0063595D01*
X0107001Y0063572D01*
X0107044Y0063547D01*
X0107085Y0063518D01*
X0107124Y0063487D01*
X0107161Y0063453D01*
X0107195Y0063416D01*
X0107226Y0063377D01*
X0107255Y0063336D01*
X0107280Y0063293D01*
X0107303Y0063249D01*
X0107322Y0063203D01*
X0107338Y0063155D01*
X0107350Y0063107D01*
X0107359Y0063058D01*
X0107364Y0063008D01*
X0107366Y0062958D01*
X0107366Y0061791D01*
X0106433Y0065657D02*
X0105266Y0065657D01*
X0105216Y0065659D01*
X0105166Y0065664D01*
X0105117Y0065673D01*
X0105069Y0065685D01*
X0105021Y0065701D01*
X0104975Y0065720D01*
X0104931Y0065743D01*
X0104888Y0065768D01*
X0104847Y0065797D01*
X0104808Y0065828D01*
X0104771Y0065862D01*
X0104737Y0065899D01*
X0104706Y0065938D01*
X0104677Y0065979D01*
X0104652Y0066022D01*
X0104629Y0066066D01*
X0104610Y0066112D01*
X0104594Y0066160D01*
X0104582Y0066208D01*
X0104573Y0066257D01*
X0104568Y0066307D01*
X0104566Y0066357D01*
X0104566Y0067523D01*
X0105966Y0067523D02*
X0105966Y0065657D01*
X0106433Y0065657D02*
X0106493Y0065659D01*
X0106552Y0065665D01*
X0106611Y0065674D01*
X0106670Y0065688D01*
X0106727Y0065705D01*
X0106783Y0065725D01*
X0106838Y0065749D01*
X0106891Y0065777D01*
X0106942Y0065808D01*
X0106991Y0065842D01*
X0107038Y0065880D01*
X0107082Y0065920D01*
X0107124Y0065963D01*
X0107162Y0066008D01*
X0107198Y0066056D01*
X0107231Y0066106D01*
X0107260Y0066158D01*
X0107286Y0066212D01*
X0107309Y0066268D01*
X0107327Y0066325D01*
X0107343Y0066382D01*
X0107354Y0066441D01*
X0107362Y0066500D01*
X0107366Y0066560D01*
X0107366Y0066620D01*
X0107362Y0066680D01*
X0107354Y0066739D01*
X0107343Y0066798D01*
X0107327Y0066855D01*
X0107309Y0066912D01*
X0107286Y0066968D01*
X0107260Y0067022D01*
X0107231Y0067074D01*
X0107198Y0067124D01*
X0107162Y0067172D01*
X0107124Y0067217D01*
X0107082Y0067260D01*
X0107038Y0067300D01*
X0106991Y0067338D01*
X0106942Y0067372D01*
X0106891Y0067403D01*
X0106838Y0067431D01*
X0106783Y0067455D01*
X0106727Y0067475D01*
X0106670Y0067492D01*
X0106611Y0067506D01*
X0106552Y0067515D01*
X0106493Y0067521D01*
X0106433Y0067523D01*
X0105966Y0067523D01*
X0104566Y0069707D02*
X0107366Y0069707D01*
X0107366Y0070873D01*
X0107364Y0070923D01*
X0107359Y0070973D01*
X0107350Y0071022D01*
X0107338Y0071070D01*
X0107322Y0071118D01*
X0107303Y0071164D01*
X0107280Y0071208D01*
X0107255Y0071251D01*
X0107226Y0071292D01*
X0107195Y0071331D01*
X0107161Y0071368D01*
X0107124Y0071402D01*
X0107085Y0071433D01*
X0107044Y0071462D01*
X0107001Y0071487D01*
X0106957Y0071510D01*
X0106911Y0071529D01*
X0106863Y0071545D01*
X0106815Y0071557D01*
X0106766Y0071566D01*
X0106716Y0071571D01*
X0106666Y0071573D01*
X0104566Y0071573D01*
X0104566Y0088387D02*
X0108766Y0088387D01*
X0108766Y0090253D01*
X0106899Y0090253D02*
X0106899Y0088387D01*
X0106899Y0092286D02*
X0106899Y0094153D01*
X0108766Y0094153D02*
X0108766Y0092286D01*
X0104566Y0092286D01*
X0112066Y0092506D02*
X0116266Y0092506D01*
X0116266Y0090173D02*
X0112066Y0092506D01*
X0112066Y0090173D02*
X0116266Y0090173D01*
X0134622Y0081203D02*
X0135088Y0081203D01*
D12*
X0124166Y0090803D02*
X0117916Y0090803D01*
X0159166Y0091335D02*
X0159166Y0086699D01*
X0159166Y0082762D02*
X0159166Y0078126D01*
X0159166Y0074189D02*
X0159166Y0069553D01*
X0164516Y0069553D01*
X0168453Y0069553D02*
X0173804Y0069553D01*
X0177741Y0069553D02*
X0183091Y0069553D01*
X0187028Y0069553D02*
X0192378Y0069553D01*
X0196315Y0069553D02*
X0201666Y0069553D01*
X0201666Y0074189D01*
X0201666Y0078126D02*
X0201666Y0082762D01*
X0201666Y0086699D02*
X0201666Y0091335D01*
X0201666Y0095272D02*
X0201666Y0099907D01*
X0201666Y0103844D02*
X0201666Y0108480D01*
X0201666Y0112417D02*
X0201666Y0117053D01*
X0196315Y0117053D01*
X0192378Y0117053D02*
X0187028Y0117053D01*
X0183091Y0117053D02*
X0177741Y0117053D01*
X0173804Y0117053D02*
X0168453Y0117053D01*
X0164516Y0117053D02*
X0159166Y0117053D01*
X0159166Y0112417D01*
X0159166Y0108480D02*
X0159166Y0103844D01*
X0159166Y0099907D02*
X0159166Y0095272D01*
X0240416Y0098303D02*
X0252916Y0123303D01*
D13*
X0252522Y0129553D02*
X0252524Y0129592D01*
X0252530Y0129631D01*
X0252540Y0129669D01*
X0252553Y0129706D01*
X0252570Y0129741D01*
X0252590Y0129775D01*
X0252614Y0129806D01*
X0252641Y0129835D01*
X0252670Y0129861D01*
X0252702Y0129884D01*
X0252736Y0129904D01*
X0252772Y0129920D01*
X0252809Y0129932D01*
X0252848Y0129941D01*
X0252887Y0129946D01*
X0252926Y0129947D01*
X0252965Y0129944D01*
X0253004Y0129937D01*
X0253041Y0129926D01*
X0253078Y0129912D01*
X0253113Y0129894D01*
X0253146Y0129873D01*
X0253177Y0129848D01*
X0253205Y0129821D01*
X0253230Y0129791D01*
X0253252Y0129758D01*
X0253271Y0129724D01*
X0253286Y0129688D01*
X0253298Y0129650D01*
X0253306Y0129612D01*
X0253310Y0129573D01*
X0253310Y0129533D01*
X0253306Y0129494D01*
X0253298Y0129456D01*
X0253286Y0129418D01*
X0253271Y0129382D01*
X0253252Y0129348D01*
X0253230Y0129315D01*
X0253205Y0129285D01*
X0253177Y0129258D01*
X0253146Y0129233D01*
X0253113Y0129212D01*
X0253078Y0129194D01*
X0253041Y0129180D01*
X0253004Y0129169D01*
X0252965Y0129162D01*
X0252926Y0129159D01*
X0252887Y0129160D01*
X0252848Y0129165D01*
X0252809Y0129174D01*
X0252772Y0129186D01*
X0252736Y0129202D01*
X0252702Y0129222D01*
X0252670Y0129245D01*
X0252641Y0129271D01*
X0252614Y0129300D01*
X0252590Y0129331D01*
X0252570Y0129365D01*
X0252553Y0129400D01*
X0252540Y0129437D01*
X0252530Y0129475D01*
X0252524Y0129514D01*
X0252522Y0129553D01*
X0245022Y0129553D02*
X0245024Y0129592D01*
X0245030Y0129631D01*
X0245040Y0129669D01*
X0245053Y0129706D01*
X0245070Y0129741D01*
X0245090Y0129775D01*
X0245114Y0129806D01*
X0245141Y0129835D01*
X0245170Y0129861D01*
X0245202Y0129884D01*
X0245236Y0129904D01*
X0245272Y0129920D01*
X0245309Y0129932D01*
X0245348Y0129941D01*
X0245387Y0129946D01*
X0245426Y0129947D01*
X0245465Y0129944D01*
X0245504Y0129937D01*
X0245541Y0129926D01*
X0245578Y0129912D01*
X0245613Y0129894D01*
X0245646Y0129873D01*
X0245677Y0129848D01*
X0245705Y0129821D01*
X0245730Y0129791D01*
X0245752Y0129758D01*
X0245771Y0129724D01*
X0245786Y0129688D01*
X0245798Y0129650D01*
X0245806Y0129612D01*
X0245810Y0129573D01*
X0245810Y0129533D01*
X0245806Y0129494D01*
X0245798Y0129456D01*
X0245786Y0129418D01*
X0245771Y0129382D01*
X0245752Y0129348D01*
X0245730Y0129315D01*
X0245705Y0129285D01*
X0245677Y0129258D01*
X0245646Y0129233D01*
X0245613Y0129212D01*
X0245578Y0129194D01*
X0245541Y0129180D01*
X0245504Y0129169D01*
X0245465Y0129162D01*
X0245426Y0129159D01*
X0245387Y0129160D01*
X0245348Y0129165D01*
X0245309Y0129174D01*
X0245272Y0129186D01*
X0245236Y0129202D01*
X0245202Y0129222D01*
X0245170Y0129245D01*
X0245141Y0129271D01*
X0245114Y0129300D01*
X0245090Y0129331D01*
X0245070Y0129365D01*
X0245053Y0129400D01*
X0245040Y0129437D01*
X0245030Y0129475D01*
X0245024Y0129514D01*
X0245022Y0129553D01*
X0137522Y0122053D02*
X0137524Y0122092D01*
X0137530Y0122131D01*
X0137540Y0122169D01*
X0137553Y0122206D01*
X0137570Y0122241D01*
X0137590Y0122275D01*
X0137614Y0122306D01*
X0137641Y0122335D01*
X0137670Y0122361D01*
X0137702Y0122384D01*
X0137736Y0122404D01*
X0137772Y0122420D01*
X0137809Y0122432D01*
X0137848Y0122441D01*
X0137887Y0122446D01*
X0137926Y0122447D01*
X0137965Y0122444D01*
X0138004Y0122437D01*
X0138041Y0122426D01*
X0138078Y0122412D01*
X0138113Y0122394D01*
X0138146Y0122373D01*
X0138177Y0122348D01*
X0138205Y0122321D01*
X0138230Y0122291D01*
X0138252Y0122258D01*
X0138271Y0122224D01*
X0138286Y0122188D01*
X0138298Y0122150D01*
X0138306Y0122112D01*
X0138310Y0122073D01*
X0138310Y0122033D01*
X0138306Y0121994D01*
X0138298Y0121956D01*
X0138286Y0121918D01*
X0138271Y0121882D01*
X0138252Y0121848D01*
X0138230Y0121815D01*
X0138205Y0121785D01*
X0138177Y0121758D01*
X0138146Y0121733D01*
X0138113Y0121712D01*
X0138078Y0121694D01*
X0138041Y0121680D01*
X0138004Y0121669D01*
X0137965Y0121662D01*
X0137926Y0121659D01*
X0137887Y0121660D01*
X0137848Y0121665D01*
X0137809Y0121674D01*
X0137772Y0121686D01*
X0137736Y0121702D01*
X0137702Y0121722D01*
X0137670Y0121745D01*
X0137641Y0121771D01*
X0137614Y0121800D01*
X0137590Y0121831D01*
X0137570Y0121865D01*
X0137553Y0121900D01*
X0137540Y0121937D01*
X0137530Y0121975D01*
X0137524Y0122014D01*
X0137522Y0122053D01*
D14*
X0135947Y0117526D02*
X0139884Y0117526D01*
X0139884Y0126581D01*
X0135947Y0126581D01*
X0135947Y0117526D01*
X0129884Y0095134D02*
X0125947Y0095134D01*
X0125947Y0086472D01*
X0129884Y0086472D01*
X0129884Y0095134D01*
X0165947Y0095134D02*
X0165947Y0086472D01*
X0169884Y0086472D01*
X0169884Y0095134D01*
X0165947Y0095134D01*
X0165947Y0096472D02*
X0169884Y0096472D01*
X0169884Y0105134D01*
X0165947Y0105134D01*
X0165947Y0096472D01*
X0171085Y0097772D02*
X0171085Y0093835D01*
X0179747Y0093835D01*
X0179747Y0097772D01*
X0171085Y0097772D01*
X0180947Y0096472D02*
X0184884Y0096472D01*
X0184884Y0105134D01*
X0180947Y0105134D01*
X0180947Y0096472D01*
X0180947Y0095134D02*
X0180947Y0086472D01*
X0184884Y0086472D01*
X0184884Y0095134D01*
X0180947Y0095134D01*
X0179747Y0087772D02*
X0179747Y0083835D01*
X0171085Y0083835D01*
X0171085Y0087772D01*
X0179747Y0087772D01*
X0180947Y0085134D02*
X0180947Y0076472D01*
X0184884Y0076472D01*
X0184884Y0085134D01*
X0180947Y0085134D01*
X0190947Y0086472D02*
X0190947Y0095134D01*
X0194884Y0095134D01*
X0194884Y0086472D01*
X0190947Y0086472D01*
X0169884Y0085134D02*
X0169884Y0076472D01*
X0165947Y0076472D01*
X0165947Y0085134D01*
X0169884Y0085134D01*
X0215947Y0122722D02*
X0219884Y0122722D01*
X0219884Y0131384D01*
X0215947Y0131384D01*
X0215947Y0122722D01*
X0243447Y0125026D02*
X0247384Y0125026D01*
X0247384Y0134081D01*
X0243447Y0134081D01*
X0243447Y0125026D01*
X0250947Y0125026D02*
X0254884Y0125026D01*
X0254884Y0134081D01*
X0250947Y0134081D01*
X0250947Y0125026D01*
X0083634Y0168972D02*
X0079697Y0168972D01*
X0079697Y0177634D01*
X0083634Y0177634D01*
X0083634Y0168972D01*
D15*
X0117601Y0184799D03*
D16*
X0117916Y0179780D03*
X0107916Y0179780D03*
X0107916Y0201827D03*
X0117916Y0201827D03*
D17*
X0122916Y0145803D02*
X0148819Y0145803D01*
X0084166Y0145803D02*
X0059512Y0145803D01*
D18*
X0058012Y0137053D02*
X0058014Y0136993D01*
X0058019Y0136932D01*
X0058028Y0136873D01*
X0058041Y0136814D01*
X0058057Y0136755D01*
X0058077Y0136698D01*
X0058100Y0136643D01*
X0058127Y0136588D01*
X0058156Y0136536D01*
X0058189Y0136485D01*
X0058225Y0136436D01*
X0058263Y0136390D01*
X0058305Y0136346D01*
X0058349Y0136304D01*
X0058395Y0136266D01*
X0058444Y0136230D01*
X0058495Y0136197D01*
X0058547Y0136168D01*
X0058602Y0136141D01*
X0058657Y0136118D01*
X0058714Y0136098D01*
X0058773Y0136082D01*
X0058832Y0136069D01*
X0058891Y0136060D01*
X0058952Y0136055D01*
X0059012Y0136053D01*
X0149319Y0136053D01*
X0149379Y0136055D01*
X0149440Y0136060D01*
X0149499Y0136069D01*
X0149558Y0136082D01*
X0149617Y0136098D01*
X0149674Y0136118D01*
X0149729Y0136141D01*
X0149784Y0136168D01*
X0149836Y0136197D01*
X0149887Y0136230D01*
X0149936Y0136266D01*
X0149982Y0136304D01*
X0150026Y0136346D01*
X0150068Y0136390D01*
X0150106Y0136436D01*
X0150142Y0136485D01*
X0150175Y0136536D01*
X0150204Y0136588D01*
X0150231Y0136643D01*
X0150254Y0136698D01*
X0150274Y0136755D01*
X0150290Y0136814D01*
X0150303Y0136873D01*
X0150312Y0136932D01*
X0150317Y0136993D01*
X0150319Y0137053D01*
X0150319Y0154553D01*
X0150317Y0154613D01*
X0150312Y0154674D01*
X0150303Y0154733D01*
X0150290Y0154792D01*
X0150274Y0154851D01*
X0150254Y0154908D01*
X0150231Y0154963D01*
X0150204Y0155018D01*
X0150175Y0155070D01*
X0150142Y0155121D01*
X0150106Y0155170D01*
X0150068Y0155216D01*
X0150026Y0155260D01*
X0149982Y0155302D01*
X0149936Y0155340D01*
X0149887Y0155376D01*
X0149836Y0155409D01*
X0149784Y0155438D01*
X0149729Y0155465D01*
X0149674Y0155488D01*
X0149617Y0155508D01*
X0149558Y0155524D01*
X0149499Y0155537D01*
X0149440Y0155546D01*
X0149379Y0155551D01*
X0149319Y0155553D01*
X0059012Y0155553D01*
X0058952Y0155551D01*
X0058891Y0155546D01*
X0058832Y0155537D01*
X0058773Y0155524D01*
X0058714Y0155508D01*
X0058657Y0155488D01*
X0058602Y0155465D01*
X0058547Y0155438D01*
X0058495Y0155409D01*
X0058444Y0155376D01*
X0058395Y0155340D01*
X0058349Y0155302D01*
X0058305Y0155260D01*
X0058263Y0155216D01*
X0058225Y0155170D01*
X0058189Y0155121D01*
X0058156Y0155070D01*
X0058127Y0155018D01*
X0058100Y0154963D01*
X0058077Y0154908D01*
X0058057Y0154851D01*
X0058041Y0154792D01*
X0058028Y0154733D01*
X0058019Y0154674D01*
X0058014Y0154613D01*
X0058012Y0154553D01*
X0058012Y0137053D01*
X0092817Y0177555D02*
X0098014Y0177555D01*
X0098014Y0189051D01*
X0092817Y0189051D01*
X0092817Y0177555D01*
D19*
X0058762Y0145803D03*
X0149569Y0145803D03*
D20*
X0099366Y0183303D03*
X0091466Y0179603D03*
X0091466Y0187003D03*
M02*
