G75*
%MOIN*%
%OFA0B0*%
%FSLAX25Y25*%
%IPPOS*%
%LPD*%
%AMOC8*
5,1,8,0,0,1.08239X$1,22.5*
%
%ADD10C,0.14173*%
%ADD11C,0.10236*%
%ADD12C,0.10000*%
%ADD13OC8,0.10000*%
%ADD14C,0.15000*%
%ADD15C,0.05937*%
%ADD16C,0.07874*%
%ADD17R,0.04724X0.12992*%
%ADD18OC8,0.06600*%
%ADD19OC8,0.05200*%
%ADD20OC8,0.06300*%
%ADD21C,0.10000*%
%ADD22C,0.01600*%
%ADD23C,0.04724*%
%ADD24C,0.03200*%
D10*
X0204491Y0074632D03*
X0232640Y0074829D03*
X0232640Y0134671D03*
X0204491Y0134474D03*
D11*
X0204491Y0119514D03*
X0204491Y0104553D03*
X0232640Y0104750D03*
X0232640Y0119711D03*
X0150947Y0134474D03*
X0122798Y0134671D03*
X0122798Y0104750D03*
X0150947Y0104553D03*
X0150947Y0074632D03*
X0122798Y0074829D03*
D12*
X0134166Y0188303D03*
X0241666Y0188303D03*
D13*
X0221666Y0188303D03*
X0154166Y0188303D03*
D14*
X0202916Y0148303D02*
X0285416Y0148303D01*
X0285416Y0135803D01*
X0233887Y0135918D01*
X0232640Y0134671D01*
X0234491Y0134474D02*
X0204491Y0134474D01*
X0204688Y0134671D01*
X0202798Y0134671D01*
X0202916Y0134553D01*
X0250416Y0134553D01*
X0254166Y0138303D01*
X0212916Y0138303D01*
X0202916Y0148303D01*
X0202916Y0134553D01*
X0234491Y0134474D02*
X0242729Y0142713D01*
X0254166Y0142713D01*
X0252916Y0143963D02*
X0272916Y0143963D01*
X0280416Y0143963D02*
X0265416Y0143963D01*
X0256666Y0138303D02*
X0254166Y0138303D01*
X0265416Y0119553D02*
X0280416Y0119553D01*
X0284166Y0099553D02*
X0254166Y0099553D01*
X0253654Y0099041D01*
X0253654Y0074632D01*
X0204491Y0074632D01*
X0167916Y0074632D01*
X0150947Y0074632D01*
X0092916Y0096098D02*
X0077916Y0096098D01*
X0077916Y0120508D02*
X0092916Y0120508D01*
X0119166Y0134553D02*
X0150869Y0134553D01*
X0145416Y0140803D02*
X0142916Y0143303D01*
X0150416Y0143303D01*
X0232592Y0077980D02*
X0253654Y0099041D01*
X0254166Y0099553D02*
X0254166Y0079553D01*
X0262916Y0088303D01*
X0284166Y0088303D01*
X0284166Y0099553D01*
X0280416Y0095144D02*
X0265416Y0095144D01*
X0272916Y0095144D02*
X0232592Y0077980D01*
D15*
X0074634Y0168382D02*
X0068697Y0168382D01*
X0068697Y0178224D02*
X0074634Y0178224D01*
D16*
X0091479Y0203303D02*
X0099353Y0203303D01*
X0099353Y0213303D02*
X0091479Y0213303D01*
D17*
X0179166Y0197535D03*
X0199166Y0197535D03*
X0189166Y0164071D03*
D18*
X0124166Y0145803D03*
X0084166Y0145803D03*
D19*
X0090416Y0160803D03*
X0100416Y0160803D03*
X0100416Y0170803D03*
X0090416Y0170803D03*
D20*
X0117916Y0159553D03*
X0157916Y0159553D03*
D21*
X0167916Y0159553D02*
X0167916Y0074632D01*
X0169166Y0074553D02*
X0176666Y0074553D01*
X0175416Y0075803D01*
X0175416Y0164071D01*
X0189166Y0164071D01*
X0176666Y0154553D02*
X0167916Y0154553D01*
X0167916Y0189553D01*
X0164166Y0189553D02*
X0155416Y0189553D01*
X0154166Y0188303D01*
X0154166Y0183303D01*
X0155416Y0182053D01*
X0164166Y0182053D01*
X0164166Y0189553D01*
X0155416Y0182053D02*
X0150416Y0185803D01*
X0150416Y0195803D01*
X0176666Y0195803D01*
X0176666Y0154553D01*
X0150869Y0134553D02*
X0137916Y0134553D01*
X0134166Y0134553D01*
X0137916Y0134553D02*
X0137916Y0198303D01*
X0134166Y0198303D01*
X0134166Y0188303D01*
X0134166Y0178303D01*
X0129166Y0173303D01*
X0130416Y0173303D01*
X0130416Y0144553D01*
X0127916Y0144553D01*
X0127916Y0198303D01*
X0134166Y0198303D01*
X0150416Y0184553D02*
X0150416Y0182053D01*
X0155416Y0182053D01*
X0150416Y0184553D02*
X0154166Y0188303D01*
X0100416Y0147053D02*
X0100416Y0115803D01*
X0072916Y0115803D01*
X0072916Y0143303D01*
X0079166Y0143303D01*
X0079166Y0120803D01*
X0092916Y0120803D01*
X0092916Y0140803D01*
X0085416Y0140803D01*
X0085416Y0120508D01*
X0074166Y0103303D02*
X0109166Y0103303D01*
X0109166Y0095803D01*
X0122522Y0082447D01*
X0122522Y0074553D01*
X0101666Y0074553D01*
X0087916Y0088303D01*
X0072916Y0088303D01*
X0072916Y0096098D01*
X0085416Y0096098D01*
X0097916Y0096098D01*
X0097916Y0084553D01*
X0116666Y0084553D01*
X0116666Y0079553D01*
X0107916Y0079553D01*
X0107916Y0092053D01*
X0095416Y0092053D01*
X0095416Y0079553D01*
X0102916Y0079553D01*
X0102916Y0096098D01*
X0085416Y0096098D01*
X0073211Y0096098D01*
X0073211Y0102348D01*
X0074166Y0103303D01*
X0119166Y0134553D02*
X0120416Y0134553D01*
X0120416Y0145803D01*
X0124166Y0145803D01*
X0100416Y0147053D02*
X0084166Y0147053D01*
X0084166Y0145803D01*
X0084166Y0147053D02*
X0072916Y0147053D01*
X0072916Y0143303D01*
X0122798Y0104750D02*
X0150751Y0104750D01*
X0150947Y0104553D01*
X0122798Y0074829D02*
X0122522Y0074553D01*
X0176666Y0074553D02*
X0182916Y0074553D01*
X0204491Y0104553D02*
X0232443Y0104553D01*
X0232640Y0104750D01*
X0232443Y0119514D02*
X0232640Y0119711D01*
X0272758Y0119711D01*
X0272916Y0119553D01*
X0254166Y0142713D02*
X0252916Y0143963D01*
X0236666Y0160213D01*
X0236666Y0197053D01*
X0241666Y0197053D01*
X0246666Y0197053D01*
X0246666Y0158303D01*
X0236666Y0158303D01*
X0236666Y0154553D01*
X0234166Y0154553D01*
X0234166Y0150803D01*
X0236666Y0158303D02*
X0236666Y0160213D01*
X0225416Y0182053D02*
X0207916Y0182053D01*
X0207916Y0193303D01*
X0217603Y0183616D01*
X0222916Y0187053D01*
X0221666Y0188303D01*
X0225416Y0182053D02*
X0225416Y0195803D01*
X0207916Y0195803D01*
X0207916Y0193303D01*
X0241666Y0197053D02*
X0241666Y0188303D01*
X0232443Y0119514D02*
X0204491Y0119514D01*
D22*
X0090112Y0080436D02*
X0090112Y0051503D01*
X0264814Y0051503D01*
X0264814Y0080436D01*
X0265301Y0081612D01*
X0266202Y0082512D01*
X0267378Y0082999D01*
X0296310Y0082999D01*
X0296310Y0108303D01*
X0246666Y0108303D01*
X0240605Y0102242D01*
X0239692Y0100038D01*
X0237352Y0097698D01*
X0234295Y0096432D01*
X0234265Y0096432D01*
X0234075Y0096353D01*
X0206430Y0096353D01*
X0206145Y0096235D01*
X0202836Y0096235D01*
X0200861Y0097053D01*
X0195416Y0097053D01*
X0195416Y0118303D01*
X0188966Y0118303D01*
X0188966Y0113750D01*
X0189728Y0111910D01*
X0189728Y0109697D01*
X0188881Y0107652D01*
X0187317Y0106088D01*
X0185272Y0105241D01*
X0183059Y0105241D01*
X0181015Y0106088D01*
X0179450Y0107652D01*
X0178604Y0109697D01*
X0178604Y0111910D01*
X0179366Y0113750D01*
X0179366Y0146758D01*
X0180097Y0148522D01*
X0181447Y0149872D01*
X0186666Y0155091D01*
X0186666Y0155775D01*
X0186567Y0155775D01*
X0186109Y0155897D01*
X0185698Y0156134D01*
X0185363Y0156470D01*
X0185126Y0156880D01*
X0185004Y0157338D01*
X0185004Y0163690D01*
X0188785Y0163690D01*
X0188785Y0164452D01*
X0188785Y0172367D01*
X0186567Y0172367D01*
X0186109Y0172244D01*
X0185698Y0172007D01*
X0185363Y0171672D01*
X0185126Y0171262D01*
X0185004Y0170804D01*
X0185004Y0164452D01*
X0188785Y0164452D01*
X0189547Y0164452D01*
X0189547Y0172367D01*
X0191765Y0172367D01*
X0192223Y0172244D01*
X0192633Y0172007D01*
X0192968Y0171672D01*
X0193205Y0171262D01*
X0193328Y0170804D01*
X0193328Y0164452D01*
X0189547Y0164452D01*
X0189547Y0163690D01*
X0193328Y0163690D01*
X0193328Y0161754D01*
X0194366Y0162791D01*
X0194366Y0188952D01*
X0194091Y0189227D01*
X0193604Y0190403D01*
X0193604Y0204668D01*
X0194091Y0205844D01*
X0194991Y0206744D01*
X0196167Y0207231D01*
X0202165Y0207231D01*
X0203341Y0206744D01*
X0204241Y0205844D01*
X0204728Y0204668D01*
X0204728Y0190403D01*
X0204241Y0189227D01*
X0203966Y0188952D01*
X0203966Y0159848D01*
X0203616Y0159003D01*
X0227134Y0159003D01*
X0227214Y0159198D01*
X0228466Y0160450D01*
X0228466Y0198684D01*
X0229166Y0200374D01*
X0229166Y0218331D01*
X0146666Y0218331D01*
X0146666Y0155803D01*
X0152686Y0155803D01*
X0151566Y0156923D01*
X0151566Y0162183D01*
X0155286Y0165903D01*
X0160546Y0165903D01*
X0164266Y0162183D01*
X0164266Y0156923D01*
X0162916Y0155573D01*
X0162916Y0107053D01*
X0158915Y0107053D01*
X0159265Y0106208D01*
X0159265Y0102899D01*
X0157999Y0099841D01*
X0155659Y0097501D01*
X0152602Y0096235D01*
X0149293Y0096235D01*
X0148532Y0096550D01*
X0124737Y0096550D01*
X0124452Y0096432D01*
X0121143Y0096432D01*
X0118086Y0097698D01*
X0115746Y0100038D01*
X0114480Y0103095D01*
X0114480Y0106405D01*
X0114748Y0107053D01*
X0058616Y0107053D01*
X0058616Y0082999D01*
X0087548Y0082999D01*
X0088725Y0082512D01*
X0089625Y0081612D01*
X0090112Y0080436D01*
X0090112Y0080273D02*
X0118529Y0080273D01*
X0118227Y0080041D02*
X0117585Y0079400D01*
X0117033Y0078680D01*
X0116580Y0077895D01*
X0116233Y0077057D01*
X0115998Y0076181D01*
X0115883Y0075308D01*
X0122318Y0075308D01*
X0122318Y0074349D01*
X0115883Y0074349D01*
X0115998Y0073476D01*
X0116233Y0072600D01*
X0116580Y0071762D01*
X0117033Y0070977D01*
X0117585Y0070258D01*
X0118227Y0069616D01*
X0118946Y0069064D01*
X0119731Y0068611D01*
X0120569Y0068264D01*
X0121445Y0068029D01*
X0122318Y0067914D01*
X0122318Y0074349D01*
X0123277Y0074349D01*
X0123277Y0067914D01*
X0124150Y0068029D01*
X0125026Y0068264D01*
X0125864Y0068611D01*
X0126650Y0069064D01*
X0127369Y0069616D01*
X0128010Y0070258D01*
X0128562Y0070977D01*
X0129016Y0071762D01*
X0129363Y0072600D01*
X0129598Y0073476D01*
X0129712Y0074349D01*
X0123277Y0074349D01*
X0123277Y0075308D01*
X0122318Y0075308D01*
X0122318Y0081743D01*
X0121445Y0081628D01*
X0120569Y0081394D01*
X0119731Y0081047D01*
X0118946Y0080593D01*
X0118227Y0080041D01*
X0117030Y0078675D02*
X0090112Y0078675D01*
X0090112Y0077076D02*
X0116241Y0077076D01*
X0115905Y0075478D02*
X0090112Y0075478D01*
X0090112Y0073879D02*
X0115945Y0073879D01*
X0116365Y0072281D02*
X0090112Y0072281D01*
X0090112Y0070682D02*
X0117259Y0070682D01*
X0118920Y0069084D02*
X0090112Y0069084D01*
X0090112Y0067485D02*
X0199206Y0067485D01*
X0199543Y0067227D02*
X0200552Y0066645D01*
X0201628Y0066199D01*
X0202753Y0065897D01*
X0203691Y0065774D01*
X0203691Y0073832D01*
X0205291Y0073832D01*
X0205291Y0075432D01*
X0213349Y0075432D01*
X0213225Y0076369D01*
X0212924Y0077495D01*
X0212478Y0078571D01*
X0211895Y0079580D01*
X0211186Y0080504D01*
X0210363Y0081328D01*
X0209438Y0082037D01*
X0208430Y0082619D01*
X0207353Y0083065D01*
X0206228Y0083366D01*
X0205291Y0083490D01*
X0205291Y0075432D01*
X0203691Y0075432D01*
X0203691Y0083490D01*
X0202753Y0083366D01*
X0201628Y0083065D01*
X0200552Y0082619D01*
X0199543Y0082037D01*
X0198619Y0081328D01*
X0197795Y0080504D01*
X0197086Y0079580D01*
X0196503Y0078571D01*
X0196058Y0077495D01*
X0195756Y0076369D01*
X0195633Y0075432D01*
X0203691Y0075432D01*
X0203691Y0073832D01*
X0195633Y0073832D01*
X0195756Y0072894D01*
X0196058Y0071769D01*
X0196503Y0070693D01*
X0197086Y0069684D01*
X0197795Y0068760D01*
X0198619Y0067936D01*
X0199543Y0067227D01*
X0197547Y0069084D02*
X0155081Y0069084D01*
X0154799Y0068867D02*
X0155519Y0069419D01*
X0156160Y0070061D01*
X0156712Y0070780D01*
X0157165Y0071566D01*
X0157512Y0072403D01*
X0157747Y0073279D01*
X0157862Y0074152D01*
X0151427Y0074152D01*
X0151427Y0067717D01*
X0152300Y0067832D01*
X0153176Y0068067D01*
X0154014Y0068414D01*
X0154799Y0068867D01*
X0156637Y0070682D02*
X0196510Y0070682D01*
X0195921Y0072281D02*
X0157462Y0072281D01*
X0157826Y0073879D02*
X0203691Y0073879D01*
X0203691Y0072281D02*
X0205291Y0072281D01*
X0205291Y0073832D02*
X0205291Y0065774D01*
X0206228Y0065897D01*
X0207353Y0066199D01*
X0208430Y0066645D01*
X0209438Y0067227D01*
X0210363Y0067936D01*
X0211186Y0068760D01*
X0211895Y0069684D01*
X0212478Y0070693D01*
X0212924Y0071769D01*
X0213225Y0072894D01*
X0213349Y0073832D01*
X0205291Y0073832D01*
X0205291Y0073879D02*
X0223802Y0073879D01*
X0223782Y0074029D02*
X0223906Y0073091D01*
X0224207Y0071966D01*
X0224653Y0070890D01*
X0225235Y0069881D01*
X0225945Y0068957D01*
X0226768Y0068133D01*
X0227693Y0067424D01*
X0228701Y0066841D01*
X0229778Y0066396D01*
X0230903Y0066094D01*
X0231840Y0065971D01*
X0231840Y0074029D01*
X0223782Y0074029D01*
X0223782Y0075629D02*
X0231840Y0075629D01*
X0231840Y0074029D01*
X0233440Y0074029D01*
X0233440Y0065971D01*
X0234378Y0066094D01*
X0235503Y0066396D01*
X0236579Y0066841D01*
X0237588Y0067424D01*
X0238512Y0068133D01*
X0239336Y0068957D01*
X0240045Y0069881D01*
X0240628Y0070890D01*
X0241073Y0071966D01*
X0241375Y0073091D01*
X0241498Y0074029D01*
X0233440Y0074029D01*
X0233440Y0075629D01*
X0231840Y0075629D01*
X0231840Y0083687D01*
X0230903Y0083563D01*
X0229778Y0083262D01*
X0228701Y0082816D01*
X0227693Y0082234D01*
X0226768Y0081524D01*
X0225945Y0080701D01*
X0225235Y0079776D01*
X0224653Y0078768D01*
X0224207Y0077691D01*
X0223906Y0076566D01*
X0223782Y0075629D01*
X0224042Y0077076D02*
X0213036Y0077076D01*
X0213343Y0075478D02*
X0231840Y0075478D01*
X0231840Y0077076D02*
X0233440Y0077076D01*
X0233440Y0075629D02*
X0233440Y0083687D01*
X0234378Y0083563D01*
X0235503Y0083262D01*
X0236579Y0082816D01*
X0237588Y0082234D01*
X0238512Y0081524D01*
X0239336Y0080701D01*
X0240045Y0079776D01*
X0240628Y0078768D01*
X0241073Y0077691D01*
X0241375Y0076566D01*
X0241498Y0075629D01*
X0233440Y0075629D01*
X0233440Y0075478D02*
X0264814Y0075478D01*
X0264814Y0077076D02*
X0241238Y0077076D01*
X0240666Y0078675D02*
X0264814Y0078675D01*
X0264814Y0080273D02*
X0239664Y0080273D01*
X0238059Y0081872D02*
X0265562Y0081872D01*
X0264894Y0085844D02*
X0272116Y0085844D01*
X0272116Y0094344D01*
X0256147Y0094344D01*
X0256233Y0093583D01*
X0256465Y0092565D01*
X0256810Y0091579D01*
X0257263Y0090638D01*
X0257819Y0089754D01*
X0258470Y0088937D01*
X0259209Y0088198D01*
X0260026Y0087547D01*
X0260910Y0086991D01*
X0261851Y0086538D01*
X0262837Y0086193D01*
X0263856Y0085961D01*
X0264894Y0085844D01*
X0261583Y0086667D02*
X0058616Y0086667D01*
X0058616Y0085069D02*
X0296310Y0085069D01*
X0296310Y0086667D02*
X0284249Y0086667D01*
X0283980Y0086538D02*
X0284922Y0086991D01*
X0285806Y0087547D01*
X0286623Y0088198D01*
X0287361Y0088937D01*
X0288013Y0089754D01*
X0288568Y0090638D01*
X0289021Y0091579D01*
X0289366Y0092565D01*
X0289599Y0093583D01*
X0289685Y0094344D01*
X0273716Y0094344D01*
X0273716Y0095944D01*
X0272116Y0095944D01*
X0272116Y0104444D01*
X0264894Y0104444D01*
X0263856Y0104327D01*
X0262837Y0104094D01*
X0261851Y0103749D01*
X0260910Y0103296D01*
X0260026Y0102740D01*
X0259209Y0102089D01*
X0258470Y0101350D01*
X0257819Y0100534D01*
X0257263Y0099649D01*
X0256810Y0098708D01*
X0256465Y0097722D01*
X0256233Y0096704D01*
X0256147Y0095944D01*
X0272116Y0095944D01*
X0272116Y0094344D01*
X0273716Y0094344D01*
X0273716Y0085844D01*
X0280938Y0085844D01*
X0281976Y0085961D01*
X0282995Y0086193D01*
X0283980Y0086538D01*
X0286690Y0088266D02*
X0296310Y0088266D01*
X0296310Y0089864D02*
X0288082Y0089864D01*
X0288966Y0091463D02*
X0296310Y0091463D01*
X0296310Y0093061D02*
X0289480Y0093061D01*
X0289685Y0095944D02*
X0289599Y0096704D01*
X0289366Y0097722D01*
X0289021Y0098708D01*
X0288568Y0099649D01*
X0288013Y0100534D01*
X0287361Y0101350D01*
X0286623Y0102089D01*
X0285806Y0102740D01*
X0284922Y0103296D01*
X0283980Y0103749D01*
X0282995Y0104094D01*
X0281976Y0104327D01*
X0280938Y0104444D01*
X0273716Y0104444D01*
X0273716Y0095944D01*
X0289685Y0095944D01*
X0289649Y0096258D02*
X0296310Y0096258D01*
X0296310Y0094660D02*
X0273716Y0094660D01*
X0273716Y0096258D02*
X0272116Y0096258D01*
X0272116Y0094660D02*
X0102113Y0094660D01*
X0102099Y0094538D02*
X0101866Y0093520D01*
X0101521Y0092534D01*
X0101068Y0091593D01*
X0100513Y0090708D01*
X0099861Y0089892D01*
X0099123Y0089153D01*
X0098306Y0088502D01*
X0097422Y0087946D01*
X0096480Y0087493D01*
X0095495Y0087148D01*
X0094476Y0086915D01*
X0093438Y0086798D01*
X0086216Y0086798D01*
X0086216Y0095298D01*
X0084616Y0095298D01*
X0084616Y0086798D01*
X0077394Y0086798D01*
X0076356Y0086915D01*
X0075337Y0087148D01*
X0074351Y0087493D01*
X0073410Y0087946D01*
X0072526Y0088502D01*
X0071709Y0089153D01*
X0070970Y0089892D01*
X0070319Y0090708D01*
X0069763Y0091593D01*
X0069310Y0092534D01*
X0068965Y0093520D01*
X0068733Y0094538D01*
X0068647Y0095298D01*
X0084616Y0095298D01*
X0084616Y0096898D01*
X0068647Y0096898D01*
X0068733Y0097659D01*
X0068965Y0098677D01*
X0069310Y0099663D01*
X0069763Y0100604D01*
X0070319Y0101489D01*
X0070970Y0102305D01*
X0071709Y0103044D01*
X0072526Y0103695D01*
X0073410Y0104251D01*
X0074351Y0104704D01*
X0075337Y0105049D01*
X0076356Y0105281D01*
X0077394Y0105398D01*
X0084616Y0105398D01*
X0084616Y0096898D01*
X0086216Y0096898D01*
X0102185Y0096898D01*
X0102099Y0097659D01*
X0101866Y0098677D01*
X0101521Y0099663D01*
X0101068Y0100604D01*
X0100513Y0101489D01*
X0099861Y0102305D01*
X0099123Y0103044D01*
X0098306Y0103695D01*
X0097422Y0104251D01*
X0096480Y0104704D01*
X0095495Y0105049D01*
X0094476Y0105281D01*
X0093438Y0105398D01*
X0086216Y0105398D01*
X0086216Y0096898D01*
X0086216Y0095298D01*
X0102185Y0095298D01*
X0102099Y0094538D01*
X0101706Y0093061D02*
X0256352Y0093061D01*
X0256866Y0091463D02*
X0100987Y0091463D01*
X0099834Y0089864D02*
X0257750Y0089864D01*
X0259141Y0088266D02*
X0097931Y0088266D01*
X0089365Y0081872D02*
X0199328Y0081872D01*
X0197618Y0080273D02*
X0154959Y0080273D01*
X0154799Y0080396D02*
X0154014Y0080850D01*
X0153176Y0081197D01*
X0152300Y0081432D01*
X0151427Y0081547D01*
X0151427Y0075111D01*
X0157862Y0075111D01*
X0157747Y0075984D01*
X0157512Y0076860D01*
X0157165Y0077698D01*
X0156712Y0078484D01*
X0156160Y0079203D01*
X0155519Y0079844D01*
X0154799Y0080396D01*
X0156565Y0078675D02*
X0196564Y0078675D01*
X0195946Y0077076D02*
X0157423Y0077076D01*
X0157814Y0075478D02*
X0195639Y0075478D01*
X0203691Y0075478D02*
X0205291Y0075478D01*
X0205291Y0077076D02*
X0203691Y0077076D01*
X0203691Y0078675D02*
X0205291Y0078675D01*
X0205291Y0080273D02*
X0203691Y0080273D01*
X0203691Y0081872D02*
X0205291Y0081872D01*
X0205291Y0083470D02*
X0203691Y0083470D01*
X0203543Y0083470D02*
X0058616Y0083470D01*
X0058616Y0088266D02*
X0072901Y0088266D01*
X0070998Y0089864D02*
X0058616Y0089864D01*
X0058616Y0091463D02*
X0069845Y0091463D01*
X0069126Y0093061D02*
X0058616Y0093061D01*
X0058616Y0094660D02*
X0068719Y0094660D01*
X0068778Y0097857D02*
X0058616Y0097857D01*
X0058616Y0099456D02*
X0069238Y0099456D01*
X0070046Y0101054D02*
X0058616Y0101054D01*
X0058616Y0102653D02*
X0071318Y0102653D01*
X0073411Y0104251D02*
X0058616Y0104251D01*
X0058616Y0105850D02*
X0114480Y0105850D01*
X0114480Y0104251D02*
X0097421Y0104251D01*
X0099514Y0102653D02*
X0114663Y0102653D01*
X0115325Y0101054D02*
X0100786Y0101054D01*
X0101594Y0099456D02*
X0116329Y0099456D01*
X0117927Y0097857D02*
X0102054Y0097857D01*
X0107916Y0110803D02*
X0107916Y0210116D01*
X0109096Y0210116D01*
X0114728Y0204483D01*
X0114728Y0163065D01*
X0113178Y0161515D01*
X0113178Y0157591D01*
X0115954Y0154816D01*
X0119878Y0154816D01*
X0122653Y0157591D01*
X0122653Y0161515D01*
X0121103Y0163065D01*
X0121103Y0206437D01*
X0120618Y0207609D01*
X0113118Y0215109D01*
X0112221Y0216005D01*
X0111050Y0216491D01*
X0107916Y0216491D01*
X0107916Y0219157D01*
X0141666Y0219157D01*
X0141666Y0153303D01*
X0159166Y0153303D01*
X0159166Y0122053D01*
X0122916Y0122053D01*
X0122916Y0111455D01*
X0121464Y0111455D01*
X0119889Y0110803D01*
X0107916Y0110803D01*
X0107916Y0112244D02*
X0122916Y0112244D01*
X0122916Y0113842D02*
X0107916Y0113842D01*
X0107916Y0115441D02*
X0122916Y0115441D01*
X0122916Y0117039D02*
X0107916Y0117039D01*
X0107916Y0118638D02*
X0122916Y0118638D01*
X0122916Y0120236D02*
X0107916Y0120236D01*
X0107916Y0121835D02*
X0122916Y0121835D01*
X0123277Y0127757D02*
X0124150Y0127872D01*
X0125026Y0128106D01*
X0125864Y0128453D01*
X0126650Y0128907D01*
X0127369Y0129459D01*
X0128010Y0130100D01*
X0128562Y0130820D01*
X0129016Y0131605D01*
X0129363Y0132443D01*
X0129598Y0133319D01*
X0129712Y0134192D01*
X0123277Y0134192D01*
X0123277Y0127757D01*
X0123277Y0128229D02*
X0122318Y0128229D01*
X0122318Y0127757D02*
X0122318Y0134192D01*
X0115883Y0134192D01*
X0115998Y0133319D01*
X0116233Y0132443D01*
X0116580Y0131605D01*
X0117033Y0130820D01*
X0117585Y0130100D01*
X0118227Y0129459D01*
X0118946Y0128907D01*
X0119731Y0128453D01*
X0120569Y0128106D01*
X0121445Y0127872D01*
X0122318Y0127757D01*
X0122318Y0129827D02*
X0123277Y0129827D01*
X0123277Y0131426D02*
X0122318Y0131426D01*
X0122318Y0133024D02*
X0123277Y0133024D01*
X0123277Y0134192D02*
X0122318Y0134192D01*
X0122318Y0135151D01*
X0115883Y0135151D01*
X0115998Y0136024D01*
X0116233Y0136900D01*
X0116580Y0137738D01*
X0117033Y0138523D01*
X0117585Y0139242D01*
X0118227Y0139884D01*
X0118946Y0140436D01*
X0119731Y0140889D01*
X0120569Y0141236D01*
X0121319Y0141437D01*
X0119066Y0143691D01*
X0119066Y0145619D01*
X0123982Y0145619D01*
X0123982Y0145987D01*
X0119066Y0145987D01*
X0119066Y0147916D01*
X0122053Y0150903D01*
X0123982Y0150903D01*
X0123982Y0145987D01*
X0124350Y0145987D01*
X0129266Y0145987D01*
X0129266Y0147916D01*
X0126278Y0150903D01*
X0124350Y0150903D01*
X0124350Y0145987D01*
X0124350Y0145619D01*
X0129266Y0145619D01*
X0129266Y0143691D01*
X0126278Y0140703D01*
X0126186Y0140703D01*
X0126650Y0140436D01*
X0127369Y0139884D01*
X0128010Y0139242D01*
X0128562Y0138523D01*
X0129016Y0137738D01*
X0129363Y0136900D01*
X0129598Y0136024D01*
X0129712Y0135151D01*
X0123277Y0135151D01*
X0123277Y0134192D01*
X0123277Y0134623D02*
X0150468Y0134623D01*
X0150468Y0134954D02*
X0150468Y0133995D01*
X0151427Y0133995D01*
X0151427Y0134954D01*
X0157862Y0134954D01*
X0157747Y0135827D01*
X0157512Y0136703D01*
X0157165Y0137541D01*
X0156712Y0138326D01*
X0156160Y0139046D01*
X0155519Y0139687D01*
X0154799Y0140239D01*
X0154014Y0140692D01*
X0153176Y0141039D01*
X0152300Y0141274D01*
X0151427Y0141389D01*
X0151427Y0134954D01*
X0150468Y0134954D01*
X0150468Y0141389D01*
X0149595Y0141274D01*
X0148719Y0141039D01*
X0147881Y0140692D01*
X0147096Y0140239D01*
X0146376Y0139687D01*
X0145735Y0139046D01*
X0145183Y0138326D01*
X0144729Y0137541D01*
X0144382Y0136703D01*
X0144148Y0135827D01*
X0144033Y0134954D01*
X0150468Y0134954D01*
X0150468Y0133995D02*
X0144033Y0133995D01*
X0144148Y0133122D01*
X0144382Y0132246D01*
X0144729Y0131408D01*
X0145183Y0130623D01*
X0145735Y0129903D01*
X0146376Y0129262D01*
X0147096Y0128710D01*
X0147881Y0128256D01*
X0148719Y0127909D01*
X0149595Y0127675D01*
X0150468Y0127560D01*
X0150468Y0133995D01*
X0151427Y0133995D02*
X0151427Y0127560D01*
X0152300Y0127675D01*
X0153176Y0127909D01*
X0154014Y0128256D01*
X0154799Y0128710D01*
X0155519Y0129262D01*
X0156160Y0129903D01*
X0156712Y0130623D01*
X0157165Y0131408D01*
X0157512Y0132246D01*
X0157747Y0133122D01*
X0157862Y0133995D01*
X0151427Y0133995D01*
X0151427Y0134623D02*
X0159166Y0134623D01*
X0159166Y0136221D02*
X0157641Y0136221D01*
X0157004Y0137820D02*
X0159166Y0137820D01*
X0159166Y0139418D02*
X0155787Y0139418D01*
X0153230Y0141017D02*
X0159166Y0141017D01*
X0159166Y0142615D02*
X0128191Y0142615D01*
X0129266Y0144214D02*
X0159166Y0144214D01*
X0159166Y0145812D02*
X0124350Y0145812D01*
X0123982Y0145812D02*
X0107916Y0145812D01*
X0107916Y0144214D02*
X0119066Y0144214D01*
X0120141Y0142615D02*
X0107916Y0142615D01*
X0107916Y0141017D02*
X0120039Y0141017D01*
X0117761Y0139418D02*
X0107916Y0139418D01*
X0107916Y0137820D02*
X0116627Y0137820D01*
X0116051Y0136221D02*
X0107916Y0136221D01*
X0107916Y0134623D02*
X0122318Y0134623D01*
X0116077Y0133024D02*
X0107916Y0133024D01*
X0107916Y0131426D02*
X0116683Y0131426D01*
X0117858Y0129827D02*
X0107916Y0129827D01*
X0107916Y0128229D02*
X0120274Y0128229D01*
X0125322Y0128229D02*
X0147948Y0128229D01*
X0150468Y0128229D02*
X0151427Y0128229D01*
X0151427Y0129827D02*
X0150468Y0129827D01*
X0150468Y0131426D02*
X0151427Y0131426D01*
X0151427Y0133024D02*
X0150468Y0133024D01*
X0150468Y0136221D02*
X0151427Y0136221D01*
X0151427Y0137820D02*
X0150468Y0137820D01*
X0150468Y0139418D02*
X0151427Y0139418D01*
X0151427Y0141017D02*
X0150468Y0141017D01*
X0148664Y0141017D02*
X0126592Y0141017D01*
X0127834Y0139418D02*
X0146108Y0139418D01*
X0144891Y0137820D02*
X0128968Y0137820D01*
X0129545Y0136221D02*
X0144253Y0136221D01*
X0144174Y0133024D02*
X0129519Y0133024D01*
X0128912Y0131426D02*
X0144722Y0131426D01*
X0145811Y0129827D02*
X0127737Y0129827D01*
X0107916Y0126630D02*
X0159166Y0126630D01*
X0159166Y0125032D02*
X0107916Y0125032D01*
X0107916Y0123433D02*
X0159166Y0123433D01*
X0162916Y0123433D02*
X0179366Y0123433D01*
X0179366Y0121835D02*
X0162916Y0121835D01*
X0162916Y0120236D02*
X0179366Y0120236D01*
X0179366Y0118638D02*
X0162916Y0118638D01*
X0162916Y0117039D02*
X0179366Y0117039D01*
X0179366Y0115441D02*
X0162916Y0115441D01*
X0162916Y0113842D02*
X0179366Y0113842D01*
X0178742Y0112244D02*
X0162916Y0112244D01*
X0162916Y0110645D02*
X0178604Y0110645D01*
X0178873Y0109047D02*
X0162916Y0109047D01*
X0162916Y0107448D02*
X0179655Y0107448D01*
X0181590Y0105850D02*
X0159265Y0105850D01*
X0159265Y0104251D02*
X0195416Y0104251D01*
X0195416Y0102653D02*
X0159164Y0102653D01*
X0158501Y0101054D02*
X0195416Y0101054D01*
X0195416Y0099456D02*
X0157613Y0099456D01*
X0156015Y0097857D02*
X0195416Y0097857D01*
X0202779Y0096258D02*
X0152659Y0096258D01*
X0149236Y0096258D02*
X0086216Y0096258D01*
X0086216Y0094660D02*
X0084616Y0094660D01*
X0084616Y0096258D02*
X0058616Y0096258D01*
X0058616Y0111078D02*
X0058616Y0182898D01*
X0064648Y0182898D01*
X0063468Y0181719D01*
X0062529Y0179451D01*
X0062529Y0176997D01*
X0063468Y0174730D01*
X0064895Y0173303D01*
X0063468Y0171876D01*
X0062529Y0169609D01*
X0062529Y0167155D01*
X0063468Y0164888D01*
X0065203Y0163152D01*
X0067470Y0162213D01*
X0075861Y0162213D01*
X0078129Y0163152D01*
X0079864Y0164888D01*
X0080803Y0167155D01*
X0080803Y0169609D01*
X0079864Y0171876D01*
X0078437Y0173303D01*
X0079864Y0174730D01*
X0080803Y0176997D01*
X0080803Y0179451D01*
X0079864Y0181719D01*
X0078684Y0182898D01*
X0087548Y0182898D01*
X0088725Y0183386D01*
X0089625Y0184286D01*
X0090112Y0185462D01*
X0090112Y0196166D01*
X0100773Y0196166D01*
X0103396Y0197253D01*
X0105403Y0199260D01*
X0105416Y0199291D01*
X0105416Y0174006D01*
X0102818Y0176603D01*
X0098013Y0176603D01*
X0095416Y0174006D01*
X0092818Y0176603D01*
X0088013Y0176603D01*
X0084616Y0173206D01*
X0084616Y0168401D01*
X0088013Y0165003D01*
X0088393Y0165003D01*
X0086016Y0162626D01*
X0086016Y0160803D01*
X0086016Y0158981D01*
X0088593Y0156403D01*
X0090416Y0156403D01*
X0092238Y0156403D01*
X0094816Y0158981D01*
X0094816Y0160803D01*
X0090416Y0160803D01*
X0090416Y0156403D01*
X0090416Y0160803D01*
X0090416Y0160803D01*
X0090416Y0160803D01*
X0094816Y0160803D01*
X0094816Y0162626D01*
X0092438Y0165003D01*
X0092818Y0165003D01*
X0095416Y0167601D01*
X0098013Y0165003D01*
X0098393Y0165003D01*
X0096016Y0162626D01*
X0096016Y0160803D01*
X0096016Y0158981D01*
X0098593Y0156403D01*
X0100416Y0156403D01*
X0102238Y0156403D01*
X0104816Y0158981D01*
X0104816Y0160803D01*
X0100416Y0160803D01*
X0100416Y0156403D01*
X0100416Y0160803D01*
X0100416Y0160803D01*
X0100416Y0160803D01*
X0104816Y0160803D01*
X0104816Y0162626D01*
X0102438Y0165003D01*
X0102818Y0165003D01*
X0105416Y0167601D01*
X0105416Y0153650D01*
X0105061Y0154005D01*
X0102047Y0155253D01*
X0071285Y0155253D01*
X0068271Y0154005D01*
X0065964Y0151698D01*
X0064716Y0148684D01*
X0064716Y0114172D01*
X0065964Y0111158D01*
X0066319Y0110803D01*
X0062880Y0110803D01*
X0061522Y0111365D01*
X0059309Y0111365D01*
X0058616Y0111078D01*
X0058616Y0112244D02*
X0065515Y0112244D01*
X0064853Y0113842D02*
X0058616Y0113842D01*
X0058616Y0115441D02*
X0064716Y0115441D01*
X0064716Y0117039D02*
X0058616Y0117039D01*
X0058616Y0118638D02*
X0064716Y0118638D01*
X0064716Y0120236D02*
X0058616Y0120236D01*
X0058616Y0121835D02*
X0064716Y0121835D01*
X0064716Y0123433D02*
X0058616Y0123433D01*
X0058616Y0125032D02*
X0064716Y0125032D01*
X0064716Y0126630D02*
X0058616Y0126630D01*
X0058616Y0128229D02*
X0064716Y0128229D01*
X0064716Y0129827D02*
X0058616Y0129827D01*
X0058616Y0131426D02*
X0064716Y0131426D01*
X0064716Y0133024D02*
X0058616Y0133024D01*
X0058616Y0134623D02*
X0064716Y0134623D01*
X0064716Y0136221D02*
X0058616Y0136221D01*
X0058616Y0137820D02*
X0064716Y0137820D01*
X0064716Y0139418D02*
X0058616Y0139418D01*
X0058616Y0141017D02*
X0064716Y0141017D01*
X0064716Y0142615D02*
X0058616Y0142615D01*
X0058616Y0144214D02*
X0064716Y0144214D01*
X0064716Y0145812D02*
X0058616Y0145812D01*
X0058616Y0147411D02*
X0064716Y0147411D01*
X0064851Y0149009D02*
X0058616Y0149009D01*
X0058616Y0150608D02*
X0065513Y0150608D01*
X0066473Y0152206D02*
X0058616Y0152206D01*
X0058616Y0153805D02*
X0068071Y0153805D01*
X0058616Y0155403D02*
X0105416Y0155403D01*
X0105416Y0153805D02*
X0105261Y0153805D01*
X0107916Y0153805D02*
X0141666Y0153805D01*
X0141666Y0155403D02*
X0120466Y0155403D01*
X0122064Y0157002D02*
X0141666Y0157002D01*
X0141666Y0158600D02*
X0122653Y0158600D01*
X0122653Y0160199D02*
X0141666Y0160199D01*
X0141666Y0161797D02*
X0122371Y0161797D01*
X0121103Y0163396D02*
X0141666Y0163396D01*
X0141666Y0164994D02*
X0121103Y0164994D01*
X0121103Y0166593D02*
X0141666Y0166593D01*
X0141666Y0168191D02*
X0121103Y0168191D01*
X0121103Y0169790D02*
X0141666Y0169790D01*
X0141666Y0171389D02*
X0121103Y0171389D01*
X0121103Y0172987D02*
X0141666Y0172987D01*
X0141666Y0174586D02*
X0121103Y0174586D01*
X0121103Y0176184D02*
X0141666Y0176184D01*
X0141666Y0177783D02*
X0121103Y0177783D01*
X0121103Y0179381D02*
X0141666Y0179381D01*
X0141666Y0180980D02*
X0121103Y0180980D01*
X0121103Y0182578D02*
X0130482Y0182578D01*
X0130380Y0182637D02*
X0131152Y0182191D01*
X0131975Y0181850D01*
X0132836Y0181620D01*
X0133720Y0181503D01*
X0133966Y0181503D01*
X0133966Y0188103D01*
X0134366Y0188103D01*
X0134366Y0188503D01*
X0140966Y0188503D01*
X0140966Y0188749D01*
X0140850Y0189633D01*
X0140619Y0190494D01*
X0140278Y0191317D01*
X0139832Y0192089D01*
X0139289Y0192796D01*
X0138659Y0193427D01*
X0137952Y0193969D01*
X0137180Y0194415D01*
X0136356Y0194756D01*
X0135495Y0194987D01*
X0134612Y0195103D01*
X0134366Y0195103D01*
X0134366Y0188503D01*
X0133966Y0188503D01*
X0133966Y0188103D01*
X0127366Y0188103D01*
X0127366Y0187857D01*
X0127482Y0186974D01*
X0127713Y0186113D01*
X0128054Y0185289D01*
X0128500Y0184517D01*
X0129042Y0183810D01*
X0129673Y0183180D01*
X0130380Y0182637D01*
X0128761Y0184177D02*
X0121103Y0184177D01*
X0121103Y0185775D02*
X0127853Y0185775D01*
X0127430Y0187374D02*
X0121103Y0187374D01*
X0121103Y0188972D02*
X0127395Y0188972D01*
X0127366Y0188749D02*
X0127366Y0188503D01*
X0133966Y0188503D01*
X0133966Y0195103D01*
X0133720Y0195103D01*
X0132836Y0194987D01*
X0131975Y0194756D01*
X0131152Y0194415D01*
X0130380Y0193969D01*
X0129673Y0193427D01*
X0129042Y0192796D01*
X0128500Y0192089D01*
X0128054Y0191317D01*
X0127713Y0190494D01*
X0127482Y0189633D01*
X0127366Y0188749D01*
X0127745Y0190571D02*
X0121103Y0190571D01*
X0121103Y0192169D02*
X0128561Y0192169D01*
X0130117Y0193768D02*
X0121103Y0193768D01*
X0121103Y0195366D02*
X0141666Y0195366D01*
X0141666Y0193768D02*
X0138215Y0193768D01*
X0139771Y0192169D02*
X0141666Y0192169D01*
X0141666Y0190571D02*
X0140587Y0190571D01*
X0140936Y0188972D02*
X0141666Y0188972D01*
X0140966Y0188103D02*
X0134366Y0188103D01*
X0134366Y0181503D01*
X0134612Y0181503D01*
X0135495Y0181620D01*
X0136356Y0181850D01*
X0137180Y0182191D01*
X0137952Y0182637D01*
X0138659Y0183180D01*
X0139289Y0183810D01*
X0139832Y0184517D01*
X0140278Y0185289D01*
X0140619Y0186113D01*
X0140850Y0186974D01*
X0140966Y0187857D01*
X0140966Y0188103D01*
X0140902Y0187374D02*
X0141666Y0187374D01*
X0141666Y0185775D02*
X0140479Y0185775D01*
X0139571Y0184177D02*
X0141666Y0184177D01*
X0141666Y0182578D02*
X0137850Y0182578D01*
X0134366Y0182578D02*
X0133966Y0182578D01*
X0133966Y0184177D02*
X0134366Y0184177D01*
X0134366Y0185775D02*
X0133966Y0185775D01*
X0133966Y0187374D02*
X0134366Y0187374D01*
X0134366Y0188972D02*
X0133966Y0188972D01*
X0133966Y0190571D02*
X0134366Y0190571D01*
X0134366Y0192169D02*
X0133966Y0192169D01*
X0133966Y0193768D02*
X0134366Y0193768D01*
X0141666Y0196965D02*
X0121103Y0196965D01*
X0121103Y0198563D02*
X0141666Y0198563D01*
X0141666Y0200162D02*
X0121103Y0200162D01*
X0121103Y0201760D02*
X0141666Y0201760D01*
X0141666Y0203359D02*
X0121103Y0203359D01*
X0121103Y0204957D02*
X0141666Y0204957D01*
X0141666Y0206556D02*
X0121054Y0206556D01*
X0120072Y0208154D02*
X0141666Y0208154D01*
X0141666Y0209753D02*
X0118474Y0209753D01*
X0116875Y0211351D02*
X0141666Y0211351D01*
X0141666Y0212950D02*
X0115277Y0212950D01*
X0113678Y0214548D02*
X0141666Y0214548D01*
X0141666Y0216147D02*
X0111880Y0216147D01*
X0107916Y0217745D02*
X0141666Y0217745D01*
X0146666Y0217745D02*
X0229166Y0217745D01*
X0229166Y0216147D02*
X0146666Y0216147D01*
X0146666Y0214548D02*
X0229166Y0214548D01*
X0229166Y0212950D02*
X0146666Y0212950D01*
X0146666Y0211351D02*
X0229166Y0211351D01*
X0229166Y0209753D02*
X0146666Y0209753D01*
X0146666Y0208154D02*
X0229166Y0208154D01*
X0229166Y0206556D02*
X0203529Y0206556D01*
X0204608Y0204957D02*
X0229166Y0204957D01*
X0229166Y0203359D02*
X0204728Y0203359D01*
X0204728Y0201760D02*
X0229166Y0201760D01*
X0229078Y0200162D02*
X0204728Y0200162D01*
X0204728Y0198563D02*
X0228466Y0198563D01*
X0228466Y0196965D02*
X0204728Y0196965D01*
X0204728Y0195366D02*
X0228466Y0195366D01*
X0228466Y0193768D02*
X0225818Y0193768D01*
X0224483Y0195103D02*
X0221866Y0195103D01*
X0221866Y0188503D01*
X0228466Y0188503D01*
X0228466Y0191120D01*
X0224483Y0195103D01*
X0221866Y0193768D02*
X0221466Y0193768D01*
X0221466Y0195103D02*
X0218849Y0195103D01*
X0214866Y0191120D01*
X0214866Y0188503D01*
X0221466Y0188503D01*
X0221466Y0188103D01*
X0221866Y0188103D01*
X0221866Y0188503D01*
X0221466Y0188503D01*
X0221466Y0195103D01*
X0221466Y0192169D02*
X0221866Y0192169D01*
X0221866Y0190571D02*
X0221466Y0190571D01*
X0221466Y0188972D02*
X0221866Y0188972D01*
X0221866Y0188103D02*
X0228466Y0188103D01*
X0228466Y0185486D01*
X0224483Y0181503D01*
X0221866Y0181503D01*
X0221866Y0188103D01*
X0221466Y0188103D02*
X0221466Y0181503D01*
X0218849Y0181503D01*
X0214866Y0185486D01*
X0214866Y0188103D01*
X0221466Y0188103D01*
X0221466Y0187374D02*
X0221866Y0187374D01*
X0221866Y0185775D02*
X0221466Y0185775D01*
X0221466Y0184177D02*
X0221866Y0184177D01*
X0221866Y0182578D02*
X0221466Y0182578D01*
X0217774Y0182578D02*
X0203966Y0182578D01*
X0203966Y0180980D02*
X0228466Y0180980D01*
X0228466Y0182578D02*
X0225557Y0182578D01*
X0227156Y0184177D02*
X0228466Y0184177D01*
X0228466Y0185775D02*
X0228466Y0185775D01*
X0228466Y0187374D02*
X0228466Y0187374D01*
X0228466Y0188972D02*
X0228466Y0188972D01*
X0228466Y0190571D02*
X0228466Y0190571D01*
X0228466Y0192169D02*
X0227416Y0192169D01*
X0234166Y0192169D02*
X0236061Y0192169D01*
X0236000Y0192089D02*
X0235554Y0191317D01*
X0235213Y0190494D01*
X0234982Y0189633D01*
X0234866Y0188749D01*
X0234866Y0188503D01*
X0241466Y0188503D01*
X0241466Y0188103D01*
X0241866Y0188103D01*
X0241866Y0188503D01*
X0248466Y0188503D01*
X0248466Y0188749D01*
X0248350Y0189633D01*
X0248119Y0190494D01*
X0247778Y0191317D01*
X0247332Y0192089D01*
X0246789Y0192796D01*
X0246159Y0193427D01*
X0245452Y0193969D01*
X0244680Y0194415D01*
X0243856Y0194756D01*
X0242995Y0194987D01*
X0242112Y0195103D01*
X0241866Y0195103D01*
X0241866Y0188503D01*
X0241466Y0188503D01*
X0241466Y0195103D01*
X0241220Y0195103D01*
X0240336Y0194987D01*
X0239475Y0194756D01*
X0238652Y0194415D01*
X0237880Y0193969D01*
X0237173Y0193427D01*
X0236542Y0192796D01*
X0236000Y0192089D01*
X0235245Y0190571D02*
X0234166Y0190571D01*
X0234166Y0188972D02*
X0234895Y0188972D01*
X0234866Y0188103D02*
X0234866Y0187857D01*
X0234982Y0186974D01*
X0235213Y0186113D01*
X0235554Y0185289D01*
X0236000Y0184517D01*
X0236542Y0183810D01*
X0237173Y0183180D01*
X0237880Y0182637D01*
X0238652Y0182191D01*
X0239475Y0181850D01*
X0240336Y0181620D01*
X0241220Y0181503D01*
X0241466Y0181503D01*
X0241466Y0188103D01*
X0234866Y0188103D01*
X0234930Y0187374D02*
X0234166Y0187374D01*
X0234166Y0185775D02*
X0235353Y0185775D01*
X0236261Y0184177D02*
X0234166Y0184177D01*
X0234166Y0182578D02*
X0237982Y0182578D01*
X0241466Y0182578D02*
X0241866Y0182578D01*
X0241866Y0181503D02*
X0242112Y0181503D01*
X0242995Y0181620D01*
X0243856Y0181850D01*
X0244680Y0182191D01*
X0245452Y0182637D01*
X0246159Y0183180D01*
X0246789Y0183810D01*
X0247332Y0184517D01*
X0247778Y0185289D01*
X0248119Y0186113D01*
X0248350Y0186974D01*
X0248466Y0187857D01*
X0248466Y0188103D01*
X0241866Y0188103D01*
X0241866Y0181503D01*
X0241866Y0184177D02*
X0241466Y0184177D01*
X0241466Y0185775D02*
X0241866Y0185775D01*
X0241866Y0187374D02*
X0241466Y0187374D01*
X0241466Y0188972D02*
X0241866Y0188972D01*
X0241866Y0190571D02*
X0241466Y0190571D01*
X0241466Y0192169D02*
X0241866Y0192169D01*
X0241866Y0193768D02*
X0241466Y0193768D01*
X0237617Y0193768D02*
X0234166Y0193768D01*
X0234166Y0195366D02*
X0264814Y0195366D01*
X0264814Y0193768D02*
X0245715Y0193768D01*
X0247271Y0192169D02*
X0264814Y0192169D01*
X0264814Y0190571D02*
X0248087Y0190571D01*
X0248436Y0188972D02*
X0264814Y0188972D01*
X0264814Y0187374D02*
X0248402Y0187374D01*
X0247979Y0185775D02*
X0264814Y0185775D01*
X0264814Y0185462D02*
X0265301Y0184286D01*
X0266202Y0183386D01*
X0267378Y0182898D01*
X0296310Y0182898D01*
X0296310Y0128303D01*
X0286660Y0128303D01*
X0284546Y0129524D01*
X0281825Y0130253D01*
X0264007Y0130253D01*
X0261286Y0129524D01*
X0259171Y0128303D01*
X0238840Y0128303D01*
X0239336Y0128799D01*
X0240045Y0129724D01*
X0240628Y0130732D01*
X0241073Y0131809D01*
X0241375Y0132934D01*
X0241498Y0133871D01*
X0233440Y0133871D01*
X0233440Y0135471D01*
X0241498Y0135471D01*
X0241375Y0136409D01*
X0241073Y0137534D01*
X0240628Y0138610D01*
X0240045Y0139619D01*
X0239336Y0140543D01*
X0238512Y0141367D01*
X0237588Y0142076D01*
X0236579Y0142659D01*
X0235503Y0143104D01*
X0234378Y0143406D01*
X0233440Y0143529D01*
X0233440Y0135471D01*
X0231840Y0135471D01*
X0231840Y0133871D01*
X0223782Y0133871D01*
X0223906Y0132934D01*
X0224207Y0131809D01*
X0224653Y0130732D01*
X0225235Y0129724D01*
X0225945Y0128799D01*
X0226441Y0128303D01*
X0210887Y0128303D01*
X0211186Y0128602D01*
X0211895Y0129527D01*
X0212478Y0130536D01*
X0212924Y0131612D01*
X0213225Y0132737D01*
X0213349Y0133674D01*
X0205291Y0133674D01*
X0205291Y0135274D01*
X0213349Y0135274D01*
X0213225Y0136212D01*
X0212924Y0137337D01*
X0212478Y0138413D01*
X0211895Y0139422D01*
X0211186Y0140346D01*
X0210363Y0141170D01*
X0209438Y0141879D01*
X0208430Y0142462D01*
X0207353Y0142907D01*
X0206228Y0143209D01*
X0205291Y0143332D01*
X0205291Y0135274D01*
X0203691Y0135274D01*
X0203691Y0133674D01*
X0195633Y0133674D01*
X0195756Y0132737D01*
X0196058Y0131612D01*
X0196503Y0130536D01*
X0197086Y0129527D01*
X0197795Y0128602D01*
X0198094Y0128303D01*
X0190416Y0128303D01*
X0190416Y0145265D01*
X0200954Y0155803D01*
X0234166Y0155803D01*
X0234166Y0218331D01*
X0264814Y0218331D01*
X0264814Y0185462D01*
X0265411Y0184177D02*
X0247071Y0184177D01*
X0245350Y0182578D02*
X0296310Y0182578D01*
X0296310Y0180980D02*
X0234166Y0180980D01*
X0234166Y0179381D02*
X0296310Y0179381D01*
X0296310Y0177783D02*
X0234166Y0177783D01*
X0234166Y0176184D02*
X0296310Y0176184D01*
X0296310Y0174586D02*
X0234166Y0174586D01*
X0234166Y0172987D02*
X0296310Y0172987D01*
X0296310Y0171389D02*
X0234166Y0171389D01*
X0234166Y0169790D02*
X0296310Y0169790D01*
X0296310Y0168191D02*
X0234166Y0168191D01*
X0234166Y0166593D02*
X0296310Y0166593D01*
X0296310Y0164994D02*
X0234166Y0164994D01*
X0234166Y0163396D02*
X0296310Y0163396D01*
X0296310Y0161797D02*
X0234166Y0161797D01*
X0234166Y0160199D02*
X0296310Y0160199D01*
X0296310Y0158600D02*
X0234166Y0158600D01*
X0234166Y0157002D02*
X0296310Y0157002D01*
X0296310Y0155403D02*
X0200554Y0155403D01*
X0198956Y0153805D02*
X0296310Y0153805D01*
X0296310Y0152206D02*
X0284732Y0152206D01*
X0284922Y0152115D02*
X0283980Y0152568D01*
X0282995Y0152913D01*
X0281976Y0153146D01*
X0280938Y0153263D01*
X0273716Y0153263D01*
X0273716Y0144763D01*
X0272116Y0144763D01*
X0272116Y0153263D01*
X0264894Y0153263D01*
X0263856Y0153146D01*
X0262837Y0152913D01*
X0261851Y0152568D01*
X0260910Y0152115D01*
X0260026Y0151559D01*
X0259209Y0150908D01*
X0258470Y0150169D01*
X0257819Y0149353D01*
X0257263Y0148468D01*
X0256810Y0147527D01*
X0256465Y0146541D01*
X0256233Y0145523D01*
X0256147Y0144763D01*
X0272116Y0144763D01*
X0272116Y0143163D01*
X0256147Y0143163D01*
X0256233Y0142402D01*
X0256465Y0141384D01*
X0256810Y0140398D01*
X0257263Y0139457D01*
X0257819Y0138572D01*
X0258470Y0137756D01*
X0259209Y0137017D01*
X0260026Y0136366D01*
X0260910Y0135810D01*
X0261851Y0135357D01*
X0262837Y0135012D01*
X0263856Y0134780D01*
X0264894Y0134663D01*
X0272116Y0134663D01*
X0272116Y0143163D01*
X0273716Y0143163D01*
X0273716Y0144763D01*
X0289685Y0144763D01*
X0289599Y0145523D01*
X0289366Y0146541D01*
X0289021Y0147527D01*
X0288568Y0148468D01*
X0288013Y0149353D01*
X0287361Y0150169D01*
X0286623Y0150908D01*
X0285806Y0151559D01*
X0284922Y0152115D01*
X0286923Y0150608D02*
X0296310Y0150608D01*
X0296310Y0149009D02*
X0288228Y0149009D01*
X0289062Y0147411D02*
X0296310Y0147411D01*
X0296310Y0145812D02*
X0289533Y0145812D01*
X0289685Y0143163D02*
X0273716Y0143163D01*
X0273716Y0134663D01*
X0280938Y0134663D01*
X0281976Y0134780D01*
X0282995Y0135012D01*
X0283980Y0135357D01*
X0284922Y0135810D01*
X0285806Y0136366D01*
X0286623Y0137017D01*
X0287361Y0137756D01*
X0288013Y0138572D01*
X0288568Y0139457D01*
X0289021Y0140398D01*
X0289366Y0141384D01*
X0289599Y0142402D01*
X0289685Y0143163D01*
X0289623Y0142615D02*
X0296310Y0142615D01*
X0296310Y0141017D02*
X0289238Y0141017D01*
X0288544Y0139418D02*
X0296310Y0139418D01*
X0296310Y0137820D02*
X0287412Y0137820D01*
X0285576Y0136221D02*
X0296310Y0136221D01*
X0296310Y0134623D02*
X0233440Y0134623D01*
X0233440Y0136221D02*
X0231840Y0136221D01*
X0231840Y0135471D02*
X0231840Y0143529D01*
X0230903Y0143406D01*
X0229778Y0143104D01*
X0228701Y0142659D01*
X0227693Y0142076D01*
X0226768Y0141367D01*
X0225945Y0140543D01*
X0225235Y0139619D01*
X0224653Y0138610D01*
X0224207Y0137534D01*
X0223906Y0136409D01*
X0223782Y0135471D01*
X0231840Y0135471D01*
X0231840Y0134623D02*
X0205291Y0134623D01*
X0205291Y0136221D02*
X0203691Y0136221D01*
X0203691Y0135274D02*
X0203691Y0143332D01*
X0202753Y0143209D01*
X0201628Y0142907D01*
X0200552Y0142462D01*
X0199543Y0141879D01*
X0198619Y0141170D01*
X0197795Y0140346D01*
X0197086Y0139422D01*
X0196503Y0138413D01*
X0196058Y0137337D01*
X0195756Y0136212D01*
X0195633Y0135274D01*
X0203691Y0135274D01*
X0203691Y0134623D02*
X0190416Y0134623D01*
X0190416Y0136221D02*
X0195759Y0136221D01*
X0196258Y0137820D02*
X0190416Y0137820D01*
X0190416Y0139418D02*
X0197084Y0139418D01*
X0198466Y0141017D02*
X0190416Y0141017D01*
X0190416Y0142615D02*
X0200923Y0142615D01*
X0203691Y0142615D02*
X0205291Y0142615D01*
X0205291Y0141017D02*
X0203691Y0141017D01*
X0203691Y0139418D02*
X0205291Y0139418D01*
X0205291Y0137820D02*
X0203691Y0137820D01*
X0208059Y0142615D02*
X0228627Y0142615D01*
X0226418Y0141017D02*
X0210516Y0141017D01*
X0211898Y0139418D02*
X0225120Y0139418D01*
X0224326Y0137820D02*
X0212724Y0137820D01*
X0213223Y0136221D02*
X0223881Y0136221D01*
X0223894Y0133024D02*
X0213263Y0133024D01*
X0212847Y0131426D02*
X0224366Y0131426D01*
X0225176Y0129827D02*
X0212069Y0129827D01*
X0196912Y0129827D02*
X0190416Y0129827D01*
X0190416Y0131426D02*
X0196135Y0131426D01*
X0195718Y0133024D02*
X0190416Y0133024D01*
X0179366Y0133024D02*
X0162916Y0133024D01*
X0162916Y0131426D02*
X0179366Y0131426D01*
X0179366Y0129827D02*
X0162916Y0129827D01*
X0162916Y0128229D02*
X0179366Y0128229D01*
X0179366Y0126630D02*
X0162916Y0126630D01*
X0162916Y0125032D02*
X0179366Y0125032D01*
X0188966Y0117039D02*
X0195416Y0117039D01*
X0195416Y0115441D02*
X0188966Y0115441D01*
X0188966Y0113842D02*
X0195416Y0113842D01*
X0195416Y0112244D02*
X0189590Y0112244D01*
X0189728Y0110645D02*
X0195416Y0110645D01*
X0195416Y0109047D02*
X0189459Y0109047D01*
X0188677Y0107448D02*
X0195416Y0107448D01*
X0195416Y0105850D02*
X0186742Y0105850D01*
X0206202Y0096258D02*
X0256183Y0096258D01*
X0256512Y0097857D02*
X0237511Y0097857D01*
X0239109Y0099456D02*
X0257170Y0099456D01*
X0258234Y0101054D02*
X0240113Y0101054D01*
X0241015Y0102653D02*
X0259916Y0102653D01*
X0263524Y0104251D02*
X0242614Y0104251D01*
X0244212Y0105850D02*
X0296310Y0105850D01*
X0296310Y0107448D02*
X0245811Y0107448D01*
X0272116Y0104251D02*
X0273716Y0104251D01*
X0273716Y0102653D02*
X0272116Y0102653D01*
X0272116Y0101054D02*
X0273716Y0101054D01*
X0273716Y0099456D02*
X0272116Y0099456D01*
X0272116Y0097857D02*
X0273716Y0097857D01*
X0273716Y0093061D02*
X0272116Y0093061D01*
X0272116Y0091463D02*
X0273716Y0091463D01*
X0273716Y0089864D02*
X0272116Y0089864D01*
X0272116Y0088266D02*
X0273716Y0088266D01*
X0273716Y0086667D02*
X0272116Y0086667D01*
X0264814Y0073879D02*
X0241479Y0073879D01*
X0241158Y0072281D02*
X0264814Y0072281D01*
X0264814Y0070682D02*
X0240508Y0070682D01*
X0239433Y0069084D02*
X0264814Y0069084D01*
X0264814Y0067485D02*
X0237668Y0067485D01*
X0233440Y0067485D02*
X0231840Y0067485D01*
X0231840Y0069084D02*
X0233440Y0069084D01*
X0233440Y0070682D02*
X0231840Y0070682D01*
X0231840Y0072281D02*
X0233440Y0072281D01*
X0233440Y0073879D02*
X0231840Y0073879D01*
X0231840Y0078675D02*
X0233440Y0078675D01*
X0233440Y0080273D02*
X0231840Y0080273D01*
X0231840Y0081872D02*
X0233440Y0081872D01*
X0233440Y0083470D02*
X0231840Y0083470D01*
X0230556Y0083470D02*
X0205438Y0083470D01*
X0209653Y0081872D02*
X0227221Y0081872D01*
X0225617Y0080273D02*
X0211363Y0080273D01*
X0212418Y0078675D02*
X0224615Y0078675D01*
X0224123Y0072281D02*
X0213061Y0072281D01*
X0212472Y0070682D02*
X0224773Y0070682D01*
X0225847Y0069084D02*
X0211435Y0069084D01*
X0209775Y0067485D02*
X0227613Y0067485D01*
X0234724Y0083470D02*
X0296310Y0083470D01*
X0296310Y0097857D02*
X0289319Y0097857D01*
X0288662Y0099456D02*
X0296310Y0099456D01*
X0296310Y0101054D02*
X0287598Y0101054D01*
X0285916Y0102653D02*
X0296310Y0102653D01*
X0296310Y0104251D02*
X0282308Y0104251D01*
X0283414Y0129827D02*
X0296310Y0129827D01*
X0296310Y0131426D02*
X0240915Y0131426D01*
X0241387Y0133024D02*
X0296310Y0133024D01*
X0296310Y0144214D02*
X0273716Y0144214D01*
X0273716Y0145812D02*
X0272116Y0145812D01*
X0272116Y0144214D02*
X0190416Y0144214D01*
X0190963Y0145812D02*
X0256299Y0145812D01*
X0256770Y0147411D02*
X0192562Y0147411D01*
X0194160Y0149009D02*
X0257603Y0149009D01*
X0258909Y0150608D02*
X0195759Y0150608D01*
X0197357Y0152206D02*
X0261100Y0152206D01*
X0272116Y0152206D02*
X0273716Y0152206D01*
X0273716Y0150608D02*
X0272116Y0150608D01*
X0272116Y0149009D02*
X0273716Y0149009D01*
X0273716Y0147411D02*
X0272116Y0147411D01*
X0272116Y0142615D02*
X0273716Y0142615D01*
X0273716Y0141017D02*
X0272116Y0141017D01*
X0272116Y0139418D02*
X0273716Y0139418D01*
X0273716Y0137820D02*
X0272116Y0137820D01*
X0272116Y0136221D02*
X0273716Y0136221D01*
X0262418Y0129827D02*
X0240105Y0129827D01*
X0241400Y0136221D02*
X0260256Y0136221D01*
X0258419Y0137820D02*
X0240955Y0137820D01*
X0240161Y0139418D02*
X0257288Y0139418D01*
X0256594Y0141017D02*
X0238862Y0141017D01*
X0236654Y0142615D02*
X0256209Y0142615D01*
X0233440Y0142615D02*
X0231840Y0142615D01*
X0231840Y0141017D02*
X0233440Y0141017D01*
X0233440Y0139418D02*
X0231840Y0139418D01*
X0231840Y0137820D02*
X0233440Y0137820D01*
X0228215Y0160199D02*
X0203966Y0160199D01*
X0203966Y0161797D02*
X0228466Y0161797D01*
X0228466Y0163396D02*
X0203966Y0163396D01*
X0203966Y0164994D02*
X0228466Y0164994D01*
X0228466Y0166593D02*
X0203966Y0166593D01*
X0203966Y0168191D02*
X0228466Y0168191D01*
X0228466Y0169790D02*
X0203966Y0169790D01*
X0203966Y0171389D02*
X0228466Y0171389D01*
X0228466Y0172987D02*
X0203966Y0172987D01*
X0203966Y0174586D02*
X0228466Y0174586D01*
X0228466Y0176184D02*
X0203966Y0176184D01*
X0203966Y0177783D02*
X0228466Y0177783D01*
X0228466Y0179381D02*
X0203966Y0179381D01*
X0203966Y0184177D02*
X0216176Y0184177D01*
X0214866Y0185775D02*
X0203966Y0185775D01*
X0203966Y0187374D02*
X0214866Y0187374D01*
X0214866Y0188972D02*
X0203986Y0188972D01*
X0204728Y0190571D02*
X0214866Y0190571D01*
X0215915Y0192169D02*
X0204728Y0192169D01*
X0204728Y0193768D02*
X0217514Y0193768D01*
X0234166Y0196965D02*
X0264814Y0196965D01*
X0264814Y0198563D02*
X0234166Y0198563D01*
X0234166Y0200162D02*
X0264814Y0200162D01*
X0264814Y0201760D02*
X0234166Y0201760D01*
X0234166Y0203359D02*
X0264814Y0203359D01*
X0264814Y0204957D02*
X0234166Y0204957D01*
X0234166Y0206556D02*
X0264814Y0206556D01*
X0264814Y0208154D02*
X0234166Y0208154D01*
X0234166Y0209753D02*
X0264814Y0209753D01*
X0264814Y0211351D02*
X0234166Y0211351D01*
X0234166Y0212950D02*
X0264814Y0212950D01*
X0264814Y0214548D02*
X0234166Y0214548D01*
X0234166Y0216147D02*
X0264814Y0216147D01*
X0264814Y0217745D02*
X0234166Y0217745D01*
X0194802Y0206556D02*
X0146666Y0206556D01*
X0146666Y0204957D02*
X0175260Y0204957D01*
X0175363Y0205137D02*
X0175126Y0204726D01*
X0175004Y0204268D01*
X0175004Y0197917D01*
X0178785Y0197917D01*
X0178785Y0205831D01*
X0176567Y0205831D01*
X0176109Y0205709D01*
X0175698Y0205472D01*
X0175363Y0205137D01*
X0175004Y0203359D02*
X0146666Y0203359D01*
X0146666Y0201760D02*
X0175004Y0201760D01*
X0175004Y0200162D02*
X0146666Y0200162D01*
X0146666Y0198563D02*
X0175004Y0198563D01*
X0175004Y0197154D02*
X0175004Y0190802D01*
X0175126Y0190345D01*
X0175363Y0189934D01*
X0175698Y0189599D01*
X0176109Y0189362D01*
X0176567Y0189239D01*
X0178785Y0189239D01*
X0178785Y0197154D01*
X0179547Y0197154D01*
X0179547Y0189239D01*
X0181765Y0189239D01*
X0182223Y0189362D01*
X0182633Y0189599D01*
X0182968Y0189934D01*
X0183205Y0190345D01*
X0183328Y0190802D01*
X0183328Y0197154D01*
X0179547Y0197154D01*
X0179547Y0197917D01*
X0178785Y0197917D01*
X0178785Y0197154D01*
X0175004Y0197154D01*
X0175004Y0196965D02*
X0146666Y0196965D01*
X0146666Y0195366D02*
X0175004Y0195366D01*
X0175004Y0193768D02*
X0158318Y0193768D01*
X0156983Y0195103D02*
X0160966Y0191120D01*
X0160966Y0188503D01*
X0154366Y0188503D01*
X0154366Y0188103D01*
X0160966Y0188103D01*
X0160966Y0185486D01*
X0156983Y0181503D01*
X0154366Y0181503D01*
X0154366Y0188103D01*
X0153966Y0188103D01*
X0153966Y0181503D01*
X0151349Y0181503D01*
X0147366Y0185486D01*
X0147366Y0188103D01*
X0153966Y0188103D01*
X0153966Y0188503D01*
X0147366Y0188503D01*
X0147366Y0191120D01*
X0151349Y0195103D01*
X0153966Y0195103D01*
X0153966Y0188503D01*
X0154366Y0188503D01*
X0154366Y0195103D01*
X0156983Y0195103D01*
X0154366Y0193768D02*
X0153966Y0193768D01*
X0153966Y0192169D02*
X0154366Y0192169D01*
X0154366Y0190571D02*
X0153966Y0190571D01*
X0153966Y0188972D02*
X0154366Y0188972D01*
X0154366Y0187374D02*
X0153966Y0187374D01*
X0153966Y0185775D02*
X0154366Y0185775D01*
X0154366Y0184177D02*
X0153966Y0184177D01*
X0153966Y0182578D02*
X0154366Y0182578D01*
X0158057Y0182578D02*
X0194366Y0182578D01*
X0194366Y0180980D02*
X0146666Y0180980D01*
X0146666Y0182578D02*
X0150274Y0182578D01*
X0148676Y0184177D02*
X0146666Y0184177D01*
X0146666Y0185775D02*
X0147366Y0185775D01*
X0147366Y0187374D02*
X0146666Y0187374D01*
X0146666Y0188972D02*
X0147366Y0188972D01*
X0147366Y0190571D02*
X0146666Y0190571D01*
X0146666Y0192169D02*
X0148415Y0192169D01*
X0150014Y0193768D02*
X0146666Y0193768D01*
X0159916Y0192169D02*
X0175004Y0192169D01*
X0175066Y0190571D02*
X0160966Y0190571D01*
X0160966Y0188972D02*
X0194345Y0188972D01*
X0194366Y0187374D02*
X0160966Y0187374D01*
X0160966Y0185775D02*
X0194366Y0185775D01*
X0194366Y0184177D02*
X0159656Y0184177D01*
X0146666Y0179381D02*
X0194366Y0179381D01*
X0194366Y0177783D02*
X0146666Y0177783D01*
X0146666Y0176184D02*
X0194366Y0176184D01*
X0194366Y0174586D02*
X0146666Y0174586D01*
X0146666Y0172987D02*
X0194366Y0172987D01*
X0194366Y0171389D02*
X0193132Y0171389D01*
X0193328Y0169790D02*
X0194366Y0169790D01*
X0194366Y0168191D02*
X0193328Y0168191D01*
X0193328Y0166593D02*
X0194366Y0166593D01*
X0194366Y0164994D02*
X0193328Y0164994D01*
X0193328Y0163396D02*
X0194366Y0163396D01*
X0193372Y0161797D02*
X0193328Y0161797D01*
X0189547Y0164994D02*
X0188785Y0164994D01*
X0188785Y0166593D02*
X0189547Y0166593D01*
X0189547Y0168191D02*
X0188785Y0168191D01*
X0188785Y0169790D02*
X0189547Y0169790D01*
X0189547Y0171389D02*
X0188785Y0171389D01*
X0185200Y0171389D02*
X0146666Y0171389D01*
X0146666Y0169790D02*
X0185004Y0169790D01*
X0185004Y0168191D02*
X0146666Y0168191D01*
X0146666Y0166593D02*
X0185004Y0166593D01*
X0185004Y0164994D02*
X0161455Y0164994D01*
X0163053Y0163396D02*
X0185004Y0163396D01*
X0185004Y0161797D02*
X0164266Y0161797D01*
X0164266Y0160199D02*
X0185004Y0160199D01*
X0185004Y0158600D02*
X0164266Y0158600D01*
X0164266Y0157002D02*
X0185094Y0157002D01*
X0186666Y0155403D02*
X0162916Y0155403D01*
X0162916Y0153805D02*
X0185379Y0153805D01*
X0183781Y0152206D02*
X0162916Y0152206D01*
X0162916Y0150608D02*
X0182182Y0150608D01*
X0180584Y0149009D02*
X0162916Y0149009D01*
X0162916Y0147411D02*
X0179636Y0147411D01*
X0179366Y0145812D02*
X0162916Y0145812D01*
X0162916Y0144214D02*
X0179366Y0144214D01*
X0179366Y0142615D02*
X0162916Y0142615D01*
X0162916Y0141017D02*
X0179366Y0141017D01*
X0179366Y0139418D02*
X0162916Y0139418D01*
X0162916Y0137820D02*
X0179366Y0137820D01*
X0179366Y0136221D02*
X0162916Y0136221D01*
X0162916Y0134623D02*
X0179366Y0134623D01*
X0159166Y0133024D02*
X0157721Y0133024D01*
X0157173Y0131426D02*
X0159166Y0131426D01*
X0159166Y0129827D02*
X0156084Y0129827D01*
X0153947Y0128229D02*
X0159166Y0128229D01*
X0159166Y0147411D02*
X0129266Y0147411D01*
X0128172Y0149009D02*
X0159166Y0149009D01*
X0159166Y0150608D02*
X0126574Y0150608D01*
X0124350Y0150608D02*
X0123982Y0150608D01*
X0123982Y0149009D02*
X0124350Y0149009D01*
X0124350Y0147411D02*
X0123982Y0147411D01*
X0121758Y0150608D02*
X0107916Y0150608D01*
X0107916Y0152206D02*
X0159166Y0152206D01*
X0151566Y0157002D02*
X0146666Y0157002D01*
X0146666Y0158600D02*
X0151566Y0158600D01*
X0151566Y0160199D02*
X0146666Y0160199D01*
X0146666Y0161797D02*
X0151566Y0161797D01*
X0152778Y0163396D02*
X0146666Y0163396D01*
X0146666Y0164994D02*
X0154377Y0164994D01*
X0178785Y0190571D02*
X0179547Y0190571D01*
X0179547Y0192169D02*
X0178785Y0192169D01*
X0178785Y0193768D02*
X0179547Y0193768D01*
X0179547Y0195366D02*
X0178785Y0195366D01*
X0178785Y0196965D02*
X0179547Y0196965D01*
X0179547Y0197917D02*
X0183328Y0197917D01*
X0183328Y0204268D01*
X0183205Y0204726D01*
X0182968Y0205137D01*
X0182633Y0205472D01*
X0182223Y0205709D01*
X0181765Y0205831D01*
X0179547Y0205831D01*
X0179547Y0197917D01*
X0179547Y0198563D02*
X0178785Y0198563D01*
X0178785Y0200162D02*
X0179547Y0200162D01*
X0179547Y0201760D02*
X0178785Y0201760D01*
X0178785Y0203359D02*
X0179547Y0203359D01*
X0179547Y0204957D02*
X0178785Y0204957D01*
X0183072Y0204957D02*
X0193723Y0204957D01*
X0193604Y0203359D02*
X0183328Y0203359D01*
X0183328Y0201760D02*
X0193604Y0201760D01*
X0193604Y0200162D02*
X0183328Y0200162D01*
X0183328Y0198563D02*
X0193604Y0198563D01*
X0193604Y0196965D02*
X0183328Y0196965D01*
X0183328Y0195366D02*
X0193604Y0195366D01*
X0193604Y0193768D02*
X0183328Y0193768D01*
X0183328Y0192169D02*
X0193604Y0192169D01*
X0193604Y0190571D02*
X0183266Y0190571D01*
X0120160Y0149009D02*
X0107916Y0149009D01*
X0107916Y0147411D02*
X0119066Y0147411D01*
X0115366Y0155403D02*
X0107916Y0155403D01*
X0107916Y0157002D02*
X0113767Y0157002D01*
X0113178Y0158600D02*
X0107916Y0158600D01*
X0107916Y0160199D02*
X0113178Y0160199D01*
X0113460Y0161797D02*
X0107916Y0161797D01*
X0107916Y0163396D02*
X0114728Y0163396D01*
X0114728Y0164994D02*
X0107916Y0164994D01*
X0107916Y0166593D02*
X0114728Y0166593D01*
X0114728Y0168191D02*
X0107916Y0168191D01*
X0107916Y0169790D02*
X0114728Y0169790D01*
X0114728Y0171389D02*
X0107916Y0171389D01*
X0107916Y0172987D02*
X0114728Y0172987D01*
X0114728Y0174586D02*
X0107916Y0174586D01*
X0107916Y0176184D02*
X0114728Y0176184D01*
X0114728Y0177783D02*
X0107916Y0177783D01*
X0107916Y0179381D02*
X0114728Y0179381D01*
X0114728Y0180980D02*
X0107916Y0180980D01*
X0107916Y0182578D02*
X0114728Y0182578D01*
X0114728Y0184177D02*
X0107916Y0184177D01*
X0107916Y0185775D02*
X0114728Y0185775D01*
X0114728Y0187374D02*
X0107916Y0187374D01*
X0107916Y0188972D02*
X0114728Y0188972D01*
X0114728Y0190571D02*
X0107916Y0190571D01*
X0107916Y0192169D02*
X0114728Y0192169D01*
X0114728Y0193768D02*
X0107916Y0193768D01*
X0107916Y0195366D02*
X0114728Y0195366D01*
X0114728Y0196965D02*
X0107916Y0196965D01*
X0107916Y0198563D02*
X0114728Y0198563D01*
X0114728Y0200162D02*
X0107916Y0200162D01*
X0107916Y0201760D02*
X0114728Y0201760D01*
X0114728Y0203359D02*
X0107916Y0203359D01*
X0107916Y0204957D02*
X0114254Y0204957D01*
X0112656Y0206556D02*
X0107916Y0206556D01*
X0107916Y0208154D02*
X0111057Y0208154D01*
X0109459Y0209753D02*
X0107916Y0209753D01*
X0105416Y0198563D02*
X0104706Y0198563D01*
X0105416Y0196965D02*
X0102700Y0196965D01*
X0105416Y0195366D02*
X0090112Y0195366D01*
X0090112Y0193768D02*
X0105416Y0193768D01*
X0105416Y0192169D02*
X0090112Y0192169D01*
X0090112Y0190571D02*
X0105416Y0190571D01*
X0105416Y0188972D02*
X0090112Y0188972D01*
X0090112Y0187374D02*
X0105416Y0187374D01*
X0105416Y0185775D02*
X0090112Y0185775D01*
X0089516Y0184177D02*
X0105416Y0184177D01*
X0105416Y0182578D02*
X0079004Y0182578D01*
X0080170Y0180980D02*
X0105416Y0180980D01*
X0105416Y0179381D02*
X0080803Y0179381D01*
X0080803Y0177783D02*
X0105416Y0177783D01*
X0105416Y0176184D02*
X0103237Y0176184D01*
X0104836Y0174586D02*
X0105416Y0174586D01*
X0097594Y0176184D02*
X0093237Y0176184D01*
X0094836Y0174586D02*
X0095996Y0174586D01*
X0096424Y0166593D02*
X0094408Y0166593D01*
X0092447Y0164994D02*
X0098385Y0164994D01*
X0096786Y0163396D02*
X0094046Y0163396D01*
X0094816Y0161797D02*
X0096016Y0161797D01*
X0096016Y0160803D02*
X0100416Y0160803D01*
X0096016Y0160803D01*
X0096016Y0160199D02*
X0094816Y0160199D01*
X0094436Y0158600D02*
X0096396Y0158600D01*
X0097995Y0157002D02*
X0092837Y0157002D01*
X0090416Y0157002D02*
X0090416Y0157002D01*
X0090416Y0158600D02*
X0090416Y0158600D01*
X0090416Y0160199D02*
X0090416Y0160199D01*
X0090416Y0160803D02*
X0086016Y0160803D01*
X0090416Y0160803D01*
X0090416Y0160803D01*
X0086016Y0160199D02*
X0058616Y0160199D01*
X0058616Y0161797D02*
X0086016Y0161797D01*
X0086786Y0163396D02*
X0078372Y0163396D01*
X0079908Y0164994D02*
X0088385Y0164994D01*
X0086424Y0166593D02*
X0080570Y0166593D01*
X0080803Y0168191D02*
X0084825Y0168191D01*
X0084616Y0169790D02*
X0080728Y0169790D01*
X0080066Y0171389D02*
X0084616Y0171389D01*
X0084616Y0172987D02*
X0078753Y0172987D01*
X0079719Y0174586D02*
X0085996Y0174586D01*
X0087594Y0176184D02*
X0080466Y0176184D01*
X0064579Y0172987D02*
X0058616Y0172987D01*
X0058616Y0171389D02*
X0063266Y0171389D01*
X0062604Y0169790D02*
X0058616Y0169790D01*
X0058616Y0168191D02*
X0062529Y0168191D01*
X0062762Y0166593D02*
X0058616Y0166593D01*
X0058616Y0164994D02*
X0063424Y0164994D01*
X0064960Y0163396D02*
X0058616Y0163396D01*
X0058616Y0158600D02*
X0086396Y0158600D01*
X0087995Y0157002D02*
X0058616Y0157002D01*
X0058616Y0174586D02*
X0063613Y0174586D01*
X0062866Y0176184D02*
X0058616Y0176184D01*
X0058616Y0177783D02*
X0062529Y0177783D01*
X0062529Y0179381D02*
X0058616Y0179381D01*
X0058616Y0180980D02*
X0063162Y0180980D01*
X0064328Y0182578D02*
X0058616Y0182578D01*
X0100416Y0160803D02*
X0100416Y0160803D01*
X0100416Y0160199D02*
X0100416Y0160199D01*
X0100416Y0158600D02*
X0100416Y0158600D01*
X0100416Y0157002D02*
X0100416Y0157002D01*
X0102837Y0157002D02*
X0105416Y0157002D01*
X0105416Y0158600D02*
X0104436Y0158600D01*
X0104816Y0160199D02*
X0105416Y0160199D01*
X0105416Y0161797D02*
X0104816Y0161797D01*
X0105416Y0163396D02*
X0104046Y0163396D01*
X0105416Y0164994D02*
X0102447Y0164994D01*
X0104408Y0166593D02*
X0105416Y0166593D01*
X0086216Y0104251D02*
X0084616Y0104251D01*
X0084616Y0102653D02*
X0086216Y0102653D01*
X0086216Y0101054D02*
X0084616Y0101054D01*
X0084616Y0099456D02*
X0086216Y0099456D01*
X0086216Y0097857D02*
X0084616Y0097857D01*
X0084616Y0093061D02*
X0086216Y0093061D01*
X0086216Y0091463D02*
X0084616Y0091463D01*
X0084616Y0089864D02*
X0086216Y0089864D01*
X0086216Y0088266D02*
X0084616Y0088266D01*
X0090112Y0065887D02*
X0202833Y0065887D01*
X0203691Y0065887D02*
X0205291Y0065887D01*
X0206148Y0065887D02*
X0264814Y0065887D01*
X0264814Y0064288D02*
X0090112Y0064288D01*
X0090112Y0062690D02*
X0264814Y0062690D01*
X0264814Y0061091D02*
X0090112Y0061091D01*
X0090112Y0059493D02*
X0264814Y0059493D01*
X0264814Y0057894D02*
X0090112Y0057894D01*
X0090112Y0056296D02*
X0264814Y0056296D01*
X0264814Y0054697D02*
X0090112Y0054697D01*
X0090112Y0053099D02*
X0264814Y0053099D01*
X0205291Y0067485D02*
X0203691Y0067485D01*
X0203691Y0069084D02*
X0205291Y0069084D01*
X0205291Y0070682D02*
X0203691Y0070682D01*
X0151427Y0070682D02*
X0150468Y0070682D01*
X0150468Y0069084D02*
X0151427Y0069084D01*
X0150468Y0067717D02*
X0150468Y0074152D01*
X0151427Y0074152D01*
X0151427Y0075111D01*
X0150468Y0075111D01*
X0150468Y0074152D01*
X0144033Y0074152D01*
X0144148Y0073279D01*
X0144382Y0072403D01*
X0144729Y0071566D01*
X0145183Y0070780D01*
X0145735Y0070061D01*
X0146376Y0069419D01*
X0147096Y0068867D01*
X0147881Y0068414D01*
X0148719Y0068067D01*
X0149595Y0067832D01*
X0150468Y0067717D01*
X0146814Y0069084D02*
X0126675Y0069084D01*
X0128336Y0070682D02*
X0145258Y0070682D01*
X0144433Y0072281D02*
X0129230Y0072281D01*
X0129651Y0073879D02*
X0144069Y0073879D01*
X0144033Y0075111D02*
X0150468Y0075111D01*
X0150468Y0081547D01*
X0149595Y0081432D01*
X0148719Y0081197D01*
X0147881Y0080850D01*
X0147096Y0080396D01*
X0146376Y0079844D01*
X0145735Y0079203D01*
X0145183Y0078484D01*
X0144729Y0077698D01*
X0144382Y0076860D01*
X0144148Y0075984D01*
X0144033Y0075111D01*
X0144081Y0075478D02*
X0129690Y0075478D01*
X0129712Y0075308D02*
X0129598Y0076181D01*
X0129363Y0077057D01*
X0129016Y0077895D01*
X0128562Y0078680D01*
X0128010Y0079400D01*
X0127369Y0080041D01*
X0126650Y0080593D01*
X0125864Y0081047D01*
X0125026Y0081394D01*
X0124150Y0081628D01*
X0123277Y0081743D01*
X0123277Y0075308D01*
X0129712Y0075308D01*
X0129355Y0077076D02*
X0144472Y0077076D01*
X0145330Y0078675D02*
X0128566Y0078675D01*
X0127066Y0080273D02*
X0146935Y0080273D01*
X0150468Y0080273D02*
X0151427Y0080273D01*
X0151427Y0078675D02*
X0150468Y0078675D01*
X0150468Y0077076D02*
X0151427Y0077076D01*
X0151427Y0075478D02*
X0150468Y0075478D01*
X0150468Y0073879D02*
X0151427Y0073879D01*
X0151427Y0072281D02*
X0150468Y0072281D01*
X0123277Y0072281D02*
X0122318Y0072281D01*
X0122318Y0073879D02*
X0123277Y0073879D01*
X0123277Y0075478D02*
X0122318Y0075478D01*
X0122318Y0077076D02*
X0123277Y0077076D01*
X0123277Y0078675D02*
X0122318Y0078675D01*
X0122318Y0080273D02*
X0123277Y0080273D01*
X0123277Y0070682D02*
X0122318Y0070682D01*
X0122318Y0069084D02*
X0123277Y0069084D01*
D23*
X0127916Y0053303D03*
X0117916Y0053303D03*
X0107916Y0053303D03*
X0100416Y0053303D03*
X0092916Y0053303D03*
X0092916Y0060803D03*
X0100416Y0060803D03*
X0100416Y0070803D03*
X0092916Y0070803D03*
X0097916Y0080803D03*
X0105416Y0098303D03*
X0072916Y0088303D03*
X0062916Y0088303D03*
X0060416Y0095803D03*
X0060416Y0105803D03*
X0137916Y0053303D03*
X0147916Y0053303D03*
X0202916Y0053303D03*
X0212916Y0053303D03*
X0222916Y0053303D03*
X0232916Y0053303D03*
X0242916Y0053303D03*
X0252916Y0053303D03*
X0252916Y0060803D03*
X0252916Y0068303D03*
X0245416Y0063303D03*
X0245416Y0073303D03*
X0250416Y0085803D03*
X0250416Y0093303D03*
X0250416Y0100803D03*
X0257916Y0105803D03*
X0272916Y0105803D03*
X0292916Y0105803D03*
X0292916Y0095803D03*
X0292916Y0085803D03*
X0282916Y0083303D03*
X0272916Y0083303D03*
X0262916Y0083303D03*
X0262916Y0068303D03*
X0262916Y0060803D03*
X0262916Y0053303D03*
X0184166Y0110803D03*
X0202916Y0153303D03*
X0210416Y0153303D03*
X0220416Y0153303D03*
X0227916Y0153303D03*
X0235416Y0153303D03*
X0242916Y0153303D03*
X0250416Y0153303D03*
X0257916Y0155803D03*
X0267916Y0155803D03*
X0277916Y0155803D03*
X0287916Y0155803D03*
X0292916Y0150803D03*
X0292916Y0140803D03*
X0292916Y0130803D03*
X0282916Y0130803D03*
X0272916Y0130803D03*
X0262916Y0130803D03*
X0257916Y0135803D03*
X0250416Y0143303D03*
X0262916Y0170803D03*
X0272916Y0170803D03*
X0282916Y0170803D03*
X0292916Y0173303D03*
X0292916Y0165803D03*
X0292916Y0180803D03*
X0282916Y0180803D03*
X0272916Y0180803D03*
X0265416Y0180803D03*
X0262916Y0200803D03*
X0262916Y0208303D03*
X0262916Y0215803D03*
X0252916Y0215803D03*
X0207916Y0215803D03*
X0197916Y0215803D03*
X0187916Y0215803D03*
X0177916Y0215803D03*
X0167916Y0215803D03*
X0205416Y0170803D03*
D24*
X0199166Y0160803D02*
X0184166Y0145803D01*
X0184166Y0110803D01*
X0199166Y0160803D02*
X0199166Y0197535D01*
X0179166Y0197535D02*
X0175898Y0197535D01*
X0176666Y0196768D01*
X0176666Y0195803D01*
X0175898Y0197535D02*
X0162050Y0183687D01*
X0181666Y0164071D01*
X0189166Y0164071D01*
X0117916Y0159553D02*
X0117916Y0205803D01*
X0110416Y0213303D01*
X0095416Y0213303D01*
M02*
